<svg xmlns="http://www.w3.org/2000/svg" id="_Слой_1" data-name="Слой 1" viewBox="0 0 547 326" width="800">
  <defs>
    <style>
      .cls-2{fill:#69f}.cls-3{font-family:ArialMT,Arial;font-size:20px;isolation:isolate}.cls-3,.cls-4{fill:#616161}.cls-5{fill:none;stroke:rgba(97,97,97,.8);stroke-linecap:round;stroke-linejoin:round;stroke-width:2.5px}
    </style>
  </defs>
  <text class="cls-3" transform="translate(203 135)"><tspan x="0" y="0">2</tspan></text>
  <path d="m255 133-93 28" class="cls-5"/>
  <text class="cls-3" transform="translate(297 132)"><tspan x="0" y="0">4</tspan></text>
  <path d="m255 133 88 17" class="cls-5"/>
  <text class="cls-3" transform="translate(131 125)"><tspan x="0" y="0">3</tspan></text>
  <path d="m162 161-66-51" class="cls-5"/>
  <text class="cls-3" transform="translate(119 193)"><tspan x="0" y="0">4</tspan></text>
  <path d="m162 161-42 60" class="cls-5"/>
  <text class="cls-3" transform="translate(72 69)"><tspan x="0" y="0">1</tspan></text>
  <path d="M96 110 45 58" class="cls-5"/>
  <text class="cls-3" transform="translate(35 115)"><tspan x="0" y="0">4</tspan></text>
  <path d="m96 110-74 23" class="cls-5"/>
  <text class="cls-3" transform="translate(70 230)"><tspan x="0" y="0">1</tspan></text>
  <path d="m120 221-62 26" class="cls-5"/>
  <text class="cls-3" transform="translate(138 251)"><tspan x="0" y="0">3</tspan></text>
  <path d="m120 221 13 50" class="cls-5"/>
  <text class="cls-3" transform="translate(360 106)"><tspan x="0" y="0">1</tspan></text>
  <path d="m343 150 55-58" class="cls-5"/>
  <text class="cls-3" transform="translate(402 156)"><tspan x="0" y="0">2</tspan></text>
  <path d="m343 150 91 23" class="cls-5"/>
  <text class="cls-3" transform="translate(339 207)"><tspan x="0" y="0">3</tspan></text>
  <path d="m343 150 20 84" class="cls-5"/>
  <text class="cls-3" transform="translate(379 51)"><tspan x="0" y="0">2</tspan></text>
  <path d="m398 92 2-71" class="cls-5"/>
  <text class="cls-3" transform="translate(463 96)"><tspan x="0" y="0">3</tspan></text>
  <path d="m398 92 93-24" class="cls-5"/>
  <text class="cls-3" transform="translate(490 156)"><tspan x="0" y="0">1</tspan></text>
  <path d="m434 173 87-9" class="cls-5"/>
  <text class="cls-3" transform="translate(462 231)"><tspan x="0" y="0">3</tspan></text>
  <path d="m434 173 65 56" class="cls-5"/>
  <text class="cls-3" transform="translate(324 266)"><tspan x="0" y="0">2</tspan></text>
  <path d="m363 234-38 61" class="cls-5"/>
  <text class="cls-3" transform="translate(393 275)"><tspan x="0" y="0">1</tspan></text>
  <path d="m363 234 36 69" class="cls-5"/>
  <path fill="#c6f" d="M262 133a7 7 0 1 1-14 0 7 7 0 0 1 14 0Z"/>
  <path d="M169 161a7 7 0 1 1-14 0 7 7 0 0 1 14 0Zm181-11a7 7 0 1 1-14 0 7 7 0 0 1 14 0Zm-247-40a7 7 0 1 1-14 0 7 7 0 0 1 14 0Zm24 111a7 7 0 1 1-14 0 7 7 0 0 1 14 0Z" class="cls-4"/>
  <path d="M52 58a7 7 0 1 1-14 0 7 7 0 0 1 14 0Zm-23 75a7 7 0 1 1-14 0 7 7 0 0 1 14 0Zm36 114a7 7 0 1 1-14 0 7 7 0 0 1 14 0Zm75 24a7 7 0 1 1-14 0 7 7 0 0 1 14 0Z" class="cls-2"/>
  <path d="M405 92a7 7 0 1 1-14 0 7 7 0 0 1 14 0Zm36 81a7 7 0 1 1-14 0 7 7 0 0 1 14 0Zm-71 61a7 7 0 1 1-14 0 7 7 0 0 1 14 0Z" class="cls-4"/>
  <path d="M407 21a7 7 0 1 1-14 0 7 7 0 0 1 14 0Zm91 47a7 7 0 1 1-14 0 7 7 0 0 1 14 0Zm30 96a7 7 0 1 1-14 0 7 7 0 0 1 14 0Zm-22 65a7 7 0 1 1-14 0 7 7 0 0 1 14 0Zm-174 66a7 7 0 1 1-14 0 7 7 0 0 1 14 0Zm74 8a7 7 0 1 1-14 0 7 7 0 0 1 14 0Z" class="cls-2"/>
</svg>
