<svg id="Слой_1" data-name="Слой 1" xmlns="http://www.w3.org/2000/svg" viewBox="0 0 503.6 383.7" width="800"><defs><style>.cls-1{fill:#2e3192}.cls-2{fill:#39b54a}.cls-3{fill:#1f0202}.cls-4{fill:#fd8b00}.cls-5{fill:#fefefe}</style></defs><path class="cls-1" d="M226.8 345.5c0 .4-.5.5-.8.6a133.7 133.7 0 01-43.4 13.6 128.5 128.5 0 01-19.7 1.3 134.2 134.2 0 01-77.6-25.8 5 5 0 01-.5-.4.6.6 0 00.6-.4c.3-.7.5-1.5 1.5-1.6a2.2 2.2 0 00-.7-1.4c-.5-.4-.8-1-1.3-1.3s-.2-.7.3-1a4.3 4.3 0 012.2 0c.8 0 1.5.2 2.3.3a6.2 6.2 0 012.6.7 4.8 4.8 0 002.4.4c.4 0 .7-.1.7-.7a1.2 1.2 0 01.5-.7 2.2 2.2 0 00.8-2.5 1.8 1.8 0 010-1 3.9 3.9 0 00.2-1 12.2 12.2 0 00-.6-5 7.3 7.3 0 01-.4-3.5c.5.1.8.7 1.3.3.6-.5 1.4-.9 1.7-1.8a1.4 1.4 0 011-1c1.6-.5 2.5-2 3.5-3.2a1 1 0 00.1-.3 6.3 6.3 0 000-2.8l-1.2-3.7a2.3 2.3 0 00-1.5-1.5l-2.3-.9a3.2 3.2 0 01-1.3-.8l-4.7-5c-.2-.3-.4-.5-.7-.6a1.5 1.5 0 01-1.1-.6 1 1 0 00-.6-.4c-1.3-.3-2.6-1-3.9-1.5a8.4 8.4 0 01-3.1-2 1 1 0 00-1.3-.2 4.2 4.2 0 01-1.9.2c-.6 0-.7-.1-.6-.7a3.2 3.2 0 00-1.4-3.5 17.3 17.3 0 01-3.4-3.2c-.5-.7-1.3-.8-2-1.1-.4-.2-.9.4-1.3.7a1 1 0 01-.3 0 2.5 2.5 0 01-.3-1.5 1.5 1.5 0 00-1-1.6l-2.6-1.3a2.5 2.5 0 01-.9-.6c-.2-.3-.2-.5 0-.8a3.6 3.6 0 011.3-1c.2-.1.5-.2.4-.6-.2-.5-.1-1.2-.6-1.7A7.3 7.3 0 0166 270a14.5 14.5 0 00-2.3-5.7l-2-3a5.2 5.2 0 00-1-1.3 18.1 18.1 0 00-3-2 12.2 12.2 0 01-4.6-4.8 3 3 0 01-.5-1.5c0-2-1.4-3.4-2-5.2a1.1 1.1 0 00-.5-.4 1.1 1.1 0 01-.4-1 4.5 4.5 0 00-1.3-3.5 2 2 0 01-.7-1.8 1.2 1.2 0 00-.6-1.2 2 2 0 00-1.6-.6 1.2 1.2 0 01-1.2-.6 18.6 18.6 0 00-2.7-3.2 1.4 1.4 0 01-.5-.9c-.1-1.3-.6-2.5-.8-3.8a3.5 3.5 0 00-.4-1.5 4 4 0 00-.4 1.3.6.6 0 01-.6.4c-.3 0-.5 0-.5-.4-.1-.7-.6-1.4.2-2 .4-.2.3-.7.1-1a.5.5 0 00-.8-.2c-.5.5-1 .3-1.5 0-.7-.3-1.2 0-1.2.8a4.4 4.4 0 01-1.2 2.5 1 1 0 01-.5-.7 32.5 32.5 0 00-1.4-4c-1-2-.7-4.1-.5-6.2l.8-5.2a24.9 24.9 0 01.6-3.8 10.1 10.1 0 000-5.8 4.8 4.8 0 010-2.9c.9-2.7 1.5-5.5 2.5-8.3l.8-2a2 2 0 000-1.7 1.7 1.7 0 010-1.6l3.5-10.5a68.2 68.2 0 013.9-8.4l.3-.3a9.1 9.1 0 00-.1 2.6l.8-1.6a2.2 2.2 0 01.3 2.3 2 2 0 000 2.2c.3.3.2.6 0 1l-2.8 6.9a10.7 10.7 0 00-1 4.7 1.5 1.5 0 00.3 1.2c.5-.8 1.3-1.5 1.4-2.5a10.2 10.2 0 011-3.2 12 12 0 00.6-1.7c.4-1.6 1-3.2 1.6-4.7a10.8 10.8 0 013.4-5.2c.9-.7 2-1.1 3-1.9a7.6 7.6 0 013-1.1 1.3 1.3 0 001-.6 11.2 11.2 0 001.5-3.6 1.9 1.9 0 011.4-1.9 2.7 2.7 0 001.9-1.6 1.7 1.7 0 011.3-1.2 1.6 1.6 0 001-.8 2.8 2.8 0 012-1.4c.6 0 1-.2 1-1l.7.3a5.5 5.5 0 001.7.5c1 0 1 0 1-.9a2.3 2.3 0 01.3-1.4 7 7 0 013.1-2.4 15 15 0 015-1 4 4 0 003-.7h.4v.6c0 1.2-.5 1.5-1.6 1a1.4 1.4 0 00-1.4.1l-1.1.8a.9.9 0 00-.5 1.3c.1.2 0 .5.3.6a5.8 5.8 0 001.6-.8 1.8 1.8 0 012-.3 1 1 0 001 0 2.3 2.3 0 011.9-.6c.2 0 .5 0 .5-.2 0-.8.6-.6 1-.7.8-.1 1.5-.1 1.6-1.1 0-.2.3-.3.4-.5a3.3 3.3 0 00.3-.4.5.5 0 000-.6c-.1-.3-.4-.2-.5 0a8.3 8.3 0 00-1.4 1 1.5 1.5 0 01-2.2.1.8.8 0 00-.2 0 .8.8 0 01-.6-1c0-1.2 0-2.4 1.4-3.2.5-.3.4-.6 0-1.1 0-.2-.2-.3-.1-.4a1 1 0 01.7-.1 2.1 2.1 0 001.5-.6.8.8 0 00-.3-1.5 4.7 4.7 0 00-2.6-.1.6.6 0 01-.7-.1c.5-.5 1-1.1 1.7-1.1a3 3 0 002.1-.8 1.3 1.3 0 011.4-.2c.8.3 1.5.5 2.2.9a7.5 7.5 0 006.4.4 5 5 0 01.9-.3 2.6 2.6 0 011.5 0l-4 3a3.5 3.5 0 00-1.3 1.2 4.4 4.4 0 01-2.2 2 3.1 3.1 0 00-.7.4c-.3.3-.3.7 0 .8 1.1.3 2 1 3.1 1.2a1.3 1.3 0 011.1.6l-1.2.3c-.4 0-.4.1-.4.4s.2.4.5.4c.7.2 1.2-.3 1.8-.4a1.3 1.3 0 00.1.1c0 .1 0 .3-.2.4s-.1.5.1.5.5.7.9.4c1-.7 2.1-1.2 2.3-2.5-.1-.3-.6 0-.7-.5l.8-.7c.3-.3.3-.3.1-.5-.4-.5-.2-.8.2-1s.2-.5.2-.9c-.2-.7-.8-.5-1.2-.7-.3-.1-.6-.1-.6-.5s-.1-.7.2-1c1.1-.9 2-2.1 3-3-.1-.4-.6-.3-.7-.7a1.5 1.5 0 011.3-.6c.3 0 .7 0 .8-.4a2.7 2.7 0 011.2-1.6.6.6 0 00.1-.9 5.2 5.2 0 01-.6-1.3c-.2-1 0-1.1.9-1.2l.1-.1c0-.5-.4-.8-.6-1.1a2.6 2.6 0 01-.3-.8 6.1 6.1 0 01.2-3.3c.2-.4.3-.6.7-.5s.8-.2 1-.7l2.6-4.6a2.8 2.8 0 00.6-1.4c-1 .6-2 .7-2.6 1.3a3.1 3.1 0 01-3 .7 10.1 10.1 0 00.9-2 2.5 2.5 0 011-1.2l1.9-1.2c.3-.3.5-.5.2-.9a.6.6 0 010-.9 2.4 2.4 0 00.3-.7 1.4 1.4 0 00-.4-1.6 1.6 1.6 0 00-1.9-.1l-2.4 1.5a2.3 2.3 0 00-.9 1 3 3 0 01-1.7 1.3c-1.2.6-2.8.9-3.3 2.5l-.2.1-2.1 2.2a2 2 0 01-.6.4c-1.5.6-2.8 1.5-4.3 2a9 9 0 00-3.5 2.5l-2.5 2.5a11.1 11.1 0 01-1 .8c-.2.1-.4.3-.7 0s-.1-.5 0-.7a1.8 1.8 0 01.5-.9 11.6 11.6 0 001.4-1.9 3.1 3.1 0 01.8-1l3-2.5c.5-.3 1-.7.6-1.4l.2-.7a9 9 0 011.2-2 4.5 4.5 0 001.1-2.2 1.5 1.5 0 011-1.4 6.5 6.5 0 002.3-1.8 3 3 0 011.2-1l6.3-2.8c1.3-.6 2.7-.8 4-1.5a4 4 0 012.5 0L105 111a2 2 0 001.2.4c.5 0 1-.1 1.4.3.2.2.8.1.8-.4a1.1 1.1 0 01.3-1c1.2-1.3 2.5-2.6 4.7-2a.7.7 0 00.3 0c.7-.2 1.5-.3 2-.8a6.7 6.7 0 012.6-1.6l1.4-.7a1.8 1.8 0 001-.8 1.1 1.1 0 00-1.4-.4 4.3 4.3 0 01-1 .2v-.1a10.2 10.2 0 014.2-2.7c1.3-.3 2.5-.9 3.8-1.4a1 1 0 01-.8.9 17.1 17.1 0 00-3.4 1.7c-.8.3-1 .9-.6 1.8.3.6.8.3 1.2.2a.7.7 0 01.3.1 1.6 1.6 0 01-.6 1.4 5.6 5.6 0 00-1.4 2.2.9.9 0 01-1 .6 5 5 0 00-1.7.3 13.6 13.6 0 01-2.9 1 .7.7 0 00-.6.5c-.2.5-.5.6-1 .3a1.6 1.6 0 00-2 0l-1.4.7c-.2.1-.5.2-.5.5l.3.1c1.1.4 1.1.4.6 1.3l-.4 1a4.4 4.4 0 000 3.4c1.6-.2 1.8-1.7 2.5-2.7.8.8.3 1.7.1 2.4a.8.8 0 001.1-.4 3 3 0 011.5-1.2 3.3 3.3 0 001.6-2l.6-1.1a1.8 1.8 0 011.2-1.3c.3-.1.7-.6 1-.3.3.5-.3.7-.5 1a2.1 2.1 0 00-.8 2.3 1 1 0 00.2 0 24.7 24.7 0 004.5-2.3c.4-.2.4-.5.4-.9a3 3 0 01.2-1.4 2 2 0 000-1.3.8.8 0 01.8-1.1 3.1 3.1 0 01.9 0 1.4 1.4 0 001.2-.7 9 9 0 001.8-3.8 1.7 1.7 0 011.6-1.5 1.6 1.6 0 001.4-.7l-2.7-1 .5-.8c.2-.3.1-.5-.2-.6a2 2 0 00-.4 0c-.8-.2-.6-.8-.7-1.3s.4-.4.7-.5a9.9 9.9 0 001.3-.5 1.9 1.9 0 011.7 0c.6.3.8.6.5 1.3a4.1 4.1 0 00-.5 1c-.3 1.1.2 1.9 1.3 1.6a12.8 12.8 0 012.5-.5c-.2-.6-.8-.6-1-1 .8-.7 1.2-.7 2 0 1 .9 1.4.8 2.5.1a8 8 0 014.9-1.6 3.2 3.2 0 001-.1l4.8-1.2a2.5 2.5 0 011-.1c1 .1 2.2 0 3.3.2a5.6 5.6 0 00-2.3-1.4l-3-.3a2.7 2.7 0 00-1.2.3 27.8 27.8 0 01-5.2.2 1.4 1.4 0 01-1.5-1.3 32.5 32.5 0 014.6-.8 135.5 135.5 0 0158.8 4.6 1 1 0 01.2 0c-.2.6.2.8.7 1l5.5 2a6.8 6.8 0 011.4.7c.2.1.4.3.4.5-.1.5.3.7.6 1a16.3 16.3 0 002.5 1.6l4.9 2.4c-.5.8-.5.8 0 1.6a2 2 0 00.5.5.8.8 0 01.2 1.1c-.1.4-.3.8-.8.8a23 23 0 011 2.6l-2.3-1c-1.2-.6-1.2-.6-2.2-.4 1.5 1 3.1 1.7 4.6 2.7-.8.5-.8.5-.5 1.2a2.2 2.2 0 001.4 1.6c.2 0 .5.1.5.4s-.3.5-.6.6-.4 0-.6.2c.2.3.7.2.7.6a.3.3 0 01-.4.1c-2.5-.4-4.5-1.9-6.8-3.2H218.8a.7.7 0 00.5-1.1 1.7 1.7 0 00-.4-.4l-1.4-1.1a4 4 0 00-2.4-1 13.3 13.3 0 01-2.3-.3 33.2 33.2 0 00-6.1-.8 4.3 4.3 0 01-3.1-1 .8.8 0 00-.8-.4 10.7 10.7 0 00-2.4 1c-.5.3-.4 1-.6 1.5l-.2.1-.6-.3a.3.3 0 00-.5.2 3 3 0 01-1.2 1.6c-.4.3-.3.9.1.9.8 0 .9.6 1 1.2a9.4 9.4 0 010 1.4 4.8 4.8 0 00.5 3.2.5.5 0 01-.2.7l-.5.5c-.3.2-.6.5-.4 1 .2.4-.1.4-.4.5s-.8 0-1 .3a4.6 4.6 0 01-1.3 1.8 2.8 2.8 0 00-.9 2.5 5 5 0 001.4 3.3 3.7 3.7 0 01.7.8 5.4 5.4 0 002 2c1.7 1 3 .9 3.7-1a1.1 1.1 0 011.5-.8 9.8 9.8 0 001 .2.8.8 0 01.9.7 2.4 2.4 0 001 1.4 8.8 8.8 0 013 3.4l.2.3a2.7 2.7 0 001.8 1.2c.8.3 1 .2 1.2-.6.2-.6.5-1 1.2-1 .2 0 .5 0 .5-.4a2.6 2.6 0 00-.2-1.8l-.8-1.1a3 3 0 010-3.6c.3-.7.3-.8-.3-1.4a4.2 4.2 0 00-1.7-1.1 3.8 3.8 0 01-2.3-2 6.3 6.3 0 00-.4-.6 2.3 2.3 0 010-3.1 1.7 1.7 0 00-.3-2.8 1.2 1.2 0 01-.2 0 1 1 0 01-.3-1.2.9.9 0 01.9-.5c1.8 0 2.9.6 2.9 2.7v.4a13 13 0 01-.2 2.2 1 1 0 00.4 1 11.6 11.6 0 012.5 2.7 1.2 1.2 0 00.7.6 4.2 4.2 0 011.6.8 1.6 1.6 0 002.4 0 10.8 10.8 0 001.1-1 .8.8 0 011.2-.2l.5.3c.1 0 .7.2.6.6s-.4.6-.8.7l-1.9.4a1.2 1.2 0 00-1 1.5 1.2 1.2 0 001.4 1.2 2.8 2.8 0 012.7 1.3c.1.3.3.5 0 .8s-.5.4-.9.2a11.5 11.5 0 00-1.3-.8c-.6-.3-.6-.3-.8.3a2.8 2.8 0 00.5 2.5 18.1 18.1 0 001.2 1.5.7.7 0 010 1 2 2 0 00-.4 1c0 1-.4 1.1-1.3 1a1.7 1.7 0 01-.6-.2 1.5 1.5 0 00-1.4 0 8.7 8.7 0 00-2 1.3c-1.8 1.4-1.4 1.4-3.2-.1-.4-.3-.6-.3-.9-.1l-1.4.7c-.4.2-.8.3-1 0s0-.7.3-1 .8-.4.9-.9-.5-.7-.6-1.1l-.3-.6c-.2-.5-.5-.4-.9-.3a1 1 0 00-.5.5c-.1.2-.2.5-.5.3s-.9 0-1.2-.3a.2.2 0 01-.1-.2c.5-.8-.1-1.3-.4-2-.7-1.6-.7-1.5-2.1-.6a1.7 1.7 0 00-.6 2.3l2 3.7.8 1.2a.6.6 0 010 .7c-.1.2-.3 0-.5 0a6.5 6.5 0 00-.7 0c-.6 0-1.2-.3-1.4.6 0 .2-.2.2-.4.2h-1a1.3 1.3 0 00-1.2 1.8 1 1 0 010 .5 16.6 16.6 0 01-.7 2.5c-.3.6-1.2 1-1.9 1.3a7 7 0 01-.7.4c-.8.4-.8.4-.6 1.1s.2 1-.6 1.4a4.6 4.6 0 01-.6.3c-.6.3-1.1.6-.8 1.4a1.2 1.2 0 01-.3.1c-1.1 0-2.4.3-3.2-.9a.3.3 0 00-.4 0 .3.3 0 000 .4l.7 1.2a3 3 0 01.6 1.3 12 12 0 00-6.2.4c.3.3.6.5.5 1s.1.6.5.6a19.1 19.1 0 013.6.9 1.3 1.3 0 011 1.1 1.8 1.8 0 00.9 1.5 4 4 0 012 3.2 9.5 9.5 0 01-.5 4.4c-.1.3-.2.7-.7.6h-5.8a15.4 15.4 0 00-2 0c-1.5 0-3 .4-4.3-.3a1.8 1.8 0 00-.8-.1c-.3 0-.5.1-.5.4 0 .6-.3.7-.7.7a2.8 2.8 0 00-.8 0 .7.7 0 00-.4 1 4 4 0 01.7 2.7 3 3 0 00.2 1.5 1.8 1.8 0 01.2 1 13.3 13.3 0 000 1.4 3.4 3.4 0 01-.8 2.6 5.3 5.3 0 00-1 2.3c-.1.5 0 .7.4 1l.6.3a.9.9 0 01.6 1v1.8c0 1 .2 1.3 1.2 1.3a3.9 3.9 0 001.1 0 11 11 0 012-.2 1 1 0 01.9.3 5.4 5.4 0 011.3 1.5 2.3 2.3 0 00.7 1 .8.8 0 001.3 0c.4-.5 1-.9 1.4-1.2a3.1 3.1 0 012.2-.7h3.5c1 0 1 0 1.3-1a1.5 1.5 0 011.2-1.2l.5-.2c.4-.1.6-.3.5-.8-.1-1 .6-1.7 1.2-2.3.7-.9.8-.9 0-1.8a1.7 1.7 0 01-.5-1.5c.4-1.8 1-3.4 2.8-4.3l1.4-.8a3.1 3.1 0 001.4-4.1.9.9 0 01.2-1.3 2.2 2.2 0 011.8-.7 13.6 13.6 0 013 .6 1.5 1.5 0 001.5-.4 16.5 16.5 0 012.6-2.1c.2-.1.2-.3.3-.4.4-.7 1-1 1.5-.7 1.3.6 2.6 1.3 3.2 2.7a1.8 1.8 0 001.2 1.2 8.1 8.1 0 012.2 1.2l2.4 1.6a1.7 1.7 0 001.2.5 2.4 2.4 0 011.7.5 15 15 0 001.6 1c.5.3 1 .6 1.3 1.2a.6.6 0 00.6.3c.5 0 .7.4 1 .7l1 1.8a1.6 1.6 0 01-.8 2.4l-1.5.7a1.8 1.8 0 01-1.5 0 2.4 2.4 0 00-2.4.7 3.6 3.6 0 002.2 1.6 12.8 12.8 0 013 1c.8.5 1.2.2 1.3-.7a1.4 1.4 0 00-.2-.8 2 2 0 010-1.8c0-.4.2-.6.6-.4.3.2.5.2.6 0a2.4 2.4 0 00.4-1.7 2.3 2.3 0 01.1-1.2c.2-1 0-1.3-.8-1.9a5.1 5.1 0 01-.5-.2c-.4-.3-.4-.8-.1-1.4a.6.6 0 01.9-.3 7.4 7.4 0 011.1.6c.3.2.6.3.8 0a.8.8 0 000-1 2.5 2.5 0 00-1-.8l-3.6-1.7c-.4-.2-.9-.3-1-.8s-.6-.3-1-.3a4.5 4.5 0 01-3.4-1.6 41.4 41.4 0 00-4.2-3.7 1.6 1.6 0 01-.7-1.1 2.3 2.3 0 00-.7-1.7.3.3 0 010-.4 1.2 1.2 0 012 0c.3.5.5 1 1.1 1.2a5.8 5.8 0 012.4 1.7 2.5 2.5 0 001.9.8 2.8 2.8 0 011.2.3 34.3 34.3 0 015.8 2.8 4 4 0 012 2.5c.4 1.2.6 2.5 1.9 3.2l.2.5a2 2 0 001.7 1.5c.5.1 1.1 0 .8 1-.1.1.2.1.4.2.9.5 1.7 1 1.7 2.2a1 1 0 001.1 1c.3 0 .5.2.6.6 0 .8 1 .6 1.4 1.2l.4-.2a1 1 0 00.2-1.3c-.2-.3-.5-.6-.6-1 .2-.3.5 0 .6-.3-.1-.4-.5-.6-.6-1.3.8.4 1-.1 1.5-.5.1-.1.3-.2.1-.4a3.2 3.2 0 00-1.8-1.6c-.7-.1-1.5-.3-1.6-1.3 0-.2-.3-.3-.5-.5l-1-1.1a1 1 0 01-.2-1.2l.3.1a1.1 1.1 0 001.6.6.5.5 0 01.2 0c0-.4-.1-.6-.3-1a1.1 1.1 0 011.1-1.6h1.4c.2 0 .5 0 .6.2.4.6 1.1 1 .9 1.9-.2.3.1.6.3.9s.3.4.2.5c-.3.8.4.8.8 1 .8.3.8.4.3 1 0 .2-.2.3-.3.4a.5.5 0 000 .6c.2.2.4.2.6.1a1.3 1.3 0 01.5 0c.5 0 1 .4 1 .7-.2.5.1.7.4.8 1.3.5 2.4 1.6 4 1.5l.5.3c1 .6 1.6.4 1.7-.7 0-.7.4-.9 1-1a3 3 0 011.8.6 1.4 1.4 0 002.1-.5 1.8 1.8 0 00.5-1.1c0-.7.5-.8 1-1s.6-.1.6.4a2.1 2.1 0 00.6 1.5 6 6 0 01.7 1.1 21.8 21.8 0 011.6 5.6 51.1 51.1 0 01.6 6c0 .2 0 .4-.2.6-.9.5-1.6 1.4-2.8.7-.2-.1-.4 0-.6-.2-.6-.2-1 0-1.3.5-.4.7-1 1.2-1.4 1.8a1.4 1.4 0 01-1.3.6h-5.6a15.6 15.6 0 01-3.7-.6.8.8 0 01-.6-.4c-.4-.8-1.2-.7-2-.7-1.9 0-1.9 0-3 1.5a2.8 2.8 0 00-.4 3.4c.9 1.5.8 1.6 0 3-.5 1-1 1-1.9.7a10.5 10.5 0 00-4-1.4l-1.7-.1a1 1 0 01-1-.6c-.1-.5-.4-.9-.6-1.4a1.4 1.4 0 00-1.4-1 5.9 5.9 0 01-1.9-.4 3.5 3.5 0 00-2-.2 10 10 0 01-2.8 0 7.6 7.6 0 01-4-1.5 1.4 1.4 0 01-.4-2l.8-1.2a1.9 1.9 0 00-.4-2.6 5 5 0 00-.5-.4 1.2 1.2 0 01-.4-1.5c0-.5.4-1 .2-1.4-1 .3-1 .2-1.7-.4a3.3 3.3 0 00-1.5-.6c-.4 0-.6.4-.8.6a3 3 0 01-2.5 1 2.9 2.9 0 00-1.5 0 1 1 0 01-.9 0 1 1 0 00-1.3.3 3 3 0 01-.6.5 1.2 1.2 0 01-1.6.1 2.5 2.5 0 00-1.8-.2 22 22 0 00-2.7.5 20 20 0 01-3.2.8 3 3 0 00-1.5.4l-2.7 2a3 3 0 01-.8.7c-.8.4-1.6.8-2.5 1a5.3 5.3 0 01-3 .4 11.2 11.2 0 00-3.2-.3 2.3 2.3 0 01-2.5-1 1.2 1.2 0 00-1.8 0 9.3 9.3 0 00-1.5 4.2 1.3 1.3 0 01-.9 1.2l-3.8 2.2a3 3 0 00-1.5 1.8c-.5 1.7-1.3 3.2-1.9 4.8a1.6 1.6 0 00.1 1.4 1.2 1.2 0 01.3 1.1 5 5 0 01-1 2l-1.8 1.8a9 9 0 01-4.3 2.7l-1.5.6a1.6 1.6 0 00-1.1 1 11.3 11.3 0 01-1.2 2.2 48.3 48.3 0 00-3 4.6 3.7 3.7 0 00-.7 1.4 1.3 1.3 0 01-.8 1.1 3.3 3.3 0 00-1.5 1.6l-4.5 8.6a.9.9 0 000 .8c.8-.2.8-.2 1.2.6a1.9 1.9 0 00.4.7c1 .9.8 2 .9 3.2a19.5 19.5 0 01-.4 3.1 38.9 38.9 0 01-1.5 7 6.6 6.6 0 01-2.8 3.8l2 2.8a1.1 1.1 0 01.1 1.4 2.1 2.1 0 000 2.4 4.6 4.6 0 002.6 2.2 1.2 1.2 0 011 1.4 1.5 1.5 0 00.6 1.4 8.7 8.7 0 001 .9l2 1.3c1.5 1 2.2 2.8 3 4.3a4.3 4.3 0 00.9 2.3c0 .2.4.4.2.6s0 .4.1.6a6.3 6.3 0 001.6 1 3.4 3.4 0 011 .5 14.2 14.2 0 004 2.3 6.7 6.7 0 012.5 1.7 4.7 4.7 0 002.3 1.6l2.9 1.2a3 3 0 001.7 0l5.4-1.4a8.8 8.8 0 012.6-.7h3.8a6.7 6.7 0 012.7.4 1.6 1.6 0 001.2 0 21.2 21.2 0 005-2.2 4.1 4.1 0 012-.8 2.3 2.3 0 001.3-.6 5.8 5.8 0 012.3-1.2 17.5 17.5 0 013.7-.8 12.8 12.8 0 013.7 0 3.1 3.1 0 012.8 2.9 1.5 1.5 0 001.9 1.4 12.1 12.1 0 001.7-.5l3.7-1.1c.5-.2 1.2-.4 1.6 0a2.7 2.7 0 001.7 1c.4 0 .5.2.5.6a6.5 6.5 0 000 .7c0 2.2-.8 4.3-.9 6.4a.8.8 0 010 .3 23 23 0 01-2.1 4.4.7.7 0 00-.2.7c.4 1.1.7 2.2 1.9 2.8a23 23 0 012.3 1.5 2.4 2.4 0 01.7.7 10.7 10.7 0 012 5c0 1.3.8 2.5.8 3.9 0 .4.1.7-.4.9-.3 0-.4.3-.4.6a4.7 4.7 0 00.4 2.4 1.5 1.5 0 010 1.3c0 .3 0 .7-.2 1a3.6 3.6 0 01-1.6 2.2 2.6 2.6 0 00-.7.6l-1.8 2a2.4 2.4 0 00-.6.8 12.3 12.3 0 01-2 3.7 5 5 0 00-.6 5.5 4.4 4.4 0 01.4 1.1 2.5 2.5 0 00.5 1.2 1.3 1.3 0 01.2 1.5 2 2 0 01-.7 1c-.2.2-.5.4-.4.7a4 4 0 01-.7 2.7c-.2.3-.4.8 0 1 .5.6.5 1.2.6 1.9.2 1 .2.9-.7 1.4-.4.2-.8.2-1 .7s0 .7.4.7c.3 0 .6-.3.9-.2zm-37.6-243l.1.1v-.1c-.2-.8-1-.7-1.4-1s-1.5-.1-1.5-1.2l-.1-.1a5 5 0 00-3-.5 8 8 0 01-2.6.4 9.4 9.4 0 003.3 2.4 20 20 0 012.9 1.4c.3.2.6.5 1 .2 0-.7-.8-1-.8-1.8.7-.3 1.4.3 2 .2zm-24 1.8a8 8 0 002.3-.8l-2.3-1.6c1.3 0 1.9-.5 2-1.6 0-.5.3-.7.8-.6s1 0 1.4-.4c-.1-.3-.3-.3-.5-.3a7.9 7.9 0 00-2.3-.2 2.2 2.2 0 01-1.3-.4A8.4 8.4 0 00161 97a21.5 21.5 0 00-2.6.3h-3.6a30.2 30.2 0 00-6.2.5 29.4 29.4 0 01-4.8.9 4.7 4.7 0 00-2.7 1.3c-.4.3-.3.6.1.8l.8.3c.6.3.7.6.3 1.1s-.6 1-1 1.2c-1.4.6-2 2-3.4 2.6a3.8 3.8 0 00-.7.3c-.5.4-.4.9.2 1.2.1 0 .3 0 .3.3a1 1 0 01-.8.5 9.3 9.3 0 01-1.5.2c-1 0-1.4.3-1.6 1.6h2.3a6 6 0 01-3 1.1 3.1 3.1 0 00-2.4 1 7.9 7.9 0 01-1.7 1.6 9 9 0 00-1.1 1.1c-.1.1-.3.3-.1.5.5.4 0 .7-.2.9a7.4 7.4 0 00-2 2.8c-.2.5-.3 1-.6 1.4a4.4 4.4 0 00-.4 2.2c0 1 .2 1.3 1.2 1.4.7 0 .8.4.8 1v.5c0 .5 0 1 .6 1.2a2.1 2.1 0 002.1-.4 5.4 5.4 0 011.8-1.8 5.6 5.6 0 001.5-1.4 2.8 2.8 0 011.6-1l1-.4a4 4 0 002.8-2.5.3.3 0 000-.1c.1-.5.4-.6.8-.7a6.6 6.6 0 013-.4 8.1 8.1 0 003.2-.6 49.7 49.7 0 005-2.3c.3-.2.6-.4 1-.3a3.4 3.4 0 002.2 0c1.9-.4 3.7-1 5.6-1.3a6.1 6.1 0 003-1.4.8.8 0 00.3-.9c-.2-.8-.3-1.6-1-2.2a1 1 0 01-.3-1c.2-.5.6-.4.9-.4a2.4 2.4 0 011.2.2 7.6 7.6 0 001 .2c.3.1.6 0 .7-.3.1-.8.7-1.2 1.4-1.5s.6-.7.1-1.2a9.2 9.2 0 00-.8-.8zm19.3 41.6c0 .9.1 1.4.8 1.8s.6.8 0 1.2l-1.5.7a1.2 1.2 0 001.2.7 2.2 2.2 0 011.6.3c.5.5 1 .4 1.5-.1 0 .7-.3 1-1 1a1.5 1.5 0 00-1.1.6l-.9.7-1.1 1.1c-.1.2-.2.3 0 .5s.3.2.5 0a1.3 1.3 0 00.2-.1 2 2 0 012-.8c.2 0 .5 0 .6-.2.6-1 1.6-.9 2.4-.8a6.1 6.1 0 002-.1 8.6 8.6 0 012.5-.4 3.3 3.3 0 001.7-.6.4.4 0 00.2-.5c0-.2-.2-.2-.4-.2-.4 0-.9.1-1.3-.1a4.5 4.5 0 011-1c.4-.4.7-1.6.3-1.9a2.3 2.3 0 00-1.9-.7c-.3 0-.6.3-1 0 .1-.4.5-.8 0-1.3a2.6 2.6 0 00-1.5-.6c.1-1-.4-2-1.2-2-.6 0-.8-.4-1-.8a3 3 0 00-.8-1.4 2.6 2.6 0 00-2.6-.8c.4-.4.8-.7.5-1.1-.2-.3.2-.5.3-.6a2.8 2.8 0 00.7-1.5c0-.4 0-.7-.6-.7h-1.5c-.5 0-.9.2-1-.3s.3-.5.5-.8.3-.2.2-.4a.5.5 0 00-.4-.3h-1.7c-.3 0-.5.2-.5.5s0 .8-.4.8c-.6 0-1 .8-1.6.5-.2 0-.5.2-.5.5a.7.7 0 00.5 1c.6 0 .9.3.6 1-.2.5 0 .7.7.6h.4c.3.5 0 1.1.2 1.7l.2-.2c.2-.3.2-.7.6-.7s.5.4.7.7a1 1 0 010 1c0 .2-.3.4-.2.8.8 0 1.6-.4 2.6-.3-.5.8 0 1.2.6 1.6a2 2 0 01.8 2.1c-1-.2-1.9.4-3-.1zm-7.6 2.1c-.6.4-1.4.4-1.8 1-.2.3-.6.5-.3 1a1 1 0 001 .5 4.3 4.3 0 002.7-.8 5.7 5.7 0 012.7-1c.5 0 .6-.2.7-.6a4.4 4.4 0 00-.7-3.6l.3-.1c.9-.2 1.3-.8 1.1-1.5a1.6 1.6 0 00-1.8-1 2.5 2.5 0 01-2 .2 2.3 2.3 0 00-.8-.1c-.4 0-.5.1-.5.5a4.9 4.9 0 000 .6c0 .5-.2.7-.7.7a5.1 5.1 0 00-1.7 0c0 .5.5.7.4 1.1s-.7.5-.8 1l1.3.4c.4.1.5.4.2.7s-.1.5.2.6a.5.5 0 01.5.4zm-19.2-27c0 .4.3.4.5.6.5.3.8.5.4 1-.2.4.1.6.4.7a13.3 13.3 0 011.7.4 4.2 4.2 0 003.2 0c1.3-.4 2.7-.6 4-1.2a2 2 0 001-1.9 2.3 2.3 0 00-3.4-1.4 1.5 1.5 0 01-1 .1 16.5 16.5 0 00-2.5-.3c0 .5.6.5.5 1a7.1 7.1 0 00-2.2.2c-.6-.4-.1-1.5-1-1.6-.8-.1-1.3.3-1.9.8.5.4 1 .4 1.5.7a.4.4 0 01.3.4c0 .2-.2.2-.3.2zM44.2 214.3c.5-.4.7-.8.4-1.4a5.1 5.1 0 01-.7-3.2 1.8 1.8 0 00-.4-1.3 16.2 16.2 0 01-1.9-2.5c-.1-.2-.2-.5-.5-.4a.5.5 0 00-.3.6v1c0 1 0 1-.7 1.2s-.9.4-.5 1.1l1.7 3c.4 0 .6-.9 1 0a.3.3 0 00.3 0c.5-.3.6.1.9.4a2.7 2.7 0 01.7 1.5zm-3.6-11.4a9.3 9.3 0 000-1.2 35.3 35.3 0 01-.8-5.9c0-1.4-.3-2.7-.3-4a1.9 1.9 0 00-1-2c-.3 0-.5-.2-.7 0a2.6 2.6 0 00-.5 1.2c0 .2 0 .4.3.2s.4-.3.6 0 .4.5.3.7c-.4.9 0 1.7 0 2.6 0 2 .2 4.1.4 6.2a.8.8 0 01-.2.6c-.5.7-.5.7 0 1.3a6.5 6.5 0 00.6.8c.3.2.7.6 1 .5s.2-.7.3-1zm6 14.1c.7 0 1-.3.6-1a7.5 7.5 0 00-.7-1.1.8.8 0 00-1.3.2 1.9 1.9 0 001.4 2zM221 118.1l-.2.1a.6.6 0 00.2.1.5.5 0 00.2 0z"/><path class="cls-2" d="M226.8 345.5c-.3-.1-.6.2-1 .2s-.5-.2-.4-.7.6-.6 1-.8c.9-.4.9-.4.7-1.4-.1-.6 0-1.2-.6-1.7-.3-.3-.2-.8 0-1.2a4 4 0 00.7-2.6c0-.4.2-.6.4-.7a2 2 0 00.7-1 1.3 1.3 0 00-.2-1.5 2.5 2.5 0 01-.5-1.2 4.4 4.4 0 00-.4-1.1 5 5 0 01.7-5.5 12.3 12.3 0 002-3.7 2.4 2.4 0 01.5-.9l1.8-2a2.6 2.6 0 01.7-.6 3.6 3.6 0 001.7-2.2c0-.3 0-.6.2-1a1.5 1.5 0 000-1.3 4.7 4.7 0 01-.4-2.3c0-.3 0-.6.4-.7.4-.1.4-.5.4-.8 0-1.4-.8-2.6-.9-4a10.7 10.7 0 00-2-5 2.4 2.4 0 00-.7-.7 23 23 0 00-2.3-1.4c-1.2-.6-1.5-1.7-1.9-2.8a.7.7 0 01.2-.7 23 23 0 002-4.4.8.8 0 00.2-.3c0-2.2.9-4.2.8-6.4a6.5 6.5 0 010-.8c0-.4 0-.6-.5-.6a2.7 2.7 0 01-1.7-.9c-.3-.4-1-.2-1.6 0l-3.6 1a12.1 12.1 0 01-1.8.6 1.5 1.5 0 01-1.8-1.5 3.1 3.1 0 00-2.8-3 12.8 12.8 0 00-3.8.2 17.5 17.5 0 00-3.7.8 5.8 5.8 0 00-2.3 1.2 2.3 2.3 0 01-1.4.5 4.1 4.1 0 00-2 .8 21.2 21.2 0 01-4.9 2.2 1.6 1.6 0 01-1.2 0 6.7 6.7 0 00-2.6-.3H191a8.8 8.8 0 00-2.7.6c-1.8.6-3.5 1.1-5.4 1.5a3 3 0 01-1.7 0l-3-1.2a4.7 4.7 0 01-2.2-1.6 6.7 6.7 0 00-2.5-1.8 14.2 14.2 0 01-4-2.3 3.4 3.4 0 00-1-.5 6.3 6.3 0 01-1.6-1c-.2-.1-.4-.2 0-.5s-.2-.4-.3-.6a4.3 4.3 0 01-.8-2.3c-1-1.6-1.6-3.3-3.1-4.4l-2-1.3a8.7 8.7 0 01-1-.8 1.5 1.5 0 01-.6-1.4 1.2 1.2 0 00-1-1.5 4.6 4.6 0 01-2.5-2.2 2.1 2.1 0 010-2.3 1.1 1.1 0 00-.2-1.5l-2-2.7a6.6 6.6 0 002.8-3.7 38.9 38.9 0 001.5-7.1 19.5 19.5 0 00.4-3.1c0-1.2 0-2.4-1-3.3a1.9 1.9 0 01-.3-.6c-.4-.9-.4-.9-1.2-.6a.9.9 0 010-.9c1.6-2.8 3-5.7 4.5-8.5a3.3 3.3 0 011.6-1.6 1.3 1.3 0 00.7-1 3.7 3.7 0 01.7-1.6 48.3 48.3 0 013-4.6 11.3 11.3 0 001.2-2.2 1.6 1.6 0 011.2-1c.4 0 .9-.4 1.4-.5a9 9 0 004.3-2.7l1.8-1.8a5 5 0 001-2 1.2 1.2 0 00-.2-1.1 1.6 1.6 0 01-.1-1.5c.5-1.6 1.3-3 1.8-4.7a3 3 0 011.5-1.8c1.3-.8 2.5-1.6 3.9-2.2a1.3 1.3 0 00.8-1.3 9.3 9.3 0 011.6-4 1.2 1.2 0 011.7-.1 2.3 2.3 0 002.5 1 11.2 11.2 0 013.2.2 5.3 5.3 0 003-.3l2.5-1a3 3 0 00.9-.7c.8-.8 1.7-1.4 2.6-2a3 3 0 011.6-.5 20 20 0 003.1-.7 22 22 0 012.8-.6 2.5 2.5 0 011.8.3 1.2 1.2 0 001.5-.2 3 3 0 00.6-.4 1 1 0 011.3-.4 1 1 0 001 0 2.9 2.9 0 011.4 0 3 3 0 002.5-.9c.3-.2.4-.7.9-.6a3.3 3.3 0 011.5.6c.7.6.7.6 1.6.3.2.5 0 1-.2 1.4a1.2 1.2 0 00.5 1.6 5 5 0 01.5.4 1.9 1.9 0 01.3 2.6l-.8 1.1a1.4 1.4 0 00.4 2 7.6 7.6 0 004 1.5 10 10 0 002.8 0 3.5 3.5 0 012 .3 5.9 5.9 0 002 .4 1.4 1.4 0 011.3 1l.7 1.4a1 1 0 00.9.6h1.6a10.5 10.5 0 014 1.4c1 .4 1.4.3 2-.6.8-1.5.9-1.5 0-3a2.8 2.8 0 01.4-3.4c1.1-1.5 1.1-1.5 3-1.6.8 0 1.5 0 2 .8a.8.8 0 00.6.3 15.6 15.6 0 003.7.7h5.6a1.4 1.4 0 001.3-.6l1.4-1.8c.3-.5.7-.7 1.3-.5l.6.1c1.2.8 2 0 2.8-.6.2-.2.2-.4.2-.7a51.1 51.1 0 00-.6-6 21.8 21.8 0 00-1.6-5.5 6 6 0 00-.7-1.1 2.1 2.1 0 01-.6-1.6c0-.4-.3-.5-.7-.3s-1 .3-.9 1a1.8 1.8 0 01-.5 1 1.4 1.4 0 01-2.1.6 3 3 0 00-1.8-.6c-.6.1-1 .2-1 1-.1 1-.8 1.3-1.7.6l-.6-.3c-1.5.1-2.6-1-3.9-1.5-.3 0-.6-.3-.4-.8 0-.3-.5-.7-1-.7a1.3 1.3 0 00-.5.1c-.3.1-.5.1-.6-.1a.5.5 0 010-.6l.3-.4c.5-.6.5-.7-.3-1-.4-.2-1-.2-.8-1l-.3-.6c-.2-.2-.4-.5-.3-.9.3-.9-.4-1.3-.8-1.9-.1-.2-.4-.1-.6-.1h-1.4a1.1 1.1 0 00-1 1.6c0 .3.3.6.2 1a.5.5 0 00-.3 0 1.1 1.1 0 01-1.6-.6l-.2-.2a1 1 0 00.2 1.2l1 1.2c.1.1.4.3.4.5.1 1 1 1.1 1.6 1.3a3.2 3.2 0 011.9 1.6l-.2.4c-.4.3-.7.9-1.4.5 0 .6.4.9.6 1.3-.1.3-.5 0-.6.3 0 .4.4.6.6 1a1 1 0 01-.2 1.2c-.2.2-.4.3-.5.2-.4-.5-1.3-.4-1.4-1.1 0-.4-.2-.6-.5-.6a1 1 0 01-1.1-1c0-1.3-.9-1.8-1.8-2.2-.2-.1-.5 0-.4-.3.4-.9-.3-.8-.7-1a2 2 0 01-1.7-1.4c0-.2-.1-.4-.3-.5-1.3-.7-1.5-2-1.8-3.3a4 4 0 00-2-2.5 34.3 34.3 0 00-6-2.8 2.8 2.8 0 00-1-.2 2.5 2.5 0 01-2-.8 5.8 5.8 0 00-2.3-1.7c-.6-.2-.9-.8-1.2-1.3a1.2 1.2 0 00-2 .1.3.3 0 000 .4 2.3 2.3 0 01.7 1.7 1.6 1.6 0 00.7 1 41.4 41.4 0 014.3 3.8 4.5 4.5 0 003.4 1.5c.3 0 .7 0 .9.4s.6.6 1 .8l3.6 1.6a2.5 2.5 0 011 1 .8.8 0 010 1c-.2.1-.5 0-.8-.1a7.4 7.4 0 00-1.1-.7.6.6 0 00-1 .4c-.2.6-.1 1 .3 1.3a5.1 5.1 0 00.4.3c.9.5 1 .8.8 1.8a2.3 2.3 0 000 1.3 2.4 2.4 0 01-.5 1.6c-.1.2-.3.2-.5.1-.5-.3-.6 0-.7.4a2 2 0 000 1.7 1.4 1.4 0 01.2.9c0 .9-.4 1.1-1.2.7a12.8 12.8 0 00-3-1 3.6 3.6 0 01-2.2-1.6 2.4 2.4 0 012.4-.7 1.8 1.8 0 001.5 0l1.4-.7a1.6 1.6 0 00.8-2.5l-1.1-1.8c-.2-.4-.5-.7-1-.7a.6.6 0 01-.5-.3c-.3-.6-.9-.9-1.4-1.2a15 15 0 01-1.6-1 2.4 2.4 0 00-1.7-.6 1.7 1.7 0 01-1.2-.4l-2.4-1.6a8.1 8.1 0 00-2.2-1.2 1.8 1.8 0 01-1.1-1.2c-.6-1.4-2-2-3.2-2.7-.6-.3-1.2 0-1.5.6l-.4.5a16.5 16.5 0 00-2.5 2.1 1.5 1.5 0 01-1.5.4 13.6 13.6 0 00-3-.6 2.2 2.2 0 00-1.9.7.9.9 0 00-.2 1.3 3.1 3.1 0 01-1.2 4.2l-1.4.8c-1.8.9-2.4 2.5-2.8 4.2a1.7 1.7 0 00.4 1.6c.9.9.8 1 0 1.8-.5.6-1.2 1.3-1 2.3 0 .5-.3.7-.7.8l-.5.2a1.5 1.5 0 00-1.2 1.2c-.2 1-.3 1-1.2 1H191a3.1 3.1 0 00-2.2.7l-1.4 1.1a.8.8 0 01-1.3 0 2.3 2.3 0 01-.7-.9 5.4 5.4 0 00-1.4-1.5 1 1 0 00-.7-.3 11 11 0 00-2.1.1 3.9 3.9 0 01-1 .1c-1 0-1.3-.2-1.3-1.3v-1.8a.9.9 0 00-.6-1l-.7-.4c-.3-.2-.4-.4-.3-.9a5.3 5.3 0 011-2.3 3.4 3.4 0 00.8-2.6 13.3 13.3 0 010-1.5 1.8 1.8 0 00-.2-1 3 3 0 01-.3-1.4 4 4 0 00-.7-2.7.7.7 0 01.5-1 2.8 2.8 0 01.8 0c.4 0 .7 0 .7-.7 0-.3.2-.4.5-.4a1.8 1.8 0 01.8 0c1.4.8 2.8.3 4.2.3a15.4 15.4 0 012 0c2 .2 4 .1 5.9.1.5 0 .6-.3.7-.6a9.5 9.5 0 00.4-4.4 4 4 0 00-2-3.2 1.8 1.8 0 01-.8-1.5 1.3 1.3 0 00-1-1.1 19.1 19.1 0 00-3.6-1c-.4 0-.6 0-.5-.5s-.3-.7-.5-1a12 12 0 016.2-.4 3 3 0 00-.6-1.3l-.7-1.2a.3.3 0 010-.4.3.3 0 01.3 0c.9 1.2 2.1 1 3.3.9a1.2 1.2 0 00.3 0c-.4-.9.1-1.2.8-1.5a4.6 4.6 0 00.6-.3c.7-.5.7-.5.6-1.4s-.2-.8.5-1.1a7 7 0 00.8-.4c.7-.4 1.6-.7 1.9-1.3a16.6 16.6 0 00.7-2.5 1 1 0 000-.5 1.3 1.3 0 011.2-1.8h1c.4 0 .4 0 .4-.2.2-1 .8-.7 1.4-.7a6.5 6.5 0 01.7 0c.2 0 .4.3.5 0a.6.6 0 000-.6l-.8-1.2a89 89 0 01-2-3.7 1.7 1.7 0 01.6-2.3c1.4-1 1.3-1 2 .6.4.7 1 1.2.5 2a.2.2 0 000 .2c.4.3.9.2 1.3.3s.4 0 .5-.3a1 1 0 01.5-.5c.4-.1.7-.2.9.3l.3.6c.1.4.6.6.6 1s-.6.7-1 1-.5.6-.3 1 .7.2 1 0l1.5-.8c.5-.3.5-.2.9.2 1.7 1.4 1.3 1.4 3 0a8.7 8.7 0 012.2-1.3 1.5 1.5 0 011.4 0 1.7 1.7 0 00.6.3c.9.1 1.2-.1 1.3-1a2 2 0 01.4-1 .7.7 0 000-1 18.1 18.1 0 01-1.2-1.5 2.8 2.8 0 01-.5-2.5c.1-.6.2-.6.8-.3a11.5 11.5 0 011.3.7c.4.3.7.2 1-.1s0-.6-.2-.8a2.8 2.8 0 00-2.6-1.3 1.2 1.2 0 01-1.4-1.2 1.2 1.2 0 011-1.5l2-.5c.2 0 .7-.1.7-.6s-.3-.5-.6-.6l-.5-.3a.8.8 0 00-1.2.2 10.8 10.8 0 01-1.1 1 1.6 1.6 0 01-2.4 0 4.2 4.2 0 00-1.6-.8 1.2 1.2 0 01-.7-.6 11.6 11.6 0 00-2.6-2.7 1 1 0 01-.3-1 13 13 0 00.2-2.2v-.5c0-2-1.1-2.5-3-2.6a.9.9 0 00-.8.5 1 1 0 00.3 1.1 1.2 1.2 0 00.2.1 1.7 1.7 0 01.3 2.8 2.3 2.3 0 000 3.1 6.3 6.3 0 01.3.6 3.8 3.8 0 002.4 2 4.2 4.2 0 011.7 1c.5.7.6.8.2 1.5a3 3 0 00.1 3.6l.7 1a2.6 2.6 0 01.3 2c0 .3-.3.3-.5.3-.7 0-1 .4-1.2 1-.3.8-.4.8-1.2.6a2.7 2.7 0 01-1.8-1.3l-.2-.2a8.8 8.8 0 00-3-3.4 2.4 2.4 0 01-1-1.4.8.8 0 00-.9-.8 9.8 9.8 0 01-1-.2 1.1 1.1 0 00-1.5.8c-.7 2-2 2-3.7 1a5.4 5.4 0 01-2-1.9 3.7 3.7 0 00-.7-.8 5 5 0 01-1.4-3.3 2.8 2.8 0 01.8-2.5 4.6 4.6 0 001.5-1.8c0-.4.6-.3.9-.3s.6-.2.4-.5c-.3-.5 0-.8.4-1l.5-.5a.5.5 0 00.2-.8 4.8 4.8 0 01-.6-3 9.4 9.4 0 000-1.5c0-.6-.1-1.1-1-1.2-.3 0-.4-.6 0-.9a3 3 0 001.2-1.6.3.3 0 01.5-.2l.6.3.2-.1c.2-.5 0-1.2.6-1.5a10.7 10.7 0 012.4-1 .8.8 0 01.8.3 4.3 4.3 0 003 1 33.2 33.2 0 016.1 1 13.3 13.3 0 002.4.3 4 4 0 012.4.9l1.4 1.1a1.7 1.7 0 01.4.4.7.7 0 01-.6 1h-3.5c2.3 1.4 4.3 2.9 6.8 3.3a.3.3 0 00.4-.1c0-.4-.6-.3-.7-.6.2-.2.4 0 .6-.2s.5-.2.6-.6-.3-.4-.6-.4a2.2 2.2 0 01-1.4-1.6c-.2-.8-.2-.7.6-1.2-1.5-1-3-1.7-4.6-2.7 1-.2 1-.2 2.2.4l2.2 1a23 23 0 00-1-2.6c.6 0 .7-.4 1-.8a.8.8 0 00-.3-1.1 2 2 0 01-.5-.5c-.5-.8-.5-.8 0-1.6l-4.9-2.5a16.3 16.3 0 01-2.6-1.6c-.3-.2-.7-.4-.6-.9 0-.2-.2-.4-.3-.5a6.8 6.8 0 00-1.4-.6l-5.6-2.2c-.4-.1-.8-.3-.7-.9a21 21 0 013.3 1c6 2 11.7 4.6 17.5 6.9a6.8 6.8 0 011 .5l7.7 4.6c3.5 2 6.6 4.4 9.9 6.7 3.8 2.6 7.2 5.8 11 8.6a53.8 53.8 0 014.8 4.3 133 133 0 0115 16.9 85 85 0 016.3 9.8c2.8 5.1 5.5 10.3 7.9 15.6 1 2.2 1.7 4.5 2.5 6.8l2.3 6.4a4 4 0 01.2 2.4 3.9 3.9 0 01-1.4 2.7l-.7-1.8a.4.4 0 00-.5-.3.4.4 0 00-.3.4v1.3c0 .7-.3.9-.8.6-1.4-.7-2.7-1.4-3.3-3a9.7 9.7 0 00-.5-1c-.2-.3-.5-.3-.8-.3s-.4 0-.4.3c0 1-.3 2 .4 3l3 4c.3.5.6.8 1.2.8.5 0 .7.2.8.6l.2 1a6.5 6.5 0 001.2 2.3l.3-.5a6 6 0 00.1-3.2 17.7 17.7 0 010-2.5c.3.1.3.4.4.6a6.5 6.5 0 001.4 2.4 6.5 6.5 0 011.8 4.2c0 1 .2 2 .4 2.9l.5 4.6c0 4.7.2 9.4-.9 14l-1 4.6c-1 2.7-2.6 5.2-2.7 8.3a.6.6 0 01-.6.6c-.5 0-.4-.3-.5-.6a33.8 33.8 0 01-1.5-6.4 8.7 8.7 0 00-1-3.5c-1-1.6-1.9-3.3-3-4.8a3.3 3.3 0 00-1.2-1.2 2 2 0 01-1-1.6 21.7 21.7 0 00-1.7-4.5c-.4-1-.8-2.2-2.1-2.4-.3 0-.4-.4-.5-.6a22.3 22.3 0 00-4-5.8 5.2 5.2 0 00-2-1.8c-.3.5.2.8-.1 1.3a3.7 3.7 0 01-2.4-2.1 11 11 0 00-1.6-2.7 1.4 1.4 0 000 1.5l7.6 10.7c.6 1 1.3 1.8 1.2 3v.4a1.6 1.6 0 001.4 1.8 1.9 1.9 0 011.1 1.2 45.9 45.9 0 012.2 6 4.2 4.2 0 001.6 2.4 2.3 2.3 0 01.9 1.3l1.5 4.8c.2.6.5 1 1 1a1 1 0 01.9.3l1.7 2.1a3.3 3.3 0 01.8 2.6 1.1 1.1 0 00.2 1l1.2 1.4c1-1.6 1.5-3.1 2.2-4.5s1.3-3 2.2-4.4a17.4 17.4 0 01-.1 3 51 51 0 01-.4 6 114.2 114.2 0 01-2 11.7 36.6 36.6 0 01-1.2 4.8c-1.9 4.8-3.7 9.7-5.7 14.4l-4.6 11.6a32.7 32.7 0 00-2 6.9 21.5 21.5 0 01-1.5 5.6l-.7 1.5a28.6 28.6 0 01-3.4 6.2l-4.2 5a59.7 59.7 0 01-4 4.7 11.4 11.4 0 00-2.5 3.5 14.4 14.4 0 01-1.3 2.3 3.2 3.2 0 00-.6 1.1 78 78 0 01-5.8 5.9l-9.4 8.5a54.6 54.6 0 01-6.6 4.5l-6.3 3.9-1.4.7a.9.9 0 00-.5 0l-4.8 2.6c-.2.1-.4.2-.4.4-.2 0-.4 0-.4.2zM118.2 104.3a4.3 4.3 0 001-.2 1.1 1.1 0 011.3.4 1.8 1.8 0 01-.9.8l-1.4.7a6.7 6.7 0 00-2.6 1.6c-.5.5-1.3.6-2 .7a.7.7 0 01-.3 0c-2.2-.5-3.5.8-4.7 2.2a1.1 1.1 0 00-.4.8c0 .6-.5.7-.7.5-.5-.4-1-.3-1.4-.3a2 2 0 01-1.2-.4l2.5-1.5a4 4 0 00-2.5 0c-1.3.7-2.7.9-4 1.5l-6.3 2.9a3 3 0 00-1.2.9 6.5 6.5 0 01-2.3 1.8 1.5 1.5 0 00-1 1.3 4.5 4.5 0 01-1 2.2 9 9 0 00-1.3 2c-.1.3-.3.5-.2.8.3.7-.1 1-.6 1.4l-3 2.5a3.1 3.1 0 00-.8 1 11.6 11.6 0 01-1.4 2 1.8 1.8 0 00-.5.7c0 .3-.3.6 0 .8s.5.1.7 0a11.1 11.1 0 001-.8l2.5-2.5a9 9 0 013.5-2.5c1.5-.5 2.8-1.4 4.3-2a2 2 0 00.6-.4L96 121l.1-.1c.6-1.6 2.2-1.9 3.4-2.5a3 3 0 001.7-1.4 2.3 2.3 0 011-.9l2.3-1.5a1.6 1.6 0 011.9 0 1.4 1.4 0 01.4 1.7 2.4 2.4 0 01-.3.7.6.6 0 000 .9c.3.4.1.6-.2.9l-2 1.2a2.5 2.5 0 00-1 1.2 10.1 10.1 0 01-.9 2 3.1 3.1 0 003-.7c.7-.6 1.7-.7 2.7-1.3a2.8 2.8 0 01-.6 1.4l-2.6 4.6c-.2.5-.5.7-1 .7s-.6.1-.7.5a6.1 6.1 0 00-.2 3.3 2.6 2.6 0 00.3.8c.2.3.6.6.6 1l-.1.2c-1 0-1.1.3-1 1.2a5.2 5.2 0 00.7 1.3.6.6 0 01-.1.9 2.7 2.7 0 00-1.2 1.6c-.1.4-.5.4-.8.4a1.5 1.5 0 00-1.3.6c0 .4.6.3.7.7-1.1.9-1.9 2.1-3 3-.3.3-.2.6-.2 1s.3.4.6.5c.4.2 1 0 1.2.7 0 .4.2.6-.3.9s-.5.5-.1 1c.2.2 0 .4-.1.5l-.8.7c.1.4.5.2.7.5-.2 1.3-1.4 1.8-2.3 2.5-.5.3-.5-.4-.9-.4s-.2-.3 0-.5l.1-.4c.1-.1.3 0 .2-.2s-.2 0-.3 0c-.6.2-1.1.7-1.8.5-.3 0-.6 0-.5-.4s.1-.4.4-.4l1.2-.3a1.3 1.3 0 00-1-.6c-1.2-.1-2-1-3.2-1.2-.3 0-.3-.5 0-.8a3.1 3.1 0 01.7-.4 4.4 4.4 0 002.2-2 3.5 3.5 0 011.3-1.2l4-3a2.6 2.6 0 00-1.6 0 5 5 0 00-.8.3 7.5 7.5 0 01-6.4-.4l-2.2-1a1.3 1.3 0 00-1.4.3 3 3 0 01-2.1.8c-.8 0-1.2.6-1.7 1a.6.6 0 00.7.2 4.7 4.7 0 012.6.1.8.8 0 01.3 1.5 2.1 2.1 0 01-1.5.6 1 1 0 00-.7 0c0 .2 0 .3.2.4.3.6.4 1-.1 1.2-1.3.8-1.3 2-1.4 3.2a.8.8 0 00.6 1 .8.8 0 01.2 0 1.5 1.5 0 002.2-.2 8.3 8.3 0 011.4-1h.5a.5.5 0 010 .7 3.3 3.3 0 01-.3.4c-.1.2-.4.3-.4.5 0 1-.8 1-1.6 1.1-.4 0-1 0-1 .7 0 .2-.3.2-.5.2a2.3 2.3 0 00-1.8.5 1 1 0 01-1.1 0 1.8 1.8 0 00-2 .3 5.8 5.8 0 01-1.6.9c-.3-.2-.2-.5-.3-.7a.9.9 0 01.5-1.3l1-.7a1.4 1.4 0 011.5-.1c1.1.5 1.7.1 1.6-1v-.6h-.4a4 4 0 01-3 .7 15 15 0 00-5 1 7 7 0 00-3 2.4 2.3 2.3 0 00-.4 1.4c0 .9-.1.9-1 .9a5.5 5.5 0 01-1.7-.6l-.6-.2c0 .7-.5 1-1 1a2.8 2.8 0 00-2.1 1.4 1.6 1.6 0 01-1 .8 1.7 1.7 0 00-1.3 1.1 2.7 2.7 0 01-1.9 1.7 1.9 1.9 0 00-1.4 1.8 11.2 11.2 0 01-1.5 3.6 1.3 1.3 0 01-1 .7 7.6 7.6 0 00-3 1.1c-1 .8-2.1 1.1-3 1.9a10.8 10.8 0 00-3.5 5.2c-.5 1.5-1.1 3-1.5 4.7a12 12 0 01-.7 1.7 10.2 10.2 0 00-1 3.2c0 1-.8 1.7-1.3 2.6a1.5 1.5 0 01-.3-1.3 10.7 10.7 0 011-4.7l2.8-7c.1-.3.3-.6 0-1a2 2 0 010-2 2.2 2.2 0 00-.3-2.4l-.9 1.6a9.1 9.1 0 01.2-2.6l-.3.3a68.2 68.2 0 00-3.8 8.4l-3.6 10.5a1.7 1.7 0 000 1.6 2 2 0 010 1.6l-.8 2.2c-1 2.7-1.6 5.5-2.5 8.2a4.8 4.8 0 000 3 10.1 10.1 0 010 5.7 24.9 24.9 0 00-.6 3.8l-.7 5.2c-.3 2-.5 4.1.4 6.1a32.5 32.5 0 011.5 4.1 1 1 0 00.4.8 4.4 4.4 0 001.2-2.6c0-.7.5-1 1.2-.7.6.2 1 .4 1.6-.1a.5.5 0 01.8.1c.1.4.2.9-.1 1.1-.8.6-.4 1.3-.3 2 0 .3.2.5.5.5a.6.6 0 00.7-.5 4 4 0 01.3-1.3 3.5 3.5 0 01.4 1.5c.2 1.3.7 2.5.8 3.8a1.4 1.4 0 00.5 1 18.6 18.6 0 012.7 3.1 1.2 1.2 0 001.2.6 2 2 0 011.6.6 1.2 1.2 0 01.6 1.2 2 2 0 00.7 1.8 4.5 4.5 0 011.3 3.5 1.1 1.1 0 00.4 1 1.1 1.1 0 01.5.4c.6 1.8 2 3.2 2 5.2a3 3 0 00.5 1.6 12.2 12.2 0 004.6 4.9 18.1 18.1 0 013 2 5.2 5.2 0 011.1 1.3l2 3a14.5 14.5 0 012.2 5.7 7.3 7.3 0 001.4 3.3c.4.6.3 1.2.5 1.8 0 .3-.2.4-.4.5a3.6 3.6 0 00-1.2 1c-.3.4-.2.6 0 .8a2.5 2.5 0 00.8.7l2.7 1.3a1.5 1.5 0 011 1.6 2.5 2.5 0 00.3 1.4 1 1 0 00.2 0c.5-.2.9-.9 1.3-.7.7.4 1.6.5 2 1.2a17.3 17.3 0 003.5 3.1 3.2 3.2 0 011.4 3.6c-.2.5 0 .7.6.7a4.2 4.2 0 001.9-.3 1 1 0 011.2.3 8.4 8.4 0 003.1 2c1.4.4 2.6 1.2 4 1.5a1 1 0 01.5.3 1.5 1.5 0 001.2.7c.3 0 .5.3.7.5l4.6 5a3.2 3.2 0 001.4.9l2.3.9a2.3 2.3 0 011.4 1.5c.5 1.2 1 2.4 1.3 3.7a6.3 6.3 0 010 2.8 1 1 0 01-.1.3c-1.1 1.2-2 2.7-3.6 3.2a1.4 1.4 0 00-1 1c-.3.9-1 1.2-1.7 1.8-.4.4-.7-.2-1.3-.3a7.3 7.3 0 00.4 3.5 12.2 12.2 0 01.6 5 3.9 3.9 0 01-.1 1 1.8 1.8 0 000 1 2.2 2.2 0 01-.9 2.4 1.2 1.2 0 00-.4.8c0 .5-.3.6-.8.6a4.8 4.8 0 01-2.4-.4 6.2 6.2 0 00-2.6-.7c-.8 0-1.5-.2-2.2-.3a4.3 4.3 0 00-2.3.1c-.5.2-.6.6-.2 1l1.2 1.3a2.2 2.2 0 01.7 1.3c-1 .1-1.2 1-1.5 1.6a.6.6 0 01-.6.4c-3.4-1.9-6.2-4.6-9.1-7.2a142.7 142.7 0 01-12.2-12.1A112.6 112.6 0 0153 302a142.9 142.9 0 01-15.2-30 130.8 130.8 0 01-4-13.6l-.2-.8-.3-2.6-1.2-7.7a4.1 4.1 0 01.1-2.1 12.5 12.5 0 00.7-3.1 10.7 10.7 0 000-4.2 6.7 6.7 0 01-.1-3l.3-1.8a2.7 2.7 0 00-.5-2.4 4.2 4.2 0 01-.7-1.3 13.2 13.2 0 01-1.1-5.5 2 2 0 000-.6 39.6 39.6 0 01-.1-7.1c.1-2.3 0-4.6.3-7a71.5 71.5 0 011-7.2 134.6 134.6 0 0134.3-68 160 160 0 0119-16.9 128.3 128.3 0 0134.1-18c.9-.2 1.7-.6 2.5-1a67 67 0 018.6-2.8 39.1 39.1 0 018.5-1.5 11.5 11.5 0 012-.2 1.4 1.4 0 001.4 1.4 27.8 27.8 0 005.3-.3 2.7 2.7 0 011.1-.2l3 .3A5.6 5.6 0 01154 96c-1-.1-2.2 0-3.2-.2a2.5 2.5 0 00-1 0c-1.6.6-3.2.9-4.8 1.3a3.2 3.2 0 01-1 .1 8 8 0 00-5 1.6c-1.1.7-1.5.7-2.5-.2-.8-.6-1.1-.6-2 0 .2.4.8.5 1 1.1a12.8 12.8 0 00-2.5.5c-1.1.2-1.6-.5-1.4-1.7a4.1 4.1 0 01.5-1c.4-.6.2-1-.5-1.2a1.9 1.9 0 00-1.6 0 9.9 9.9 0 01-1.4.5c-.2 0-.7 0-.6.5s-.1 1 .7 1.2a2 2 0 01.4 0c.3.2.4.4.2.7l-.5.8 2.6 1a1.6 1.6 0 01-1.3.7 1.7 1.7 0 00-1.7 1.5 9 9 0 01-1.8 3.7 1.4 1.4 0 01-1.1.7 3.1 3.1 0 00-1 0 .8.8 0 00-.6 1.1 2 2 0 01-.2 1.4 3 3 0 00-.2 1.4c0 .3 0 .6-.3.8a24.7 24.7 0 01-4.5 2.3 1 1 0 01-.3 0 2.1 2.1 0 01.8-2.3c.3-.3.9-.5.6-1-.3-.2-.7.2-1 .4a1.8 1.8 0 00-1.3 1.2l-.5 1.2a3.3 3.3 0 01-1.6 2 3 3 0 00-1.5 1.1.8.8 0 01-1.1.5c.1-.8.6-1.6-.1-2.4-.7 1-.9 2.4-2.6 2.6a4.4 4.4 0 010-3.3l.5-1c.5-1 .5-1-.6-1.3l-.3-.1c0-.4.3-.4.5-.5l1.4-.8a1.6 1.6 0 012 0c.4.4.8.3 1-.3a.7.7 0 01.6-.4 13.6 13.6 0 002.9-1 5 5 0 011.9-.3.9.9 0 001-.6 5.6 5.6 0 011.3-2.2 1.6 1.6 0 00.7-1.4.7.7 0 00-.3 0c-.5 0-1 .3-1.2-.3-.4-1-.3-1.5.5-1.9a17.1 17.1 0 013.4-1.6 1 1 0 00.8-1c-1.3.6-2.5 1.1-3.8 1.5a10.2 10.2 0 00-4.2 2.7c-.1 0-.3 0-.3.2s.2 0 .3-.1z"/><path class="cls-1" d="M262.4 318.8a3.2 3.2 0 01.6-1.1 14.4 14.4 0 001.3-2.3 11.4 11.4 0 012.5-3.5c1.4-1.5 2.7-3 4-4.7l4.2-5a28.6 28.6 0 003.4-6.2l.6-1.5a21.5 21.5 0 001.6-5.7 32.7 32.7 0 012-6.8l4.6-11.6 5.7-14.4a36.6 36.6 0 001.2-4.8 114.2 114.2 0 002-11.6 51 51 0 00.4-6 17.4 17.4 0 000-3.2c-.8 1.5-1.4 3-2 4.4s-1.4 3-2.3 4.6L291 238a1.1 1.1 0 01-.2-1 3.3 3.3 0 00-.8-2.6l-1.7-2.1a1 1 0 00-.9-.4c-.6 0-.8-.4-1-1l-1.5-4.8a2.3 2.3 0 00-1-1.3 4.2 4.2 0 01-1.5-2.3 45.9 45.9 0 00-2.2-6 1.9 1.9 0 00-1.1-1.2 1.6 1.6 0 01-1.4-1.9v-.3c.1-1.2-.6-2.1-1.2-3l-7.5-10.8a1.4 1.4 0 01-.1-1.4 11 11 0 011.6 2.6 3.7 3.7 0 002.4 2.2c.3-.5-.2-.9 0-1.3a5.2 5.2 0 012.2 1.8 22.3 22.3 0 013.9 5.7c.1.2.2.5.5.6 1.3.2 1.6 1.4 2 2.4a21.7 21.7 0 011.7 4.5 2 2 0 001.1 1.6 3.3 3.3 0 011.2 1.2c1.1 1.5 2 3.2 3 4.8a8.7 8.7 0 011 3.5 33.8 33.8 0 001.5 6.4c0 .3 0 .6.4.6a.6.6 0 00.6-.6c.2-3 1.8-5.5 2.7-8.3.5-1.5.7-3 1-4.5 1.2-4.7 1-9.4 1-14 0-1.6-.4-3.1-.6-4.7 0-1-.3-1.9-.3-2.9a6.5 6.5 0 00-1.8-4.1 6.5 6.5 0 01-1.4-2.4c0-.2 0-.5-.5-.7a17.7 17.7 0 000 2.6 6 6 0 010 3.2l-.3.4a6.5 6.5 0 01-1.2-2.3l-.3-1c0-.4-.3-.7-.7-.6-.6 0-1-.3-1.2-.7l-3-4.1c-.7-1-.4-2-.4-3 0-.2.2-.2.4-.2s.6 0 .8.2a9.7 9.7 0 01.5 1.1c.6 1.5 2 2.2 3.2 3 .6.2.9 0 .9-.7V189a.4.4 0 01.3-.4.4.4 0 01.5.3l.7 1.8a3.9 3.9 0 001.4-2.6 84 84 0 012.3 8.7 140.4 140.4 0 012.8 17.8c.3 3.2.2 6.3.3 9.5.2 3.5 0 7.1-.1 10.7a106.1 106.1 0 01-1.3 12.2A134.3 134.3 0 01263 318l-.8.8zm29.7-127v-.2l-.1.1v.1zM30.8 209.3c-.3 2.3-.1 4.6-.3 6.9a39.6 39.6 0 00.1 7.1 2 2 0 010 .6 13.2 13.2 0 001.1 5.5 4.2 4.2 0 00.8 1.3 2.7 2.7 0 01.4 2.4l-.3 1.8a6.7 6.7 0 00.1 3 10.7 10.7 0 010 4.2 12.5 12.5 0 01-.6 3 4.1 4.1 0 00-.1 2.2l1.1 7.7.4 2.6a70.3 70.3 0 01-1.7-7.9 135.5 135.5 0 01-2-28.7 105.5 105.5 0 011-11.7zM227.2 345.3c0-.2.2-.3.3-.4l4.9-2.5a.9.9 0 01.5-.1 61.3 61.3 0 01-5.3 3c-.1 0-.3.1-.4 0z"/><path class="cls-1" d="M226.8 345.5c0-.3.2-.3.4-.2 0 .3-.1.4-.4.2z"/><path class="cls-2" d="M165.2 104.3a9.2 9.2 0 01.9.8c.5.5.4.9-.2 1.2s-1.3.7-1.4 1.5c0 .3-.4.4-.7.4a7.6 7.6 0 01-1-.3 2.4 2.4 0 00-1.2-.2c-.3 0-.7-.1-.8.3a1 1 0 00.2 1.1c.7.6.8 1.4 1 2.2a.8.8 0 01-.3 1 6.1 6.1 0 01-3 1.3l-5.5 1.4a3.4 3.4 0 01-2.3 0c-.4-.2-.7 0-1 .2a49.7 49.7 0 01-5 2.3 8.1 8.1 0 01-3.1.6 6.6 6.6 0 00-3 .4c-.4.1-.8.2-.9.7a4 4 0 01-2.7 2.6l-1 .3a2.8 2.8 0 00-1.7 1.1 5.6 5.6 0 01-1.5 1.4 5.4 5.4 0 00-1.8 1.8 2.1 2.1 0 01-2 .4c-.6-.2-.7-.7-.7-1.2v-.5c0-.5 0-.9-.8-1-1 0-1.1-.4-1.2-1.4a4.4 4.4 0 01.5-2.2l.6-1.4a7.4 7.4 0 012-2.8c.2-.2.6-.5.1-1-.2 0 0-.3.1-.4a9 9 0 011.1-1 7.9 7.9 0 001.7-1.6 3.1 3.1 0 012.4-1.1 6 6 0 003-1.1h-2.2c.2-1.3.5-1.6 1.6-1.6a9.3 9.3 0 001.5-.2 1 1 0 00.8-.5c0-.3-.2-.3-.3-.3-.6-.3-.7-.8-.2-1.2a3.8 3.8 0 01.7-.3c1.3-.7 2-2 3.4-2.6.4-.2.6-.8 1-1.2s.2-.8-.3-1l-.8-.4c-.5-.2-.5-.5-.2-.8a4.7 4.7 0 012.8-1.4 29.4 29.4 0 004.8-.8 30.2 30.2 0 016.1-.5h3.6a21.5 21.5 0 012.7-.3 8.4 8.4 0 014.4 1.4 2.2 2.2 0 001.3.3 7.9 7.9 0 012.3.2c.1 0 .3 0 .4.3-.3.5-.8.4-1.3.4s-.9.1-1 .7c0 1-.6 1.5-1.8 1.6l2.3 1.5a8 8 0 01-2.4 1zM184.5 145.9c1 .5 2-.1 3 .1a2 2 0 00-.9-2c-.6-.5-1-.9-.6-1.7-1 0-1.7.4-2.5.3-.2-.4 0-.6.2-.8a1 1 0 000-1c-.3-.3-.4-.6-.8-.7s-.4.4-.6.7l-.2.2c-.2-.6 0-1.2-.2-1.7h-.4c-.6.1-.9 0-.7-.6.3-.7 0-1-.6-1a.7.7 0 01-.5-1c0-.3.3-.6.5-.5.7.3 1-.5 1.6-.5.4 0 .4-.4.4-.8s.2-.5.6-.5h1.6a.5.5 0 01.4.3c.1.2 0 .3-.2.4s-.7.4-.5.8.7.2 1 .3h1.6c.6 0 .6.3.5.7a2.8 2.8 0 01-.6 1.5c-.2.1-.5.3-.4.6.3.4 0 .7-.5 1.1a2.6 2.6 0 012.6.8 3 3 0 01.8 1.4c.2.4.4.8 1 .8.8 0 1.3 1 1.2 2a2.6 2.6 0 011.4.6c.6.5.2 1 .1 1.4.4.2.7 0 1-.1a2.3 2.3 0 012 .7c.3.3 0 1.5-.4 1.9a4.5 4.5 0 00-1 1c.4.2.9 0 1.3 0 .2 0 .4 0 .5.3a.4.4 0 01-.2.6 3.3 3.3 0 01-1.8.5 8.6 8.6 0 00-2.5.4 6.1 6.1 0 01-2 .1c-.8 0-1.8-.1-2.3.8-.2.3-.5.3-.7.2a2 2 0 00-2 .8 1.3 1.3 0 01-.2.2c-.2.1-.3 0-.5-.1s0-.3 0-.5l1.2-1.1.8-.7a1.5 1.5 0 011.2-.6c.6 0 1-.2 1-1-.6.5-1 .6-1.6.2a2.2 2.2 0 00-1.6-.4 1.2 1.2 0 01-1.2-.7l1.5-.7c.6-.4.7-.9 0-1.2s-.8-1-.8-1.8z"/><path class="cls-2" d="M176.9 148a.5.5 0 00-.5-.3c-.3-.1-.5-.3-.2-.6s.1-.6-.2-.7l-1.2-.5c0-.5.5-.6.7-1s-.3-.6-.3-1a5.1 5.1 0 011.6-.1c.5 0 .7-.2.7-.7a4.9 4.9 0 010-.5c0-.4.2-.6.5-.6a2.3 2.3 0 01.8 0 2.5 2.5 0 002 0 1.6 1.6 0 011.9 1c.1.6-.3 1.2-1.1 1.4l-.4.1a4.4 4.4 0 01.7 3.6c-.1.4-.2.7-.7.7a5.7 5.7 0 00-2.7 1 4.3 4.3 0 01-2.7.7 1 1 0 01-1-.5c-.2-.5.1-.7.3-1 .4-.7 1.2-.6 1.8-1zM157.7 121l1.2-.3c.1 0 .3 0 .3-.2a.4.4 0 00-.2-.4c-.5-.2-1-.3-1.6-.7.6-.5 1.1-1 1.8-.8 1 .1.5 1.2 1.1 1.6a7.1 7.1 0 012.3-.2c0-.5-.6-.5-.6-1a16.5 16.5 0 012.7.3 1.5 1.5 0 00.9-.2 2.3 2.3 0 013.4 1.4 2 2 0 01-1 2c-1.3.5-2.7.8-4 1.2a4.2 4.2 0 01-3.2 0 13.3 13.3 0 00-1.7-.4c-.3-.1-.6-.3-.4-.7.4-.6 0-.8-.4-1-.3-.2-.6-.2-.6-.5zM44.2 214.2a2.7 2.7 0 00-.7-1.6c-.3-.2-.4-.6-1-.3a.3.3 0 01-.3-.1c-.3-.8-.5 0-.9 0l-1.7-3c-.4-.6-.3-.8.5-1s.8-.3.8-1.2l-.1-1a.5.5 0 01.3-.6c.3-.1.4.1.5.3a16.2 16.2 0 001.9 2.5 1.8 1.8 0 01.4 1.4 5.1 5.1 0 00.7 3.1c.3.7.1 1-.4 1.5zM40.6 202.8c0 .3.2.9-.2 1s-.7-.3-1-.5a6.5 6.5 0 01-.6-.8c-.6-.7-.6-.7 0-1.3a.8.8 0 00.1-.6c-.2-2-.4-4.2-.4-6.2 0-.9-.4-1.7 0-2.6.1-.2-.1-.5-.3-.7s-.4 0-.6 0-.3 0-.3-.2a2.6 2.6 0 01.6-1.2c.1-.2.4 0 .6 0a1.9 1.9 0 011 2c0 1.3.4 2.6.3 4a35.3 35.3 0 00.8 5.9 9.3 9.3 0 010 1.2zM189.2 102.5c-.7 0-1.4-.5-2.1-.2 0 .8.8 1.1.9 1.8-.5.3-.8 0-1.1-.2a20 20 0 00-3-1.4 9.4 9.4 0 01-3.2-2.4 8 8 0 002.6-.4 5 5 0 013 .5l.1.1c0 1 1 .8 1.5 1.2s1.2.2 1.3 1zM46.6 217a1.9 1.9 0 01-1.3-2 .8.8 0 011.2-.3 7.5 7.5 0 01.7 1.2c.4.7 0 1.1-.6 1zM221 118.2h.2a.5.5 0 01-.2.1.6.6 0 01-.2 0zM189.2 102.5h.1-.1zM245.2 174.8h.1z"/><path class="cls-1" d="M118.2 104.3s-.2.2-.3 0 .2 0 .3-.1zM95.6 150.2c0-.1.2-.2.3 0s-.1.1-.2.2a1.3 1.3 0 01-.1-.2z"/><path class="cls-2" d="M292 191.7v-.1z"/><path fill="#7d7d7d" d="M391.2 133.4l-16.5 6.4a2.9 2.9 0 002.1 5.3l16.4-6.3a2.9 2.9 0 10-2-5.4zM396 146l-16.4 6.3a2.9 2.9 0 002 5.4l16.5-6.4a2.9 2.9 0 10-2.1-5.3z"/><path fill="#7d7d7d" d="M450.6 64.4l-10.3 4a10.6 10.6 0 01-13.7-6l-1-2.7a10.6 10.6 0 016-13.7l21.7-8.3a2.9 2.9 0 00-2-5.4l-21.7 8.4a16.3 16.3 0 00-9.4 21l1 2.7a16.3 16.3 0 0021 9.3l10.4-4a10.6 10.6 0 0113.7 6l1 2.8a10.6 10.6 0 01-6 13.6l-42.6 16.4a73.3 73.3 0 00-8.9-.2 10.4 10.4 0 00-3.3.6 10.2 10.2 0 00-2.6 1.5 17.7 17.7 0 00-6.9-1 51.4 51.4 0 10-41 15.8 17.6 17.6 0 00-4 4.5 10 10 0 00-3.4.6 10.2 10.2 0 00-2.5 1.7c-16.6 13.1-23.6 28.6-18.7 41.5a10.2 10.2 0 0019-7.4c-1-2.4 1.3-7.6 7-13.3l11.8 30.7 5.5 14.2a10 10 0 0012.8 5.7l4.7-1.8a10 10 0 005.7-12.8l-4.4-11.6 17.6-6.8 4.5 11.6a10 10 0 0012.8 5.6l4.8-1.8a10 10 0 005.6-12.8l-5.4-14.2-11.5-29.8c6.7.8 10.9 2.9 11.7 5a10.2 10.2 0 1019-7.3c-3-7.8-9.7-13.3-19.1-16.2l33.9-13a16.3 16.3 0 009.3-21l-1-2.8a16.3 16.3 0 00-21-9.3zm-133.3 26a45.7 45.7 0 1159 26.3 45.7 45.7 0 01-59-26.2zm36.6 54v.2C343.6 153 338.8 162 341 168a4.5 4.5 0 11-8.3 3.3c-4-10.4 2.3-23.4 16.8-35a4.5 4.5 0 013.5-.9h.2a4.5 4.5 0 012.3 1.3 3.5 3.5 0 01.3.3 4.5 4.5 0 01-.7 6.3zm34.7 46.4a4.2 4.2 0 01-2.4 5.4l-4.8 1.8a4.2 4.2 0 01-5.3-2.4l-4.5-11.6 12.5-4.8 4.5 11.6zm19.2-26.8l-23 8.9-15.2 5.8-11.6-30 .8-.7.4-.4a10.2 10.2 0 001.3-14 10.4 10.4 0 00-2.4-2.1 12 12 0 014.9-3.5l31-11.9a12 12 0 016.6-.6v.1l-.1.5a2.3 2.3 0 000 .3l-.2.5v2a10 10 0 00.5 3l.1.5a10.2 10.2 0 009.8 6.4h1.1L423 158l-15.2 5.9zm21.7 11a4.2 4.2 0 01-2.4 5.4l-4.7 1.8a4.2 4.2 0 01-5.4-2.4l-4.5-11.5 12.6-4.9 4.4 11.6zm13.8-46.3a4.5 4.5 0 01-8.4 3.3c-2.2-5.8-10.6-9.1-22.7-9h-1.8a4.5 4.5 0 01-4.6-4.4v-.3a.4.4 0 010-.1 1.3 1.3 0 010-.3v-.4a.6.6 0 010-.1 4.5 4.5 0 011-1.8 4.4 4.4 0 011.8-1.3 4.3 4.3 0 011.5-.3c17.3-.5 29.4 4.9 33.2 14.8z"/><path class="cls-3" d="M331.4 56.4a33.2 33.2 0 016.3 2 44.6 44.6 0 018.5 4.8 25 25 0 013.7 3.1h.3a24 24 0 013-2 27.3 27.3 0 013.7-2 6.8 6.8 0 012.5-.7c.2 0 .1-.2.1-.2l.3-3.1a48.1 48.1 0 013.4-12.4 27.4 27.4 0 012.9-5.1l1-1.3a7.1 7.1 0 011.2 1.5 30.1 30.1 0 012 4.5 25.7 25.7 0 011.6 8.5 14.2 14.2 0 01-.7 4.6 3.5 3.5 0 01-.1.4 3.3 3.3 0 010-.9 39 39 0 00-1-6.6 35.4 35.4 0 00-1.8-6.2 15.5 15.5 0 00-1.4-2.5c0-.2-.1-.2-.2 0l-.6.5a14.3 14.3 0 00-2.1 3.8 42.6 42.6 0 00-2.8 10 35 35 0 00-.4 5.3s0 .2-.2.2a5.6 5.6 0 00-2 .4 24.3 24.3 0 00-4.2 2 24 24 0 00-4.1 2.7c-.2.2-.3.5-.5.4l-.4-.4a22.2 22.2 0 00-4.2-3.4 67.2 67.2 0 00-7.3-4 55.5 55.5 0 00-5.6-2.3c-.2 0-.2 0-.2.2a14.2 14.2 0 00.5 2.4c.6 1.8 1.2 3.6 2 5.4 1.2 3.3 2.6 6.6 4 10a3.7 3.7 0 01-1-1.1 32.7 32.7 0 01-2.5-4c-1-2-2-4-2.8-6a51.3 51.3 0 01-1.7-5 18.2 18.2 0 01-.8-3.4c0-.2 0-.2.2-.2l1 .1z"/><path class="cls-4" d="M338.5 75.9l-4-10-1.8-5.4a14.2 14.2 0 01-.6-2.4c0-.2 0-.3.3-.2a55.5 55.5 0 015.5 2.4 67.2 67.2 0 017.3 4 22.2 22.2 0 014.2 3.4l.4.4.5-.4a24 24 0 014-2.7 24.3 24.3 0 014.4-2 5.6 5.6 0 012-.4c.1 0 0 0 0-.2a35 35 0 01.5-5.2 42.6 42.6 0 012.8-10.1 14.3 14.3 0 012.2-3.8l.5-.6c.2-.2.2 0 .2 0a15.5 15.5 0 011.4 2.6 35.4 35.4 0 011.9 6.2 39 39 0 01.9 6.6 3.3 3.3 0 000 .8v.2a10 10 0 012.5.8h.1l.2.1.7.4a21.2 21.2 0 014.1 3.6 9 9 0 011 1.2 7.6 7.6 0 00-3.4.6 7.4 7.4 0 012 .6 14.8 14.8 0 014.3 3.3l.7 1.2a8.5 8.5 0 011 2.3 5.8 5.8 0 00-4.3-1c-.2 0-.2 0-.1.2a11.1 11.1 0 01.6 1.5 6.6 6.6 0 01.2 4v.3a20.1 20.1 0 00-1.1-2.3 22.8 22.8 0 00-3.7-5 15 15 0 00-1.4-1.3 9 9 0 012.4 0 11.9 11.9 0 012.4.4 8.2 8.2 0 00-2.7-3.5 7.2 7.2 0 00-4.2-1.6l.3.1a10.4 10.4 0 013.8 2.5 2.9 2.9 0 01.8 1.3h-.5a22.1 22.1 0 00-5 .2 7.4 7.4 0 013.1 2.2 16.4 16.4 0 013.2 5.8v.1a16.9 16.9 0 00-5.3-.9l.3.2A8 8 0 01376 79c.1.2.1.3-.1.3l-1.4.4-1.3.3 2.5-.4c.9-.1.6-.1.9.5l-.1.3-2.4 1c-.1 0-.2 0-.2.2l2.8-.4c.2 0 .3 0 .3.2a8 8 0 01.1 1.6.5.5 0 01-.4.5 4 4 0 00-1.3.7 14 14 0 011.3-.4c.3 0 .3 0 .2.2a3.8 3.8 0 01-3 3 13.4 13.4 0 01-8.3-1l-.5-.2c-.2 0 0 .3-.2.4a1 1 0 000 .2 21.2 21.2 0 01-2.3 4 12.6 12.6 0 01-3 3.4 3.5 3.5 0 01-4 .4v-.3l2-1.7 1.6-1.2a10.4 10.4 0 00-1.4.9 29.1 29.1 0 00-2.3 2 .2.2 0 01-.4 0 8.2 8.2 0 01-.8-.8v-.3l1.4-1.5.4-.4a.8.8 0 00-.3 0 14.3 14.3 0 00-1.6 1c-.5.4-.5.4-.8-.1-.2-.2-.1-.2 0-.4a33.4 33.4 0 012.8-2.2 1.6 1.6 0 00-.5.2 18 18 0 00-2.5 1.6c-.2.1-.2 0-.3-.1a11.8 11.8 0 01-.7-5.8l.2-1.1a8.5 8.5 0 00-1.6 1.5 10.5 10.5 0 00-2.3 4 16.3 16.3 0 01-1.5-9.3 5.2 5.2 0 00-.7 1A12.8 12.8 0 00345 86a17 17 0 000 2.8 44.3 44.3 0 00-.7 4.5 12.5 12.5 0 000 3 16.2 16.2 0 01-2.6-4.8v-.5a21.7 21.7 0 01-1-5.8 5.9 5.9 0 01.5-2.5h-.1a.6.6 0 00-.1.1 14.2 14.2 0 00-2.5 3.4V86l-.2-3a21.6 21.6 0 01.3-5.5l-.1.1a3.8 3.8 0 01.2-1.2c0-.2 0-.4-.2-.5zm32.2-7.3l-.4-.4a4.3 4.3 0 00-6.2.3 6.3 6.3 0 00-1.2 3.3 11 11 0 00.7 5 11.4 11.4 0 001.3 2.5 32 32 0 01-.7-3.2 2.3 2.3 0 001.2.6 6 6 0 004-.4 3.9 3.9 0 002.3-3 6.2 6.2 0 00-.2-2.8c0-.2 0-.5-.3-.6l-.2-.9v-.1a.3.3 0 00-.3-.4zm-6.4-11.7a20.2 20.2 0 012-2.5 9.9 9.9 0 00-.5 2.6l1.5-.8a6.2 6.2 0 00-1.1 3.6 10.7 10.7 0 012.4-4.4 6.2 6.2 0 00-2.3.9 27.1 27.1 0 011.8-5c-1.6.8-3.3 3.3-3.8 5.6zm-.7 29a2.3 2.3 0 00-.1-1.3c-.2-.6-.5-.7-1-.6a6 6 0 01-1.6.2c-.7 0-.9-.4-.5-1a1.8 1.8 0 011.6-.7.6.6 0 00.5 0 2 2 0 001.2-.8 1.5 1.5 0 011.4-.7.5.5 0 01.5.6.9.9 0 01-.5.9 1.5 1.5 0 00-.8 1.3 1 1 0 00.8 1l-.1-.3a3.1 3.1 0 01-.2-1 .5.5 0 01.4-.6 2 2 0 001.2-1.2 1 1 0 00-1.2-1.5 3 3 0 00-2.1 1.3 1.4 1.4 0 01-.4.4 3.3 3.3 0 01-1.3.4 1.2 1.2 0 01-.8 0 .3.3 0 00-.4 0 2.3 2.3 0 00-.7 1.1c-.1.7.1 1 .8 1l1.4.1c.9.1 1.7.3 2 1.3zm-14.4-5.4v-.9l.5.5a5.9 5.9 0 002.8 3.2 3.4 3.4 0 003.7 0 5.3 5.3 0 001.6-2 3.1 3.1 0 00.5-1.4l1 2.3a3.6 3.6 0 000-1 11.4 11.4 0 00-1.3-3.9 7 7 0 00-2.5-2.6 3.8 3.8 0 00-4.7.3 5.3 5.3 0 00-1.8 3.7 3.6 3.6 0 00.2 1.8zM342.4 66a5.8 5.8 0 00-5.8-.2 8.6 8.6 0 013.3.1 15 15 0 00-2.6 2 11.2 11.2 0 017 1 6.7 6.7 0 00-4.8-1.8c1-.4 1.9-.8 2.9-1zM374 84.5a1 1 0 00-.2-.3.4.4 0 00-.7 0 .8.8 0 000 .8c.1.3.5.5.7.4s.4-.5.2-.9zm-2.5-4.5c-.1-.4-.5-.6-.7-.5a.7.7 0 00-.3 1 .7.7 0 00.8.3.7.7 0 00.2-.8zm-12.3 9.3c-.1-.3-.5-.6-.7-.5a.7.7 0 00-.3.9.8.8 0 00.2.2.5.5 0 00.5.2c.4-.1.5-.4.3-.8zm-3-2.2a1 1 0 00-.4-.4.4.4 0 00-.7.3 1 1 0 00.4.8.4.4 0 00.6 0 1 1 0 00.1-.7zm2.4 0c-.1-.4-.4-.6-.7-.5a.6.6 0 00-.3.8.6.6 0 00.8.4.5.5 0 00.2-.7zm12.3-3.5v-.2a.6.6 0 00-.7-.3.6.6 0 00-.3.6 2.4 2.4 0 00.1.3c.1.4.4.6.7.5s.4-.5.2-.9zm-5.5 1.6a.4.4 0 00-.3-.3c0 .2.1.3.3.4z"/><path class="cls-3" d="M344.9 88.7a17 17 0 010-2.8 12.8 12.8 0 011.5-4.8 5.2 5.2 0 01.6-1 16.3 16.3 0 001.5 9.4 10.5 10.5 0 012.3-4 8.5 8.5 0 011.6-1.5l-.2 1.1a11.8 11.8 0 00.7 5.8c0 .2.1.2.3.1a18 18 0 012.5-1.6 1.6 1.6 0 01.5-.2 33.4 33.4 0 00-2.8 2.3c-.1.1-.2.2 0 .4.3.5.3.5.8.1a14.3 14.3 0 011.6-1 .8.8 0 01.3-.1l-.4.4-1.4 1.6v.3a8.2 8.2 0 00.8.7.2.2 0 00.4 0 29.1 29.1 0 012.3-2 10.4 10.4 0 011.4-.9l-1.7 1.3a54.1 54.1 0 00-1.9 2 3.5 3.5 0 003.9-.4 12.6 12.6 0 003.1-3.4 21.2 21.2 0 002.3-4 1 1 0 010-.2c.1-.2 0-.4.2-.5s.3.2.5.2a13.4 13.4 0 008.2 1 3.8 3.8 0 003.1-3c0-.2 0-.2-.2-.2a14 14 0 00-1.3.4 4 4 0 011.3-.7.5.5 0 00.4-.5 8 8 0 000-1.5c0-.2-.2-.3-.4-.3l-2.8.4.2-.1 2.3-1c.2-.1.3-.2.2-.4-.3-.6-.3-.6-1-.5l-2.4.5 1.3-.4 1.4-.3c.2 0 .2-.2 0-.3a8 8 0 00-2.8-2.5l-.3-.1v-.1a16.9 16.9 0 015.3.9v-.1a16.4 16.4 0 00-3.2-5.8 7.4 7.4 0 00-3-2.4 22.1 22.1 0 014.8-.3h.6a2.9 2.9 0 00-.8-1.3 10.4 10.4 0 00-3.9-2.4l-.2-.1a7.2 7.2 0 014.1 1.6 8.2 8.2 0 012.7 3.5 11.9 11.9 0 00-2.3-.5 9 9 0 00-2.5 0 15 15 0 011.5 1.3 22.8 22.8 0 013.6 5 20.1 20.1 0 011 2.4 1.2 1.2 0 00.8 0 66.1 66.1 0 018.3-1 13 13 0 013.5.2 1 1 0 01.3.2l-1.6.2c-2.6.3-5.2.7-7.7 1.2l-3 .6c-.2 0-.2 0-.2.3.1.4 0 .4.5.4a44.7 44.7 0 0113.2 2 26.3 26.3 0 015 2 8 8 0 012.3 1.7v.1a13.7 13.7 0 00-2.7-1 43.2 43.2 0 00-5.8-1.1 70.8 70.8 0 00-12.8-.7l-1.5.1c-.2 0-.2.1-.2.2a5.4 5.4 0 01-2.6 4.3 8 8 0 01-4.1 1.1h-.1a10.6 10.6 0 01-3.6-.7h-.2A4.5 4.5 0 01365 90c-.2 0-.3 0-.3.2a12 12 0 01-1.5 3c-.2.1 0 .2 0 .3a3.8 3.8 0 004.6.4 8.4 8.4 0 003.5-4.1c.2-.4.2-.5.6-.3.1 0 .2 0 .2.2a11.7 11.7 0 01-1.5 3.8 5.2 5.2 0 01-2.7 2.2 5.1 5.1 0 01-4.4-.5 4 4 0 01-1.1-1 10.3 10.3 0 01-1.7 1.5 8.2 8.2 0 01-2 1 3.6 3.6 0 01-2.9-.3 5 5 0 01-1.3-1c-.1-.2-.2-.1-.3 0a82.3 82.3 0 00-7.3 8.8 69.7 69.7 0 00-4.6 7.2 29 29 0 00-1.3 2.5 21.7 21.7 0 011.7-4.2 75.8 75.8 0 014.7-8.5 54.5 54.5 0 015.2-7l.3-.4h0a28.8 28.8 0 00-5.3 4.4 56 56 0 00-6.5 7.9l-1 1.7v-.6a20 20 0 012.7-5.2 46.7 46.7 0 016.5-7.6.3.3 0 000-.4 27.2 27.2 0 01-2.3-5.5 12.5 12.5 0 01-.7-3.3v-.4c0-.1 0 0 0 0a2.8 2.8 0 00-.4 1 19.1 19.1 0 00-.4 4.7l-.1-.5-.1-.6c0-.2-.4-.4-.4-.7zm50-5.5a.4.4 0 00-.2 0 44.6 44.6 0 00-15.5-2.2h-.6a8 8 0 01.3 1.4c0 .4 0 .4.4.3a33.2 33.2 0 015.3-.3 92.8 92.8 0 0110.3.8h.1zm-43.8 10.4h-.1l-1.1 1c-.1.2-.1.3-.3.3l-.9.9a16.2 16.2 0 00-1.9 2.2l.7-.6 2.3-2 .5-.3V95a.5.5 0 00.1-.1l2-1.6c.3-.2.3-.2 0-.5v-.4a5.6 5.6 0 00-.8.6.2.2 0 00-.1.2l-.4.3zm-3.8 8.7l1.9-2.2A95.2 95.2 0 01354 95a4.3 4.3 0 01-.6-.8 162.4 162.4 0 00-4 5l-2.1 3-.1.1h.1zm2.4-8.4c.8-.7 1.5-1.4 2.4-2v-.3a13.5 13.5 0 01-.7-3.8V86c-1.7 2.3-2 5-1.7 7.8zm15.8-7.3a15 15 0 01-.3 1.7c0 .1 0 .2.1.1a3.3 3.3 0 001.7-.9zm15.3-6.3l-.4-.4a.2.2 0 00-.3 0l-1.6.5h-.1l.1.1h.4zm-4-2.3l.7.8a.1.1 0 00.1 0l1-.1a5.6 5.6 0 00-1.8-.7zm2.6 1.2c-.2-.1-.3-.3-.5-.3l-1.2.2.3.5h.2z"/><path class="cls-4" d="M371.9 89.5c-.4-.1-.4-.1-.6.3a8.4 8.4 0 01-3.5 4.1 3.8 3.8 0 01-4.6-.4c-.1 0-.2-.1-.1-.3a12 12 0 001.5-3l.3-.2a4.5 4.5 0 003.4-1.7s.1-.1.2 0a10.6 10.6 0 003.6.7z"/><path class="cls-3" d="M341.1 82.7a5.9 5.9 0 00-.3 2.4 21.7 21.7 0 00.8 5.9l.1.4a7.8 7.8 0 01-1.7-3.2 8.1 8.1 0 01-.3-1.4v-.1a5.3 5.3 0 00-.5 1.5c-.3.8-.4 1.7-.5 2.5a5 5 0 01-.6-1.3 20 20 0 01-.8-7.1 11.7 11.7 0 011-4.4 1.4 1.4 0 00.1-.2l.2-.2a21.6 21.6 0 00-.3 5.5l.2 3v.2a14.2 14.2 0 012.5-3.4.6.6 0 01.1-.1zM350.8 62.8a2.7 2.7 0 01.7-1 13.2 13.2 0 013-2 .3.3 0 00.3-.3 23.1 23.1 0 012.4-8 36.8 36.8 0 015.5-8.2 20.5 20.5 0 012-2 .2.2 0 01.1 0l-.7.8a36.2 36.2 0 00-6.5 10.9 16.9 16.9 0 00-1.2 5 7.1 7.1 0 00.2 2.1c0 .1 0 .2-.2.2a6.8 6.8 0 00-2.5.7 16.8 16.8 0 00-3.1 1.8zM373.7 60a6 6 0 00-1.2-.7c0-.1.2 0 .2 0a14.1 14.1 0 013.3 1.4 20 20 0 014.9 3.8 10 10 0 011.3 1.9 18.1 18.1 0 00-2.5-.1A12.9 12.9 0 01384 71a.5.5 0 01.1.3l-1.4-1.5-.2-.1a14.8 14.8 0 00-4.3-3.3 7.4 7.4 0 00-2-.6 7.6 7.6 0 013.4-.6 9 9 0 00-1-1.2 21.2 21.2 0 00-4-3.6 9 9 0 00-.8-.4zM350 62l.5.6-2-1.2a37.3 37.3 0 00-15.6-5.2h-.3a5.1 5.1 0 00-1 0l-.6-.1a4.8 4.8 0 011.3-.3 15.6 15.6 0 015.8.4 29.4 29.4 0 014.1 1.3.4.4 0 00.3.1l.2.2a31.6 31.6 0 016.4 3.6 2.3 2.3 0 00.6.4s0 .1 0 0a.1.1 0 00.2.2h.1z"/><path class="cls-4" d="M349.7 61.8a2.3 2.3 0 01-.6-.4 31.6 31.6 0 00-6.3-3.7h-.3.2a22.9 22.9 0 016.8 4h.2zM331.7 56.1a5.1 5.1 0 01.9.1 7.8 7.8 0 00-1.2.2h-.3l.6-.3zM342.6 57.6a.4.4 0 01-.4-.1.3.3 0 01.4.1zM350 62a.1.1 0 01-.2-.1.1.1 0 01.1.1zM349.8 61.9l-.1-.1c0-.1 0 0 0 0z"/><path class="cls-4" d="M350 62h-.1a.1.1 0 01.1 0z"/><path class="cls-3" d="M341 114zM372.5 59.3z"/><path class="cls-4" d="M338.4 77.6v.1c0 .1 0 0 0 0z"/><path class="cls-5" d="M371 69l.1.8-.3-.1a5 5 0 01-1.7 5.4 4.2 4.2 0 00-.4-2 3.5 3.5 0 00-1.3-1.7c-.3-.2-.4-.2-.5.2a3.6 3.6 0 000 2.2 6.4 6.4 0 001 2h-.3a5.1 5.1 0 01-3-.5 1 1 0 01-.7-1 9.4 9.4 0 01.5-3.8 3.5 3.5 0 011.8-2 5.2 5.2 0 014.8.5zM349.7 80.1l-.4-.5a5.5 5.5 0 011-2.8 3.8 3.8 0 015.7-.7 9.7 9.7 0 012 3 .3.3 0 010 .3 9.2 9.2 0 01-.9 1.2 6.4 6.4 0 01-1.2 1.1 4.4 4.4 0 00-.5-2.2A3.4 3.4 0 00354 78c-.2-.1-.3-.1-.4.1a3.3 3.3 0 000 2 6.4 6.4 0 001 2.2.8.8 0 01-.4 0 2.9 2.9 0 01-2.5-.7 7.1 7.1 0 01-1.7-2.4c-.1-.3-.1-.3-.4-.1a.2.2 0 00-.1.2z"/><path class="cls-3" d="M371 69a5.2 5.2 0 00-4.8-.4 3.5 3.5 0 00-1.8 2 9.4 9.4 0 00-.4 3.9 1 1 0 00.7 1 5.1 5.1 0 003 .3H368a6.4 6.4 0 01-1-1.8 3.6 3.6 0 01-.1-2.3c.1-.4.2-.4.5-.2a3.5 3.5 0 011.4 1.7 4.2 4.2 0 01.3 2 5 5 0 001.8-5.4l.3.2.3.5a6.2 6.2 0 01.2 3 3.9 3.9 0 01-2.3 2.8 6 6 0 01-4 .5 2.3 2.3 0 01-1.2-.7 32 32 0 00.7 3.2 11.4 11.4 0 01-1.3-2.5 11 11 0 01-.7-5 6.3 6.3 0 011.2-3.2 4.3 4.3 0 016.2-.4l.4.4a1 1 0 00.3.3v.1zM349.7 80.1l-.1-.7a.2.2 0 010-.2c.3-.2.3-.2.5 0a7.1 7.1 0 001.7 2.5 2.9 2.9 0 002.5.8.8.8 0 00.3-.1 6.4 6.4 0 01-1-2.1 3.3 3.3 0 01.1-2.1c0-.2.2-.2.4-.1a3.4 3.4 0 011.2 1.4 4.4 4.4 0 01.6 2.2 6.4 6.4 0 001.2-1.1 9.2 9.2 0 00.9-1.2.3.3 0 000-.3 9.7 9.7 0 00-2-3 3.8 3.8 0 00-5.7.7 5.5 5.5 0 00-1 2.8l-.1 1a3.6 3.6 0 01-.2-2 5.3 5.3 0 011.8-3.6 3.8 3.8 0 014.7-.3 7 7 0 012.5 2.6 11.4 11.4 0 011.3 4 3.6 3.6 0 010 1l-1-2.4a3.1 3.1 0 01-.4 1.3 5.3 5.3 0 01-1.7 2 3.4 3.4 0 01-3.7 0 5.9 5.9 0 01-2.8-3zM363.6 85.9c-.2-1-1-1.3-1.9-1.3l-1.4-.1c-.7 0-1-.4-.8-1a2.3 2.3 0 01.7-1.1.3.3 0 01.4-.1 1.2 1.2 0 00.8 0 3.3 3.3 0 001.3-.4 1.4 1.4 0 00.4-.3 3 3 0 012.1-1.4 1 1 0 011.2 1.5 2 2 0 01-1.2 1.3.5.5 0 00-.4.5 3.1 3.1 0 00.2 1v.4a1 1 0 01-.7-1 1.5 1.5 0 01.8-1.4.9.9 0 00.5-1 .5.5 0 00-.6-.5 1.5 1.5 0 00-1.4.7 2 2 0 01-1.2.8.6.6 0 01-.4 0 1.8 1.8 0 00-1.6.7c-.4.6-.2 1 .4 1a6 6 0 001.6-.2c.6-.1.9 0 1.1.6a2.3 2.3 0 01.1 1.3zM342.4 66c-1 .2-2 .6-3 1a6.7 6.7 0 015 1.8 11.2 11.2 0 00-7.1-1 15 15 0 012.6-2 8.6 8.6 0 00-3.3-.1 5.8 5.8 0 015.8.2zM364.3 56.9c.5-2.3 2.2-4.8 3.8-5.6a27.1 27.1 0 00-1.8 5 6.2 6.2 0 012.3-.9 10.7 10.7 0 00-2.4 4.4 6.2 6.2 0 011-3.6l-1.4.8a9.9 9.9 0 01.5-2.6 20.2 20.2 0 00-2 2.5zM374 84.5c.1.4 0 .8-.2.9s-.6-.1-.8-.4a.8.8 0 010-.8.4.4 0 01.8 0 1 1 0 01.2.3zM371.5 80a.7.7 0 01-.2.8.7.7 0 01-.8-.4.7.7 0 01.3-.9c.2 0 .6.1.7.5zM359.2 89.3c.2.4 0 .7-.3.8a.5.5 0 01-.5-.2.8.8 0 01-.2-.2.7.7 0 01.3-.9c.2 0 .6.2.7.5zM356.2 87a1 1 0 010 .7.4.4 0 01-.7.1 1 1 0 01-.4-.8.4.4 0 01.7-.3 1 1 0 01.4.4zM358.6 87.1a.5.5 0 01-.2.8.6.6 0 01-.8-.4.6.6 0 01.3-.9c.3 0 .6.1.7.5zM370.9 83.6c.1.4 0 .8-.2.9s-.5-.1-.7-.5a2.4 2.4 0 010-.3.6.6 0 01.2-.6.6.6 0 01.6.4l.1.1zM365.4 85.3c-.2 0-.2-.2-.3-.3a.4.4 0 01.3.3z"/><path class="cls-5" d="M371 68.9a1 1 0 01-.3-.3.3.3 0 01.3.3z"/><path class="cls-3" d="M363.6 85.9z"/><path class="cls-5" d="M373.7 60h0z"/><path class="cls-3" d="M341.1 82.7zM371.8 69zM338.6 77.5z"/><path class="cls-5" d="M373.9 60z"/><path class="cls-3" d="M364.3 56.9zM349.2 80.5z"/><path class="cls-5" d="M370.7 68.6z"/><path class="cls-3" d="M338.6 77.5z"/><path class="cls-5" d="M394.9 83.2a92.8 92.8 0 00-10.3-.8 33.2 33.2 0 00-5.3.3c-.4.1-.4.1-.4-.3a8 8 0 00-.3-1.4h.6a44.6 44.6 0 0115.6 2.1z"/><path class="cls-4" d="M349.7 93.9c-.2-2.8 0-5.5 1.6-7.8v1.7a13.5 13.5 0 00.8 3.8v.3c-.9.6-1.6 1.3-2.4 2z"/><path class="cls-5" d="M347.3 102.3l2.1-3.1a162.4 162.4 0 014-5 4.3 4.3 0 00.6.8v.3a95.2 95.2 0 00-4.8 4.9l-1.8 2.1z"/><path class="cls-4" d="M365.5 86.6l1.5 1a3.3 3.3 0 01-1.7.8h-.1a15 15 0 00.3-1.8z"/><path class="cls-5" d="M352.5 92.8c.2.3.2.3 0 .5l-2 1.6a.5.5 0 01-.2 0v-.2a11.3 11.3 0 01.7-1l.1-.2.4-.3.2-.1a2.4 2.4 0 01.8-.3zM349.9 95.4l-2.4 2-.7.6a16.2 16.2 0 012-2.2l.8-.9zM380.8 80.3l-2 .1h-.3-.2l.1-.1 1.7-.5a.2.2 0 01.2 0z"/><path class="cls-4" d="M376.8 78a5.6 5.6 0 011.8.7l-1 .2a.1.1 0 01-.1-.1zM379.4 79.2l-1.2.4h-.2l-.3-.5 1.2-.2c.2 0 .3.1.5.3zM349.9 95.4l-.3-.5c.2 0 .2-.1.3-.2l1-1a11.3 11.3 0 00-.5 1l-.1.3zM352.5 92.8a2.4 2.4 0 00-.8.2 5.6 5.6 0 01.7-.7zM351.7 93l-.2.1a.2.2 0 01.2-.1zM351.1 93.5v.1c0 .1 0 0 0 0zM351 93.6z"/><path class="cls-5" d="M352.8 93.8zM395 83.2zM347.3 102.3z"/><path class="cls-4" d="M351.2 93.5z"/><path class="cls-5" d="M346.1 84.8v.1zM350.3 95zM395 83.2h-.1zM339.6 86.7zM379.7 66.3z"/></svg>