<svg xmlns="http://www.w3.org/2000/svg" viewBox="0 0 801 624" width="800">
  <path fill="#616161" d="M725.9 47a16 16 0 0 1-2.1-8.1c0-.7.3-1.4.9-1.8 2.8-2 8.9-2.5 11.1 1 .2.4.2.8 0 1.1l-1 1.1c-.3.3-.4.6-.4 1 0 2-.3 3.9-1.2 5.8-.4.9.2 2 1.1 2.1l5.8 1.3c.4 0 .6.2.8.5 1.6 2.3 2.2 4.7 2 7l-.8 7.5c-.2 4.5-1 7-3.6 10.1-.2.3-.2.6-.2.9 1.4 5.5.6 12.3 1 18 0 1.2-.2 2.4-.7 3.6a11 11 0 0 0-1 3.6c-1.2 8.7-1.8 14.4-2 17-.2 4.3 3.9 4.4 7 4.4.3 0 .5.2.5.6v.8c0 .3-.3.6-.6.5a110 110 0 0 0-25 0 .7.7 0 0 1-.8-.5l-.1-.7c-.1-.5.2-.8.6-.7 2.7.5 4.7-.5 5.8-2.9.2-.3.2-.6.2-1-1.8-14-2.9-26.9-3.3-38.3a20 20 0 0 1 2.3-9.9 1 1 0 0 0 0-.9c-.9-1.5-1.6-2.5-1.8-4.2-.4-3.5-.6-6-2.4-9.2a211.7 211.7 0 0 1-12.8-25.8c-1-.7-1.8-1.6-2.4-2.7a.7.7 0 0 0-1-.4 33 33 0 0 0-9.1 6.7 1 1 0 0 1-1.7 0l-7-8.8c-.6-.6-.4-1.5.2-1.9l13.6-8.6c.6-.4 1.3-.2 1.7.3 2.3 3.2 4.2 6.5 7.3 9.2 1.8 1.5 2.1 3.6 3.5 5.2 2.6 2.9 4.7 6 6.5 9.4 1.3 2.5 2.4 4.1 3.3 5 1.6 1.4 3.4 2.5 5.4 3.2.5.2.7 0 .4-.4ZM707 29.5c.4-.5 0-1.4-1-2-.8-.5-1.8-.5-2.1 0-.3.5 0 1.4 1 2 .8.5 1.8.5 2.1 0Zm10.5 19 .4.1a27 27 0 0 1 3.4 12.3c0 2 0 7.7 2.4 8.3 3.9 1 7.5 1 11 0a2.5 2.5 0 0 0 1.6-2.8 20 20 0 0 1 2-12.5c0-.2.2-.3.4-.2.2 0 .2.3.2.5a19.5 19.5 0 0 0-1 11.2v1l-3.5 8.8-.6.8c-.8.7-.7 1.5.2 2.3.3.2.6.2.9 0 .5-.6.6-1.2.4-2-.2-.3 0-.5.4-.5l.7.1c.2 0 .5 0 .7-.3 5-5.6 3.6-13 3.8-19.8 0-.8 0-1.5-.2-2A3 3 0 0 0 739 52c-.9-.3-1.7 0-2.4.6l-6 5.7c-.8.7-2 .6-2.6-.2l-4-5.5c-1.4-2-2.2-5-5.1-6.8a.5.5 0 0 0-.6.2l-.2.4c-.1.5-.3.5-.5 0-2.2-5.3-3-9.9-7.9-13.7l-.4-.7-.8-1.6a.6.6 0 0 0-1-.1c-.5.7-.5 1.7 0 2.9 2.3 6 5.3 12 9 18 .2.4.6.5.9.3.3 0 .5-.4.4-.8l-.5-2s0-.2.2-.3Zm14.5-10c.5.2 1 .2 1.5.2.4 0 .4-.5.2-.7-2-1-6.3-2-8 0-.2.4-.1.5.3.4 2-.8 4-.8 6 0Zm.3 3.1c0-.6-.4-1-1.2-1-1.5-.2-3-.1-4.5.2a1 1 0 0 0-.8.6c-1 2.3-.5 4.3 1.5 6.2.2.2.3.5.2.8l-.3 1.5c0 .4.3.8.7.8h3.2c.4 0 .7-.4.6-.8a4.7 4.7 0 0 1 1-4.8l.4-.8c.2-1.3 0-2.2-.8-2.7ZM726 53c.3-.2 0-1-.6-1.8s-1.3-1.3-1.6-1c-.3.1 0 1 .6 1.8s1.4 1.3 1.6 1Zm4.7-.6c.5 0 .7-.7.2-.8-.9-.4-1.8-.5-2.8-.2-1 .1-1 .4 0 .6a9 9 0 0 0 2.6.4Zm5.2-.5a.4.4 0 0 0-.6 0l-4 3.8c-.1.1-.2.4 0 .5.2.2.4.2.6 0l4-3.8c.1-.1.2-.4 0-.5Zm-5.1 1.3-2-.2c-.5 0-.8.7-.3 1 1.2.7 2 .5 2.5-.4.1-.2 0-.4-.2-.4Zm.2 26c.8-2 3.1-3.6 3-6.2 0-.4-.2-.6-.6-.5a4 4 0 0 1-3.3-1.2.7.7 0 0 0-.7-.1l-6.3 2c-.2 0-.4.2-.4.4-1.1 6-1.3 12-.5 18 .1.7.3.7.7.3 1.9-2.2 5.7-6.2 3.7-9.2V82h.5l.6.8c.4.5 1.2.4 1.5-.2l.5-1c.3-.6.6-.6.8 0l.9 1.8c.3.7 1.2.6 1.4 0a7 7 0 0 0 .4-4.7.6.6 0 0 0-1-.3l-.9.8c-.1.2-.4 0-.3-.2Zm3.3 4.2-2.4 1.7c-.8.6-.9 1.7-.2 2.4L736 92c.6.6.9.4 1-.4V78.3c0-.4-.4-.6-.7-.3a7.5 7.5 0 0 0-1.7 4.5c0 .3-.2.6-.5.8Zm-5.3 22.2c0-3.5-3.1-6.5-5.8-8.2-.3-.1-.5 0-.4.3l2 22c0 .8.8 1.5 1.7 1.4l1.6-.2c.4 0 .6-.3.6-.6l.3-14.7Zm4.3-.9c-.2.2-.4.2-.6.1l-1.7-.7a.5.5 0 0 0-.8.5v15.7c0 .3.3.5.6.5l2.7-.1c.3 0 .5-.2.5-.5l1.8-16.6c0-.5-.5-.8-.9-.4l-1.6 1.5Zm-436.7-48c0 4 1.5 9.5 0 13.7 0 .2-.2.3-.5.3l-12.6.3a.4.4 0 0 1-.4-.5l-.7-16.7c0-.2.1-.4.3-.4 3.3-.4 6.7-.5 10-.4 3.6.2 4.3-2.3 7.2-2.6 2.8-.3 4.8 1.4 7.7.9 3.7-.7 7.5 0 10.9-.3 3.3-.2 8.1-.4 14.5-.5 2.4-.1 2-2.4 1.3-4-1.4-2.7-2-5.6-2-8.8 0-.3.2-.5.5-.7 2-1.3 4.2-1.8 6.7-1.6 2.8.2 4.2 1.5 4.2 3.8v3a9 9 0 0 1-1.3 4.5c-2.1 3.8 4 4.5 6 4.8.3 0 .6.1.8.3 3.8 3.2 3.6 7.4 4.3 11.6 1.5 8.7-5.4 12.9-5.4 20.7 0 3.4-.2 6.7-.4 10.1-.1 2.6.6 4.7 1.3 7.2v1a9 9 0 0 1-2 3c-.3.3-.4.6-.4.9l-1.7 12.7c0 .2 0 .4.2.5l3.7 3.5.5.1h4.3c.9 0 1.2 1.2.4 1.7a3 3 0 0 1-1.6.3c-9.5-.5-19-.4-28.5.2-.3 0-.6-.1-.7-.4l-.4-.9c-.2-.4 0-.6.4-.7l5.4-.3a3 3 0 0 0 2.8-3.3c-1-8.5-1.9-17.4-2.7-26.6-.8-8-.4-15.2 1.2-21.3l-.1-1-4.3-11.1c-.4-1-1.4-1.6-2.5-1.5-4.8.3-9.6-.3-14.5-1.7-1.8-.6-4.7-.4-8.5.4h-1l-1.9-.7c-.3-.1-.6.1-.5.4ZM334.4 38c2-.6 4-.5 6.1.2.6.2.7 0 .5-.5l-.2-.4a.9.9 0 0 0-.7-.5c-2-.2-4 .1-5.7 1l-.1.2h.1Zm0 3.4c-.4 1.7.6 5.5 2 6.8.2.3.5.4.8.4 7.6-1.1 6.1-12.8-2.4-7.9a1 1 0 0 0-.5.7Zm5.5 7.6-3 .2c-.5 0-.7.4-.7.7v.1c0 1.4 1 2.4 2.2 2.3h.3c1.2-.1 2-1.2 2-2.5v-.1c-.1-.4-.4-.7-.8-.7Zm-40 3.1 1.7 1.4c.2.2.7 0 .7-.3 0-.9-.4-1.5-1.4-1.8a5 5 0 0 0-2.6.3l-.1.2.2.1.5-.1c.4 0 .7 0 1 .2Zm31.6 12.4.4.2.5.5c2.2 6 5.8 5.8 11.4 5.2 2.4-.3 2.5-5.2 2.3-7.2a10 10 0 0 1 .8-5.8c.1-.2.3-.3.6-.2.2 0 .3.2.2.4-.4 2-.4 4 0 6 .4 2.9-.1 4.7-.8 7.4-.1.8-.1 1.4.1 1.9.4.7 1 1 2.1.8.3 0 .6-.2.8-.4 1.6-2.5 2.2-5.2 1.8-8.2-.4-3.4-.5-16.2-7.6-10.7a77.4 77.4 0 0 0-5 4.3c-.5.5-1.3.5-1.8 0l-6.1-5.9c-.8-.7-2-1-3-1-2.7.4-9.4-.2-11.2 1.7-.2.2-.5.3-.8.2-2.4-1.4-5-1.8-7.7-1.2-1 .3-1.2 1.7-.2 2.2 3.7 1.7 7.7 2.1 12 1 10.3-2.6 8.3 14.8 13.4 14.4.3 0 .4-.2.2-.5l-2.9-4.5c-.2-.3.2-.7.5-.5Zm-25.2-11a1 1 0 0 0-2 0c0 .6.4 1 1 1s1-.5 1-1Zm35.9 1.2c0 .1 0 .2.2.1l1.5-1.5c.1-.1.1-.3 0-.4a.3.3 0 0 0-.4 0 4 4 0 0 0-1.4 1.8Zm-42.3-.3c-.6-.6-1.2-.7-2-.1-.2.2 0 .8.4.8h1.3c.6 0 .8-.2.3-.7Zm39.6 27.2c.2-.2.5-.2.7.1.1.3 0 .7-.2 1a4.8 4.8 0 0 0-1.6 4.7c0 .5.7.7 1 .2a59 59 0 0 0 6-13.3c.2-.9-.4-1.8-1.4-1.7l-3.9.2c-.2 0-.5 0-.7-.2-1.3-.8-2.5-.7-3.4.4-.2.2-.4.3-.7.2l-2.9-.6c-.3 0-.7.1-.8.5a32.5 32.5 0 0 0-1.8 12.7l3 32c0 1.1.7 1.7 1.7 1.8 2.2.2 3.1-.4 3-2.7l-.1-11c0-3.8-2-6.6-3.6-9.8a.8.8 0 0 1 0-.8c1.2-2.3 3-4.4 3.2-7s-.7-4.7-2.4-6.7l-.2-.5.1-.4c.3-.5.7-.4 1 0l1.8 2.6c.1.2.4.2.6 0a11 11 0 0 1 1.6-1.7Zm9.1-6.3c-.2-.3-.7-.3-1.1 0-.5.2-.7.6-.5 1 .2.2.7.3 1.1 0 .5-.2.7-.7.5-1Zm-4 9c.7 0 1.3-1 1.4-2.2.2-1.2-.2-2.3-.9-2.3-.6 0-1.2.8-1.3 2-.1 1.3.3 2.4.9 2.4Zm.6 6.3c.5.7.8.6.8-.3v-4.8c0-.7-1-1-1.4-.3-1 1.8-.8 3.6.6 5.4Zm-3.3 18h-.5l-1.4-.5a.5.5 0 0 0-.8.6l.1 9.8c0 .3.2.5.5.5l2.5.3c.3 0 .6-.2.6-.5l1.4-11c0-.5-.5-.8-.9-.5l-1.5 1.2Zm166.6-51.1c-3-1.3-5.3-1.7-7-1.2a61 61 0 0 1-19.2 1.9c-.4 0-.6 0-.9.2-1.4 1-2.1 2.1-2 3.6.2 4-.6 7.3-2.5 10a1 1 0 0 0-.2.8 34 34 0 0 1 1.8 15.8l-1.9 26c-.3 5.1.5 9.2 6.7 8.5.3 0 .6.1.8.4l.2.5c.2.5 0 .7-.5.7-6-.3-15-.3-26.6-.1-.7 0-1.2-.3-1.3-1-.2-.3 0-.5.4-.5 2.8.2 4.8-1 6-3.7v-.6c-.8-4.1-1.5-8.2-2-12.3-.5-4.2-2.3-7-4.4-10.4a.8.8 0 0 1 0-1c.6-.5 1.3-1 2.2-1.2 1.1-.4 1.5-1.2 1.2-2.4-1.2-4.5-1.3-9-.2-13.5v-.8c-1-3-2.8-5.7-3.5-8.5-1-4.1-1.8-11.6 1-14.8 1.7-1.9 5-2.3 7.2-3.2a2.7 2.7 0 0 0 1.6-3l-1.6-9.2c0-.4 0-.8.4-1 3-3 8.8-3.3 11.5.5.2.3.2.7 0 1l-.9 1.3-.2.8c.1 2.4-.4 4.6-1.4 6.8-.2.3-.2.6 0 .8 1.4 2.9 4.6 1.7 7 1.4 1 0 2.4 0 3.8.4 2.5.7 5.1 1 7.8.9 4.1-.1 7.7 1 11.8 1 2.4 0 4.5 0 6.4.4 4 .6 8 .8 12 .6.5 0 .7.2.7.7l-1.5 16.3c0 .8-.7 1.3-1.4 1.3h-11.3c-.8 0-1.3-.7-1.2-1.4l1.7-12c0-.4-.1-.7-.5-.8Zm-35.4-18.8.2.2c.3.3.6.3.7-.2.1-.7-.1-1.2-.7-1.5-1.8-.9-4-1-6.4-.4a1 1 0 0 0-.9.9c0 .3.1.4.4.3a8 8 0 0 1 6.3.4l.4.3Zm-1.4 1-4.1-.1a2 2 0 0 0-1.9 1.8v.5c0 3 1.4 5.7 3.2 5.7h1c2 0 3.5-2.4 3.6-5.5v-.5c0-1-.8-1.9-1.8-1.9Zm-3.6 9.1a1 1 0 0 0-.9 1.2l.4 1.6c0 .4.5.7 1 .7h2.7c.5 0 1-.6 1-1.1l-.3-1.5a1 1 0 0 0-1-1l-2.8.1Zm11.6 7.1v.5c0 .4.1.5.5.3.8-.3 1.3-.7 2.2-.6 5.7.7 11.3.3 16.8-1.3.6-.1.6-1 0-1.1a19 19 0 0 0-8.2-.6 9 9 0 0 1-3.8-.1l-5.2-1.7a3.5 3.5 0 0 0-3.3.6l-8.8 7a1 1 0 0 1-1.2 0l-7.5-5.6a.8.8 0 0 0-.7 0c-4.6 1.2-4.1 5.3-3.9 9.7.4 5.1 2 9.8 4.9 14.2.1.2.3.4.6.4.4.2.6.5.4 1 0 .4.2.8.5.8h.8c.4.1.5 0 .4-.4a65 65 0 0 0-2.9-9.5 57 57 0 0 1-1.4-11.7c0-.3 0-.4.3-.5.5 0 .9.2 1 .8 1 3.5.3 8.3 2.6 12 .2.3.5.5.8.5h9.8c1.5 0 2.7-1 2.8-2.4.4-4.5-.6-8.9 2-12.4.3-.4.5-.3.4.1Zm-15.2-2.6c-.3-.7-.9-1-1.7-.8-.4.2-.5.4 0 .7l3.2 2.4c.2 0 .3 0 .3-.2-.2-.6-.5-1.1-1.1-1.4l-.7-.7Zm38.3.2c-.3-.3-1-.2-1.4.2-.4.4-.5 1 0 1.4.3.4 1 .3 1.3-.1.5-.5.5-1.1.1-1.5Zm2.8 1.9a5 5 0 0 0 2.7.8c.2 0 .4-.4.2-.6l-1.3-1.5c-.4-.5-.8-.7-1.2-.7-.5 0-1 .4-1.4 1 0 .3 0 .5.2.6l.4.2c.1 0 .3 0 .4.2Zm-35.1 28.3c-2 4.7.1 8.3 2.6 12 .2.3.2.7-.1 1a7.1 7.1 0 0 0-3.1 6.4l.5 14.4c0 1.1.9 1.8 2.6 2.2 1 .2 1.9-.5 2-1.5.3-10 1-20.3 1.9-30.8.4-4.5 0-9-1.1-13.3-.1-.3-.4-.5-.8-.5-2 0-4-.5-5.7-1.4a.7.7 0 0 0-.7 0l-3.7 1.7c-.3.1-.4.5-.3.8 1.4 3.3 2.4 6.7 3 10.2.2.5.4.5.8.2l1.7-1.6c.2-.2.5 0 .4.2Zm-7.2-.8 1.2 2.2c.2.5 1 .4 1 0 .5-1.4.4-2.6-.3-3.8a.4.4 0 0 0-.6-.2c-1.6.8-2.7.4-3.4-1.2a.8.8 0 0 0-1.6.4l.9 10.4c0 .7 1 1 1.3.3l2-3v-1a6.4 6.4 0 0 1-1.3-3.8c0-.2 0-.3.3-.4h.3l.2.1Zm5 19.2c0-.2-.2-.4-.4-.2l-5.8 3.9-.1.3 1.8 13.7.3.3h3.7c.2 0 .3-.1.3-.3l.2-17.7Zm1.4 20.4c.3 0 .5-.5.5-1.2 0-.6-.2-1.1-.5-1-.3 0-.5.4-.5 1 0 .7.3 1.2.5 1.2Zm-388.1-85c-.1-.2-.3-.3-.6-.4l-2.7-.5c-.5-.2-.5-.3 0-.5 2-.9 5.6-.3 5.9 2.4 0 .3 0 .7-.3 1-.6.4-.7 1.1-.3 1.9.2.3.2.7.1 1l-2.2 5.2c-.3.7.1 1.4.9 1.6 3.3 1 7.3 1.5 9.5 4.2 1.5 1.8 2.1 4 3.7 5.8 2.8 3.3 4.8 7 6.2 11.2 0 .2.3.5.5.7 1.6 1.2 2.8 2.7 3.5 4.5l2 3.8 6 8.1c1 1.4.7 2.4-.7 3.2l-14 8c-.8.4-1.8.1-2.2-.6l-5-9c-.5-.7-.3-1.6.5-2l10.7-6.3a.8.8 0 0 0 0-1.4 3.6 3.6 0 0 1-2.2-3.3 1 1 0 0 0-.3-.7 570 570 0 0 0-4.2-4.3c-2.9-3-4.6-6.9-7.9-9.7-.3-.3-.8 0-.8.4.5 3-.2 5.8-1.9 8.3l-.2 1c1 11.7.8 23.4-.8 35-.6 4.2-.5 9.4-1.5 14-.1.4 0 .6.4.8 1 .4 1.7 1.1 2 2.2.2.3.5.5.8.4 1.6-.1 3.3-.2 4.8 0 .5 0 .9.4.8.8 0 .5-.4.9-.8.9l-29-.2c-.3 0-.4-.2-.4-.5.2-.9.7-1.3 1.6-1.3 2.4.1 4.2-.7 5.5-2.4.2-.3.2-.6.2-.9L67 86.5a64 64 0 0 1 2-15c.2-.3.1-.6 0-1l-2-6.9c-.3-1-1.5-1.3-2.2-.5-2.7 2.8-5.6 5.8-8.8 8.8a6.5 6.5 0 0 0-2 5c0 .4-.2.7-.4.9l-1 .8c-1 .9-1 1.7.3 2.3l9 5.1c.9.5 1.2 1.6.7 2.4L58 96.8c-.5 1-1.3 1.2-2.2.7L42 90.1a1.6 1.6 0 0 1-.5-2.4 140 140 0 0 0 6.3-8.8c1.2-1.7 1-3.7 2-5 2.3-3.8 3.9-7 4.6-9.6.3-1 1.4-2.6 3.2-4.4 4.1-4.2 6.6-10.7 13.7-9.8 1.6.3 2.9-1.3 2.3-2.9l-1.5-4c0-.2 0-.5.2-.8 1-1.1.8-2.3-.7-3.3a.6.6 0 0 1 0-1l.7-.5c.4-.3.7-.2 1 .2.4.7.9.8 1.4 0a1 1 0 0 1 1-.4l5.7.4c.2 0 .2 0 .2-.2Zm-2.8 2.2a5 5 0 0 0-3.9 1.1c-.3.2-.4.5-.5.8-.6 2.4 0 4.3 1.7 6 3.5 3 6.2-3.2 5.4-5.7-.4-1.2-1.3-2-2.7-2.2Zm-.1 9.6H76c-.4 0-.7.3-.7.6v.7c0 1 .7 1.6 1.7 1.6h.5c1 0 1.7-.7 1.7-1.5V50c0-.4-.3-.6-.6-.7Zm-13.2 8.8c0-.5.3-1 .8-1 .4 0 .9.2 1 .7 1 4 2.8 7.7 5.5 11 .3.3.9.6 1.4.5l9.1-.6a2.8 2.8 0 0 0 2.7-2.9c-.2-3.2.3-6.2 1.5-9.2.2-.6.6-.7 1-.3 1 .7 1.5 1.4 2 2.5.7 2.1 2.5 4.3 5.3 6.4.4.3.4 1 0 1.2l-.5.3c-.3.1-.3.4-.2.6l3.1 3.4c.4.4 1 .5 1.5.1.4-.3.6-1 .3-1.4-1.4-2.2-2.2-4.5-3.8-6.5-2-2.5-3.7-5.2-5.1-8.2-.6-1.2-2-2.2-4.4-3-.3 0-.7 0-1 .3l-8.3 6.8c-.7.5-1.8.4-2.4-.3l-4.2-5.7c-2.8-3.6-8.7 3.5-10 5.9-2.4 4.1-5.5 5-6.4 10.5a1 1 0 0 0 1.6 1c3-2.5 5.3-5.5 7-9 .3-.6 1-1 2-1.5.4-.1.6-.3.6-.7l-.1-1ZM81 53s-.6.2-1 .7c-.5.4-.8.9-.7 1l1-.6c.5-.5.8-1 .7-1ZM54 72.3c.4-.3.3-.9 0-1.3-.4-.4-1-.5-1.3-.2-.3.3-.2.8.1 1.2.4.5 1 .6 1.3.3Zm21.2 8.3 1 1.5c.2.3.4.3.6 0l1.5-2.5c0-.2.3-.3.5-.2.3.1.4.4.3.6-3.3 8.4-1.3 18.8-1.4 27.5-.1 3.6 0 7.2 0 10.7 0 .5.2.7.7.8l2 .5c.7.2 1.5-.4 1.5-1.2.3-2.7.1-5.2.6-7.9.8-5 .6-10.2 1-14.9.7-6.2.9-12.8.5-19.6 0-1-.3-2-.7-3a.8.8 0 0 0-1-.4c-2 .4-3.6 0-5.1-1.3-.3-.2-.5-.2-.7 0-1.3 1.4-2.9 1.7-4.8 1.2a.9.9 0 0 0-1 .3 9 9 0 0 0-1.3 4c-.5 7.6-1 13.2-.5 20.6l1.5 21.8c0 .3.2.5.5.5l3.6.1c.7 0 1.2-.5 1.3-1.1.3-11.3-.5-22.6-.2-33.9 0-.3 0-.6-.2-1l-1-2.7c-.1-.2 0-.4.2-.6.2 0 .4 0 .6.2Zm26.3-7.5c.2-.3 0-.8-.4-1.2-.4-.4-1-.5-1.2-.3-.3.3-.1.9.3 1.3s1 .5 1.3.2Zm-50.8 3.3c.4.2 1-.2 1.3-.9.4-.6.4-1.3 0-1.5-.3-.2-.9.2-1.2.8-.4.7-.4 1.4 0 1.6Zm52.6 1c.4-.2.6-1 .3-2-.3-.9-1-1.5-1.4-1.4-.4.2-.6 1-.3 2 .3.9 1 1.5 1.4 1.3Zm505-5.9c4.5 2.9 9.3 4.5 14.6 5 1 .2 1.8 1.2 1.7 2.3l-2.9 15.6c0 .4-.5.7-.9.6l-11-2.6c-.7-.1-1.1-.8-1-1.5l2.2-12c0-.5-.3-.8-.7-.7l-1.9.3c-.3.1-.5.3-.5.6.2 10.4-.2 18.9-1 25.4a224 224 0 0 0-1.5 14.7l.3 1c1.4 2.6 3.6 3.4 6.4 2.5h.9c.6.3.8.7.7 1.3 0 .3-.3.4-.6.4-8.1-.6-16.3-.6-24.4 0-.4 0-.6-.2-.5-.6v-.4c0-.2.2-.2.4-.3 2.7-.3 4-1.8 3.6-4.5a944.4 944.4 0 0 1-3-33.7c-.3-3.4.2-7.5 1.5-12.1v-1c-2.5-5.4-7.2-10.4-5.7-16.6.9-4 5.6-3.7 8.5-4.1a2 2 0 0 0 1.6-2.8l-2.1-5.6a.9.9 0 0 1 0-.7c.6-.9.5-1.7-.2-2.5-.8-.8-.5-2.1.5-2.6 4-1.7 7.4-1.7 10.4 0 1.4 1 1.5 2.3.4 3.4a1 1 0 0 0-.1.8l.5 1.5v.5l-1.9 5.2.1.9c1 1.5 2.2 2.2 3.5 2 2.7-.6 4.9-1.2 7.8-.8 4.6.7 9.5.2 13.8.6 2.6.2 5.2.3 7.7.2.4 0 .7 0 1-.3 1.1-.8 2.4-.8 3.7 0 .2.2.5.3.8.3h11.1c.8 0 1.1.3 1.1 1l-.1 15.4c0 .8-.7 1.5-1.5 1.4l-10.6-.3c-.4 0-.6-.2-.6-.6 0-4 .8-7-.4-11-.2-.3-.4-.5-.7-.5-1.3.1-2.5-.2-3.5-1a1 1 0 0 0-1-.2c-4.5 1.1-9 2-13.6 2.8-3.4.5-10.6-1.4-11.3 3.4-.5 3-1 6.1-1.8 9.2 0 .3 0 .5.3.7Zm-12.7-33.4c1.5-1 4.2-.7 6 0l.2-.3v-.2c-2.4-1-4.8-1-7 .2-.2.1-.2.4 0 .4.3.1.5 0 .8 0Zm6.2 2.1c-2-.8-4-.7-6 .2-1.1.6-1.6 2-1 3.2 1 2.4 1.7 5.6 5.2 5.6.3 0 .5-.2.7-.4a14 14 0 0 0 2.4-5.8c0-.3-.8-2.6-1.3-2.8Zm-5.3 9.7c.7 1.6 1.4 2.5 2.2 2.6 1.3 0 2.3-.5 2.9-1.7a1 1 0 0 0-1.2-1.3c-1.1.3-2.2.3-3.3-.2a.4.4 0 0 0-.6.6Zm8.6 13.5c0-.2.3-.3.6-.2.2 0 .3.3.2.6l-2 6c-.2.3 0 .7.4.7h.9c.4.1.7 0 .8-.5 1.5-4.8 1.5-10.3 6.3-14.6.2-.2.5-.2.7 0l.3.5c.1.2.3.3.6.4 4 .3 8 0 12-1.3a2 2 0 0 1 1.2 0c1.6.6 3.2.4 4.8-.4a.8.8 0 0 0-.2-1.6 26.6 26.6 0 0 0-13.7 0l-1-.1c-3-1.2-6-1.4-9.1-.6a2 2 0 0 0-1 .6c-2 2.4-4.2 4.5-6.6 6.4-2.4 2-8-3.5-9.3-5-.8-1-2-1.1-3-.5-4.1 2.5 2.5 16.4 5.6 18.2 3 1.7 8 1.9 11.4 2.5.4 0 .6-.1.7-.6l.1-1c0-.5-.1-.7-.5-.6l-1.8.3-.5-.1-6.4-4-.7-.7-3.7-8.7c-.1-.3.2-.7.5-.5 1.4.7 2.3 1.7 2.6 3a12 12 0 0 0 6.2 7.9c.3.2.8 0 1-.3l2.6-5.8Zm31.4-10.3c.2 0 .5-.3.5-.7s-.3-.6-.6-.6-.5.3-.5.6.3.7.6.7Zm-32.4 1.4c.5-.5 1.3-1.1 1.6-1.7l-.1-.5a.4.4 0 0 0-.6 0l-1.7 2.1c-.3.3-.2.4.2.4l.6-.3Zm-4.5-.5.1-.4c.2-.3 0-.6-.4-.6l-.6-.1c-.3-.1-.4 0-.3.4l.7 2.4h.4v-1c0-.2 0-.4.2-.7Zm37.8 1h1.7c.5-.1.7-.7.5-1.1a1 1 0 0 0-1.2-.6c-.5.2-1 .5-1.3 1-.2.4-.1.6.3.7Zm-26.9 21.2-2-3.6a.4.4 0 0 0-.5-.2h-.1c-1 .7-1.5 2-.9 3.2l.2.2c.6 1.2 2 1.6 3 1h.1c.2-.2.3-.4.2-.6Zm-13 7.6 2 .5c.4.1.6.4.6.8v34.5c0 .4.2.5.5.5h2.6c.4 0 .6-.3.6-.6 1.2-10.1 2-20.3 2.6-30.4.2-5.3.5-7.6-.6-11.7a2 2 0 0 0-1.5-1.4l-11-2c-1-.2-1.7.2-1.7 1.4-.4 5.9-.3 11.6.2 17.2.8 7.6 1.3 15.2 1.7 22.7 0 1 .4 2.5 1 4.5 0 .3.3.5.6.5h2.6c.5 0 .7-.1.7-.6-.2-10.5-.3-21-.2-31.4 0-1.5-.7-2.6-1.2-4 0-.2.2-.5.5-.4Zm-432-27.1v11c0 .8-.5 1.4-1.3 1.4l-12 .6c-.4 0-.6-.2-.6-.6L153 51c0-.5.2-.7.7-.7 4 0 10.2.2 18.5.7 2 0 5.1-.8 7.8-.7a81 81 0 0 0 13-.8c3.2-.5 6.1-.3 9.2-.1 1.8 0 2.1-.7 1.1-2.1-.7-1-1.1-2-1.4-3.1-.4-1.7.7-3-.5-5-.2-.2-.2-.5 0-.8 2-1.8 7.5-.8 9.3-.7.3 0 .5 0 .6-.4 0-.3.2-.6.3-.7.6-.5 1.5-.6 2.1 0 .7.5.8 1.4.3 2a3.8 3.8 0 0 0-.2 4c.2.2.2.6 0 .9l-1.8 4.4c-.3.5 0 1 .6 1.1 3.6.4 6.3 1.4 8.1 3 3.2 2.8-2.5 15.1-4.2 18.4a6 6 0 0 0-.2 4c1 3.8 1.6 6.6 1.3 8.6a1528.4 1528.4 0 0 0-3.4 36.3c0 .3.2.6.5.7 1.2.4 1.8 1.2 1.7 2.5 0 .4.2.6.6.6l1.8.2c.5 0 .7.4.6.9-.2.4-.7.8-1.2.8h-17.1c-1.4 0-2.5-.3-3.6-1-.3-.2-.3-.4 0-.6 3.7-2.7 2.5-5 2.2-8.6-.5-7.7-1.2-15.3-2-22.9 0-.3-.2-.5-.5-.4l-10 2.9a1 1 0 0 1-1.2-.7l-4.8-15.6c-.2-.7.2-1.4.9-1.6 4.9-1.3 9.6-2.9 14.2-4.8 1.6-.7 2.3-1.9 2.1-3.6-.2-1.9-.7-3.7-1-6.3-1.2-7.8-10.4-4-15-4.9a50 50 0 0 0-16.3-.7c-.3 0-.4.3-.4.6Zm43.3-8.4c6.2-3.5 2.3-11.4-4.6-8.4a1 1 0 0 0-.6.6c-.6 2-.4 3.7.4 5.4 1 1.9 2.4 3.8 4.8 2.4Zm-.8 2-1 .2c-.1 0-.2.1-.2.3 0 .1 0 .3.2.3 1 .2 2 .1 2.9-.3.2-.2.2-.6-.1-.6l-1.3.1-.5.1Zm7.7 5.1c-1.4 3-2.4 6-2.8 9.2 0 .3-.2.6-.5.7l-11.1 5.1c-.3.1-.4.3-.3.6l.5 2c.2 1 1.6.9 1.8-.1l.2-1.3c0-.3.4-.5.8-.5 4.9 1 11.7-1.2 13-6.6 1-3.5 1.5-7 1.6-10.6a2 2 0 0 0-2.6-2c-2.7.8-6.7 5.7-8.6 7.8-.3.3-.7.2-1 0-2.8-3.6-6.8-10.1-12-9.1a66.8 66.8 0 0 1-18 1.3c-.4 0-.7.3-.7.7v.7c0 .3.3.6.6.7 5 1.1 10 1.5 15 1.3.2 0 .3-.2.2-.3l-.4-1.1c-.2-.6 0-.8.6-.8 6.6.6 7.1 8.1 7.6 13.2a9 9 0 0 0 1.1 2.7c.2.4.5.5.8.3l.6-.3c.3 0 .4-.4.3-.7l-2.2-4.2c-.2-.2 0-.5.2-.6.5-.2 1 0 1.3.5l2.1 3c.3.3.7.4 1 .2l5.5-2.8c.3-.1.5-.4.5-.6 1-2.6 1.9-5.1 3-7.5.3-.8.7-1.3 1.2-1.5.5-.2.8.2.7.6Zm-2-4s-.7.3-1.3.9c-.7.6-1.2 1.1-1 1.3 0 0 .7-.3 1.3-.9.7-.5 1.2-1 1-1.2Zm-40.3 1.3c-.3 0-.4.4-.2.7.2.4.5.5 1 .3.3-.2.4-.5.3-.8a.6.6 0 0 0-.7-.3l-.4.1Zm-5.2 1.9c.2-.3 0-.7-.3-1-.4-.4-.8-.4-1-.2-.2.2-.1.7.2 1 .4.3.9.4 1 .2Zm28.6 20.5c.5.3 1.4-.2 2-1.2.7-1 .8-2 .3-2.3-.5-.3-1.4.2-2 1.2-.7 1-.8 2-.3 2.3Zm8.2 5.5 1.6 1.1c.3.2.5.2.6-.2.2-.6.6-1 1.2-1.2.4-.2.5-.1.4.3-1 4-1.4 8.1-1.2 12.3.3 6.6.3 13.3 0 20 0 1.5 0 3 .4 4.6.1.4.4.6.8.6h2.8c.3 0 .5-.1.6-.4 1.2-4.2.9-8.8 1.4-12.6.4-3.1.4-6.4.8-9.5 1-7 1.6-14.8-.4-21.8 0-.2-.2-.3-.5-.3-2 .4-4 .3-6-.3h-.2l-6.8 1.9c-.2 0-.4.2-.5.5-.7 2-1 3.8-1 5.4a968 968 0 0 0 2.8 36.6c0 .8 1 1.3 1.7 1 .8-.5 1.5-.6 2.3-.4.4 0 .7-.2.7-.6l-.1-10c-.4-7.7-.2-14.6-.5-22-.1-1.8-1-2.8-1.6-4.5-.1-.4.3-.7.7-.5ZM194.6 78l2.3 7.8c0 .2.2.3.3.2.2 0 .3-.1.3-.2l.1-8.3c0-.3-.1-.5-.5-.5l-2 .2c-.5 0-.7.3-.5.8Zm13 45.2c.4 0 .6-.6.6-1.3-.1-.7-.4-1.3-.7-1.2-.4 0-.6.6-.5 1.3 0 .7.4 1.2.7 1.2ZM84 63c.4.2.5.5.4.9l-1.5 3.3c-.2.3-.6.5-1 .3a.7.7 0 0 1-.3-.9l1.5-3.3c.1-.3.5-.5.9-.3Zm457.5 57.4-.9 2c-.2.6-1 .6-1.3 0-1-2.2-.4-3.8 2-4.7l.4-.5 6-17.1c.4-1 1.8-1 2.2 0l7 17.6c.2.4.5.7.9.8 1.7 1 2 2.4 1 4.5a.8.8 0 0 1-1.5-.3c-.2-2.4-1.6-3.5-4.3-3.3-3.6.3-7.2.5-10.8.5-.4 0-.6.2-.7.5Zm1.6-2.8c-.1.2 0 .5.3.5l8.5.1c.2 0 .4-.2.3-.4l-4-11a.3.3 0 0 0-.7 0l-4.4 10.8Zm-524.2.1a324 324 0 0 0 6.1-16.3 1 1 0 0 1 1.8-.5c2.3 5 4.4 10 6.3 15.1a6.5 6.5 0 0 0 2.5 3.2c.4.3.2.9-.3.9H29a.5.5 0 0 1-.4-.7l.6-1.7c.2-.4.1-.8-.1-1.2-1.3-1.8-6.7-2.8-7.6.3v1l.6 1.4c0 .4 0 .6-.4.7-2 .5-4 .3-5.7-.5-.7-.3-.4-1.3.3-1.3h2c.2 0 .5 0 .6-.4Zm4.1-5c0 .3.2.7.6.6h3c.5-.1.7-.5.6-.8l-1.8-4.4c-.2-.4-.8-.4-1 0l-1.4 4.5Zm126.6-10.2-1-.5c-.7-.3-.5-1.3.2-1.3h7.1c4 0 7.6-.4 7.5 4.6a.9.9 0 0 1-1.6.4l-1.8-2.6a1 1 0 0 0-.8-.5h-3.9c-.5 0-.8.4-.8.9l.4 3.3c0 .4.5.6.8.5 4.5-1 8.2 1.3 8.1 6 0 7.9-9.6 6.5-14.8 6.6-.7 0-1-1-.3-1.3l1.2-.7c.2-.1.4-.4.3-.6l-.1-14c0-.3-.2-.6-.5-.8Zm5.1 6.6-.2 8.3c0 .4.3.7.7.7h1c2 .1 3.7-1.7 3.8-4.1v-1c0-2.4-1.4-4.4-3.4-4.5h-1.1c-.4 0-.8.3-.8.7Zm126-6.5-.7-.4c-.7-.3-.5-1.2.2-1.3 4-.5 8-.3 11.8.8.3 0 .6.2.8.5 1.6 2.3 1.4 4.5-.6 6.5-.2.2-.2.5 0 .7 1.6 1.6 2.3 2.9 2.3 3.9-.3 8.2-8.4 7-14.8 6.6-.4 0-.5-.6-.1-.7l1.2-.5c.3-.2.4-.3.4-.6v-14.8c0-.3-.2-.5-.4-.7Zm4.9 4.4c0 .8.7 1.3 1.5 1.2l2-.3c.6-.1 1-.7 1-1.3l.2-2.7c0-.7-.6-1.3-1.3-1.3h-2.2c-.8 0-1.3.6-1.3 1.3l.1 3Zm4.4 4c0-.9-.7-1.6-1.5-1.6H287c-.9 0-1.5.7-1.5 1.5l-.1 6c0 .8.7 1.4 1.5 1.4h1.3c.8 0 1.5-.6 1.5-1.4v-6Zm121.6-8.2-1.7.1c-.3 0-.5 0-.5-.3-.4-1.3-.1-2 1-1.9l13.8.6c.3 0 .6.2.6.6v5.4c0 .4-.5.6-.8.3l-1-1a.7.7 0 0 1-.2-.5c-.3-2.7-1.9-3.8-4.8-3.4-1.1.1-1.7.7-1.7 1.7 0 4.2-.3 8.4-.2 12.7 0 .3 0 .5.3.7l1 1.2c.4.4.2 1-.4 1h-6.1c-.5 0-.7-.6-.4-.9l1-.8.4-.9c.4-4.6-.6-9.4.3-13.9 0-.4-.2-.7-.6-.7Zm265.6 5.8a6 6 0 0 0 4.5-1.7c.4-.4 1-.1 1 .4v4.4c0 .5-.4.7-.8.4l-1.3-1.4c-.2-.2-.5-.3-.9-.3h-2.3c-.4 0-.6.2-.6.6v6.1c0 .8.5 1.2 1.3 1.2l4.6-.2c.3 0 .6-.2.8-.5l1.1-3c.2-.5 1-.4 1 .2l.1 3.7c0 .7-.4 1.2-1.1 1.3l-12.6.2c-.5 0-.8-.5-.5-.9l.8-1c.2-.3.3-.6.3-1v-13.4c0-.3-.2-.5-.3-.8l-1.2-1.3c-.3-.4 0-1 .5-1H685c.4 0 .6.2.6.6v3.9c0 .4-.6.6-.8.2l-1.3-2.4a.9.9 0 0 0-.7-.4h-5.1c-.6 0-.8.2-.9.7l-.2 5c0 .3.2.4.5.4ZM330.5 144c.4 2 .1 4-.7 5.8a1 1 0 0 0 0 .8c.2.8.3 2 .2 3.4-.5 5.8.8 11.2 4 16.4.3.7 1.2.5 1.4-.1.3-.9.2-1.8-.4-3a9.5 9.5 0 0 1-1-5.7c0-.3 0-.6-.2-.8l-.6-1c-.2-.2-.2-.5 0-.8 2.6-3.2 8.1-2.4 11.7-1.2 1 .4 1.5 1.6 1 2.6l-.9 1.4-.2 1c.2 2.1-.3 4.1-1.5 6-.6.8-.3 1.8.6 2.3 5.6 2.6 7.6 1.2 8 8.6.2 3.8.2 7.6 0 11.5-.2 2.7-1.4 4.3-2.7 6.5-.2.2-.3.5-.3.9.3 5 0 10.9-.7 17.8-.1 1 .3 1.8 1.4 2.5.3.1.4.5.1.8l-2.3 2.4c-.2.1-.2.3-.3.5l-1.9 14.9c-.3 2.8.2 5 1.4 6.7.2.3.6.4 1 .4a4 4 0 0 1 3 1c.4.2.2.7-.2.8-.7.1-1.4 0-2.1-.4-.3-.2-.6-.3-1-.3l-24.2.1a.6.6 0 0 1-.6-.5c0-.4.2-.6.5-.7 2.7-.2 8.5 1.5 8.6-3 .1-6-.2-12.8-.8-20.5l-1.2-8c-1-6.6-.3-13.1 2-19.6a1 1 0 0 0 0-1l-3-4.1A36.1 36.1 0 0 1 325 152c.4-1.2.6-2.2.6-3 0-3-.1-3.8 1.4-5.8l.2-.8.2-10.9c0-.6.5-1.1 1.1-1.1l16.5.3c.7 0 1.2.6 1.2 1.2v8.7c0 1.3-1.1 2.4-2.4 2.4l-12.6.2c-.5 0-.7.3-.6.7Zm-2 4.9.9-2.7a.6.6 0 0 0-.6-.9l-1.5.1c-.4 0-.6.3-.6.7a3 3 0 0 0 1.3 3c.2 0 .4 0 .5-.2Zm19.3 30.8a15 15 0 0 0-.1 10c.1.4 0 .6-.2.9-2.8 2.8-5 6.1-6.4 9.8-.5 1.3 1 2.4 2 1.5 1-.7 1-1.5.4-2.3-.5-.6-.4-.7.3-.5l.5.2c.3.1.6 0 .8-.1a16 16 0 0 0 5.3-6.3c.7-1.5 1-3.4.8-5.7-.1-3 .2-10.6-1.9-12.6-.2-.3-.5-.3-.8-.3-3.9 1.1-6.4 4.9-8.8 7.7a1 1 0 0 1-1.5 0c-2-2.6-5.3-5.4-6-8.6-.7-2.8-.7-5.7-3-7.8a1 1 0 0 1-.4-.8l-.3-12.5c0-.7-.5-1.2-1.3-1.3-.5 0-.8.5-.5.8.6.9.6 1.6-.2 2.2l-.5.8a31.2 31.2 0 0 0 1 16.4c1.3 3.8 2 6.1 2.1 7 .6 3.3 0 8.7 2.3 11.3.2.3.6 0 .6-.3l-.5-2.8c0-.3.1-.5.3-.6.3 0 .5 0 .6.3l2 5c.3 1 1.4 1.7 2.5 1.7l5.9-.2a3 3 0 0 0 2.7-3.5c-.7-3.5-.1-6.7 1.8-9.6 0-.1.2-.2.3-.1.2 0 .2.2.2.3Zm-5.7-20 1.3.3c.5 0 .6-.6.2-.9-2.5-1.7-4.7-2.1-6.5-1.1-3.3 1.6-3.2 1.9.3.8.8-.2 2.4 0 4.7 1Zm.7 2.5c-1.8-1.2-7.2-2.5-7.4 1-.2 2.7.5 5 1.9 7 .2.3.7.4 1 .4 3.5-.7 5.1-2.9 5-6.5 0-.3-.2-1.8-.5-2Zm-3.5 12.3c1.5-.5 2.1-1.6 2-3.2 0-.2-.2-.4-.4-.4l-2.8.3c-.4 0-.6.3-.7.7a6 6 0 0 0 1.4 4.5c.4.5 1.3.2 1.2-.5 0-.5-.2-.7-.6-.8-.4 0-.4-.5-.1-.6Zm5.2.5a3 3 0 0 0 1.7-1.4c0-.2 0-.5-.2-.7a.5.5 0 0 0-.7.1l-1.8 1.9c-.3.3-.2.5.2.5.3 0 .6-.2.8-.4Zm-9.3.5c.2-.2 0-.6-.5-1-.4-.3-1-.4-1-.3-.2.2 0 .7.5 1 .4.3.9.5 1 .3Zm1.5 29.6c2.9-1.8 3.4-5.3 4.8-8.1.1-.3 0-.7-.2-1l-1.6-1.7a.6.6 0 0 0-1 0l-1.2 1.2c-.2.2-.6.3-1 .3l-3-.4c-.4 0-.8.2-.9.6a32.8 32.8 0 0 0-.8 19c0 .4.7.5 1 0 1-1.4 2-3 3.3-4.4 1.4-1.8 1.8-2.8.4-4.7-.2-.3-.2-.6.2-.8Zm10.6-4c0-.8-1-1.2-1.6-.5l-1.8 2.2-.2.3-2.3 7c-.1.4 0 .7.2 1l3.8 4.2c.5.6 1.6.3 1.6-.5l.3-13.6Zm-7.8 3.3 1.1 2.3c.2.4.4.4.6 0 1-1.5.9-2.7-.3-3.5-.8-.5-1.8.3-1.4 1.2Zm-6.1 37.3c0 .2.2.3.4.2l4.2-1.2.2-.3-.4-14v-.3l-5-5.6c-.1-.3-.5-.1-.5.2l1.1 21Zm9.1-13.8-.2.1h-2.5c-.2 0-.3.2-.3.3l-.2 12.1c0 .2 0 .3.3.3h3.5l.2-.3L345 226c0-.3-.3-.5-.5-.3l-2 2.2Zm-4 16.8c.4 0 .8-.4.8-1 .1-.7-.1-1.3-.5-1.3s-.7.4-.8 1c0 .7.2 1.3.6 1.3Zm272-59.8c.4 2.8-.3 5.2-1.9 7.4a1 1 0 0 0-.1.9 38 38 0 0 1 1.5 17l-4 27.3c-.6 5 1.4 7.4 6.3 7.3.3 0 .5.2.5.4v.3c0 .2 0 .3-.2.3a148 148 0 0 0-23.3.2c-1.7.2-3.1 0-4.3-.5-.5-.2-.4-.8 0-.9 1.5-.3 3-.3 4.5 0h.2c2.5-.7 3.8-1.9 3.7-3.5A813 813 0 0 0 590 204c-.2-2.5.5-6.2 2.2-10.9.2-.3.1-.7 0-1a25.2 25.2 0 0 1-2.4-8.2c-.4-3-1.6-7.7-3.2-9.3-2.6-2.7-5.6-5.2-7.5-8.2-2.5-3.8-3.4-8.2-5.8-11.9-.2-.3-.5-.5-.9-.6a3.7 3.7 0 0 1-2.7-3.3c-.1-.4-.6-.6-.9-.3l-9.6 8.4a1 1 0 0 1-1.5-.2l-6.2-8.4c-.5-.8-.4-1.8.3-2.4l11.6-9.5c1.1-1 2.8-.7 3.7.5 2.4 3.6 5 7 7.9 10 2.3 2.5 5.2 6.3 8.6 11.2 2.8 4 7.1 6.6 10.6 10 .2.2.5.4.9.4.9 0 1.3-.3 1.3-1a2 2 0 0 0-.4-1 14.6 14.6 0 0 1-2.7-8.6c0-.3.2-.6.4-.8a8.1 8.1 0 0 1 9-2.1c4.1 1.4 2 9.2.6 11.8-.6 1 0 2.2 1 2.5 3.9 1 6.6.3 9.4 4.3 2.3 3.2 4.7 6.2 7.3 9 3.3 3.6 5 7.7 8 11.6 1 1.5 1.2 3.3 2.2 4.8l4.5 7c.4.7.3 1.6-.3 2l-11.4 9c-.6.4-1.4.3-1.8-.3l-6.4-7.6c-.6-.6-.5-1.6.2-2.1l9.3-7.2c.8-.6.9-1.8.2-2.5a43 43 0 0 1-3.6-3.9c-1.3-1.6-3-2.8-4.4-4.5-2.3-2.8-4-4-6.4-6-.3-.3-.7 0-.6.2Zm-37.8-32.2c.5-.2.6-1 .3-2-.4-.8-1-1.4-1.6-1.2-.5.2-.6 1-.2 2 .3.8 1 1.4 1.5 1.2Zm33.3 34.6a14 14 0 0 1-1 3.5c-.2.4 0 .6.3.8 1.5.7 2.8-.3 3.2-1.8 1.1-4.2-.6-7.5 2.6-11 .3-.4.6-.6 1-.5.4 0 .5.1.4.5L611 182c-.1.4 0 .8.4 1.1l5.6 4 .7 1c.8 2 2.2 3.6 4.2 4.8l.3.2 1.6 2.6c.3.4.9.3 1-.1l.5-1.2c.2-.4 0-.7-.4-.7h-.4c-.3.1-.5 0-.5-.3 0-2.2-.7-4-2.2-5.8a111 111 0 0 1-8.4-10.8c-2.2-3-4.4-5-8-2.6-.3.2-.4.1-.2-.3l.5-.6c.4-.2.3-.4-.1-.4h-.8l-.2.1a43.6 43.6 0 0 0-3.6 5.7 2.2 2.2 0 0 1-3.4.6c-2-1.8-3.8-5.6-5.1-8a16 16 0 0 0-8.5-7.4c-.4-.1-.6-.4-.7-.7A21.9 21.9 0 0 0 576 153a.7.7 0 0 0-1.2.7c.1.9.6 1.5 1.5 1.7.3 0 .5.4.4.7-.4 1.2-.5 2-.3 2.5a27.6 27.6 0 0 0 12.6 14.6l.5.7c1.1 3.4 1.9 7.5 2.2 12.2a10 10 0 0 0 2.2 5c.1.3.3.4.6.4l9-.4c.4 0 .7-.2.8-.6l1.4-3.4h.2Zm-10.6-27.7a9.4 9.4 0 0 1 7.1-.6c.5.1.6 0 .4-.5-1.5-2.7-6.3-1.1-7.9.5v.5c0 .1.2.1.4 0Zm6 1-4.3.3a2 2 0 0 0-1.8 2v.9c.3 3.7 2.2 6.7 4.4 6.5h.3c2.1-.1 3.7-3.2 3.5-7v-.9a2 2 0 0 0-2-1.8Zm-3.2 13.5.5 2.4c0 .3.5.4.7 0l2.6-4.7c.3-.5-.2-1-.7-.9-1.1.5-2.3.6-3.4.2-.3 0-.6.1-.6.4 0 .7.2 1.2.5 1.7l.4 1Zm3 30.3-.4 36.4c0 .3.2.5.5.6l1.2.3c.7.1 1.4-.3 1.5-1 2-10.9 3.5-21.8 4.4-32.6.5-4.8 0-9.4-1.1-13.7-.1-.3-.3-.4-.7-.4-2 .3-4 0-5.9-.6a2 2 0 0 0-1-.1l-5.5 1c-.2 0-.4.1-.5.4-1.6 4-2.2 7.5-1.9 10.3a526 526 0 0 1 2.8 33.5c0 1.3.3 2.2.9 2.7.8.8 2 .8 3.4 0 .3 0 .4-.3.4-.6v-32.3c0-1.3-.6-2.6-.8-4 0-.2.2-.5.5-.5l1.8.2c.3 0 .4.2.4.4Zm27.9-5.2c.3-.4-.2-1.4-1.1-2.2-1-.9-2-1.3-2.3-.9-.3.4.2 1.3 1 2.2 1 .8 2 1.2 2.4.9ZM81 169.5c1 .7 2.1 1.2 3.4 1.5 2.1.6 4.1-.5 6.6.1 1.2.3 2.2.5 3 .4 4.3-.3 8.4-.9 12.8-.8 8 .2 15.8 0 23.6-.4.6 0 1.2.5 1.2 1l.6 17c0 .4-.3.8-.8.9l-12.7.1a1 1 0 0 1-1-.7c-.8-2.2 0-4 .3-5.8.2-2.6.1-5-.2-7.5 0-.5-.6-.7-1-.3-1.5 1.7-3.3.2-5-.1-.7-.2-1.5 0-2.4.2a69 69 0 0 1-15.5 3.5 7.6 7.6 0 0 0-7 6.6 26 26 0 0 1-2 7c-.2.2-.2.6-.2.9a48 48 0 0 1 2.2 15c-.8 10.2-2 20.4-4 30.5-.6 3.1.7 5 3.7 5.5l3.9.3c1 0 1.4.4 1.5 1.1 0 .5-.4 1-.8 1-9.5-.3-18.9-.4-28.4-.2-.4 0-.7 0-.9-.2a1 1 0 0 1-.2-.4c-.1-.4.2-.9.6-1l4.9-.5a2.9 2.9 0 0 0 2.5-3L67.4 210a41 41 0 0 1 2.2-16.4c.1-.3 0-.6-.2-1a12.7 12.7 0 0 1-2.8-9.3c0-.3 0-.6-.2-.8-3.9-5.8-8.4-10.8-11.8-16.8-2.8-4.8-5.8-9.5-9-14-.3-.6-1.1-.7-1.6-.3l-8.5 8c-.7.5-1.7.5-2.3-.2l-7-7.8c-.3-.4-.3-.7 0-1l12.4-12.2c.5-.6 1.4-.5 1.8 0 2.8 3.2 5 6.4 8.3 9.3 2.3 2 3 4.6 5 6.6a182 182 0 0 1 7 8c2.4 3 8.5 8.5 12 7.5.3 0 .4-.2.3-.4l-2.3-9.7c0-.3 0-.6.3-.9 2.7-2.4 9.7-4 12 .1.2.3.2.7 0 1a4.7 4.7 0 0 0-.4 3.5v.6l-1.8 5.2c-.1.2 0 .4.2.5Zm-31-18.3-2.4-2.3a.5.5 0 0 0-.7 0l-.2.2a2 2 0 0 0 0 2.9l.2.2a2 2 0 0 0 3-.2v-.1c.3-.2.3-.5 0-.7Zm29.9 40.4c.4 1 1.2 1.2 2.2.8 2.2-.9 2.8-3.5 3-6a23 23 0 0 1 2.5-8.8c.1-.3.5-.5.9-.4.4.2.6.6.4 1l-.1.3c-.2.3-.2.4.2.3l11-3.1c.3-.1.7 0 1 .1l.3.3c.3.1.6.2.8 0 1.8-.5 5.4-.8 5.8-2.9 0-.3 0-.5-.5-.6-3-.5-5-.6-6-.5-4.3.4-7.2.5-8.7.3-2.3-.4-4.6-.3-6.9.2-.3 0-.5.2-.8.4l-8 7.6c-.7.7-1.8.6-2.5-.2-3.3-4.5-5.7-10.3-10.7-13.2-5.1-3-6.2-8.3-11.4-11.6a.8.8 0 0 1-.4-.7 4 4 0 0 0-.8-1.4.8.8 0 0 0-1-.1c-.4.2-.5.6-.3 1a129.4 129.4 0 0 0 14.6 21.9c.2 0 .2-.3.2-.4l-1-2.6a.6.6 0 0 1 1-.5c1.9 4 2.8 7.7 3 11.2 0 3 1.9 8.9 5.8 8.7 1.4 0 4.2-.4 5.8-1.3.3-.1.5 0 .6.2Zm-6.5-31.7a8 8 0 0 1 7.4-.3c.3.1.5 0 .5-.3 0-.6-.4-.9-1-1-2.3-.5-4.5-.4-6.7.3-.5.2-.8.5-.8 1 0 .3.3.5.6.3Zm6.2.7-4.2-.2c-1 0-2 .8-2 1.9v1c-.1 3.5 1.5 6.4 3.7 6.4h.2c2.1.1 4-2.6 4-6.1l.1-1c0-1.1-.8-2-1.8-2Zm35 13c0 .2 0 .4.2.6.2.2.5.2.8 0 .2-.2.2-.5 0-.8l-1-1.5c-.2-.3-.6-.5-1-.6-1.2 0-1.5.5-1.2 1.4.1.3.3.5.6.5l1-.1c.4 0 .6.1.6.5ZM79.3 172c0-.3-.3-.6-.7-.6h-3.4c-.4 0-.7.3-.7.7v.8c0 .4.3.7.7.7h3.4c.4 0 .7-.4.7-.7v-.9Zm30.7 1.4c.3 0 .5-.5.5-1s-.3-1-.6-.9c-.3 0-.6.4-.6 1 0 .5.3 1 .7.9Zm-28 0-.2.5c0 .5.1.5.5.3l1.3-1.1c.3-.3.1-.9-.3-.9-.7 0-1 .3-1.1 1l-.1.2Zm-3.7 2.4c0-.3-.5-.6-1.2-.8-.7-.1-1.3 0-1.3.3s.4.7 1.1.8c.7.2 1.3 0 1.4-.3Zm-1 1.4c-.1-.3-.5-.3-1-.1-.3.2-.4.6-.3.9.2.3.6.3 1 .1.4-.2.5-.6.4-.9Zm1.7 27c-.8 1.7-1.6 3.1-1.6 5V241c0 .4.2.6.6.6l2.4.2c.4 0 .6-.1.7-.5 2-13.7 3.3-24.3 3.9-31.7.3-4.6-.4-9.6-2.1-15 0-.3-.4-.5-.6-.4l-2.9.4h-.3l-2.3-1.3a.7.7 0 0 0-.9.2c-.8 1.3-2 1.8-3.6 1.4-1-.2-2 .4-2.1 1.3-1 4.4-1.4 8.5-1.2 12.4.6 10.6 1.5 21.3 2.8 32.3 0 .5.4 1 1 1 .9.2 1.6.2 2.1-.2.4-.3.6-.9.6-1.8.3-14.6.4-25.3.3-32 0-1-.4-2.3-1-4-.2-.3.2-.7.5-.4l1.7 1.1h.6l1-.6c.2-.2.6.1.4.4Zm85.6-29.3.2 12.5c0 1.4-.6 2-1.9 2l-9.2.3c-1 0-2-.8-2-1.8a100 100 0 0 1-.6-15.5c.1-2 1.1-3 3.2-2.7 9.6 1.2 19.3.8 29 2 7 .9 12.5.6 19-.3a2 2 0 0 0 1.4-3l-2.3-4.2a1 1 0 0 1 0-1c.9-1.2.7-2.4-.4-3.3a.6.6 0 0 1 0-1c3-2.9 9.5-4.6 12.7-1 .3.3.3.7.2 1l-.6 1.5c-.1.3-.2.6-.1.9.6 3-.8 3.7-1.3 6.3-.1.7-.1 1.2 0 1.6a2 2 0 0 0 2.8 1.1c2.7-1.5 6.1-2.3 8.2-4.7 2.9-3.4 6-6.5 9.5-9.4 1.6-1.3 2.2-2.6 3-4.4 0-.3.3-.5.6-.7a31 31 0 0 0 10-10.4 1 1 0 0 1 1.7 0l11.4 14.1a1 1 0 0 1-.2 1.5 54.6 54.6 0 0 0-8.8 8.2c-.4.5-1 .4-1.3 0l-7.8-9.8c-.2-.2-.4-.2-.6 0a14.6 14.6 0 0 0-4.9 4.5 35.8 35.8 0 0 1-5.9 9l-8.7 9.2c-1 1-1.6 2.1-1.9 3.4l-2.4 9.5c-1 4 0 8 .5 12 .4 2.5.5 4.7.5 6.9-.3 10-1.4 20-3.2 29.8-.8 4.2 3.5 5.4 6.7 5.4.4 0 .7.2 1 .4l.1.3c.4.5 0 1.2-.5 1.2-9.4-.3-18.7-.2-28 0-1 0-1.5-.2-1.8-.9a.8.8 0 0 1 .9-1.1c3 .3 5.9-.3 8.4-2 .2 0 .4-.4.3-.6-2-16.5-5-33-2-49.5 0-.3 0-.6-.2-1-2.2-3.3-1.7-6.4-3.2-9.7-1.3-3-5.3-2.1-8-2.3-5-.3-10.3-3-14.2-3.3-2.3-.3-7.5 4-8.2-1.1 0-.3-.3-.5-.6-.5s-.5.3-.5.6Zm74.9-21.7c0-.5-.4-.8-.8-.8s-.8.3-.8.8.3.8.8.8.8-.4.8-.8Zm-3.2 2c.4.2.5 0 .4-.4l-.3-.8c-.1-.3-.6-.3-.6.1 0 .5.1.8.5 1Zm-22.8 31.4-2.4 5c-.1.3 0 .6.4.7 3.7.1 3.5-1.5 4-4.7.8-4.4.7-8.3 3.3-12.5.1-.3.5-.4.8-.3h.4c.3.1.6 0 .9-.1 5.7-4.1 10-9.3 13-15.6.2-.2.4-.5.7-.6a3 3 0 0 0 1.3-1.7c.2-.5-.3-1-.8-.8-.9.2-1.3.8-1.2 1.7 0 .3 0 .5-.4.5-4 .8-9.5 8.2-11.6 11.6-.2.3-.4.4-.8.3-2-.7-3.4-.3-4.3 1.1-2.3 3.4-4.6 6.5-6.9 9.5-.6.9-1.8 1.1-2.8.5a39 39 0 0 1-8.5-7.3c-.2-.3-.5-.4-.9-.4-4.4-.1-8.5.6-13-.2a46 46 0 0 0-11.5-.7 1 1 0 0 0-1 1c0 .5.4 1 1 1 .7.1 1.4 0 2.1-.4.3-.1.6 0 .8.2l.4.3c.2.3.4.4.7.5l9 2c2.8.6 5 .2 6.6-1.3.2-.3.5-.3.8 0 1.2.8 2.2 1.8 3 3 2 3.4.8 8 3.2 11.1 2 2.5 4.8 2.3 8.2 2.2 3.5 0 3.6-3.4 5-5.8 0 0 .2-.1.4 0v.3ZM203 160a13 13 0 0 1 8.5-.4c.4.1.5 0 .3-.4-.3-.7-1-1.1-1.9-1.2-1.2 0-6.8-.5-7.1 1.7 0 .2.1.3.2.3Zm4.1 10.8c.9 0 1.6-.3 2.2-1.2 1.8-2.5 5-7.3-.5-8.4-3.7-.7-7 .6-5.3 5 .6 1.5 1.7 4.3 3.6 4.5Zm-.5 2.6.3 3c0 .4.3.5.7.5l.9-.2c.4 0 .5-.3.5-.7-.1-1.6.4-3 1.7-4.1.3-.3.3-.8 0-1a.7.7 0 0 0-1-.2c-1 .6-2.1.8-3.3.3a.7.7 0 0 0-1 .6c0 .7.2 1 .7 1.3.3 0 .4.2.5.5ZM202 175c.3-.2.1-.9-.3-1.5-.5-.6-1-.9-1.3-.7-.3.2-.1.8.3 1.4.5.6 1 1 1.3.8Zm-32.7.7c.2-.4 0-.9-.4-1.2-.4-.3-1-.2-1.2.2-.2.4-.1.9.4 1.2.4.3 1 .2 1.2-.2Zm39.3 2.2a.6.6 0 1 0-1.1 0 .6.6 0 0 0 1.1 0Zm-2.3 27.5 2.4-.8c.6-.2 1.1.4.8 1a9 9 0 0 0-1.3 4.6V240c0 .3.4.6.7.6l2.6.1c.3 0 .6-.2.7-.5.6-5 1.4-10 2.3-14.8.3-1.7.5-3.6.5-5.6.2-4.8 1-9.6.5-14-.4-3.5-1-7-1.6-10.5-.1-.4-.4-.6-.8-.5-2.2.6-4 0-5.3-1.6a.7.7 0 0 0-1 0 4.4 4.4 0 0 1-4.6 1.7c-.8-.1-1.5.4-1.6 1.1-1 4.2-1.2 8.4-1 12.5.8 10.6 2 21.1 3.6 31.6.2 1.3 1 2 2.3 1.3.7-.4 1-1 1-1.8.3-10 .4-20.2.2-30.6 0-1.2-.6-1.9-.8-3 0-.3.2-.6.4-.7Zm1.7 37.2c-.1-.2-.2-.2-.4 0l-.3.2c-.2.2-.2.5 0 .7.2.3.5.3.7 0 .2-.2.2-.5 0-1Zm266-83.4-1.4-.6a.3.3 0 0 1 0-.5c1.6-.4 4 1.2 3.4 3.1-.9 3-1.6 5.9-2.1 8.6a1.4 1.4 0 0 0 2.2 1.4 48 48 0 0 1 5.8-4c2.4-1.5 4-4.1 5.4-5.6l7.3-6.7c.3-.2.4-.5.5-.8a5.5 5.5 0 0 1 4.4-4.9c.3 0 .6-.2.7-.4l5.7-7.8c.6-1 2-1.1 2.8-.4l12.6 11c.3.2.4.7 0 1l-7.6 8.5c-.5.6-1.4.7-2 .1l-9.2-8a.7.7 0 0 0-1 0c-2.8 3-5.3 5.7-7.7 9.4-3.7 5.6-7.8 10.8-12.5 15.6-2.2 2.3-3.1 9.8-4.1 13.2-.1.3 0 .6.3.8 5 2.3 10.2 4 15.7 5 .3 0 .6.3.6.7-.2 5.8-1 11.6-2.3 17.4-.1.4-.4.6-.9.5l-10.3-3.2c-.3 0-.5-.3-.5-.7.3-3.9.5-7.7 1-11.4.1-1.8-.4-2.2-1.8-1.3-.2.1-.3.4-.3.7.2 4.4.3 8-.2 12.8a291.2 291.2 0 0 1-2.3 26.7c-.3 1.7 0 3 .7 4 1.3 1.6 3.2 2 5.6 1.3.4 0 .6 0 .9.2l.5.5c.2.2 0 .7-.3.6a155 155 0 0 0-24.4.2c-.9 0-1.6-.2-2-.8-.3-.5 0-1 .6-1a5 5 0 0 0 5.4-2.1c.2-.3.3-.7.2-1-1.2-4.6-1-10-1.4-13.6l-2.3-20.6c-.4-3.9.2-8 1.7-12.1.1-.4 0-.7-.2-1l-1-1.3c-.3-.3-.5-.7-.6-1.1l-3.9-12.8c-.6-2 .5-4 2.5-4.8l7.6-2.6c.3-.1.5 0 .7.2 1.3 1.5 2.3 3.3 2.9 5.3.2.7 1.3.6 1.4-.1l.4-2.6c0-.3.1-.6.4-.8.3-.2.4-.5.5-.8 0-.3-.1-.5-.5-.6l-5-.8c-.4 0-.7-.4-.7-.8a10 10 0 0 0-1.4-5 1 1 0 0 1 0-.9l.6-1.2v-.7l-1-1.2c-.2-.4 0-.9.4-1 3-.7 6.2-.7 9.3-.3.2 0 .5 0 .5-.3 0-.2 0-.5-.2-.6Zm24.2-7.6-.3-.3h-.2c-1.3.9-1.8 2-1.4 3.4 0 .4.3.6.7.6 1.4 0 2.5-.7 3.2-1.9.2-.3.1-.7-.2-.9l-1.3-.6-.5-.3Zm-17.9 22.2c.3-.8 1.5-.6 1.5.2v1c0 .5.2.6.6.2a62.6 62.6 0 0 0 11.7-16.3c.1-.3 0-.6-.2-.7-.3-.3-.7-.2-1.1.1a49.1 49.1 0 0 0-8.9 9.4c-.1.3-.4.5-.7.6-2.6.8-4 1.8-5.7 4.2a45.3 45.3 0 0 1-8 9.5c-.3.2-.6.3-1 0l-4.3-3.2c-.3-.1-.6.1-.5.4a29 29 0 0 0 4.2 6.8c1.9 2.2 4 2.8 6.4 4.2 1.2.8 2 .5 2-1 .7-5.3 2-10.4 4-15.4Zm-7.9-12.2-4.2-.2c-1-.1-2 .7-2 1.7v1c-.3 3.5 1.2 6.4 3.2 6.5h.5c2.1.2 4-2.5 4.2-5.9v-1c.1-1-.7-2-1.7-2Zm-5.5 17c.3-.2-.5-1.4-1.6-2.6-1.2-1.2-2.4-2-2.6-1.7-.3.2.4 1.4 1.6 2.6 1.1 1.3 2.3 2 2.6 1.8Zm-.1 9.8c-2.3-4.5-4.7-8.3-5.9-13.3 0-.4-.3-.5-.6-.4-2.2.3-3.2 1.5-3 3.5 1.3 8.3 5.8 13.5 13.6 15.4 1.8.5 3-1.9 1.4-3a9.4 9.4 0 0 0-5-1.8.7.7 0 0 1-.5-.4ZM461 190c-.3-.2-.7 0-.5.4a3.6 3.6 0 0 0 3 2.3c.6 0 .6 0 .3-.4L461 190Zm15 3.6c.3-.4 0-.9-.3-1l-.6-.3a.8.8 0 0 0-1 .5l-.7 1.5c-.1.4 0 1 .5 1l.5.3c.4.2.9 0 1-.4l.7-1.6Zm3 4.5c.8-.3 1-1.5.6-2.6-.5-1.2-1.4-1.9-2.1-1.6-.7.2-1 1.4-.5 2.5.5 1.2 1.4 2 2 1.7Zm-10.4 6.5 1.2.1c.4 0 .6.4.5.8a8.4 8.4 0 0 0-.8 3.7c.3 10.2.4 20.3.4 30.4 0 1.8 1 2.4 3.2 1.8.3 0 .5-.3.6-.5a18 18 0 0 0 1-4c1.7-12.3 2.4-25 2.2-38 0-.8-.5-1.5-1.3-1.7l-6-1.8h-1l-5.4.5c-.3 0-.5.2-.7.6-2 5.8-1 13-.2 19 1 8.6 1.3 15.6 2 23.4 0 1.1.3 1.9.6 2.2.6.7 1.5.8 2.8.3.4-.2.5-.5.5-.9V205c0-.3 0-.4.4-.4Zm1 39.8c.3 0 .6-.5.6-1.3s-.3-1.2-.6-1.2-.5.5-.5 1.2.2 1.3.5 1.3ZM732.8 159l-.7-1c-.1-.2.1-.5.4-.4l1.8.8c.4.2.6.5.6.9.5 3.5 0 6.8-1.5 10-.6 1.3.6 2.6 2 2.2 7.6-2.7 12.7-10.6 18.1-16.2.3-.2.6-.4.9-.4 1 0 1.6-.7 1.5-1.8 0-.3 0-.6.3-.8 1.3-1 2.6-1.5 3.4-2.9l5.2-7.4c.2-.3.5-.4.8-.1L778 151a3 3 0 0 1 .4 4.4l-5 5.8c-.9 1-2.3 1-3.2.2l-9.1-7.7c-.4-.3-.6-.2-.7.3a4.6 4.6 0 0 1-3.2 3.7c-.3 0-.5.3-.7.6-4.7 8.6-9.8 13.8-14.7 21-2.4 3.5-2.5 8.4-3.1 12.5-.2 1.3-.1 2.6.3 4 1.3 4.2 1.9 8 1.6 11.4l-2.5 31.7c-.2 2.2.7 3.5 2 5.2.1.3.5.4.8.3a7 7 0 0 1 4.3.2c.2 0 .3.3.3.5 0 .3-.3.4-.5.4h-25.9l-.9-.1c-.7-.2-1-.5-.5-.8l.5-.1c1.8 0 3.5-.5 5.1-1.5.3-.2.5-.5.4-.9-.8-11.7-2-23.3-3-35a26 26 0 0 1 2-13.4c.1-.3.2-.6 0-1-.4-.9-.9-1.7-1.6-2.4a2 2 0 0 1-.5-1l-1.1-4.6c-.2-.8-.6-1-1.3-.5-4.6 3-9 6.4-13 10.2-.3.2-.6.3-1 .1l-1-.4a1 1 0 0 0-1 .1c-.8.6-1.2 1.4-1.1 2.4 0 1 1.4 1.4 2 .6l.6-.8c.4-.5 1.1-.1 1 .5a5 5 0 0 1-1.8 2.5c-.4.3-.4.9 0 1.2l10.2 7.7c.3.2.4.5.2.9l-5.4 9.6c-.3.4-.8.5-1.2.2L693 208.8c-.7-.6-.8-1.2-.2-2a49 49 0 0 0 6.5-11.4c1-2.2 2.5-3.1 4.7-2.7.2.1.5 0 .7-.2.6-.4.7-1 .4-1.5-.2-.3-.5-.4-.8-.3l-1.2.4c-.5.1-.9-.4-.6-.8a75.9 75.9 0 0 1 13.2-14.4 11 11 0 0 1 6.7-2.7c2.4-.1 3.9-1.2 4.4-3.1.1-.4 0-.7-.2-1a7.9 7.9 0 0 1-2-6.8 1 1 0 0 0-.3-.7c-.5-.5-.7-1-.4-1.8 0-.4.3-.5.7-.5l8-.2c.2 0 .2 0 .1-.2Zm24.5-2.8c.3.2 1-.3 1.4-1 .5-.8.5-1.5.2-1.7-.4-.3-1 .2-1.5 1-.4.7-.5 1.5-.1 1.7Zm-2.6 2.6c.5 0 .8-.8.7-1.5-.1-.7-.7-1.2-1.2-1-.6 0-.9.7-.7 1.4.1.7.7 1.2 1.2 1.1ZM731.9 192h4.4c.9 0 1.7-.7 1.6-1.7 0-5.4 1-10.6 3.5-15.4.2-.3.5-.5.8-.6a5 5 0 0 0 3-1.8c3-4.1 6.4-7.5 8.7-12 .3-.6.2-1.4-.5-1.9-.6-.4-1.4-.3-2 .2a24 24 0 0 0-5 8.2c-.2.5-.8.5-1 .2l-.4-.5c-.1-.2-.3-.2-.5 0-2 2-4.2 3.7-6.8 4.9l-.6.5-6.5 9.7c-.6.9-1.8 1-2.4.1-2-2.6-4.4-5-7.1-7a1 1 0 0 0-.9-.2c-2.4.4-4.5 2.9-6 4.7-2.9 3.1-6.5 5.5-8.4 9.5-.6 1.1.7 2.2 1.7 1.5a10 10 0 0 0 3.4-3.4c.9-1.3 3.3-2.9 7-4.6.5-.2.6-.4.3-.8l-.7-1.2c-.2-.3-.2-.8.2-1s.7-.3 1 0c4 3.3 2 11.4 7 12.7.4 0 .6-.3.4-.6l-1.6-2a.6.6 0 0 1 .1-.8c.2-.2.6-.2.8 0l2.6 3 .8.4h.3a.9.9 0 0 1-.1 1.7l-4.4.3c-.5 0-1 .4-1.1 1-2 9-.6 16.8.2 25.7.5 4.8.9 13.4 1.9 20.2 0 .4.3.6.7.6h8.6c1 0 1.7-.8 1.8-1.7.3-5.2.2-10.2.7-15.2.6-6 1.1-12 1.4-18.1.2-3.5-.8-6.9-1-10.5-.2-1-1-1.8-2-2-1.1-.2-4.2.3-4.3-1.7 0-.3.1-.4.4-.4Zm-.7-21.5c2-2.1 3-4.7 2.7-7.7 0-.3-.2-.5-.4-.7a7.5 7.5 0 0 0-6.4-.8c-.4.2-.6.4-.8.8a10 10 0 0 0 .6 7l.5.5 1.5.6c.6.2.6.4 0 .4-1.6.1-2.3 2-1 3l.5.6 1 3.6c.2.5 1 .4 1 0l.9-3c0-.2 0-.4-.3-.5l-.6-.1v-.3c1 0 1.9-.5 2.4-1.5.6-.8 0-2-1-1.9h-.6Zm2.3 5.7c.2.1.7-.5 1.2-1.5s.8-1.8.6-1.9c-.2-.1-.8.6-1.3 1.5-.5 1-.7 1.8-.5 2Zm-2.5 66.6.1 1c0 .5.7.6.9.2.2-.5.2-1 0-1.5-.3-.5-1-.3-1 .3ZM82.5 185.5l.3-.1s.2.2.1.3a9 9 0 0 1-1.9 3.8h-.1l1.6-4ZM730 206.8l-1.9-2.8a.5.5 0 0 1 .1-.7c.2-.2.5-.2.7 0 1 .8 1.9.8 2.8.1.3-.2.8 0 .7.4-1.5 7.9-.7 16.8-.5 24.8 0 3.7-.5 7.7-.5 11.6l-.1.3-.3.2c-.4.2-.8 0-.8-.5V207l-.2-.3Zm-181 22-4.1 10.1c-.8 2-2.3 2.3-4.5 1.3-.6-.3-1-1-.9-1.7.2-.8.5-1.4 1.2-1.7.3-.1.6 0 .8.3l.8 1.4c.2.5 1 .4 1.1 0 2-5.3 3.6-11.6 6.3-16.4a1 1 0 0 1 1.7.1l6 15.7.6.9 1.2 1c.3.4 0 .9-.4.9h-5.4c-.4 0-.6-.1-.4-.5l.4-1.3v-.9l-3.8-9.1c-.2-.5-.4-.5-.5 0Zm136.5-1.5-3.8 11c-.2.6-1 .6-1.4 0l-5-9c-.4-.6-1.1-.3-1.1.2l.6 9.7c0 .3-.2.5-.5.5h-1c-.4 0-.6-.2-.6-.5v-14.4a1 1 0 0 0-.4-.8l-1-.9c-.4-.3-.3-.9.2-1a10 10 0 0 1 4.9.4l.3.3 5 8.6c.3.6.6.6.9 0l3.4-8c0-.2.2-.3.3-.4 1.5-.8 3-1 4.8-.6.4 0 .5.2.3.6-1.8 3.2-1 11.1-1 15.3 0 .8-.7 1.4-1.5 1.4H687c-.3 0-.4-.2-.5-.5l-.3-11.8c0-.4-.6-.5-.7 0ZM158 231.4l-2.2-.3c-.1-.2-.3-.6-.1-.9.4-.8 2.4 0 3.5-1 .9-.9 1-2.6.2-3.7a2.9 2.9 0 0 0-2.5-1 6 6 0 0 0-5 3.1c-.4.8-1.6.4-1.5-.5l.1-3.4c0-.5.3-.7.8-.4l1 .5c.4.2.7.2 1 0 1.8-1 3.2-1.5 4.4-1.5 5-.4 5.9 4.5 4 8.1l.1 1c6.2 8.2-4.5 11.7-10.2 7.5a2 2 0 0 1-.8-1.2c-.2-1 0-1.6.8-2 .3-.2.7 0 .8.3 1.2 2.4 3 3.2 5.8 2.4.7-.2 1.6-.4 2.2-1.2.9-1.1.6-2.6.5-2.8-.4-2.2-2.7-3-2.9-3Zm150.4 3c.1 1.1.4 1.2.9.2 1.7-3 3.2-6.2 4.5-9.5 1.2-2.8 2.7-3.7 5.6-2.8.2.1.4.3.4.6 0 .5-.2 1-.5 1.4a1 1 0 0 0-.2.6l-.2 13.3c0 .3 0 .6.2.9l.6.8c.2.4.1.6-.4.6l-4.5.3c-.4 0-.6-.2-.5-.6l.4-10.5c0-.7-.8-.9-1-.3l-5.5 11c-.2.2-.5.4-.8.4h-2.7c-.3 0-.5-.2-.5-.5V225a1 1 0 0 0-.3-.8l-.6-.5a.8.8 0 0 1 .5-1.4l4.6-.1c.5 0 .7.2.6.6-.6 3.9-.8 7.7-.6 11.6Zm-22.6.1c0 .4.5.5.7.2a68 68 0 0 0 5-10c.8-2.1 2.6-2.7 5.3-2 .3.2.4.4.3.7l-.5.9c-.2.3-.2.6-.3 1v13.4c0 .5.5.8 1 .6l1.9-.7c.4-.1.7 0 1 .2a3 3 0 0 1 .8 3.5c-.2.5-.5.8-1 .8-.3 0-.5-.2-.5-.5l-.2-1.4c-.1-.5-.4-.7-1-.7l-6 .3a.7.7 0 0 1-.7-.7l.5-10.4c0-.3-.2-.6-.4-.7-.4-.3-.6-.2-.7.2-.8 3.2-3.9 8-5.5 11-.2.2-.4.4-.7.4l-3.4.4c-.4 0-.7-.5-.4-.8l.7-.9c.2-.3.3-.6.3-1a79 79 0 0 1-.4-10.8c.2-1.8-.2-3-1.1-3.8-.3-.2-.3-.4 0-.6a6 6 0 0 1 4.9-.5c.4.1.6.4.6.8l-.2 11Zm132.9-4.3c-.5.4-.3 1.1.3 1.2 5 1 5 5.4 8 8.4.4.5 0 1.2-.5 1.1a7.8 7.8 0 0 1-4.4-1.7c-1.6-1.3-1.8-3.9-3-6-.7-1-2.2-.7-2.5.4-.6 2.4-.4 4.5.5 6.6.1.3 0 .5-.3.5h-5a.4.4 0 0 1-.4-.6l.6-.9.2-.6-.2-13.7c0-.3-.3-.6-.6-.7l-.8-.2c-.4 0-.5-.3-.4-.7.2-.4.7-.6 1.3-.7 1.8 0 3.7 0 5.6.4.4 0 .5.3.3.6-.9 2-1.1 4-.8 6.2.1.4.6.6 1 .3l5.1-4.7c.4-.3.4-.6 0-.9l-.5-.5c-.4-.3-.3-1 .2-1 1.3-.4 2.6-.3 3.8.2.4.2.4.6.2.9l-7.7 6.1Zm-392.4.9c-2.1-2.6-4.6-6.4-8-7.2a.7.7 0 0 1-.5-.8c0-.4.4-.6.8-.6l3.3.4c.3 0 .6.2.7.5 1.1 2.5 2.7 4.6 4.8 6.3.7.5 1.1.4 1.3-.5a6 6 0 0 0-1.5-5.6c-.5-.5-.4-.8.4-.8l5.7.2c.3 0 .4.1.4.4l-.7 6c0 .6.7.9 1 .4l3.8-4.6c.2-.2.2-.5.1-.9l-.3-.8c-.1-.3.1-.7.5-.7h3.6c.5 0 .7.5.4.8l-6.8 7c-.2.2-.1.6.2.8l3.3 1.4.8.7 4.4 6.2c.2.3 0 .8-.4.9-5.3.6-6.1-4-9.2-6.6-.8-.7-1.2-.5-1.3.5-.2 2 0 3.9.7 5.7.1.5-.2 1-.8 1h-5.6c-.6 0-.8-.8-.3-1l1.3-.7c.3-.2.5-.4.4-.7l-.2-4c0-1.6-.6-1.8-1.7-.6-2.3 2.4-5.5 8.2-9.3 6.5-.5-.2-.5-.5 0-.8l1.5-1.2c.3-.2.5-.5.6-.9.8-3.4 3-5.5 6.4-6.1.4-.1.5-.3.2-.6ZM465 280.8l8 1.1c.4 0 .7-.1.8-.4 0-.3 0-.7-.3-.8a8.9 8.9 0 0 0-6.6-.6h-.2l-.1-.3a9 9 0 0 1 7.7.5c.3.2.5.5.5.8.6 4.1-.6 6.7-1.7 9.9-.2.4 0 .6.4.6 1 0 1.7-.5 1.9-1.2.7-3 1.9-5.8 1.9-8.9 0-3.8-.4-7.2-.2-11.3 0-1.5-.2-3-.6-4.4a1 1 0 0 1 .1-1c2.3-3.4 1.4-7.9 1.3-11.7 0-1 .7-1.8 1.7-1.8h16c.5 0 .9.3 1 .8a35 35 0 0 1-.6 11.2c-.3 1.1-1.2 1.6-2.6 1.5-3.2-.2-6.4-.4-9.7-.4-1.3 0-2.3.4-3 1.3-.1.3-.2.7-.1 1 .5 1.6-.1 2.6-1.8 3-.4 0-.6.5-.4.8l.2.5c.2.2.4.3.7.2l.8-.4c.3-.2.6 0 .7.3a40 40 0 0 1 .6 23.2l-2.4 8.6a82.3 82.3 0 0 0-1.2 13c2.2 4 3 8.4 2.8 12.8l-3 31.4c-.2 2 0 3.5.8 4.4 1.2 1.5 3 1.7 5.5.7.3 0 .6.1.7.4l.1.6c.1.4 0 .6-.5.6-8.6-.2-17.3-.2-26 0-.6.1-1 0-1.2-.3-.3-.3 0-1 .4-.8 2.2.2 3.8-.3 5-1.7.6-1 1-2.2.7-3.9-1.4-13-2.4-24.5-3-34.5-.2-3.5.5-7 2.1-10.6.2-.3.1-.6-.2-.8-4.8-3.3-1.7-8.4-5.2-11.8a9 9 0 0 0-6.8-2.5c-4.2.1-7.5.3-11.6-1.2-1.9-.6-3.7-1.2-5.6-1.6-.3 0-.6 0-.8.3-1 1.5-2.5 1.9-4.4 1.3a.5.5 0 0 0-.7.5l.6 10.9c0 1.2-.9 2.2-2 2.2l-12.3.3c-.2 0-.3 0-.3-.3v-17.8c0-.4.2-.6.6-.6l11 .3c.3 0 .6 0 .8-.2 2.1-1.3 4.3-1.9 6.7-1.7l3.3.3c6.6.2 12.9 1.2 19.5.5l8.9-.6c1.6 0 2.7-1.6 2.1-3.1l-2.3-6.8c-.4-1 .5-2 1.5-1.8Zm14-12.2c.8 0 1.3-1.1 1.2-2.3-.2-1.2-1-2.1-1.8-2-.7 0-1.3 1.1-1.1 2.3.1 1.2 1 2.1 1.7 2Zm-3.4 36-.6 8.2c0 .3.3.6.6.4l.5-.3.2-.3c.7-6.7 2-13.3 3.7-19.8 1.7-6.5 1.8-13.5.6-19.5-.2-.9-.8-1.1-1.7-.7-.2.1-.4.3-.4.6l.6 6.5c.5 3-.3 4.9-1.6 7.4-1.1 2-.9 4-2 6l-4.8 7.9a2 2 0 0 1-3 .4l-7.2-6.5c-.5-.4-1-.7-1.7-.6l-7.5.2c-4.8.2-10-1-15.4-.6-1.3 0-1.9.8-1.6 2 .2.8 1 1.1 1.7.6l1-.8c.3-.3.5-.2.6.2.7 2 2.3 3 4.8 2.9 4.3-.3 8.6-.1 12.8.5.4 0 .7 0 1-.3l.4-.3c.3-.2.5-.2.7 0a12 12 0 0 1 3.2 7c0 3.3 1 5.8 3 7.5l.3.1h.3c0-.2.1-.3 0-.4l-.7-1.8c0-.2 0-.3.2-.4h.4l1.9 2.2c.2.3.6.5 1 .5l6-.1c.3 0 .6-.2.7-.7l1.5-8 .1-.2h.3c.1 0 .2 0 .1.2Zm-2.7-20.2v-.6c0-.2-.2-.4-.6-.6a6 6 0 0 0-5.6.1 1 1 0 0 0-.5.6c-.7 2.5-.4 4.6 1.1 6.3 1.3 1.5 3 1.7 4.4.2 1.6-1.7 2-3.4 1.2-5.1v-1Zm-3.4 12.2v.5l.1.3.4-.1 2.1-4.2a.9.9 0 0 0-.7-1.3h-3.2c-.7 0-1 .7-.7 1.2l1.8 3.1.2.5ZM431 295l-2 .2a1 1 0 0 0-.9 1.2c.1.7.7 1.1 1.4 1.1 1.3 0 2-.7 2.2-1.8 0-.3.1-.5.3-.6l.5-.3c.8-.6.8-.8-.2-.7h-.7l-.2.3v.3c0 .2-.2.3-.4.3Zm37 4.8c.1-.1 0-.3 0-.4l-5-4.6c-.1-.2-.3-.1-.4 0-.2.2-.2.3 0 .5l5 4.6h.3v-.1Zm1.1 26c.9.3 1.7.2 2.4-.4.2-.2.4-.1.6 0v.5l-1.2 1.4c-.2.2-.3.5-.3.8l.4 33.2c0 .4-.2.7-.5.9-1.1.6-1.5 1.6-1.1 3 .1.4.3.5.7.2.7-.6 1-1.3.7-2.3-.1-.4 0-.7.5-.7h4.2c.3 0 .4-.2.5-.4a81 81 0 0 0 1.2-12.2c.1-6.4 1-12.3 1.7-19.2.6-5.2-.4-10.1-3-14.8a.7.7 0 0 0-.8-.4c-1.5.2-3 0-4.4-.7a1 1 0 0 0-.9 0c-1.5.6-3 .9-4.6.8-.4 0-.7.1-1 .4-2.9 3.7-2.7 11.2-2 15.8 1 8.8 2 17.6 2.6 26.5 0 1.1.5 2.2.7 3.3.1.4.3.6.7.5h2.2c.5 0 1-.4.9-1l-.5-35c0-.2 0-.3.3-.2ZM378 295v-.3c0-.2.2-.4.4-.5a2 2 0 0 1 1.8.4c.2.2.5.3.8.3l9.7-.5c1 0 1.7.7 1.8 1.7l.3 14.6c0 1-.7 1.7-1.6 1.7-2.4 0-8.7-.5-10.8.5-.8.4-1.9-.3-1.9-1.4v-11c0-.3-.3-.6-.5-.7-2-.7-3.6-1.6-5.7-1.4-2.7.2-5.4.7-8 1.5-4.3 1.2-8 .8-12.2.8-.3 0-.6 0-.9.3-1 .9-1.7 1.8-1.8 2.7a34 34 0 0 1-3.1 11.2c-.1.2-.2.6 0 .9 3 8.5 1.3 17.2.8 26l-.8 8.2c-.3 3.8.4 7.9-.6 11.5l.1.9c1.6 2.9 4.1 4 7.4 3.3.3 0 .7.2.8.5.1.3 0 .7-.3.8a3 3 0 0 1-1.7.3c-6.7-.5-11.3-.6-13.6-.5a184.8 184.8 0 0 1-13.4 0c-.2-.1-.2-.3-.2-.6 0-.1.2-.3.4-.3l4.2-.3c.3 0 .6-.1.7-.4 2-3.4.8-5.8.6-9-.5-11-1.1-20.6-1.8-28.5-.5-4.8 0-9.3 1.4-13.4.1-.3 0-.6-.2-.8a5.6 5.6 0 0 1-1.6-2.8c-1.9-8.6-3-17.7-3.4-27.3 0-1.4.2-2.9.7-4.4 1.2-3.3 1.9-6.6 2-10l-.1-.6c-1-1.8-.9-3.3.6-4.7.3-.3.5-.6.5-1l-.2-9.8c0-.3.3-.6.6-.6l17.4-.3c.8 0 1.5.7 1.5 1.6v10.1c0 .3-.2.5-.5.6l-14 .6a2 2 0 0 0-1.9 1.7 56 56 0 0 0-.2 5.7c0 1.4 0 3.2-.4 5.4a18 18 0 0 0 1 10c.5 1.7.6 3.4 2.4 4.3a.7.7 0 0 0 1-1l-1.8-4.8v-1c.7-1.3.3-2.3-1-3a.7.7 0 0 1-.2-1c2.2-3.8 8.6-3.1 11.6-1.1.4.2.5.8.2 1.1-.8 1.3-1 2.6-.4 4l-.1 1c-1 2-1.5 4-1.4 6.3 0 .3.2.5.5.5 3.2.1 6.1-.1 9.4.1 2 .2 4.8.2 8.2.2 2.3 0 6.9.4 13.6 1.4.3 0 .7 0 1-.3 1-.7 1.7-.6 2.3.5.6 1 .8 1.1.6 0Zm-48-26.1c-.6-1.8.7-2.6.5-3.7 0-.7-1-1-1.4-.5-1.4 1.5-1.3 3 .4 4.5.2.2.6 0 .5-.3Zm.2 2.5c0-.4-.4-.8-.8-.8s-.8.4-.8.8.3.8.8.8.8-.4.8-.8Zm9 42.4c2-2 3-.4 5-.3.4 0 .6-.1.8-.4 3.6-5.7.2-11.3 6-15.7.4-.3.7-.2.9.1l.1.3c.2.3.4.5.8.6 4.7 1.2 9.5 1.1 14.2-.1.3-.1.5-.4.6-.6l.2-1.3c.2-.7-.3-1.4-1-1.5a40 40 0 0 0-10-.1c-4.4.5-7.5-2.2-11.2 1.2-2.7 2.3-4.4 3.5-6.3 5.3-.8.8-2.1.5-2.6-.6-2-4.6-5.2-8.5-5.8-13.5-.3-2.2-1-4-1.5-6.1-.1-.3 0-.6.1-1l.7-.9c.2-.2.2-.4.1-.7-.7-1.8.6-2.7.3-4.1-.1-.8-.6-1.2-1.5-1.3-.3 0-.5.1-.6.4-1 3.7-2 6.6-2 10.5l.8 12.5c0 .4.5.5.7.2l.4-.9c.2-.3.5-.4.9-.3.3.2.4.5.3.9-2 4.6-.6 9.9.3 14.6.8 3.8 5.7 2.2 8.6 2.5.6 0 .7.2.1.6a9.7 9.7 0 0 1-5.8 1.3 1 1 0 0 0-.9.5c-2.2 3.5-1.4 11.5-1.1 15.6.8 10.8 1.1 20.3 2.5 30.4 0 .4.4.7.8.6l2.8-.6c.4-.1.6-.3.6-.7.6-10.7.7-21.4.3-32.1 0-1.5-.5-2.3-1.2-3.6-.2-.4.2-.8.6-.6l1.4.7h.5l1.5-.5c.4-.1.7.4.4.7-1 .8-1.6 1.5-1.6 2.8v32.9c0 .4.2.7.5.9 1.1.6 2.3.7 3.6.5.4-.1.5-.3.6-.7.6-9.2 1-17.7 1.8-27.6.4-5.9 1-12.7-1.4-18.3l-.5-.4-4.6-1.4c-.5-.1-.5-.4-.2-.7Zm-5.5-32.1 9-.1.2-.2v-.1c0-1.1-2-2-4.5-2h-.4c-2.5 0-4.5 1-4.5 2.1 0 .2 0 .3.2.3Zm1 5.1a7.4 7.4 0 0 0 2.7 4.4c.3.1.6.2.9 0 .4 0 .7 0 .9.3 0 .2 0 .4-.3.5l-2 .1c-.5 0-.7.7-.3 1.1 1.1 1 1.6 2.4 1.4 4-.1.3.4.4.6.1l2.4-3.7c.2-.1.2-.3.1-.5l-.4-1.2a1 1 0 0 1 0-1 12 12 0 0 0 1.6-6.9c0-.3-.2-.6-.5-.7-2-.8-4-.8-6 0-.4.2-1.2 3.2-1 3.5Zm10.2 8.1c-.2-.2-1 .2-2 1-.9.7-1.5 1.4-1.3 1.6.2.3 1-.1 2-.9.9-.7 1.5-1.5 1.3-1.7Zm27.3.8c-.2-.6-1-.9-1.9-.6-.8.4-1.2 1.1-1 1.7.2.6 1 .8 1.9.5.8-.3 1.2-1 1-1.6Zm5.8 2c0-.3-.1-.6-.4-.7l-3.5-1c-.2-.2-.6 0-.6.3l-.2.5c-.1.3 0 .6.3.7l3.5 1.1c.3.1.6 0 .7-.3l.2-.6Zm-39 68.5c.3 0 .5-.8.4-1.8 0-1-.4-1.7-.8-1.7-.3 0-.5.9-.4 1.8.1 1 .5 1.8.8 1.7Zm291.4-93c-.3 1.5-1.1 2.3-2.5 2.6a1 1 0 0 0-.8.5c-3 5.3-5.5 10.8-9.4 15.4-2.8 3.2-6.3 6.2-7.2 10.6-.6 3.4-3.3 11.8-2.3 14.7 1.7 5 2.4 8.2 2 13.7-1.3 15.2-2 25-2.2 29.3a7 7 0 0 0 2.1 5c.3.2.5.3.9.3l3.5-.4c.4 0 .6.1.7.5v.6c0 .5-.1.7-.6.7-9-.6-18.2-.5-27.2 0-.5.1-.8-.5-.5-.8.9-1 1.9-1 3-.3.1.2.3.2.5 0 1.6-1.3 2.3-2.5 2.2-3.7-1.3-13.7-2-25.5-2.4-35.4 0-2 .2-4.2.9-6.7 0-.3 0-.6-.3-.8-6.6-5-5.4-12.2-5-19.5.4-7.4 10.1-5 10.7-10 0-.3.4-.4.6-.2l.8 1.3.8.5c3.4 1 5.7-2.4 4.7-5.4 0-.3-.1-1.1 0-1.6 0-.5-.2-1-.6-1.2a7 7 0 0 0-5.7-.2 1 1 0 0 0-.6.6l-1.3 3.6h-.1c-.4-.4-.5-.8-.4-1.2.5-1.8.4-3.3-.2-4.6a1 1 0 0 1 0-1c1.1-2.5 7.2-2 9.2-1.6 1 .2 2 .8 2.5 2 .2.2.2.5 0 .8-1.3 2.2-.9 4.2-1.6 6.4l-1 2.9a1 1 0 0 0 1.7 1.2c3-1.8 6-4 8.5-6.3 3.4-3 6.6-7.3 9.8-11 1-1.3 1.9-4 3.4-4.8a18 18 0 0 0 4.1-2.6c2-2.3 3.8-4.6 5.3-6.9.3-.4.8-.4 1.1 0 3.3 4 6.4 8 9.4 12.3 1.8 2.5.6 3.3-1 5.4-1.8 2-3.6 3.7-5.5 5.2a1 1 0 0 1-1.6-.3c-1.8-2.7-5-8.2-7.8-9.9-.4-.2-.6-.1-.7.3Zm-1.1-1c-.4-.3-1.2-.2-1.9.4-.6.6-.9 1.4-.5 1.8.3.4 1.2.3 1.8-.3.7-.6 1-1.4.6-1.8ZM612 290.1l-.2-.4a.5.5 0 0 0-.7-.2 22.2 22.2 0 0 0-9.7 11.8c-.4 1-1.6 1.3-2.4.6-2.2-1.9-6-6.1-8.7-6.5-.3 0-.6 0-.9.2-2.8 2.1-2.4 10.9-2.4 15.4 0 1.1.6 2.6 2 4.5 1.1 1.7 3 2.6 4.4 4.5.2.3.5.4.8.1l1.1-.8c.4-.3.5-.8.2-1.2l-2.5-4.5c-.2-.3-.5-.5-.8-.5l-.6-.2c-.4 0-.6-.3-.5-.7 1-3.9.7-7.6-1-11.2v-.5c0-.1 0-.2.2-.3.3-.3.5-.3.7 0a20 20 0 0 1 2 10.4c0 .4.1.7.3 1 1 1.8 2.6 2.3 4.6 1.5.4-.2.7 0 .9.3.1.3 0 .7-.4.8l-2.6 1.2c-.3.2-.5.5-.3.8.5 1 1.2 2 2.2 2.6l.3.2 3 5.3c0 .3.3.4.7.3l1.9-.6c.3 0 .7.3.5.6l-.8 1.7a1 1 0 0 0 0 1l4 6 .1.9c-.5 3-4.5 6.1-6.2 8.9l-.2.8-.1 17c0 .4.2.7.5.9a6 6 0 0 0 4.2.1c.3 0 .5-.3.5-.6 1.1-9.6 1.9-19.3 2.4-29A42 42 0 0 0 606 316a.8.8 0 0 0-.7-.6l-2.2-.2c-1.2 0-1.9 0-2-.3-.8-1.5-.4-2 1.2-1.7 2.7.5 4.2-.3 4.6-2.2a79 79 0 0 0 1.1-10.8c0-1 .4-2 1-3 .4-.7 1.1-1.4 2.2-2 6.6-4 10.6-11.7 13.5-18.3.1-.4-.4-.8-.7-.5-2 1.9-3.7 3.8-5.1 5.8-2.1 3-5 4.1-6.3 7.9-.3.6-.5.6-.8 0Zm-15-8.8a15 15 0 0 1 7.3.4c.3.2.7 0 .9-.4.1-.3 0-.7-.3-.9a9.1 9.1 0 0 0-8.4-.8c-.4.2-.7.6-.6 1 .2.5.6.8 1 .7Zm3.7 12.7c.5.2.9.1 1.2-.3.3-.3.1-1-.3-1l-3.5-1a.6.6 0 0 0-.7.5c0 1 .4 1.5 1.2 1.7h2Zm.9 1.1c0-.3-.7-.6-1.5-.6s-1.5.3-1.5.7c0 .3.7.6 1.5.6s1.5-.4 1.5-.7Zm-8.7.3 4.6 4 .1-.2c.3-.3-.5-1.4-1.7-2.4l-.2-.2c-1.2-1-2.4-1.7-2.7-1.4l-.1.2Zm8 1.7c.1-.5-.4-.7-.7-.4-.7.8-.9 1.7-.6 2.8.1.4.7.4.8 0l.5-2.4Zm-4.8 26.1 1.2 2.3c.5 1 2 .7 2-.4 0-2.1-.8-3.1-2.7-3.1-.3 0-.5-.1-.5-.4v-.4c0-.1-.1-.2-.2 0l-1.2 1c-.3.2-.6.2-.9 0l-1-.9c-.2-.2-.6-.1-.7.2-1.2 4.3 0 8.8.6 13 0 .5.3.5.6.2l5.2-5.3c.3-.3.3-.7 0-1-1.4-1.4-4-2.8-2.9-5.2.2-.3.3-.3.5 0Zm3.4 23.3c0-.3-.3-.4-.5-.3l-2 1.4c-.1 0-.3 0-.4-.2l-3.2-5.4c-.1-.3-.6-.1-.6.2l1.8 19.5c0 .2.1.3.3.3l4-.3c.2 0 .4-.1.4-.3l.2-14.9Zm.3 17.2c-.4.8-.1 1.2.9 1.2.4 0 .8-.6.6-1l-.4-1.3c-.2-.5-.4-.5-.7 0l-.2.4-.2.7Zm-515-30.9c.7-4.2.6-8.3-.5-12.4-.1-.2 0-.5.1-.6l.9-1c.2-.2.4-.2.5.2 1.5 5 1.7 10.2.3 15.3 0 .3 0 .6.2.9l2.5 2.7a2 2 0 0 1 0 2.5c-2 2-3.4 3-3.6 6-.3 5.7-.8 11-1.3 15.8-.2 2 1.4 3.7 3.4 3.7h5c.7 0 1 1 .4 1.4a3 3 0 0 1-1.7.4c-7-.5-16.2-.5-27.9-.1-.8 0-1.2-.5-1.1-1.4 0-.3.2-.4.4-.4h4.2c2.1 0 3.8-1.8 3.7-4-1-11.5-2-23.5-3.3-36a20 20 0 0 1 2.5-11.3c.2-.3.2-.6 0-.9-1.7-2.3-2.5-5-2.3-8 0-1.2-1.5-1.7-2.2-.8a41.2 41.2 0 0 1-6 6.5c-4 3.6-6 7-7.8 12l.1.9c1.8 2.6 6.6 5.5 9.2 7.4.5.4.6 1.1.3 1.7l-4.5 8.3c-.5 1-1.3 1.2-2.3.6l-14-9c-.3-.2-.3-.5-.1-.8a152 152 0 0 1 5-7.7c1.8-2.5 2.1-5.4 4-8 .2-.3.4-.3.7-.2l1.6.8c.4.2 1 .1 1.2-.3.2-.4 0-.9-.3-1.1l-1-.8c-.7-.4-1-1.3-.6-2a54.5 54.5 0 0 1 15.4-18.8c.2-.2.5-.3.8-.3 1.8 0 3.5-.3 5-1 1.2-.5 1.6-1.3 1.3-2.5-.4-1.4-1-2.6-1.9-3.8-.2-.2-.2-.5 0-.8 1.1-1.6.8-2.9-.8-4a.6.6 0 0 1-.2-.8c2.5-3 13.4-5.3 13.3.3 0 .3-.2.6-.4 1-.9.8-1 1.9-.2 3 .2.3.3.6.2 1l-2.1 5.1c-.2.4-.1.7.2 1 2.3 1.5 5.1 1 6.8 2.3 3 2.1 3.3 9.2 3.1 12.5-.2 4.3-1.6 7.5-4.2 9.9-.1 0-.3 0-.3-.2v-.3c4.6-5.5 4-13.4 1.4-19.7-.4-1-1.5-1.4-2.5-1a31 31 0 0 0-7.1 5.1c-1.6 1.6-2.8 1.1-4.3-.2-2.3-2-4.7-3.6-7.4-4.8a1 1 0 0 0-.9 0c-2.5 1.4-4.4 5-6.4 7-2.9 3-5.1 6.5-6.7 10.3-.2.3-.1.6 0 .8.2.2.4.2.6.1A36 36 0 0 0 64.8 302c.1-.3.1-.6-.1-1-.4-.4-.4-.9-.1-1.4.2-.4.5-.4.8-.2.8.6 1.4 1.2 2 1.9 2.7 3.7-1.6 9.2 4.8 11.7.6.2.7 0 .4-.4l-1-2.2c-.1-.2 0-.5.2-.6h.4l.3.2c.5 1 1.2 2 1.9 3 .2.2.5.4.9.4h7c.3 0 .5-.2.7-.5 2.1-4.2.4-7.8 1.7-12 0-.4.3-.6.6-.6h.3c.3 0 .4 0 .3.3-.7 2-.9 4-.7 6 .4 3.6-.8 6-2.8 8.8-1.3 2-2 3.5.7 4.6l.4.4c.6 3-.1 5.2-2.3 6.8-.3.2-.3.5-.1.9l3 4.8c.1.3.5.2.6-.1Zm-9.7-52c2.3-.6 4.2-.1 5.9 1.2.3.3.6.3.8-.1l.2-.6c.2-.4 0-.7-.4-.9a14 14 0 0 0-8-.9c-.5 0-.8.6-.7 1.1.4 1 .8 1.1 1.5.5l.8-.4Zm.9 11.8-1-.2c-.3 0-.5.1-.5.4v1.5c0 .5.3.8.8.8h3.4c.5 0 .8-.3.8-.9v-1c0-.4-.3-.7-.7-.7H78c-.3 0-.4-.5-.1-.6 3-1.8 3.9-4.3 2.7-7.6a1 1 0 0 0-.5-.6 8 8 0 0 0-6.3-.6c-.3 0-.5.3-.6.6-1.2 3.5-.2 6.3 3.1 8.1.2.1.3.4.2.6 0 .2-.3.3-.5.3Zm7.3 2.3c0-.1-1 .4-1.9 1.2-.9.7-1.6 1.5-1.5 1.6.2.1 1-.4 2-1.1.9-.8 1.5-1.5 1.4-1.7ZM70.5 297c.1-.1 0-.5-.4-.8-.3-.4-.7-.5-.9-.4 0 .2 0 .6.4.9.4.3.8.5 1 .3Zm6-1-.6-.1c-.3-.1-.5.3-.2.4a2 2 0 0 0 2.1.3c.2-.1.3-.3.2-.5l-.4-.2-.4.1h-.7Zm1.2 19c-.7-.2-1.3-.2-2 0l-4 .6-.7.4c-2.7 2.5-2.7 11-2.3 14.9a1289 1289 0 0 1 3 31.4c0 .4.3.6.7.6h2.8c.3 0 .5-.2.5-.5V344c0-.3 0-.6-.3-1l-4.7-6.6c-.3-.5-.3-1.1.1-1.5 2-2.3 3.6-4.8 4.8-7.7.5-1 1.2-1.6 2-2.4.3-.2.4-.5.5-.8.6-2.4 1.6-4.7 2.8-6.9.4-.7 0-1.5-.8-1.7l-2.4-.5Zm-27.5 6.4v.4c.1.3.6.4.7.1.6-1.6.3-2.7-1.1-3.3-.3-.2-.6.1-.5.4l.6 1.7.3.7Zm29.7 2.6.4.6c1 .8 1.7.7 2-.3.4-1.4.2-2.6-.6-3.8a.5.5 0 0 0-.7-.1c-1.3 1-1.6 2.2-1 3.6Zm.5 24.4-2.4-2c-.3-.2-.7 0-.7.3V362c0 .5.3.8.8.9l3.3.5c.4 0 .6-.1.8-.4a3 3 0 0 0 0-2.4v-.9a49 49 0 0 0 1-11.8c0-.5-.3-.6-.8-.3l-1 .8c-.4.2-.7.2-1 0Zm-4 15.2c-.6.8-.8 1.5-.8 2s.4 1 .9 1 .8-.3.8-.8v-1.9c0-.5-.6-.7-.9-.3Zm612-64.3v11.9c0 .8-.3 1.2-1.2 1.2h-11.8c-.4 0-.6-.2-.6-.5l-.1-16.5c0-.4.1-.6.5-.8 1-.4 2-.4 3 0 .2.2.5.3.9.2 8.4-.6 16.9-1 25.3-.9 2.2 0 5-.1 8.3-.6 3.9-.5 7.8-.5 11.7-.2 1.1.1 2-.7 2-1.8 0-2.3-.6-4.5-1.7-6.5a.8.8 0 0 1 0-.9l.7-1.2c.2-.4.1-.7-.4-.9l-1.3-.5a.7.7 0 0 1 0-1.2 14 14 0 0 1 11.2-1c1 .3 1.3 1.3.8 2.1l-.4.7c-.2.3-.3.6-.3 1 0 3.5-3.8 10.8 3.7 9.5a26 26 0 0 1 8.4 0c2.2.4 3.8.5 5 .5 2.4-.2 4.2-.7 6.6-.3 3 .4 5.8.3 8.6-.3 1.7-.4 3-.5 4.7.4 3.8 2 8.7.8 13 1.2.3 0 .5.2.5.6v14.7c0 1.2-1 2.3-2.3 2.3l-10 .4c-.6 0-1-.5-1.1-1l-1-14.5c0-.8-.7-1.4-1.5-1.4s-1.4.7-1.5 1.5c0 .2.3.4 1 .5.2 0 .4.3.4.5s-.2.4-.5.5c-1 0-1.8-.3-2.5-1-.3-.2-.6-.3-1-.3-3.3.3-6.3 1.9-9.2 2.4-4.3.7-8.5 1.2-12.5 1.5a2 2 0 0 0-1.8 1.7c-.7 4.6-.9 7.6-3.8 11.5-.2.2-.3.5 0 .8 2.1 4 3 8 2.6 11.9-1 10.1-1.9 20.3-2.7 30.4-.2 2.7 0 4.5.4 5.6 1 2.2 3 3 6 2.5 1.1-.2 1.7 0 1.5.8a1 1 0 0 1-1 .8 216 216 0 0 0-28 0 .5.5 0 0 1-.5-.5v-.4c0-.5.5-.9 1-.9h4.2c.4 0 .7 0 1-.4 1-1.2 1.5-3 1.2-5.2-1.7-15.5-2.7-27-3-34.4 0-2.3.5-5.4 1.5-9.5v-1a15 15 0 0 1-1-3.6c-1.5-9.6-4.2-10.5-13.5-9.8-1.5.1-2.9 0-4.3-.5a46 46 0 0 0-9.8-2 1 1 0 0 0-.8.4c-1.2 1-2.4 1-3.7.1a.5.5 0 0 0-.8.4Zm44.8-20.1c0-.2-.1-.3-.3-.3l-7.1.5c-.2 0-.3.2-.2.3v.8c0 .1.1.2.3.2l7.1-.5c.2 0 .3 0 .2-.2v-.8Zm-3 14.9c1.8-.4 2.4-1.6 2-3.4-.1-.3 0-.6.1-1 1.4-2 2-4.3 1.7-6.8 0-.3-.4-.6-.7-.6h-6.2c-.3 0-.5.2-.6.5l-.7 2.8.1.8c1.2 2.4 1.5 5.2 5.1 4.8.2 0 .3.2.1.3-1.1.6-2.2.6-3.4 0-.5-.2-.7 0-.6.5a4 4 0 0 0 1.1 2c.2.1.3.4.3.6 0 1 .3 2 1.1 2.7.3.3.5.2.7-.2l.8-1.8c.1-.4 0-.7-.4-.8l-.4-.1c-.2 0-.2-.3 0-.3Zm2.6 29.8a19 19 0 0 0-1 5.7c.3 10.3.3 20.5.2 30.7 0 .3 0 .5.3.6 1.3 1 2.4 1.2 3.3.6.6-.5 1-1.4 1.1-2.8.6-5.8 1-11.7 1.3-17.6.2-4.9.9-9.9 1.3-14.9 0-1.7-.2-4.2-.9-7.5-1.2-6-4.7-1.5-7-4.5-.3-.3-.2-.5.1-.7 4.1-1.3 3.5-4.1 5.7-6.5.2-.1.3-.2.5 0 .1 0 .2.2.1.4l-2.1 4.7c-.2.4 0 1 .6.9.5 0 1-.4 1.5-1 2.4-3.6 1.6-7.2 2.8-10.3a9.3 9.3 0 0 1 6.8-5.6c.4-.1.7.4.3.6l-2 1.5c-.1.1 0 .5.3.4 2.7-.5 5.6-.2 8-.6 2-.3 4.2-.9 6.4-1.7a1 1 0 0 0 .2-1.7c-1.3-.8-2.8-1-4.5-.7-4.9.8-9.8.5-14.6-1h-1c-2.3 1-4.4 2.2-6.2 4h-.3v-.3l.4-.8v-.3h-.3c-.8.7-1.7 2.4-2.5 3.3a1 1 0 0 0-.2.9c.1.7 0 1.2-.4 1.6-.3.3-.5.3-.8 0-3.2-2.6-7-6-11.1-6.5a26 26 0 0 0-8.8.4c-3.5.8-5.9.1-9.2-.3-1.4-.1-2.2.5-2.3 1.8 0 .3.1.5.3.7 4.8 2.4 9.9 3 15.2 1.9.3 0 .4-.3.4-.6v-.4c0-.7.9-1 1.4-.6 4.3 3.6 6.6 8.2 6.9 14 0 1 .8 1.7 1.8 1.7h4.9c.3 0 .4.1.4.4-.1.8-.5 1.3-1.2 1.3l-4.4.5a1 1 0 0 0-.7.5c-2.3 3.4-1.5 10.4-.8 14.3.5 3 .3 5.8.7 8.8 1 7.1.9 14.1 2 21.2.1.4.3.6.7.6h3.2c.4 0 .7-.2.7-.6-.1-11-.2-21.9 0-32.5 0-.6-.7-1.8-2-3.7-.2-.3.2-.8.6-.5l2 1c.3.2.6.1.7-.1l.6-1c.1 0 .3-.1.4 0 .2 0 .3.2.2.3Zm35.2-30.5-1.8.7c-.3.1-.4.4-.4.7s.4.6.7.6c1 0 1.6-.5 2-1.3a.5.5 0 0 0-.5-.7Zm-5.5 2.1c.3.2.8 0 1-.3.3-.4.2-1 0-1.1-.4-.3-.9-.1-1.2.3-.2.4-.2.9.2 1.1Zm-64.5 1.3c.2-.6-.4-1.3-1.3-1.5-.9-.3-1.7 0-1.9.7-.1.7.5 1.4 1.4 1.6.8.2 1.7-.2 1.8-.8Zm-5 .4c0-.4-.7-.9-1.7-1-1 0-1.9.3-1.9.8 0 .4.8.9 1.8 1 1 0 1.8-.3 1.8-.8Zm39 67.6.1-2.1c0-.8-.2-1-.8-.5-1 .7-1.2 1.6-.7 2.7.2.4.5.6.7.6.5 0 .8-.3.8-.7Zm-530.4-15.6 1.1 13.3c0 .2.1.4.4.4h3.8c.3 0 .6.4.4.8a4 4 0 0 0-.6 2.6c0 .5-.2.7-.6.7l-13.1.4c-.5 0-.8-.2-.9-.8v-.4c0-.3.3-.5.6-.5 4 1 7.8-.8 7.8-5.4 0-4.8-.4-9.7-1-14.5a1 1 0 0 0-.3-.6l-3.2-2.5a.5.5 0 0 1 0-.8l2.8-2.7c.2-.2.3-.5.3-.8-.5-4.3-.7-8.6-.6-12.9.1-4.3-.7-6.4-3.6-9.2-.2-.3-.4-.6-.4-.9-.5-3.5-.7-8-.7-13.7 0-3.2 1.2-5.4 3.5-6.8 1.7-1 3.5-.6 5.3-.7a2.2 2.2 0 0 0 1.9-3l-2-4.8a1 1 0 0 1 0-.8c.7-1.1.5-2-.5-2.8-.9-.6-.8-1.9.1-2.4 3-1.7 6.1-2.2 9.3-1.5 1.7.4 3.4 1.7 2.1 3.7a1 1 0 0 0-.2.9l.3 1.4v1l-2.4 6c-.3 1 .2 1.8 1.1 2 5.4 1.3 9.2 1.8 12 7.4 2 4.2 4.7 8.3 6.7 12.2a126 126 0 0 0 11 17c.7 1 .6 1.7-.4 2.4l-13.3 9c-.5.3-1.2.1-1.5-.4l-6.1-10c-.5-.8-.2-1.8.6-2.2 2.7-1.6 5.4-3.4 8.1-5.5 4.7-3.6-3.2-7-4.4-9.2a26 26 0 0 0-6.2-7.8c-.4-.4-.7-.3-.7.2 0 2.8-.8 5.3-2.3 7.6-.2.3-.2.6-.2 1 .6 3 1.4 5.8 1.4 8.7.3 8.4-.6 16.7-1 24.8 0 3.5-.3 7-.6 10.4-.2 2.1 0 3.7.6 4.7 1.2 1.6 3 2.1 5.6 1.4.3 0 .7.2.7.6v1c.1.2 0 .4-.3.4l-12.8-.7c-.5 0-.6-.2-.4-.6.7-1.2.4-2.2-.9-3-.3-.1-.6-.5-.6-1v-11c0-.7-.2-.8-.8-.6l-.6.2a1 1 0 0 1-1-.1l-2.7-2c-.2-.1-.6 0-.6.4Zm2-67.8 7.7-.3.2-.2v-.1c0-.8-1.8-1.4-3.9-1.3h-.4c-2 0-3.7.8-3.7 1.6v.1c0 .1 0 .2.2.2Zm6.7 1.3h-4.2c-1 0-1.8 1-1.8 2 0 4 1.8 7.1 3.9 7.1h.2c2.1 0 3.8-3.2 3.7-7.1v-.2c0-1-.8-1.8-1.8-1.8Zm-.7 9.4-3.7.5c-.4 0-.6.3-.6.7v.3c.2 1.2 1.3 2 2.6 1.9h.4c1.2-.2 2.2-1.3 2-2.4v-.4c0-.3-.4-.6-.7-.6Zm-2 4-.6-.3c-.2-.2-.5 0-.4.3l1.2 2c0 .1.2.1.2 0l-.1-.8c0-.4 0-.7.5-.7l.4-.1c.4 0 .4-.2 0-.3h-1.2Zm6.1 14.4-.7 1.6c-.5.9.5 1.8 1.4 1.4s1.4-1.2 1.5-2.3l1.2-9.7c0-.3.4-.6.7-.5.3 0 .5.2.6.5.1.7.5 1.5 1.1 2.3 2.6 3.3 4.8 6.7 6.7 10.3.9 1.7 2 2.8 3.5 3.3a.9.9 0 0 0 1-1.3l-8.9-15.8a6 6 0 0 0-3.5-3c-3.6-1.4-7.7 2.8-10.3 5.2-.4.4-.8.4-1.1.1-2.2-1.6-5.6-6-8.1-6.6h-.9c-1.3.8-2 1.7-2.1 3.3-.3 5-1.1 12.2 1.3 16.6a36 36 0 0 0 3.9 5.8c.8 1 2.3.2 2-1-.7-3.3-2.4-6.2-3-9.2l-2-10.9c-.1-.5 0-.5.4-.2 2.5 2.5 3 9.8 3.3 12.4 0 .3.3.6.7.6h4.2c.4 0 .7.3.7.7 0 .4-.2.8-.6.9l-2.8.5c-.4 0-.7.5-.5 1l2 6.5c0 .3.3.6.6.7 1.7.9 2.6 2.2 2.7 4 0 .4.1.7.3 1l5.4 6.5c.3.5.5.4.6-.1.4-6.9 1.3-11.9-1.1-19.2-.1-.3-.3-.5-.7-.5l-4-.3a.7.7 0 0 1-.7-.7c0-.3.2-.6.6-.7a5 5 0 0 0 4.2-3.5c0-.1.2-.2.3 0 .1 0 .2.2.1.3Zm-2.3-13-.6.5c-.1 0-.1.2 0 .2 0 .1.1.1.2 0l2.6-1.7c.1-.2 0-.4-.1-.4a2 2 0 0 0-1.7.9l-.4.4Zm20.3 21.5.3 1.9c0 .4.2.4.4 0 .3-.8.2-1.5-.3-2a.2.2 0 0 0-.4.1Zm-28.8 4.7.7.8c.2.3.5.4.7.1l.6-.5c.4-.4.4-1 0-1.4a1 1 0 0 0-1.4-.1l-.5.3c-.3.3-.3.5-.1.8Zm.7 5.6c0-2.4-1-4.4-3-5.8-.6-.4-.8-.3-.8.4l.8 12c0 .5.7.8 1 .4l3.3-3.9c.3-.2.3-.5 0-.8l-1-1.3c-.2-.3-.3-.6-.3-1Zm2.6.5c.6 0 1-1 .8-2.3 0-1.2-.7-2-1.3-2-.6 0-1 1-.9 2.3.2 1.2.8 2.1 1.4 2Zm2.5 18.6V362c0 .4.3.8.7.8l2.8.1c.3 0 .6 0 .8-.3.8-1 1.2-2 1.1-3.1a77 77 0 0 1 1-16.5c0-.5-.5-.7-.8-.4l-5.4 5.3c-.2.1-.2.3-.2.5Zm347 .3c-.6-2.7-2-3.5-4.7-3.3-4.1.2-3.3 7.5-3 10.3.1 2.9 2 4 5.3 3.6.2 0 .4-.2.5-.3.8-.8 1.5-1.4 2.2-1.8.4-.3.9-.2 1.1.2.3.3.2.8-.1 1.1-15.2 12.5-20.3-18.6-3-14.6l3.1.4c.4 0 .6.1.5.5l-.6 3.8c-.1.7-1 .7-1.2 0Zm123-3.4c0-1.4-2-1.9-2.5-.5l-1.7 3.8c-.3.6-1.1.4-1.1-.2l-.2-4.2c0-.4.3-.7.7-.7H688c.4 0 .6.2.5.5l-.5 4c0 .3-.3.5-.7.5s-.6-.4-.6-.7c.2-1.8-1-4.6-3.2-3-.4.2-.5.5-.5 1V359c0 .4.2.8.5 1.1l.6.7c.3.4 0 1-.5 1l-6 .2c-.6 0-.7-.2-.3-.7l1-1c.3-.4.5-.8.5-1.2v-13.8Zm-521.2 16.8c-4.2-.4-7.2-4.9-6.7-10 .5-5 4.3-8.9 8.5-8.5 4.2.5 7.2 5 6.7 10-.6 5.1-4.4 9-8.5 8.5Zm3.8-13.5c0-1.5-1.2-2.7-2.7-2.8h-.4a2.7 2.7 0 0 0-2.7 2.8v8.6c0 1.6 1.1 2.8 2.6 2.8h.4c1.5 0 2.7-1.2 2.7-2.7v-8.7Zm130.2-3.2h-4c-.8 0-1.4.6-1.4 1.4v13.4c0 .3 0 .5.3.7l.7.3c.3.2.2.7-.2.7l-5.9.3c-.4 0-.6-.6-.2-.8l.8-.4c.3-.2.4-.4.4-.8 0-3.2.8-13-.8-15.4v-.1l16-.9c.4 0 .6.4.6.7-.1.4-.3.7-.7 1a1 1 0 0 0-.5.9v13.8l.1.4.6.8c.3.3 0 .7-.3.6l-5.3-.1c-.4 0-.5-.5-.2-.7l.3-.3c.4-.3.5-.6.5-1l-.2-14c0-.3-.2-.5-.6-.5ZM29 353.2h-4.3c-.5 0-.8.2-.7.7l.4 7.7c0 .2-.1.3-.3.3l-6.2.1c-.5 0-.6-.6-.2-.8l1-.4c.4-.1.6-.4.7-.7.4-4 .5-8 .2-12-.1-1.6-.9-2.3-2.4-2.8a.5.5 0 0 1-.3-.5c0-.2.3-.4.5-.4h6.8c.4 0 .6.4.5.8-.8 1.8-1 3.8-.6 5.9 0 .3.3.5.7.5l4.2-.4c.3 0 .5-.2.6-.5a7 7 0 0 0-1.3-5.8c-.1-.3 0-.6.3-.6h5.5c.4 0 .5.2.4.6-1.1 5.5-1.2 11-.2 16.5.1.4 0 .5-.4.5h-5.1a.3.3 0 0 1-.3-.6l.8-1c.3-.3.4-.7.4-1l-.2-5.7c0-.3-.2-.4-.5-.4Zm388.7 2 3.2-.2c.5 0 .9-.4.8-.8v-7.5a1 1 0 0 0-.3-.8c-.7-.6-1.5-1-2.5-1l.1-.3h.1c3.3.6 6.9-.8 7.4 4 .8 6-3.6 7.8-8.6 8.4-.3 0-.6.2-.7.5-.8 1.7-.3 3 1.3 3.5.2.1.4.4.3.7 0 .3-.3.5-.6.5l-7.1-.2a.4.4 0 0 1-.4-.4c0-.2.1-.5.3-.5l1.4-.2c.3 0 .5-.3.5-.6l-.3-13.7c0-.4-.1-.8-.4-1l-.4-.6c-.3-.3 0-.7.4-.7l5.4.2c.2 0 .3.1.2.4-1.6 2.7-.6 6.4-.6 9.8 0 .3.2.5.5.5Zm303.8 40.3a1.3 1.3 0 0 0-2.6-.2c-1.3 6.9-2.3 13 .8 20.3.1.4.3.4.3 0a2 2 0 0 0-.1-1.1c-.2-.3 0-.7.3-.8.4 0 .6 0 .9.3l.2.7c.1 3 .4 5.8.9 8.7.4 2.6.3 6.7 1.7 10.3.3.7 1.3.8 1.6 0l.5-1c.1-.2.5-.3.6 0 .9 1 2 1.4 3.3 1.2.4 0 .6.2.6.6 0 3-4 2.1-5.8 2-.8-.1-1.5.4-1.6 1.2-.5 2.6-.8 5.2-1 8-.3 3.9.3 8.3.4 12.6 0 1.2.3 3.5.7 6.7.4 3 0 6 .5 9.1.5 2.6.7 5.2.7 7.8 0 .4.2.6.6.5l4.5-.1c.4 0 .7-.4.7-.8v-34l-.2-1-1-2.4c-.2-.2 0-.5.1-.6.2 0 .5 0 .6.2.7 1.3 1.5 1.4 2.4.3.4-.5.6-.5.5.2-.8 4.7-1.1 9.5-1 14.3.3 6.7 0 13.3-.5 20 0 .8.2 2 .8 3.3.2.3.4.5.8.5h2.6c.4 0 .7-.2.7-.7 1.3-9.4 2.2-19 2.8-28.4.3-4.4.8-12.3-1.4-16.1a.8.8 0 0 0-.7-.5c-1.8.1-3 0-3.6-.2-1-.3-1.1-1.1-.7-2.4.3-.8 1.3-1 1.9-.5.5.5 1.2.6 1.9.4.2 0 .4-.2.6-.5 1.4-2.6 2-4.4 2-5.5-.6-5 0-9.7 1.8-14 .8-1.8 2-2.4 3.6-2 .2.1.5 0 .7-.1l2.9-2.9c.5-.4.6-.3.5.3-.3 1.7-.9 2.8-1.8 3.5-4.4 3.4-6.2 6-6.2 11.7a23 23 0 0 1-1.8 9v1a38 38 0 0 1 2 10.3 277 277 0 0 1-1.8 26.2c-.8 5.1-2 11 .7 14l.7.2 4.4.2c.4 0 .7.3.8.6.2.7 0 1-.6 1-4.3 0-8.7 0-13-.2-.4 0-.6-.2-.6-.5v-2.4c0-.5-.1-.5-.5-.3-.8.7-1.1 1.5-.8 2.6.1.5 0 .8-.6.8l-12.8.3c-.4 0-.7-.2-.8-.6 0-.4 0-.6.3-.9l.7-.2c1.3-.2 2.5-.3 3.8-.3.3 0 .6-.1.8-.3 1.3-1 1.8-2 1.7-3.2-.7-6.4-1.2-12.8-1.4-19.2l-.9-9.4a44 44 0 0 1 1.2-15.1c.4-1.7.6-3.2.4-4.6l-1.8-10.5c-1-5-4-9.7-4.2-14.9 0-4.3.6-9.8 1.8-16.3.5-2.2-.3-3.7-.6-5.9 0-.3.1-.7.4-.9l.8-.7c.2-.3.3-.5.3-.8l-.4-10.2c0-.4.3-.7.7-.7h17c.5 0 1 .5.9 1l-.1 11c0 1-.5 1.4-1.5 1.3l-12.6-.6c-.4 0-.6.2-.6.6 0 1.2-.1 2.5-.5 3.7v1c.7 2.5.9 5.1.5 7.8-.4 3.4.4 5.8.8 9a5 5 0 0 0 2.9 4c.7.3 1.4-.4 1.2-1-1-3-1.4-6-1.2-9.1 0-.4.2-.6.5-.7 2.7-1.4 5.6-1.5 8.5-.5 1 .4 1.6 1.5 1.1 2.5-1.2 2.7.9 4.8-1.8 7.5-.1.2-.2.5 0 .7.2.2.5.2.7 0 3.6-2.3 7.4-4 10.2-7.2s5.5-6.6 8-10c1.8-2.1 1.8-5 5.4-5.8.4 0 .7-.3 1-.6l5.6-7c.6-.7 1.3-.7 2 0l12.6 10.6c.5.4.5 1.1.1 1.6l-7.7 8.4c-.3.3-.6.3-.9 0L761 392c-.4-.4-.8-.4-1.1 0-3 2.5-5.3 5.6-6.6 9.5-.2.8-.7 1.3-1.5 1.6-.5.3-.6.1-.2-.3 1.3-1.7 2-3.6 2.2-5.8 0-.4.2-.7.6-.8.7-.2 1-.6 1-1.4 0-.7-.7-1-1.1-.5-3.6 4.4-9.4 9.3-9.8 14.9 0 .2-.2.3-.3.3-.2 0-.3-.1-.4-.3l-.2-1.1c0-.5-.6-.7-1-.4a28.8 28.8 0 0 0-9.7 12c-.4 1-1.5 1.2-2.3.6-2-1.8-3.7-3.9-5.1-6.2-1.7-3-4.4-4.3-3.7-8.6 0-.3-.2-.6-.5-.7l-.8-.1c-.4-.2-.6-.4-.4-1a29 29 0 0 0 1.4-8Zm-1-5.7c.5-.1.6-1.4.2-2.7-.4-1.4-1.2-2.4-1.6-2.3-.5.1-.6 1.4-.2 2.8.4 1.4 1.1 2.4 1.6 2.2Zm37.5 1.4c-1.5-1-2.4-.7-2.7 1-.3 1 1 1.8 1.9 1l1-1c.3-.3.3-.7-.2-1Zm-37.3 3c.6-.1.9-.9.7-1.7-.1-.8-.7-1.4-1.2-1.3-.6.1-.9.9-.7 1.7.1.8.7 1.4 1.2 1.3Zm6.3 7.7 7-.3c.2 0 .3 0 .3-.2 0-.9-1.7-1.4-3.6-1.4h-.4c-2 .1-3.5.8-3.5 1.6 0 .2.1.3.2.3Zm5.6.8-4.1.4c-1 .1-1.7 1-1.6 2v.1c.3 3.7 2.2 6.6 4.1 6.4h.8c1.9-.3 3.1-3.5 2.8-7.2-.1-1-1-1.8-2-1.7Zm0 9.7-4-.4-.4.2v.2a2 2 0 0 0 1.9 2.2l.5.1a2 2 0 0 0 2.3-1.8v-.2c0-.1-.1-.3-.3-.3Zm9.4 2.2c.2.1.7-.2 1.1-.7.4-.5.7-1 .5-1.2 0-.1-.6.2-1 .7-.5.5-.7 1-.6 1.2Zm-10.4 1-.2-.2H730c-.6 0-.7.1-.2.5l.7.7c.4.3.7.2.8-.3l.2-.7Zm-523.3 1.7h2.2c.7.1.9-.2.5-.7-.5-.7-.3-1.2.4-1.6.4-.2.6-.5.7-.9.2-.9 0-1.5-.9-1.8a.4.4 0 0 1 0-.7l1.1-.6c.4-.1.6 0 .7.3.5 2.2 2 3.5 4.3 4 7.5 1.4 15.5 13.2 18.9 19.5.1.3.1.6 0 .8-1.1 1.6-2.5 3.5-1.9 5 .6 1.5 3 1.2 3.1-.5l.2-2.2c0-.3.6-.4.7 0a69 69 0 0 0 6.2 11.1c.8 1.3.6 2.4-.8 3.2l-11.8 7.6c-.6.3-1.3.2-1.7-.4l-5.2-8.7c-.3-.6-.2-1.4.4-1.8l7.6-5c.3-.3.4-.6.4-1l-.1-4.3a1 1 0 0 0-.4-.8l-13-11.6c-.3-.3-1 0-1 .5 0 3-.7 6-1.8 8.8a1 1 0 0 0 0 1c1 3.6 1.9 6.4 1.5 10.3-1.3 12-2.3 23.9-3.1 35.8 0 .3 0 .6.3.7 1 .8 1.8 1.8 2.3 3 .2.3.4.4.7.5l2.7.2c.1 0 .2 0 .2.2l.1.4c.1.2 0 .4-.3.4a214.3 214.3 0 0 0-26-.1.8.8 0 0 1 .6-1.4c2-.2 3.3-1 4-2.4.5-.9.6-2.3.4-4.2a409 409 0 0 1-2.3-32.3c0-3 .8-6.8 2.3-11.6v-1c-1.7-3.6-2-8-3-11.2-1.4-4.8-3.5-10.5-3.6-15 0-3.8.7-7.9 2.3-12.2 1.6-4-1.6-8.5 2.3-11.7.3-.2.5-.6.5-1l1-9.9c0-.1 0-.3.2-.4 1-.5 2-.7 2.8-.6 5.4.4 9.7.4 12.8 0 2.3-.3 3.4.6 3.4 2.7v9.7c0 .5-.5.8-1 .8h-14.8c-.4 0-.6.2-.7.5a50 50 0 0 0-1.7 21.8c.3 2.1 1.2 3.5 2.9 4.2 1 .4 2-.5 1.6-1.5l-1-2.6c-.8-2 0-4-1-6.1a1 1 0 0 1-.2-.7c.1-1.2.8-1.8 2-1.8l.2.2-.2.2c-1 .2-1.3.8-1 1.8 0 .3.2.4.5.3 3-.8 6-1 9-.5.5 0 .8-.7.3-1l-2.8-1.6a.4.4 0 0 1-.1-.5c0-.2.3-.3.5-.2l4 1.9c.5.2.6.7.4 1.1a8 8 0 0 0-.8 4.5c0 .1 0 .3-.2.4l-.7 1.2c-.2.2-.2.2-.3 0l-.2-2.9c0-.6-.5-1-1.1-1.1l-5-.5a2 2 0 0 0-2 1.2c-1.2 3.6-.2 6.4 3.2 8.2.3.1.3.2 0 .3l-1 .1c-.9.2-1.2 1.3-.5 2 .6.5 1.3.7 2.2.7l.2.2c0 .1 0 .2-.2.2l-1.4.2c-.2 0-.4.2-.4.5 0 .2.2.4.4.4Zm-10.6-28.5.1.6.8 1.5a1 1 0 0 0 1.7-.2l.6-1.7c0-.3 0-.6-.2-.8l-1-1.5a1 1 0 0 0-1.7.4l-.3 1.7Zm2.2 6c.3-.3.1-1-.4-1.5-.6-.5-1.3-.6-1.6-.3-.3.4 0 1 .5 1.6.5.5 1.2.6 1.5.3Zm21.3 27.8-.4 1.1c-.1.3 0 .7.2 1 1.8 2 4 3.6 6.7 4.7.2.1.4.3.4.6 0 2.7 1.4 4.3 4.1 4.7.4 0 .7.2 1 .5l.1.2a.6.6 0 0 0 1-.6 55.7 55.7 0 0 0-12-16c-4.7-4.2-9.1.5-12 4-.8.8-2.2.7-2.8-.4-2-3.5-4.5-8.8-7.8-11a1 1 0 0 1-.4-1l.6-13.7c0-.5-.4-1-1-1.2-.5-.1-1.1.2-1.3.7-3.3 8.1-3 16 .7 24h.3l.2-.2-.3-1.4c0-.2.2-.4.5-.4.2 0 .4 0 .5.3 1 3.7-.2 7.2.3 10.3.3 2 1.5 6.1 4 6 .3 0 .4-.2.3-.4l-.8-2.7c-.1-.5.5-.9.9-.5 1.7 2 4 5.4 7 3.1.3-.2.6-.2.9-.1l2.6.6c.3.1.7 0 .9-.4 1-2 1.5-4.2 1.6-6.4.2-2.8 1.2-4.7 3.5-5.9.3-.1.7.2.5.5Zm-6.2-5c.3-.2.6-.3.8-.6.2-.2 0-.5-.2-.5-1 0-1.8.6-2.3 1.5-.2.4.3.7.6.4l.6-.5c.1-.2.3-.3.5-.3Zm-4.8 1c0-.3-.4-.5-.9-.4-.4 0-.8.3-.7.6 0 .2.4.4.8.3.5 0 .8-.3.8-.6Zm.4 27.5a9.2 9.2 0 0 0-2 6.1l-.3 29.6c0 .4.2.7.6.8l4.3.8c.4.1.7-.2.8-.5 1.5-9.9 1.5-20 2.2-30 .5-6 1.7-9.9-1-15.8a.8.8 0 0 0-.8-.4c-1.7 0-3.3-.2-4.8-.9a1 1 0 0 0-.7 0c-1.7.8-3.4 1-5.2.8-1-.1-2 .6-2.1 1.5-1 5-2 9.3-1.5 14.3l2.2 29.3c0 .7.7 1.3 1.5 1.1l2.7-.5c.3 0 .5-.2.5-.6l.4-33.2c0-.4-.2-.7-.4-1-.6-.5-.8-1.2-.8-2 0-.5.6-.6.8-.3.9 1.4 2 1.5 3.2.5 1.6-1.3 1.7-1.1.4.4Zm-1.3 38c0-.6-.4-1-1-1h-.1c-.5 0-.9.4-.9 1v1.7c0 .5.4.9 1 .8h.1c.5 0 .9-.4.9-.8V484Zm103.5-90.7c-.6-.2-1-.5-1.2-1-.4-1-1-1.2-1.9-.6l-10.4 6.7c-.7.4-1.5.2-1.9-.4l-6.4-9c-.5-.8-.3-1.9.5-2.4l12.7-8c1.1-.7 2.6-.3 3.2 1 1.7 3.5 4 6.5 7 8.9 2 1.6 3.4 3 4.3 4.1a58 58 0 0 1 6.5 9.3c1.8 4.3 4.3 8 7.4 10.9 1 1 2.6 0 2.2-1.3l-1.2-4.6v-.6c.6-1.5.3-2.7-.8-3.8-.6-.6-.5-1.6.3-2 3.7-2 7.5-2 11.2-.1.4.1.5.4.5.8v4.8c-.3 2.3-1.4 4.5-2 6.9-.1.3 0 .6.4.7 1.9.6 4.2.5 5.7 1.1 3.6 1.3 4.6 4 3 8.3a91.3 91.3 0 0 1-5.2 11.5 1 1 0 0 0 0 .8c1.4 3.6 2 7.3 1.7 11.2l-3 34.4c-.1 1.7.7 3 1 4.7.1.4.4.7.8.7h4c.3 0 .4.1.5.3l.2.6c.1.4 0 .7-.5.6-10-.9-19-1-27 0-1.1 0-2-.2-2.3-.8-.3-.4 0-1 .5-1h6c.3 0 .6 0 .8-.3a7.4 7.4 0 0 0 1.9-6.2c-.5-4.7-1.3-14.8-2.4-30.2-.3-3.2 0-6.2.4-9.3 0-.3-.2-.6-.5-.6h-2.5c-.5 0-.7.3-.7.8l.4 13.1c0 .3 0 .4-.3.5l-10.6 2.7c-.8.2-1.7-.4-1.8-1.3l-1.5-15.3c0-.3.2-.6.5-.7 3.8-1 7.7-1.8 11.6-2.5 2-.4 3.1-1.5 4.5-2.8h.3l.2.1v.1c-1 .7-1.6 1.5-2 2.6-.5 1 .5 2.2 1.6 1.9 1.2-.4 2-1.2 2.5-2.5.2-.3.2-.6 0-1a64.2 64.2 0 0 1-2.3-7.2c-1-5-1.1-7.9-4.3-11.8-4.6-5.7-5.3-12.5-8.2-18.8l-.2-.8c0-2.3-1.3-2.8-3.1-3.2Zm3.3-2-3.5-.9c-.2 0-.5 0-.5.3v.1c-.3 1 .4 2.1 1.5 2.4h.3c1.1.3 2.2-.3 2.4-1.3v-.1c.1-.2 0-.5-.2-.5Zm1.7 2.8c0-.3-.4-.5-.8-.4-.4.1-.6.4-.6.7.1.2.5.4.8.3.4 0 .6-.4.6-.6Zm16.8 39.5c-.6-.6-1.3-.7-2 0-1 .6-.2 2.1.9 1.8a23 23 0 0 1 6-.7c6.8 0 8.5-5.2 10.7-11 1-2.3 1-5.7-1.7-6.8-3.8-1.6-6.8 4-8.7 6.6-.2.3-.5.4-.9.3a4 4 0 0 1-2.7-2 473 473 0 0 1-15-24 4.6 4.6 0 0 0-2.4-2.2.8.8 0 0 0-1 1.1c2 3.8 3.4 7.8 4.4 11.8.4 1.5 1.2 2.7 2 4 .3.2.5.4.9.4 1.7.3 2.8 1.3 3.2 3 .7 2.9 1.3 7 2 12.7 0 .5.4 1.6 1.1 3.2.1.2.4.3.7.2l8.2-2.8c.3-.1.5-.4.7-.7l4.1-8.6c.3-.6.7-1 1.3-1.2.4-.1.7.3.5.7l-3.6 7.4-.2.5v2.9c-.1.3-.4.6-.8.5-3-.8-5.5.2-7.3 2.9-.2.2-.3.2-.5 0Zm0-32 7.8.2.2-.2v-.1c0-.7-1.7-1.4-3.9-1.4h-.4c-2.1 0-3.9.5-3.9 1.2v.1c0 .1 0 .2.2.2Zm6.6 2h-4.4c-1.1-.1-2 .7-2 1.8v.1c-.2 3.7 1.2 6.8 3 6.8h1.7c1.8.2 3.5-2.8 3.6-6.5a2 2 0 0 0-1.9-2.1Zm.4 10.3c-.1-.6-1.3-1-2.6-.7-1.3.3-2.3 1-2.2 1.6.1.6 1.3 1 2.6.7 1.3-.3 2.3-1 2.2-1.6Zm-1.9 3c0-.4-.6-.7-1.4-.7-.7 0-1.4.1-1.4.5 0 .3.6.5 1.4.6.8 0 1.4-.2 1.4-.5Zm-.6 2.4c.3 0 .5-.2.6-.5 0-.4 0-.7-.5-.7h-.8c-.5-.1-.7.1-.6.6l.4 2.6c0 .2.2.4.5.4.2 0 .4-.2.3-.5l-.2-1.5c0-.2.1-.3.3-.4Zm2 24.9c-1.5 1.9-2.3 3.5-2.3 4.7l-.5 32.7c0 .4.2.6.5.6l4.3.7c.4.1.8-.2.8-.6a825.6 825.6 0 0 0 2.6-35 28 28 0 0 0-.9-10.1c-.1-.6-.7-1-1.3-1-3 .2-10 0-12.4 1.8-.2.2-.4.4-.4.7-1 4.2-1.3 8.2-1 12.2l2.1 28.4a5 5 0 0 0 1.9 3.6c.3.3.8.4 1.1.1 1.1-.8 1.6-2.2 1.7-4.2v-32.6a2 2 0 0 0-.3-1c-.2-.3-.4-.7-.3-1 0-.5.4-.7.7-.4l1 .9c.3.2.5.2.8 0l1.4-1h.4v.5Zm-3.8 41.1c0 .5.5.8 1 .5l.5-.3c.4-.2.4-.5.1-.9l-1-1c-.4-.4-.6-.3-.6.3v1.4Zm-251.5 1.3 5.5-.1c.3 0 .5.1.6.4l.1.2c.1.4-.1.8-.5.8l-30-.2c-.2 0-.4-.1-.4-.4 0-.6.4-.9 1-.9h5c.5 0 .8-.2 1-.5l2-2c.1-.2.2-.5.1-.8-.8-3.2-.6-7.2-.9-9.6a723 723 0 0 1-2-24c-.2-4.7.3-9.4 1.6-14.2l-.1-1a20.2 20.2 0 0 1-2.3-8.7c0-1-.6-2.3-1.8-4.1-.7-1-1.7-2-3-3.2-4.7-4-8-8.9-10.3-14.6-1-2.6-2.5-4.6-3.7-7a1 1 0 0 0-.7-.5l-4.2-1a1 1 0 0 0-1 .3l-6.5 6.7a1 1 0 0 1-1.4 0l-8.1-10.6a.5.5 0 0 1 0-.7l11.8-10.6c.7-.7 1.9-.6 2.5.2 2.7 3.5 5 6.8 8.2 10 2.8 2.8 5.3 5.9 7.4 9.2 2.9 4.4 4.7 7 5.4 7.8 2.7 2.6 5.9 4.5 9.6 5.7 1.3.4 2.6-.9 2-2.2l-1.3-4v-.4c.5-1 .4-2 0-3-.5-.7-.2-1.5.4-2 3.8-2.5 7.4-2.5 11 .1.4.2.5.5.5 1a23 23 0 0 1-1.7 8.1c-.6 1.4 1 2.7 2.3 1.9 2.7-1.9 5.3-3.9 7.7-6 1.3-1.1 2.6-2.7 3.8-4.8 1.8-2.8 3.8-5.4 6-7.8 1-1 1.2-2.2 2.4-3 1-.9 2-.3 3.2-2l5.8-7.6c1.2-1.6 2.5-1.7 4-.2l10.4 11.5c.2.2.2.5 0 .8l-9.6 10.4c-.2.2-.5.2-.7 0l-7.5-8.5a1 1 0 0 0-.8-.3c-3 .4-5 2.2-6 5.3a33 33 0 0 1-10.8 16.6 8.5 8.5 0 0 0-2.7 5.5c-.5 4.4-1.7 8.6-3.6 12.6a1 1 0 0 0 0 .9 15 15 0 0 1 2 9c-1.2 6.2-2 12.5-2.4 18.8-.1 2.8-1.1 6-1.1 9 0 3.9-.4 6.7-.7 10 0 .5.1.7.5 1 .8.4 1.3 1.1 1.4 2.1 0 .4.2.6.6.6Zm18.3-92.1 1.5-2.5c.2-.5-.3-1-.7-.7-1.2.6-1.6 1.7-1.4 3 0 .3.5.4.6.2Zm-56.9-1.2-1-1a.6.6 0 0 0-1 .2l-.6 1.2c-.2.4 0 .9.5 1l3.5.2c.4 0 .7-.2.8-.6.1-.4-.1-.7-.5-.9h-1c-.2.1-.5 0-.7-.1ZM107 395c.4-.2.7-.7.5-1.3-.2-.5-.7-.9-1.1-.7-.5.1-.7.7-.5 1.2.2.6.7.9 1.1.8Zm-24 34.2-1.8 4.4c-.2.4 0 1 .5 1 4.6 1.2 5.4-9 5.5-12.5.1-3.2 1-5.7 2.2-8.5.2-.3.5-.4.8-.3.3 0 .4.4.4.7l-.4.8v.5h.5a30 30 0 0 0 10.6-15c.6-1.5-1.4-2.6-2.5-1.4-2 2.2-3.4 4.8-4.4 7.8-.2.6-.6 1.5-1.4 2.6 0 .1-.1.1-.2 0l-.3-.3v-.5c.3-.4.4-.8.3-1.2 0-.3-.4-.3-.6-.1-1 2-2.5 3.3-4.5 4l-.7.5-8.1 11.7c-.7 1-2.1.8-2.7-.2-3.5-6.8-9.2-10.4-15.4-14.6-.3-.2-.5-.2-.8 0l-.6.6c-.4.4-.7.3-.9-.2-1-3.7-2.8-7-5-10.1a2 2 0 0 0-1-.6c-1-.2-1.5-.8-1.6-2 0-.4-.2-.6-.5-.6-.5 0-.8.2-.7.6A35.2 35.2 0 0 0 62 415.8c.4.3.6.2.7-.2l.3-1c.2-.3.7-.4 1 0a27 27 0 0 1 4.5 12.9c.2 3.2.7 4.8 2.7 7 .4.6 1.3.3 1.4-.4v-1c.1-.5.8-.6 1-.1.3 1.2 1.1 1.8 2.4 1.9.4 0 .6.6.2.8-1.4.7-2.9 1-4.5 1-.3 0-.6 0-.9.3-2.5 2.4-2 12.2-1.7 15.7 1 10 2 20 2.8 30 0 .3.3.6.7.6h1.9c.5-.1 1-.5 1-1l.1-35.6c0-.3 0-.6-.2-.9l-1-1.2a.5.5 0 0 1 0-.6c.2-.2.5-.2.6 0 1.1.7 2.2.8 3.4.3.4-.2.8.3.5.6l-1.4 2a1 1 0 0 0-.3.7v35c0 .3.1.5.5.5l3.6.6c.3 0 .7-.2.7-.5.9-9.1 1.6-18.2 2.3-27 0-1.2.4-3.3 1.1-6.4.9-4 .7-8.1-.6-12.3-.1-.4-.5-.7-1-.8l-5.2-.4c-.6 0-.8-1-.2-1.2a8.1 8.1 0 0 0 4-6.2h.1c.2-.2.3-.2.5-.1.2 0 .3.1.2.4Zm19-30.6c.5-.1.8-.8.6-1.6-.2-.8-.8-1.3-1.3-1.2-.5.1-.8.9-.7 1.6.2.8.8 1.3 1.3 1.2ZM72.7 403l8.3-.2.1-.2v-.1c0-.8-1.8-1.5-4-1.4h-.5c-2.2 0-4 .7-4 1.6v.1c0 .1 0 .2.2.2Zm6 10.4c2.2-1.7 3.3-5.5 2.8-8 0-.4-.3-.7-.7-.7l-5.7-.6a2.6 2.6 0 0 0-2.3 4c.8 1.2 1.4 2.5 1.8 4 0 .3.3.5.7.7l2.5.8c.3 0 .6 0 .9-.2Zm1 .1-4 .4c-.2 0-.3.1-.3.3v.3c0 .7.8 1.2 1.6 1.1l1.7-.1c.8-.1 1.5-.7 1.4-1.4v-.3c0-.2-.2-.3-.3-.3Zm1.5 4c.2.3 1-.3 1.6-1 .6-.9 1-1.7.7-1.9-.2-.2-.9.4-1.6 1.2-.6.8-1 1.6-.7 1.8Zm-3.2-.2.3-.3c.3-.3.1-.7-.2-.7L77 416c-.3 0-.5.3-.4.6l1 2.3c0 .2.3.3.5.2.2 0 .3-.3.3-.5s-.2-.4-.3-.5c-.4-.3-.4-.6 0-1Zm-1.3 69.6c.5-.1.8-.7.6-1.4-.2-.6-.7-1-1.1-1-.5.2-.8.8-.6 1.4.1.7.6 1.1 1.1 1Zm401-3.6c1 .6 1.7 1.4 2.1 2.5l.4.3 2.9.5c.2 0 .4.2.3.5 0 .2-.2.4-.4.4l-26-.2a.5.5 0 0 1-.5-.4c0-.2.2-.5.4-.5 1.3-.2 2.8 0 4-.4 3.3-1.4 1.8-3.9 1.6-6.3-.7-8.8-1.6-17.5-2.6-26.2-.5-4.9.3-10.7 2.6-17.3v-1l-3.8-10.9c-.2-.6-.8-1-1.5-1.1a166 166 0 0 1-20-2.9 10 10 0 0 0-6.3.5h-.9a3 3 0 0 0-1.9.3c-.3.1-.4.3-.4.6l-.3 12c0 .4-.5.9-1 .9l-11.9.1c-.3 0-.4-.1-.5-.4-.4-5-.2-10.3-1-15.2-.3-2.1 1.7-2.8 3.5-2.7 3.6.2 7.2 0 10.7-.5 1-.2 2.4-.3 4.3-.3 2 0 4-.7 5.9-.5 9 .6 18.5.2 28.2-1.1.6-.1 1-.7 1-1.3l-1-4c-.4-1.8.2-4-1.9-5.6a.6.6 0 0 1 0-1l1.3-1.2h.6c.2.2.2.4 0 .6l-.2.4c-.4.5 0 1.1.6 1 2.6-.7 5.2-.7 7.7 0 .5.1.9-.5.5-.8-1.6-1.9-4.1-1.3-6.3-1a.4.4 0 0 1-.4-.3c0-.2 0-.4.2-.4 2.8-1 5.4-.8 7.9.6.2 0 .4.3.4.6a5 5 0 0 1-.5 2.2v1a8 8 0 0 1-1.4 6.4 2 2 0 0 0 1.6 3.3c2.4 0 4.5.8 6.5 2.3 3.2 2.5 4.3 6.6 7.7 9 2.6 1.8 4.3 3.3 5 4.6 4 6.7 8.5 13 13.4 18.7.3.4.3 1-.1 1.4l-11.8 9a2 2 0 0 1-2.6-.3l-6.2-7c-.6-.8-.5-2 .2-2.6l7.5-6.1c.5-.4.4-1-.1-1.3-1.6-.8-2.2-2.2-1.6-4 .3-1-.1-2.1-1-2.7a70.5 70.5 0 0 1-11.4-9c-.3-.3-.6-.2-.8.2a23 23 0 0 0-2 6.4 15 15 0 0 0 .6 5.8 35 35 0 0 1 1.3 11.7l-3 32c0 .3.1.5.4.7Zm-5.6-79.6-4.1.6c-1 .1-1.7 1-1.5 2v.2c.5 3.8 2.5 6.7 4.6 6.5h.3c2-.3 3.2-3.7 2.7-7.6v-.1c-.1-1-1-1.7-2-1.6Zm.6 10.6c0-.5-.4-.9-.9-.8l-2.8.1c-.4 0-.8.5-.8 1v.3c0 .4.5.8 1 .8l2.7-.2c.5 0 .9-.4.8-1v-.2Zm-37 4.5c.6-.2.8-.8.6-1.5-.2-.6-.7-1-1.2-.9-.5.2-.8.8-.6 1.5.2.6.8 1 1.3.9Zm45.3 4.6.2.8a73.5 73.5 0 0 0 13.8 11.2c.5.3.7.1.5-.4-.8-2.9-4.3-5.2-6.3-7-3.2-2.7-4.8-6.4-7.2-9.2-3.6-4.4-7.9 1.6-10.8 4.6-.2.2-.5.2-.8 0l-8.1-5.8c-3-2-6.7-1.1-10.1-.9-4.3.3-8.9-.5-13.3 0-.6.1-1.1.6-1.1 1.3 0 .6.4 1.2 1 1.3 6.3.9 11.2 2.6 18 1.2.4 0 .7 0 1 .2 2.5 2.2 5 10 5.8 12.5.1.3.4.6.7.7a7.1 7.1 0 0 0 7 .2l.7.1.7.5c.5.4 1.2.3 1.6-.3 1.8-3 3.3-6 4.5-9.3a4 4 0 0 1 1.7-2c.3-.1.5 0 .5.3Zm-51-5.8h-1.4c-.4 0-.8.3-.8.7 0 .4.2.8.7.9a9 9 0 0 0 4.2-.3c.4-.2.5-.4.4-.9l-.6-1.3a.6.6 0 0 0-1-.1l-.6.6a1 1 0 0 1-.8.4Zm45.5.2 1.2-.7c.2 0 .2-.5-.1-.5-.4-.1-.8 0-1.1.3-.2.3-.3.5-.3.8h.3Zm-3.8 27.7c.1 0 .3 0 .4.2v.5a4.6 4.6 0 0 0-2 3.8v32c0 .4.2.5.5.5l4.6.2c.4 0 .7-.2.7-.6.2-4.6.7-9.4 1.3-14.2.7-5.2 1-12.3 1-21.4a24 24 0 0 0-1.7-8.3c-.3-.9-.8-1.4-1.6-1.5a10 10 0 0 1-4.1-1.3 1 1 0 0 0-1 0 8 8 0 0 1-5.5 1.3c-.4 0-.7.2-.8.5l-.9 3.5a69 69 0 0 0-.4 21.7 221.5 221.5 0 0 1 2.3 20c0 .3.2.4.6.4h2.8c.4 0 .7-.4.8-.8.1-8.4.1-16.8-.1-25.2-.1-2.5.5-6.1-.3-9.3 0-.4 0-.7.5-.9l3-1Zm24.5-4.6 2-3c.1-.2 0-.5-.2-.6l-.3-.2c-.7-.5-1.7-.2-2.2.6l-.6 1c-.5.7-.3 1.7.4 2.1l.3.3c.2.1.5 0 .6-.2ZM470 483.6c-.3-.3-.8 0-.8.4v1.4c0 .4.6.6.8.3.6-.7.5-1.4 0-2Zm169.9-63.5a5 5 0 0 1-4-1c-.2 0-.5-.2-.8-.1l-22.5 3.2a1 1 0 0 0-.7.4c-2 3.2-2.4 8-3.4 11.7a9.4 9.4 0 0 0-.1 4.2c.6 3 1.2 5.8 1 8.9-.3 5.3-.5 10.4-1.1 16-.7 6.1-1.2 12.4-1.5 18.6 0 .4.2.7.5.9a6 6 0 0 1 2.8 2.4c.2.3.5.5.8.5l3 .3c.2 0 .4.3.4.6 0 .2-.3.5-.5.4a549 549 0 0 0-26.4-.1.5.5 0 0 1-.4-.6c0-.2.3-.4.5-.4 6.5.8 5-9.4 4.7-13-.8-7-1-11.4-1.6-17.4a45 45 0 0 1 2.2-19.5v-1.2c-1.4-2.6-2-5.5-2-8.5 0-.5-.6-.7-.8-.3a39.8 39.8 0 0 1-8.6 8.1 23 23 0 0 0-4.6 4 79 79 0 0 0-3.5 4.5c-.2.3-.1.5.1.8l9 8.8c.5.4.5 1 .1 1.5l-7.9 9.1c-.2.3-.6.3-.9 0l-11.6-10.6c-.6-.5-.7-1.3-.2-2l6.7-8.4.5-.9c.2-1.1.5-2 1-2.5a381 381 0 0 1 12.8-15.5c4-4.6 4.4-9.2 12.3-8.7a2 2 0 0 0 2-2.6l-1.5-4.5v-1c.5-1 .3-1.9-.6-2.5a.8.8 0 0 1-.3-1c.4-1 1.3-1.8 2.7-2.3 3.5-1.2 6.3-.9 8.6 1 .3.2.4.7.1 1-.8 1.3-1 2.6-.3 4v.9a12 12 0 0 0-1.9 4.3 2 2 0 0 0 2.2 2.2c6-.9 12.1.2 17.5.2 3 0 8.3-.4 10.8 1.1.4.2.7.2 1 0 1.6-1.2 3-1 4.5.4l.4.2 12.9-.6c.4 0 .6.2.6.6l.5 17.3c0 .5-.4 1-.9 1l-11.5.7a.9.9 0 0 1-.9-.9l-.4-13.2c0-.4-.4-.6-.8-.6Zm-42.3-17.8c2-.7 4-.7 6 .1.3.2.6-.3.4-.6-1.3-1.8-5.1-1.1-6.6.2-.1.1 0 .3.2.3ZM601 413l-1.6-.2a1 1 0 0 0-1.2 1.5l2.1 5c.1.3.5.2.5 0a6 6 0 0 1 2.1-4.7c.3-.2.3-.6.2-1l-.6-1c-.2-.2-.2-.4 0-.7a9.2 9.2 0 0 0 1.8-7.6c-.1-.4-.4-.6-.8-.6l-5.1-.1a1 1 0 0 0-1 .5c-.7 1-1 2.1-.8 3.3a6.2 6.2 0 0 0 4.4 5.4l.1.2c0 .2 0 0-.1 0Zm-17 14.9 5.4-4c.2-.1.3-.4.2-.7l-.4-1.8c-.1-.4.3-.7.7-.5 5.7 3.6-1 11.5 6.5 13.8.6.2 1.1-.5.7-1a3 3 0 0 1-.5-1.7c0-.2.1-.3.3-.3.1 0 .2 0 .3.2a4.4 4.4 0 0 0 2.5 3c.3.1.4.6 0 .8a6 6 0 0 1-4.7.6c-.4-.1-.7 0-.9.4-3 7.5-2.2 16-1.4 23.8.4 3.4.6 6.9.8 10.5.1 3.6.5 7.1 1 10.6 0 .4.3.6.7.6h3.1c.4 0 .7-.3.7-.7l.5-30.6c0-1.4-.4-2.6-1.2-3.5a.7.7 0 0 1 0-.9c.2-.3.6-.3.9-.1l1.7 1c.3.3.5.6.3 1a8.5 8.5 0 0 0-.7 3.7c.5 9.8-.2 19.6 0 29.5 0 .3.1.5.5.5l3.8.3c.6 0 1-.3 1-1 0-4 .1-7.8.5-11.7.6-5.4 1-9.2 1-11.6.4-6.9 1.7-14.2-.9-21 0-.2-.2-.3-.3-.3l-5-1a.6.6 0 0 1-.5-.6c0-.3.3-.5.6-.5l5.2-.1c.3 0 .6-.2.7-.6 1.3-5.6 1.5-10.4 5.7-15.4.2-.2.6-.1.7.1.5 1 1.2 1.2 2.3.5l.7-.2c3.2 0 10.4.5 13-1.4 1-.6.6-2-.5-2-2.8-.3-5.4-.4-8-.2-3.8.3-9-1.5-12.3 0-3.1 1.2-5.3 5.5-7.5 8-.2.3-.5.3-.7.1l-7.7-7.3c-.2-.3-.6-.4-.9-.4-3 .1-4.8 3.6-6.1 5.8-2.4 3.7-6 6.6-8.4 10.1a1.7 1.7 0 0 0 2.5 2.3l6.7-6c.2-.1.2-.4 0-.6a.5.5 0 0 0-.6-.2l-1.7 1.1c-.2.1-.3 0-.4 0v-.4Zm53.8-11.7c0-.6-.3-1-.9-1a1 1 0 0 0-1.4.7c-.2.7.1 1.4.7 1.7l2.7 1.4c.2 0 .5 0 .7-.2v-.7l-1.6-1.6c-.1 0-.2-.1-.2-.3Zm-31-.8c-.2-.2-.8-.1-1.4.2-.5.4-.9 1-.7 1.1.1.3.7.2 1.3-.2.6-.4.9-.9.7-1Zm26.6.3-1.5.6c-.4.2-.3.8.1.8h1.5c.6 0 .8-.2.7-.7v-.4c-.2-.3-.5-.5-.8-.3ZM577 435.9c.2-.6-.3-1.3-1-1.5-.8-.2-1.6.2-1.8.8-.1.7.3 1.4 1.1 1.6.8.2 1.5-.2 1.7-.9Zm-2.4 2c.1-.5-.3-1-.8-1.2a.9.9 0 0 0-1 .8c-.3 1.2-.4 2.5-.5 3.7 0 .4.5.6.7.3a7 7 0 0 0 1.6-3.6Zm25.5 48c.5 0 1-.5 1.1-1.2 0-.7-.3-1.3-.8-1.4-.5 0-1 .5-1.1 1.1 0 .7.3 1.3.8 1.4Zm0-69.7c-.1-.1 0-.3.1-.4h.9c.2.2.3.4.2.6 0 .2-.2.4-.4.3a1 1 0 0 1-.8-.5Zm-47.8 61.3c-.9.6-1 .8-2 1-7.7 1-7-6.5-7.2-11.4 0-.2-.2-.5-.4-.5-.6-.3-.8-.7-.7-1.3 0-.3.3-.5.7-.5h5.5c.4 0 .5.2.3.5a15 15 0 0 0-1 8.2c.3 3.2 1.7 4.1 4.7 2.7.3-.1.5-.4.5-.7.6-3.4 1.2-7.1-.7-10.2-.2-.3-.1-.5.3-.5h5.8c.6 0 .7.2.3.7l-.8.9c-.2.2-.3.5-.3.9V481c0 .4 0 .7.3.9l1 .8c.4.3.2.8-.2.8l-6.2-.1c-.3 0-.5-.4-.3-.6a5 5 0 0 0 1-5c-.1-.4-.3-.5-.6-.3Zm121.2 2.6c-.5-3.8-.5-7.6-.1-11.4 0-.8-.3-1.9-1.1-3.4-.2-.3-.1-.5.3-.5h5c.2 0 .3.1.3.4l-.4 15.8c0 .5.2.8.8.7l3-.1c.4 0 .7-.4.7-.8l-.3-15.3c0-.5.2-.7.6-.7h4.6c.3 0 .5.3.4.6-.4 1-.7 1.7-.8 2.8l-.1 12.5c0 .4.1.6.5.7 1.2.4 2.5.2 3.6-.4.2-.1.4-.4.4-.6.2-1.6-.2-3.2.2-4.7.8-3.5.6-7-.7-10.4 0-.3 0-.5.4-.5h5c.4 0 .6.3.4.6l-.7.9-.1.5-.2 13.7c0 .2 0 .3.2.4l1.2 1.4c.3.3 0 .9-.4.9h-23.8a.4.4 0 0 1-.3-.8l1.1-1.4.3-.9Zm-510.7.8c0 .8.4 1.4 1.3 1.7.5.2.4 1-.2 1l-6.5.2a.4.4 0 0 1-.3-.8l1.8-1.5c.3-.3.1-.8-.3-.9-3.7-.5-7.5-1.6-7.6-6-.1-4.4 2-6.7 6-7.1.3 0 .5-.2.5-.5v-1.2c0-.3.2-.6.5-.6l6-.5c.4 0 .7.4.6.7l-.7 1.5c-.1.3 0 .4.2.4 9.5 1 8 12.7-.9 13-.2 0-.4.3-.4.6Zm-3.9-2.3-.2-9.8-.2-.2h-.1c-1.8.1-3.2 2-3.1 4.3v1.7c0 2.4 1.6 4.2 3.4 4.2.2 0 .2-.1.2-.2Zm7.7-6.5-.1-.6-1.1-2.2c-.7-1.2-2.6-.7-2.6.7v7.3c0 1 1.1 1.7 2 1.2l1.2-.7c.5-.3.7-.7.7-1.2V472Zm121.2 5.3-2.6 3.8c-.2.3-.2.6 0 .9l.7.6c.2.3.1.7-.2.9a7 7 0 0 1-4 .3c-.7-.1-.8-1-.2-1.3a8.5 8.5 0 0 0 3.6-3.4c.6-1 2.7-3.3 1.6-4.9-1.6-2.2-3-4.5-4.5-6.8-.2-.4-.5-.6-.9-.7a2 2 0 0 1-1.1-1.3c-.1-.3.1-.7.5-.7h6.2c.4 0 .6.2.5.6-.2 2.2.6 4.1 2.3 5.6.2.2.4.2.5 0a6 6 0 0 0 2.8-5.6c0-.4.2-.6.6-.6h3.6c.7.1.9 1 .2 1.4l-1.5.7c-.4.1-.6.4-.8.7L291 473c-.3.3-.3.7 0 1l6.4 9.1c.2.3 0 .6-.3.6l-6-.5c-.3 0-.5-.2-.4-.5.2-2.2-.5-4-2.2-5.4-.2-.2-.5-.2-.7.1Zm138.9-9.6v13.5c0 .5.1.7.6.9 4.8 1.2 1.2 6-2.5 5.4-3.5-.7-6.6-1-9.2-.8-.4 0-.5-.1-.5-.5 0-.5.5-.9 1.2-1 3-.8 6.4.6 9.6 1 1 .1 1.9-.8 1.7-1.8-.1-.8-.5-1-1.3-1-4.5.7-10 0-14.8.1-.4 0-.6-.6-.2-.8l.8-.6c.2-.2.4-.4.4-.7v-13.2c0-.4-.2-.7-.4-1l-1.3-1.5c-.3-.4 0-1 .4-1l5.3.1c.5 0 .7.2.7.7l-.3 16c0 .7.2 1 .9 1l4-.2c.4 0 .6-.3.6-.8v-16.4c0-.3.2-.4.5-.4l5.2.3c.7 0 .8 1 .2 1.3l-1 .5a1 1 0 0 0-.6 1Zm-394.3-.7-1.3-.5a.5.5 0 0 1 0-1c1.4-.4 2.8-.4 4.2 0 .4.2.5.5.3.8a79 79 0 0 0-5.4 13.5c-1.3 4.4-5.4 4.4-8.7 1.9-.2-.2-.2-.4 0-.7l1.2-2.4c.2-.4.9-.4 1 0a4 4 0 0 0 2.7 2.6 1 1 0 0 0 1.2-1.4L21 467.6a1 1 0 0 0-.6-.5l-2.6-.7a.5.5 0 0 1-.3-.6c0-.2.2-.4.5-.4l7 .2c.2 0 .4.2.5.5.6 3.2 2 6.1 4 8.8.2.3.6.2.8-.1l2.4-6.8c.1-.4 0-.7-.4-.9ZM56.6 515l-2 .9c-.3.1-.4.4-.2.7 2 4.8 8.1 18.3 12.7 20.3.3.2.5.4.6.8 1 4.6 1.6 9.3 2 14 .2 4.5 1.2 5.2 5.6 4 .4-.1.6 0 .5.5-.5 3-5.5.4-6 5.3-.6 5-.6 10.2 0 15.9.6 5.6 1.3 14 2 25 0 1.8 1.2 2.5 3.3 2 .2-.1.3-.3.3-.4v-34.7c0-.3 0-.5-.2-.8l-.8-1.7c-.1-.2 0-.4.1-.5.2-.2.5 0 .6.1.9 1.3 2 1.6 3.2.8.2-.2.6 0 .4.4-.6 1.3-1.3 2.3-1.4 3.8V604c0 .3.3.6.6.6h2.5c.4 0 .6-.1.7-.5.8-10.8 1.7-21.7 2.8-32.5.2-1.8.2-4.9-.1-9.4-.2-2.9-1.5-4.3-3.9-4.5a3 3 0 0 1-1-.2c-.5-.2-.8-.5-.8-1s.3-.7.7-.7c1.3 0 2-.6 2.3-2l.2-.2c.2 0 .3.2.3.3l.2 1.4c.1.5.3.6.7.2 3.4-3.3 3.3-11.2 3.7-17.8l.3-.9c4-5.6 3-11.7 2.2-19a1 1 0 0 0-.5-.7 2 2 0 0 0-2.3 0c-.4.3-.7.2-.8-.2-.9-3-1.3-6.1-1.2-9.2 0-.4-.2-.7-.6-.7l-14.6-.6c-.6 0-1-.5-1-1.1l-.1-11.4c0-.5.4-1 1-1l17.6.3c.5 0 1 .4 1 1l-.4 11.2c0 .2 0 .5.2.6 2.7 3 1.6 5.5 2.4 8.8a42 42 0 0 1 1.5 15.6c-.6 4.4-3.9 12.6-4.3 20.2-.2 2.4-1 3.6-2.4 5.5-.2.2-.2.6-.2.9 1.7 5.7 2.3 9.9 2 12.7a537.5 537.5 0 0 0-3.5 33.7c0 .3.1.5.3.7l3.9 3.3.4.1a111 111 0 0 0 5 .2l.2.6c0 .4-.3.7-.7.7a282 282 0 0 0-13-.3c-.8 0-1.3-1.1-1.7-3.3l-.3-.2-.2.3v2.6c0 .4-.1.5-.5.5-2.5 0-5 0-7.5.2-2.1.2-4.1 0-6.1-.2a.5.5 0 0 1 0-1h5.2c.4 0 .7-.2 1-.5l1.7-2.5c.2-.1.2-.4.2-.6-.4-7.5-1.4-18-2.8-31.4-.5-4.8.1-10 1.8-15.2v-1c-.6-1.2-1-2-1-3.4-.4-5.5-1-11.7-4-15.3-4-5-7-11.4-9.4-17.3a10 10 0 0 0-2.2-3.4 29 29 0 0 1-3.8-4.7c-.2-.4-.5-.4-.8-.1l-9 7c-.7.6-1.8.5-2.4-.2l-8.2-10.2c-.2-.4-.2-.6.2-.8 4.8-3 9.5-6.4 14-10 1.1-1 2-.8 2.8.5 2.3 4 4.6 8 8.2 11a7.6 7.6 0 0 1 2.8 5.4Zm30.1-2.6c.6-.1.8-1.2.5-2.4-.3-1.2-1-2-1.5-1.9-.5.1-.8 1.2-.5 2.4.3 1.2 1 2 1.5 2ZM53.9 515c.3-.2 0-1.2-.8-2.2-.9-1-1.8-1.5-2-1.2-.4.3 0 1.3.8 2.2.8 1 1.7 1.5 2 1.2Zm32.6-.2h-1.2c-.4-.1-.6.4-.3.7.7.6 1.5.5 2.4 0 .5-.3.6-.7.4-1.3 0-.3-.2-.3-.4 0l-.2.3a1 1 0 0 1-.7.3Zm120.5 20a1 1 0 0 0-.5 1.9c1 .3 2 .4 3.1.1.4 0 .7-.5.6-1-.6-2.2.8-2.6 1.5-4.1a6 6 0 0 0 .2-5.4 1 1 0 0 0-.7-.6c-1.4-.3-5.6-1.3-7.2 0a1 1 0 0 0-.4 1v1.4l-.3.1a.2.2 0 0 1-.2-.2 5 5 0 0 0-.7-3.6.8.8 0 0 1 .2-1c2.7-2.6 7.4-3 10.3-1 1 .7 1.1 1.6.5 2.7a1 1 0 0 0 0 1l.5 1.4v.7c-.8 1.5-1.5 3.2-2 5-.2.3 0 .7.4.8a1 1 0 0 0 1-.6c1-3 1.9-5.8 1.9-9.2V510c0-1.7.3-1.8 1.1-.2v1.9c0 .3.3.6.7.7.3 0 .7-.1.8-.5.7-2 .2-3.6-1.3-4.7a.9.9 0 0 1-.5-.8l.6-11.8c0-1 1-1.8 2-1.7l17 1.3c.5 0 .8.5.8 1l-2 12.2c-.1.4-.3.5-.7.5l-13.7-.7c-.4 0-.6.2-.6.5 0 2 .4 4.5 1.2 7.7 1.2 5 1.5 10.5.8 16.4-.5 4-2.1 8.5-3 12.7-.9 3.4-2.6 7.6-2.9 12l.2.8c2.7 5.2 2.5 8.8 2.3 15.9-.1 4.3-1 14.5-2.4 30.6 0 .3 0 .6.3.9l2.6 2.6c.2.2.4.3.7.3l2.1-.1.8.1.2.6c0 .2-.2.4-.4.4l-12.2-.2a.5.5 0 0 1-.5-.5v-2.6c0-.5-.2-.6-.6-.3l-.4.4c-.3.2-.4.6-.2.9.5.7.4 1.4 0 1.8-.4.3-.8.4-1.5.5h-12.3a.5.5 0 0 1-.5-.8c.2-.3.5-.5 1-.4 2.7.4 4.7-.6 6-2.8.2-.3.3-.6.2-1-.4-4.8-1.1-9.5-1.4-14.4-.3-5.4-.8-12-1.6-19.7-.5-4 0-8 1.5-12.3v-1a23.3 23.3 0 0 1-2.3-8.3c-.4-6.9-2.2-14.3-2-20.4.2-4.7 1-9.3 2.3-13.9v-.9a9 9 0 0 1-.6-3.5l.1-.2h.3c0 1.4.3 2.8.8 4.1.3.8 1.4.6 1.6-.2l.5-3.2c0-.3-.2-.7-.5-.9l-2.6-1.2c-.3-.1-.6-.2-.9-.1l-12.2 1.1c-.8.1-1.6-.5-1.7-1.3l-1.8-11.7c0-.4.1-.6.6-.7l16.3-1.2a2 2 0 0 1 2.2 2c0 3.7-.8 8.8 1 12.2.1.3.2.6.1 1-.5 2.2-.3 4.3.6 6.3.2.4.2.7.1 1l-.5 3.4c0 .3-.2.3-.3 0l-.2-.7a.9.9 0 0 0-.9-.6h-2c-.4 0-.7.2-.7.5-.5 4.8-1.5 14.4 1.2 17.5l.3.9c.2 6.6-.3 12 2.8 18.6.2.3.4.4.6.4a14 14 0 0 1 5 .5l1-.1 1-.4c.3-.2.6-.3 1-.2l3.6.3a1 1 0 0 0 1-.6c.8-2.1.9-4.6 1.4-6.4 1-3.4 1.5-6.7 2.6-10.2 2.6-8.3 2.8-16.6.5-25a1.4 1.4 0 0 0-2.6.5c0 .7.5 1.3 1.3 2 .2 0 .2.3 0 .4l-.3.2c-.2 0-.4.2-.4.5a27 27 0 0 0 .4 9.4v.4l-7.5 16.2c-.5 1-2 1-2.4 0a53.8 53.8 0 0 0-4.5-7 16 16 0 0 1-2.9-8.3c-.1-.8-.3-1-.8-1.6a.9.9 0 0 1-.3-1l1.6-4.5c0 3 .3 10.9 3.5 12.4.4.1.6 0 .6-.4l.2-1.1c0-.3.1-.3.3-.1l2.9 2.5c.1.2.1.2 0 .2a3 3 0 0 1-.8 0Zm-7-18.6a1.3 1.3 0 1 0-2.7 0 1.3 1.3 0 0 0 2.7 0Zm12 7.5c-1.3-2.3-5.7-2-7.6-1.2-.5.3-.8.7-.8 1.2 0 .3.4.6.8.5a12 12 0 0 1 7 .1c.4.2.8-.2.6-.6Zm-3 15.2.4-.7c.3-.5.1-.7-.4-.6h-1.4c-.5.1-.6.6-.3.9.6.5.7 1 .5 1.7 0 .3.3.6.6.4.3-.2.4-.5.3-.8 0-.3 0-.6.2-.9Zm-.4 3.2c0-.3-.3-.5-.6-.5s-.5.2-.5.5.2.6.5.6.6-.3.6-.6Zm1.6 26.1c-.9 2.3-1.4 4.1-1.4 5.4-.1 4.5 0 14.4.2 29.7 0 .3.2.6.6.7l3.2.5c.7 0 1.4-.5 1.3-1.3-.3-3.8.9-7.6 1-10.8.5-7.7 1-15.4 1.8-23.1.3-3.4-.5-7-2.4-10.9-.2-.3-.5-.5-.9-.4a10 10 0 0 1-6.3-.8.7.7 0 0 0-.5 0l-5.6 1.2c-.2 0-.4.2-.5.4a26 26 0 0 0-1.3 9.8 782 782 0 0 1 3.2 35c0 .4.4.7.8.6l3.3-.6c.3 0 .6-.4.6-.7v-30.5c0-.6-.3-1.8-1-3.5 0-.4.3-.7.6-.5l.8.3c.3.2.5.2.7 0l1.2-1c.3-.2.8.1.6.5Zm132.1-11.8c3.7.2 4-2.8 4.5-6 .7-3.8 1.2-7.6 1.5-11.5 0-.6.8-.8 1.2-.4l.2.4c.2.2.5.1.6-.1a69 69 0 0 0-.5-25.6c0-.6-.6-1-1.2-1-.6.1-1 .6-1 1.2 0 1 .4 1.9 1 2.5.1.3.1.5 0 .8a5.3 5.3 0 0 0-.5 3.8c1 3.8.5 7.5-1.4 11.1-1.6 2.8-2.3 6.2-4 8.9l-2.6 3.7a1 1 0 0 1-1.7 0 16.3 16.3 0 0 0-10.9-6.2c-.6 0-.6-.2 0-.5l6.7-3c1-.5 1.1-1.7.4-2.4-2.2-2.3-2.4-4.9-.8-7.7.2-.3.4-.4.7-.5 2.9-.5 5.7-.4 8.4.4.3 0 .4 0 .5-.3 0-.3 0-.5-.3-.6a20 20 0 0 0-5.4-1.5l-1 .1c-.6.3-1.3.6-2 .7-.6.1-.6 0-.1-.4 2.4-1.8 7.3-.8 9.6.5.3.2.5.5.4.8l-.9 5c0 .5-.3.6-.5 0-1.3-3.6-4-4.5-8-2.9a2.2 2.2 0 0 0-1.2 3l2.1 4.9c.2.4.5.6 1 .6h1.7c1.2-.1 1.2 0 0 .4h-1.5c-.5 0-.9.3-1 .7 0 .5.2 1 .7 1 1.2.4 3.9.6 4.2-1.1 0-.4-.1-.9-.5-1.3a.5.5 0 0 1 0-.7l1.4-1.4c.2-.2.5 0 .5.3l-.3 1.2c0 .7.9 1.1 1.3.5 4.3-5.3 3.4-11.2 3.4-17.4 0-3.3-1.4-5.7-1.2-8.8.3-3.8.4-7.6.2-11.4 0-1.2 1-2.1 2-2 1.8 0 3.5.2 5.4.4 3.4.5 7.4.1 11.2 1.3.3.1.5.4.5.8l-.5 9.2c-.1 2.1-1.2 3-3.3 2.8l-9.8-1.3c-.4 0-.6.2-.6.6.2 1.5 0 2.9.2 4.3a96 96 0 0 1 1.5 22.5c-.2 4.5-3 7.6-3.4 12-.4 3.6-1.3 7.1-2.7 10.5-.2.3-.2.6 0 .9a46.8 46.8 0 0 1 1.3 16.2c-1 9-1.5 18.1-2.1 27.2-.2 2.6 1 4.1 3 5.4.3.2.6.2 1 .2a8 8 0 0 1 4.8.4c.5.2.3 1-.2 1H325c-.3 0-.5-.2-.4-.5l.2-.6c0-.3.3-.5.6-.5l3.8-.1c1 0 2-.9 2-2 .4-6.2-.5-12.2-.8-18.6-.2-3.8-1-7.4-1-11 0-5.8-.6-11.4 1.4-16.9a1 1 0 0 0 0-.9c-1.8-3.2-1.4-6.5-2.6-10-.1-.4-.3-.4-.6 0-1.5 1.8-2.6 3.5-4.6 5a47.6 47.6 0 0 0-8.9 7.9c-.3.3-.4.2-.5-.2-.1-1-.8-1.8-2-2-.3 0-.3-.2 0-.4 1-.8 1.5-1.5 1.7-2a37.4 37.4 0 0 1 11-14.8c.6-.5.7-.4.4.2-3 5.4-7.4 8-9 14.4-.1.3.1.5.3.4 3.8-2 11.2-8 10.6-12.8-.1-.9 1-1.3 1.4-.6 1 1.4 1.7 2.8 2 4.3.7 2.2 0 5.4 1.4 8 1.5 2.6 4.7 1.4 7 1.6l1-.1c2.2-1.1 2.6-3 4.1-4.5h.6c.2.2.2.4 0 .6l-2.2 3.4c-.1.2 0 .5.3.5Zm7.4-45.8.1-1.6c.1-1-.8-2-1.9-2-1.8.2-2.3 1-1.4 2.4.6 1 1.2 1.7 2 2 .7.3 1.2.1 1.2-.8Zm-18 27 3.2 2c.2.1.5-.1.4-.4a4 4 0 0 0-3.5-2.2c-.3 0-.5.4-.2.6Zm9.3.5c0-.5-.7-.9-1.7-1-1 0-1.9.4-1.9.8 0 .5.8 1 1.8 1s1.8-.3 1.8-.8Zm-26.4 19c-.3 0-.4.2-.3.5 0 .2.2.3.4.3h.6c.2 0 .4-.4.2-.6-.3-.3-.6-.4-1-.3Zm24 30.8.3.2c.2 0 .3.3.3.5V603c0 .4.2.7.6.8l3.4.8c.3.1.7-.1.7-.5.6-7 1.1-13 2-21.1.7-6.9.7-14 0-21.6 0-1-.4-1.9-1-2.4a.6.6 0 0 0-.5-.2h-3.5a1 1 0 0 1-1-.5c-.3-.6-.9-1-1.5-1.2a1 1 0 0 0-1 .3 4.4 4.4 0 0 1-4.7 1.5c-.3 0-.6.1-.7.4a13 13 0 0 0-1.5 6c.2 8 1 19.8 2.4 35.6.2 2.7 1.6 4 4.2 2.5.2-.2.3-.4.3-.7l.5-14.4c0-.5.2-.7.7-.5Zm-.2 18.1v.4c0 .3.2.5.5.6.3 0 .6-.2.6-.5.1-.5-.1-.8-.7-.9-.2 0-.4.1-.4.4ZM631 513c-.2 1.2-1 2-2.2 2.5-.3.2-.6.4-.7.7-2 4.1-5.1 6.6-6.8 11.2-3 8.5-11.4 11-12.2 21.5 0 .3.2.5.5.6 1.8.2 3.5.6 5.1 1.3 1.4.5 2.7.7 4 .6 3.7-.1 7.4-.2 11 0 .3 0 .5.1.5.4l.6 16c0 .5-.4 1-.8 1l-10.8.7c-.8 0-1.5-.6-1.5-1.4l-.1-12.4c0-1-1.2-1.4-1.9-.8-1.8 1.7-3.4 1.5-4.8-.4-.8-1-2.3-.3-2.1 1a78.2 78.2 0 0 1 1.3 22.6l-2.4 25.5c0 .3 0 .6.3.8a9.8 9.8 0 0 0 5.9 2.5l.2.2-.1.4h-.3c-7 0-14.3-.2-21.3.5-1.6.1-3.3 0-4.9-.4a.3.3 0 0 1-.1-.4c.9-1.1 1.9-1.4 3-.8 1 .6 2.1-.2 2.1-1.3 0-2.6 0-5.2-.3-7.8-.8-6.8-1.3-13.7-1.7-20.5a50.6 50.6 0 0 1 1.8-20.4 45 45 0 0 0-4.3-12.5c-3.9-7.3 3.7-7.9 8-10.1.3-.2.4-.5.3-.7l-2-5.4.1-1c.5-1 .3-1.8-.7-2.4a.6.6 0 0 1-.1-.9 5 5 0 0 1 4.8-2c.5 0 .5.2 0 .3l-2.7 1c-.2 0-.4.3-.3.5 0 .3.3.4.5.3 2.8-.6 5.5-.5 8.2.3.4.2.8-.3.7-.7l-.4-.6a452.1 452.1 0 0 1-5-1c2.2-.4 4.3-.1 6.2.9.8.3 1 1.3.4 2l-.8 1c-.2.2-.3.4-.3.8v2.2c0 .2-.1.3-.3.3-.2 0-.3 0-.4-.2l-.5-2.6c0-.2-.2-.4-.5-.5-3-1.5-5.6-.9-7.6 1.6a2 2 0 0 0-.3 1 5.9 5.9 0 0 0 3.8 5.5c.3.1.5.3.7.6.3.5.2.6-.4.3l-1-.3c-.6 0-1.2.5-1.3 1.1 0 .6.4 1.2 1 1.2 1.4.2 2.8.1 4.3 0 .3 0 .6-.3.7-.6a2 2 0 0 0-.5-2.1c-.2-.3-.2-.5 0-.6l.3-.3c.1 0 .2-.1.2-.3l.3-1.3.2-.2c.1 0 .2 0 .2.2l.2 1.7c.2.9 1.2 1.4 2 1a45 45 0 0 0 6.5-5c1.2-1 2.6-2.8 4-5.1 1.7-2.8 3.7-5.3 6-7.7 1.7-2 2-4.5 4-6 3.6-2.8 6.6-6.1 9-9.9.2-.4.8-.5 1.2-.1l12.4 11c.8.8.8 1.6 0 2.4l-7.2 7.5c-.2.2-.5.2-.7 0l-9.2-8.4a.6.6 0 0 0-1 .3Zm-3.5-.8h-.6a1 1 0 0 0-.5 1.9c1.6.7 3 .4 4-.9.5-.5.4-1.2 0-1.7-.5-.4-1.2-.5-1.7 0l-.7.5c-.1.2-.3.2-.5.2Zm-2.7 4.9c.5.2 1 0 1.3-.5.3-.5.2-1.1-.2-1.3-.5-.3-1 0-1.3.5-.3.5-.2 1 .2 1.3Zm-29.7 24.8c3.6 3.9 5.7 8.2 12 7.4.3 0 .5-.2.6-.5 1.5-4.5 1.4-8.7 3.5-12.9.2-.3.4-.5.8-.6.2 0 .3 0 .4.3l.2.7c0 .2.4.3.6.1 2.3-2.6 4.8-4.7 6.3-8a87 87 0 0 1 4.7-9.1c.3-.5.2-1.2-.3-1.6-.4-.4-1.1-.4-1.6 0a21 21 0 0 0-7 10.7c-.1.3-.3.5-.6.7l-5 3.6c-3.4 2.3-5.5 6.8-8.2 10-1 1.1-2 1-3-.3-1.4-2-4.5-5-7.3-4.8-8.8.6 4.3 14.8 6 16.3.2.3.6.4 1 .4l8-.2c.4 0 .6-.4.5-.7l-.7-2.2c-.2-.4-.4-.6-.8-.6l-4.2-.4c-.3 0-.5-.2-.8-.4a28 28 0 0 1-5.4-7.7c-.3-.7-.2-.8.3-.2Zm0-3.8c.5 0 .7-.1.4-.6-.2-.5-.5-.7-1-.8-.4 0-.7.5-.4.8.3.3.6.5 1 .6Zm6.3 0c0-.4-.7-.7-1.6-.6-.9 0-1.6.3-1.6.6 0 .4.7.6 1.6.6.9 0 1.6-.3 1.6-.6Zm-2 2.2c0 .5.2.7.5.7s.7-.3.8-.6c0-.4-.1-.6-.5-.6l-.7.1c-.2.1-.2.2-.2.4Zm-2.6 15-4.3-4.6h-.3c-.7.7-.3 2.3.9 3.6l.2.2c1.2 1.3 2.8 1.8 3.5 1.1v-.2Zm13.8-2.8 2.3 2c.4.5 1.2.5 1.7.1s.6-1 .3-1.6c-1.2-2-2.8-2.6-4.8-1.6-.4.2-.7.1-1 0-.6-.5-1.2-.4-1.8.2-.4.3-.4.6 0 .9l1.1.8c.4.3.8.2 1-.2l.3-.5c.2-.3.6-.3.9-.1Zm-8.5 14.3-.6.7c-.2.3-.3.6-.3 1 .5 11.1-.2 22.2 0 33.4 0 .4.2.6.5.8a7 7 0 0 0 4.3 1c.3 0 .5 0 .5-.4.4-7.6 1-15.2 1.8-22.8.8-8 .8-13.7 0-21-.2-1-1.1-1.6-2-1.4-2 .2-3.7 0-5.3-.9a.7.7 0 0 0-.8 0 6.4 6.4 0 0 1-5 .8c-1.3-.4-2.6.6-2.7 2-.4 8.4-.2 16.7.4 24.8.4 6.1 1 12.4 1.6 18.7 0 .5.3.7.8.6l4-.5c.5 0 .7-.3.7-.8.2-9.8.2-19.5.1-29.3a27 27 0 0 0-1.2-7.3c-.1-.3.2-.5.5-.4l1.3.9h.6l.5-.3c.1-.1.3 0 .4 0v.4Zm-.3 38.6-1-1.4c-.4-.6-.6-.5-.6.2v2c0 .6.3.7.8.5l.6-.4c.4-.2.5-.6.2-1Zm-127.6-82a21 21 0 0 0-4.2-1.5c-.8-.2-.8-.4 0-.5 2.2-.4 4 .2 5.6 1.7.2.3.3.7.1 1a4 4 0 0 0-.1 3.4c.1.4 0 .7-.1 1a11.3 11.3 0 0 0-1.9 5.6c0 .4.2.6.5.6 3.6.5 7.9 2 8.2 6.1 0 .8-.4 2.7-1.4 5.4a31 31 0 0 0-1.8 8c-.2 1.6 0 4.2.5 7.9.7 5 .7 10 .1 15 0 .3-.4.5-.7.3-.6-.4-.9-1-.8-1.8a40 40 0 0 0-1.3-17.2c0-.3-.4-.5-.7-.4-2.2.5-4.2.1-6-1.1-.4-.2-.7-.2-1 0l-1.1 1c-.4.2-.7.4-1.1.3l-3.3-.4c-.4 0-.7.1-.8.5a22.4 22.4 0 0 0-1.3 10.2c.8 9 1.8 20.5 2.8 34.9 0 .4.3.6.8.6l2.7-.3c.7 0 1.2-.6 1.2-1.3l.2-33v-.2l-1-2.4c-.1-.2 0-.4.1-.5.2-.1.4 0 .5.1l.4.7c.2.2.5.3.8.1l1.3-.8c.3-.2.6 0 .5.4-.5 1.1-1.2 2-1.2 3.4v32.4c0 .4.3.8.7.8l4 1c.4 0 .6-.1.7-.6 0-1.5.6-3 .7-4.3l1.2-19.8c0-.8.4-1.4 1-1.7.2-.2.5 0 .5.2-.4 8.4-.9 16.7-1.6 25 0 .7.3 1.2 1 1.3.4.1.6.3.7.6l.9 1.5c0 .3.4.4.6.3.7-.2 1.3 0 1.7.4.4.5.3.7-.4.7-8 0-16.4-.9-24.4.4-.5 0-.7-.2-.5-.6l.1-.4c.1-.4.4-.6.8-.6 1.5 0 2.7-.6 3.6-1.6.5-.7.8-1.8.6-3.3-.3-2.8 0-5.8-.4-8.5a207.4 207.4 0 0 1-1.4-35.3.5.5 0 0 0-.6.1c-1.1 1.6-2.5 2.1-4.4 1.5a.7.7 0 0 0-.9.6V572c0 .4-.3.8-.7.8l-10.8.6c-.8 0-1.5-.6-1.5-1.4l.2-15.5c0-.8.7-1.5 1.6-1.4 4.4.5 8.8.2 13.2-.7.2 0 .3 0 .2.3l-.8 2.7c-.3 1 .6 1.8 1.5 1.4 1.2-.5 3.4-2 2.8-3.7-.3-.7-.8-1-1.7-1.1-.4 0-.5-.2 0-.4l1.3-.7c.3-.2.4-.5.3-.8-.4-1.9-.5-3.9-.2-5.8 0-.3 0-.7-.2-1-1-1.4-1.7-3.1-2.8-4.4-6-7.1-11-14.7-15.3-22.9a1 1 0 0 0-.8-.5 4 4 0 0 1-3.3-2 .6.6 0 0 0-1-.1l-8 7c-.7.6-1.8.6-2.4-.1l-7.5-8.4c-.5-.5-.4-1.4.2-1.8l12.5-10c.6-.4 1.5-.3 2 .3l6.7 8.4c1.2 1.5 2.8 1.6 3.9 3 2 2.7 4 5.3 6.2 7.8 1.5 1.7 2.6 4.1 4.5 5.9 2.7 2.6 4.6 5 7.3 7 1.7 1.3 4-.3 3.5-2.4l-2.3-8c0-.2 0-.5.2-.7.4-.4.8-.6 1.4-.7.3 0 .3 0 .2.3l-.3.6c-.2.5-.1.7.5.5 2.8-1 5.6-1 8.4 0 .2.2.4 0 .5-.1.1-.2 0-.4-.1-.5Zm-32.8-7.1c.3-.4 0-1.2-.6-1.7-.7-.5-1.5-.6-1.8-.3-.3.4 0 1.1.7 1.7.7.5 1.5.6 1.7.3Zm4.3 4c.6-.2.8-1 .5-1.8-.3-.8-1-1.2-1.7-1-.6.3-.8 1.1-.4 1.9.3.7 1 1.2 1.6 1Zm14.4 19c1.2 3.3 1.7 6.7 1.4 10.3 0 1.4 1.5 2.3 2.7 1.5a17 17 0 0 1 5.9-2.3c1-.2 1.7-.8 2-1.8l3.1-7.7c.2-.5.1-.5-.3-.2l-5 4.2a1 1 0 0 1-1.7-.3 13.9 13.9 0 0 0-5-6.5c-4-2.5-6.3-6.3-9.7-8.4l-.7-.7c-1-1.8-3-6.2-5.3-6.6-1.1-.2-2 .9-1.5 1.9 3 6.1 6.8 11.6 11.7 16.3.2.3.5.3.8.2l1-.3c.2-.1.5 0 .6.3Zm14-10.9c.4-1.6-.8-3.2-2.5-3.3h-3.8a2.6 2.6 0 0 0-2.4 3.5l1.5 3.8a2.6 2.6 0 0 0 2.9 1.5l1.3-.3c1-.2 1.7-.9 2-1.8l1-3.4Zm-2 7.3c0-.5-.4-1-1-1H468a1 1 0 0 0-1 1v.2c0 .5.5.9 1 .9h3.2c.5 0 .9-.5.9-1v-.1Zm2.6 1.6c-.1-.2-.6 0-1.1.3-.5.4-.9.8-.8 1 .1 0 .6 0 1.1-.4.5-.4.9-.8.8-1Zm-4.3 1.2c.3-.3.2-.8-.3-.8h-1.5c-.5 0-.6.3-.3.6.6.7 1.3.8 2.1.2Zm5.6 2.7c-1.4 3-1.6 6-4 8.5l-.8.4-4.9 1.2c-.6.1-1 .5-1 1.2.1 1.2.6 1.8 1.4 1.9l1.8-.2c7.4-1 11.4-5.2 12-12.6.3-2.3-.8-3.6-3.3-4-.3 0-.5.2-.5.5-.1 1.3-.1 2-.7 3Zm-6.5-.2c.3 0 .5-.4.4-.9 0-.4-.2-.8-.5-.8-.2 0-.4.4-.4.9 0 .4.3.8.5.8Zm6 12.3c-1.5.8-2.8 1-4.2 1.7-.3.1-.2.6.1.6l4.9.5c.3 0 .7-.2.7-.5l.7-2.8c.2-.8 0-1-.7-.5l-1.6 1Zm-11.3 1.6c.4-.6.1-1.4-.6-1.8-.7-.5-1.6-.4-2 .2-.3.6 0 1.4.7 1.8.7.5 1.6.4 2-.2Zm6.6 51.7c.3 0 .6-.6.5-1.4 0-.8-.3-1.4-.6-1.4-.4 0-.6.6-.6 1.4 0 .8.3 1.4.7 1.4ZM56.7 514.8c2.5 2 4.4 4.4 5.8 7.3 1.9 4 5.9 7.3 8.9 10.5.2.3.5.3.8.1s.3-.5.2-.7c-.9-1.7-1-3.5-.6-5.3.1-.3 0-.6-.2-.8-.4-.3-.6-.7-.5-1.2 0-.4.3-.7.7-1 3.6-2.4 7-2.4 10.6 0 .2 0 .3.2.4.5.3.8.2 1.4-.4 1.9-.3.2-.4.5-.3.9.5 1.8.1 3.5-1.1 5.1-.2.3-.3.6-.2 1l.2 1c0 .3.5.4.7 0 1-1.5 2-3.1 2.6-4.9 1.1-3.2.5-6.9.6-10.5 0-.1 0-.2.2-.2s.3 0 .3.2c.2 3.2.7 6 1.4 8.2.7 2.2-.4 2.2-1.2 3.6l-7.7 12.6c-.4.8-1.5.8-2 0a86 86 0 0 0-9.8-15c-.4-.5-.8-.8-1.2-.9-.3 0-.6 0-1 .2-.2.2-.6 0-.7-.3-1-2.3-2-4.5-3.2-6.6a6.7 6.7 0 0 0-2.7-2.8.6.6 0 0 1-.3-.5l-.3-2.4ZM73 524c2.5-.1 5 .3 7.4 1.2.1 0 .3 0 .4-.2.1-.2 0-.4-.1-.5a9 9 0 0 0-7.1-1.4c-.4 0-.7.3-.8.8l.2.1Zm6.2 2-4.5-.3c-1 0-2 .8-2 1.9v.5c-.2 3.4 1.5 6.2 3.7 6.3h.3c2.2.1 4.2-2.5 4.3-5.9v-.5c.1-1.1-.7-2-1.8-2Zm-2.6 11.5a3 3 0 0 1-.2-.5c-.2-.4.2-.8.6-.7.8.3 1.4.1 1.8-.5.2-.4-.1-.8-.5-.6a4 4 0 0 1-3-.3.6.6 0 0 0-.7.2c-.2.2-.1.5.1.7l.7.6c.2.2.3.3.3.5l.4 3.2c0 .5.8.6 1 .1l1-2.6c0-.3-.3-.5-.5-.4l-.6.4c-.1.1-.3 0-.4 0Zm233 23.2a6 6 0 0 0 3.4.6c.6 0 .7.1.3.5l-1.1 1.3c-.6.6-.6 1.2.2 1.6l9.9 6.2c.2.2.3.6.1.8l-6.8 10.5c-.4.6-1.1.7-1.7.4l-13.5-8.5a1 1 0 0 1-.4-1c.1-.9.6-1.8 1.5-2.7 2.4-2.6 4.7-6.1 7-10.6.3-.4.8-.8 1.6-1 .2 0 .2 0 .1.2l-.7.8c-.3.4-.2.7.2.9Zm29.4 8 .9-1.5c0-.2.2-.2.4-.2l.2.3v.1a8.5 8.5 0 0 0-1.5 5.3c.1 4.5.2 9 .1 13.4 0 .4-.3.8-.7.8-.5.1-.8-.2-.8-.9.2-6 1-13.5-1.4-17.5l-.2-.8c0-.2 0-.4.2-.5.2-.3.5-.3.7 0l1 1.5c.4.6.8.5 1 0Zm77.8 25.5c0 .8.7 1.5 1.6 1.5.9 0 1.6-.7 1.7-1.5 0-1.7.6-3.3 1.6-4.9 2.9-4.9 8.7-4.3 11 .7 1.4 3 1.7 6 .8 9-2.4 8.7-12.6 7.1-13.1-1l-.4-.7c-.7-.7-1.5-.9-2.4-.6-.4 0-.6.3-.7.7-.4 2.3-.2 4.6.7 6.8.1.3 0 .5-.4.5H412c-.5 0-.7-.5-.4-.8l.7-1c.2-.1.2-.3.2-.6l-.2-13.6c0-.2-.1-.4-.4-.5l-.8-.3c-.8-.4-.5-1.6.4-1.6l5.5.1c.4 0 .6.3.5.8-.7 2.2-1 4.5-.7 7Zm12.7-4.2c0-1.4-1.1-2.4-2.5-2.4h-.2a2.5 2.5 0 0 0-2.4 2.5l.3 10.8c0 1.3 1.1 2.4 2.5 2.4h.2c1.3 0 2.4-1.2 2.4-2.5l-.3-10.8Zm-252.8 4c3.4-1.2 5.9-.2 7.5 2.7 2.5 4.6-3 8.1-6.9 8.2H172c-.4 0-.6-.2-.5-.6 1-5.1 1-10.2.2-15.4 0-.4-.2-.6-.6-.6l-.8-.2c-.5 0-.6-.3-.3-.8l.3-.5c.2-.4.5-.5.9-.5l6 .3c.3 0 .7.3.7.7 0 .4-.2.8-.5.9l-.7.2c-.4.1-.6.4-.6.8v4.3c0 .5.3.6.7.5Zm-1 1.8.2 7.1c0 .5.4.8.9.8h.1c2.2 0 4-2 4-4.3v-.3c-.1-2.3-2-4.2-4.2-4.1h-.1c-.5 0-.8.4-.8.8Zm110.8-2.5a5.7 5.7 0 0 1 3.7 10.7 24 24 0 0 1-9.6.6c-.4-.1-.5-.3-.2-.6l1.1-1.4c.2-.1.2-.3.2-.5-.2-3.9-.2-7.8-.2-11.6 0-1.2-.4-2.2-1.6-2.6a.8.8 0 0 1 .2-1.6h6c.4 0 .7.5.5 1a9.4 9.4 0 0 0-.7 5.6c0 .4.2.5.6.4Zm4 2.8c0-1.1-1-2-2.1-2h-.7c-1.1 0-2 1-2 2.1v5.4c0 1.1 1 2 2.2 2h.6a2 2 0 0 0 2-2.1V596Zm11.5 6.8.6.3c.8.3.6 1.5-.3 1.5H296a.6.6 0 0 1-.4-1c.8-.9 1.3-1.7 1.5-3 .5-4.6.4-9.1-.3-13.7-.1-.5 0-.7.6-.7h4c.4 0 .5.2.5.6-.7 5-.8 10.1-.5 15.3 0 .3.2.5.5.7Zm246-6-2.6-2c-.3-.2-.5-.5-.5-.8-1.3-8.9 7.9-8.2 13.9-7.6.4 0 .5.6 0 .7l-.8.4c-.4.2-.6.5-.6.9 0 3.8-.8 12 .6 15.1.2.4.1.7-.4.7l-4.4.2a.6.6 0 0 1-.6-.7l.8-4.1c.3-1.3-1.4-2-2.1-1-1.5 2-3.7 6-6.5 5.8a1 1 0 0 1-.7-1.7l4-4.8c.3-.4.2-.7-.2-1Zm5.1-.5v-8.5c0-.1-.1-.2-.3-.2h-.2c-2 0-3.7 1.7-3.7 3.9v1.2c0 2.2 1.7 4 3.8 3.9h.2c.1 0 .2-.1.2-.3ZM150 588.2h-.5c-.4 0-.6.4-.5.7.3 1.3-.1 2.2-1.3 2.6-.4.2-.6 0-.6-.4v-3.7c0-.3.2-.5.5-.5l6.4-.1c.6 0 1 .4 1 1l-.3 5.3c0 .3.3.5.6.4 2-.4 3.9-.9 5.7.2 2.9 1.8 3.6 4.5 2.2 8-1.6 3.8-10.4 3.2-14 3.6a.8.8 0 0 1-.8-.6c0-.4.2-.8.6-.9l1.2-.3c.3 0 .5-.3.5-.7l-.3-14.1c0-.4-.1-.5-.5-.5Zm4.6 7.8-.3 6.1c0 .7.4 1.2 1 1.3h.3a4 4 0 0 0 4.1-3.8v-.4a4 4 0 0 0-3.7-4.3h-.1c-.7 0-1.2.5-1.3 1.1Zm-135-6.2-1.5-1.8c-.2-.3 0-.8.4-.8h5c.4 0 .7.2.6.7l-.3 15.7c0 .5.2.7.7.6l2.6-.4c.3 0 .5-.3.5-.6l.1-13.3c0-.2 0-.5-.2-.7l-.8-1.3c-.2-.3 0-.7.3-.7h5.2c.5 0 .6.2.4.6l-.4 1.1-.2 1v12.7c0 1.2.5 1.7 1.7 1.4l1.2-.3c.4-.1.6-.4.7-.8V590l-.2-.7-.8-1.4c-.2-.4-.1-.6.3-.6l6.5-.2c.4 0 .6.6.2.8l-1.5.8c-.3.2-.5.5-.5.8l.3 13.7c0 .3.1.6.3.8l1.3 1.3c.6.7.4 2-.5 2.4-4 2.2-9.8 1-14 .2-.4 0-.7 0-1 .2-.8.4-1.6.6-2.6.5-.5 0-.6-.2-.2-.6 3-2.7 11.2-1.2 15-.8a1 1 0 0 0 1-1.5c-.2-.4-.7-.6-1.3-.5h-1.3c-5.6 0-11.6 0-18 .4-.6 0-.9-.8-.4-1.2l1.1-.8c.2-.1.4-.4.4-.7l-.4-11.5c0-.2 0-.6.2-1v-.5ZM165 602.9l.4-.2a1 1 0 0 1 1.3.4l1 1.5c.2.5 0 1-.4 1.3l-.4.2a1 1 0 0 1-1.3-.3l-1-1.5a1 1 0 0 1 .4-1.4Zm149.9-384v-.7c0-.2-.2-.4-.5-.4H310c-.3 0-.5.2-.5.4v.7c0 .2.2.4.5.4h4.5c.3 0 .5-.2.5-.4Z"/>
</svg>
