<?xml version="1.0" encoding="UTF-8"?>
<svg xmlns="http://www.w3.org/2000/svg" viewBox="0 0 906.57 416.99" width="1000">
  <defs>
    <style>
      .cls-1 {
        opacity: .5;
      }

      .cls-2 {
        opacity: .9;
      }

      .cls-3 {
        opacity: .8;
      }

      .cls-4 {
        opacity: .4;
      }

      .cls-5 {
        opacity: .7;
      }

      .cls-6 {
        fill: #616160;
      }

      .cls-7 {
        fill: #c0c0bf;
      }

      .cls-8 {
        opacity: .6;
      }

      .cls-9 {
        fill: #808081;
      }
    </style>
  </defs>
  <rect class="cls-6" x="438.77" y="-18.91" width="30" height="457.45" transform="translate(663.58 -243.95) rotate(90)"/>
  <g>
    <g class="cls-5">
      <path class="cls-7" d="m696.99,223.31c-7.44,0-13.5-6.06-13.5-13.5s6.06-13.5,13.5-13.5h183.5v27h-183.5Z"/>
      <path class="cls-9" d="m878.99,197.81v24h-182c-6.62,0-12-5.38-12-12s5.38-12,12-12h182m3-3h-185c-8.28,0-15,6.72-15,15h0c0,8.28,6.72,15,15,15h185v-30h0Z"/>
    </g>
    <g>
      <path class="cls-9" d="m557.69,330.02l129.75-129.75c2.55-2.55,5.94-3.95,9.55-3.95s7,1.4,9.55,3.95c5.26,5.26,5.26,13.83,0,19.09l-129.75,129.75-19.09-19.09Z"/>
      <path class="cls-6" d="m696.99,197.81c3.21,0,6.22,1.25,8.49,3.51,4.68,4.68,4.68,12.29,0,16.97l-128.69,128.69-16.97-16.97,128.69-128.69c2.27-2.27,5.28-3.51,8.49-3.51m0-3c-3.84,0-7.68,1.46-10.61,4.39l-130.81,130.81,21.21,21.21,130.81-130.81c5.86-5.86,5.86-15.36,0-21.21h0c-2.93-2.93-6.77-4.39-10.61-4.39h0Z"/>
    </g>
    <g class="cls-2">
      <path class="cls-7" d="m683.49,393.31v-183.5c0-7.44,6.06-13.5,13.5-13.5s13.5,6.06,13.5,13.5v183.5h-27Z"/>
      <path class="cls-9" d="m696.99,197.81c6.62,0,12,5.38,12,12v182h-24v-182c0-6.62,5.38-12,12-12m0-3h0c-8.28,0-15,6.72-15,15v185h30v-185c0-8.28-6.72-15-15-15h0Z"/>
    </g>
    <g class="cls-3">
      <path class="cls-7" d="m687.44,219.36c-2.55-2.55-3.95-5.94-3.95-9.55s1.4-7,3.95-9.55,5.94-3.95,9.55-3.95,7,1.4,9.55,3.95l129.75,129.75-19.09,19.09-129.75-129.75Z"/>
      <path class="cls-9" d="m696.99,197.81c3.21,0,6.22,1.25,8.49,3.51l128.69,128.69-16.97,16.97-128.69-128.69c-4.68-4.68-4.68-12.29,0-16.97,2.27-2.27,5.28-3.51,8.49-3.51m0-3c-3.84,0-7.68,1.46-10.61,4.39h0c-5.86,5.86-5.86,15.36,0,21.21l130.81,130.81,21.21-21.21-130.81-130.81c-2.93-2.93-6.77-4.39-10.61-4.39h0Z"/>
    </g>
    <g class="cls-8">
      <path class="cls-7" d="m696.99,223.31c-3.61,0-7-1.4-9.55-3.95s-3.95-5.94-3.95-9.55,1.4-7,3.95-9.55l129.75-129.75,19.09,19.09-129.75,129.75c-2.55,2.55-5.94,3.95-9.55,3.95Z"/>
      <path class="cls-9" d="m817.19,72.64l16.97,16.97-128.69,128.69c-2.27,2.27-5.28,3.51-8.49,3.51s-6.22-1.25-8.49-3.51c-4.68-4.68-4.68-12.29,0-16.97l128.69-128.69m0-4.24l-130.81,130.81c-5.86,5.86-5.86,15.36,0,21.21h0c2.93,2.93,6.77,4.39,10.61,4.39s7.68-1.46,10.61-4.39l130.81-130.81-21.21-21.21h0Z"/>
    </g>
    <g class="cls-1">
      <path class="cls-7" d="m696.99,223.31c-7.44,0-13.5-6.06-13.5-13.5V26.31h27v183.5c0,7.44-6.06,13.5-13.5,13.5Z"/>
      <path class="cls-9" d="m708.99,27.81v182c0,6.62-5.38,12-12,12s-12-5.38-12-12V27.81h24m3-3h-30v185c0,8.28,6.72,15,15,15h0c8.28,0,15-6.72,15-15V24.81h0Z"/>
    </g>
    <g class="cls-4">
      <path class="cls-7" d="m696.99,223.31c-3.61,0-7-1.4-9.55-3.95l-129.75-129.75,19.09-19.09,129.75,129.75c5.26,5.26,5.26,13.83,0,19.09-2.55,2.55-5.94,3.95-9.55,3.95Z"/>
      <path class="cls-9" d="m576.78,72.64l128.69,128.69c4.68,4.68,4.68,12.29,0,16.97-2.27,2.27-5.28,3.51-8.49,3.51s-6.22-1.25-8.49-3.51l-128.69-128.69,16.97-16.97m0-4.24l-21.21,21.21,130.81,130.81c2.93,2.93,6.77,4.39,10.61,4.39s7.68-1.46,10.61-4.39c5.86-5.86,5.86-15.36,0-21.21l-130.81-130.81h0Z"/>
    </g>
  </g>
  <g>
    <g class="cls-5">
      <path class="cls-7" d="m27.29,223.31v-27h183.5c7.44,0,13.5,6.06,13.5,13.5s-6.06,13.5-13.5,13.5H27.29Z"/>
      <path class="cls-9" d="m210.79,197.81c6.62,0,12,5.38,12,12s-5.38,12-12,12H28.79v-24h182m0-3H25.79v30h185c8.28,0,15-6.72,15-15h0c0-8.28-6.72-15-15-15h0Z"/>
    </g>
    <g>
      <path class="cls-9" d="m210.79,223.31c-3.61,0-7-1.4-9.55-3.95-5.26-5.26-5.26-13.83,0-19.09l129.75-129.75,19.09,19.09-129.75,129.75c-2.55,2.55-5.94,3.95-9.55,3.95Z"/>
      <path class="cls-6" d="m331,72.64l16.97,16.97-128.69,128.69c-2.27,2.27-5.28,3.51-8.49,3.51s-6.22-1.25-8.49-3.51c-2.27-2.27-3.51-5.28-3.51-8.49s1.25-6.22,3.51-8.49l128.69-128.69m0-4.24l-130.81,130.81c-5.86,5.86-5.86,15.36,0,21.21h0c2.93,2.93,6.77,4.39,10.61,4.39s7.68-1.46,10.61-4.39l130.81-130.81-21.21-21.21h0Z"/>
    </g>
    <g class="cls-2">
      <path class="cls-7" d="m210.79,223.31c-7.44,0-13.5-6.06-13.5-13.5V26.31h27v183.5c0,7.44-6.06,13.5-13.5,13.5Z"/>
      <path class="cls-9" d="m222.79,27.81v182c0,6.62-5.38,12-12,12s-12-5.38-12-12V27.81h24m3-3h-30v185c0,8.28,6.72,15,15,15s15-6.72,15-15V24.81h0Z"/>
    </g>
    <g class="cls-3">
      <path class="cls-7" d="m210.79,223.31c-3.61,0-7-1.4-9.55-3.95L71.49,89.61l19.09-19.09,129.75,129.75c5.26,5.26,5.26,13.83,0,19.09-2.55,2.55-5.94,3.95-9.55,3.95Z"/>
      <path class="cls-9" d="m90.59,72.64l128.69,128.69c2.27,2.27,3.51,5.28,3.51,8.49s-1.25,6.22-3.51,8.49c-2.27,2.27-5.28,3.51-8.49,3.51s-6.22-1.25-8.49-3.51L73.61,89.61l16.97-16.97m0-4.24l-21.21,21.21,130.81,130.81c2.93,2.93,6.77,4.39,10.61,4.39s7.68-1.46,10.61-4.39h0c5.86-5.86,5.86-15.36,0-21.21L90.59,68.39h0Z"/>
    </g>
    <g class="cls-8">
      <path class="cls-7" d="m71.49,330.02l129.75-129.75c2.55-2.55,5.94-3.95,9.55-3.95s7,1.4,9.55,3.95c5.26,5.26,5.26,13.83,0,19.09l-129.75,129.75-19.09-19.09Z"/>
      <path class="cls-9" d="m210.79,197.81c3.21,0,6.22,1.25,8.49,3.51,2.27,2.27,3.51,5.28,3.51,8.49s-1.25,6.22-3.51,8.49l-128.69,128.69-16.97-16.97,128.69-128.69c2.27-2.27,5.28-3.51,8.49-3.51m0-3c-3.84,0-7.68,1.46-10.61,4.39l-130.81,130.81,21.21,21.21,130.81-130.81c5.86-5.86,5.86-15.36,0-21.21h0c-2.93-2.93-6.77-4.39-10.61-4.39h0Z"/>
    </g>
    <g class="cls-1">
      <path class="cls-7" d="m197.29,393.31v-183.5c0-7.44,6.06-13.5,13.5-13.5s13.5,6.06,13.5,13.5v183.5h-27Z"/>
      <path class="cls-9" d="m210.79,197.81c6.62,0,12,5.38,12,12v182h-24v-182c0-6.62,5.38-12,12-12m0-3c-8.28,0-15,6.72-15,15v185h30v-185c0-8.28-6.72-15-15-15h0Z"/>
    </g>
    <g class="cls-4">
      <path class="cls-7" d="m201.25,219.36c-5.26-5.26-5.26-13.83,0-19.09,2.55-2.55,5.94-3.95,9.55-3.95s7,1.4,9.55,3.95l129.75,129.75-19.09,19.09-129.75-129.75Z"/>
      <path class="cls-9" d="m210.79,197.81c3.21,0,6.22,1.25,8.49,3.51l128.69,128.69-16.97,16.97-128.69-128.69c-4.68-4.68-4.68-12.29,0-16.97,2.27-2.27,5.28-3.51,8.49-3.51m0-3c-3.84,0-7.68,1.46-10.61,4.39h0c-5.86,5.86-5.86,15.36,0,21.21l130.81,130.81,21.21-21.21-130.81-130.81c-2.93-2.93-6.77-4.39-10.61-4.39h0Z"/>
    </g>
  </g>
</svg>