<svg xmlns="http://www.w3.org/2000/svg" id="_Слой_1" data-name="Слой 1" viewBox="0 0 920.7 203.1" width="800">
  <defs>
    <style>
      .cls-2{fill:none;stroke-linejoin:round;stroke-width:2.5px}.cls-3{font-size:18px;isolation:isolate}.cls-3,.cls-4{font-family:ArialMT,Arial}.cls-3{fill:#616161}.cls-4{fill:#818181;font-size:38.8px}.cls-2{stroke:rgba(97,97,97,.8);stroke-linecap:round}
    </style>
  </defs>
  <path fill="none" stroke="rgba(192,192,192,.8)" stroke-dasharray="0 0 10.5 8" stroke-linejoin="round" stroke-width="2.5" d="M-114.1 23.6h1822m-1822 75h1822m-1822 75h1822"/>
  <text class="cls-3" transform="translate(520.9 70)"><tspan x="0" y="0">3</tspan></text>
  <path d="m537.5 23.6 1 75" class="cls-2"/>
  <text class="cls-3" transform="translate(499.9 139)"><tspan x="0" y="0">1</tspan></text>
  <path d="m538.5 98.6-36 75" class="cls-2"/>
  <text class="cls-3" transform="translate(568.9 141)"><tspan x="0" y="0">4</tspan></text>
  <path d="m538.5 98.6 38 75" class="cls-2"/>
  <text class="cls-3" transform="translate(665.9 58)"><tspan x="0" y="0">4</tspan></text>
  <path d="m537.5 23.6 235 75" class="cls-2"/>
  <text class="cls-3" transform="translate(738.9 141)"><tspan x="0" y="0">1</tspan></text>
  <path d="m772.5 98.6-23 75" class="cls-2"/>
  <text class="cls-3" transform="translate(818.9 139)"><tspan x="0" y="0">3</tspan></text>
  <path d="m772.5 98.6 57 75" class="cls-2"/>
  <text class="cls-3" transform="translate(390.9 57)"><tspan x="0" y="0">2</tspan></text>
  <path d="m537.5 23.6-229 75" class="cls-2"/>
  <text class="cls-3" transform="translate(237.9 134)"><tspan x="0" y="0">1</tspan></text>
  <path d="m308.5 98.6-99 75" class="cls-2"/>
  <text class="cls-3" transform="translate(283.9 145)"><tspan x="0" y="0">3</tspan></text>
  <path d="m308.5 98.6-12 75" class="cls-2"/>
  <text class="cls-3" transform="translate(349.9 136)"><tspan x="0" y="0">4</tspan></text>
  <path d="m308.5 98.6 66 75" class="cls-2"/>
  <path fill="#616161" d="M544.5 23.6a7 7 0 1 1-14 0 7 7 0 0 1 14 0Zm1 75a7 7 0 1 1-14 0 7 7 0 0 1 14 0Zm-36 75a7 7 0 1 1-14 0 7 7 0 0 1 14 0Zm74 0a7 7 0 1 1-14 0 7 7 0 0 1 14 0Zm196-75a7 7 0 1 1-14 0 7 7 0 0 1 14 0Zm-23 75a7 7 0 1 1-14 0 7 7 0 0 1 14 0Zm80 0a7 7 0 1 1-14 0 7 7 0 0 1 14 0Zm-521-75a7 7 0 1 1-14 0 7 7 0 0 1 14 0Zm-99 75a7 7 0 1 1-14 0 7 7 0 0 1 14 0Zm87 0a7 7 0 1 1-14 0 7 7 0 0 1 14 0Zm78 0a7 7 0 1 1-14 0 7 7 0 0 1 14 0Z"/>
  <text class="cls-4" transform="translate(14.3 72.8)"><tspan x="0" y="0">1ч</tspan></text>
  <text class="cls-4" transform="translate(18.5 151)"><tspan x="0" y="0">2ч</tspan></text>
</svg>
