<svg xmlns="http://www.w3.org/2000/svg" id="_Слой_1" data-name="Слой 1" viewBox="0 0 189.8 191.4" width="800">
  <defs>
    <style>
      .cls-1{fill:#616161}.cls-2{fill:none;stroke:rgba(97,97,97,.8);stroke-linecap:round;stroke-linejoin:round;stroke-width:2.5px}
    </style>
  </defs>
  <path d="M131 75.2c-.4-.6-1-1-2-1s-1.8.5-2.6 1.6l-.6.7a11 11 0 0 0-1.2 4.6c0 1.3.4 2 1.3 2.4l.8.1a5.7 5.7 0 0 0 4.6-2.2c0-.2.2-.3.3-.3 0 0 .2.1.2.3 0 .2-.2.5-.7 1a6.4 6.4 0 0 1-4.5 1.7c-1.4 0-2.5-.5-3.2-1.7-.3-.6-.5-1.3-.5-2.1 0-1.6.6-3 1.8-4.4a6 6 0 0 1 4-2.2h.4c1.1 0 2 .4 2.4 1.1.2.3.3.6.3 1 0 .6-.3 1-.8 1.3h-.5c-.5 0-.8-.1-.8-.5v-.2c0-.4 0-.7.3-1l1-.2Zm8.1 9.3-.4 2.8h-6l.1-.5 3.2-3.5c1.1-1.3 1.7-2.5 1.7-3.6 0-1-.3-1.6-.9-2.1a2.2 2.2 0 0 0-3.2.5l-.3.7h.2c.5 0 .7.1.9.5v.3c0 .4-.2.7-.6.8h-.3a.8.8 0 0 1-.7-.5l-.1-.4c0-.8.3-1.5 1-2.1a3 3 0 0 1 2-.8c1.2 0 2.1.4 2.8 1.2.3.4.6 1 .6 1.6v.3c0 .8-.3 1.5-.9 2.3l-1.4 1.4-1 .9-.2.1-1.7 1.7h3c.9 0 1.4 0 1.5-.2l.3-1.4h.4Z" class="cls-1"/>
  <path d="M94.8 96h77.7" class="cls-2"/>
  <path d="M78 54.1c-.4-.5-1-.8-2-.9-1 0-1.8.5-2.6 1.5l-.6.8a11 11 0 0 0-1.2 4.6c0 1.3.4 2 1.3 2.4l.7.1a5.7 5.7 0 0 0 4.7-2.2c0-.2.2-.3.3-.3 0 0 .2.1.2.3 0 .2-.2.5-.7 1a6.4 6.4 0 0 1-4.5 1.8c-1.4 0-2.5-.6-3.2-1.8-.3-.6-.5-1.3-.5-2.1 0-1.6.6-3 1.8-4.4a6 6 0 0 1 4-2.2h.4c1.1 0 2 .4 2.4 1.1.2.3.3.6.3 1 0 .6-.3 1-.8 1.3h-.5c-.5 0-.8-.1-.8-.5v-.2c0-.4 0-.7.3-1l1-.2Zm5.6 1.9v9c0 .4 0 .6.2.7l1.3.1h.5v.5a42.9 42.9 0 0 0-5.2 0v-.5h.5c.9 0 1.3 0 1.5-.3v-8.8a4 4 0 0 1-2 .4v-.5c1.2 0 2.2-.3 2.9-1l.3.1v.3Z" class="cls-1"/>
  <path d="M94.8 96V18.2" class="cls-2"/>
  <path d="M58 106.2c-.4-.6-1-1-2-1s-1.8.5-2.6 1.6l-.6.7a11 11 0 0 0-1.2 4.6c0 1.3.4 2 1.3 2.4l.7.1a5.7 5.7 0 0 0 4.6-2.2l.3-.3c.2 0 .3.1.3.3 0 .2-.2.5-.8 1a6.4 6.4 0 0 1-4.4 1.7c-1.5 0-2.5-.5-3.2-1.7-.3-.6-.5-1.3-.5-2.1 0-1.6.6-3 1.8-4.4a6 6 0 0 1 4-2.2h.3c1.2 0 2 .4 2.5 1.1.2.3.3.6.3 1 0 .6-.3 1-.8 1.3h-.5c-.5 0-.8-.1-.9-.5v-.2c0-.4.2-.7.4-1l1-.2Zm1.4 9.5v-.5l4.9-7.6.3-.1.3.1v7.6h1.6v.5h-1.6v1.4c0 .3 0 .5.2.6l1 .2h.3v.5a35.6 35.6 0 0 0-4.3 0v-.5h.3c.7 0 1-.1 1.2-.3v-1.9h-4.2m4.3-.5v-6l-3.9 6h4Z" class="cls-1"/>
  <path d="M94.8 96H17.1" class="cls-2"/>
  <path d="M110 128.2c-.4-.6-1-1-2-1s-1.8.5-2.6 1.6l-.6.7a11 11 0 0 0-1.2 4.6c0 1.3.4 2 1.3 2.4l.7.1a5.7 5.7 0 0 0 4.7-2.2c0-.2.2-.3.3-.3 0 0 .2.1.2.3 0 .2-.2.5-.7 1a6.4 6.4 0 0 1-4.5 1.8c-1.4 0-2.5-.6-3.2-1.8-.3-.6-.5-1.3-.5-2.1 0-1.6.6-3 1.8-4.4a6 6 0 0 1 4-2.1h.4c1.1 0 2 .3 2.4 1 .2.3.3.6.3 1 0 .6-.3 1-.8 1.3h-.5c-.5 0-.8-.1-.8-.5v-.2c0-.4 0-.7.3-1l1-.2Zm5.6 6.5c1 .2 1.8.7 2.3 1.6.2.4.4.8.4 1.3 0 1-.4 1.7-1.2 2.3-.6.5-1.4.8-2.3.8-1 0-1.9-.3-2.5-1-.5-.4-.7-1-.7-1.5s.2-.8.7-1h.2c.4 0 .7.2.8.6v.4c0 .4-.1.7-.5.8h-.5c.4.7 1.1 1.1 2 1.2h.5c.7 0 1.2-.3 1.5-1 .2-.4.3-1 .3-1.6 0-1.4-.4-2.3-1.3-2.6a2 2 0 0 0-.6 0h-.7c-.3 0-.4-.1-.4-.2 0-.2 0-.2.2-.2h.7a2 2 0 0 0 1.3-.7l.1-.2c.3-.5.5-1.2.5-1.9 0-1-.4-1.6-1.2-1.7h-.4c-.7 0-1.3.1-1.8.6-.2 0-.3.2-.3.3.6 0 1 .3 1 .8 0 .4-.2.7-.5.8a1 1 0 0 1-.4 0c-.4 0-.6-.1-.7-.5v-.3c0-.7.3-1.3 1-1.7.5-.3 1-.5 1.8-.5 1 0 1.7.3 2.3.9.5.4.6.8.6 1.3 0 1-.3 1.7-1.1 2.3l-1.1.6Z" class="cls-1"/>
  <path d="M94.8 96v77.6" class="cls-2"/>
  <path d="M101.8 96a7 7 0 1 1-14 0 7 7 0 0 1 14 0Z"/>
  <path d="M179.5 96a7 7 0 1 1-14 0 7 7 0 0 1 14 0Zm-77.7-77.7a7 7 0 1 1-14 0 7 7 0 0 1 14 0ZM24.1 96a7 7 0 1 1-14 0 7 7 0 0 1 14 0Zm77.7 77.6a7 7 0 1 1-14 0 7 7 0 0 1 14 0Z" class="cls-1"/>
</svg>
