<?xml version="1.0" encoding="UTF-8" standalone="no"?>
<svg xmlns="http://www.w3.org/2000/svg" version="1.2" baseProfile="tiny" viewBox="0.00 0.00 512.00 512.00">
<g stroke-width="2.00" fill="none" stroke-linecap="butt">
<path stroke="#c0c0c0" vector-effect="non-scaling-stroke" d="
  M 175.63 182.03
  C 175.63 181.77 175.76 181.67 176.01 181.72
  L 197.00 185.92
  C 197.33 185.99 197.49 186.19 197.49 186.52
  C 197.53 198.67 196.58 213.29 198.64 223.74
  C 203.64 249.11 225.49 268.51 251.26 270.46
  C 280.27 272.65 306.99 253.45 313.18 224.80
  C 315.50 214.05 314.57 198.81 314.52 186.30
  C 314.52 186.14 314.64 185.99 314.80 185.96
  C 326.43 183.63 338.08 181.29 349.76 178.94
  C 358.59 177.16 361.47 165.35 354.51 159.85
  C 352.85 158.54 349.93 157.46 345.74 156.63
  C 316.36 150.76 287.27 144.94 258.48 139.17
  C 256.88 138.85 255.22 138.85 253.62 139.17
  C 223.29 145.23 192.74 151.34 161.99 157.50
  C 151.42 159.61 150.94 173.86 160.55 178.45
  C 160.79 178.57 160.95 178.81 160.95 179.08
  C 160.96 188.01 160.96 196.96 160.94 205.93
  C 160.93 209.40 160.59 212.84 159.91 216.25
  C 157.87 226.50 155.82 236.75 153.75 247.00
  C 153.06 250.43 153.96 252.96 156.45 254.59
  C 160.20 257.02 169.11 256.01 173.86 256.00
  C 182.37 255.98 183.62 251.35 182.09 243.72
  C 180.27 234.65 178.45 225.58 176.64 216.51
  C 175.97 213.18 175.64 209.82 175.64 206.42
  C 175.65 198.24 175.64 190.11 175.63 182.03"
/>
<path stroke="#c0c0c0" vector-effect="non-scaling-stroke" d="
  M 358.21 353.50
  C 355.42 320.84 332.13 293.30 299.64 286.76
  C 299.43 286.72 299.22 286.78 299.08 286.93
  C 286.50 300.28 273.96 313.62 261.45 326.95
  C 257.15 331.52 252.71 329.25 248.94 325.24
  C 236.88 312.41 224.86 299.64 212.88 286.92
  C 212.69 286.72 212.41 286.63 212.14 286.69
  C 179.80 294.09 156.48 320.33 153.75 353.50
  C 153.09 361.45 154.26 368.19 161.58 371.67
  C 163.49 372.58 166.35 373.03 170.16 373.03
  C 227.01 373.03 283.87 373.03 340.73 373.04
  C 345.06 373.04 348.19 372.63 350.10 371.80
  C 357.82 368.48 358.86 361.13 358.21 353.50"
/>
</g>
<path fill="#808080" d="
  M 248.64 0.00
  L 263.52 0.00
  C 328.59 2.86 384.47 26.00 431.16 69.43
  C 481.39 116.15 509.00 179.52 512.00 248.37
  L 512.00 263.73
  C 509.51 333.35 479.38 399.26 428.34 445.33
  C 381.98 487.18 326.99 509.40 263.38 512.00
  L 248.51 512.00
  C 112.64 507.24 4.87 399.81 0.00 263.62
  L 0.00 248.25
  C 2.66 185.30 24.56 130.79 65.71 84.72
  C 111.93 32.99 178.37 2.39 248.64 0.00
  Z
  M 175.63 182.03
  C 175.63 181.77 175.76 181.67 176.01 181.72
  L 197.00 185.92
  C 197.33 185.99 197.49 186.19 197.49 186.52
  C 197.53 198.67 196.58 213.29 198.64 223.74
  C 203.64 249.11 225.49 268.51 251.26 270.46
  C 280.27 272.65 306.99 253.45 313.18 224.80
  C 315.50 214.05 314.57 198.81 314.52 186.30
  C 314.52 186.14 314.64 185.99 314.80 185.96
  C 326.43 183.63 338.08 181.29 349.76 178.94
  C 358.59 177.16 361.47 165.35 354.51 159.85
  C 352.85 158.54 349.93 157.46 345.74 156.63
  C 316.36 150.76 287.27 144.94 258.48 139.17
  C 256.88 138.85 255.22 138.85 253.62 139.17
  C 223.29 145.23 192.74 151.34 161.99 157.50
  C 151.42 159.61 150.94 173.86 160.55 178.45
  C 160.79 178.57 160.95 178.81 160.95 179.08
  C 160.96 188.01 160.96 196.96 160.94 205.93
  C 160.93 209.40 160.59 212.84 159.91 216.25
  C 157.87 226.50 155.82 236.75 153.75 247.00
  C 153.06 250.43 153.96 252.96 156.45 254.59
  C 160.20 257.02 169.11 256.01 173.86 256.00
  C 182.37 255.98 183.62 251.35 182.09 243.72
  C 180.27 234.65 178.45 225.58 176.64 216.51
  C 175.97 213.18 175.64 209.82 175.64 206.42
  C 175.65 198.24 175.64 190.11 175.63 182.03
  Z
  M 358.21 353.50
  C 355.42 320.84 332.13 293.30 299.64 286.76
  C 299.43 286.72 299.22 286.78 299.08 286.93
  C 286.50 300.28 273.96 313.62 261.45 326.95
  C 257.15 331.52 252.71 329.25 248.94 325.24
  C 236.88 312.41 224.86 299.64 212.88 286.92
  C 212.69 286.72 212.41 286.63 212.14 286.69
  C 179.80 294.09 156.48 320.33 153.75 353.50
  C 153.09 361.45 154.26 368.19 161.58 371.67
  C 163.49 372.58 166.35 373.03 170.16 373.03
  C 227.01 373.03 283.87 373.03 340.73 373.04
  C 345.06 373.04 348.19 372.63 350.10 371.80
  C 357.82 368.48 358.86 361.13 358.21 353.50
  Z"
/>
<path fill="#ffffff" d="
  M 175.63 182.03
  C 175.64 190.11 175.65 198.24 175.64 206.42
  C 175.64 209.82 175.97 213.18 176.64 216.51
  C 178.45 225.58 180.27 234.65 182.09 243.72
  C 183.62 251.35 182.37 255.98 173.86 256.00
  C 169.11 256.01 160.20 257.02 156.45 254.59
  C 153.96 252.96 153.06 250.43 153.75 247.00
  C 155.82 236.75 157.87 226.50 159.91 216.25
  C 160.59 212.84 160.93 209.40 160.94 205.93
  C 160.96 196.96 160.96 188.01 160.95 179.08
  C 160.95 178.81 160.79 178.57 160.55 178.45
  C 150.94 173.86 151.42 159.61 161.99 157.50
  C 192.74 151.34 223.29 145.23 253.62 139.17
  C 255.22 138.85 256.88 138.85 258.48 139.17
  C 287.27 144.94 316.36 150.76 345.74 156.63
  C 349.93 157.46 352.85 158.54 354.51 159.85
  C 361.47 165.35 358.59 177.16 349.76 178.94
  C 338.08 181.29 326.43 183.63 314.80 185.96
  C 314.64 185.99 314.52 186.14 314.52 186.30
  C 314.57 198.81 315.50 214.05 313.18 224.80
  C 306.99 253.45 280.27 272.65 251.26 270.46
  C 225.49 268.51 203.64 249.11 198.64 223.74
  C 196.58 213.29 197.53 198.67 197.49 186.52
  C 197.49 186.19 197.33 185.99 197.00 185.92
  L 176.01 181.72
  C 175.76 181.67 175.63 181.77 175.63 182.03
  Z"
/>
<path fill="#ffffff" d="
  M 299.64 286.76
  C 332.13 293.30 355.42 320.84 358.21 353.50
  C 358.86 361.13 357.82 368.48 350.10 371.80
  C 348.19 372.63 345.06 373.04 340.73 373.04
  C 283.87 373.03 227.01 373.03 170.16 373.03
  C 166.35 373.03 163.49 372.58 161.58 371.67
  C 154.26 368.19 153.09 361.45 153.75 353.50
  C 156.48 320.33 179.80 294.09 212.14 286.69
  C 212.41 286.63 212.69 286.72 212.88 286.92
  C 224.86 299.64 236.88 312.41 248.94 325.24
  C 252.71 329.25 257.15 331.52 261.45 326.95
  C 273.96 313.62 286.50 300.28 299.08 286.93
  C 299.22 286.78 299.43 286.72 299.64 286.76
  Z"
/>
</svg>
