<svg xmlns="http://www.w3.org/2000/svg" xmlns:xlink="http://www.w3.org/1999/xlink" width="800" viewBox="0 0 208.786 53.199"><style><![CDATA[.B{stroke-width:.399}.C{stroke-miterlimit:10}.D{fill:none}.E{stroke:rgb(0%,62.353516%,95.684814%)}.F{overflow:visible}.G{stroke:none}.H{fill:rgb(0%,0%,0%)}.I{stroke:rgb(0%,0%,0%)}.J{fill:rgb(0%,62.353516%,95.684814%)}.K{fill:rgb(100%,100%,100%)}]]></style><defs><symbol id="A" class="F"><path d="M4.578-3.187c0-.797-.047-1.594-.391-2.328-.453-.969-1.281-1.125-1.687-1.125-.609 0-1.328.266-1.75 1.188-.312.688-.359 1.469-.359 2.266 0 .75.031 1.641.453 2.406a1.83 1.83 0 0 0 1.641 1c.531 0 1.297-.203 1.734-1.156.313-.687.359-1.469.359-2.25zM2.484 0C2.094 0 1.5-.25 1.328-1.203c-.109-.594-.109-1.516-.109-2.109l.078-1.828c.188-1.187.938-1.281 1.188-1.281.328 0 .984.188 1.172 1.172.109.563.109 1.313.109 1.938 0 .75 0 1.422-.109 2.063C3.5-.297 2.938 0 2.484 0zm0 0" class="G"/></symbol><symbol id="B" class="F"><path d="M4.078-2.297h2.781c.141 0 .328 0 .328-.203 0-.187-.187-.187-.328-.187H4.078v-2.797c0-.141 0-.328-.203-.328s-.203.188-.203.328v2.797H.891c-.141 0-.328 0-.328.188 0 .203.188.203.328.203h2.781V.5c0 .141 0 .328.203.328S4.078.641 4.078.5zm0 0" class="G"/></symbol><symbol id="C" class="F"><path d="M7.578-6.922c0-.031-.016-.109-.109-.109-.031 0-.047.016-.156.125l-.687.766c-.094-.141-.547-.891-1.656-.891C2.734-7.031.5-4.828.5-2.516.5-.875 1.672.219 3.203.219c.859 0 1.625-.391 2.156-.859.922-.812 1.094-1.719 1.094-1.75 0-.109-.109-.109-.125-.109-.062 0-.109.031-.125.109-.094.281-.328 1-1.016 1.578-.687.547-1.312.719-1.828.719-.891 0-1.953-.516-1.953-2.062 0-.578.203-2.187 1.203-3.359.609-.703 1.547-1.203 2.438-1.203 1.016 0 1.609.766 1.609 1.922 0 .406-.031.406-.031.516 0 .094.109.094.141.094.125 0 .125-.016.188-.203zm0 0" class="G"/></symbol><symbol id="D" class="F"><path d="M3.328-3.016c.063-.25.297-1.172.984-1.172.047 0 .297 0 .5.125-.281.063-.469.297-.469.547 0 .156.109.344.375.344.219 0 .531-.172.531-.578 0-.516-.578-.656-.922-.656-.578 0-.922.531-1.047.75a1.09 1.09 0 0 0-1.078-.75C1.172-4.406.594-3.125.594-2.875c0 .109.109.109.125.109.078 0 .109-.031.125-.109.344-1.062 1-1.312 1.344-1.312.188 0 .531.094.531.672 0 .313-.172.969-.531 2.375-.156.609-.516 1.031-.953 1.031-.062 0-.281 0-.5-.125.25-.062.469-.266.469-.547 0-.266-.219-.344-.359-.344-.312 0-.547.25-.547.578 0 .453.484.656.922.656.672 0 1.031-.703 1.047-.75a1.12 1.12 0 0 0 1.078.75c1.031 0 1.594-1.281 1.594-1.531 0-.109-.078-.109-.109-.109-.094 0-.109.047-.141.109-.328 1.078-1 1.313-1.312 1.313-.391 0-.547-.312-.547-.656 0-.219.047-.437.156-.875zm0 0" class="G"/></symbol><symbol id="E" class="F"><path d="M6.734-4.969c.109-.062.188-.109.188-.219s-.094-.203-.203-.203c-.031 0-.047 0-.172.078L1.016-2.719c-.109.063-.187.109-.187.219 0 .125.078.172.188.234L6.547.328c.125.078.141.078.172.078.109 0 .203-.094.203-.203s-.078-.156-.187-.219L1.5-2.5zm0 0" class="G"/></symbol><symbol id="F" class="F"><path d="M3.719-3.766c-.187-.375-.469-.641-.922-.641-1.156 0-2.391 1.469-2.391 2.922C.406-.547.953.109 1.719.109c.203 0 .703-.047 1.297-.75a.91.91 0 0 0 .906.75c.359 0 .578-.234.75-.547a6.49 6.49 0 0 0 .297-.984c0-.109-.094-.109-.125-.109-.094 0-.109.047-.141.188-.172.641-.344 1.234-.75 1.234-.281 0-.297-.266-.297-.453 0-.219.016-.312.125-.75L4-2.203l.359-1.391.063-.344c0-.172-.109-.266-.281-.266-.25 0-.391.219-.422.438zm-.641 2.578c-.062.188-.062.203-.203.375-.437.547-.844.703-1.125.703-.5 0-.641-.547-.641-.937 0-.5.313-1.719.547-2.187.313-.578.75-.953 1.156-.953.641 0 .781.813.781.875a.56.56 0 0 1-.031.172zm0 0" class="G"/></symbol><symbol id="G" class="F"><path d="M1.578-7.125c0-.172 0-.359-.187-.359-.203 0-.203.188-.203.359v9.266c0 .172 0 .359.203.359.188 0 .188-.187.188-.359zm0 0" class="G"/></symbol><symbol id="H" class="F"><path d="M6.563-2.297c.172 0 .359 0 .359-.203 0-.187-.187-.187-.359-.187H1.172c-.172 0-.344 0-.344.188 0 .203.172.203.344.203zm0 0" class="G"/></symbol><clipPath id="I"><path d="M76.047 28.293h2.66v.465h-2.66zm0 0"/></clipPath><clipPath id="J"><path d="M76.715 28.293h4.98v.465h-4.98zm0 0"/></clipPath><clipPath id="K"><path d="M79.703 28.293h4.98v.465h-4.98zm0 0"/></clipPath><clipPath id="L"><path d="M82.691 28.293h4.98v.465h-4.98zm0 0"/></clipPath><clipPath id="M"><path d="M85.68 28.293h4.98v.465h-4.98zm0 0"/></clipPath><clipPath id="N"><path d="M88.668 28.293h4.98v.465h-4.98zm0 0"/></clipPath><clipPath id="O"><path d="M91.656 28.293h4.984v.465h-4.984zm0 0"/></clipPath><clipPath id="P"><path d="M94.645 28.293h4.984v.465h-4.984zm0 0"/></clipPath><clipPath id="Q"><path d="M97.637 28.293h4.98v.465h-4.98zm0 0"/></clipPath><clipPath id="R"><path d="M100.625 28.293h4.98v.465h-4.98zm0 0"/></clipPath><clipPath id="S"><path d="M103.613 28.293h4.98v.465h-4.98zm0 0"/></clipPath><clipPath id="T"><path d="M106.602 28.293h4.98v.465h-4.98zm0 0"/></clipPath><clipPath id="U"><path d="M109.59 28.293h4.98v.465h-4.98zm0 0"/></clipPath><clipPath id="V"><path d="M112.578 28.293h4.984v.465h-4.984zm0 0"/></clipPath><clipPath id="W"><path d="M115.566 28.293h4.984v.465h-4.984zm0 0"/></clipPath><clipPath id="X"><path d="M118.559 28.293h4.98v.465h-4.98zm0 0"/></clipPath><clipPath id="Y"><path d="M121.547 28.293h4.98v.465h-4.98zm0 0"/></clipPath><clipPath id="Z"><path d="M124.535 28.293h4.98v.465h-4.98zm0 0"/></clipPath><clipPath id="a"><path d="M127.523 28.293h4.98v.465h-4.98zm0 0"/></clipPath><clipPath id="b"><path d="M130.512 28.293h4.98v.465h-4.98zm0 0"/></clipPath><clipPath id="c"><path d="M133.5 28.293h4.984v.465H133.5zm0 0"/></clipPath><clipPath id="d"><path d="M136.488 28.293h4.984v.465h-4.984zm0 0"/></clipPath><clipPath id="e"><path d="M139.48 28.293h4.98v.465h-4.98zm0 0"/></clipPath><clipPath id="f"><path d="M142.469 28.293h4.98v.465h-4.98zm0 0"/></clipPath><clipPath id="g"><path d="M145.457 28.293h4.98v.465h-4.98zm0 0"/></clipPath><clipPath id="h"><path d="M148.445 28.293h4.98v.465h-4.98zm0 0"/></clipPath><clipPath id="i"><path d="M151.434 28.293h4.98v.465h-4.98zm0 0"/></clipPath><clipPath id="j"><path d="M154.422 28.293h4.98v.465h-4.98zm0 0"/></clipPath><clipPath id="k"><path d="M157.41 28.293h3.676v.465h-3.676zm0 0"/></clipPath><clipPath id="l"><path d="M160.402 28.293h.684v.465h-.684zm0 0"/></clipPath><clipPath id="m"><path d="M76.047 25.305h2.66v3.453h-2.66zm0 0"/></clipPath><clipPath id="n"><path d="M76.715 25.305h4.98v3.453h-4.98zm0 0"/></clipPath><clipPath id="o"><path d="M79.703 25.305h4.98v3.453h-4.98zm0 0"/></clipPath><clipPath id="p"><path d="M82.691 25.305h4.98v3.453h-4.98zm0 0"/></clipPath><clipPath id="q"><path d="M85.68 25.305h4.98v3.453h-4.98zm0 0"/></clipPath><clipPath id="r"><path d="M88.668 25.305h4.98v3.453h-4.98zm0 0"/></clipPath><clipPath id="s"><path d="M91.656 25.305h4.984v3.453h-4.984zm0 0"/></clipPath><clipPath id="t"><path d="M94.645 25.305h4.984v3.453h-4.984zm0 0"/></clipPath><clipPath id="u"><path d="M97.637 25.305h4.98v3.453h-4.98zm0 0"/></clipPath><clipPath id="v"><path d="M100.625 25.305h4.98v3.453h-4.98zm0 0"/></clipPath><clipPath id="w"><path d="M103.613 25.305h4.98v3.453h-4.98zm0 0"/></clipPath><clipPath id="x"><path d="M106.602 25.305h4.98v3.453h-4.98zm0 0"/></clipPath><clipPath id="y"><path d="M109.59 25.305h4.98v3.453h-4.98zm0 0"/></clipPath><clipPath id="z"><path d="M112.578 25.305h4.984v3.453h-4.984zm0 0"/></clipPath><clipPath id="AA"><path d="M115.566 25.305h4.984v3.453h-4.984zm0 0"/></clipPath><clipPath id="AB"><path d="M118.559 25.305h4.98v3.453h-4.98zm0 0"/></clipPath><clipPath id="AC"><path d="M121.547 25.305h4.98v3.453h-4.98zm0 0"/></clipPath><clipPath id="AD"><path d="M124.535 25.305h4.98v3.453h-4.98zm0 0"/></clipPath><clipPath id="AE"><path d="M127.523 25.305h4.98v3.453h-4.98zm0 0"/></clipPath><clipPath id="AF"><path d="M130.512 25.305h4.98v3.453h-4.98zm0 0"/></clipPath><clipPath id="AG"><path d="M133.5 25.305h4.984v3.453H133.5zm0 0"/></clipPath><clipPath id="AH"><path d="M136.488 25.305h4.984v3.453h-4.984zm0 0"/></clipPath><clipPath id="AI"><path d="M139.48 25.305h4.98v3.453h-4.98zm0 0"/></clipPath><clipPath id="AJ"><path d="M142.469 25.305h4.98v3.453h-4.98zm0 0"/></clipPath><clipPath id="AK"><path d="M145.457 25.305h4.98v3.453h-4.98zm0 0"/></clipPath><clipPath id="AL"><path d="M148.445 25.305h4.98v3.453h-4.98zm0 0"/></clipPath><clipPath id="AM"><path d="M151.434 25.305h4.98v3.453h-4.98zm0 0"/></clipPath><clipPath id="AN"><path d="M154.422 25.305h4.98v3.453h-4.98zm0 0"/></clipPath><clipPath id="AO"><path d="M157.41 25.305h3.676v3.453h-3.676zm0 0"/></clipPath><clipPath id="AP"><path d="M160.402 25.305h.684v3.453h-.684zm0 0"/></clipPath><clipPath id="AQ"><path d="M76.047 24.508h2.66v2.789h-2.66zm0 0"/></clipPath><clipPath id="AR"><path d="M76.715 24.508h4.98v2.789h-4.98zm0 0"/></clipPath><clipPath id="AS"><path d="M79.703 24.508h4.98v2.789h-4.98zm0 0"/></clipPath><clipPath id="AT"><path d="M82.691 24.508h4.98v2.789h-4.98zm0 0"/></clipPath><clipPath id="AU"><path d="M85.68 24.508h4.98v2.789h-4.98zm0 0"/></clipPath><clipPath id="AV"><path d="M88.668 24.508h4.98v2.789h-4.98zm0 0"/></clipPath><clipPath id="AW"><path d="M91.656 24.508h4.984v2.789h-4.984zm0 0"/></clipPath><clipPath id="AX"><path d="M94.645 24.508h4.984v2.789h-4.984zm0 0"/></clipPath><clipPath id="AY"><path d="M97.637 24.508h4.98v2.789h-4.98zm0 0"/></clipPath><clipPath id="AZ"><path d="M100.625 24.508h4.98v2.789h-4.98zm0 0"/></clipPath><clipPath id="Aa"><path d="M103.613 24.508h4.98v2.789h-4.98zm0 0"/></clipPath><clipPath id="Ab"><path d="M106.602 24.508h4.98v2.789h-4.98zm0 0"/></clipPath><clipPath id="Ac"><path d="M109.59 24.508h4.98v2.789h-4.98zm0 0"/></clipPath><clipPath id="Ad"><path d="M112.578 24.508h4.984v2.789h-4.984zm0 0"/></clipPath><clipPath id="Ae"><path d="M115.566 24.508h4.984v2.789h-4.984zm0 0"/></clipPath><clipPath id="Af"><path d="M118.559 24.508h4.98v2.789h-4.98zm0 0"/></clipPath><clipPath id="Ag"><path d="M121.547 24.508h4.98v2.789h-4.98zm0 0"/></clipPath><clipPath id="Ah"><path d="M124.535 24.508h4.98v2.789h-4.98zm0 0"/></clipPath><clipPath id="Ai"><path d="M127.523 24.508h4.98v2.789h-4.98zm0 0"/></clipPath><clipPath id="Aj"><path d="M130.512 24.508h4.98v2.789h-4.98zm0 0"/></clipPath><clipPath id="Ak"><path d="M133.5 24.508h4.984v2.789H133.5zm0 0"/></clipPath><clipPath id="Al"><path d="M136.488 24.508h4.984v2.789h-4.984zm0 0"/></clipPath><clipPath id="Am"><path d="M139.48 24.508h4.98v2.789h-4.98zm0 0"/></clipPath><clipPath id="An"><path d="M142.469 24.508h4.98v2.789h-4.98zm0 0"/></clipPath><clipPath id="Ao"><path d="M145.457 24.508h4.98v2.789h-4.98zm0 0"/></clipPath><clipPath id="Ap"><path d="M148.445 24.508h4.98v2.789h-4.98zm0 0"/></clipPath><clipPath id="Aq"><path d="M151.434 24.508h4.98v2.789h-4.98zm0 0"/></clipPath><clipPath id="Ar"><path d="M154.422 24.508h4.98v2.789h-4.98zm0 0"/></clipPath><clipPath id="As"><path d="M157.41 24.508h3.676v2.789h-3.676zm0 0"/></clipPath><clipPath id="At"><path d="M160.402 24.508h.684v2.789h-.684zm0 0"/></clipPath></defs><g clip-path="url(#I)" class="B C D E"><path d="M74.723 29.289l3.086 3.086"/></g><g clip-path="url(#J)" class="B C D E"><path d="M77.711 29.289l3.086 3.086"/></g><g clip-path="url(#K)" class="B C D E"><path d="M80.699 29.289l3.086 3.086"/></g><g clip-path="url(#L)" class="B C D E"><path d="M83.688 29.289l3.09 3.086"/></g><g clip-path="url(#M)" class="B C D E"><path d="M86.676 29.289l3.09 3.086"/></g><g clip-path="url(#N)" class="B C D E"><path d="M89.664 29.289l3.09 3.086"/></g><g clip-path="url(#O)" class="B C D E"><path d="M92.652 29.289l3.09 3.086"/></g><g clip-path="url(#P)" class="B C D E"><path d="M95.641 29.289l3.09 3.086"/></g><g clip-path="url(#Q)" class="B C D E"><path d="M98.633 29.289l3.086 3.086"/></g><g clip-path="url(#R)" class="B C D E"><path d="M101.621 29.289l3.086 3.086"/></g><g clip-path="url(#S)" class="B C D E"><path d="M104.609 29.289l3.09 3.086"/></g><g clip-path="url(#T)" class="B C D E"><path d="M107.598 29.289l3.09 3.086"/></g><g clip-path="url(#U)" class="B C D E"><path d="M110.586 29.289l3.09 3.086"/></g><g clip-path="url(#V)" class="B C D E"><path d="M113.574 29.289l3.09 3.086"/></g><g clip-path="url(#W)" class="B C D E"><path d="M116.563 29.289l3.09 3.086"/></g><g clip-path="url(#X)" class="B C D E"><path d="M119.555 29.289l3.086 3.086"/></g><g clip-path="url(#Y)" class="B C D E"><path d="M122.543 29.289l3.086 3.086"/></g><g clip-path="url(#Z)" class="B C D E"><path d="M125.531 29.289l3.09 3.086"/></g><g clip-path="url(#a)" class="B C D E"><path d="M128.52 29.289l3.09 3.086"/></g><g clip-path="url(#b)" class="B C D E"><path d="M131.508 29.289l3.09 3.086"/></g><g clip-path="url(#c)" class="B C D E"><path d="M134.496 29.289l3.09 3.086"/></g><g clip-path="url(#d)" class="B C D E"><path d="M137.484 29.289l3.09 3.086"/></g><g clip-path="url(#e)" class="B C D E"><path d="M140.477 29.289l3.086 3.086"/></g><g clip-path="url(#f)" class="B C D E"><path d="M143.465 29.289l3.086 3.086"/></g><g clip-path="url(#g)" class="B C D E"><path d="M146.453 29.289l3.09 3.086"/></g><g clip-path="url(#h)" class="B C D E"><path d="M149.441 29.289l3.09 3.086"/></g><g clip-path="url(#i)" class="B C D E"><path d="M152.43 29.289l3.09 3.086"/></g><g clip-path="url(#j)" class="B C D E"><path d="M155.418 29.289l3.09 3.086"/></g><g clip-path="url(#k)" class="B C D E"><path d="M158.406 29.289l3.09 3.086"/></g><g clip-path="url(#l)" class="B C D E"><path d="M161.398 29.289l3.086 3.086"/></g><g clip-path="url(#m)" class="B C D E"><path d="M74.723 26.301l3.086 3.086"/></g><g clip-path="url(#n)" class="B C D E"><path d="M77.711 26.301l3.086 3.086"/></g><g clip-path="url(#o)" class="B C D E"><path d="M80.699 26.301l3.086 3.086"/></g><g clip-path="url(#p)" class="B C D E"><path d="M83.688 26.301l3.09 3.086"/></g><g clip-path="url(#q)" class="B C D E"><path d="M86.676 26.301l3.09 3.086"/></g><g clip-path="url(#r)" class="B C D E"><path d="M89.664 26.301l3.09 3.086"/></g><g clip-path="url(#s)" class="B C D E"><path d="M92.652 26.301l3.09 3.086"/></g><g clip-path="url(#t)" class="B C D E"><path d="M95.641 26.301l3.09 3.086"/></g><g clip-path="url(#u)" class="B C D E"><path d="M98.633 26.301l3.086 3.086"/></g><g clip-path="url(#v)" class="B C D E"><path d="M101.621 26.301l3.086 3.086"/></g><g clip-path="url(#w)" class="B C D E"><path d="M104.609 26.301l3.09 3.086"/></g><g clip-path="url(#x)" class="B C D E"><path d="M107.598 26.301l3.09 3.086"/></g><g clip-path="url(#y)" class="B C D E"><path d="M110.586 26.301l3.09 3.086"/></g><g clip-path="url(#z)" class="B C D E"><path d="M113.574 26.301l3.09 3.086"/></g><g clip-path="url(#AA)" class="B C D E"><path d="M116.563 26.301l3.09 3.086"/></g><g clip-path="url(#AB)" class="B C D E"><path d="M119.555 26.301l3.086 3.086"/></g><g clip-path="url(#AC)" class="B C D E"><path d="M122.543 26.301l3.086 3.086"/></g><g clip-path="url(#AD)" class="B C D E"><path d="M125.531 26.301l3.09 3.086"/></g><g clip-path="url(#AE)" class="B C D E"><path d="M128.52 26.301l3.09 3.086"/></g><g clip-path="url(#AF)" class="B C D E"><path d="M131.508 26.301l3.09 3.086"/></g><g clip-path="url(#AG)" class="B C D E"><path d="M134.496 26.301l3.09 3.086"/></g><g clip-path="url(#AH)" class="B C D E"><path d="M137.484 26.301l3.09 3.086"/></g><g clip-path="url(#AI)" class="B C D E"><path d="M140.477 26.301l3.086 3.086"/></g><g clip-path="url(#AJ)" class="B C D E"><path d="M143.465 26.301l3.086 3.086"/></g><g clip-path="url(#AK)" class="B C D E"><path d="M146.453 26.301l3.09 3.086"/></g><g clip-path="url(#AL)" class="B C D E"><path d="M149.441 26.301l3.09 3.086"/></g><g clip-path="url(#AM)" class="B C D E"><path d="M152.43 26.301l3.09 3.086"/></g><g clip-path="url(#AN)" class="B C D E"><path d="M155.418 26.301l3.09 3.086"/></g><g clip-path="url(#AO)" class="B C D E"><path d="M158.406 26.301l3.09 3.086"/></g><g clip-path="url(#AP)" class="B C D E"><path d="M161.398 26.301l3.086 3.086"/></g><g clip-path="url(#AQ)" class="B C D E"><path d="M74.723 23.313l3.086 3.086"/></g><g clip-path="url(#AR)" class="B C D E"><path d="M77.711 23.313l3.086 3.086"/></g><g clip-path="url(#AS)" class="B C D E"><path d="M80.699 23.313l3.086 3.086"/></g><g clip-path="url(#AT)" class="B C D E"><path d="M83.688 23.313l3.09 3.086"/></g><g clip-path="url(#AU)" class="B C D E"><path d="M86.676 23.313l3.09 3.086"/></g><g clip-path="url(#AV)" class="B C D E"><path d="M89.664 23.313l3.09 3.086"/></g><g clip-path="url(#AW)" class="B C D E"><path d="M92.652 23.313l3.09 3.086"/></g><g clip-path="url(#AX)" class="B C D E"><path d="M95.641 23.313l3.09 3.086"/></g><g clip-path="url(#AY)" class="B C D E"><path d="M98.633 23.313l3.086 3.086"/></g><g clip-path="url(#AZ)" class="B C D E"><path d="M101.621 23.313l3.086 3.086"/></g><g clip-path="url(#Aa)" class="B C D E"><path d="M104.609 23.313l3.09 3.086"/></g><g clip-path="url(#Ab)" class="B C D E"><path d="M107.598 23.313l3.09 3.086"/></g><g clip-path="url(#Ac)" class="B C D E"><path d="M110.586 23.313l3.09 3.086"/></g><g clip-path="url(#Ad)" class="B C D E"><path d="M113.574 23.313l3.09 3.086"/></g><g clip-path="url(#Ae)" class="B C D E"><path d="M116.563 23.313l3.09 3.086"/></g><g clip-path="url(#Af)" class="B C D E"><path d="M119.555 23.313l3.086 3.086"/></g><g clip-path="url(#Ag)" class="B C D E"><path d="M122.543 23.313l3.086 3.086"/></g><g clip-path="url(#Ah)" class="B C D E"><path d="M125.531 23.313l3.09 3.086"/></g><g clip-path="url(#Ai)" class="B C D E"><path d="M128.52 23.313l3.09 3.086"/></g><g clip-path="url(#Aj)" class="B C D E"><path d="M131.508 23.313l3.09 3.086"/></g><g clip-path="url(#Ak)" class="B C D E"><path d="M134.496 23.313l3.09 3.086"/></g><g clip-path="url(#Al)" class="B C D E"><path d="M137.484 23.313l3.09 3.086"/></g><g clip-path="url(#Am)" class="B C D E"><path d="M140.477 23.313l3.086 3.086"/></g><g clip-path="url(#An)" class="B C D E"><path d="M143.465 23.313l3.086 3.086"/></g><g clip-path="url(#Ao)" class="B C D E"><path d="M146.453 23.313l3.09 3.086"/></g><g clip-path="url(#Ap)" class="B C D E"><path d="M149.441 23.313l3.09 3.086"/></g><g clip-path="url(#Aq)" class="B C D E"><path d="M152.43 23.313l3.09 3.086"/></g><g clip-path="url(#Ar)" class="B C D E"><path d="M155.418 23.313l3.09 3.086"/></g><g clip-path="url(#As)" class="B C D E"><path d="M158.406 23.313l3.09 3.086"/></g><g clip-path="url(#At)" class="B C D E"><path d="M161.398 23.313l3.086 3.086"/></g><g class="B C D I"><path d="M5.18 28.758h198.031"/><path d="M201.336 26.367c.379 1.434 1.223 2.113 2.074 2.391-.852.277-1.695.957-2.074 2.391" stroke-linecap="round" stroke-linejoin="round"/><path d="M33.527 24.508v8.504"/></g><use xlink:href="#A" x="31.036" y="43.679" class="H"/><path d="M120.559 28.758a1.99 1.99 0 0 0-1.992-1.992c-1.098 0-1.992.891-1.992 1.992s.895 1.992 1.992 1.992a1.99 1.99 0 0 0 1.992-1.992zm0 0" class="B C I J"/><g class="H"><use xlink:href="#C" x="114.65" y="44.067"/><use xlink:href="#G" x="93.672" y="15.774"/></g><use xlink:href="#D" x="96.44" y="15.774" class="J"/><g class="H"><use xlink:href="#H" x="104.348" y="15.774"/><use xlink:href="#C" x="114.31" y="15.774"/><use xlink:href="#G" x="122.143" y="15.774"/><use xlink:href="#E" x="127.678" y="15.774"/><use xlink:href="#F" x="138.197" y="15.774"/></g><path d="M78.039 28.758a1.99 1.99 0 1 0-3.984 0 1.99 1.99 0 1 0 3.984 0zm0 0" class="B C I K"/><g class="H"><use xlink:href="#C" x="63.409" y="44.067"/><use xlink:href="#H" x="73.456" y="44.067"/><use xlink:href="#F" x="83.418" y="44.067"/></g><path d="M163.082 28.758c0-1.102-.895-1.992-1.996-1.992s-1.992.891-1.992 1.992.895 1.992 1.992 1.992 1.996-.891 1.996-1.992zm0 0" class="B C I K"/><g class="H"><use xlink:href="#C" x="148.448" y="44.067"/><use xlink:href="#B" x="158.495" y="44.067"/><use xlink:href="#F" x="168.458" y="44.067"/></g></svg>