<svg xmlns="http://www.w3.org/2000/svg" viewBox="0 0 343.99 154.3" width="1000">
  <defs>
    <style>
      .cls-3{fill:#393939}.cls-6{fill:#787878}.cls-9{stroke-miterlimit:10;fill:rgba(195,195,196,.5);stroke:#8f9090}
    </style>
  </defs>
  <rect id="AllPermutations" width="340" height="150" x="1.47" y="1.99" fill="rgba(178,178,178,.25)" stroke="#706f6f" stroke-miterlimit="10" rx="5" ry="5"/>
  <rect width="99.79" height="39.3" x="11.45" y="43.92" class="cls-9" rx="5" ry="5"/>
  <path d="m31.45 73.7-.06-.56h-.03c-.25.35-.73.66-1.36.66-.9 0-1.36-.63-1.36-1.28 0-1.07.96-1.66 2.67-1.65v-.09c0-.37-.1-1.03-1.01-1.03-.41 0-.85.13-1.16.33l-.18-.53c.37-.24.9-.4 1.46-.4 1.36 0 1.69.93 1.69 1.82v1.66c0 .39.02.76.07 1.07h-.73Zm-.12-2.27c-.88-.02-1.88.14-1.88 1 0 .52.35.77.76.77a1.1 1.1 0 0 0 1.12-1v-.77Zm4.55 2.27-.06-.56h-.03c-.25.35-.73.66-1.36.66-.9 0-1.36-.63-1.36-1.28 0-1.07.96-1.66 2.67-1.65v-.09c0-.37-.1-1.03-1.01-1.03-.41 0-.84.13-1.16.33l-.18-.53c.37-.24.9-.4 1.46-.4 1.36 0 1.69.93 1.69 1.82v1.66c0 .39.02.76.07 1.07h-.73Zm-.12-2.27c-.88-.02-1.88.14-1.88 1 0 .52.35.77.76.77a1.1 1.1 0 0 0 1.12-1v-.77Zm4.55 2.27-.06-.56h-.03c-.25.35-.73.66-1.36.66-.9 0-1.36-.63-1.36-1.28 0-1.07.96-1.66 2.67-1.65v-.09c0-.37-.1-1.03-1.01-1.03-.41 0-.85.13-1.16.33l-.18-.53c.37-.24.9-.4 1.46-.4 1.36 0 1.69.93 1.69 1.82v1.66c0 .39.02.76.07 1.07h-.73Zm-.12-2.27c-.88-.02-1.88.14-1.88 1 0 .52.35.77.76.77a1.1 1.1 0 0 0 1.12-1v-.77Zm4.55 2.27-.06-.56h-.03c-.25.35-.73.66-1.36.66-.9 0-1.36-.63-1.36-1.28 0-1.07.96-1.66 2.67-1.65v-.09c0-.37-.1-1.03-1.01-1.03-.41 0-.84.13-1.16.33l-.18-.53c.37-.24.9-.4 1.46-.4 1.36 0 1.69.93 1.69 1.82v1.66c0 .39.02.76.07 1.07h-.73Zm-.12-2.27c-.88-.02-1.88.14-1.88 1 0 .52.35.77.76.77a1.1 1.1 0 0 0 1.12-1v-.77Zm4.54 2.27-.06-.56h-.03c-.25.35-.73.66-1.36.66-.9 0-1.36-.63-1.36-1.28 0-1.07.96-1.66 2.67-1.65v-.09c0-.37-.1-1.03-1.01-1.03-.41 0-.85.13-1.16.33l-.18-.53c.37-.24.9-.4 1.46-.4 1.36 0 1.69.93 1.69 1.82v1.66c0 .39.02.76.07 1.07h-.73Zm-.12-2.27c-.88-.02-1.88.14-1.88 1 0 .52.35.77.76.77a1.1 1.1 0 0 0 1.12-1v-.77Zm1.9 1.8c0-.34.23-.58.55-.58s.54.24.54.58-.21.58-.55.58c-.32 0-.54-.25-.54-.58Zm1.9 0c0-.34.23-.58.55-.58s.54.24.54.58-.21.58-.55.58c-.32 0-.54-.25-.54-.58Zm1.9 0c0-.34.23-.58.55-.58s.54.24.54.58-.21.58-.55.58c-.32 0-.54-.25-.54-.58Zm6.51.47-.06-.56h-.03c-.25.35-.73.66-1.36.66-.9 0-1.36-.63-1.36-1.28 0-1.07.96-1.66 2.67-1.65v-.09c0-.37-.1-1.03-1.01-1.03-.41 0-.84.13-1.16.33l-.18-.53c.37-.24.9-.4 1.46-.4 1.36 0 1.69.93 1.69 1.82v1.66c0 .39.02.76.07 1.07h-.73Zm-.12-2.27c-.88-.02-1.88.14-1.88 1 0 .52.35.77.76.77a1.1 1.1 0 0 0 1.12-1v-.77Zm4.55 2.27-.06-.56h-.03c-.25.35-.73.66-1.36.66-.9 0-1.36-.63-1.36-1.28 0-1.07.96-1.66 2.67-1.65v-.09c0-.37-.1-1.03-1.01-1.03-.41 0-.85.13-1.16.33l-.18-.53c.37-.24.9-.4 1.46-.4 1.36 0 1.69.93 1.69 1.82v1.66c0 .39.02.76.07 1.07h-.73Zm-.12-2.27c-.88-.02-1.88.14-1.88 1 0 .52.35.77.76.77a1.1 1.1 0 0 0 1.12-1v-.77Zm4.55 2.27-.06-.56h-.03c-.25.35-.73.66-1.36.66-.9 0-1.36-.63-1.36-1.28 0-1.07.96-1.66 2.67-1.65v-.09c0-.37-.1-1.03-1.01-1.03-.41 0-.84.13-1.16.33l-.18-.53c.37-.24.9-.4 1.46-.4 1.36 0 1.69.93 1.69 1.82v1.66c0 .39.02.76.07 1.07h-.73Zm-.12-2.27c-.88-.02-1.88.14-1.88 1 0 .52.35.77.76.77a1.1 1.1 0 0 0 1.12-1v-.77Zm4.55 2.27-.06-.56h-.03c-.25.35-.73.66-1.36.66-.9 0-1.36-.63-1.36-1.28 0-1.07.96-1.66 2.67-1.65v-.09c0-.37-.1-1.03-1.01-1.03-.41 0-.85.13-1.16.33l-.18-.53c.37-.24.9-.4 1.46-.4 1.36 0 1.69.93 1.69 1.82v1.66c0 .39.02.76.07 1.07h-.73Zm-.12-2.27c-.88-.02-1.88.14-1.88 1 0 .52.35.77.76.77a1.1 1.1 0 0 0 1.12-1v-.77Zm4.55 2.27-.06-.56h-.03c-.25.35-.73.66-1.36.66-.9 0-1.36-.63-1.36-1.28 0-1.07.96-1.66 2.67-1.65v-.09c0-.37-.1-1.03-1.01-1.03-.41 0-.84.13-1.16.33l-.18-.53c.37-.24.9-.4 1.46-.4 1.36 0 1.69.93 1.69 1.82v1.66c0 .39.02.76.07 1.07h-.73Zm-.12-2.27c-.88-.02-1.88.14-1.88 1 0 .52.35.77.76.77a1.1 1.1 0 0 0 1.12-1v-.77Zm1.89 1.8c0-.34.23-.58.55-.58s.54.24.54.58-.21.58-.55.58c-.32 0-.54-.25-.54-.58Zm1.9 0c0-.34.23-.58.55-.58s.54.24.54.58-.21.58-.55.58c-.32 0-.54-.25-.54-.58Zm1.9 0c0-.34.23-.58.55-.58s.54.24.54.58-.21.58-.55.58c-.32 0-.54-.25-.54-.58Zm3.85 0c0-.34.23-.58.55-.58s.54.24.54.58-.21.58-.55.58c-.32 0-.54-.25-.54-.58Zm1.91 0c0-.34.23-.58.55-.58s.54.24.54.58-.21.58-.55.58c-.32 0-.54-.25-.54-.58Zm1.9 0c0-.34.23-.58.55-.58s.54.24.54.58-.21.58-.55.58c-.32 0-.54-.25-.54-.58Z" class="cls-6"/>
  <path d="M43.07 53.83v5.52h2.01v-5.52h.79v5.52h2v-5.52h.8v6.19h-6.39v-6.19h.79Zm9.43 6.19-.06-.56h-.03c-.25.35-.73.66-1.36.66-.9 0-1.36-.63-1.36-1.28 0-1.07.96-1.66 2.67-1.65v-.09c0-.37-.1-1.03-1.01-1.03-.41 0-.85.13-1.16.33l-.18-.53c.37-.24.9-.4 1.46-.4 1.36 0 1.69.93 1.69 1.82v1.66c0 .39.02.76.07 1.07h-.73Zm-.12-2.27c-.88-.02-1.88.14-1.88 1 0 .52.35.77.76.77a1.1 1.1 0 0 0 1.12-1v-.77Zm5.45-3.68a5.6 5.6 0 0 1-.93.2c-.72.11-1.24.35-1.58.84-.28.4-.45 1-.49 1.47h.03c.28-.64.91-1 1.54-1 1.09 0 1.89.78 1.89 2.2s-.75 2.35-2.06 2.35c-1.56 0-2.08-1.5-2.08-2.98 0-1.01.21-1.84.69-2.46.43-.62 1.05-.9 1.91-1.05.36-.06.8-.13 1.1-.24l-.04.67Zm-1.59 2.1c-.48 0-.82.25-1 .61-.15.27-.22.59-.22.95 0 .73.36 1.79 1.24 1.79s1.22-.86 1.22-1.68c0-.73-.28-1.66-1.24-1.66Zm6.45-.6v4.45h-.8v-3.81h-1.52v1.16c0 1.25-.12 2.09-.7 2.46-.22.17-.47.28-.88.28l-.08-.63c.16-.03.33-.09.44-.18.41-.3.46-.93.46-1.92v-1.79h3.09Zm5.35 2.19c0 1.64-1.14 2.36-2.21 2.36-1.2 0-2.13-.88-2.13-2.29 0-1.49.97-2.36 2.2-2.36s2.14.93 2.14 2.29Zm-3.53.05c0 .97.56 1.71 1.35 1.71s1.35-.73 1.35-1.73c0-.75-.38-1.71-1.33-1.71s-1.37.88-1.37 1.73Zm5.33-2.24v1.79h2.11v-1.79h.8v4.45h-.8v-2.01h-2.11v2.01h-.8v-4.45h.8Zm7.68-.77h-.02l-1.04.56-.16-.62 1.3-.7h.69v5.97h-.78v-5.22Z" class="cls-3"/>
  <path fill="#3c3c3b" d="M126.04 18.49c.46-.1 1.18-.17 1.91-.17 1.04 0 1.72.18 2.22.59.42.31.67.79.67 1.43 0 .78-.52 1.46-1.37 1.77v.02c.77.19 1.67.83 1.67 2.03 0 .7-.28 1.22-.68 1.62-.56.52-1.48.76-2.79.76-.72 0-1.27-.05-1.62-.1v-7.95Zm1.04 3.31h.95c1.1 0 1.75-.58 1.75-1.35 0-.95-.72-1.32-1.77-1.32-.48 0-.76.04-.92.07v2.6Zm0 3.87c.2.04.5.05.88.05 1.08 0 2.07-.4 2.07-1.57 0-1.1-.95-1.56-2.09-1.56h-.86v3.08Zm9.61.58c-.28.14-.89.34-1.67.34-1.75 0-2.89-1.19-2.89-2.96s1.22-3.08 3.12-3.08c.62 0 1.18.16 1.46.3l-.24.82a2.48 2.48 0 0 0-1.22-.28c-1.33 0-2.05.98-2.05 2.19 0 1.34.86 2.17 2.02 2.17.6 0 1-.16 1.3-.29l.18.79Zm1.75-2.49c.02 1.43.94 2.01 1.99 2.01a3.8 3.8 0 0 0 1.61-.3l.18.76c-.37.17-1.01.36-1.93.36-1.79 0-2.85-1.18-2.85-2.93s1.03-3.13 2.72-3.13c1.9 0 2.4 1.67 2.4 2.73 0 .22-.02.38-.04.49h-4.08Zm3.09-.76c.01-.67-.28-1.71-1.46-1.71-1.07 0-1.54.98-1.62 1.71h3.08Zm9.65-2.33v5.8h-1.06V21.5h-2.7v4.97h-1.04v-5.8h4.8Zm2.31 3.09c.02 1.43.94 2.01 1.99 2.01a3.8 3.8 0 0 0 1.61-.3l.18.76c-.37.17-1.01.36-1.93.36-1.79 0-2.85-1.18-2.85-2.93s1.03-3.13 2.72-3.13c1.9 0 2.4 1.67 2.4 2.73 0 .22-.02.38-.04.49h-4.08Zm3.09-.76c.01-.67-.28-1.71-1.46-1.71-1.07 0-1.54.98-1.62 1.71h3.08Zm2.33-.44c0-.74-.02-1.34-.05-1.9h.95l.05 1h.02a2.28 2.28 0 0 1 2.06-1.13c1.4 0 2.46 1.19 2.46 2.95 0 2.09-1.27 3.12-2.64 3.12-.77 0-1.44-.34-1.79-.91h-.02v3.15h-1.04v-6.28Zm1.04 1.55a1.63 1.63 0 0 0 1.63 1.67c1.12 0 1.76-.91 1.76-2.24 0-1.16-.61-2.16-1.73-2.16a1.7 1.7 0 0 0-1.6 1.31c-.04.13-.07.29-.07.43v1Zm6.38-.35c.02 1.43.94 2.01 1.99 2.01a3.8 3.8 0 0 0 1.61-.3l.18.76c-.37.17-1.01.36-1.93.36-1.79 0-2.85-1.18-2.85-2.93s1.03-3.13 2.72-3.13c1.89 0 2.4 1.67 2.4 2.73 0 .22-.02.38-.04.49h-4.08Zm3.09-.76c.01-.67-.28-1.71-1.46-1.71-1.07 0-1.54.98-1.62 1.71h3.08Zm6.47 3.25c-.28.14-.89.34-1.67.34-1.75 0-2.89-1.19-2.89-2.96s1.22-3.08 3.12-3.08c.62 0 1.17.16 1.46.3l-.24.82a2.48 2.48 0 0 0-1.22-.28c-1.33 0-2.05.98-2.05 2.19 0 1.34.86 2.17 2.02 2.17.6 0 1-.16 1.29-.29l.18.79Zm5.35-5.58v.84h-1.81v4.97h-1.04v-4.97h-1.81v-.84h4.67Zm4.06 5.8-.08-.73h-.04c-.32.46-.95.86-1.78.86-1.17 0-1.77-.83-1.77-1.67 0-1.4 1.25-2.17 3.49-2.16v-.12c0-.48-.13-1.34-1.32-1.34-.54 0-1.1.17-1.51.43l-.24-.7a3.61 3.61 0 0 1 1.91-.52c1.78 0 2.21 1.21 2.21 2.37v2.17c0 .5.02 1 .1 1.39h-.96Zm-.16-2.96c-1.15-.02-2.46.18-2.46 1.31 0 .68.46 1.01 1 1.01.76 0 1.24-.48 1.4-.97.04-.11.06-.23.06-.34v-1.01Zm3.75-2.84v2.34h2.76v-2.34h1.04v5.8h-1.04v-2.63h-2.76v2.63h-1.04v-5.8h1.04Zm10.78 2.85c0 2.15-1.49 3.08-2.89 3.08-1.57 0-2.78-1.15-2.78-2.99 0-1.94 1.27-3.08 2.88-3.08s2.79 1.21 2.79 2.99Zm-4.61.06c0 1.27.73 2.23 1.76 2.23s1.76-.95 1.76-2.25c0-.98-.49-2.23-1.74-2.23s-1.79 1.15-1.79 2.25Zm5.92-2.84c.41-.07 1.16-.13 1.85-.13.97 0 2.58.16 2.58 1.45 0 .72-.55 1.16-1.21 1.31v.02c.85.12 1.48.6 1.48 1.44 0 1.52-1.92 1.71-3.06 1.71-.65 0-1.32-.05-1.63-.07v-5.73Zm1 5.04c.3.04.52.05.85.05.71 0 1.76-.17 1.76-1.01s-.84-1.02-1.85-1.02h-.77v1.98Zm.01-2.67h.79c.78 0 1.58-.23 1.58-.91 0-.58-.5-.85-1.56-.85-.35 0-.56.02-.82.05v1.71Zm6.06-2.44v2.52h.25l2.18-2.52h1.28l-2.53 2.63c.94.1 1.5.72 1.96 1.76.16.38.36.95.62 1.42h-1.1a7.3 7.3 0 0 1-.54-1.19c-.4-.94-.94-1.37-1.92-1.37h-.2v2.55h-1.04v-5.8h1.04Zm5.68 0v2.45c0 .92-.01 1.5-.06 2.33h.04c.35-.7.55-1.1.94-1.78l1.81-3h1.24v5.8h-1.01v-2.46c0-.95.02-1.44.07-2.38h-.04c-.37.74-.62 1.21-.96 1.8-.55.9-1.19 2.01-1.81 3.03h-1.21v-5.8h1Z"/>
  <g opacity=".8">
    <rect width="99.79" height="39.3" x="121.22" y="43.92" class="cls-9" rx="5" ry="5"/>
    <path d="m141.22 73.7-.06-.56h-.03c-.25.35-.73.66-1.36.66-.9 0-1.36-.63-1.36-1.28 0-1.07.96-1.66 2.67-1.65v-.09c0-.37-.1-1.03-1.01-1.03-.41 0-.85.13-1.16.33l-.18-.53c.37-.24.9-.4 1.46-.4 1.36 0 1.69.93 1.69 1.82v1.66c0 .39.02.76.07 1.07h-.73Zm-.12-2.27c-.88-.02-1.88.14-1.88 1 0 .52.35.77.76.77a1.1 1.1 0 0 0 1.12-1v-.77Zm2.05 2.27c.02-.3.04-.75.04-1.15v-5.37h.8v2.79h.02c.28-.5.8-.82 1.52-.82 1.1 0 1.88.92 1.87 2.27 0 1.59-1 2.38-1.99 2.38-.64 0-1.16-.25-1.49-.84h-.03l-.04.73h-.7Zm.84-1.78a1.25 1.25 0 0 0 1.25 1.24c.84 0 1.35-.69 1.35-1.71 0-.89-.46-1.65-1.32-1.65-.55 0-1.07.38-1.23.99-.02.09-.05.2-.05.33v.8Zm6.88 1.78-.06-.56h-.03c-.25.35-.73.66-1.36.66-.9 0-1.36-.63-1.36-1.28 0-1.07.96-1.66 2.67-1.65v-.09c0-.37-.1-1.03-1.01-1.03-.41 0-.84.13-1.16.33l-.18-.53c.37-.24.9-.4 1.46-.4 1.36 0 1.69.93 1.69 1.82v1.66c0 .39.02.76.07 1.07h-.73Zm-.12-2.27c-.88-.02-1.88.14-1.88 1 0 .52.35.77.76.77a1.1 1.1 0 0 0 1.12-1v-.77Zm4.55 2.27-.06-.56h-.03c-.25.35-.73.66-1.36.66-.9 0-1.36-.63-1.36-1.28 0-1.07.96-1.66 2.67-1.65v-.09c0-.37-.1-1.03-1.01-1.03-.41 0-.85.13-1.16.33l-.18-.53c.37-.24.9-.4 1.46-.4 1.36 0 1.69.93 1.69 1.82v1.66c0 .39.02.76.07 1.07h-.73Zm-.12-2.27c-.88-.02-1.88.14-1.88 1 0 .52.35.77.76.77a1.1 1.1 0 0 0 1.12-1v-.77Zm4.55 2.27-.06-.56h-.03c-.25.35-.73.66-1.36.66-.9 0-1.36-.63-1.36-1.28 0-1.07.96-1.66 2.67-1.65v-.09c0-.37-.1-1.03-1.01-1.03-.41 0-.84.13-1.16.33l-.18-.53c.37-.24.9-.4 1.46-.4 1.36 0 1.69.93 1.69 1.82v1.66c0 .39.02.76.07 1.07h-.73Zm-.12-2.27c-.88-.02-1.88.14-1.88 1 0 .52.35.77.76.77a1.1 1.1 0 0 0 1.12-1v-.77Zm1.9 1.8c0-.34.23-.58.55-.58s.54.24.54.58-.21.58-.55.58c-.32 0-.54-.25-.54-.58Zm1.9 0c0-.34.23-.58.55-.58s.54.24.54.58-.21.58-.55.58c-.32 0-.54-.25-.54-.58Zm1.9 0c0-.34.23-.58.55-.58s.54.24.54.58-.21.58-.55.58c-.32 0-.54-.25-.54-.58Zm6.51.47-.06-.56h-.03c-.25.35-.73.66-1.36.66-.9 0-1.36-.63-1.36-1.28 0-1.07.96-1.66 2.67-1.65v-.09c0-.37-.1-1.03-1.01-1.03-.41 0-.85.13-1.16.33l-.18-.53c.37-.24.9-.4 1.46-.4 1.36 0 1.69.93 1.69 1.82v1.66c0 .39.02.76.07 1.07h-.73Zm-.12-2.27c-.88-.02-1.88.14-1.88 1 0 .52.35.77.76.77a1.1 1.1 0 0 0 1.12-1v-.77Zm2.05 2.27c.02-.3.04-.75.04-1.15v-5.37h.8v2.79h.02c.28-.5.8-.82 1.52-.82 1.1 0 1.88.92 1.87 2.27 0 1.59-1 2.38-1.99 2.38-.64 0-1.16-.25-1.49-.84h-.03l-.04.73h-.7Zm.84-1.78a1.25 1.25 0 0 0 1.25 1.24c.84 0 1.35-.69 1.35-1.71 0-.89-.46-1.65-1.32-1.65-.55 0-1.07.38-1.23.99-.02.09-.05.2-.05.33v.8Zm6.88 1.78-.06-.56h-.03c-.25.35-.73.66-1.36.66-.9 0-1.36-.63-1.36-1.28 0-1.07.96-1.66 2.67-1.65v-.09c0-.37-.1-1.03-1.01-1.03-.41 0-.84.13-1.16.33l-.18-.53c.37-.24.9-.4 1.46-.4 1.36 0 1.69.93 1.69 1.82v1.66c0 .39.02.76.07 1.07h-.74Zm-.12-2.27c-.88-.02-1.88.14-1.88 1 0 .52.35.77.76.77.58 0 .95-.37 1.08-.74a.75.75 0 0 0 .05-.26v-.77Zm4.55 2.27-.06-.56h-.03c-.25.35-.73.66-1.36.66-.9 0-1.36-.63-1.36-1.28 0-1.07.96-1.66 2.67-1.65v-.09c0-.37-.1-1.03-1.01-1.03-.41 0-.84.13-1.16.33l-.18-.53c.37-.24.9-.4 1.46-.4 1.36 0 1.69.93 1.69 1.82v1.66c0 .39.02.76.07 1.07h-.73Zm-.12-2.27c-.88-.02-1.88.14-1.88 1 0 .52.35.77.76.77a1.1 1.1 0 0 0 1.12-1v-.77Zm4.55 2.27-.06-.56h-.03c-.25.35-.73.66-1.36.66-.9 0-1.36-.63-1.36-1.28 0-1.07.96-1.66 2.67-1.65v-.09c0-.37-.1-1.03-1.01-1.03-.41 0-.84.13-1.16.33l-.18-.53c.37-.24.9-.4 1.46-.4 1.36 0 1.69.93 1.69 1.82v1.66c0 .39.02.76.07 1.07h-.74Zm-.12-2.27c-.88-.02-1.88.14-1.88 1 0 .52.35.77.76.77.58 0 .95-.37 1.08-.74a.75.75 0 0 0 .05-.26v-.77Zm1.9 1.8c0-.34.23-.58.55-.58s.54.24.54.58-.21.58-.55.58c-.32 0-.54-.25-.54-.58Zm1.9 0c0-.34.23-.58.55-.58s.54.24.54.58-.21.58-.55.58c-.32 0-.54-.25-.54-.58Zm1.9 0c0-.34.23-.58.55-.58s.54.24.54.58-.21.58-.55.58c-.32 0-.54-.25-.54-.58Zm3.85 0c0-.34.23-.58.55-.58s.54.24.54.58-.21.58-.55.58c-.32 0-.54-.25-.54-.58Zm1.9 0c0-.34.23-.58.55-.58s.54.24.54.58-.21.58-.55.58c-.32 0-.54-.25-.54-.58Zm1.91 0c0-.34.23-.58.55-.58s.54.24.54.58-.21.58-.55.58c-.32 0-.54-.25-.54-.58Z" class="cls-6"/>
    <path d="M152.84 53.83v5.52h2.01v-5.52h.79v5.52h2v-5.52h.8v6.19h-6.39v-6.19h.79Zm9.43 6.19-.06-.56h-.03c-.25.35-.73.66-1.36.66-.9 0-1.36-.63-1.36-1.28 0-1.07.96-1.66 2.67-1.65v-.09c0-.37-.1-1.03-1.01-1.03-.41 0-.85.13-1.16.33l-.18-.53c.37-.24.9-.4 1.46-.4 1.36 0 1.69.93 1.69 1.82v1.66c0 .39.02.76.07 1.07h-.73Zm-.12-2.27c-.88-.02-1.88.14-1.88 1 0 .52.35.77.76.77a1.1 1.1 0 0 0 1.12-1v-.77Zm5.45-3.68a5.6 5.6 0 0 1-.93.2c-.72.11-1.24.35-1.58.84-.28.4-.45 1-.49 1.47h.03c.28-.64.91-1 1.54-1 1.09 0 1.89.78 1.89 2.2s-.75 2.35-2.06 2.35c-1.56 0-2.08-1.5-2.08-2.98 0-1.01.21-1.84.69-2.46.43-.62 1.05-.9 1.91-1.05.36-.06.8-.13 1.1-.24l-.04.67Zm-1.59 2.1c-.48 0-.82.25-1 .61-.15.27-.22.59-.22.95 0 .73.36 1.79 1.24 1.79s1.22-.86 1.22-1.68c0-.73-.28-1.66-1.24-1.66Zm6.45-.6v4.45h-.8v-3.81h-1.52v1.16c0 1.25-.12 2.09-.7 2.46-.22.17-.47.28-.88.28l-.08-.63c.16-.03.33-.09.44-.18.41-.3.46-.93.46-1.92v-1.79h3.09Zm5.35 2.19c0 1.64-1.14 2.36-2.21 2.36-1.2 0-2.13-.88-2.13-2.29 0-1.49.97-2.36 2.2-2.36s2.14.93 2.14 2.29Zm-3.53.05c0 .97.56 1.71 1.35 1.71s1.35-.73 1.35-1.73c0-.75-.38-1.71-1.33-1.71s-1.37.88-1.37 1.73Zm5.33-2.24v1.79h2.11v-1.79h.8v4.45h-.8v-2.01h-2.11v2.01h-.8v-4.45h.8Zm5.93 4.45v-.5l.63-.62c1.53-1.45 2.21-2.22 2.22-3.12 0-.61-.29-1.17-1.18-1.17-.54 0-.99.28-1.27.51l-.26-.57c.41-.35 1-.61 1.69-.61 1.29 0 1.83.88 1.83 1.74 0 1.1-.8 1.99-2.06 3.21l-.48.44v.02h2.68v.67h-3.81Z" class="cls-3"/>
  </g>
  <g opacity=".6">
    <rect width="99.79" height="39.3" x="230.99" y="43.92" class="cls-9" rx="5" ry="5"/>
    <path d="m250.99 73.7-.06-.56h-.03c-.25.35-.73.66-1.36.66-.9 0-1.36-.63-1.36-1.28 0-1.07.96-1.66 2.67-1.65v-.09c0-.37-.1-1.03-1.01-1.03-.41 0-.85.13-1.16.33l-.18-.53c.37-.24.9-.4 1.46-.4 1.36 0 1.69.93 1.69 1.82v1.66c0 .39.02.76.07 1.07h-.74Zm-.12-2.27c-.88-.02-1.88.14-1.88 1 0 .52.35.77.76.77.58 0 .95-.37 1.08-.74a.75.75 0 0 0 .05-.26v-.77Zm2.05 2.27c.02-.3.04-.75.04-1.15v-5.37h.8v2.79h.02c.29-.5.8-.82 1.52-.82 1.1 0 1.88.92 1.87 2.27 0 1.59-1 2.38-1.99 2.38-.64 0-1.16-.25-1.49-.84h-.03l-.04.73h-.7Zm.84-1.78a1.25 1.25 0 0 0 1.25 1.24c.84 0 1.35-.69 1.35-1.71 0-.89-.46-1.65-1.32-1.65-.55 0-1.07.38-1.23.99-.02.09-.05.2-.05.33v.8Zm4.38 1.78c.02-.3.04-.75.04-1.15v-5.37h.8v2.79h.02c.29-.5.8-.82 1.52-.82 1.1 0 1.88.92 1.87 2.27 0 1.59-1 2.38-1.99 2.38-.64 0-1.16-.25-1.49-.84h-.03l-.04.73h-.7Zm.84-1.78a1.25 1.25 0 0 0 1.25 1.24c.84 0 1.35-.69 1.35-1.71 0-.89-.46-1.65-1.32-1.65-.55 0-1.07.38-1.23.99-.02.09-.05.2-.05.33v.8Zm6.89 1.78-.06-.56h-.03c-.25.35-.73.66-1.36.66-.9 0-1.36-.63-1.36-1.28 0-1.07.96-1.66 2.67-1.65v-.09c0-.37-.1-1.03-1.01-1.03-.41 0-.84.13-1.16.33l-.18-.53c.37-.24.9-.4 1.46-.4 1.36 0 1.69.93 1.69 1.82v1.66c0 .39.02.76.07 1.07h-.73Zm-.12-2.27c-.88-.02-1.88.14-1.88 1 0 .52.35.77.76.77a1.1 1.1 0 0 0 1.12-1v-.77Zm4.55 2.27-.06-.56h-.03c-.25.35-.73.66-1.36.66-.9 0-1.36-.63-1.36-1.28 0-1.07.96-1.66 2.67-1.65v-.09c0-.37-.1-1.03-1.01-1.03-.41 0-.85.13-1.16.33l-.18-.53c.37-.24.9-.4 1.46-.4 1.36 0 1.69.93 1.69 1.82v1.66c0 .39.02.76.07 1.07h-.74Zm-.12-2.27c-.88-.02-1.88.14-1.88 1 0 .52.35.77.76.77.58 0 .95-.37 1.08-.74a.75.75 0 0 0 .05-.26v-.77Zm1.9 1.8c0-.34.23-.58.55-.58s.54.24.54.58-.21.58-.55.58c-.32 0-.54-.25-.54-.58Zm1.9 0c0-.34.23-.58.55-.58s.54.24.54.58-.21.58-.55.58c-.32 0-.54-.25-.54-.58Zm1.9 0c0-.34.23-.58.55-.58s.54.24.54.58-.21.58-.55.58c-.32 0-.54-.25-.54-.58Zm6.51.47-.06-.56h-.03c-.25.35-.73.66-1.36.66-.9 0-1.36-.63-1.36-1.28 0-1.07.96-1.66 2.67-1.65v-.09c0-.37-.1-1.03-1.01-1.03-.41 0-.84.13-1.16.33l-.18-.53c.37-.24.9-.4 1.46-.4 1.36 0 1.69.93 1.69 1.82v1.66c0 .39.02.76.07 1.07h-.73Zm-.12-2.27c-.88-.02-1.88.14-1.88 1 0 .52.35.77.76.77a1.1 1.1 0 0 0 1.12-1v-.77Zm2.05 2.27c.02-.3.04-.75.04-1.15v-5.37h.8v2.79h.02c.28-.5.8-.82 1.52-.82 1.1 0 1.88.92 1.87 2.27 0 1.59-1 2.38-1.99 2.38-.64 0-1.16-.25-1.49-.84h-.03l-.04.73h-.7Zm.84-1.78a1.25 1.25 0 0 0 1.25 1.24c.84 0 1.35-.69 1.35-1.71 0-.89-.46-1.65-1.32-1.65-.55 0-1.07.38-1.23.99-.02.09-.05.2-.05.33v.8Zm4.38 1.78c.02-.3.04-.75.04-1.15v-5.37h.8v2.79h.02c.28-.5.8-.82 1.52-.82 1.1 0 1.88.92 1.87 2.27 0 1.59-1 2.38-1.99 2.38-.64 0-1.16-.25-1.49-.84h-.03l-.04.73h-.7Zm.84-1.78a1.25 1.25 0 0 0 1.25 1.24c.84 0 1.35-.69 1.35-1.71 0-.89-.46-1.65-1.32-1.65-.55 0-1.07.38-1.23.99-.02.09-.05.2-.05.33v.8Zm6.89 1.78-.06-.56h-.03c-.25.35-.73.66-1.36.66-.9 0-1.36-.63-1.36-1.28 0-1.07.96-1.66 2.67-1.65v-.09c0-.37-.1-1.03-1.01-1.03-.41 0-.84.13-1.16.33l-.18-.53c.37-.24.9-.4 1.46-.4 1.36 0 1.69.93 1.69 1.82v1.66c0 .39.02.76.07 1.07h-.73Zm-.12-2.27c-.88-.02-1.88.14-1.88 1 0 .52.35.77.76.77a1.1 1.1 0 0 0 1.12-1v-.77Zm4.55 2.27-.06-.56h-.03c-.25.35-.73.66-1.36.66-.9 0-1.36-.63-1.36-1.28 0-1.07.96-1.66 2.67-1.65v-.09c0-.37-.1-1.03-1.01-1.03-.41 0-.85.13-1.16.33l-.18-.53c.37-.24.9-.4 1.46-.4 1.36 0 1.69.93 1.69 1.82v1.66c0 .39.02.76.07 1.07h-.74Zm-.12-2.27c-.88-.02-1.88.14-1.88 1 0 .52.35.77.76.77.58 0 .95-.37 1.08-.74a.75.75 0 0 0 .05-.26v-.77Zm1.89 1.8c0-.34.23-.58.55-.58s.54.24.54.58-.21.58-.55.58c-.32 0-.54-.25-.54-.58Zm1.91 0c0-.34.23-.58.55-.58s.54.24.54.58-.21.58-.55.58c-.32 0-.54-.25-.54-.58Zm1.9 0c0-.34.23-.58.55-.58s.54.24.54.58-.21.58-.55.58c-.32 0-.54-.25-.54-.58Zm3.85 0c0-.34.23-.58.55-.58s.54.24.54.58-.21.58-.55.58c-.32 0-.54-.25-.54-.58Zm1.9 0c0-.34.23-.58.55-.58s.54.24.54.58-.21.58-.55.58c-.32 0-.54-.25-.54-.58Zm1.9 0c0-.34.23-.58.55-.58s.54.24.54.58-.21.58-.55.58c-.32 0-.54-.25-.54-.58Z" class="cls-6"/>
    <path d="M262.61 53.83v5.52h2.01v-5.52h.79v5.52h2v-5.52h.8v6.19h-6.39v-6.19h.79Zm9.43 6.19-.06-.56h-.03c-.25.35-.73.66-1.36.66-.9 0-1.36-.63-1.36-1.28 0-1.07.96-1.66 2.67-1.65v-.09c0-.37-.1-1.03-1.01-1.03-.41 0-.84.13-1.16.33l-.18-.53c.37-.24.9-.4 1.46-.4 1.36 0 1.69.93 1.69 1.82v1.66c0 .39.02.76.07 1.07h-.73Zm-.12-2.27c-.88-.02-1.88.14-1.88 1 0 .52.35.77.76.77a1.1 1.1 0 0 0 1.12-1v-.77Zm5.45-3.68a5.6 5.6 0 0 1-.93.2c-.72.11-1.24.35-1.58.84-.28.4-.45 1-.49 1.47h.03c.28-.64.91-1 1.54-1 1.09 0 1.89.78 1.89 2.2s-.75 2.35-2.06 2.35c-1.56 0-2.08-1.5-2.08-2.98 0-1.01.21-1.84.69-2.46.43-.62 1.05-.9 1.91-1.05.36-.06.8-.13 1.1-.24l-.04.67Zm-1.59 2.1c-.48 0-.82.25-1 .61-.15.27-.22.59-.22.95 0 .73.36 1.79 1.24 1.79s1.22-.86 1.22-1.68c0-.73-.29-1.66-1.24-1.66Zm6.45-.6v4.45h-.8v-3.81h-1.53v1.16c0 1.25-.12 2.09-.7 2.46-.22.17-.47.28-.88.28l-.08-.63c.16-.03.33-.09.44-.18.41-.3.46-.93.46-1.92v-1.79h3.09Zm5.35 2.19c0 1.64-1.14 2.36-2.21 2.36-1.2 0-2.13-.88-2.13-2.29 0-1.49.97-2.36 2.21-2.36s2.14.93 2.14 2.29Zm-3.53.05c0 .97.56 1.71 1.35 1.71s1.35-.73 1.35-1.73c0-.75-.38-1.71-1.33-1.71s-1.37.88-1.37 1.73Zm5.33-2.24v1.79h2.11v-1.79h.8v4.45h-.8v-2.01h-2.11v2.01h-.8v-4.45h.8Zm6.12 3.52c.23.15.76.38 1.32.38 1.04 0 1.36-.66 1.35-1.16 0-.84-.76-1.19-1.54-1.19h-.45v-.61h.45c.59 0 1.33-.3 1.33-1.01 0-.48-.3-.9-1.05-.9-.48 0-.94.21-1.19.4l-.21-.59c.31-.23.92-.46 1.56-.46 1.18 0 1.71.7 1.71 1.42 0 .62-.37 1.14-1.1 1.41v.02c.74.15 1.33.7 1.33 1.53 0 .96-.74 1.79-2.18 1.79-.67 0-1.26-.21-1.55-.4l.22-.62Z" class="cls-3"/>
  </g>
  <g opacity=".4">
    <rect width="99.79" height="39.3" x="11.45" y="97.95" class="cls-9" rx="5" ry="5"/>
    <path d="m31.45 127.74-.06-.56h-.03c-.25.35-.73.66-1.36.66-.9 0-1.36-.63-1.36-1.28 0-1.07.96-1.66 2.67-1.65v-.09c0-.37-.1-1.03-1.01-1.03-.41 0-.85.13-1.16.33l-.18-.53c.37-.24.9-.4 1.46-.4 1.36 0 1.69.93 1.69 1.82v1.66c0 .39.02.76.07 1.07h-.73Zm-.12-2.27c-.88-.02-1.88.14-1.88 1 0 .52.35.77.76.77a1.1 1.1 0 0 0 1.12-1v-.77Zm2.05 2.27c.02-.3.04-.75.04-1.15v-5.37h.8v2.79h.02c.28-.5.8-.82 1.52-.82 1.1 0 1.88.92 1.87 2.27 0 1.59-1 2.38-1.99 2.38-.64 0-1.16-.25-1.49-.84h-.03l-.04.73h-.7Zm.84-1.78a1.25 1.25 0 0 0 1.25 1.24c.84 0 1.35-.69 1.35-1.71 0-.89-.46-1.65-1.32-1.65-.55 0-1.07.38-1.23.99-.02.09-.05.2-.05.33v.8Zm7.59 1.61c-.21.11-.68.26-1.28.26-1.34 0-2.21-.91-2.21-2.27s.94-2.36 2.39-2.36c.48 0 .9.12 1.12.23l-.18.62c-.19-.11-.5-.21-.94-.21-1.02 0-1.57.75-1.57 1.68 0 1.03.66 1.66 1.54 1.66.46 0 .76-.12.99-.22l.14.61Zm3.41.17-.06-.56h-.03c-.25.35-.73.66-1.36.66-.9 0-1.36-.63-1.36-1.28 0-1.07.96-1.66 2.67-1.65v-.09c0-.37-.1-1.03-1.01-1.03-.41 0-.85.13-1.16.33l-.18-.53c.37-.24.9-.4 1.46-.4 1.36 0 1.69.93 1.69 1.82v1.66c0 .39.02.76.07 1.07h-.73Zm-.12-2.27c-.88-.02-1.88.14-1.88 1 0 .52.35.77.76.77a1.1 1.1 0 0 0 1.12-1v-.77Zm4.55 2.27-.06-.56h-.03c-.25.35-.73.66-1.36.66-.9 0-1.36-.63-1.36-1.28 0-1.07.96-1.66 2.67-1.65v-.09c0-.37-.1-1.03-1.01-1.03-.41 0-.84.13-1.16.33l-.18-.53c.37-.24.9-.4 1.46-.4 1.36 0 1.69.93 1.69 1.82v1.66c0 .39.02.76.07 1.07h-.73Zm-.12-2.27c-.88-.02-1.88.14-1.88 1 0 .52.35.77.76.77a1.1 1.1 0 0 0 1.12-1v-.77Zm1.9 1.79c0-.34.23-.58.55-.58s.54.24.54.58-.21.58-.55.58c-.32 0-.54-.25-.54-.58Zm1.9 0c0-.34.23-.58.55-.58s.54.24.54.58-.21.58-.55.58c-.32 0-.54-.25-.54-.58Zm1.9 0c0-.34.23-.58.55-.58s.54.24.54.58-.21.58-.55.58c-.32 0-.54-.25-.54-.58Zm6.51.48-.06-.56h-.03c-.25.35-.73.66-1.36.66-.9 0-1.36-.63-1.36-1.28 0-1.07.96-1.66 2.67-1.65v-.09c0-.37-.1-1.03-1.01-1.03-.41 0-.85.13-1.16.33l-.18-.53c.37-.24.9-.4 1.46-.4 1.36 0 1.69.93 1.69 1.82v1.66c0 .39.02.76.07 1.07h-.73Zm-.12-2.27c-.88-.02-1.88.14-1.88 1 0 .52.35.77.76.77a1.1 1.1 0 0 0 1.12-1v-.77Zm2.05 2.27c.02-.3.04-.75.04-1.15v-5.37h.8v2.79h.02c.28-.5.8-.82 1.52-.82 1.1 0 1.88.92 1.87 2.27 0 1.59-1 2.38-1.99 2.38-.64 0-1.16-.25-1.49-.84h-.03l-.04.73h-.7Zm.84-1.78a1.25 1.25 0 0 0 1.25 1.24c.84 0 1.35-.69 1.35-1.71 0-.89-.46-1.65-1.32-1.65-.55 0-1.07.38-1.23.99-.02.09-.05.2-.05.33v.8Zm7.59 1.61c-.21.11-.68.26-1.28.26-1.34 0-2.21-.91-2.21-2.27s.94-2.36 2.39-2.36c.48 0 .9.12 1.12.23l-.18.62c-.19-.11-.5-.21-.94-.21-1.02 0-1.57.75-1.57 1.68 0 1.03.66 1.66 1.54 1.66.46 0 .76-.12.99-.22l.14.61Zm3.41.17-.06-.56h-.03c-.25.35-.73.66-1.36.66-.9 0-1.36-.63-1.36-1.28 0-1.07.96-1.66 2.67-1.65v-.09c0-.37-.1-1.03-1.01-1.03-.41 0-.84.13-1.16.33l-.18-.53c.37-.24.9-.4 1.46-.4 1.36 0 1.69.93 1.69 1.82v1.66c0 .39.02.76.07 1.07h-.73Zm-.12-2.27c-.88-.02-1.88.14-1.88 1 0 .52.35.77.76.77a1.1 1.1 0 0 0 1.12-1v-.77Zm4.55 2.27-.06-.56h-.03c-.25.35-.73.66-1.36.66-.9 0-1.36-.63-1.36-1.28 0-1.07.96-1.66 2.67-1.65v-.09c0-.37-.1-1.03-1.01-1.03-.41 0-.85.13-1.16.33l-.18-.53c.37-.24.9-.4 1.46-.4 1.36 0 1.69.93 1.69 1.82v1.66c0 .39.02.76.07 1.07h-.73Zm-.12-2.27c-.88-.02-1.88.14-1.88 1 0 .52.35.77.76.77a1.1 1.1 0 0 0 1.12-1v-.77Zm1.89 1.79c0-.34.23-.58.55-.58s.54.24.54.58-.21.58-.55.58c-.32 0-.54-.25-.54-.58Zm1.91 0c0-.34.23-.58.55-.58s.54.24.54.58-.21.58-.55.58c-.32 0-.54-.25-.54-.58Zm1.9 0c0-.34.23-.58.55-.58s.54.24.54.58-.21.58-.55.58c-.32 0-.54-.25-.54-.58Zm3.85 0c0-.34.23-.58.55-.58s.54.24.54.58-.21.58-.55.58c-.32 0-.54-.25-.54-.58Zm1.9 0c0-.34.23-.58.55-.58s.54.24.54.58-.21.58-.55.58c-.32 0-.54-.25-.54-.58Zm1.9 0c0-.34.23-.58.55-.58s.54.24.54.58-.21.58-.55.58c-.32 0-.54-.25-.54-.58Z" class="cls-6"/>
    <path d="M43.07 107.86v5.52h2.01v-5.52h.79v5.52h2v-5.52h.8v6.19h-6.39v-6.19h.79Zm9.43 6.19-.06-.56h-.03c-.25.35-.73.66-1.36.66-.9 0-1.36-.63-1.36-1.28 0-1.07.96-1.66 2.67-1.65v-.09c0-.37-.1-1.03-1.01-1.03-.41 0-.85.13-1.16.33l-.18-.53c.37-.24.9-.4 1.46-.4 1.36 0 1.69.93 1.69 1.82v1.66c0 .39.02.76.07 1.07h-.73Zm-.12-2.27c-.88-.02-1.88.14-1.88 1 0 .52.35.77.76.77a1.1 1.1 0 0 0 1.12-1v-.77Zm5.45-3.68a5.6 5.6 0 0 1-.93.2c-.72.11-1.24.35-1.58.84-.28.4-.45 1-.49 1.47h.03c.28-.64.91-1 1.54-1 1.09 0 1.89.78 1.89 2.2s-.75 2.35-2.06 2.35c-1.56 0-2.08-1.5-2.08-2.98 0-1.01.21-1.84.69-2.46.43-.62 1.05-.9 1.91-1.05.36-.06.8-.13 1.1-.24l-.04.67Zm-1.59 2.1c-.48 0-.82.25-1 .61-.15.27-.22.59-.22.95 0 .73.36 1.79 1.24 1.79s1.22-.86 1.22-1.68c0-.73-.28-1.66-1.24-1.66Zm6.45-.59v4.45h-.8v-3.81h-1.52v1.16c0 1.25-.12 2.08-.7 2.46-.22.17-.47.28-.88.28l-.08-.63c.16-.03.33-.09.44-.18.41-.3.46-.93.46-1.92v-1.79h3.09Zm5.35 2.18c0 1.64-1.14 2.36-2.21 2.36-1.2 0-2.13-.88-2.13-2.29 0-1.49.97-2.36 2.2-2.36s2.14.93 2.14 2.29Zm-3.53.05c0 .97.56 1.71 1.35 1.71s1.35-.73 1.35-1.73c0-.75-.38-1.71-1.33-1.71s-1.37.88-1.37 1.73Zm5.33-2.23v1.79h2.11v-1.79h.8v4.45h-.8v-2.01h-2.11v2.01h-.8v-4.45h.8Zm8.43 4.44v-1.63H75.5v-.53l2.66-3.81h.87v3.71h.84v.63h-.84v1.63h-.76Zm0-2.26v-1.99c0-.31 0-.62.03-.94h-.03c-.18.35-.33.61-.5.88l-1.46 2.03v.02h1.96Z" class="cls-3"/>
  </g>
  <g opacity=".2">
    <rect width="99.79" height="39.3" x="121.22" y="97.95" class="cls-9" rx="5" ry="5"/>
    <path d="m141.22 127.74-.06-.56h-.03c-.25.35-.73.66-1.36.66-.9 0-1.36-.63-1.36-1.28 0-1.07.96-1.66 2.67-1.65v-.09c0-.37-.1-1.03-1.01-1.03-.41 0-.85.13-1.16.33l-.18-.53c.37-.24.9-.4 1.46-.4 1.36 0 1.69.93 1.69 1.82v1.66c0 .39.02.76.07 1.07h-.73Zm-.12-2.27c-.88-.02-1.88.14-1.88 1 0 .52.35.77.76.77a1.1 1.1 0 0 0 1.12-1v-.77Zm2.05 2.27c.02-.3.04-.75.04-1.15v-5.37h.8v2.79h.02c.28-.5.8-.82 1.52-.82 1.1 0 1.88.92 1.87 2.27 0 1.59-1 2.38-1.99 2.38-.64 0-1.16-.25-1.49-.84h-.03l-.04.73h-.7Zm.84-1.78a1.25 1.25 0 0 0 1.25 1.24c.84 0 1.35-.69 1.35-1.71 0-.89-.46-1.65-1.32-1.65-.55 0-1.07.38-1.23.99-.02.09-.05.2-.05.33v.8Zm7.59 1.61c-.21.11-.68.26-1.28.26-1.34 0-2.21-.91-2.21-2.27s.94-2.36 2.39-2.36c.48 0 .9.12 1.12.23l-.18.62c-.19-.11-.5-.21-.94-.21-1.02 0-1.57.75-1.57 1.68 0 1.03.66 1.66 1.54 1.66.46 0 .76-.12.99-.22l.14.61Zm.91.17c.02-.3.04-.75.04-1.15v-5.37h.8v2.79h.02c.28-.5.8-.82 1.52-.82 1.1 0 1.88.92 1.87 2.27 0 1.59-1 2.38-1.99 2.38-.64 0-1.16-.25-1.49-.84h-.03l-.04.73h-.7Zm.84-1.78a1.25 1.25 0 0 0 1.25 1.24c.85 0 1.35-.69 1.35-1.71 0-.89-.46-1.65-1.32-1.65-.55 0-1.07.38-1.23.99-.02.09-.05.2-.05.33v.8Zm6.89 1.78-.06-.56h-.03c-.25.35-.73.66-1.36.66-.9 0-1.36-.63-1.36-1.28 0-1.07.96-1.66 2.67-1.65v-.09c0-.37-.1-1.03-1.01-1.03-.41 0-.84.13-1.16.33l-.18-.53c.37-.24.9-.4 1.46-.4 1.36 0 1.69.93 1.69 1.82v1.66c0 .39.02.76.07 1.07h-.73Zm-.12-2.27c-.88-.02-1.88.14-1.88 1 0 .52.35.77.76.77a1.1 1.1 0 0 0 1.12-1v-.77Zm1.89 1.79c0-.34.23-.58.55-.58s.54.24.54.58-.21.58-.55.58c-.32 0-.54-.25-.54-.58Zm1.91 0c0-.34.23-.58.55-.58s.54.24.54.58-.21.58-.55.58c-.32 0-.54-.25-.54-.58Zm1.9 0c0-.34.23-.58.55-.58s.54.24.54.58-.21.58-.55.58c-.32 0-.54-.25-.54-.58Zm6.5.48-.06-.56h-.03c-.25.35-.73.66-1.36.66-.9 0-1.36-.63-1.36-1.28 0-1.07.96-1.66 2.67-1.65v-.09c0-.37-.1-1.03-1.01-1.03-.41 0-.84.13-1.16.33l-.18-.53c.37-.24.9-.4 1.46-.4 1.36 0 1.69.93 1.69 1.82v1.66c0 .39.02.76.07 1.07h-.73Zm-.12-2.27c-.88-.02-1.88.14-1.88 1 0 .52.35.77.76.77a1.1 1.1 0 0 0 1.12-1v-.77Zm2.05 2.27c.02-.3.04-.75.04-1.15v-5.37h.8v2.79h.02c.29-.5.8-.82 1.52-.82 1.1 0 1.88.92 1.87 2.27 0 1.59-1 2.38-1.99 2.38-.64 0-1.16-.25-1.49-.84h-.03l-.04.73h-.7Zm.84-1.78a1.25 1.25 0 0 0 1.25 1.24c.85 0 1.35-.69 1.35-1.71 0-.89-.46-1.65-1.32-1.65-.55 0-1.07.38-1.23.99-.02.09-.05.2-.05.33v.8Zm7.6 1.61c-.21.11-.68.26-1.28.26-1.34 0-2.21-.91-2.21-2.27s.94-2.36 2.39-2.36c.48 0 .9.12 1.12.23l-.18.62c-.19-.11-.5-.21-.94-.21-1.02 0-1.57.75-1.57 1.68 0 1.03.66 1.66 1.54 1.66.46 0 .76-.12.99-.22l.14.61Zm.91.17c.02-.3.04-.75.04-1.15v-5.37h.8v2.79h.02c.29-.5.8-.82 1.52-.82 1.1 0 1.88.92 1.87 2.27 0 1.59-1 2.38-1.99 2.38-.64 0-1.16-.25-1.49-.84h-.03l-.04.73h-.7Zm.84-1.78a1.25 1.25 0 0 0 1.25 1.24c.85 0 1.35-.69 1.35-1.71 0-.89-.46-1.65-1.32-1.65-.55 0-1.07.38-1.23.99-.02.09-.05.2-.05.33v.8Zm6.89 1.78-.06-.56h-.03c-.25.35-.73.66-1.36.66-.9 0-1.36-.63-1.36-1.28 0-1.07.96-1.66 2.67-1.65v-.09c0-.37-.1-1.03-1.01-1.03-.41 0-.84.13-1.16.33l-.18-.53c.37-.24.9-.4 1.46-.4 1.36 0 1.69.93 1.69 1.82v1.66c0 .39.02.76.07 1.07h-.73Zm-.12-2.27c-.88-.02-1.88.14-1.88 1 0 .52.35.77.76.77a1.1 1.1 0 0 0 1.12-1v-.77Zm1.89 1.79c0-.34.23-.58.55-.58s.54.24.54.58-.21.58-.55.58c-.32 0-.54-.25-.54-.58Zm1.9 0c0-.34.23-.58.55-.58s.54.24.54.58-.21.58-.55.58c-.32 0-.54-.25-.54-.58Zm1.91 0c0-.34.23-.58.55-.58s.54.24.54.58-.21.58-.55.58c-.32 0-.54-.25-.54-.58Zm3.85 0c0-.34.23-.58.55-.58s.54.24.54.58-.21.58-.55.58c-.32 0-.54-.25-.54-.58Zm1.9 0c0-.34.23-.58.55-.58s.54.24.54.58-.21.58-.55.58c-.32 0-.54-.25-.54-.58Zm1.9 0c0-.34.23-.58.55-.58s.54.24.54.58-.21.58-.55.58c-.32 0-.54-.25-.54-.58Z" class="cls-6"/>
    <path d="M152.84 107.86v5.52h2.01v-5.52h.79v5.52h2v-5.52h.8v6.19h-6.39v-6.19h.79Zm9.43 6.19-.06-.56h-.03c-.25.35-.73.66-1.36.66-.9 0-1.36-.63-1.36-1.28 0-1.07.96-1.66 2.67-1.65v-.09c0-.37-.1-1.03-1.01-1.03-.41 0-.85.13-1.16.33l-.18-.53c.37-.24.9-.4 1.46-.4 1.36 0 1.69.93 1.69 1.82v1.66c0 .39.02.76.07 1.07h-.73Zm-.12-2.27c-.88-.02-1.88.14-1.88 1 0 .52.35.77.76.77a1.1 1.1 0 0 0 1.12-1v-.77Zm5.45-3.68a5.6 5.6 0 0 1-.93.2c-.72.11-1.24.35-1.58.84-.28.4-.45 1-.49 1.47h.03c.28-.64.91-1 1.54-1 1.09 0 1.89.78 1.89 2.2s-.75 2.35-2.06 2.35c-1.56 0-2.08-1.5-2.08-2.98 0-1.01.21-1.84.69-2.46.43-.62 1.05-.9 1.91-1.05.36-.06.8-.13 1.1-.24l-.04.67Zm-1.59 2.1c-.48 0-.82.25-1 .61-.15.27-.22.59-.22.95 0 .73.36 1.79 1.24 1.79s1.22-.86 1.22-1.68c0-.73-.28-1.66-1.24-1.66Zm6.45-.59v4.45h-.8v-3.81h-1.52v1.16c0 1.25-.12 2.08-.7 2.46-.22.17-.47.28-.88.28l-.08-.63c.16-.03.33-.09.44-.18.41-.3.46-.93.46-1.92v-1.79h3.09Zm5.35 2.18c0 1.64-1.14 2.36-2.21 2.36-1.2 0-2.13-.88-2.13-2.29 0-1.49.97-2.36 2.2-2.36s2.14.93 2.14 2.29Zm-3.53.05c0 .97.56 1.71 1.35 1.71s1.35-.73 1.35-1.73c0-.75-.38-1.71-1.33-1.71s-1.37.88-1.37 1.73Zm5.33-2.23v1.79h2.11v-1.79h.8v4.45h-.8v-2.01h-2.11v2.01h-.8v-4.45h.8Zm9.49-.85h-2.28l-.23 1.53c.14-.02.27-.04.49-.04.46 0 .92.1 1.29.32.47.27.85.78.85 1.53 0 1.17-.93 2.04-2.22 2.04-.65 0-1.2-.18-1.49-.37l.2-.62c.25.15.73.33 1.28.33.76 0 1.42-.5 1.42-1.29 0-.77-.52-1.32-1.72-1.32-.34 0-.61.04-.83.06l.39-2.87h2.86v.68Z" class="cls-3"/>
  </g>
  <path fill="#575756" d="M270.09 119.54c0-1.39.94-2.37 2.26-2.37s2.22.98 2.22 2.37-.87 2.37-2.26 2.37c-1.32 0-2.22-1.02-2.22-2.37Zm7.8 0c0-1.39.94-2.37 2.26-2.37s2.22.98 2.22 2.37-.87 2.37-2.26 2.37c-1.32 0-2.22-1.02-2.22-2.37Zm7.79 0c0-1.39.94-2.37 2.26-2.37s2.22.98 2.22 2.37-.87 2.37-2.26 2.37c-1.32 0-2.22-1.02-2.22-2.37Z"/>
</svg>
