<?xml version="1.0" encoding="utf-8"?>
<!-- Generator: Adobe Illustrator 27.5.0, SVG Export Plug-In . SVG Version: 6.00 Build 0)  -->
<svg version="1.1" id="Слой_1" xmlns="http://www.w3.org/2000/svg" width="800" xmlns:xlink="http://www.w3.org/1999/xlink" x="0px" y="0px"
	 viewBox="0 0 500 185" style="enable-background:new 0 0 500 185;" xml:space="preserve">
<style type="text/css">
	.st0{fill:#616161;}
</style>
<path class="st0" d="M68.2,46.9C68.8,31.2,82.3,19,98.4,19.7c16.1,0.6,28.6,13.9,27.9,29.6c-0.6,15.7-14.2,27.9-30.2,27.2
	C80,75.8,67.5,62.6,68.2,46.9z M155.7,42.6c-2.8-6.3-10.3-9.1-16.7-6.3c-6.5,2.8-9.4,10.3-6.7,16.6c2.8,6.3,10.3,9.1,16.7,6.3
	C155.5,56.3,158.5,48.9,155.7,42.6z M133.5,130.4c-1.4,4.5-1.2,9.2,0.5,14.1c0.3,0.9,1.1,1.4,2,1.4c2.7-0.2,5.1-0.4,7.3-0.7
	c2.5-0.4,4.8-2,7.3-2.9c2.4-0.9,4.2-2.7,5.5-5.4c0.2-0.5,0.2-0.9-0.2-1.3c-4.1-4.5-9.3-7.2-15.6-8.1
	C137.6,126.9,134.5,127.3,133.5,130.4z M305.5,42.6c-1.5-2.6-6.9-3-9.2-2.5c-2.6,0.4-5.2,1.2-7.7,2.1c-4.2,1.6-3.9-3.4-4.3-5.9
	c-0.1-0.5-0.3-0.9-0.6-1.3c-0.8-0.8-1.4-1.6-1.9-2.5c-3.5-6.7-11.2-11.4-18.6-13.3c-4.5-1.2-9.1-1-13.9,0.5
	c-5.1,1.5-9.6,4.1-13.6,7.6c-1,0.9-1.1,1.8-2,2.7c-0.5,0.5-0.9,1.1-1.2,1.7c-1.2,2.8-2.3,5.5-3.2,8c-0.1,0.3-0.3,0.5-0.7,0.5
	c-2,0.3-3.8,0-5.5-0.8c-4.6-2.4-12-3.9-14.6,2.2c-1,2.2-1.6,4.5-1.9,6.9c-0.1,0.6,0.1,1.2,0.4,1.7c0.8,1.4,1.4,2.9,1.7,4.5
	c0.1,0.5,0.4,0.9,0.8,1.1c3.7,1.9,7.1,1.8,10.3-0.3c1.9-1.3,3.8-2.4,5.8-3.5c1.3-0.7,2.9,0,3.2,1.4c1.2,6,4.3,11.2,9.2,15.7
	c0.7,0.6,1.2,0.5,1.9,0.9c0.1,0.1,0.2,0.2,0.3,0.3c0,0.1,0.1,0.2,0.2,0.3c0.1,0.2,0.3,0.3,0.5,0.5c9.7,5.3,19.4,5.7,29.3,1.4
	c1.3-0.6,2.5-1.3,3.5-2.1c2.1-1.7,4.5-2.9,5.9-5.3c1.7-3.2,4-6.1,5.1-9.5c0.6-1.7,2.7-2.4,4.2-1.4c4.7,3.3,14.2,6.2,17.4-1
	C307.8,49.7,307.5,46.2,305.5,42.6z M289.5,146.8c-0.5,1.1,0.3,2.2,1.4,2.3c3,0.3,7.4,0.8,9.8-0.7c5.6-3.5,5.2-10.4,4.7-16.8
	c-0.2-3.2-2.6-4.4-5.2-5.6c-2.6-1.3-9-2.4-8.8,2.4c0.1,3,0.8,5.9,0.5,9C291.6,140.6,290.8,143.7,289.5,146.8z M66.8,137.2
	c0.5,3,1.1,5.9,1.8,8.7c1.3,5.5,6.6,10.7,11.1,13.8c5.6,3.9,12.1,4.2,18.8,4c4.8-0.2,9.3-1.6,13.5-4.3c2.3-1.5,3.9-3.4,5.9-5.3
	c3-2.8,4.8-8.1,5.9-11.8c0.9-3.3,1.1-7.2,0.4-11.8c-0.3-2.3-1.5-4.4-2.2-6.7c-1.3-4.3-4.8-7.8-8.2-10.6c-1.7-1.4-3.5-2.7-5.5-3.8
	c-2.4-1.3-6.2-2.3-11.4-3c-3.5-0.4-6.3,0.8-9.5,1.6c-5.8,1.5-11.2,6-14.8,10.7c-2,2.6-3.3,4.9-3.9,7
	C67.7,129.3,66.2,133.5,66.8,137.2z M35.4,139.1c0,0.3,0.2,0.5,0.3,0.7c4.3,4.5,9.9,6.2,15.9,7.4c4.7,0.9,8.1-2.3,8.7-6.8
	c0.6-4.3-0.5-8.5-3.2-12.6c-0.2-0.3-0.5-0.5-0.8-0.5c-0.9-0.1-1.9-0.1-2.8,0c-7,1.2-12.5,3.6-16.5,7.3
	C35.9,135.9,35.2,137.5,35.4,139.1z M46.6,60.8c6.8,1.3,13.3-3.3,14.6-10.3c1.3-6.9-3.1-13.6-9.9-14.9C44.5,34.4,38,39,36.7,46
	C35.4,52.9,39.8,59.6,46.6,60.8z M223.5,126.1c1.1-1.9,0.8-3.2-1.1-4.1c-2.3-1.1-4.7-1.1-7.4-0.1c-2.1,0.8-3.9,2.5-5.6,5.1
	c-1.7,2.6-1.3,10.6,0.2,13.2c2.4,4.1,6.2,5.9,11.2,5.1c0.7-0.1,1.2-0.7,1.1-1.4c-0.5-3.9-0.6-7.9-0.3-12
	C221.7,129.9,222.4,128,223.5,126.1z M382.3,55c3.2-1.9,4.3-5.9,2.5-8.9c-1.8-3-5.8-4-9-2.1c-3.2,1.9-4.3,5.9-2.5,8.9
	C375.1,55.9,379.1,56.9,382.3,55z M447.7,121.8c-2.2-1.1-2.7-0.6-1.5,1.5c0.6,1.2,1.7,1.9,2.1,3.3c1.2,4.3,2.8,8.9,1.7,13.6
	c-0.8,3.5-1.8,7-4.1,9.6c-1,1.1-0.8,1.4,0.6,1.1c1.6-0.4,3.4-0.4,4.9-1.3c2.2-1.3,4.3-2.6,6.4-3.8c1.6-0.9,3.5-2.8,5.8-5.5
	c0.6-0.7,0.9-1.6,1-2.5c0-1.2-0.3-2.3-0.8-3.2C459.9,127.9,454.2,125.2,447.7,121.8z M257,109c-15.9,0-28.8,12.9-28.8,28.8
	c0,15.9,12.9,28.8,28.8,28.8c15.9,0,28.8-12.9,28.8-28.8C285.8,121.9,273,109,257,109z M363.6,133c-1.8,2.7-0.6,5.8,1,8.2
	c3.2,4.9,7.9,8.5,13.9,10.7c0.8,0.3,1.6,0.7,2.4,1.2c0.5,0.4,0.7,0.2,0.6-0.4c-0.4-1.6-1-3.1-1.8-4.5c-1.4-2.4-2.6-5.1-3.6-7.9
	c-2.5-7.3,4.6-15.7,9.3-20.4c0.5-0.5,0.4-0.7-0.3-0.5c-3.3,1-7.1,1.7-10.1,3.7c-1.3,0.8-2.5,1.6-3.8,2.4
	C368.3,127.1,365.8,129.6,363.6,133z M450.9,54.1c3.6,0.9,6.1-0.3,7.2-3.6c0.8-2.3,0.9-6.3-2-7.4c-3.3-1.3-6.3-0.7-8.9,1.9
	c-1.3,1.2-1.9,2.7-1.8,4.3C445.5,51.8,448.6,53.5,450.9,54.1z M384.2,134.9c-0.2,2.6,0.3,6.4,1.4,11.2c0.5,2.2,1.8,3.8,2.8,5.8
	c0.6,1.4,1.9,2,2.8,3.2c3.3,4.5,9.6,7.8,15.1,9.6c4.5,1.4,9.3,1.4,14.5-0.2c7-2,12.5-6.1,16.7-12.1c1.6-2.3,3-5.7,4.2-10.2
	c0.9-3.3,1-6.5,0.2-9.8c-1.1-4.7-2.7-8.9-4.8-12.5c-0.2-0.3-0.4-0.5-0.7-0.8c-0.6-0.4-0.8-1.2-1-1.9c-0.1-0.3-0.3-0.5-0.6-0.6
	c-0.9-0.4-1.8-1-2.6-1.7c-3.6-3.3-9.2-6.3-14.2-6.7c-5.2-0.5-9.3-0.3-12.2,0.5c-4,1.1-8.5,3.7-13.6,7.8c-0.3,0.2-0.5,0.5-0.6,0.9
	c-0.4,1.2-1.6,2.2-2.4,3.3C386.2,125.4,384.6,129,384.2,134.9z M428.2,70.1C440.6,63,445,47.2,438,34.9
	c-7.1-12.3-22.9-16.5-35.3-9.4c-12.5,7.1-16.8,22.9-9.8,35.2C399.9,73.1,415.7,77.3,428.2,70.1z"/>
</svg>
