<?xml version="1.0" encoding="UTF-8"?>
<svg id="_Слой_1" data-name="Слой 1" xmlns="http://www.w3.org/2000/svg" viewBox="0 0 380.44 249.23" width="800">
  <defs>
    <style>
      .cls-1 {
        fill: #a0a0a0;
      }

      .cls-2 {
        letter-spacing: -.06em;
      }

      .cls-2, .cls-3 {
        font-family: ArialMT, Arial;
        font-size: 16px;
        isolation: isolate;
      }

      .cls-2, .cls-3, .cls-4 {
        fill: #09f;
      }

      .cls-5 {
        fill: none;
        stroke: #000;
        stroke-linecap: round;
        stroke-linejoin: round;
      }
    </style>
  </defs>
  <path class="cls-1" d="m157.49,29.79l-13.89,10.68,2.35,1.86L22.25,198.43c-.43.54-.34,1.33.2,1.76.23.18.5.27.78.27.37,0,.73-.16.98-.47L147.91,43.89l2.35,1.86,7.23-15.96Z"/>
  <path class="cls-1" d="m157.49,28.54c-.51,0-.98.31-1.17.81-.24.65.09,1.37.73,1.61l185.82,69.47h0l-1.05,2.81,17.41,1.97h0l-14.44-9.93-1.05,2.81h0L157.92,28.62c-.14-.05-.29-.08-.44-.08Z"/>
  <path class="cls-1" d="m157.49,28.54c-.17,0-.34.03-.5.11-.63.28-.92,1.02-.64,1.65l80.16,182.44-2.75,1.21,10.73,13.85h0l-2.95-17.27-2.75,1.21L158.63,29.28c-.21-.47-.66-.75-1.15-.75Z"/>
  <path class="cls-1" d="m23.23,197.96c-.62,0-1.16.46-1.24,1.09-.09.68.39,1.31,1.08,1.4l204.4,26.4-.38,2.98,17.4-2.04-16.32-6.39-.38,2.98-204.4-26.4c-.05,0-.11-.01-.16-.01Z"/>
  <path class="cls-1" d="m359.23,105.21l-14.72,9.51,2.19,2.05-103.13,110.17c-.47.5-.45,1.3.06,1.77.24.23.55.34.85.34.33,0,.67-.13.91-.4l103.13-110.17,2.19,2.05,8.51-15.32Z"/>
  <path class="cls-1" d="m272.49,124.79l-8.56,15.29,2.89.79h0l-23.54,86.6c-.18.67.21,1.35.88,1.53.11.03.22.04.33.04.55,0,1.05-.37,1.21-.92l23.54-86.6h0l2.89.79.36-17.52Z"/>
  <path class="cls-1" d="m341.71,104.81l.66,2.93-70.16,15.84c-.67.15-1.1.82-.94,1.49.13.58.65.98,1.22.98.09,0,.18-.01.28-.03l70.16-15.84.66,2.93,15.65-7.89-17.52-.4Z"/>
  <path class="cls-1" d="m157.49,28.54c-.36,0-.72.15-.96.45-.44.53-.36,1.32.17,1.76l101.89,84.17-1.91,2.31,15.81,7.55-10.4-14.1-1.91,2.31L158.28,28.82c-.23-.19-.52-.29-.8-.29Z"/>
  <path class="cls-4" d="m28.23,199.21c0,2.76-2.24,5-5,5s-5-2.24-5-5,2.24-5,5-5,5,2.24,5,5Z"/>
  <path class="cls-5" d="m28.23,199.21c0,2.76-2.24,5-5,5s-5-2.24-5-5,2.24-5,5-5,5,2.24,5,5Z"/>
  <text class="cls-2" transform="translate(11.29 188.79)"><tspan x="0" y="0">A</tspan></text>
  <path class="cls-4" d="m162.49,29.79c0,2.76-2.24,5-5,5s-5-2.24-5-5,2.24-5,5-5,5,2.24,5,5Z"/>
  <path class="cls-5" d="m162.49,29.79c0,2.76-2.24,5-5,5s-5-2.24-5-5,2.24-5,5-5,5,2.24,5,5Z"/>
  <text class="cls-3" transform="translate(161.49 19.79)"><tspan x="0" y="0">B</tspan></text>
  <path class="cls-4" d="m249.49,227.79c0,2.76-2.24,5-5,5s-5-2.24-5-5,2.24-5,5-5,5,2.24,5,5Z"/>
  <path class="cls-5" d="m249.49,227.79c0,2.76-2.24,5-5,5s-5-2.24-5-5,2.24-5,5-5,5,2.24,5,5Z"/>
  <text class="cls-3" transform="translate(253.94 240.42)"><tspan x="0" y="0">C</tspan></text>
  <path class="cls-4" d="m364.23,105.21c0,2.76-2.24,5-5,5s-5-2.24-5-5,2.24-5,5-5,5,2.24,5,5Z"/>
  <path class="cls-5" d="m364.23,105.21c0,2.76-2.24,5-5,5s-5-2.24-5-5,2.24-5,5-5,5,2.24,5,5Z"/>
  <text class="cls-3" transform="translate(363.49 94.79)"><tspan x="0" y="0">E</tspan></text>
  <path class="cls-4" d="m277.49,124.79c0,2.76-2.24,5-5,5s-5-2.24-5-5,2.24-5,5-5,5,2.24,5,5Z"/>
  <path class="cls-5" d="m277.49,124.79c0,2.76-2.24,5-5,5s-5-2.24-5-5,2.24-5,5-5,5,2.24,5,5Z"/>
  <text class="cls-3" transform="translate(276.49 114.79)"><tspan x="0" y="0">D</tspan></text>
</svg>