<svg xmlns="http://www.w3.org/2000/svg" xmlns:xlink="http://www.w3.org/1999/xlink" width="800" height="400" viewBox="0 0 204.631 110.278"><style><![CDATA[.B{overflow:visible}.C{stroke:none}.D{stroke-miterlimit:10}.E{fill:rgb(0%,0%,0%)}.F{stroke-width:.399}.G{stroke:rgb(0%,0%,0%)}]]></style><defs><symbol id="A" class="B"><path d="M4.922-1.719c.125 0 .266 0 .266-.141 0-.156-.141-.156-.266-.156H.875c-.125 0-.25 0-.25.156 0 .141.125.141.25.141zm0 0" class="C"/></symbol><symbol id="B" class="B"><path d="M1.219-3.406c-.344-.234-.375-.484-.375-.609 0-.453.484-.766 1.016-.766.547 0 1.031.375 1.031.922 0 .422-.297.781-.75 1.047zm1.094.703c.531-.281.906-.672.906-1.156 0-.687-.672-1.109-1.359-1.109-.734 0-1.344.547-1.344 1.234a1.19 1.19 0 0 0 .328.828c.078.094.359.281.547.406-.437.219-1.078.641-1.078 1.375 0 .781.766 1.297 1.547 1.297.844 0 1.547-.625 1.547-1.422 0-.281-.078-.609-.359-.922-.141-.156-.266-.234-.734-.531zm-.75.313l.922.578c.203.141.563.375.563.828 0 .547-.562.938-1.187.938-.641 0-1.172-.469-1.172-1.078 0-.437.234-.906.875-1.266zm0 0" class="C"/></symbol><symbol id="C" class="B"><path d="M.984-2.453v-.172c0-1.891.922-2.156 1.313-2.156.172 0 .484.031.656.297-.109 0-.406 0-.406.328 0 .234.172.344.344.344.109 0 .328-.062.328-.359 0-.437-.328-.797-.937-.797-.953 0-1.969.953-1.969 2.609 0 2 .875 2.531 1.563 2.531.828 0 1.531-.703 1.531-1.703 0-.937-.656-1.656-1.484-1.656-.516 0-.781.375-.937.734zm.891 2.406c-.469 0-.687-.453-.734-.562C1-.953 1-1.547 1-1.687c0-.578.234-1.328.906-1.328.125 0 .469 0 .703.469.125.266.125.656.125 1.016s0 .734-.125 1c-.219.453-.562.484-.734.484zm0 0" class="C"/></symbol><symbol id="D" class="B"><path d="M2.203-1.234v.656c0 .266-.016.344-.578.344h-.156V0l1.016-.016L3.5 0v-.234h-.156c-.562 0-.578-.078-.578-.344v-.656h.75v-.234h-.75v-3.391c0-.156 0-.203-.109-.203-.078 0-.094 0-.156.094l-2.297 3.5v.234zm.031-.234H.422L2.234-4.25zm0 0" class="C"/></symbol><symbol id="E" class="B"><path d="M.953-.578l.781-.766c1.172-1.031 1.625-1.437 1.625-2.187 0-.844-.672-1.437-1.594-1.437-.844 0-1.391.688-1.391 1.344 0 .422.375.422.391.422.125 0 .391-.094.391-.391 0-.203-.141-.391-.391-.391H.672c.172-.484.563-.766 1-.766.688 0 1 .609 1 1.219s-.375 1.188-.781 1.656L.453-.281C.375-.187.375-.172.375 0h2.766l.219-1.297h-.187c-.047.219-.094.547-.172.656-.047.063-.547.063-.703.063zm0 0" class="C"/></symbol><symbol id="F" class="B"><path d="M2.5-2.25c.047-.203.219-.891.734-.891a.77.77 0 0 1 .375.094c-.219.047-.359.234-.359.406 0 .125.078.266.281.266a.42.42 0 0 0 .406-.437c0-.391-.437-.484-.703-.484-.422 0-.687.391-.781.563a.83.83 0 0 0-.797-.562c-.781 0-1.203.953-1.203 1.141 0 .078.063.078.078.078.063 0 .094-.016.109-.078.25-.797.734-.984 1-.984.141 0 .391.078.391.5 0 .234-.125.734-.391 1.781-.125.469-.391.781-.719.781-.047 0-.219 0-.375-.094.188-.047.359-.203.359-.406S.734-.844.625-.844c-.219 0-.406.188-.406.438 0 .344.375.484.703.484.484 0 .766-.516.781-.562a.82.82 0 0 0 .813.563c.766 0 1.188-.953 1.188-1.141 0-.078-.062-.078-.094-.078-.062 0-.078.031-.094.078-.25.797-.75.984-.984.984-.297 0-.422-.25-.422-.5 0-.156.047-.328.125-.656zm0 0" class="C"/></symbol><symbol id="G" class="B"><path d="M3.625-2.844c.031-.109.031-.125.031-.172 0-.141-.094-.203-.219-.203-.062 0-.187.047-.25.156-.016.031-.078.266-.109.406l-.156.594-.328 1.344c-.031.109-.359.641-.844.641-.391 0-.469-.328-.469-.609 0-.344.125-.812.391-1.469.109-.297.141-.391.141-.531a.58.58 0 0 0-.609-.609C.5-3.297.219-2.219.219-2.156c0 .078.078.078.094.078.063 0 .078-.016.109-.125.203-.703.5-.937.766-.937.047 0 .172 0 .172.25a1.39 1.39 0 0 1-.125.516C.938-1.578.813-1.156.813-.812c0 .672.469.891.906.891a1.04 1.04 0 0 0 .75-.328C2.375.141 2.281.5 1.984.891c-.187.266-.469.469-.812.469-.109 0-.453-.016-.578-.312.125 0 .219 0 .328-.078a.42.42 0 0 0 .141-.312C1.063.422.859.391.797.391.625.391.375.516.375.875c0 .375.328.656.797.656.766 0 1.531-.687 1.734-1.531zm0 0" class="C"/></symbol><clipPath id="H"><path d="M5.18 5.18h194.273v97.137H5.18zm0 0"/></clipPath></defs><g fill="none" class="D"><g stroke-width=".199"><path d="M24.609 92.602V14.891m19.426 77.711V34.32m19.426 58.282V53.746m19.43 38.856V73.176m38.855 19.426V73.176m19.426 19.426V53.746m19.426 38.856V34.32m19.429 58.282V14.891M82.891 73.176h38.855m-58.285-19.43h77.711M44.035 34.32h116.563M24.609 14.891h155.418" stroke="rgb(75%,75%,75%)"/><path d="M24.609 94.727v-4.25m19.426 4.25v-4.25m19.426 4.25v-4.25m19.43 4.25v-4.25m38.855 4.25v-4.25m19.426 4.25v-4.25m19.426 4.25v-4.25m19.43 4.25v-4.25m-79.837-17.301h4.25m-4.25-19.43h4.25m-4.25-19.426h4.25m-4.25-19.43h4.25" stroke="rgb(50%,50%,50%)"/></g><path d="M5.18 92.602h192.281" class="F G"/></g><path d="M199.453 92.602l-3.187-1.594 1.195 1.594-1.195 1.594" class="E"/><path d="M102.316 102.316V7.172" fill="none" class="D F G"/><g class="E"><path d="M102.316 5.18l-1.594 3.188 1.594-1.195 1.594 1.195"/><use xlink:href="#A" x="19.834" y="102.184"/><use xlink:href="#B" x="25.646" y="102.184"/><use xlink:href="#A" x="39.261" y="102.184"/><use xlink:href="#C" x="45.072" y="102.184"/><use xlink:href="#A" x="58.688" y="102.184"/><use xlink:href="#D" x="64.499" y="102.184"/><use xlink:href="#A" x="78.115" y="102.184"/><use xlink:href="#E" x="83.926" y="102.184"/><use xlink:href="#E" x="119.874" y="102.184"/><use xlink:href="#D" x="139.301" y="102.184"/><use xlink:href="#C" x="158.728" y="102.184"/><use xlink:href="#B" x="178.155" y="102.184"/><use xlink:href="#E" x="93.813" y="75.583"/><use xlink:href="#D" x="93.813" y="56.155"/><use xlink:href="#C" x="93.813" y="36.728"/><use xlink:href="#B" x="93.813" y="17.301"/></g><g clip-path="url(#H)" class="D"><path d="M14.895 5.18l1.402 1.402.352.348.348.352.352.352.352.348.348.352 1.754 1.754.352.348.348.352.352.352.352.348.348.352.352.352.352.348.348.352.703.703.352.348.348.352.352.352.352.348.348.352.352.352.352.348.348.352.703.703.352.348.348.352.352.352.352.348.348.352.352.352.352.348.348.352.703.703.352.348.348.352.352.352.352.348.348.352.352.352.352.348.348.352 1.754 1.754.352.348.348.352.352.352.352.348.348.352 1.754 1.754.352.348.348.352.352.352.352.348.348.352 1.754 1.754.352.348.348.352.352.352.352.348.348.352 1.754 1.754.352.348.348.352.352.352.352.348.348.352 1.754 1.754.352.348.348.352.352.352.352.348.348.352 1.754 1.754.352.348.348.352.352.352.352.348.348.352 1.754 1.754.352.348.348.352.352.352.352.348.348.352 1.754 1.754.352.348.348.352.352.352.352.348.348.352 1.754 1.754.352.348.348.352.352.352.352.348.348.352 1.754 1.754.352.348.348.352.352.352.352.348.348.352 1.754 1.754.352.348.348.352.352.352.352.348.348.352 1.754 1.754.352.348.348.352.352.352.352.348.348.352 1.754 1.754.352.348.348.352.352.352.352.348.348.352 1.754 1.754.352.348.348.352.352.352.352.348.348.352 1.754 1.754.352.348.348.352.352.352.352.348.348.352 1.754 1.754.352.348.348.352.352.352.352.348.348.352 1.754 1.754.352.348.348.352.352.352.352.348.348.352 1.754 1.754.352.348.348.352.352.352.352.348.348.352 1.754 1.754.352.348.348.352.352.352.352.348.348.352 1.754 1.754.352.348.348.352h.352L189.738 5.18" fill="none" stroke-width=".797" stroke="rgb(0%,62.353516%,95.684814%)"/></g><g class="E"><use xlink:href="#F" x="192.54" y="89.961"/><use xlink:href="#G" x="104.956" y="11.037"/></g></svg>