<?xml version="1.0" encoding="utf-8"?>
<!-- Generator: Adobe Illustrator 26.5.0, SVG Export Plug-In . SVG Version: 6.00 Build 0)  -->
<svg version="1.1" id="Слой_1" xmlns="http://www.w3.org/2000/svg" xmlns:xlink="http://www.w3.org/1999/xlink" x="0px" y="0px"
	 viewBox="0 0 872 465" style="enable-background:new 0 0 872 465;" xml:space="preserve" width="800">
<style type="text/css">
	.st0{fill:#6C8EBF;}
	.st1{fill:none;stroke:#8C8C8C;stroke-width:5;stroke-miterlimit:10;}
	.st2{fill:none;stroke:#8C8C8C;stroke-width:5;stroke-miterlimit:10;stroke-dasharray:12.17,12.17;}
	.st3{fill:#808080;}
	.st4{fill:#FFFFFF;}
	.st5{fill:#00BF10;}
	.st6{fill:none;stroke:#6C8EBF;stroke-width:2;}
	.st7{fill:none;stroke:#6C8EBF;stroke-width:2;stroke-miterlimit:10;}
	.st8{fill:#6C8EBF;stroke:#6C8EBF;stroke-width:2;stroke-miterlimit:10;}
	.st9{fill:#DAE8FC;stroke:#6C8EBF;stroke-width:2;}
	.st10{fill:none;stroke:#D6B656;stroke-width:2;stroke-miterlimit:10;stroke-dasharray:6,6;}
	.st11{fill:#D6B656;stroke:#D6B656;stroke-width:2;stroke-miterlimit:10;}
	.st12{fill:#FFF2CC;stroke:#D6B656;stroke-width:2;}
	.st13{fill:#D5E8D4;stroke:#82B366;stroke-width:2;}
	.st14{fill:#D6B656;}
	.st15{fill:#82B366;}
	.st16{fill:#7EA6E0;}
</style>
<path class="st0" d="M600,287.8c14.5,0,26.3-11.8,26.3-26.3s-11.8-26.3-26.3-26.3s-26.3,11.8-26.3,26.3c0,0,0,0,0,0
	C573.7,276,585.5,287.7,600,287.8z M783.9,287.8c14.5,0,26.3-11.8,26.3-26.3s-11.8-26.3-26.3-26.3s-26.3,11.8-26.3,26.3c0,0,0,0,0,0
	C757.7,276,769.5,287.8,783.9,287.8C784,287.8,784,287.8,783.9,287.8L783.9,287.8z M797.1,300.9h-26.2c-6.9,0-13.6,2.7-18.5,7.6
	c16.9,9.2,28.3,25.9,30.8,44.9h27.1c7.2,0,13.1-5.9,13.1-13.1c0,0,0,0,0,0v-13.1C823.4,312.7,811.6,300.9,797.1,300.9L797.1,300.9z
	 M692,300.9c25.4,0,46-20.6,46-46s-20.6-46-46-46s-46,20.6-46,46S666.6,300.9,692,300.9C692,300.9,692,300.9,692,300.9L692,300.9z
	 M723.5,314h-3.4c-17.7,8.8-38.5,8.8-56.2,0h-3.4c-26.1,0-47.3,21.2-47.3,47.3v11.8c0,10.9,8.8,19.7,19.7,19.7h118.2
	c10.9,0,19.7-8.8,19.7-19.7v-11.8C770.8,335.2,749.7,314,723.5,314z M631.7,308.5c-4.9-4.9-11.6-7.6-18.5-7.6h-26.3
	c-14.5,0-26.3,11.8-26.3,26.3v13.2c0,7.2,5.9,13.1,13.1,13.1c0,0,0,0,0,0h27C603.3,334.4,614.8,317.7,631.7,308.5L631.7,308.5z"/>
<line class="st1" x1="510.8" y1="13" x2="510.8" y2="19"/>
<line class="st2" x1="510.8" y1="31.2" x2="510.8" y2="438.9"/>
<line class="st1" x1="510.8" y1="445" x2="510.8" y2="451"/>
<path class="st3" d="M235.2,46.7c0,1.4-0.3,2.8-0.9,4.1c-0.6,1.1-1.4,2.1-2.4,2.9c-1.1,0.9-2.5,1.6-3.9,2c-1.8,0.4-3.6,0.6-5.4,0.6
	h-11.1V25.1h9.3c1.7,0,3.4,0.1,5.1,0.2c1.1,0.2,2.2,0.5,3.2,1c1,0.5,1.9,1.3,2.5,2.3c0.5,1,0.8,2.2,0.8,3.4c0,1.3-0.4,2.7-1.1,3.8
	c-0.8,1.1-1.8,1.9-3,2.5v0.2c1.9,0.3,3.7,1.3,5,2.8C234.7,42.8,235.3,44.7,235.2,46.7z M228.2,32.6c0-0.7-0.1-1.3-0.4-1.9
	c-0.3-0.5-0.7-1-1.2-1.3c-0.7-0.4-1.6-0.6-2.4-0.7c-0.9-0.1-2.1-0.1-3.5-0.1h-4.9v9h5.4c1,0,2.1,0,3.1-0.2c0.8-0.1,1.5-0.4,2.1-0.8
	c0.6-0.4,1.1-1,1.4-1.6C228.1,34.2,228.3,33.4,228.2,32.6L228.2,32.6z M230.9,46.8c0-1-0.1-2.1-0.6-3c-0.5-0.8-1.2-1.4-2-1.8
	c-0.8-0.4-1.6-0.6-2.4-0.7c-1.2-0.1-2.3-0.2-3.5-0.2h-6.5v11.6h5.5c1.5,0,3-0.1,4.5-0.3c1-0.1,2-0.5,2.9-1c0.7-0.5,1.3-1.1,1.7-1.9
	C230.8,48.7,231,47.8,230.9,46.8L230.9,46.8z"/>
<path class="st3" d="M264.5,46.6c0,1.4-0.3,2.8-0.9,4.1c-0.6,1.2-1.4,2.2-2.4,3c-1.1,0.9-2.4,1.6-3.8,2c-1.7,0.4-3.4,0.6-5.2,0.6
	h-11.1V25.1h4.1v12.2h7.1c1.7,0,3.5,0.1,5.2,0.4c1.4,0.3,2.7,0.9,3.8,1.8c1,0.8,1.8,1.9,2.4,3.1C264.2,43.8,264.5,45.2,264.5,46.6z
	 M260.1,46.7c0-0.9-0.2-1.9-0.5-2.8c-0.3-0.8-0.9-1.5-1.6-1.9c-0.8-0.5-1.7-0.8-2.7-0.9c-1.4-0.1-2.8-0.2-4.2-0.2h-5.8v11.8h5.7
	c1.4,0,2.9-0.1,4.3-0.3c0.9-0.2,1.8-0.5,2.6-1c0.7-0.5,1.3-1.1,1.7-1.9C260,48.6,260.2,47.6,260.1,46.7z M272.3,56.3h-4.1V25.1h4.1
	V56.3z"/>
<path class="st3" d="M600.4,29.4c1.2,1.3,2.1,2.9,2.6,4.6c0.6,2,0.9,4.1,0.9,6.2c0,2.1-0.3,4.2-0.9,6.2c-0.5,1.7-1.4,3.2-2.6,4.5
	c-1.1,1.2-2.5,2.2-4.1,2.9c-3.5,1.3-7.3,1.3-10.7,0c-1.6-0.6-3-1.6-4.1-2.8c-1.2-1.3-2.1-2.9-2.6-4.6c-0.6-2-0.9-4.1-0.9-6.2
	c0-2.1,0.3-4.1,0.9-6.1c0.5-1.7,1.4-3.3,2.6-4.6c1.1-1.2,2.5-2.2,4.1-2.8c1.7-0.7,3.5-1,5.3-1c1.8,0,3.7,0.3,5.4,1
	C597.9,27.2,599.2,28.2,600.4,29.4z M600,40.2c0-3.6-0.8-6.4-2.5-8.4c-3.3-3.7-9-4-12.7-0.6c-0.2,0.2-0.4,0.4-0.6,0.6
	c-1.6,2-2.4,4.8-2.4,8.4s0.8,6.5,2.5,8.4c3.4,3.7,9,3.9,12.7,0.6c0.2-0.2,0.4-0.4,0.6-0.6C599.2,46.7,600,43.8,600,40.2z"/>
<path class="st3" d="M630.9,45.5c0,1.3-0.3,2.5-0.8,3.7c-0.5,1-1.2,2-2.1,2.7c-1,0.8-2.2,1.4-3.4,1.8c-1.5,0.4-3.1,0.6-4.7,0.5
	h-10.2v-28h18.7v3.3h-15v7.7h6.5c1.6,0,3.1,0.1,4.7,0.3c1.2,0.2,2.4,0.8,3.4,1.6c0.9,0.7,1.7,1.7,2.1,2.7
	C630.7,42.9,630.9,44.2,630.9,45.5z M627,45.6c0-0.9-0.1-1.7-0.5-2.5c-0.3-0.7-0.8-1.3-1.5-1.7c-0.7-0.5-1.5-0.8-2.4-0.8
	c-1.3-0.1-2.5-0.2-3.8-0.2h-5.4V51h5.3c1.3,0,2.6-0.1,3.8-0.2c0.8-0.1,1.7-0.5,2.4-0.9c0.6-0.4,1.2-1,1.5-1.7
	C626.9,47.3,627,46.4,627,45.6L627,45.6z"/>
<path class="st3" d="M667.4,54.2h-31.2v-28h3.7v24.8h10.5V26.2h3.7v24.7h10.5V26.2h3.7v24.7h2.6v9.6h-3.5V54.2z"/>
<path class="st3" d="M694.8,54.2h-18.4v-28h18.4v3.3h-14.7v7.7h14.7v3.3h-14.7v10.4h14.7L694.8,54.2z"/>
<path class="st3" d="M722.3,52.1c-0.7,0.3-1.3,0.6-1.9,0.8c-0.7,0.3-1.4,0.6-2.2,0.8c-0.8,0.2-1.6,0.5-2.5,0.6c-1,0.2-2,0.3-3,0.2
	c-1.9,0-3.7-0.3-5.5-0.8c-1.6-0.6-3.1-1.5-4.3-2.7c-1.3-1.3-2.2-2.8-2.8-4.5c-0.7-2.1-1-4.2-1-6.4c0-2.1,0.3-4.2,1-6.2
	c0.6-1.7,1.5-3.3,2.8-4.6c1.2-1.2,2.7-2.2,4.3-2.8c1.8-0.7,3.7-1,5.6-1c1.5,0,3,0.2,4.5,0.5c1.7,0.5,3.4,1.1,5,1.9v4.4H722
	c-1.4-1.2-2.9-2.1-4.6-2.8c-1.6-0.6-3.2-0.9-4.9-0.9c-1.3,0-2.6,0.2-3.8,0.7c-1.1,0.5-2.2,1.2-3,2.1c-0.9,1-1.6,2.2-2,3.6
	c-0.5,1.6-0.8,3.3-0.7,5c0,1.7,0.2,3.4,0.8,5.1c0.4,1.3,1.1,2.4,2.1,3.5c0.8,0.9,1.9,1.6,3.1,2.1c1.2,0.5,2.4,0.7,3.7,0.7
	c1.7,0,3.4-0.3,5-0.9c1.6-0.7,3.1-1.6,4.4-2.8h0.3L722.3,52.1z"/>
<path class="st3" d="M747.5,29.5h-10v24.7h-3.7V29.5h-10v-3.3h23.7V29.5z"/>
<path class="st3" d="M772.3,45.5c0,1.3-0.2,2.5-0.8,3.7c-0.5,1-1.2,1.9-2.1,2.6c-1,0.8-2.2,1.4-3.4,1.8c-1.6,0.4-3.2,0.6-4.8,0.5
	h-9.9v-28h8.3c1.5,0,3.1,0.1,4.6,0.2c1,0.2,2,0.5,2.9,0.9c0.9,0.5,1.7,1.2,2.2,2.1c0.5,0.9,0.7,2,0.7,3c0,1.2-0.3,2.4-1,3.4
	c-0.7,1-1.6,1.7-2.7,2.2v0.2c1.7,0.3,3.3,1.2,4.5,2.5C771.9,42,772.4,43.8,772.3,45.5z M766.1,33c0-0.6-0.1-1.2-0.3-1.7
	c-0.2-0.5-0.6-0.9-1.1-1.1c-0.7-0.4-1.4-0.6-2.1-0.6c-0.8-0.1-1.9-0.1-3.1-0.1H755v8.1h4.8c0.9,0,1.9,0,2.8-0.2
	c0.7-0.1,1.3-0.4,1.9-0.7c0.6-0.3,1-0.9,1.2-1.5C766,34.4,766.1,33.7,766.1,33z M768.5,45.8c0.1-0.9-0.1-1.9-0.5-2.8
	c-0.4-0.7-1.1-1.3-1.8-1.7c-0.7-0.3-1.4-0.5-2.2-0.6c-1-0.1-2.1-0.1-3.1-0.1H755V51h4.9c1.3,0,2.7-0.1,4-0.2
	c0.9-0.1,1.8-0.4,2.6-0.9c0.6-0.4,1.2-1,1.5-1.7C768.3,47.4,768.5,46.5,768.5,45.8L768.5,45.8z"/>
<path class="st3" d="M798.5,29.4c1.2,1.3,2.1,2.9,2.6,4.6c0.6,2,0.9,4.1,0.9,6.2c0,2.1-0.3,4.2-0.9,6.2c-0.5,1.7-1.4,3.2-2.6,4.5
	c-1.1,1.3-2.5,2.2-4.1,2.9c-3.5,1.3-7.3,1.3-10.8,0c-1.6-0.6-3-1.6-4.1-2.8c-1.2-1.3-2.1-2.9-2.6-4.6c-0.6-2-0.9-4.1-0.9-6.2
	c0-2.1,0.3-4.1,0.9-6.1c0.5-1.7,1.4-3.3,2.6-4.6c1.1-1.2,2.5-2.2,4.1-2.8c1.7-0.7,3.5-1,5.3-1c1.8,0,3.7,0.3,5.4,1
	C796,27.2,797.3,28.2,798.5,29.4z M798.1,40.2c0-3.6-0.8-6.4-2.5-8.4c-3.3-3.7-9-4-12.7-0.6c-0.2,0.2-0.4,0.4-0.6,0.6
	c-1.6,2-2.4,4.8-2.4,8.4s0.8,6.5,2.5,8.4c3.4,3.7,9,3.9,12.7,0.6c0.2-0.2,0.4-0.4,0.6-0.6C797.3,46.7,798.1,43.8,798.1,40.2
	L798.1,40.2z"/>
<rect x="588.5" y="249.8" class="st4" width="23" height="23"/>
<polygon class="st4" points="706.5,229.8 677.5,229.8 663,254.9 677.5,280 706.5,280 721,254.9 "/>
<polygon class="st4" points="784,247.9 771.2,270 796.7,270 "/>
<path class="st5" d="M684.7,178.4l-32.6-32.6c-2-1.9-2-5.1,0-7.1c0,0,0,0,0,0l7.1-7.1c1.9-2,5.1-2,7.1,0c0,0,0,0,0,0l22,22l47-47
	c1.9-2,5.1-2,7.1,0c0,0,0,0,0,0l7.1,7.1c2,1.9,2,5.1,0,7.1c0,0,0,0,0,0l-57.7,57.7C689.8,180.4,686.7,180.4,684.7,178.4
	C684.7,178.5,684.7,178.5,684.7,178.4L684.7,178.4z"/>
<path class="st5" d="M593.3,210.1l-18.7-18.7c-1.1-1.1-1.1-2.9,0-4.1c0,0,0,0,0,0l4.1-4.1c1.1-1.1,2.9-1.1,4.1,0c0,0,0,0,0,0
	l12.6,12.6l26.9-26.9c1.1-1.1,2.9-1.1,4.1,0l4.1,4.1c1.1,1.1,1.1,2.9,0,4.1l-33,33C596.2,211.2,594.4,211.2,593.3,210.1
	C593.3,210.1,593.3,210.1,593.3,210.1L593.3,210.1z"/>
<path class="st5" d="M778.6,210.1L760,191.4c-1.1-1.1-1.1-2.9,0-4.1c0,0,0,0,0,0l4-4.1c1.1-1.1,2.9-1.1,4.1,0c0,0,0,0,0,0l12.6,12.6
	l26.9-26.9c1.1-1.1,2.9-1.1,4.1,0c0,0,0,0,0,0l4.1,4.1c1.1,1.1,1.1,2.9,0,4.1l-33,33C781.6,211.2,779.8,211.2,778.6,210.1
	C778.6,210.1,778.6,210.1,778.6,210.1L778.6,210.1z"/>
<rect x="38.6" y="111.9" class="st6" width="419.2" height="253.3"/>
<path class="st7" d="M112,186.5h48.3"/>
<path class="st8" d="M169.4,186.5l-12.2,6.1l3-6.1l-3-6.1L169.4,186.5z"/>
<circle class="st9" cx="90.6" cy="186.5" r="16.2"/>
<path class="st10" d="M214.2,186.5h52.2"/>
<path class="st11" d="M271.6,186.5l-7,3.5l1.8-3.5l-1.8-3.5L271.6,186.5z"/>
<circle class="st12" cx="192.8" cy="186.5" r="16.2"/>
<path class="st10" d="M316.4,186.5h48.3"/>
<path class="st11" d="M373.8,186.5l-12.2,6.1l3-6.1l-3-6.1L373.8,186.5z"/>
<circle class="st12" cx="295" cy="186.5" r="16.2"/>
<circle class="st13" cx="397.2" cy="186.5" r="16.2"/>
<path class="st7" d="M112,238.9h48.3"/>
<path class="st8" d="M169.4,238.9l-12.2,6.1l3-6.1l-3-6.1L169.4,238.9z"/>
<circle class="st9" cx="90.6" cy="238.9" r="16.2"/>
<path class="st10" d="M214.2,238.9h52.2"/>
<path class="st11" d="M271.6,238.9l-7,3.5l1.8-3.5l-1.8-3.5L271.6,238.9z"/>
<circle class="st12" cx="192.8" cy="238.9" r="16.2"/>
<path class="st10" d="M316.4,238.9h48.3"/>
<path class="st11" d="M373.8,238.9l-12.2,6.1l3-6.1l-3-6.1L373.8,238.9z"/>
<circle class="st12" cx="295" cy="238.9" r="16.2"/>
<circle class="st13" cx="397.2" cy="238.9" r="16.2"/>
<path class="st7" d="M113.3,291.4h48.3"/>
<path class="st8" d="M170.7,291.4l-12.2,6.1l3-6.1l-3-6.1L170.7,291.4z"/>
<circle class="st9" cx="91.9" cy="291.4" r="16.2"/>
<path class="st10" d="M215.5,291.4h52.2"/>
<path class="st11" d="M272.9,291.4l-7,3.5l1.8-3.5l-1.8-3.5L272.9,291.4z"/>
<circle class="st12" cx="194.1" cy="291.4" r="16.2"/>
<path class="st10" d="M317.7,291.4h48.3"/>
<path class="st11" d="M375.1,291.4l-12.2,6.1l3-6.1l-3-6.1L375.1,291.4z"/>
<circle class="st12" cx="296.3" cy="291.4" r="16.2"/>
<circle class="st13" cx="398.5" cy="291.4" r="16.2"/>
<path class="st10" d="M276.8,225L211,200.5"/>
<path class="st11" d="M281.7,226.8l-7.8,0.8l2.9-2.7l-0.4-3.9L281.7,226.8z"/>
<path class="st11" d="M206,198.6l7.8-0.8l-2.8,2.7l0.4,3.9L206,198.6z"/>
<path class="st10" d="M276.8,200.5L211,225"/>
<path class="st11" d="M281.7,198.6l-5.3,5.7l0.4-3.9l-2.8-2.7L281.7,198.6z"/>
<path class="st11" d="M206,226.8l5.3-5.7L211,225l2.9,2.7L206,226.8z"/>
<path class="st10" d="M278.1,277.4L211,252.9"/>
<path class="st11" d="M283,279.2l-7.8,0.9l2.9-2.7l-0.5-3.9L283,279.2z"/>
<path class="st11" d="M206,251l7.8-0.9l-2.8,2.7l0.4,3.9L206,251z"/>
<path class="st10" d="M276.8,252.9l-64.6,24.4"/>
<path class="st11" d="M281.7,251.1l-5.3,5.7l0.4-3.9l-2.8-2.6L281.7,251.1z"/>
<path class="st11" d="M207.4,279.2l5.3-5.7l-0.4,3.9l2.9,2.6L207.4,279.2z"/>
<g>
	<path class="st14" d="M182.9,336.6c0,0.6-0.1,1.3-0.4,1.9c-0.2,0.6-0.6,1.1-1,1.5c-0.5,0.5-1.2,0.9-1.9,1.2
		c-0.9,0.3-1.8,0.4-2.7,0.4h-2v5.7h-2V332h4.1c0.8,0,1.6,0.1,2.3,0.2c0.6,0.1,1.2,0.4,1.7,0.7c0.6,0.4,1,0.9,1.3,1.5
		C182.8,335.1,182.9,335.9,182.9,336.6z M180.8,336.7c0-0.5-0.1-0.9-0.3-1.4c-0.2-0.4-0.5-0.8-0.8-1c-0.3-0.2-0.7-0.4-1.1-0.5
		c-0.5-0.1-1.1-0.1-1.6-0.1h-2v6.1h1.7c0.7,0,1.3-0.1,2-0.2c0.5-0.1,0.9-0.4,1.2-0.7c0.3-0.3,0.5-0.6,0.7-1
		C180.7,337.5,180.8,337.1,180.8,336.7L180.8,336.7z"/>
	<path class="st14" d="M194.3,347.2h-1.9V346l-0.7,0.5c-0.3,0.2-0.5,0.4-0.8,0.5c-0.4,0.2-0.7,0.3-1.1,0.4c-0.5,0.1-1,0.2-1.5,0.2
		c-1,0-1.9-0.3-2.6-1c-0.7-0.7-1.1-1.6-1.1-2.6c0-0.7,0.2-1.5,0.6-2.1c0.4-0.6,1-1,1.6-1.3c0.8-0.3,1.6-0.5,2.5-0.6
		c1-0.1,2-0.2,3.1-0.2v-0.3c0-0.4-0.1-0.7-0.2-1.1c-0.2-0.3-0.4-0.5-0.7-0.7c-0.3-0.2-0.6-0.3-1-0.3c-0.4-0.1-0.8-0.1-1.2-0.1
		c-0.6,0-1.1,0.1-1.7,0.2c-0.7,0.1-1.3,0.3-1.9,0.6h-0.1v-2c0.4-0.1,0.9-0.2,1.6-0.3c0.7-0.1,1.4-0.2,2.1-0.2c0.7,0,1.4,0.1,2.1,0.2
		c0.6,0.1,1.1,0.4,1.6,0.7c0.4,0.3,0.8,0.7,1,1.2c0.2,0.6,0.4,1.2,0.3,1.9L194.3,347.2z M192.4,344.4v-3.2l-2.1,0.2
		c-0.6,0-1.3,0.1-1.9,0.3c-0.5,0.1-1,0.4-1.3,0.7c-0.7,0.8-0.7,2.1,0.1,2.8c0.5,0.4,1.2,0.6,1.8,0.5c0.6,0,1.3-0.1,1.9-0.4
		C191.4,345.1,191.9,344.8,192.4,344.4z"/>
	<path class="st14" d="M206.6,346.5c-0.6,0.3-1.3,0.6-2,0.8c-0.5,0.1-1.1,0.2-1.7,0.2c-0.8,0-1.6-0.1-2.3-0.4
		c-0.7-0.2-1.3-0.6-1.8-1.1c-0.5-0.5-0.9-1.2-1.2-1.9c-0.3-0.8-0.4-1.7-0.4-2.6c-0.1-1.6,0.5-3.2,1.5-4.4c1.1-1.1,2.6-1.7,4.1-1.6
		c0.7,0,1.3,0.1,1.9,0.3c0.6,0.2,1.2,0.4,1.8,0.7v2.1h-0.1c-0.6-0.4-1.2-0.8-1.9-1.1c-0.6-0.2-1.2-0.3-1.8-0.4c-1-0.1-2,0.4-2.6,1.1
		c-1.2,1.9-1.2,4.4,0,6.3c0.7,0.8,1.6,1.2,2.6,1.1c0.4,0,0.8-0.1,1.2-0.2c0.4-0.1,0.7-0.2,1.1-0.4c0.3-0.1,0.5-0.3,0.8-0.5
		c0.3-0.2,0.5-0.3,0.6-0.4h0.1L206.6,346.5z"/>
	<path class="st14" d="M217.8,346.5c-0.6,0.3-1.3,0.6-2,0.8c-0.6,0.1-1.1,0.2-1.7,0.2c-0.8,0-1.6-0.1-2.3-0.4
		c-0.7-0.2-1.3-0.6-1.8-1.1c-0.5-0.5-0.9-1.2-1.2-1.9c-0.3-0.8-0.4-1.7-0.4-2.6c-0.1-1.6,0.5-3.2,1.5-4.4c1.1-1.1,2.6-1.7,4.1-1.6
		c0.7,0,1.3,0.1,1.9,0.3c0.6,0.2,1.2,0.4,1.8,0.7v2.1h-0.1c-0.6-0.4-1.2-0.8-1.9-1.1c-0.6-0.2-1.2-0.3-1.8-0.4c-1-0.1-2,0.4-2.6,1.1
		c-0.7,0.9-1,2-0.9,3.2c-0.1,1.1,0.3,2.2,0.9,3.2c0.7,0.8,1.6,1.2,2.6,1.1c0.4,0,0.8-0.1,1.2-0.2c0.4-0.1,0.7-0.2,1.1-0.4
		c0.3-0.1,0.5-0.3,0.8-0.5c0.2-0.1,0.4-0.3,0.6-0.4h0.1L217.8,346.5z"/>
	<path class="st14" d="M230.3,335.8l-6.7,15.6h-2.1l2.1-4.8l-4.6-10.9h2.1l3.5,8.5l3.5-8.5H230.3z"/>
	<path class="st14" d="M247.1,347.2h-2.3l-3.7-5.2h-0.9v5.2h-1.9V342h-0.8l-3.8,5.2h-2.2l4.4-6c-0.3-0.2-0.6-0.4-0.9-0.8
		c-0.3-0.5-0.6-1-0.7-1.5c-0.1-0.5-0.3-0.9-0.7-1.2c-0.4-0.3-0.8-0.4-1.2-0.3h-0.5v-1.7h0.7c0.7,0,1.4,0.1,2,0.5
		c0.6,0.5,1,1.1,1.2,1.8c0.1,0.2,0.1,0.4,0.2,0.6s0.2,0.4,0.2,0.6c0.2,0.4,0.5,0.8,0.9,1.1c0.4,0.2,0.8,0.3,1.2,0.4v-5h1.9v5
		c0.4,0,0.8-0.1,1.2-0.4c0.4-0.3,0.7-0.6,0.9-1.1c0.1-0.2,0.2-0.4,0.2-0.6s0.2-0.4,0.2-0.6c0.3-1.5,1.7-2.5,3.2-2.3h0.7v1.7h-0.5
		c-0.4,0-0.9,0.1-1.2,0.4c-0.3,0.3-0.5,0.7-0.6,1.2c-0.1,0.5-0.4,1-0.7,1.4c-0.2,0.3-0.5,0.6-0.9,0.8L247.1,347.2z"/>
	<path class="st14" d="M259.9,350h-1.8v-2.8h-8.6v2.8h-1.8v-4.4h1.3c0.8-1.4,1.4-3,1.8-4.6c0.4-1.7,0.6-3.5,0.6-5.2h7.2v9.8h1.4
		L259.9,350z M256.6,345.6v-8.2h-3.4c-0.1,1.6-0.3,3.2-0.8,4.7c-0.4,1.2-0.9,2.4-1.5,3.5L256.6,345.6z"/>
	<path class="st14" d="M272.1,341.7h-8.4c0,0.6,0.1,1.3,0.3,1.8c0.2,0.5,0.5,0.9,0.9,1.3c0.4,0.3,0.8,0.6,1.3,0.7
		c0.5,0.2,1.1,0.3,1.6,0.2c0.8,0,1.6-0.2,2.4-0.5c0.6-0.2,1.2-0.5,1.7-0.9h0.1v2.1c-0.6,0.3-1.3,0.5-2,0.7c-0.7,0.2-1.4,0.3-2.1,0.3
		c-1.6,0.1-3.2-0.5-4.4-1.5c-1.1-1.2-1.7-2.8-1.6-4.4c-0.1-1.6,0.5-3.2,1.5-4.5c1-1.1,2.5-1.7,4-1.6c1.3-0.1,2.6,0.4,3.6,1.4
		c0.9,1.1,1.3,2.4,1.2,3.8L272.1,341.7z M270.3,340.2c0-0.8-0.2-1.7-0.8-2.3c-0.6-0.6-1.4-0.9-2.3-0.8c-0.9,0-1.8,0.3-2.5,0.9
		c-0.6,0.6-0.9,1.4-1,2.3L270.3,340.2z"/>
	<path class="st14" d="M284.6,347.2h-1.9v-5.1H277v5.1h-1.9v-11.4h1.9v4.6h5.7v-4.6h1.9L284.6,347.2z"/>
	<path class="st14" d="M298,347.2h-1.9v-8.6l-6,8.6h-1.7v-11.4h1.9v8.5l5.9-8.5h1.8V347.2z"/>
	<path class="st14" d="M310.6,347.2h-1.9v-4.5h-2.3l-3.5,4.5h-2.3l3.9-4.7c-0.8-0.2-1.6-0.6-2.2-1.2c-0.5-0.6-0.7-1.4-0.7-2.2
		c0-0.5,0.1-1.1,0.4-1.5c0.3-0.4,0.6-0.7,1-1c0.4-0.3,0.9-0.4,1.4-0.5c0.6-0.1,1.2-0.1,1.7-0.1h4.4L310.6,347.2z M308.7,341.2v-3.9
		h-2.4c-0.4,0-0.8,0-1.1,0.1c-0.3,0-0.5,0.1-0.8,0.3c-0.3,0.1-0.5,0.4-0.6,0.6c-0.1,0.3-0.2,0.5-0.2,0.8c0,0.3,0,0.6,0.1,0.9
		c0.1,0.3,0.3,0.5,0.5,0.6c0.3,0.2,0.6,0.3,0.9,0.4c0.4,0.1,0.8,0.1,1.2,0.1L308.7,341.2z"/>
</g>
<g>
	<path class="st15" d="M365.1,342.5c0,0.7-0.1,1.4-0.4,2c-0.3,0.6-0.7,1.1-1.2,1.4c-0.6,0.5-1.2,0.8-1.9,1c-0.9,0.2-1.7,0.3-2.6,0.3
		h-5.4V332h4.5c0.8,0,1.7,0,2.5,0.1c0.6,0.1,1.1,0.3,1.6,0.5c0.5,0.2,0.9,0.6,1.2,1.1c0.3,0.5,0.4,1.1,0.4,1.6
		c0,0.7-0.2,1.3-0.5,1.9c-0.4,0.5-0.9,0.9-1.5,1.2v0.1c0.9,0.2,1.8,0.6,2.4,1.4C364.8,340.7,365.2,341.6,365.1,342.5z M361.7,335.7
		c0-0.3-0.1-0.6-0.2-0.9c-0.1-0.3-0.3-0.5-0.6-0.6c-0.4-0.2-0.8-0.3-1.2-0.3c-0.6-0.1-1.1-0.1-1.7-0.1h-2.4v4.4h2.6
		c0.5,0,1,0,1.5-0.1c0.4-0.1,0.7-0.2,1-0.4c0.3-0.2,0.5-0.5,0.7-0.8C361.6,336.5,361.7,336.1,361.7,335.7z M363,342.6
		c0-0.5-0.1-1-0.3-1.5c-0.2-0.4-0.6-0.7-1-0.9c-0.4-0.2-0.8-0.3-1.2-0.3c-0.6-0.1-1.1-0.1-1.7-0.1h-3.2v5.7h2.7c0.7,0,1.5,0,2.2-0.1
		c0.5-0.1,1-0.2,1.4-0.5c0.3-0.2,0.6-0.5,0.8-0.9C362.9,343.5,363,343.1,363,342.6L363,342.6z"/>
	<path class="st15" d="M376.9,343.7c0,0.5-0.1,1-0.3,1.5c-0.2,0.4-0.5,0.8-0.9,1.1c-0.4,0.3-0.9,0.6-1.4,0.7c-0.7,0.2-1.3,0.2-2,0.2
		h-4.4v-11.4h1.9v4.5h2.5c0.7,0,1.3,0,2,0.1c0.5,0.1,1,0.3,1.4,0.7c0.4,0.3,0.7,0.7,0.9,1.1C376.8,342.7,376.9,343.2,376.9,343.7z
		 M374.9,343.7c0-0.3-0.1-0.6-0.2-0.9c-0.1-0.3-0.3-0.5-0.6-0.6c-0.3-0.2-0.6-0.3-1-0.3c-0.4,0-0.9,0-1.6,0h-1.8v3.9h1.8
		c0.5,0,1.1,0,1.6-0.1c0.4,0,0.7-0.2,1-0.3c0.3-0.2,0.5-0.4,0.6-0.6C374.8,344.3,374.9,344,374.9,343.7L374.9,343.7z M378.8,335.8
		h1.9v11.4h-1.9V335.8z"/>
	<path class="st15" d="M393.9,343.8c0,0.5-0.1,1-0.3,1.5c-0.2,0.4-0.5,0.8-0.9,1.1c-0.4,0.3-0.9,0.6-1.4,0.7c-0.7,0.2-1.3,0.2-2,0.2
		h-4.7v-11.4h4.4c0.6,0,1.3,0,1.9,0.1c0.4,0.1,0.8,0.2,1.2,0.4c0.4,0.2,0.7,0.5,1,0.9c0.2,0.4,0.3,0.8,0.3,1.3c0,0.5-0.2,1-0.5,1.5
		c-0.3,0.4-0.8,0.8-1.2,1v0.1c0.6,0.1,1.2,0.5,1.7,0.9C393.8,342.5,394,343.1,393.9,343.8z M391.4,338.8c0-0.2,0-0.5-0.2-0.7
		c-0.1-0.2-0.3-0.4-0.5-0.5c-0.3-0.1-0.7-0.2-1-0.2c-0.4,0-0.8,0-1.3,0h-2v3.1h2.4c0.4,0,0.8,0,1.1-0.1c0.3,0,0.5-0.1,0.7-0.3
		c0.2-0.1,0.4-0.3,0.5-0.6C391.3,339.3,391.4,339,391.4,338.8L391.4,338.8z M392,343.8c0-0.3-0.1-0.6-0.2-0.9
		c-0.2-0.3-0.5-0.5-0.8-0.6c-0.3-0.1-0.5-0.2-0.8-0.2c-0.3,0-0.7,0-1.2,0h-2.5v3.7h1.8c0.6,0,1.2,0,1.8-0.1c0.4,0,0.7-0.2,1.1-0.3
		c0.3-0.1,0.5-0.4,0.7-0.6C391.9,344.5,392,344.1,392,343.8L392,343.8z"/>
	<path class="st15" d="M406.7,341.5c0.1,1.6-0.4,3.2-1.4,4.4c-2.1,2.1-5.5,2.2-7.6,0.1c0,0-0.1-0.1-0.1-0.1c-1.9-2.6-1.9-6.2,0-8.8
		c2.1-2.1,5.5-2.2,7.6-0.1c0,0,0.1,0.1,0.1,0.1C406.3,338.4,406.8,339.9,406.7,341.5z M404.7,341.5c0.1-1.2-0.2-2.3-0.9-3.3
		c-1.2-1.3-3.3-1.4-4.6-0.2c-0.1,0.1-0.2,0.2-0.2,0.2c-0.6,1-0.9,2.1-0.9,3.3c-0.1,1.2,0.2,2.3,0.9,3.3c1.2,1.3,3.2,1.5,4.5,0.3
		c0.1-0.1,0.2-0.2,0.3-0.3C404.5,343.8,404.8,342.7,404.7,341.5L404.7,341.5z"/>
	<path class="st15" d="M420.1,350h-1.8v-2.8h-8.6v2.8h-1.8v-4.4h1.2c0.8-1.4,1.4-3,1.8-4.6c0.4-1.7,0.6-3.5,0.6-5.2h7.2v9.8h1.4
		L420.1,350z M416.8,345.6v-8.2h-3.5c-0.1,1.6-0.3,3.2-0.8,4.7c-0.4,1.2-0.9,2.4-1.5,3.5L416.8,345.6z"/>
	<path class="st15" d="M431.8,343.7c0,0.5-0.1,1-0.3,1.5c-0.2,0.4-0.5,0.8-0.9,1.1c-0.4,0.3-0.9,0.6-1.4,0.7c-0.7,0.2-1.3,0.2-2,0.2
		h-4.4v-11.4h1.9v4.5h2.5c0.7,0,1.3,0,2,0.1c0.5,0.1,1,0.3,1.4,0.7c0.4,0.3,0.7,0.7,0.9,1.1C431.6,342.7,431.7,343.2,431.8,343.7z
		 M429.8,343.7c0-0.3-0.1-0.6-0.2-0.9c-0.1-0.3-0.3-0.5-0.6-0.6c-0.3-0.2-0.6-0.3-1-0.3c-0.4,0-0.9,0-1.6,0h-1.8v3.9h1.8
		c0.5,0,1.1,0,1.6-0.1c0.4,0,0.7-0.2,1-0.3c0.3-0.2,0.5-0.4,0.6-0.6C429.7,344.3,429.8,344,429.8,343.7L429.8,343.7z M433.6,335.8
		h1.9v11.4h-1.9V335.8z"/>
</g>
<g>
	<path class="st16" d="M171.2,127.9c0,0.7-0.2,1.4-0.6,2c-0.4,0.6-0.9,1.1-1.5,1.5c-0.6,0.4-1.2,0.7-1.8,0.9
		c-0.7,0.2-1.4,0.3-2.2,0.3c-0.8,0-1.6-0.1-2.3-0.2c-0.5-0.1-1.1-0.3-1.6-0.5l0.4-1.8h0.1c0.5,0.3,1.1,0.6,1.7,0.8
		c0.6,0.2,1.3,0.3,2,0.3c0.5,0,0.9-0.1,1.4-0.2c0.4-0.1,0.9-0.3,1.3-0.6c0.4-0.3,0.7-0.6,0.9-1.1c0.2-0.4,0.4-0.9,0.3-1.4
		c0-0.5-0.2-1.1-0.7-1.3c-0.7-0.3-1.4-0.5-2.2-0.4h-1.8l0.3-1.4h1.6c0.9,0,1.8-0.2,2.6-0.7c0.6-0.4,1-1,1-1.8c0-0.5-0.2-0.9-0.6-1.1
		c-0.6-0.3-1.2-0.4-1.9-0.4c-0.7,0-1.4,0.1-2,0.3c-0.7,0.2-1.4,0.5-2.1,0.8h-0.1l0.4-1.8c0.6-0.2,1.2-0.4,1.8-0.5
		c0.7-0.1,1.4-0.2,2.1-0.2c1-0.1,2.1,0.2,3,0.7c0.7,0.4,1.1,1.1,1.1,1.9c0,0.8-0.3,1.6-0.9,2.2c-0.6,0.6-1.4,1-2.2,1.2v0.1
		c0.3,0,0.5,0.1,0.8,0.2c0.3,0.1,0.5,0.3,0.7,0.4c0.2,0.2,0.4,0.4,0.5,0.7C171.1,127.2,171.2,127.6,171.2,127.9z"/>
	<path class="st16" d="M182,126.2c0,0.8-0.1,1.7-0.4,2.5c-0.2,0.7-0.6,1.4-1.1,2.1c-0.5,0.6-1.1,1.1-1.7,1.4
		c-0.7,0.4-1.5,0.5-2.3,0.5c-1,0-1.9-0.3-2.6-1c-0.7-0.7-1-1.7-0.9-2.7c0-0.8,0.1-1.7,0.4-2.4c0.2-0.8,0.6-1.5,1.1-2.1
		c0.5-0.6,1.1-1.1,1.7-1.4c0.7-0.4,1.5-0.5,2.2-0.5c1.8-0.2,3.4,1.2,3.6,3C182,125.8,182,126,182,126.2L182,126.2z M179.4,129.8
		c0.3-0.5,0.6-1,0.7-1.6c0.2-0.6,0.3-1.3,0.2-1.9c0-0.7-0.2-1.3-0.6-1.8c-0.4-0.4-1-0.6-1.6-0.6c-0.5,0-1,0.1-1.5,0.4
		c-0.5,0.3-0.8,0.6-1.1,1.1c-0.3,0.5-0.6,1-0.7,1.6c-0.2,0.6-0.3,1.2-0.2,1.9c0,0.7,0.2,1.3,0.6,1.8c0.4,0.4,1,0.7,1.6,0.6
		c0.5,0,1-0.1,1.5-0.4C178.7,130.7,179.1,130.3,179.4,129.8L179.4,129.8z"/>
	<path class="st16" d="M191.2,132.4h-1.6l1-4.3h-4.7l-1,4.3h-1.6l2.2-9.5h1.6l-0.9,3.9h4.7l0.9-3.9h1.6L191.2,132.4z"/>
	<path class="st16" d="M200.4,131.4l-0.6,0.4c-0.3,0.2-0.5,0.3-0.8,0.4c-0.3,0.1-0.7,0.2-1,0.3c-0.4,0.1-0.8,0.1-1.2,0.1
		c-0.6,0-1.3-0.2-1.8-0.7c-0.5-0.4-0.7-1.1-0.7-1.7c0-0.7,0.2-1.3,0.5-1.9c0.4-0.5,0.9-1,1.5-1.3c0.7-0.4,1.5-0.6,2.3-0.7
		c1-0.2,2.1-0.3,3.1-0.3c0-0.2,0.1-0.3,0.1-0.4c0-0.1,0-0.2,0-0.4c0-0.2,0-0.5-0.2-0.7c-0.1-0.2-0.3-0.3-0.5-0.4
		c-0.2-0.1-0.5-0.2-0.7-0.2c-0.3,0-0.6-0.1-0.9-0.1c-0.6,0-1.1,0.1-1.7,0.2c-0.5,0.1-1,0.3-1.5,0.5h-0.1l0.3-1.6
		c0.3-0.1,0.8-0.2,1.4-0.3c0.6-0.1,1.2-0.2,1.8-0.2c0.9-0.1,1.8,0.1,2.7,0.6c0.6,0.4,0.9,1.1,0.9,1.8c0,0.2,0,0.3,0,0.5
		c0,0.2,0,0.3-0.1,0.5l-1.5,6.5h-1.6L200.4,131.4z M201.4,127.4c-0.8,0-1.6,0.1-2.3,0.2c-0.6,0.1-1.1,0.2-1.7,0.4
		c-0.4,0.2-0.7,0.4-1,0.8c-0.2,0.3-0.4,0.8-0.4,1.2c0,0.4,0.1,0.7,0.4,0.9c0.4,0.2,0.8,0.4,1.3,0.3c0.5,0,1.1-0.1,1.6-0.3
		c0.5-0.2,1-0.5,1.5-0.8L201.4,127.4z"/>
	<path class="st16" d="M220,132.4h-1.6l1.7-7.4l-3.4,4.7h-1.2l-1.3-5.1l-1.8,7.7H211l2.2-9.5h1.9l1.4,5.3l3.7-5.3h2L220,132.4z"/>
	<path class="st16" d="M229.2,131.4l-0.6,0.4c-0.3,0.2-0.5,0.3-0.8,0.4c-0.3,0.1-0.7,0.2-1,0.3c-0.4,0.1-0.8,0.1-1.2,0.1
		c-0.7,0-1.3-0.2-1.9-0.7c-0.5-0.4-0.7-1.1-0.7-1.7c0-0.7,0.1-1.3,0.5-1.9c0.4-0.6,0.9-1,1.5-1.3c0.7-0.4,1.5-0.6,2.3-0.7
		c1-0.2,2.1-0.3,3.1-0.3c0-0.2,0-0.3,0.1-0.4c0-0.1,0-0.2,0-0.4c0-0.2,0-0.5-0.2-0.7c-0.1-0.2-0.3-0.3-0.5-0.4
		c-0.2-0.1-0.4-0.2-0.7-0.2c-0.3,0-0.6-0.1-0.9-0.1c-0.6,0-1.1,0.1-1.7,0.2c-0.5,0.1-1,0.3-1.5,0.5h-0.1l0.3-1.6
		c0.3-0.1,0.8-0.2,1.4-0.3c0.6-0.1,1.2-0.2,1.8-0.2c0.9-0.1,1.8,0.1,2.7,0.6c0.6,0.4,0.9,1.1,0.9,1.8c0,0.2,0,0.3,0,0.5l-0.1,0.5
		l-1.5,6.5H229L229.2,131.4z M230.2,127.4c-0.8,0-1.6,0.1-2.3,0.2c-0.6,0.1-1.1,0.2-1.7,0.4c-0.4,0.2-0.7,0.4-1,0.8
		c-0.2,0.3-0.4,0.8-0.4,1.2c0,0.4,0.1,0.7,0.4,0.9c0.4,0.2,0.8,0.4,1.3,0.3c0.5,0,1.1-0.1,1.6-0.3c0.5-0.2,1-0.5,1.5-0.8
		L230.2,127.4z"/>
	<path class="st16" d="M242.6,124.2h-3.4l-1.9,8.2h-1.6l1.9-8.2h-3.4l0.3-1.3h8.5L242.6,124.2z"/>
	<path class="st16" d="M245,132.4h-2.1l0.6-2.4h2.1L245,132.4z"/>
	<path class="st16" d="M262.5,132.4h-1.6l1.9-8.2h-3.5c-0.1,0.5-0.2,1-0.3,1.4l-0.3,1.2c-0.2,0.8-0.4,1.4-0.6,2
		c-0.1,0.4-0.3,0.9-0.5,1.3c-0.2,0.3-0.3,0.6-0.5,0.9c-0.1,0.2-0.3,0.4-0.5,0.6c-0.3,0.3-0.6,0.6-1.1,0.7c-0.3,0.1-0.7,0.2-1.1,0.2
		h-0.8l0.4-1.5h0.5c0.2,0,0.3,0,0.4-0.1c0.2,0,0.3-0.1,0.4-0.2c0.4-0.4,0.8-0.9,1-1.4c0.4-0.9,0.8-1.9,1-2.9c0.1-0.4,0.2-1,0.4-1.6
		s0.3-1.3,0.5-1.8h6.6L262.5,132.4z"/>
	<path class="st16" d="M275,126.2c0,0.8-0.1,1.7-0.4,2.5c-0.2,0.7-0.6,1.4-1.1,2.1c-0.5,0.6-1.1,1.1-1.7,1.4
		c-0.7,0.4-1.5,0.5-2.3,0.5c-1,0-1.9-0.3-2.6-1c-0.7-0.7-1-1.7-1-2.7c0-0.8,0.1-1.7,0.4-2.4c0.2-0.8,0.6-1.5,1.1-2.1
		c0.5-0.6,1.1-1.1,1.7-1.4c0.7-0.4,1.5-0.5,2.2-0.5c1.8-0.2,3.4,1.2,3.6,3C275,125.8,275,126,275,126.2L275,126.2z M272.4,129.8
		c0.3-0.5,0.6-1,0.7-1.6c0.2-0.6,0.3-1.3,0.2-1.9c0-0.7-0.2-1.3-0.6-1.8c-0.4-0.4-1-0.6-1.6-0.6c-0.5,0-1,0.1-1.5,0.4
		c-0.5,0.3-0.8,0.6-1.1,1.1c-0.3,0.5-0.6,1-0.7,1.6c-0.2,0.6-0.3,1.2-0.2,1.9c0,0.7,0.2,1.3,0.6,1.8c0.4,0.4,1,0.7,1.6,0.6
		c0.5,0,1-0.1,1.5-0.4C271.7,130.7,272.1,130.3,272.4,129.8L272.4,129.8z"/>
	<path class="st16" d="M284.8,124.2h-5l-1.9,8.2h-1.6l2.2-9.5h6.5L284.8,124.2z"/>
	<path class="st16" d="M292.5,132.4h-1.6l1.7-7.2l-6.6,7.2h-1.5l2.2-9.5h1.6l-1.6,7l6.5-7h1.5L292.5,132.4z"/>
	<path class="st16" d="M304.4,132.4h-2l-3.2-4.4h-0.9l-1,4.4h-1.6l2.2-9.5h1.6l-1,4.1c0.4,0,0.8-0.1,1.2-0.2c0.4-0.2,0.8-0.6,1.1-1
		c0.1-0.2,0.2-0.3,0.4-0.5s0.2-0.4,0.3-0.5c0.3-0.5,0.8-1,1.3-1.4c0.7-0.4,1.4-0.6,2.2-0.5h0.7l-0.3,1.3h-0.7
		c-0.4,0-0.8,0.1-1.1,0.3c-0.4,0.3-0.7,0.6-0.9,1c-0.3,0.5-0.6,0.9-1,1.2c-0.3,0.3-0.7,0.5-1,0.7L304.4,132.4z"/>
	<path class="st16" d="M314.1,132.4h-1.6l1.7-7.2l-6.6,7.2H306l2.2-9.5h1.6l-1.6,7l6.5-7h1.5L314.1,132.4z"/>
</g>
</svg>
