<svg xmlns="http://www.w3.org/2000/svg" xmlns:xlink="http://www.w3.org/1999/xlink" width="600" height="467.581136" viewBox="0 0 199.97 155.837"><style><![CDATA[.B{fill:none}.C{stroke-miterlimit:10}.D{stroke-width:.3985}.E{stroke:rgb(50%,50%,50%)}.F{stroke-dasharray:2.98883,2.98883}.G{fill:rgb(35.293579%,35.293579%,35.293579%)}.H{overflow:visible}.I{stroke:none}.J{stroke:rgb(0%,0%,0%)}.K{stroke-linecap:round}.L{stroke-linejoin:round}.M{fill:rgb(0%,0%,0%)}]]></style><defs><symbol id="A" class="H"><path d="M2.15625-1.953125c.046875-.171875.1875-.765625.640625-.765625.03125 0 .1875 0 .328125.09375-.1875.03125-.3125.1875-.3125.34375 0 .09375.078125.21875.25.21875.140625 0 .34375-.109375.34375-.375 0-.328125-.375-.421875-.59375-.421875-.375 0-.609375.34375-.6875.484375-.15625-.421875-.5-.484375-.703125-.484375-.671875 0-1.03125.828125-1.03125 1 0 .0625.0625.0625.078125.0625.046875 0 .0625-.015625.078125-.078125.21875-.6875.65625-.84375.875-.84375.125 0 .34375.0625.34375.4375 0 .203125-.109375.625-.34375 1.53125-.109375.40625-.328125.671875-.625.671875-.03125 0-.1875 0-.3125-.078125C.640625-.1875.78125-.328125.78125-.5S.640625-.734375.546875-.734375c-.203125 0-.359375.171875-.359375.375 0 .296875.328125.4375.609375.4375.421875 0 .65625-.453125.671875-.5.078125.234375.3125.5.703125.5.671875 0 1.03125-.84375 1.03125-1 0-.0625-.046875-.0625-.078125-.0625-.046875 0-.0625.015625-.078125.0625-.21875.703125-.65625.84375-.859375.84375-.25 0-.359375-.203125-.359375-.421875 0-.140625.046875-.28125.109375-.5625zm0 0" class="I"/></symbol><symbol id="B" class="H"><path d="M2.375-2.59375h.5625c.125 0 .1875 0 .1875-.125 0-.0625-.0625-.0625-.171875-.0625H2.40625l.140625-.75.15625-.671875c.0625-.125.171875-.21875.3125-.21875.015625 0 .1875 0 .3125.125-.28125.015625-.359375.25-.359375.34375 0 .15625.125.234375.25.234375.171875 0 .359375-.15625.359375-.390625 0-.296875-.3125-.453125-.5625-.453125-.234375 0-.640625.125-.828125.765625-.046875.125-.0625.1875-.21875 1.015625h-.4375c-.125 0-.203125 0-.203125.109375 0 .078125.0625.078125.1875.078125H1.9375l-.484375 2.5625c-.109375.625-.21875 1.21875-.5625 1.21875-.03125 0-.1875 0-.3125-.125C.875 1.046875.9375.8125.9375.71875.9375.5625.828125.484375.703125.484375.53125.484375.34375.640625.34375.875c0 .296875.28125.453125.546875.453125C1.25 1.328125 1.5.9375 1.625.703125c.203125-.40625.359375-1.1875.359375-1.234375zm0 0" class="I"/></symbol><symbol id="C" class="H"><path d="M1.515625-2.875c0-.125 0-.140625-.140625-.140625-.28125.296875-.703125.296875-.875.296875v.15625c.109375 0 .40625 0 .65625-.125V-.375c0 .15625 0 .21875-.453125.21875H.53125V0l.796875-.015625L2.140625 0v-.15625H1.96875c-.453125 0-.453125-.0625-.453125-.21875zm0 0" class="I"/></symbol><symbol id="D" class="H"><path d="M2.28125-.828125h-.140625c-.015625.109375-.0625.375-.125.421875-.03125.015625-.390625.015625-.453125.015625H.734375l.90625-.75C1.96875-1.40625 2.28125-1.6875 2.28125-2.125c0-.546875-.46875-.890625-1.046875-.890625-.5625 0-.953125.40625-.953125.8125 0 .234375.203125.265625.25.265625.109375 0 .234375-.078125.234375-.25 0-.078125-.03125-.234375-.265625-.234375.140625-.328125.453125-.421875.65625-.421875.453125 0 .6875.359375.6875.71875 0 .390625-.28125.703125-.421875.875L.328125-.171875C.28125-.140625.28125-.125.28125 0h1.875zm0 0" class="I"/></symbol><symbol id="E" class="H"><path d="M2.140625 1.546875c0-.015625 0-.03125-.109375-.140625C1.21875.59375 1.015625-.625 1.015625-1.625c0-1.125.25-2.25 1.046875-3.046875.078125-.078125.078125-.09375.078125-.109375 0-.046875-.03125-.078125-.0625-.078125-.0625 0-.65625.453125-1.03125 1.265625C.71875-2.875.640625-2.15625.640625-1.625c0 .515625.078125 1.296875.421875 2.03125.390625.796875.953125 1.21875 1.015625 1.21875.03125 0 .0625-.03125.0625-.078125zm0 0" class="I"/></symbol><symbol id="F" class="H"><path d="M1.875-1.625c0-.5-.078125-1.28125-.4375-2.015625-.390625-.796875-.9375-1.21875-1-1.21875-.046875 0-.0625.03125-.0625.078125 0 .015625 0 .03125.109375.140625C1.125-4 1.5-2.96875 1.5-1.625 1.5-.515625 1.25.625.453125 1.4375.375 1.515625.375 1.53125.375 1.546875c0 .046875.015625.078125.0625.078125.0625 0 .640625-.453125 1.03125-1.265625.328125-.71875.40625-1.4375.40625-1.984375zm0 0" class="I"/></symbol><symbol id="G" class="H"><path d="M4.4375-2.109375c.109375 0 .21875 0 .21875-.140625 0-.125-.109375-.125-.203125-.125h-3.875c-.09375 0-.21875 0-.21875.125 0 .140625.125.140625.21875.140625zm.015625 1.25c.09375 0 .203125 0 .203125-.125 0-.140625-.109375-.140625-.21875-.140625H.578125c-.09375 0-.21875 0-.21875.140625 0 .125.125.125.21875.125zm0 0" class="I"/></symbol><symbol id="H" class="H"><path d="M3.328125-3.015625c.0625-.25.296875-1.171875.984375-1.171875.046875 0 .296875 0 .5.125-.28125.0625-.46875.296875-.46875.546875 0 .15625.109375.34375.375.34375.21875 0 .53125-.171875.53125-.578125 0-.515625-.578125-.65625-.921875-.65625-.578125 0-.921875.53125-1.046875.75-.25-.65625-.78125-.75-1.078125-.75C1.171875-4.40625.59375-3.125.59375-2.875c0 .109375.109375.109375.125.109375.078125 0 .109375-.03125.125-.109375.34375-1.0625 1-1.3125 1.34375-1.3125.1875 0 .53125.09375.53125.671875 0 .3125-.171875.96875-.53125 2.375-.15625.609375-.515625 1.03125-.953125 1.03125-.0625 0-.28125 0-.5-.125.25-.0625.46875-.265625.46875-.546875 0-.265625-.21875-.34375-.359375-.34375-.3125 0-.546875.25-.546875.578125 0 .453125.484375.65625.921875.65625.671875 0 1.03125-.703125 1.046875-.75.125.359375.484375.75 1.078125.75 1.03125 0 1.59375-1.28125 1.59375-1.53125 0-.109375-.078125-.109375-.109375-.109375-.09375 0-.109375.046875-.140625.109375-.328125 1.078125-1 1.3125-1.3125 1.3125-.390625 0-.546875-.3125-.546875-.65625 0-.21875.046875-.4375.15625-.875zm0 0" class="I"/></symbol><symbol id="I" class="H"><path d="M4.84375-3.796875c.046875-.140625.046875-.15625.046875-.234375 0-.171875-.140625-.265625-.296875-.265625-.09375 0-.25.0625-.34375.203125l-.140625.546875c-.078125.25-.140625.53125-.203125.796875L3.453125-.953125c-.03125.140625-.46875.84375-1.125.84375-.5 0-.609375-.4375-.609375-.8125 0-.453125.171875-1.078125.5-1.953125.15625-.40625.203125-.515625.203125-.71875 0-.4375-.3125-.8125-.8125-.8125-.953125 0-1.3125 1.453125-1.3125 1.53125 0 .109375.09375.109375.109375.109375.109375 0 .109375-.03125.15625-.1875.28125-.9375.671875-1.234375 1.015625-1.234375.078125 0 .25 0 .25.3125 0 .25-.109375.515625-.171875.703125-.40625 1.0625-.578125 1.625-.578125 2.09375 0 .890625.625 1.1875 1.21875 1.1875.390625 0 .71875-.171875 1-.453125-.125.515625-.25 1.015625-.640625 1.546875-.265625.328125-.640625.625-1.09375.625-.140625 0-.59375-.03125-.765625-.421875.15625 0 .296875 0 .421875-.125.109375-.078125.203125-.21875.203125-.40625 0-.3125-.265625-.34375-.359375-.34375C.828125.53125.5.6875.5 1.171875c0 .5.4375.875 1.0625.875 1.015625 0 2.046875-.90625 2.328125-2.03125zm0 0" class="I"/></symbol><path id="J" d="M120.945313 79.789063c0-.550782-.445313-.996094-.996094-.996094s-.996094.445312-.996094.996094.445313.996093.996094.996093.996094-.445312.996094-.996093zm0 0"/><path id="K" d="M137.953125 79.789063c0-.550782-.445312-.996094-.996094-.996094s-.996093.445312-.996093.996094.445312.996093.996093.996093.996094-.445312.996094-.996093zm0 0"/><path id="L" d="M50.078125 118.058594c0-.550781-.445312-.996094-.996094-.996094s-.996093.445313-.996093.996094.445312.996094.996093.996094.996094-.445313.996094-.996094zm0 0"/></defs><path d="M119.949219 79.7890625V51.441406" class="B C D E F"/><g class="G"><use xlink:href="#A" x="116.645" y="84.866"/><use xlink:href="#C" x="120.3461" y="85.83775"/></g><path d="M136.957031 79.7890625V51.441406" class="B C D E F"/><g class="G"><use xlink:href="#A" x="133.653" y="84.866"/><use xlink:href="#D" x="137.3541" y="85.83775"/></g><path d="M49.08203125 51.441406H141.210938" class="B C D E F"/><g class="G"><use xlink:href="#B" x="7.14" y="53.063"/><use xlink:href="#E" x="11.0075" y="53.063"/><use xlink:href="#A" x="13.5256" y="53.063"/><use xlink:href="#C" x="17.2267" y="54.0341"/><use xlink:href="#F" x="20.13155" y="53.063"/><use xlink:href="#G" x="24.450188" y="53.063"/><use xlink:href="#B" x="31.28425" y="53.063"/><use xlink:href="#E" x="35.15175" y="53.063"/><use xlink:href="#A" x="37.66985" y="53.063"/><use xlink:href="#D" x="41.37095" y="54.0341"/><use xlink:href="#F" x="44.27645" y="53.063"/></g><path d="M56.167969 79.7890625v38.2695315" class="B C D E F"/><g class="G"><use xlink:href="#A" x="52.865" y="76.531"/><use xlink:href="#C" x="56.5661" y="77.50275"/></g><path d="M56.167969 118.058594h-7.08593775" class="B C D E F"/><g class="G"><use xlink:href="#B" x="31.284" y="119.677"/><use xlink:href="#E" x="35.1515" y="119.677"/><use xlink:href="#A" x="37.6696" y="119.677"/><use xlink:href="#C" x="41.3707" y="120.6481"/><use xlink:href="#F" x="44.2762" y="119.677"/></g><path d="M66.089844 79.7890625V96.796875" class="B C D E F"/><g class="G"><use xlink:href="#A" x="62.787" y="76.531"/><use xlink:href="#D" x="66.4881" y="77.5021"/></g><path d="M66.089844 96.796875H49.08203125" class="B C D E F"/><g class="G"><use xlink:href="#B" x="31.284" y="98.417"/><use xlink:href="#E" x="35.1515" y="98.417"/><use xlink:href="#A" x="37.6696" y="98.417"/><use xlink:href="#D" x="41.3707" y="99.38875"/><use xlink:href="#F" x="44.2762" y="98.417"/></g><path d="M166.722656 79.7890625V31.601562" class="B C D E F"/><g class="G"><use xlink:href="#A" x="163.416" y="84.866"/><use xlink:href="#C" x="167.1171" y="85.83775"/></g><path d="M166.722656 31.601562H49.08203125" class="B C D E F"/><g class="G"><use xlink:href="#B" x="31.284" y="33.22"/><use xlink:href="#E" x="35.1515" y="33.22"/><use xlink:href="#A" x="37.6696" y="33.22"/><use xlink:href="#C" x="41.3707" y="34.19175"/><use xlink:href="#F" x="44.2762" y="33.22"/></g><path d="M176.644531 79.7890625V23.097656" class="B C D E F"/><g class="G"><use xlink:href="#A" x="173.338" y="84.866"/><use xlink:href="#D" x="177.0391" y="85.83775"/></g><path d="M176.644531 23.097656H49.08203125" class="B C D E F"/><g class="G"><use xlink:href="#B" x="31.284" y="24.716"/><use xlink:href="#E" x="35.1515" y="24.716"/><use xlink:href="#A" x="37.6696" y="24.716"/><use xlink:href="#D" x="41.3707" y="25.68775"/><use xlink:href="#F" x="44.2762" y="24.716"/></g><g class="B C D J"><path d="M20.734375 79.7890625h169.683594"/><path d="M188.542969 77.398437c.378906 1.433594 1.222656 2.113282 2.0742185 2.3906255-.8515625.2812495-1.6953125.9570315-2.0742185 2.3906245" class="K L"/></g><use xlink:href="#H" x="185.975" y="90.09" class="M"/><g class="B C D J"><path d="M49.08203125 150.65625V9.320312"/><path d="M-2.073072 2.390594C-1.694166.957-.850416.277313.00114625-.00003125-.850416-.277375-1.694166-.957062-2.073072-2.390656" transform="matrix(0 -1 -1 0 49.08200000000001 9.12224)" class="K L"/></g><use xlink:href="#I" x="37.83" y="12.591" class="M"/><path d="M34.910156 136.484375C75.5625 121.6875 62.511719 51.441406 105.777344 51.441406h42.519531c15.695313 0 13.597656-22.976562 28.347656-28.34375" stroke-width="1.19553" stroke="rgb(0%,62.353516%,95.684814%)" class="B C"/><path d="M36.902344 136.484375c0-1.101562-.894531-1.992187-1.992188-1.992187s-1.992187.890625-1.992187 1.992187.890625 1.992188 1.992187 1.992188 1.992188-.890625 1.992188-1.992188zM178.636719 23.097656c0-1.101562-.894531-1.992187-1.992188-1.992187s-1.996093.890625-1.996093 1.992187.894531 1.992188 1.996093 1.992188 1.992188-.894531 1.992188-1.992188zm0 0" fill="rgb(0%,62.353516%,95.684814%)"/><g fill="rgb(50%,50%,50%)"><path d="M50.078125 51.441406c0-.546875-.445312-.996093-.996094-.996093s-.996093.449218-.996093.996093.445312 1 .996093 1 .996094-.449218.996094-1zm0 0"/><use xlink:href="#J"/><use xlink:href="#K"/><use xlink:href="#J" x="-63.78125"/><use xlink:href="#J" x="-53.859375"/><use xlink:href="#L"/><use xlink:href="#L" y="-21.261719"/><path d="M167.71875 79.789063c0-.550782-.449219-.996094-.996094-.996094s-.996093.445312-.996093.996094.445312.996093.996093.996093.996094-.445312.996094-.996093zm9.921875 0c0-.550782-.449219-.996094-.996094-.996094s-1 .445312-1 .996094.449219.996093 1 .996093.996094-.445312.996094-.996093zm0 0"/><use xlink:href="#K" x="-87.875" y="-48.1875"/><path d="M50.078125 23.097656c0-.550781-.445312-.996093-.996094-.996093s-.996093.445312-.996093.996093.445312.996094.996093.996094.996094-.445312.996094-.996094zm0 0"/></g></svg>