<svg xmlns="http://www.w3.org/2000/svg" width="800" viewBox="0 0 187.22 140.15">
  <path d="m92.85 1.59-.24.09a9.4 9.4 0 0 1-1.77.31h-.34v-.83h.34a5.54 5.54 0 0 0 2.58-.7c.19-.13.36-.27.51-.4.02-.04.1-.05.22-.05.11 0 .21.04.31.11v5.41l.02 5.43c.08.08.16.14.22.16s.21.05.43.07.6.04 1.12.04h.47v.83h-.2c-.25-.04-1.21-.05-2.88-.05s-2.59.02-2.84.05h-.22v-.83h1.16c.19 0 .34 0 .45-.02l.29-.05.14-.04.11-.09c.06-.06.1-.08.11-.07V1.59Zm-18.1 25.34-.24.09a9.4 9.4 0 0 1-1.77.31h-.34v-.83h.34a5.54 5.54 0 0 0 2.58-.7c.19-.13.36-.27.51-.4.02-.04.1-.05.22-.05.11 0 .21.04.31.11v5.41l.02 5.43c.08.08.16.14.22.16s.21.05.43.07.6.04 1.12.04h.47v.83h-.2c-.25-.04-1.21-.05-2.88-.05s-2.59.02-2.84.05h-.22v-.83h1.16c.19 0 .34 0 .45-.02l.29-.05.14-.04.11-.09c.06-.06.1-.08.11-.07v-9.36Zm36.2 0-.24.09a9.4 9.4 0 0 1-1.77.31h-.34v-.83h.34a5.54 5.54 0 0 0 2.58-.7c.19-.13.36-.27.51-.4.02-.04.1-.05.22-.05.11 0 .21.04.31.11v5.41l.02 5.43c.08.08.16.14.22.16s.21.05.43.07.6.04 1.12.04h.47v.83h-.2c-.25-.04-1.21-.05-2.88-.05s-2.59.02-2.84.05h-.22v-.83h1.16c.19 0 .34 0 .45-.02l.29-.05.14-.04.11-.09c.06-.06.1-.08.11-.07v-9.36Zm-54.3 25.34-.24.09a9.4 9.4 0 0 1-1.77.31h-.34v-.83h.34a5.54 5.54 0 0 0 2.58-.7c.19-.13.36-.27.51-.4.02-.04.1-.05.22-.05.11 0 .21.04.31.11v5.41l.02 5.43c.08.08.16.14.22.16s.21.05.43.07.6.04 1.12.04h.47v.83h-.2c-.25-.04-1.21-.05-2.88-.05s-2.59.02-2.84.05h-.22v-.83h1.16c.19 0 .34 0 .45-.02l.29-.05.14-.04.11-.09c.06-.06.1-.08.11-.07v-9.36Zm34.32 2.7a.98.98 0 0 1-.78-.33 1.17 1.17 0 0 1-.29-.8 3.27 3.27 0 0 1 3.35-3.17c1.1 0 2.02.34 2.75 1.01a3.46 3.46 0 0 1 .76 4.1c-.24.47-.53.88-.87 1.23s-.82.8-1.45 1.34c-.43.37-1.04.93-1.81 1.67l-1.07 1.01 1.38.02c1.89 0 2.9-.03 3.02-.09.08-.02.23-.56.43-1.61v-.05h.72v.05L96.87 61a14.48 14.48 0 0 1-.27 1.67v.05h-6.71v-.56c0-.08.04-.17.11-.27s.25-.31.54-.63l.9-1.01.62-.67.62-.67.52-.6c.24-.28.41-.48.51-.62l.42-.54c.18-.23.31-.42.38-.58s.16-.33.27-.52.19-.39.24-.58l.13-.54c.04-.17.05-.37.05-.6 0-.76-.21-1.42-.62-1.97s-1-.83-1.76-.83c-.4 0-.75.1-1.05.31s-.51.4-.63.6-.18.31-.18.34c0 .01.03.02.09.02.22 0 .44.08.67.25s.34.45.34.83c0 .3-.1.56-.29.76s-.46.31-.81.33Zm38.08-2.7-.24.09a9.4 9.4 0 0 1-1.77.31h-.34v-.83h.34a5.54 5.54 0 0 0 2.58-.7c.19-.13.36-.27.51-.4.02-.04.1-.05.22-.05.11 0 .21.04.31.11v5.41l.02 5.43c.08.08.16.14.22.16s.21.05.43.07.6.04 1.12.04h.47v.83h-.2c-.25-.04-1.21-.05-2.88-.05s-2.59.02-2.84.05h-.22v-.83h1.16c.19 0 .34 0 .45-.02l.29-.05.14-.04.11-.09c.06-.06.1-.08.11-.07v-9.36Zm-90.5 25.34-.24.09a9.4 9.4 0 0 1-1.77.31h-.34v-.83h.34a5.54 5.54 0 0 0 2.58-.7c.19-.13.36-.27.51-.4.02-.04.1-.05.22-.05.11 0 .21.04.31.11v5.41l.02 5.43c.08.08.16.14.22.16s.21.05.43.07.6.04 1.12.04h.47v.83h-.2c-.25-.04-1.21-.05-2.88-.05s-2.59.02-2.84.05h-.22v-.83h1.16c.19 0 .34 0 .45-.02l.29-.05.14-.04.11-.09c.06-.06.1-.08.11-.07v-9.36Zm34.64 2.08c-.33 0-.58-.1-.76-.31s-.28-.47-.29-.8c0-.66.29-1.25.87-1.77s1.28-.78 2.1-.78c.42 0 .69 0 .8.02.89.14 1.57.46 2.05.96s.71 1.03.72 1.61a3.51 3.51 0 0 1-2.32 3.12l-.05.04s.05.03.16.05.28.08.52.16.47.21.69.38c.99.64 1.48 1.48 1.48 2.53 0 .95-.37 1.79-1.12 2.5a3.98 3.98 0 0 1-2.84 1.07c-.97 0-1.8-.26-2.5-.78a2.37 2.37 0 0 1-1.05-1.97c0-.34.11-.61.33-.81s.49-.31.81-.33c.34 0 .62.11.83.33s.33.49.33.81c0 .13-.02.25-.05.36s-.08.21-.13.29-.11.16-.2.22l-.22.14a.67.67 0 0 1-.18.07.38.38 0 0 0-.14.05l-.07.02c.62.54 1.36.81 2.24.81.66 0 1.16-.32 1.5-.96.21-.4.31-1.01.31-1.83v-.36c0-1.15-.39-1.91-1.16-2.3a4.15 4.15 0 0 0-1.1-.13l-.76-.02-.05-.04s-.04-.13-.04-.29c0-.22.05-.33.14-.33.34 0 .69-.03 1.05-.09.41-.06.78-.31 1.12-.76s.51-1.12.51-2.03v-.14c0-.69-.21-1.16-.63-1.43a1.56 1.56 0 0 0-.85-.25c-.39 0-.74.07-1.07.2s-.56.27-.69.42l-.2.22h.05l.14.04c.06.02.12.04.18.09s.13.09.22.13.14.1.18.2.08.19.14.27.08.21.05.36c0 .27-.08.5-.25.71s-.44.31-.81.33Zm36.2 0c-.33 0-.58-.1-.76-.31s-.28-.47-.29-.8c0-.66.29-1.25.87-1.77s1.28-.78 2.1-.78c.42 0 .69 0 .8.02.89.14 1.57.46 2.05.96s.71 1.03.72 1.61a3.51 3.51 0 0 1-2.32 3.12l-.05.04s.05.03.16.05.28.08.52.16.47.21.69.38c.99.64 1.48 1.48 1.48 2.53 0 .95-.37 1.79-1.12 2.5a3.98 3.98 0 0 1-2.84 1.07c-.97 0-1.8-.26-2.5-.78a2.37 2.37 0 0 1-1.05-1.97c0-.34.11-.61.33-.81s.49-.31.81-.33c.34 0 .62.11.83.33s.33.49.33.81c0 .13-.02.25-.05.36s-.08.21-.13.29-.11.16-.2.22l-.22.14a.67.67 0 0 1-.18.07.38.38 0 0 0-.14.05l-.07.02c.62.54 1.36.81 2.24.81.66 0 1.16-.32 1.5-.96.21-.4.31-1.01.31-1.83v-.36c0-1.15-.39-1.91-1.16-2.3a4.15 4.15 0 0 0-1.1-.13l-.76-.02-.05-.04s-.04-.13-.04-.29c0-.22.05-.33.14-.33.34 0 .69-.03 1.05-.09.41-.06.78-.31 1.12-.76s.51-1.12.51-2.03v-.14c0-.69-.21-1.16-.63-1.43a1.56 1.56 0 0 0-.85-.25c-.39 0-.74.07-1.07.2s-.56.27-.69.42l-.2.22h.05l.14.04c.06.02.12.04.18.09s.13.09.22.13.14.1.18.2.08.19.14.27.08.21.05.36c0 .27-.08.5-.25.71s-.44.31-.81.33Zm37.76-2.08-.24.09a9.4 9.4 0 0 1-1.77.31h-.34v-.83h.34a5.54 5.54 0 0 0 2.58-.7c.19-.13.36-.27.51-.4.02-.04.1-.05.22-.05.11 0 .21.04.31.11v5.41l.02 5.43c.08.08.16.14.22.16s.21.05.43.07.6.04 1.12.04h.47v.83h-.2c-.25-.04-1.21-.05-2.88-.05s-2.59.02-2.84.05h-.22v-.83h1.16c.19 0 .34 0 .45-.02l.29-.05.14-.04.11-.09c.06-.06.1-.08.11-.07v-9.36Zm-126.7 25.34-.24.09a9.4 9.4 0 0 1-1.77.31h-.34v-.83h.34a5.54 5.54 0 0 0 2.58-.7c.19-.13.36-.27.51-.4.02-.04.1-.05.22-.05.11 0 .21.04.31.11v5.41l.02 5.43c.08.08.16.14.22.16s.21.05.43.07.6.04 1.12.04h.47v.83h-.2c-.25-.04-1.21-.05-2.88-.05s-2.59.02-2.84.05h-.22v-.83h1.16c.19 0 .34 0 .45-.02l.29-.05.14-.04.11-.09c.06-.06.1-.08.11-.07v-9.36Zm40.71 10.46c-.22-.04-1-.05-2.33-.05s-2.21.02-2.43.05h-.16v-.83h1.05c.08 0 .19-.01.31-.04s.21-.05.25-.09.09-.08.13-.14c.01-.02.02-.35.02-.98v-.9h-4.69v-.83l2.73-4.18c1.85-2.8 2.78-4.21 2.81-4.22.02-.02.15-.04.38-.04h.33l.11.11v8.33h1.67v.83h-1.67v1.79c0 .08.04.16.11.22.1.08.44.13 1.03.14h.52v.83h-.16Zm-3.06-3.82v-6.05l-3.96 6.03 1.97.02h1.99Zm32.66-1.84c0-1.97.49-3.52 1.47-4.67s2.06-1.72 3.26-1.72c.83 0 1.43.22 1.79.65s.54.92.54 1.45c0 .3-.08.54-.25.72s-.4.27-.71.27a.96.96 0 0 1-.69-.25.92.92 0 0 1-.27-.71c0-.53.28-.85.85-.96a1.66 1.66 0 0 0-1.12-.45c-.86 0-1.56.36-2.12 1.09-.57.8-.85 2.02-.85 3.66l.02.07a.72.72 0 0 0 .14-.24 2.26 2.26 0 0 1 1.94-1.09h.07c.56 0 1.04.11 1.47.34a4.5 4.5 0 0 1 1.58 1.75c.25.59.38 1.24.38 1.94v.33a4.14 4.14 0 0 1-1.25 2.86 3.19 3.19 0 0 1-2.43 1.01c-.34 0-.66-.05-.98-.14-.31-.1-.65-.28-1.01-.54a3.34 3.34 0 0 1-.92-1.07c-.25-.45-.47-1.03-.65-1.76s-.27-1.57-.25-2.55Zm3.89-1.52c-.36 0-.68.1-.94.31s-.47.48-.62.81-.25.68-.31 1.03-.1.72-.11 1.12c0 1 .07 1.72.22 2.15s.37.78.69 1.05c.29.22.61.33.96.33a1.6 1.6 0 0 0 1.41-.69c.16-.22.27-.49.33-.81s.09-.96.09-1.9-.03-1.61-.09-1.94-.17-.6-.33-.81a1.56 1.56 0 0 0-1.3-.65Zm38.91 7.18c-.22-.04-1-.05-2.33-.05s-2.21.02-2.43.05h-.16v-.83h1.05c.08 0 .19-.01.31-.04s.21-.05.25-.09.09-.08.13-.14c.01-.02.02-.35.02-.98v-.9h-4.69v-.83l2.73-4.18c1.85-2.8 2.78-4.21 2.81-4.22.02-.02.15-.04.38-.04h.33l.11.11v8.33h1.67v.83h-1.67v1.79c0 .08.04.16.11.22.1.08.44.13 1.03.14h.52v.83h-.16Zm-3.06-3.82v-6.05l-3.96 6.03 1.97.02h1.99Zm34.75-6.64-.24.09a9.4 9.4 0 0 1-1.77.31h-.34v-.83h.34a5.54 5.54 0 0 0 2.58-.7c.19-.13.36-.27.51-.4.02-.04.1-.05.22-.05.11 0 .21.04.31.11v5.41l.02 5.43c.08.08.16.14.22.16s.21.05.43.07.6.04 1.12.04h.47v.83h-.2c-.25-.04-1.21-.05-2.88-.05s-2.59.02-2.84.05h-.22v-.83h1.16c.19 0 .34 0 .45-.02l.29-.05.14-.04.11-.09c.06-.06.1-.08.11-.07v-9.36Z"/>
  <path fill="#0f82ff" d="m2.35 129.29-.24.09a9.4 9.4 0 0 1-1.77.31H0v-.83h.34a5.54 5.54 0 0 0 2.58-.7c.19-.13.36-.27.51-.4.02-.04.1-.05.22-.05.11 0 .21.04.31.11v5.41l.02 5.43c.08.08.16.14.22.16s.21.05.43.07.6.04 1.12.04h.47v.83h-.2c-.25-.04-1.21-.05-2.88-.05s-2.59.02-2.84.05H.09v-.83h1.16c.19 0 .34 0 .45-.02l.29-.05.14-.04.11-.09c.06-.06.1-.08.11-.07v-9.36Zm35.32 7.62c0 .29-.1.53-.29.72s-.43.29-.71.29h-.13c.56.95 1.29 1.43 2.21 1.43.84 0 1.46-.36 1.85-1.09.23-.4.34-1.17.34-2.32 0-1.24-.16-2.08-.49-2.52-.31-.4-.66-.6-1.05-.6h-.11c-.94 0-1.65.41-2.14 1.23-.05.08-.09.13-.13.14l-.27.04c-.21 0-.32-.04-.34-.11-.02-.05-.04-1.1-.04-3.17v-2.33c0-.6.03-.9.09-.9l.07-.04.38.14a6.72 6.72 0 0 0 2.36.43 6.1 6.1 0 0 0 2.46-.51c.1-.05.17-.07.24-.07.1 0 .14.11.14.33v.24a4.67 4.67 0 0 1-4.72 1.65l-.18-.04v3.11l.54-.4c.13-.1.35-.19.65-.29s.61-.14.92-.14c.98 0 1.8.39 2.48 1.18s1.01 1.71 1.01 2.79-.39 2.06-1.16 2.84a3.87 3.87 0 0 1-2.82 1.19 3.21 3.21 0 0 1-3.24-3.19c0-.29.07-.52.2-.69.13-.17.27-.28.42-.33s.28-.07.42-.07c.3 0 .55.1.74.31s.29.45.29.72Zm34.08-7.62-.24.09a9.4 9.4 0 0 1-1.77.31h-.34v-.83h.34a5.54 5.54 0 0 0 2.58-.7c.19-.13.36-.27.51-.4.02-.04.1-.05.22-.05.11 0 .21.04.31.11v5.41l.02 5.43c.08.08.16.14.22.16s.21.05.43.07.6.04 1.12.04h.47v.83h-.2c-.25-.04-1.21-.05-2.88-.05s-2.59.02-2.84.05h-.22v-.83h1.16c.19 0 .34 0 .45-.02l.29-.05.14-.04.11-.09c.06-.06.1-.08.11-.07v-9.36Zm6.93-.13a3.2 3.2 0 0 1 2.77-1.47 3.36 3.36 0 0 1 3.15 2.14c.45 1 .67 2.38.67 4.13 0 1.87-.26 3.3-.78 4.29-.24.51-.57.91-1 1.21a3.26 3.26 0 0 1-2.02.69c-.31 0-.63-.04-.94-.11s-.68-.27-1.1-.58a3.39 3.39 0 0 1-1-1.21c-.52-.99-.78-2.42-.78-4.29 0-2.1.34-3.7 1.03-4.8Zm4.07-.22c-.36-.39-.79-.58-1.29-.58s-.94.19-1.3.58c-.3.31-.5.75-.6 1.3-.1.56-.14 1.71-.14 3.48 0 1.91.05 3.16.14 3.76.1.6.31 1.08.65 1.43.34.36.75.54 1.25.54s.89-.18 1.23-.54c.35-.36.57-.87.65-1.52s.13-1.88.14-3.67c0-1.75-.05-2.9-.14-3.46-.1-.56-.3-1-.6-1.32Zm25.2.35-.24.09a9.4 9.4 0 0 1-1.77.31h-.34v-.83h.34a5.54 5.54 0 0 0 2.58-.7c.19-.13.36-.27.51-.4.02-.04.1-.05.22-.05.11 0 .21.04.31.11v5.41l.02 5.43c.08.08.16.14.22.16s.21.05.43.07.6.04 1.12.04h.47v.83h-.2c-.25-.04-1.21-.05-2.88-.05s-2.59.02-2.84.05h-.22v-.83h1.16c.19 0 .34 0 .45-.02l.29-.05.14-.04.11-.09c.06-.06.1-.08.11-.07v-9.36Zm6.93-.13a3.2 3.2 0 0 1 2.77-1.47 3.36 3.36 0 0 1 3.15 2.14c.45 1 .67 2.38.67 4.13 0 1.87-.26 3.3-.78 4.29-.24.51-.57.91-1 1.21a3.26 3.26 0 0 1-2.02.69c-.31 0-.63-.04-.94-.11s-.68-.27-1.1-.58a3.39 3.39 0 0 1-1-1.21c-.52-.99-.78-2.42-.78-4.29 0-2.1.34-3.7 1.03-4.8Zm4.07-.22c-.36-.39-.79-.58-1.29-.58s-.94.19-1.3.58c-.3.31-.5.75-.6 1.3-.1.56-.14 1.71-.14 3.48 0 1.91.05 3.16.14 3.76.1.6.31 1.08.65 1.43.34.36.75.54 1.25.54s.89-.18 1.23-.54c.35-.36.57-.87.65-1.52s.13-1.88.14-3.67c0-1.75-.05-2.9-.14-3.46-.1-.56-.3-1-.6-1.32Zm27.31 7.97c0 .29-.1.53-.29.72s-.43.29-.71.29h-.13c.56.95 1.29 1.43 2.21 1.43.84 0 1.46-.36 1.85-1.09.23-.4.34-1.17.34-2.32 0-1.24-.16-2.08-.49-2.52-.31-.4-.66-.6-1.05-.6h-.11c-.94 0-1.65.41-2.14 1.23-.05.08-.09.13-.13.14l-.27.04c-.21 0-.32-.04-.34-.11-.02-.05-.04-1.1-.04-3.17v-2.33c0-.6.03-.9.09-.9l.07-.04.38.14a6.72 6.72 0 0 0 2.36.43 6.1 6.1 0 0 0 2.46-.51c.1-.05.17-.07.24-.07.1 0 .14.11.14.33v.24a4.67 4.67 0 0 1-4.72 1.65l-.18-.04v3.11l.54-.4c.13-.1.35-.19.65-.29s.61-.14.92-.14c.98 0 1.8.39 2.48 1.18s1.01 1.71 1.01 2.79-.39 2.06-1.16 2.84a3.87 3.87 0 0 1-2.82 1.19 3.21 3.21 0 0 1-3.24-3.19c0-.29.07-.52.2-.69.13-.17.27-.28.42-.33s.28-.07.42-.07c.3 0 .55.1.74.31s.29.45.29.72Zm37.09-7.62-.24.09a9.4 9.4 0 0 1-1.77.31H181v-.83h.34a5.54 5.54 0 0 0 2.58-.7c.19-.13.36-.27.51-.4.02-.04.1-.05.22-.05.11 0 .21.04.31.11v5.41l.02 5.43c.08.08.16.14.22.16s.21.05.43.07.6.04 1.12.04h.47v.83h-.2c-.25-.04-1.21-.05-2.88-.05s-2.59.02-2.84.05h-.22v-.83h1.16c.19 0 .34 0 .45-.02l.29-.05.14-.04.11-.09c.06-.06.1-.08.11-.07v-9.36Z"/>
  <path fill="none" stroke="#7d7d7d" stroke-miterlimit="10" d="m25.92 115.96 6.18 6.26"/>
  <path fill="#7d7d7d" d="m29.81 123.45 4.81 1.32-1.26-4.82-3.55 3.5z"/>
  <path fill="none" stroke="#7d7d7d" stroke-miterlimit="10" d="m53.14 115.96-6.18 6.26"/>
  <path fill="#7d7d7d" d="m45.7 119.95-1.26 4.82 4.81-1.32-3.55-3.5z"/>
  <path fill="none" stroke="#7d7d7d" stroke-miterlimit="10" d="m134.68 115.96 6.18 6.26"/>
  <path fill="#7d7d7d" d="m138.57 123.45 4.81 1.32-1.26-4.82-3.55 3.5z"/>
  <path fill="none" stroke="#7d7d7d" stroke-miterlimit="10" d="m161.9 115.96-6.18 6.26"/>
  <path fill="#7d7d7d" d="m154.46 119.95-1.26 4.82 4.81-1.32-3.55-3.5z"/>
  <path fill="none" stroke="#7d7d7d" stroke-miterlimit="10" d="m99.32 115.96 6.17 6.26"/>
  <path fill="#7d7d7d" d="m103.21 123.45 4.8 1.32-1.25-4.82-3.55 3.5z"/>
  <path fill="none" stroke="#7d7d7d" stroke-miterlimit="10" d="m126.53 115.96-6.17 6.26"/>
  <path fill="#7d7d7d" d="m119.1 119.95-1.26 4.82 4.81-1.32-3.55-3.5z"/>
  <path fill="none" stroke="#7d7d7d" stroke-miterlimit="10" d="m63.46 115.96 6.17 6.26"/>
  <path fill="#7d7d7d" d="m67.35 123.45 4.8 1.32-1.25-4.82-3.55 3.5z"/>
  <path fill="none" stroke="#7d7d7d" stroke-miterlimit="10" d="m90.67 115.96-6.17 6.26"/>
  <path fill="#7d7d7d" d="m83.24 119.95-1.26 4.82 4.81-1.32-3.55-3.5z"/>
</svg>
