<?xml version="1.0" encoding="UTF-8"?>
<svg xmlns="http://www.w3.org/2000/svg" width="800" viewBox="0 0 496.8 138">
  <defs>
    <style>
      .cls-1 {
        opacity: .4;
      }

      .cls-1, .cls-2 {
        fill: #759fcc;
      }
    </style>
  </defs>
  <g id="_1_of_10" data-name="1 of 10">
    <path class="cls-1" d="M134.26,46.6c-4.55-13.26-13.01-24.7-24.02-32.93l-38.74,53.32,62.77-20.39Z"/>
    <path class="cls-2" d="M70.38,66.19L109.11,12.88C98.16,5.03,84.82,.32,70.38,.03V66.19Z"/>
    <path class="cls-1" d="M71.5,69.62l39.38,54.2c11.04-8.45,19.45-20.15,23.81-33.67l-63.19-20.53Z"/>
    <path class="cls-1" d="M69,138V70.43L29.14,125.3c11.26,7.99,25.01,12.7,39.86,12.7Z"/>
    <path class="cls-1" d="M135.09,88.83c1.88-6.28,2.91-12.94,2.91-19.83,0-7.36-1.16-14.44-3.3-21.09l-62.78,20.4,63.17,20.52Z"/>
    <path class="cls-1" d="M69,66.19V0c-14.57,0-28.07,4.52-39.2,12.23l39.2,53.96Z"/>
    <path class="cls-1" d="M3.43,47.51c-2.22,6.77-3.43,13.99-3.43,21.49,0,7.05,1.06,13.84,3.02,20.25l64.43-20.94L3.43,47.51Z"/>
    <path class="cls-1" d="M109.77,124.65l-39.39-54.22v67.53c14.72-.29,28.32-5.18,39.39-13.31Z"/>
    <path class="cls-1" d="M67.88,69.62L3.45,90.56c4.51,13.72,13.19,25.54,24.56,33.95l39.87-54.88Z"/>
    <path class="cls-1" d="M67.88,67L28.67,13.03C17.33,21.21,8.58,32.75,3.87,46.2l64.01,20.8Z"/>
  </g>
  <g id="_2_of_10" data-name="2 of 10">
    <path class="cls-2" d="M313.66,46.6c-4.55-13.26-13.01-24.7-24.02-32.93l-38.74,53.32,62.77-20.39Z"/>
    <path class="cls-1" d="M249.78,66.19l38.73-53.31C277.56,5.03,264.22,.32,249.78,.03V66.19Z"/>
    <path class="cls-1" d="M250.9,69.62l39.38,54.2c11.04-8.45,19.45-20.15,23.81-33.67l-63.19-20.53Z"/>
    <path class="cls-1" d="M248.4,138V70.43l-39.86,54.87c11.26,7.99,25.01,12.7,39.86,12.7Z"/>
    <path class="cls-2" d="M314.49,88.83c1.88-6.28,2.91-12.94,2.91-19.83,0-7.36-1.16-14.44-3.3-21.09l-62.78,20.4,63.17,20.52Z"/>
    <path class="cls-1" d="M248.4,66.19V0c-14.57,0-28.07,4.52-39.2,12.23l39.2,53.96Z"/>
    <path class="cls-1" d="M182.83,47.51c-2.22,6.77-3.43,13.99-3.43,21.49,0,7.05,1.06,13.84,3.02,20.25l64.43-20.94-64.03-20.8Z"/>
    <path class="cls-1" d="M289.17,124.65l-39.39-54.22v67.53c14.72-.29,28.32-5.18,39.39-13.31Z"/>
    <path class="cls-1" d="M247.28,69.62l-64.43,20.93c4.51,13.72,13.19,25.54,24.56,33.95l39.87-54.88Z"/>
    <path class="cls-1" d="M247.28,67L208.07,13.03c-11.34,8.19-20.09,19.72-24.8,33.17l64.01,20.8Z"/>
  </g>
  <g id="_3_of_10" data-name="3 of 10">
    <path class="cls-1" d="M493.06,46.6c-4.55-13.26-13.01-24.7-24.02-32.93l-38.74,53.32,62.77-20.39Z"/>
    <path class="cls-1" d="M429.18,66.19l38.73-53.31C456.96,5.03,443.62,.32,429.18,.03V66.19Z"/>
    <path class="cls-2" d="M430.3,69.62l39.38,54.2c11.04-8.45,19.45-20.15,23.81-33.67l-63.19-20.53Z"/>
    <path class="cls-2" d="M427.8,138V70.43l-39.86,54.87c11.26,7.99,25.01,12.7,39.86,12.7Z"/>
    <path class="cls-1" d="M493.89,88.83c1.88-6.28,2.91-12.94,2.91-19.83,0-7.36-1.16-14.44-3.3-21.09l-62.78,20.4,63.17,20.52Z"/>
    <path class="cls-1" d="M427.8,66.19V0c-14.57,0-28.07,4.52-39.2,12.23l39.2,53.96Z"/>
    <path class="cls-1" d="M362.23,47.51c-2.22,6.77-3.43,13.99-3.43,21.49,0,7.05,1.06,13.84,3.02,20.25l64.43-20.94-64.03-20.8Z"/>
    <path class="cls-2" d="M468.57,124.65l-39.39-54.22v67.53c14.72-.29,28.32-5.18,39.39-13.31Z"/>
    <path class="cls-1" d="M426.68,69.62l-64.43,20.93c4.51,13.72,13.19,25.54,24.56,33.95l39.87-54.88Z"/>
    <path class="cls-1" d="M426.68,67l-39.21-53.97c-11.34,8.19-20.09,19.72-24.8,33.17l64.01,20.8Z"/>
  </g>
</svg>