<?xml version="1.0" encoding="UTF-8"?>
<svg id="_Слой_1" data-name="Слой 1" xmlns="http://www.w3.org/2000/svg" width="800" viewBox="0 0 620 99.94">
  <defs>
    <style>
      .cls-1, .cls-2, .cls-3, .cls-4 {
        opacity: .4;
      }

      .cls-1, .cls-5 {
        fill: #62983d;
      }

      .cls-2, .cls-6 {
        fill: #e0a900;
      }

      .cls-3 {
        fill: #7466b3;
      }

      .cls-4, .cls-7 {
        fill: #668bb3;
      }

      .cls-8 {
        fill: #c65b8e;
      }
    </style>
  </defs>
  <g>
    <path class="cls-4" d="M48,.02C21.31,1.07,0,23.02,0,49.97s21.31,48.9,48,49.95V.02Z"/>
    <path class="cls-7" d="M53,.07V99.87c26.22-1.55,47-23.3,47-49.9S79.22,1.62,53,.07Z"/>
  </g>
  <g>
    <path class="cls-2" d="M307.5,47.97V.03c-25.79,1.27-46.43,22.08-47.45,47.94h47.45Z"/>
    <path class="cls-6" d="M312.5,47.97h47.45C358.93,22.11,338.29,1.3,312.5,.03V47.97Z"/>
    <path class="cls-2" d="M307.5,52.97h-47.4c1.5,25.39,21.95,45.68,47.4,46.94V52.97Z"/>
    <path class="cls-6" d="M312.5,52.97v46.94c25.46-1.25,45.9-21.55,47.4-46.94h-47.4Z"/>
  </g>
  <g>
    <path class="cls-5" d="M182.5,49.49l41.6,24.02c3.76-7.02,5.9-15.05,5.9-23.57,0-26.78-21.05-48.63-47.5-49.94V49.49Z"/>
    <path class="cls-1" d="M177.5,49.49V0c-26.45,1.3-47.5,23.16-47.5,49.94,0,8.53,2.14,16.55,5.9,23.57l41.6-24.02Z"/>
    <path class="cls-1" d="M180,53.82l-41.52,23.97c8.98,13.35,24.22,22.14,41.52,22.14s32.55-8.79,41.52-22.14l-41.52-23.97Z"/>
  </g>
  <g>
    <path class="cls-8" d="M442.5,49.49l41.6,24.02c3.76-7.02,5.9-15.05,5.9-23.57,0-26.78-21.05-48.63-47.5-49.94V49.49Z"/>
    <path class="cls-8" d="M437.5,49.49V0c-26.45,1.3-47.5,23.16-47.5,49.94,0,8.53,2.14,16.55,5.9,23.57l41.6-24.02Z"/>
    <path class="cls-8" d="M440,53.82l-41.52,23.97c8.98,13.35,24.22,22.14,41.52,22.14s32.55-8.79,41.52-22.14l-41.52-23.97Z"/>
  </g>
  <g>
    <path class="cls-3" d="M568,.02c-26.69,1.05-48,23.01-48,49.95s21.31,48.9,48,49.95V.02Z"/>
    <path class="cls-3" d="M573,.07V99.87c26.22-1.55,47-23.3,47-49.9S599.22,1.62,573,.07Z"/>
  </g>
</svg>