<?xml version="1.0" encoding="UTF-8"?>
<svg id="_Слой_1" data-name="Слой 1" xmlns="http://www.w3.org/2000/svg" viewBox="0 0 659.76 172.42" width="2000px">
  <defs>
    <style>
      .cls-1 {
        stroke: rgba(97, 97, 97, 0);
      }

      .cls-1, .cls-2, .cls-3 {
        fill: none;
        stroke-linecap: round;
        stroke-linejoin: round;
      }

      .cls-1, .cls-3 {
        stroke-width: 2.5px;
      }

      .cls-2 {
        stroke: #193d65;
      }

      .cls-3 {
        stroke: rgba(100, 100, 100, 1);
      }

      .cls-4, .cls-5 {
        fill: #1979e6;
      }

      .cls-6 {
        letter-spacing: -.02em;
      }

      .cls-5 {
        font-family: ArialMT, Arial;
        font-size: 16px;
        isolation: isolate;
      }

      .cls-7 {
        letter-spacing: .01em;
      }

      .cls-8 {
        letter-spacing: -.01em;
      }
    </style>
  </defs>
  <path class="cls-3" d="m292.16,106.18c87.51,70.67,212.49,70.67,300,0"/>
  <path class="cls-3" d="m592.16,106.18c-88.83-66.84-211.17-66.84-300,0"/>
  <path class="cls-3" d="m592.16,106.18c-142.79-126.17-357.21-126.17-500,0"/>
  <path class="cls-1" d="m-495.84,106.18H1678.16"/>
  <path class="cls-3" d="m92.16,106.18h200"/>
  <path class="cls-3" d="m292.16,106.18h300"/>
  <path class="cls-4" d="m99.16,106.18c0,3.87-3.13,7-7,7s-7-3.13-7-7,3.13-7,7-7,7,3.13,7,7Z"/>
  <path class="cls-2" d="m99.16,106.18c0,3.87-3.13,7-7,7s-7-3.13-7-7,3.13-7,7-7,7,3.13,7,7Z"/>
  <text class="cls-5" transform="translate(6.16 92.18)"><tspan class="cls-7" x="0" y="0">М</tspan><tspan class="cls-6" x="13.51" y="0">а</tspan><tspan class="cls-8" x="22.05" y="0">т</tspan><tspan x="29.2" y="0">ем</tspan><tspan class="cls-6" x="49.1" y="0">а</tspan><tspan x="57.65" y="0">тино</tspan></text>
  <path class="cls-4" d="m299.16,106.18c0,3.87-3.13,7-7,7s-7-3.13-7-7,3.13-7,7-7,7,3.13,7,7Z"/>
  <path class="cls-2" d="m299.16,106.18c0,3.87-3.13,7-7,7s-7-3.13-7-7,3.13-7,7-7,7,3.13,7,7Z"/>
  <text class="cls-5" transform="translate(240.16 92.18)"><tspan x="0" y="0">Физино</tspan></text>
  <path class="cls-4" d="m599.16,106.18c0,3.87-3.13,7-7,7s-7-3.13-7-7,3.13-7,7-7,7,3.13,7,7Z"/>
  <path class="cls-2" d="m599.16,106.18c0,3.87-3.13,7-7,7s-7-3.13-7-7,3.13-7,7-7,7,3.13,7,7Z"/>
  <text class="cls-5" transform="translate(596.16 92.18)"><tspan x="0" y="0">Химино</tspan></text>
</svg>