<?xml version="1.0" encoding="UTF-8"?><svg xmlns="http://www.w3.org/2000/svg" width="800" viewBox="0 0 647.28 194.27"><path d="m89.73,97.64c57.25,33.98,139.02,33.98,196.27,0" style="fill:none; opacity:.8; stroke:#616161; stroke-miterlimit:10; stroke-width:4px;"/><path d="m86,97.64c142.79,126.17,357.21,126.17,500,0" style="fill:none; opacity:.8; stroke:#616161; stroke-miterlimit:10; stroke-width:4px;"/><path d="m286,96.63c87.51,70.67,212.49,70.67,300,0" style="fill:none; opacity:.8; stroke:#616161; stroke-miterlimit:10; stroke-width:4px;"/><path d="m586,96.63c-88.83-66.84-211.17-66.84-300,0" style="fill:none; opacity:.8; stroke:#616161; stroke-miterlimit:10; stroke-width:4px;"/><path d="m586,96.63c-142.79-126.17-357.21-126.17-500,0" style="fill:none; opacity:.8; stroke:#616161; stroke-miterlimit:10; stroke-width:4px;"/><path d="m86,96.63h500" style="fill:none; opacity:.8; stroke:#616161; stroke-miterlimit:10; stroke-width:4px;"/><path d="m93,96.63c0,3.87-3.13,7-7,7s-7-3.13-7-7,3.13-7,7-7,7,3.13,7,7Z" style="fill:#09f;"/><path d="m93,96.63c0,3.87-3.13,7-7,7s-7-3.13-7-7,3.13-7,7-7,7,3.13,7,7Z" style="fill:none; stroke:#005b99; stroke-linecap:round; stroke-linejoin:round;"/><g style="isolation:isolate;"><g style="isolation:isolate;"><path d="m1.19,82.63v-11.45h2.28l2.71,8.11c.25.75.43,1.32.55,1.7.13-.42.33-1.03.61-1.84l2.74-7.97h2.04v11.45h-1.46v-9.59l-3.33,9.59h-1.37l-3.31-9.75v9.75h-1.46Z" style="fill:#09f;"/></g><g style="isolation:isolate;"><path d="m19.98,81.6c-.52.44-1.02.75-1.5.94-.48.18-1,.27-1.55.27-.91,0-1.61-.22-2.1-.67-.49-.45-.73-1.01-.73-1.71,0-.41.09-.78.28-1.11.18-.34.43-.61.73-.81.3-.2.64-.36,1.01-.46.28-.07.69-.14,1.25-.21,1.14-.14,1.97-.3,2.51-.48,0-.19,0-.32,0-.37,0-.57-.13-.98-.4-1.21-.36-.32-.89-.48-1.6-.48-.66,0-1.15.12-1.46.35-.32.23-.55.64-.7,1.23l-1.38-.19c.12-.59.33-1.06.62-1.43.29-.36.7-.64,1.24-.84.54-.2,1.17-.29,1.88-.29s1.28.08,1.73.25c.44.17.77.38.98.63.21.25.35.57.44.96.05.24.07.67.07,1.3v1.87c0,1.31.03,2.13.09,2.48.06.35.18.68.36,1h-1.47c-.15-.29-.24-.63-.28-1.02Zm-.12-3.14c-.51.21-1.28.39-2.3.53-.58.08-.99.18-1.23.28-.24.1-.42.26-.55.46-.13.2-.2.42-.2.67,0,.38.14.69.43.94.28.25.7.38,1.25.38s1.02-.12,1.45-.36.73-.56.93-.97c.15-.32.23-.79.23-1.41v-.52Z" style="fill:#09f;"/></g><g style="isolation:isolate;"><path d="m22.35,74.33h6.74v1.16h-2.67v7.13h-1.4v-7.13h-2.67v-1.16Z" style="fill:#09f;"/></g><g style="isolation:isolate;"><path d="m35.93,79.96l1.45.18c-.23.85-.65,1.51-1.27,1.98-.62.47-1.41.7-2.38.7-1.21,0-2.18-.37-2.89-1.12s-1.07-1.8-1.07-3.14.36-2.48,1.08-3.25,1.65-1.16,2.8-1.16,2.02.38,2.72,1.13,1.05,1.82,1.05,3.19c0,.08,0,.21,0,.38h-6.19c.05.91.31,1.61.77,2.09.46.48,1.04.73,1.73.73.52,0,.96-.14,1.32-.41.36-.27.65-.7.87-1.3Zm-4.62-2.27h4.63c-.06-.7-.24-1.22-.53-1.57-.45-.54-1.03-.81-1.74-.81-.65,0-1.19.22-1.63.65-.44.43-.68,1.01-.73,1.73Z" style="fill:#09f;"/><path d="m39.19,74.33h2.19l2.18,6.64,2.42-6.64h2.02v8.3h-1.41v-6.68l-2.45,6.68h-1.26l-2.32-7v7h-1.38v-8.3Z" style="fill:#09f;"/></g><g style="isolation:isolate;"><path d="m55.57,81.6c-.52.44-1.02.75-1.5.94-.48.18-1,.27-1.55.27-.91,0-1.61-.22-2.1-.67-.49-.45-.73-1.01-.73-1.71,0-.41.09-.78.28-1.11.18-.34.43-.61.73-.81.3-.2.64-.36,1.01-.46.28-.07.69-.14,1.25-.21,1.14-.14,1.97-.3,2.51-.48,0-.19,0-.32,0-.37,0-.57-.13-.98-.4-1.21-.36-.32-.89-.48-1.6-.48-.66,0-1.15.12-1.46.35-.32.23-.55.64-.7,1.23l-1.38-.19c.12-.59.33-1.06.62-1.43.29-.36.7-.64,1.24-.84.54-.2,1.17-.29,1.88-.29s1.28.08,1.73.25c.44.17.77.38.98.63.21.25.35.57.44.96.05.24.07.67.07,1.3v1.87c0,1.31.03,2.13.09,2.48.06.35.18.68.36,1h-1.47c-.15-.29-.24-.63-.28-1.02Zm-.12-3.14c-.51.21-1.28.39-2.3.53-.58.08-.99.18-1.23.28-.24.1-.42.26-.55.46-.13.2-.2.42-.2.67,0,.38.14.69.43.94.28.25.7.38,1.25.38s1.02-.12,1.45-.36.73-.56.93-.97c.15-.32.23-.79.23-1.41v-.52Z" style="fill:#09f;"/></g><g style="isolation:isolate;"><path d="m57.95,74.33h6.74v1.16h-2.67v7.13h-1.4v-7.13h-2.67v-1.16Z" style="fill:#09f;"/><path d="m66.03,74.33h1.41v6.33l3.9-6.33h1.52v8.3h-1.41v-6.29l-3.9,6.29h-1.52v-8.3Z" style="fill:#09f;"/><path d="m74.98,74.33h1.41v3.45h3.9v-3.45h1.41v8.3h-1.41v-3.68h-3.9v3.68h-1.41v-8.3Z" style="fill:#09f;"/><path d="m83.28,78.48c0-1.54.43-2.67,1.28-3.41.71-.61,1.58-.92,2.61-.92,1.14,0,2.07.37,2.8,1.12.72.75,1.09,1.78,1.09,3.1,0,1.07-.16,1.91-.48,2.52s-.79,1.09-1.4,1.43c-.61.34-1.28.51-2,.51-1.16,0-2.1-.37-2.82-1.12-.72-.75-1.07-1.82-1.07-3.22Zm1.45,0c0,1.06.23,1.86.7,2.39.46.53,1.05.79,1.75.79s1.28-.27,1.74-.8c.46-.53.7-1.34.7-2.43,0-1.03-.23-1.8-.7-2.33-.47-.53-1.05-.79-1.74-.79s-1.29.26-1.75.79c-.46.53-.7,1.32-.7,2.38Z" style="fill:#09f;"/></g></g><path d="m293,96.63c0,3.87-3.13,7-7,7s-7-3.13-7-7,3.13-7,7-7,7,3.13,7,7Z" style="fill:#09f;"/><path d="m293,96.63c0,3.87-3.13,7-7,7s-7-3.13-7-7,3.13-7,7-7,7,3.13,7,7Z" style="fill:none; stroke:#005b99; stroke-linecap:round; stroke-linejoin:round;"/><g style="isolation:isolate;"><path d="m239.38,72.55v-1.47h1.42v1.47c1.46.08,2.61.52,3.45,1.32s1.27,1.79,1.27,2.98-.41,2.15-1.23,2.96c-.82.81-1.98,1.26-3.49,1.34v1.48h-1.42v-1.48c-1.35-.05-2.48-.46-3.38-1.24-.9-.77-1.35-1.8-1.35-3.07s.45-2.3,1.35-3.06,2.03-1.18,3.39-1.23Zm0,1.3c-.94.04-1.71.32-2.29.84-.58.52-.88,1.23-.88,2.16s.29,1.63.86,2.15c.58.52,1.34.8,2.3.84v-5.98Zm1.42,0v6c.98-.05,1.75-.33,2.31-.85s.84-1.24.84-2.15-.28-1.61-.83-2.13c-.55-.52-1.33-.81-2.33-.87Z" style="fill:#09f;"/><path d="m247.22,74.33h1.41v6.33l3.9-6.33h1.52v8.3h-1.41v-6.29l-3.9,6.29h-1.52v-8.3Z" style="fill:#09f;"/><path d="m257.99,78.88v-1.1c.59,0,1-.03,1.21-.07.22-.04.42-.17.61-.37.19-.21.29-.47.29-.78,0-.38-.13-.68-.38-.91-.25-.23-.58-.34-.98-.34-.79,0-1.35.47-1.66,1.4l-1.34-.22c.42-1.56,1.42-2.34,3.02-2.34.88,0,1.58.24,2.08.73.5.48.75,1.06.75,1.73s-.33,1.22-.98,1.62c.42.22.73.51.94.86.21.35.31.76.31,1.23,0,.75-.27,1.35-.81,1.81-.54.46-1.3.7-2.27.7-1.89,0-2.99-.84-3.29-2.52l1.32-.28c.12.53.36.94.73,1.23s.79.44,1.26.44.87-.13,1.18-.4c.31-.27.47-.61.47-1.03,0-.32-.1-.6-.3-.84-.2-.24-.41-.39-.63-.45-.22-.06-.63-.09-1.22-.09-.05,0-.15,0-.32,0Z" style="fill:#09f;"/><path d="m263.49,74.33h1.41v6.33l3.9-6.33h1.52v8.3h-1.41v-6.29l-3.9,6.29h-1.52v-8.3Z" style="fill:#09f;"/><path d="m272.44,74.33h1.41v3.45h3.9v-3.45h1.41v8.3h-1.41v-3.68h-3.9v3.68h-1.41v-8.3Z" style="fill:#09f;"/><path d="m280.74,78.48c0-1.54.43-2.67,1.28-3.41.71-.61,1.58-.92,2.61-.92,1.14,0,2.07.37,2.8,1.12.72.75,1.09,1.78,1.09,3.1,0,1.07-.16,1.91-.48,2.52s-.79,1.09-1.4,1.43c-.61.34-1.28.51-2,.51-1.16,0-2.1-.37-2.82-1.12-.72-.75-1.07-1.82-1.07-3.22Zm1.45,0c0,1.06.23,1.86.7,2.39.46.53,1.05.79,1.75.79s1.28-.27,1.74-.8c.46-.53.7-1.34.7-2.43,0-1.03-.23-1.8-.7-2.33-.47-.53-1.05-.79-1.74-.79s-1.29.26-1.75.79c-.46.53-.7,1.32-.7,2.38Z" style="fill:#09f;"/></g><path d="m593,96.63c0,3.87-3.13,7-7,7s-7-3.13-7-7,3.13-7,7-7,7,3.13,7,7Z" style="fill:#09f;"/><path d="m593,96.63c0,3.87-3.13,7-7,7s-7-3.13-7-7,3.13-7,7-7,7,3.13,7,7Z" style="fill:none; stroke:#005b99; stroke-linecap:round; stroke-linejoin:round;"/><g style="isolation:isolate;"><path d="m590.07,82.63l4.43-5.97-3.91-5.48h1.8l2.08,2.94c.43.61.74,1.08.92,1.41.25-.42.56-.85.91-1.3l2.3-3.04h1.65l-4.02,5.4,4.34,6.05h-1.88l-2.88-4.09c-.16-.23-.33-.49-.5-.77-.26.42-.44.7-.55.86l-2.88,3.99h-1.82Z" style="fill:#09f;"/><path d="m601.73,74.33h1.41v6.33l3.9-6.33h1.52v8.3h-1.41v-6.29l-3.9,6.29h-1.52v-8.3Z" style="fill:#09f;"/><path d="m610.7,74.33h2.19l2.18,6.64,2.42-6.64h2.02v8.3h-1.41v-6.68l-2.45,6.68h-1.26l-2.32-7v7h-1.38v-8.3Z" style="fill:#09f;"/><path d="m621.66,74.33h1.41v6.33l3.9-6.33h1.52v8.3h-1.41v-6.29l-3.9,6.29h-1.52v-8.3Z" style="fill:#09f;"/><path d="m630.61,74.33h1.41v3.45h3.9v-3.45h1.41v8.3h-1.41v-3.68h-3.9v3.68h-1.41v-8.3Z" style="fill:#09f;"/><path d="m638.91,78.48c0-1.54.43-2.67,1.28-3.41.71-.61,1.58-.92,2.61-.92,1.14,0,2.07.37,2.8,1.12.72.75,1.09,1.78,1.09,3.1,0,1.07-.16,1.91-.48,2.52s-.79,1.09-1.4,1.43c-.61.34-1.28.51-2,.51-1.16,0-2.1-.37-2.82-1.12-.72-.75-1.07-1.82-1.07-3.22Zm1.45,0c0,1.06.23,1.86.7,2.39.46.53,1.05.79,1.75.79s1.28-.27,1.74-.8c.46-.53.7-1.34.7-2.43,0-1.03-.23-1.8-.7-2.33-.47-.53-1.05-.79-1.74-.79s-1.29.26-1.75.79c-.46.53-.7,1.32-.7,2.38Z" style="fill:#09f;"/></g></svg>