<?xml version="1.0" encoding="UTF-8"?><svg xmlns="http://www.w3.org/2000/svg" width="800" viewBox="0 0 452.77 165.96"><path d="m5.5,77.29c-.53,0-1.02.34-1.19.87-.21.66.15,1.36.81,1.57l115.8,36.85-.91,2.86,17.49,1.1-14.91-9.2-.91,2.86L5.88,77.34c-.13-.04-.25-.06-.38-.06h0Z" style="fill:#616161; opacity:.8;"/><path d="m130.5,39.54l-2.77,17.3h0l2.99-.26,5.54,64.06c.06.65.6,1.14,1.24,1.14h.11c.69-.06,1.2-.67,1.14-1.35l-5.54-64.06,2.99-.26-5.7-16.57h0Z" style="fill:#616161; opacity:.8;"/><path d="m211.09,24.56l.39,2.97h0l-81.15,10.76c-.68.09-1.17.72-1.07,1.4.08.63.62,1.09,1.24,1.09.05,0,.11,0,.17,0l81.15-10.76.39,2.97,16.29-6.45-17.41-1.98h0Z" style="fill:#616161; opacity:.8;"/><path d="m130.5,38.29c-.34,0-.68.14-.93.41-.46.51-.42,1.3.09,1.77l77.36,69.63h0l-2.01,2.23,15.48,8.21-9.79-14.53-2.01,2.23h0l-77.36-69.63c-.24-.21-.54-.32-.84-.32h0Z" style="fill:#616161; opacity:.8;"/><path d="m203.5,116.29v3h-66c-.69,0-1.25.56-1.25,1.25s.56,1.25,1.25,1.25h66v3l17-4.25-17-4.25Z" style="fill:#616161; opacity:.8;"/><path d="m228.5,25.29c-.23,0-.46.06-.66.19-.59.37-.76,1.14-.4,1.72l30.99,49.58-2.54,1.59,12.61,12.16-5.41-16.67-2.54,1.59-30.99-49.58c-.24-.38-.64-.59-1.06-.59h0Z" style="fill:#616161; opacity:.8;"/><path d="m130.5,38.29c-.51,0-.99.31-1.17.82-.24.65.09,1.37.74,1.61l122.05,45.11h0l-1.04,2.81,17.42,1.91-14.47-9.88-1.04,2.81h0l-122.05-45.11c-.14-.05-.29-.08-.43-.08h-.01Z" style="fill:#616161; opacity:.8;"/><path d="m306.41,20.64l.06,3-78,1.64c-.69,0-1.24.59-1.22,1.28,0,.68.57,1.22,1.25,1.22h.03l78-1.64.06,3,16.91-4.61-17.09-3.89Z" style="fill:#616161; opacity:.8;"/><path d="m323.5,23.29c-.42,0-.83.21-1.07.6-.36.59-.18,1.36.41,1.72l63.52,39.09-1.57,2.55,16.71,5.29-12.25-12.53-1.57,2.55h0l-63.52-39.09c-.2-.13-.43-.19-.65-.19h0Z" style="fill:#616161; opacity:.8;"/><path d="m220.5,119.29c-.57,0-1.08.39-1.22.96-.16.67.26,1.34.93,1.5l68.45,16.11-.69,2.92,17.52-.24-15.57-8.03-.69,2.92-68.45-16.11c-.1-.02-.19-.03-.29-.03h.01Z" style="fill:#616161; opacity:.8;"/><path d="m268.5,90.54l6.7,16.19,2.41-1.78,26.89,36.33c.25.33.62.51,1.01.51.26,0,.52-.08.74-.25.55-.41.67-1.19.26-1.75l-26.89-36.33h0l2.41-1.78-13.53-11.14Z" style="fill:#616161; opacity:.8;"/><path d="m418.32,131.07l.14,3-113.02,5.22c-.69.03-1.22.62-1.19,1.31.03.67.58,1.19,1.25,1.19h.06l113.02-5.22.14,3,16.79-5.03-17.18-3.46h-.01Z" style="fill:#616161; opacity:.8;"/><path d="m401.5,71.29c-.2,0-.41.05-.6.15-.61.33-.83,1.09-.49,1.7l25.83,47.09-2.63,1.44,11.9,12.86-4.45-16.95-2.63,1.44-25.83-47.09c-.23-.41-.66-.65-1.1-.65h0Z" style="fill:#616161; opacity:.8;"/><path d="m268.5,89.29c-.64,0-1.19.49-1.24,1.14-.06.69.45,1.29,1.14,1.35l54.06,4.57-.25,2.99,17.3-2.8-16.58-5.67-.25,2.99-54.06-4.57h-.12Z" style="fill:#616161; opacity:.8;"/><path d="m323.5,23.29c-.09,0-.18,0-.27.03-.67.15-1.1.82-.95,1.49l12.31,55.4h0l-2.93.65,7.84,15.67.46-17.52h0l-2.93.65h0l-12.31-55.4c-.13-.58-.65-.98-1.22-.98h0Z" style="fill:#616161; opacity:.8;"/><path d="m339.5,96.54l14.24,10.21,1.1-2.79,80.19,31.74c.15.06.31.09.46.09.5,0,.97-.3,1.16-.79.25-.64-.06-1.37-.7-1.62l-80.19-31.74,1.1-2.79-17.37-2.31h.01Z" style="fill:#616161; opacity:.8;"/><path d="m130.5,39.54l-17.49,1.01.89,2.86L5.13,77.34c-.66.21-1.03.91-.82,1.57.17.54.66.88,1.19.88.12,0,.25-.02.37-.06l108.77-33.94.89,2.86,14.96-9.12h.01Z" style="fill:#616161; opacity:.8;"/><path d="m10.5,78.54c0,2.76-2.24,5-5,5s-5-2.24-5-5,2.24-5,5-5,5,2.24,5,5Z" style="fill:#c6f;"/><path d="m10.5,78.54c0,2.76-2.24,5-5,5s-5-2.24-5-5,2.24-5,5-5,5,2.24,5,5Z" style="fill:none; stroke:#7a3c99; stroke-linecap:round; stroke-linejoin:round;"/><g style="isolation:isolate;"><g style="isolation:isolate;"><path d="m9.48,68.54l4.4-11.45h1.63l4.69,11.45h-1.73l-1.34-3.47h-4.79l-1.26,3.47h-1.61Zm3.3-4.7h3.88l-1.2-3.17c-.36-.96-.64-1.75-.81-2.38-.15.73-.35,1.46-.62,2.19l-1.26,3.36Z" style="fill:#c6f;"/></g></g><path d="m142.5,120.54c0,2.76-2.24,5-5,5s-5-2.24-5-5,2.24-5,5-5,5,2.24,5,5Z" style="fill:#09f;"/><path d="m142.5,120.54c0,2.76-2.24,5-5,5s-5-2.24-5-5,2.24-5,5-5,5,2.24,5,5Z" style="fill:none; stroke:#005b99; stroke-linecap:round; stroke-linejoin:round;"/><g style="isolation:isolate;"><g style="isolation:isolate;"><path d="m145.67,113.54v-11.45h4.3c.88,0,1.58.12,2.11.35s.94.59,1.24,1.07.45.99.45,1.51c0,.49-.13.95-.4,1.38s-.67.78-1.2,1.05c.69.2,1.23.55,1.6,1.04s.56,1.07.56,1.73c0,.54-.11,1.04-.34,1.5s-.51.82-.84,1.07-.75.44-1.25.57-1.12.19-1.85.19h-4.37Zm1.52-6.64h2.48c.67,0,1.15-.04,1.45-.13.39-.11.68-.3.87-.57s.29-.6.29-1c0-.38-.09-.71-.27-1s-.44-.49-.78-.59-.92-.16-1.74-.16h-2.29v3.46Zm0,5.29h2.85c.49,0,.83-.02,1.03-.05.35-.06.64-.17.88-.31s.43-.36.58-.64.23-.6.23-.96c0-.43-.11-.8-.33-1.11s-.52-.54-.91-.66-.95-.19-1.68-.19h-2.65v3.94Z" style="fill:#09f;"/></g></g><path d="m225.5,120.54c0,2.76-2.24,5-5,5s-5-2.24-5-5,2.24-5,5-5,5,2.24,5,5Z" style="fill:#09f;"/><path d="m225.5,120.54c0,2.76-2.24,5-5,5s-5-2.24-5-5,2.24-5,5-5,5,2.24,5,5Z" style="fill:none; stroke:#005b99; stroke-linecap:round; stroke-linejoin:round;"/><g style="isolation:isolate;"><g style="isolation:isolate;"><path d="m232.91,107.52l1.52.38c-.32,1.25-.89,2.19-1.71,2.85s-1.83.98-3.03.98-2.24-.25-3.01-.75-1.36-1.23-1.77-2.18-.61-1.98-.61-3.07c0-1.19.23-2.23.68-3.12s1.1-1.56,1.95-2.02,1.77-.69,2.78-.69c1.15,0,2.11.29,2.89.88s1.33,1.4,1.63,2.46l-1.49.35c-.27-.83-.65-1.44-1.16-1.82s-1.14-.57-1.91-.57c-.88,0-1.62.21-2.21.63s-1.01.99-1.25,1.7-.36,1.44-.36,2.2c0,.97.14,1.82.43,2.55s.73,1.27,1.32,1.63,1.25.54,1.95.54c.85,0,1.57-.25,2.16-.73s.99-1.22,1.2-2.18Z" style="fill:#09f;"/></g></g><path d="m440.5,134.54c0,2.76-2.24,5-5,5s-5-2.24-5-5,2.24-5,5-5,5,2.24,5,5Z" style="fill:#09f;"/><path d="m440.5,134.54c0,2.76-2.24,5-5,5s-5-2.24-5-5,2.24-5,5-5,5,2.24,5,5Z" style="fill:none; stroke:#005b99; stroke-linecap:round; stroke-linejoin:round;"/><g style="isolation:isolate;"><g style="isolation:isolate;"><path d="m440.73,124.54v-11.45h3.95c.89,0,1.57.05,2.04.16.66.15,1.22.42,1.68.82.6.51,1.06,1.16,1.36,1.96s.45,1.7.45,2.72c0,.87-.1,1.64-.3,2.31s-.46,1.23-.78,1.67-.67.79-1.04,1.04-.83.44-1.37.57-1.15.2-1.84.2h-4.13Zm1.52-1.35h2.45c.75,0,1.35-.07,1.78-.21s.77-.34,1.03-.59c.36-.36.64-.84.84-1.45s.3-1.34.3-2.21c0-1.2-.2-2.12-.59-2.76s-.87-1.07-1.43-1.29c-.41-.16-1.06-.23-1.96-.23h-2.41v8.75Z" style="fill:#09f;"/></g></g><path d="m328.5,24.54c0,2.76-2.24,5-5,5s-5-2.24-5-5,2.24-5,5-5,5,2.24,5,5Z" style="fill:#09f;"/><path d="m328.5,24.54c0,2.76-2.24,5-5,5s-5-2.24-5-5,2.24-5,5-5,5,2.24,5,5Z" style="fill:none; stroke:#005b99; stroke-linecap:round; stroke-linejoin:round;"/><g style="isolation:isolate;"><g style="isolation:isolate;"><path d="m328.77,14.54V3.08h8.28v1.35h-6.77v3.51h6.34v1.34h-6.34v3.9h7.03v1.35h-8.55Z" style="fill:#09f;"/></g></g><path d="m233.5,26.54c0,2.76-2.24,5-5,5s-5-2.24-5-5,2.24-5,5-5,5,2.24,5,5Z" style="fill:#09f;"/><path d="m233.5,26.54c0,2.76-2.24,5-5,5s-5-2.24-5-5,2.24-5,5-5,5,2.24,5,5Z" style="fill:none; stroke:#005b99; stroke-linecap:round; stroke-linejoin:round;"/><g style="isolation:isolate;"><g style="isolation:isolate;"><path d="m233.81,16.54V5.08h7.73v1.35h-6.21v3.55h5.38v1.35h-5.38v5.2h-1.52Z" style="fill:#09f;"/></g></g><path d="m273.5,90.54c0,2.76-2.24,5-5,5s-5-2.24-5-5,2.24-5,5-5,5,2.24,5,5Z" style="fill:#09f;"/><path d="m273.5,90.54c0,2.76-2.24,5-5,5s-5-2.24-5-5,2.24-5,5-5,5,2.24,5,5Z" style="fill:none; stroke:#005b99; stroke-linecap:round; stroke-linejoin:round;"/><g style="isolation:isolate;"><g style="isolation:isolate;"><path d="m280.09,77.05v-1.34h4.85s0,4.24,0,4.24c-.75.59-1.51,1.04-2.3,1.34s-1.6.45-2.44.45c-1.12,0-2.15-.24-3.07-.72s-1.61-1.18-2.08-2.09-.7-1.93-.7-3.05.23-2.16.7-3.12,1.14-1.68,2.01-2.15,1.88-.7,3.02-.7c.83,0,1.58.13,2.25.4s1.19.64,1.57,1.12.67,1.1.87,1.88l-1.37.38c-.17-.58-.39-1.04-.64-1.38s-.62-.6-1.09-.8-1-.3-1.58-.3c-.69,0-1.29.11-1.8.32s-.91.49-1.22.83-.55.72-.72,1.13c-.29.71-.44,1.48-.44,2.3,0,1.02.18,1.88.53,2.56s.86,1.2,1.54,1.53,1.39.5,2.14.5c.66,0,1.3-.13,1.92-.38s1.1-.52,1.42-.81v-2.13h-3.37Z" style="fill:#09f;"/></g></g><path d="m310.5,140.54c0,2.76-2.24,5-5,5s-5-2.24-5-5,2.24-5,5-5,5,2.24,5,5Z" style="fill:#09f;"/><path d="m310.5,140.54c0,2.76-2.24,5-5,5s-5-2.24-5-5,2.24-5,5-5,5,2.24,5,5Z" style="fill:none; stroke:#005b99; stroke-linecap:round; stroke-linejoin:round;"/><g style="isolation:isolate;"><g style="isolation:isolate;"><path d="m310.65,160.56v-11.45h1.52v4.7h5.95v-4.7h1.52v11.45h-1.52v-5.4h-5.95v5.4h-1.52Z" style="fill:#09f;"/></g></g><path d="m135.5,39.54c0,2.76-2.24,5-5,5s-5-2.24-5-5,2.24-5,5-5,5,2.24,5,5Z" style="fill:#09f;"/><path d="m135.5,39.54c0,2.76-2.24,5-5,5s-5-2.24-5-5,2.24-5,5-5,5,2.24,5,5Z" style="fill:none; stroke:#005b99; stroke-linecap:round; stroke-linejoin:round;"/><g style="isolation:isolate;"><g style="isolation:isolate;"><path d="m135.99,29.54v-11.45h1.52v11.45h-1.52Z" style="fill:#09f;"/></g></g><path d="m406.5,72.54c0,2.76-2.24,5-5,5s-5-2.24-5-5,2.24-5,5-5,5,2.24,5,5Z" style="fill:#09f;"/><path d="m406.5,72.54c0,2.76-2.24,5-5,5s-5-2.24-5-5,2.24-5,5-5,5,2.24,5,5Z" style="fill:none; stroke:#005b99; stroke-linecap:round; stroke-linejoin:round;"/><g style="isolation:isolate;"><g style="isolation:isolate;"><path d="m414.9,72.71l1.37-.19c.04.88.2,1.47.49,1.8s.7.48,1.21.48c.38,0,.71-.09.98-.26s.47-.41.57-.71.16-.78.16-1.43v-7.89h1.52v7.8c0,.96-.12,1.7-.35,2.23s-.6.93-1.1,1.2-1.09.41-1.77.41c-1,0-1.77-.29-2.31-.87s-.79-1.44-.77-2.58Z" style="fill:#09f;"/></g></g><path d="m344.5,96.54c0,2.76-2.24,5-5,5s-5-2.24-5-5,2.24-5,5-5,5,2.24,5,5Z" style="fill:#f36;"/><path d="m344.5,96.54c0,2.76-2.24,5-5,5s-5-2.24-5-5,2.24-5,5-5,5,2.24,5,5Z" style="fill:none; stroke:#991e3c; stroke-linecap:round; stroke-linejoin:round;"/><g style="isolation:isolate;"><g style="isolation:isolate;"><path d="m349.67,92.54v-11.45h1.52v5.68l5.69-5.68h2.05l-4.8,4.64,5.02,6.81h-2l-4.08-5.8-1.88,1.83v3.97h-1.52Z" style="fill:#f36;"/></g></g><path d="m123.95,29.71c0,.1,0,.2-.02.28-.01.08-.03.15-.06.2-.03.06-.06.1-.1.12-.04.03-.09.04-.14.04h-6.22c-.08,0-.15-.01-.21-.03-.06-.02-.11-.05-.16-.1s-.08-.11-.1-.2c-.02-.09-.03-.19-.03-.32,0-.12,0-.22.01-.3,0-.09.03-.16.06-.23s.07-.13.11-.2c.04-.07.1-.14.17-.21l2.25-2.31c.52-.53.94-1.01,1.25-1.44.31-.42.56-.81.73-1.16.17-.35.28-.66.34-.95s.08-.55.08-.8-.04-.49-.13-.71c-.08-.22-.21-.42-.36-.59-.16-.17-.36-.3-.6-.4-.24-.1-.51-.15-.83-.15-.36,0-.69.05-.98.15-.29.1-.54.21-.76.32-.22.12-.4.22-.55.32s-.26.15-.33.15c-.04,0-.08-.01-.11-.03-.03-.02-.06-.06-.08-.11s-.04-.12-.05-.21c-.01-.09-.02-.19-.02-.31,0-.09,0-.16,0-.23,0-.06.02-.12.03-.17s.03-.09.06-.13c.02-.04.07-.09.14-.15.07-.06.19-.14.36-.25.17-.1.39-.21.64-.31.26-.1.54-.19.85-.26.31-.07.64-.1.98-.1.54,0,1.02.08,1.43.23.41.15.75.36,1.02.63.27.27.47.58.6.93.13.35.2.73.2,1.13,0,.36-.03.72-.1,1.07-.06.36-.2.74-.4,1.16-.21.42-.5.88-.89,1.38-.39.51-.9,1.09-1.55,1.75l-1.78,1.86h4.9s.09.01.13.04c.04.03.08.06.11.12.03.05.05.12.07.2.01.08.02.17.02.27Z" style="fill:#00b400;"/><path d="m220.23,139.32c0,.52-.09.98-.27,1.4-.18.42-.44.77-.77,1.07s-.75.52-1.24.68c-.49.16-1.05.24-1.67.24-.38,0-.73-.03-1.06-.09-.33-.06-.62-.13-.87-.22-.26-.08-.47-.17-.64-.26-.17-.09-.27-.15-.32-.2-.04-.04-.08-.08-.1-.12-.02-.04-.04-.09-.06-.15-.02-.06-.03-.13-.04-.21s-.01-.19-.01-.31c0-.21.02-.35.06-.43s.1-.12.18-.12c.05,0,.16.05.32.14.16.09.36.19.61.3.25.11.54.21.87.3.33.09.7.14,1.1.14s.74-.05,1.04-.15c.3-.1.55-.24.75-.42.2-.18.35-.39.46-.64.1-.25.15-.51.15-.8,0-.32-.06-.61-.19-.86s-.32-.48-.57-.66-.55-.33-.92-.43c-.36-.1-.77-.15-1.24-.15h-1.1s-.09,0-.14-.03c-.04-.02-.08-.05-.12-.1-.03-.05-.06-.11-.08-.18s-.03-.17-.03-.3c0-.11,0-.2.03-.27.02-.07.04-.13.07-.17.03-.04.07-.08.11-.1.04-.02.09-.03.14-.03h.98c.38,0,.73-.05,1.03-.15s.56-.24.77-.43c.21-.19.37-.41.49-.67.11-.26.17-.55.17-.87,0-.23-.04-.45-.11-.67-.08-.21-.19-.4-.34-.55s-.34-.28-.58-.37c-.24-.09-.51-.13-.81-.13-.34,0-.65.05-.93.15s-.53.21-.75.33c-.22.12-.4.23-.55.33-.15.1-.25.15-.3.15-.04,0-.08,0-.11-.02-.03-.01-.06-.04-.08-.09-.02-.04-.04-.1-.04-.18,0-.08-.01-.18-.01-.31,0-.09,0-.16,0-.23,0-.07.02-.12.03-.17.02-.05.04-.09.06-.13.02-.04.06-.09.12-.14.06-.05.17-.13.33-.24.17-.1.38-.21.62-.31s.53-.19.85-.26.67-.1,1.04-.1c.52,0,.98.07,1.38.2.39.13.72.32.99.57.26.24.46.54.59.88.13.34.2.71.2,1.13,0,.35-.05.68-.14.99-.09.3-.23.57-.41.81-.18.24-.4.43-.66.6-.26.17-.56.28-.9.34v.02c.39.04.74.14,1.07.29.32.15.6.35.83.58.23.23.41.5.54.81.13.31.2.64.2,1Z" style="fill:#00b400;"/><path d="m220.05,15.89c0,.1,0,.2-.02.28-.01.08-.03.15-.06.2-.03.06-.06.1-.1.12-.04.03-.09.04-.14.04h-6.22c-.08,0-.15-.01-.21-.03-.06-.02-.11-.05-.16-.1s-.08-.11-.1-.2c-.02-.09-.03-.19-.03-.32,0-.12,0-.22.01-.3,0-.09.03-.16.06-.23s.07-.13.11-.2c.04-.07.1-.14.17-.21l2.25-2.31c.52-.53.94-1.01,1.25-1.44.31-.42.56-.81.73-1.16.17-.35.28-.66.34-.95s.08-.55.08-.8-.04-.49-.13-.71c-.08-.22-.21-.42-.36-.59-.16-.17-.36-.3-.6-.4-.24-.1-.51-.15-.83-.15-.36,0-.69.05-.98.15-.29.1-.54.21-.76.32-.22.12-.4.22-.55.32s-.26.15-.33.15c-.04,0-.08-.01-.11-.03-.03-.02-.06-.06-.08-.11s-.04-.12-.05-.21c-.01-.09-.02-.19-.02-.31,0-.09,0-.16,0-.23,0-.06.02-.12.03-.17s.03-.09.06-.13c.02-.04.07-.09.14-.15.07-.06.19-.14.36-.25.17-.1.39-.21.64-.31.26-.1.54-.19.85-.26.31-.07.64-.1.98-.1.54,0,1.02.08,1.43.23.41.15.75.36,1.02.63.27.27.47.58.6.93.13.35.2.73.2,1.13,0,.36-.03.72-.1,1.07-.06.36-.2.74-.4,1.16-.21.42-.5.88-.89,1.38-.39.51-.9,1.09-1.55,1.75l-1.78,1.86h4.9s.09.01.13.04c.04.03.08.06.11.12.03.05.05.12.07.2.01.08.02.17.02.27Z" style="fill:#00b400;"/><path d="m298.01,157.18c0,.52-.09.98-.27,1.4s-.44.77-.77,1.07c-.34.3-.75.52-1.24.68-.49.16-1.05.24-1.67.24-.38,0-.73-.03-1.06-.09-.33-.06-.62-.13-.87-.22-.26-.08-.47-.17-.64-.26-.17-.09-.27-.16-.32-.2-.04-.04-.08-.08-.1-.12-.02-.04-.04-.09-.06-.15-.02-.06-.03-.13-.04-.21s-.01-.19-.01-.31c0-.21.02-.35.06-.44.04-.08.1-.12.18-.12.05,0,.16.05.32.14s.36.19.61.3c.25.11.54.21.87.3s.7.14,1.1.14.74-.05,1.04-.15c.3-.1.55-.24.75-.42.2-.18.35-.39.46-.64.1-.25.15-.51.15-.81,0-.32-.06-.61-.19-.86-.13-.26-.32-.48-.57-.66-.25-.19-.55-.33-.92-.43s-.77-.15-1.24-.15h-1.11s-.09,0-.14-.03c-.04-.02-.08-.05-.12-.1-.03-.05-.06-.11-.08-.18-.02-.08-.03-.17-.03-.3,0-.11,0-.2.03-.27.02-.07.04-.13.07-.17.03-.04.07-.08.11-.1.04-.02.09-.03.14-.03h.98c.38,0,.73-.05,1.03-.15s.56-.24.77-.43c.21-.19.37-.41.49-.67.11-.26.17-.55.17-.87,0-.23-.04-.45-.11-.67-.08-.21-.19-.4-.34-.55-.15-.16-.34-.28-.58-.37-.24-.09-.51-.13-.81-.13-.34,0-.65.05-.93.15s-.53.21-.75.33-.4.22-.55.33c-.15.1-.25.15-.3.15-.04,0-.08,0-.11-.02-.03-.01-.06-.04-.08-.09-.02-.04-.04-.1-.04-.18,0-.08-.01-.18-.01-.31,0-.09,0-.16,0-.23,0-.07.02-.12.03-.17.02-.05.04-.09.06-.13.02-.04.06-.09.12-.14.05-.06.17-.13.33-.24.17-.1.38-.21.62-.31.25-.1.53-.19.85-.26.32-.07.67-.1,1.04-.1.52,0,.98.07,1.38.2.39.13.72.32.99.57.26.24.46.54.59.87.13.34.2.71.2,1.13,0,.35-.05.68-.14.99s-.23.57-.41.81c-.18.23-.4.43-.66.6-.26.17-.56.28-.9.34v.02c.39.04.74.14,1.07.29.32.15.6.35.83.58.23.23.41.5.54.81.13.31.2.64.2,1Z" style="fill:#00b400;"/><path d="m260.48,98.25c0,.1,0,.2-.01.28,0,.08-.02.17-.04.24-.01.08-.04.15-.06.23-.03.07-.06.15-.09.23l-4.05,9.34c-.03.07-.06.13-.11.17-.04.04-.1.08-.17.1-.07.03-.15.04-.26.05s-.23.01-.38.01c-.2,0-.35,0-.46-.03s-.19-.04-.24-.08c-.05-.04-.07-.08-.07-.14,0-.06.03-.12.06-.2l4.26-9.55h-5.4c-.11,0-.19-.06-.25-.17-.05-.12-.08-.28-.08-.49,0-.11,0-.21.02-.29.01-.08.04-.15.07-.2.03-.05.06-.1.1-.12.04-.03.09-.04.14-.04h6.56c.08,0,.15,0,.21.03s.11.05.14.1c.03.05.06.12.07.2s.03.19.03.31Z" style="fill:#00b400;"/><path d="m314.79,13.89c0,.1,0,.2-.02.28-.01.08-.04.15-.06.2-.03.06-.06.1-.1.12-.04.03-.09.04-.14.04h-6.22c-.08,0-.15-.01-.21-.03-.06-.02-.11-.05-.16-.1-.04-.05-.08-.11-.1-.2s-.03-.19-.03-.32c0-.12,0-.22.01-.3,0-.09.03-.16.06-.23.03-.07.07-.13.11-.2.04-.07.1-.14.17-.21l2.25-2.31c.52-.53.94-1.01,1.25-1.44s.56-.81.73-1.16c.17-.35.28-.66.34-.95s.08-.55.08-.8-.04-.49-.13-.71c-.08-.22-.21-.42-.36-.59-.16-.17-.36-.3-.6-.4-.24-.1-.51-.15-.83-.15-.36,0-.69.05-.98.15-.29.1-.54.21-.76.32-.22.12-.4.22-.55.32s-.26.15-.33.15c-.04,0-.08-.01-.11-.03-.03-.02-.06-.06-.08-.11-.02-.05-.04-.12-.05-.21s-.02-.19-.02-.31c0-.09,0-.16,0-.23,0-.06.02-.12.03-.17s.03-.09.06-.13c.02-.04.07-.09.14-.15s.19-.14.36-.25.39-.21.64-.31.54-.19.85-.26c.31-.07.64-.1.98-.1.54,0,1.02.08,1.43.23.41.15.75.36,1.02.63.27.27.47.58.61.93.13.35.2.73.2,1.13,0,.36-.03.72-.1,1.07-.06.36-.2.74-.4,1.16-.21.42-.5.88-.89,1.38-.39.51-.9,1.09-1.55,1.75l-1.78,1.86h4.9s.09.01.13.04c.04.03.08.06.11.12.03.05.05.12.07.2.01.08.02.17.02.27Z" style="fill:#00b400;"/><path d="m408.29,60.11c0,.1,0,.2-.02.28-.01.08-.03.15-.06.2-.03.06-.06.1-.1.12-.04.03-.09.04-.14.04h-6.22c-.08,0-.15-.01-.21-.03-.06-.02-.11-.05-.16-.1-.04-.05-.08-.11-.1-.2-.02-.09-.03-.19-.03-.32,0-.12,0-.22.01-.3s.03-.16.06-.23c.03-.07.07-.13.11-.2.04-.07.1-.14.17-.21l2.25-2.31c.52-.53.94-1.01,1.25-1.44.31-.42.56-.81.73-1.16.17-.35.28-.66.34-.95s.08-.55.08-.8-.04-.49-.13-.71-.21-.42-.36-.59c-.16-.17-.36-.3-.6-.4-.24-.1-.51-.15-.83-.15-.37,0-.69.05-.98.15-.29.1-.54.21-.76.32-.22.12-.4.22-.55.32s-.26.15-.33.15c-.04,0-.08-.01-.11-.03-.03-.02-.06-.06-.08-.11-.02-.05-.04-.12-.05-.21-.01-.09-.02-.19-.02-.31,0-.09,0-.16,0-.23,0-.06.02-.12.03-.17s.03-.09.06-.13.07-.09.14-.15c.07-.06.19-.14.36-.25.17-.1.39-.21.64-.31.26-.1.54-.19.85-.26.31-.07.64-.1.98-.1.54,0,1.02.08,1.43.23.41.15.75.36,1.02.63.27.27.47.58.6.93.13.35.2.73.2,1.13,0,.36-.03.72-.1,1.07-.06.36-.2.74-.4,1.16-.21.42-.5.88-.89,1.38-.39.51-.91,1.09-1.55,1.75l-1.78,1.86h4.9s.09.01.13.04c.04.03.08.06.11.12s.05.12.07.2c.01.08.02.17.02.27Z" style="fill:#00b400;"/><path d="m451.72,149.81c0,.6-.1,1.14-.3,1.61s-.49.87-.86,1.19c-.37.32-.81.57-1.33.74-.51.17-1.08.25-1.71.25-.35,0-.68-.02-.99-.07-.31-.05-.59-.11-.84-.18-.24-.07-.44-.14-.6-.21-.16-.07-.26-.12-.3-.17-.04-.04-.07-.08-.09-.11-.02-.04-.03-.08-.05-.13-.01-.05-.03-.11-.03-.19s0-.17,0-.27c0-.1,0-.19.01-.27s.02-.14.05-.19c.02-.05.05-.08.08-.11.03-.02.07-.04.11-.04.06,0,.15.04.27.11.12.07.29.15.49.23.21.08.46.16.77.24.3.08.67.11,1.08.11.39,0,.75-.05,1.07-.14.33-.09.61-.24.84-.43.24-.2.42-.45.55-.74.13-.3.2-.66.2-1.09,0-.36-.06-.68-.17-.95s-.29-.5-.52-.69c-.23-.18-.53-.32-.89-.41s-.79-.13-1.29-.13c-.35,0-.66.02-.91.05-.25.04-.49.05-.71.05-.16,0-.28-.04-.35-.11-.07-.08-.1-.22-.1-.43v-4.58c0-.19.04-.33.13-.43.09-.09.22-.14.39-.14h4.99s.09.01.13.04c.04.03.08.06.11.12.03.05.05.12.07.2s.02.18.02.29c0,.21-.03.37-.08.49s-.13.17-.23.17h-4.02v3.16c.2-.03.4-.05.6-.05.2,0,.44,0,.71,0,.62,0,1.16.08,1.63.23.46.15.85.37,1.16.65.31.28.54.62.7,1.02.16.4.24.84.24,1.33Z" style="fill:#00b400;"/><path d="m334.21,117.6c0,.11,0,.2-.03.28-.02.07-.04.14-.07.18-.03.05-.06.08-.1.1-.04.02-.08.03-.12.03h-5.88s-.08,0-.11-.03c-.03-.02-.07-.05-.1-.1-.03-.05-.06-.11-.07-.18-.02-.08-.03-.17-.03-.28,0-.1,0-.19.03-.27.02-.08.04-.14.07-.19.03-.05.06-.09.1-.11.04-.03.08-.04.13-.04h2.35v-8.56l-2.18,1.3c-.11.06-.2.09-.26.1-.07.01-.12,0-.16-.04-.04-.04-.07-.1-.08-.19s-.02-.2-.02-.33c0-.1,0-.18.01-.25s.02-.13.04-.17c.02-.05.04-.09.07-.12s.07-.07.13-.1l2.59-1.66s.05-.03.09-.04c.04-.01.08-.02.13-.04.05-.01.11-.02.18-.02s.16,0,.26,0c.14,0,.25,0,.35.02.09.01.17.03.22.05.05.02.09.05.1.08.02.03.03.07.03.1v9.89h2.04s.09.01.13.04c.04.03.07.06.1.11.03.05.05.11.06.19.01.08.02.17.02.27Z" style="fill:#f36;"/><path d="m343.7,114.99c0,.19-.03.34-.09.45s-.14.17-.24.17h-1.27v2.37s-.01.08-.04.12c-.02.03-.07.06-.12.08-.06.02-.14.04-.23.05s-.22.02-.37.02-.26,0-.36-.02-.17-.03-.23-.05-.1-.05-.12-.08c-.02-.03-.03-.07-.03-.12v-2.37h-4.61c-.07,0-.13,0-.17-.03-.05-.02-.09-.05-.12-.1-.04-.05-.06-.11-.08-.2-.01-.09-.02-.2-.02-.34,0-.11,0-.21,0-.3,0-.09.02-.17.03-.24.02-.07.04-.14.07-.21.03-.07.06-.14.1-.21l4.01-6.84s.07-.09.13-.12c.06-.04.13-.06.22-.09.09-.02.2-.04.33-.05.13,0,.28-.01.46-.01.2,0,.37,0,.51.02.14.02.26.03.35.06.09.02.16.05.2.09.05.04.07.08.07.13v7.19h1.27c.1,0,.18.05.24.15.06.1.09.26.09.47Zm-3.1-6.79h-.02l-3.62,6.18h3.64v-6.18Z" style="fill:#f36;"/><path d="m140.56,141.2c0,.11,0,.2-.03.28-.02.08-.04.14-.07.18-.03.05-.06.08-.1.1-.04.02-.08.03-.12.03h-5.88s-.08-.01-.11-.03c-.03-.02-.07-.05-.1-.1-.03-.05-.06-.11-.07-.18-.02-.08-.03-.17-.03-.28,0-.1,0-.19.03-.27.02-.08.04-.14.06-.19.03-.05.06-.09.1-.11.04-.03.08-.04.13-.04h2.35v-8.56l-2.18,1.3c-.11.06-.2.09-.27.1-.07.01-.12,0-.16-.04-.04-.04-.07-.1-.08-.19-.01-.09-.02-.2-.02-.33,0-.1,0-.18.01-.25,0-.07.02-.13.04-.17.02-.05.04-.09.07-.12.03-.04.07-.07.13-.1l2.59-1.66s.05-.03.09-.04.08-.02.13-.04.11-.02.18-.02c.07,0,.16,0,.26,0,.14,0,.25,0,.35.02.09.01.17.03.22.05s.09.05.1.08c.02.03.03.07.03.1v9.89h2.04s.09.01.13.04c.04.03.07.06.1.11.03.05.05.11.06.19.01.08.02.17.02.27Z" style="fill:#00b400;"/><path d="m101.39,38.2c0,.07,0,.12-.02.17-.01.05-.02.08-.04.12-.02.03-.04.05-.06.07-.02.01-.05.02-.08.02h-1.7v1.88s0,.05-.02.07-.04.04-.06.05c-.03.01-.07.02-.12.03-.05,0-.11.01-.18.01s-.13,0-.18-.01c-.05,0-.09-.02-.12-.03-.03-.01-.05-.03-.06-.05s-.02-.04-.02-.07v-1.88h-1.7s-.06,0-.08-.02c-.02-.01-.04-.04-.06-.07-.02-.03-.03-.07-.04-.12-.01-.05-.02-.1-.02-.17,0-.06,0-.12.02-.16.01-.05.02-.09.04-.12.02-.03.04-.05.06-.07s.05-.02.07-.02h1.7v-1.88s0-.05.02-.07.04-.04.06-.06c.03-.02.07-.03.12-.04s.11-.01.18-.01.13,0,.18.01.09.02.12.04c.03.02.05.03.06.06s.02.05.02.07v1.88h1.7s.05,0,.07.02.04.04.06.07c.02.03.03.07.04.12,0,.05.01.1.01.16Z" style="fill:#616161;"/><path d="m106.54,40.83c0,.07,0,.12-.02.17-.01.04-.02.08-.04.11-.02.03-.04.05-.06.06s-.05.02-.07.02h-3.5s-.05,0-.07-.02c-.02-.01-.04-.03-.06-.06-.02-.03-.03-.06-.04-.11-.01-.04-.02-.1-.02-.17,0-.06,0-.12.02-.16.01-.04.02-.08.04-.11s.03-.05.06-.07c.02-.02.05-.02.07-.02h1.4v-5.09l-1.29.77c-.07.03-.12.06-.16.06s-.07,0-.1-.02c-.02-.02-.04-.06-.05-.11,0-.05-.01-.12-.01-.2,0-.06,0-.11,0-.15,0-.04.01-.08.02-.1.01-.03.03-.05.04-.07.02-.02.04-.04.08-.06l1.54-.99s.03-.02.05-.03c.02,0,.05-.01.08-.02.03,0,.07-.01.11-.01.04,0,.09,0,.16,0,.08,0,.15,0,.21.01s.1.02.13.03c.03.01.05.03.06.05.01.02.02.04.02.06v5.88h1.21s.05,0,.08.02c.02.02.04.04.06.07.02.03.03.07.04.11,0,.04.01.1.01.16Z" style="fill:#616161;"/><path d="m106.99,121.56c0,.07,0,.12-.02.17s-.02.08-.04.12-.04.05-.06.07-.05.02-.08.02h-1.7v1.88s0,.05-.02.07c-.01.02-.04.04-.06.05-.03.01-.07.02-.12.03s-.11.01-.18.01-.13,0-.18-.01-.09-.02-.12-.03c-.03-.01-.05-.03-.06-.05-.01-.02-.02-.04-.02-.07v-1.88h-1.7s-.06,0-.08-.02-.04-.04-.06-.07c-.02-.03-.03-.07-.04-.12s-.02-.1-.02-.17,0-.12.02-.16.02-.08.04-.12c.02-.03.04-.05.06-.07s.05-.02.07-.02h1.7v-1.88s0-.05.02-.07.04-.04.06-.06c.03-.02.07-.03.12-.04s.11-.01.18-.01.13,0,.18.01.09.02.12.04c.03.02.05.04.06.06s.02.05.02.07v1.88h1.7s.05,0,.07.02.04.04.06.07c.02.03.03.07.04.12,0,.05.01.1.01.16Z" style="fill:#616161;"/><path d="m112.15,124.19c0,.07,0,.12-.02.17-.01.04-.02.08-.04.11-.02.03-.04.05-.06.06-.02.01-.05.02-.07.02h-3.5s-.05,0-.07-.02c-.02-.01-.04-.03-.06-.06-.02-.03-.03-.06-.04-.11-.01-.04-.02-.1-.02-.17,0-.06,0-.12.02-.16.01-.04.02-.08.04-.11s.03-.05.06-.07c.02-.02.05-.02.07-.02h1.4v-5.09l-1.29.77c-.07.03-.12.05-.16.06s-.07,0-.1-.02c-.02-.02-.04-.06-.05-.11,0-.05-.01-.12-.01-.2,0-.06,0-.11,0-.15,0-.04.01-.08.02-.1.01-.03.03-.05.04-.07.02-.02.04-.04.08-.06l1.54-.99s.03-.02.05-.03c.02,0,.05-.01.08-.02s.07-.01.11-.01c.04,0,.09,0,.16,0,.08,0,.15,0,.21.01s.1.02.13.03c.03.01.05.03.06.05.01.02.02.04.02.06v5.88h1.21s.05,0,.08.02c.02.02.04.04.06.07.02.03.03.07.04.11,0,.04.01.1.01.16Z" style="fill:#616161;"/><path d="m193.49,131.56c0,.07,0,.12-.02.17-.01.05-.02.08-.04.12-.02.03-.04.05-.06.07-.02.01-.05.02-.08.02h-1.7v1.88s0,.05-.02.07c-.01.02-.04.04-.06.05-.03.01-.07.03-.12.03-.05,0-.11.01-.18.01s-.13,0-.18-.01c-.05,0-.09-.02-.12-.03-.03-.01-.05-.03-.06-.05-.01-.02-.02-.04-.02-.07v-1.88h-1.7s-.06,0-.08-.02c-.02-.01-.04-.04-.06-.07-.02-.03-.03-.07-.04-.12-.01-.05-.02-.1-.02-.17,0-.06,0-.12.02-.16.01-.05.02-.09.04-.12.02-.03.04-.05.06-.07s.05-.02.07-.02h1.7v-1.88s0-.05.02-.08.04-.04.06-.06c.03-.02.07-.03.12-.04s.11-.01.18-.01.13,0,.18.01.09.02.12.04c.03.02.05.03.06.06s.02.05.02.08v1.88h1.7s.05,0,.07.02.04.04.06.07c.02.03.03.07.04.12,0,.05.01.1.01.16Z" style="fill:#616161;"/><path d="m198.64,134.19c0,.07,0,.12-.02.17-.01.04-.02.08-.04.11-.02.03-.04.05-.06.06-.02.01-.05.02-.07.02h-3.5s-.05,0-.07-.02c-.02-.01-.04-.03-.06-.06-.02-.03-.03-.06-.04-.11-.01-.04-.02-.1-.02-.17s0-.12.02-.16c.01-.04.02-.08.04-.11s.03-.05.06-.07c.02-.02.05-.02.07-.02h1.4v-5.09l-1.29.77c-.07.03-.12.06-.16.06s-.07,0-.1-.02c-.02-.02-.04-.06-.05-.11,0-.05-.01-.12-.01-.2,0-.06,0-.11,0-.15,0-.04.01-.08.02-.1.01-.03.03-.05.04-.07.02-.02.04-.04.08-.06l1.54-.99s.03-.02.05-.03c.02,0,.05-.01.08-.02.03,0,.07-.01.11-.01.04,0,.09,0,.16,0,.08,0,.15,0,.21,0s.1.02.13.03c.03.01.05.03.06.05s.02.04.02.06v5.88h1.21s.05,0,.08.02c.02.02.04.04.06.07.02.03.03.07.04.11,0,.04.01.1.01.16Z" style="fill:#616161;"/><path d="m191.97,108.56c0,.07,0,.12-.02.17-.01.05-.02.08-.04.12-.02.03-.04.05-.06.07-.02.01-.05.02-.08.02h-1.7v1.88s0,.05-.02.07c-.01.02-.04.04-.06.05-.03.01-.07.03-.12.03-.05,0-.11.01-.18.01s-.13,0-.18-.01c-.05,0-.09-.02-.12-.03-.03-.01-.05-.03-.06-.05-.01-.02-.02-.04-.02-.07v-1.88h-1.7s-.06,0-.08-.02c-.02-.01-.04-.04-.06-.07-.02-.03-.03-.07-.04-.12-.01-.05-.02-.1-.02-.17,0-.06,0-.12.02-.16.01-.05.02-.09.04-.12.02-.03.04-.05.06-.07s.05-.02.07-.02h1.7v-1.88s0-.05.02-.08.04-.04.06-.06c.03-.02.07-.03.12-.04s.11-.01.18-.01.13,0,.18.01.09.02.12.04c.03.02.05.03.06.06s.02.05.02.08v1.88h1.7s.05,0,.07.02.04.04.06.07c.02.03.03.07.04.12,0,.05.01.1.01.16Z" style="fill:#616161;"/><path d="m197.11,111.15c0,.06,0,.12-.01.17,0,.05-.02.09-.04.12-.02.03-.04.06-.06.07s-.05.02-.09.02h-3.7s-.09,0-.13-.02c-.04-.01-.07-.03-.09-.06-.03-.03-.04-.07-.06-.12-.01-.05-.02-.12-.02-.19,0-.07,0-.13,0-.18s.02-.1.03-.14c.02-.04.04-.08.07-.12.03-.04.06-.08.1-.13l1.34-1.38c.31-.32.56-.6.74-.85s.33-.48.43-.69c.1-.21.17-.4.2-.56.03-.17.05-.33.05-.48s-.02-.29-.07-.42-.12-.25-.22-.35c-.09-.1-.21-.18-.35-.24s-.31-.09-.49-.09c-.22,0-.41.03-.58.09-.17.06-.32.12-.45.19-.13.07-.24.13-.33.19-.09.06-.15.09-.19.09-.02,0-.05,0-.07-.02s-.04-.04-.05-.07c-.01-.03-.02-.07-.03-.12,0-.05-.01-.11-.01-.19,0-.05,0-.1,0-.13s0-.07.02-.1c0-.03.02-.05.03-.08s.04-.05.08-.09c.04-.04.11-.08.21-.15.1-.06.23-.12.38-.18.15-.06.32-.11.51-.15.18-.04.38-.06.58-.06.32,0,.61.04.85.14.24.09.44.22.6.38.16.16.28.34.36.55.08.21.12.43.12.67,0,.21-.02.43-.06.64s-.12.44-.24.69c-.12.25-.3.52-.53.82s-.54.65-.92,1.04l-1.06,1.11h2.91s.05,0,.08.02c.03.02.05.04.07.07s.03.07.04.12c0,.05.01.1.01.16Z" style="fill:#616161;"/><path d="m275.88,144.48c0,.07,0,.12-.02.17,0,.05-.02.08-.04.12-.02.03-.04.05-.06.07-.02.01-.05.02-.08.02h-1.7v1.88s0,.05-.02.07c-.01.02-.04.04-.06.05-.03.01-.07.02-.12.03-.05,0-.11.01-.18.01s-.13,0-.18-.01-.09-.02-.12-.03c-.03-.01-.05-.03-.07-.05-.01-.02-.02-.04-.02-.07v-1.88h-1.7s-.06,0-.08-.02-.04-.04-.06-.07-.03-.07-.04-.12c-.01-.05-.02-.1-.02-.17s0-.12.02-.16c0-.05.02-.08.04-.12s.04-.05.06-.07.05-.02.08-.02h1.7v-1.88s0-.05.02-.07.04-.04.07-.06c.03-.02.07-.03.12-.04s.11-.01.18-.01.13,0,.18.01c.05,0,.09.02.12.04.03.02.05.04.06.06s.02.05.02.07v1.88h1.7s.05,0,.08.02.04.04.06.07c.02.03.03.07.04.12s.01.1.01.16Z" style="fill:#616161;"/><path d="m280.97,145.55c0,.31-.05.58-.16.83-.11.25-.26.46-.46.63-.2.18-.45.31-.74.41s-.62.14-.99.14c-.22,0-.43-.02-.63-.05s-.37-.08-.52-.13c-.15-.05-.28-.1-.38-.16-.1-.05-.16-.09-.19-.12-.03-.02-.05-.05-.06-.07-.01-.02-.03-.05-.04-.09-.01-.04-.02-.08-.02-.13s0-.11,0-.18c0-.12.01-.21.04-.26.03-.05.06-.07.11-.07.03,0,.09.03.19.08.09.05.21.11.36.18.15.06.32.12.51.18.2.06.42.08.66.08s.44-.03.62-.09.33-.14.45-.25c.12-.11.21-.23.27-.38.06-.15.09-.31.09-.48,0-.19-.04-.36-.12-.51-.08-.15-.19-.28-.34-.39-.15-.11-.33-.2-.54-.25s-.46-.09-.73-.09h-.66s-.06,0-.08-.02c-.03-.01-.05-.03-.07-.06s-.04-.06-.05-.11-.02-.1-.02-.18c0-.07,0-.12.02-.16,0-.04.02-.08.04-.1.02-.03.04-.04.06-.06.02-.01.05-.02.08-.02h.58c.23,0,.43-.03.61-.09.18-.06.33-.14.46-.25s.22-.24.29-.4c.07-.15.1-.33.1-.51,0-.14-.02-.27-.07-.4-.04-.12-.11-.23-.2-.33-.09-.09-.2-.17-.34-.22s-.3-.08-.48-.08c-.2,0-.38.03-.55.09s-.32.12-.45.19c-.13.07-.24.13-.33.19-.09.06-.15.09-.18.09-.02,0-.05,0-.06-.01-.02,0-.03-.03-.05-.05-.01-.03-.02-.06-.03-.11,0-.05,0-.11,0-.18,0-.05,0-.1,0-.14,0-.04.01-.07.02-.1.01-.03.02-.06.04-.08s.04-.05.07-.09.1-.08.2-.14c.1-.06.22-.12.37-.18s.32-.11.51-.15c.19-.04.4-.06.62-.06.31,0,.58.04.82.12s.43.19.59.34.27.32.35.52c.08.2.12.42.12.67,0,.21-.03.41-.08.59-.05.18-.14.34-.24.48-.11.14-.24.26-.39.36s-.33.17-.54.2h0c.23.04.44.09.63.18.19.09.36.21.49.34.14.14.25.3.32.48.08.18.12.38.12.59Z" style="fill:#616161;"/><path d="m273.41,114.82c0,.07,0,.12-.02.17,0,.05-.02.08-.04.12-.02.03-.04.05-.06.07-.02.01-.05.02-.08.02h-1.7v1.88s0,.05-.02.07c-.01.02-.04.04-.06.05-.03.01-.07.03-.12.03-.05,0-.11.01-.18.01s-.13,0-.18-.01c-.05,0-.09-.02-.12-.03-.03-.01-.05-.03-.07-.05-.01-.02-.02-.04-.02-.07v-1.88h-1.7s-.06,0-.08-.02c-.02-.01-.04-.04-.06-.07-.02-.03-.03-.07-.04-.12-.01-.05-.02-.1-.02-.17,0-.06,0-.12.02-.16,0-.05.02-.09.04-.12.02-.03.04-.05.06-.07s.05-.02.08-.02h1.7v-1.88s0-.05.02-.08.04-.04.07-.06c.03-.02.07-.03.12-.04s.11-.01.18-.01.13,0,.18.01c.05,0,.09.02.12.04.03.02.05.03.06.06s.02.05.02.08v1.88h1.7s.05,0,.08.02.04.04.06.07c.02.03.03.07.04.12,0,.05.01.1.01.16Z" style="fill:#616161;"/><path d="m278.5,115.89c0,.31-.05.58-.16.83-.11.25-.26.46-.46.63-.2.18-.45.31-.74.41s-.62.14-.99.14c-.22,0-.43-.02-.63-.05s-.37-.08-.52-.13c-.15-.05-.28-.1-.38-.15-.1-.05-.16-.09-.19-.12-.03-.02-.05-.05-.06-.07-.01-.02-.03-.05-.04-.09-.01-.03-.02-.08-.02-.13,0-.05,0-.11,0-.18,0-.12.01-.21.04-.26.03-.05.06-.07.11-.07.03,0,.09.03.19.08.09.06.21.12.36.18s.32.12.51.18c.2.05.42.08.66.08s.44-.03.62-.09.33-.14.45-.25c.12-.11.21-.23.27-.38.06-.15.09-.31.09-.48,0-.19-.04-.36-.12-.51-.08-.15-.19-.28-.34-.39-.15-.11-.33-.19-.54-.25s-.46-.09-.73-.09h-.66s-.06,0-.08-.02c-.03-.01-.05-.03-.07-.06-.02-.03-.04-.06-.05-.11s-.02-.1-.02-.18c0-.07,0-.12.02-.16,0-.04.02-.08.04-.1.02-.03.04-.04.06-.06.02-.01.05-.02.08-.02h.58c.23,0,.43-.03.61-.09.18-.06.33-.14.46-.25s.22-.24.29-.4c.07-.15.1-.33.1-.51,0-.14-.02-.27-.07-.4s-.11-.24-.2-.33c-.09-.09-.2-.17-.34-.22-.14-.05-.3-.08-.48-.08-.2,0-.38.03-.55.09-.17.06-.32.12-.45.19-.13.07-.24.13-.33.19-.09.06-.15.09-.18.09-.02,0-.05,0-.06-.01-.02,0-.03-.03-.05-.05-.01-.03-.02-.06-.03-.11,0-.05,0-.11,0-.18,0-.05,0-.1,0-.14,0-.04.01-.07.02-.1.01-.03.02-.06.04-.08.01-.02.04-.05.07-.08.03-.03.1-.08.2-.14.1-.06.22-.12.37-.18.15-.06.32-.11.51-.15s.4-.06.62-.06c.31,0,.58.04.82.12.23.08.43.19.59.34.16.14.27.32.35.52.08.2.12.42.12.67,0,.21-.03.41-.08.59-.05.18-.14.34-.24.48-.11.14-.24.26-.39.36-.16.1-.33.17-.54.2h0c.23.03.44.09.63.18.19.09.36.21.49.34s.25.3.32.48c.08.18.12.38.12.59Z" style="fill:#616161;"/><path d="m313.41,87.31c0,.07,0,.12-.02.17-.01.05-.02.08-.04.12-.02.03-.04.05-.06.07-.02.01-.05.02-.08.02h-1.7v1.88s0,.05-.02.07c-.01.02-.04.04-.06.05s-.07.02-.12.03c-.05,0-.11.01-.18.01s-.13,0-.18-.01-.09-.02-.12-.03-.05-.03-.06-.05c-.01-.02-.02-.04-.02-.07v-1.88h-1.7s-.06,0-.08-.02-.04-.04-.06-.07c-.02-.03-.03-.07-.04-.12,0-.05-.02-.1-.02-.17s0-.12.02-.16c.01-.05.02-.08.04-.12.02-.03.04-.05.06-.07s.05-.02.07-.02h1.7v-1.88s0-.05.02-.07.04-.04.06-.06.07-.03.12-.04.11-.01.18-.01.13,0,.18.01c.05,0,.09.02.12.04s.05.04.06.06.02.05.02.07v1.88h1.7s.05,0,.07.02.04.04.06.07.03.07.04.12c0,.05.01.1.01.16Z" style="fill:#616161;"/><path d="m318.65,83.98c0,.06,0,.12,0,.17s-.01.1-.02.14-.02.09-.04.13-.03.09-.05.14l-2.41,5.55s-.04.08-.06.1-.06.05-.1.06c-.04.02-.09.03-.15.03-.06,0-.14,0-.23,0-.12,0-.21,0-.27-.02-.07,0-.11-.03-.14-.05s-.04-.05-.04-.08c0-.03.02-.07.04-.12l2.53-5.68h-3.21c-.07,0-.12-.03-.15-.1-.03-.07-.05-.17-.05-.29,0-.07,0-.12.01-.17,0-.05.02-.09.04-.12.02-.03.04-.06.06-.07.02-.02.05-.02.08-.02h3.9s.09,0,.13.02c.04,0,.06.03.08.06s.03.07.04.12c.01.05.02.11.02.19Z" style="fill:#616161;"/><path d="m356.46,112.92c0,.07,0,.12-.02.17-.01.05-.02.08-.04.12-.02.03-.04.05-.06.07-.02.01-.05.02-.08.02h-1.7v1.88s0,.05-.02.07c-.01.02-.04.04-.06.05s-.07.03-.12.03c-.05,0-.11.01-.18.01s-.13,0-.18-.01c-.05,0-.09-.02-.12-.03s-.05-.03-.06-.05c-.01-.02-.02-.04-.02-.07v-1.88h-1.7s-.06,0-.08-.02c-.02-.01-.04-.04-.06-.07-.02-.03-.03-.07-.04-.12,0-.05-.02-.1-.02-.17,0-.06,0-.12.02-.16.01-.05.02-.09.04-.12.02-.03.04-.05.06-.07s.05-.02.07-.02h1.7v-1.88s0-.05.02-.08.04-.04.06-.06.07-.03.12-.04.11-.01.18-.01.13,0,.18.01c.05,0,.09.02.12.04s.05.03.06.06.02.05.02.08v1.88h1.7s.05,0,.07.02.04.04.06.07c.02.03.03.07.04.12,0,.05.01.1.01.16Z" style="fill:#616161;"/><path d="m361.57,113.75c0,.36-.06.68-.18.96-.12.28-.29.51-.51.71s-.48.34-.79.44c-.3.1-.64.15-1.02.15-.21,0-.4-.01-.59-.04-.19-.03-.35-.07-.5-.11-.15-.04-.26-.08-.36-.13-.09-.04-.15-.07-.18-.1-.03-.02-.04-.05-.05-.07s-.02-.05-.03-.08-.01-.07-.02-.11c0-.04,0-.1,0-.16,0-.06,0-.11,0-.16,0-.05.01-.08.03-.11s.03-.05.05-.06c.02-.01.04-.02.07-.02.03,0,.09.02.16.06s.17.09.29.14.27.1.46.14c.18.04.4.07.64.07.23,0,.44-.03.64-.08.19-.06.36-.14.5-.26s.25-.26.33-.44.12-.39.12-.65c0-.21-.03-.4-.1-.57-.07-.16-.17-.3-.31-.41s-.32-.19-.53-.24c-.21-.05-.47-.08-.77-.08-.21,0-.39.01-.54.03-.15.02-.29.03-.42.03-.1,0-.17-.02-.21-.07-.04-.04-.06-.13-.06-.26v-2.73c0-.11.03-.2.08-.25.05-.06.13-.08.23-.08h2.96s.05,0,.08.02c.03.02.05.04.06.07.02.03.03.07.04.12,0,.05.01.11.01.17,0,.12-.02.22-.05.29-.03.07-.08.1-.14.1h-2.39v1.88c.12-.02.24-.03.36-.03.12,0,.26,0,.42,0,.37,0,.69.05.97.14.28.09.51.22.69.39.18.17.32.37.42.61.09.24.14.5.14.79Z" style="fill:#616161;"/><path d="m343.43,71.3c0,.07,0,.12-.02.17-.01.05-.02.08-.04.12-.02.03-.04.05-.06.07-.02.01-.05.02-.08.02h-1.7v1.88s0,.05-.02.07-.04.04-.06.05-.07.02-.12.03c-.05,0-.11.01-.18.01s-.13,0-.18-.01c-.05,0-.09-.02-.12-.03s-.05-.03-.06-.05-.02-.04-.02-.07v-1.88h-1.7s-.06,0-.08-.02c-.02-.01-.04-.04-.06-.07-.02-.03-.03-.07-.04-.12,0-.05-.02-.1-.02-.17,0-.06,0-.12.02-.16.01-.05.02-.09.04-.12.02-.03.04-.05.06-.07s.05-.02.07-.02h1.7v-1.88s0-.05.02-.07.04-.04.06-.06.07-.03.12-.04.11-.01.18-.01.13,0,.18.01c.05,0,.09.02.12.04s.05.03.06.06.02.05.02.07v1.88h1.7s.05,0,.07.02.04.04.06.07c.02.03.03.07.04.12,0,.05.01.1.01.16Z" style="fill:#616161;"/><path d="m348.57,73.89c0,.06,0,.12-.01.17s-.02.09-.04.12-.04.06-.06.07c-.03.02-.05.02-.09.02h-3.7s-.09,0-.13-.02-.07-.03-.09-.06c-.03-.03-.04-.07-.06-.12-.01-.05-.02-.12-.02-.19,0-.07,0-.13,0-.18,0-.05.02-.1.04-.14.02-.04.04-.08.07-.12s.06-.08.1-.13l1.34-1.38c.31-.32.56-.6.74-.85.19-.25.33-.48.43-.69.1-.21.17-.4.2-.56s.05-.33.05-.48-.03-.29-.08-.42-.12-.25-.22-.35c-.09-.1-.21-.18-.35-.24-.14-.06-.31-.09-.49-.09-.22,0-.41.03-.58.09-.17.06-.32.12-.45.19-.13.07-.24.13-.33.19s-.15.09-.19.09c-.03,0-.05,0-.07-.02s-.04-.04-.05-.07c-.01-.03-.02-.07-.03-.12s-.01-.11-.01-.19c0-.05,0-.1,0-.13,0-.04,0-.07.02-.1,0-.03.02-.05.03-.08.01-.02.04-.05.08-.09s.11-.09.21-.15.23-.12.38-.18c.15-.06.32-.11.51-.15.18-.04.38-.06.58-.06.32,0,.61.05.85.14.24.09.44.22.6.38.16.16.28.34.36.55.08.21.12.43.12.67,0,.21-.02.43-.06.64-.04.21-.12.44-.24.69-.12.25-.3.52-.53.82-.23.3-.54.65-.92,1.04l-1.06,1.11h2.91s.05,0,.08.02c.03.02.05.04.07.07.02.03.03.07.04.12,0,.05.01.1.01.16Z" style="fill:#616161;"/><path d="m409.81,145.99c0,.07,0,.12-.02.17-.01.05-.02.08-.04.12-.02.03-.04.05-.06.07-.02.01-.05.02-.08.02h-1.7v1.88s0,.05-.02.07c-.01.02-.04.04-.06.05s-.07.03-.12.03c-.05,0-.11.01-.18.01s-.13,0-.18-.01c-.05,0-.09-.02-.12-.03s-.05-.03-.06-.05c-.01-.02-.02-.04-.02-.07v-1.88h-1.7s-.06,0-.08-.02c-.02-.01-.04-.04-.06-.07-.02-.03-.03-.07-.04-.12,0-.05-.02-.1-.02-.17,0-.06,0-.12.02-.16.01-.05.02-.09.04-.12.02-.03.04-.05.06-.07s.05-.02.07-.02h1.7v-1.88s0-.05.02-.08.04-.04.06-.06.07-.03.12-.04.11-.01.18-.01.13,0,.18.01c.05,0,.09.02.12.04s.05.03.06.06.02.05.02.08v1.88h1.7s.05,0,.07.02.04.04.06.07c.02.03.03.07.04.12,0,.05.01.1.01.16Z" style="fill:#616161;"/><path d="m414.89,147.06c0,.31-.05.58-.16.83-.11.25-.26.46-.46.63s-.45.31-.74.41-.62.14-.99.14c-.22,0-.43-.02-.63-.05-.2-.04-.37-.08-.52-.13-.15-.05-.28-.1-.38-.15-.1-.05-.16-.09-.19-.12-.03-.02-.04-.05-.06-.07-.01-.02-.03-.05-.04-.09,0-.03-.02-.08-.02-.13,0-.05,0-.11,0-.18,0-.12.01-.21.04-.26.02-.05.06-.07.11-.07.03,0,.09.03.19.08.09.06.21.12.36.18.15.06.32.12.51.18.2.05.41.08.66.08s.44-.03.62-.09.33-.14.45-.25c.12-.11.21-.23.27-.38.06-.15.09-.31.09-.48,0-.19-.04-.36-.11-.51-.08-.15-.19-.28-.34-.39-.15-.11-.33-.19-.54-.25-.21-.06-.46-.09-.73-.09h-.66s-.06,0-.08-.02c-.03-.01-.05-.03-.07-.06-.02-.03-.04-.06-.05-.11-.01-.04-.02-.1-.02-.18,0-.07,0-.12.02-.16.01-.04.03-.08.04-.1.02-.03.04-.04.07-.06.02-.01.05-.02.08-.02h.58c.23,0,.43-.03.61-.09.18-.06.33-.14.46-.25.12-.11.22-.24.29-.4s.1-.33.1-.51c0-.14-.02-.27-.07-.4-.04-.13-.11-.24-.2-.33-.09-.09-.2-.17-.34-.22-.14-.05-.3-.08-.48-.08-.2,0-.38.03-.55.09-.17.06-.32.12-.45.19-.13.07-.24.13-.33.19-.09.06-.15.09-.18.09-.02,0-.05,0-.07-.01-.02,0-.03-.03-.05-.05-.01-.03-.02-.06-.03-.11,0-.05,0-.11,0-.18,0-.05,0-.1,0-.14,0-.04,0-.07.02-.1,0-.03.02-.06.04-.08.01-.02.04-.05.07-.08.03-.03.1-.08.2-.14.1-.06.22-.12.37-.18.15-.06.32-.11.51-.15s.4-.06.62-.06c.31,0,.58.04.82.12.23.08.43.19.59.34.16.14.27.32.35.52.08.2.12.42.12.67,0,.21-.03.41-.08.59-.06.18-.14.34-.24.48s-.24.26-.39.36c-.16.1-.33.17-.54.2h0c.23.03.44.09.63.18.19.09.36.21.49.34s.25.3.32.48c.08.18.12.38.12.59Z" style="fill:#616161;"/><path d="m198.52,21.91c0,.07,0,.12-.02.17-.01.05-.02.08-.04.12-.02.03-.04.05-.06.07-.02.01-.05.02-.08.02h-1.7v1.88s0,.05-.02.07-.04.04-.06.05c-.03.01-.07.02-.12.03-.05,0-.11.01-.18.01s-.13,0-.18-.01c-.05,0-.09-.02-.12-.03-.03-.01-.05-.03-.06-.05s-.02-.04-.02-.07v-1.88h-1.7s-.06,0-.08-.02c-.02-.01-.04-.04-.06-.07-.02-.03-.03-.07-.04-.12-.01-.05-.02-.1-.02-.17,0-.06,0-.12.02-.16.01-.05.02-.09.04-.12.02-.03.04-.05.06-.07s.05-.02.07-.02h1.7v-1.88s0-.05.02-.07.04-.04.06-.06c.03-.02.07-.03.12-.04s.11-.01.18-.01.13,0,.18.01.09.02.12.04c.03.02.05.03.06.06s.02.05.02.07v1.88h1.7s.05,0,.07.02.04.04.06.07c.02.03.03.07.04.12,0,.05.01.1.01.16Z" style="fill:#616161;"/><path d="m203.66,24.5c0,.06,0,.12-.01.17,0,.05-.02.09-.04.12-.02.03-.04.06-.06.07-.03.02-.05.02-.09.02h-3.7s-.09,0-.13-.02c-.04-.01-.07-.03-.09-.06-.03-.03-.04-.07-.06-.12-.01-.05-.02-.12-.02-.19,0-.07,0-.13,0-.18s.02-.1.03-.14c.02-.04.04-.08.07-.12.03-.04.06-.08.1-.13l1.34-1.38c.31-.32.56-.6.74-.85.19-.25.33-.48.43-.69.1-.21.17-.4.2-.56.03-.17.05-.33.05-.48s-.02-.29-.07-.42-.12-.25-.22-.35-.21-.18-.35-.24-.31-.09-.49-.09c-.22,0-.41.03-.58.09-.17.06-.32.12-.45.19-.13.07-.24.13-.33.19-.09.06-.15.09-.19.09-.02,0-.05,0-.07-.02s-.04-.04-.05-.07c-.01-.03-.02-.07-.03-.12,0-.05-.01-.11-.01-.19,0-.05,0-.1,0-.13,0-.04,0-.07.02-.1,0-.03.02-.05.03-.08.01-.02.04-.05.08-.09.04-.04.11-.09.21-.15s.23-.12.38-.18c.15-.06.32-.11.51-.15.18-.04.38-.06.58-.06.32,0,.61.05.85.14.24.09.44.22.6.38.16.16.28.34.36.55.08.21.12.43.12.67,0,.21-.02.43-.06.64-.04.21-.12.44-.24.69-.12.25-.3.52-.53.82s-.54.65-.92,1.04l-1.06,1.11h2.91s.05,0,.08.02c.03.02.05.04.07.07.02.03.03.07.04.12,0,.05.01.1.01.16Z" style="fill:#616161;"/><path d="m263.23,64.56c0,.07,0,.12-.02.17-.01.05-.02.08-.04.12-.02.03-.04.05-.06.07-.02.01-.05.02-.08.02h-1.7v1.88s0,.05-.02.07-.04.04-.06.05-.07.02-.12.03c-.05,0-.11.01-.18.01s-.13,0-.18-.01c-.05,0-.09-.02-.12-.03s-.05-.03-.06-.05-.02-.04-.02-.07v-1.88h-1.7s-.06,0-.08-.02c-.02-.01-.04-.04-.06-.07-.02-.03-.03-.07-.04-.12,0-.05-.02-.1-.02-.17,0-.06,0-.12.02-.16.01-.05.02-.09.04-.12.02-.03.04-.05.06-.07s.05-.02.07-.02h1.7v-1.88s0-.05.02-.07.04-.04.06-.06.07-.03.12-.04.11-.01.18-.01.13,0,.18.01c.05,0,.09.02.12.04s.05.03.06.06.02.05.02.07v1.88h1.7s.05,0,.07.02.04.04.06.07c.02.03.03.07.04.12,0,.05.01.1.01.16Z" style="fill:#616161;"/><path d="m268.37,67.16c0,.06,0,.12-.01.17s-.02.09-.04.12-.04.06-.06.07c-.03.02-.05.02-.09.02h-3.7s-.09,0-.13-.02-.07-.03-.09-.06c-.03-.03-.04-.07-.06-.12-.01-.05-.02-.12-.02-.19,0-.07,0-.13,0-.18,0-.05.02-.1.04-.14.02-.04.04-.08.07-.12s.06-.08.1-.13l1.34-1.38c.31-.32.56-.6.74-.85.19-.25.33-.48.43-.69.1-.21.17-.4.2-.56s.05-.33.05-.48-.03-.29-.08-.42-.12-.25-.22-.35c-.09-.1-.21-.18-.35-.24-.14-.06-.31-.09-.49-.09-.22,0-.41.03-.58.09-.17.06-.32.12-.45.19-.13.07-.24.13-.33.19s-.15.09-.19.09c-.03,0-.05,0-.07-.02s-.04-.04-.05-.07c-.01-.03-.02-.07-.03-.12s-.01-.11-.01-.19c0-.05,0-.1,0-.13,0-.04,0-.07.02-.1,0-.03.02-.05.03-.08.01-.02.04-.05.08-.09s.11-.09.21-.15.23-.12.38-.18c.15-.06.32-.11.51-.15.18-.04.38-.06.58-.06.32,0,.61.05.85.14.24.09.44.22.6.38.16.16.28.34.36.55.08.21.12.43.12.67,0,.21-.02.43-.06.64-.04.21-.12.44-.24.69-.12.25-.3.52-.53.82-.23.3-.54.65-.92,1.04l-1.06,1.11h2.91s.05,0,.08.02c.03.02.05.04.07.07.02.03.03.07.04.12,0,.05.01.1.01.16Z" style="fill:#616161;"/><path d="m236.39,89.87c0,.07,0,.12-.02.17,0,.05-.02.08-.04.12-.02.03-.04.05-.06.07-.02.01-.05.02-.08.02h-1.7v1.88s0,.05-.02.07c-.01.02-.04.04-.06.05-.03.01-.07.02-.12.03-.05,0-.11.01-.18.01s-.13,0-.18-.01-.09-.02-.12-.03c-.03-.01-.05-.03-.07-.05-.01-.02-.02-.04-.02-.07v-1.88h-1.7s-.06,0-.08-.02-.04-.04-.06-.07-.03-.07-.04-.12c-.01-.05-.02-.1-.02-.17s0-.12.02-.16c0-.05.02-.08.04-.12s.04-.05.06-.07.05-.02.08-.02h1.7v-1.88s0-.05.02-.07.04-.04.07-.06c.03-.02.07-.03.12-.04s.11-.01.18-.01.13,0,.18.01c.05,0,.09.02.12.04.03.02.05.04.06.06s.02.05.02.07v1.88h1.7s.05,0,.08.02.04.04.06.07c.02.03.03.07.04.12s.01.1.01.16Z" style="fill:#616161;"/><path d="m241.53,92.46c0,.06,0,.12-.01.17,0,.05-.02.09-.04.12-.02.03-.04.06-.06.07-.03.02-.05.02-.08.02h-3.7s-.09,0-.13-.02c-.04-.01-.07-.03-.09-.06-.03-.03-.04-.07-.06-.12s-.02-.12-.02-.19c0-.07,0-.13,0-.18,0-.05.02-.1.03-.14.02-.04.04-.08.07-.12.03-.04.06-.08.1-.13l1.34-1.38c.31-.32.56-.6.74-.85.19-.25.33-.48.43-.69.1-.21.17-.39.2-.56.03-.17.05-.33.05-.48s-.02-.29-.07-.42-.12-.25-.22-.35c-.09-.1-.21-.18-.36-.24-.14-.06-.31-.09-.49-.09-.22,0-.41.03-.58.09s-.32.12-.45.19-.24.13-.33.19c-.09.06-.15.09-.19.09-.02,0-.05,0-.07-.02s-.04-.04-.05-.07c-.01-.03-.02-.07-.03-.12,0-.05,0-.11,0-.19,0-.05,0-.1,0-.13,0-.04,0-.07.02-.1,0-.03.02-.05.03-.08.01-.02.04-.05.08-.09.04-.04.11-.09.21-.15.1-.06.23-.12.38-.18s.32-.11.51-.15c.18-.04.38-.06.58-.06.32,0,.61.05.85.14.24.09.44.22.61.38.16.16.28.34.36.55.08.21.12.43.12.67,0,.21-.02.43-.06.64-.04.21-.12.44-.24.69-.12.25-.3.52-.53.82-.23.3-.54.65-.92,1.04l-1.06,1.11h2.91s.05,0,.08.02c.03.02.05.04.07.07.02.03.03.07.04.12,0,.05.01.1.01.16Z" style="fill:#616161;"/><path d="m293.47,17.66c0,.07,0,.12-.02.17-.01.05-.02.08-.04.12-.02.03-.04.05-.06.07-.02.01-.05.02-.08.02h-1.7v1.88s0,.05-.02.07-.04.04-.06.05-.07.02-.12.03c-.05,0-.11.01-.18.01s-.13,0-.18-.01c-.05,0-.09-.02-.12-.03s-.05-.03-.06-.05-.02-.04-.02-.07v-1.88h-1.7s-.06,0-.08-.02c-.02-.01-.04-.04-.06-.07-.02-.03-.03-.07-.04-.12,0-.05-.02-.1-.02-.17,0-.06,0-.12.02-.16.01-.05.02-.09.04-.12.02-.03.04-.05.06-.07s.05-.02.07-.02h1.7v-1.88s0-.05.02-.07.04-.04.06-.06.07-.03.12-.04.11-.01.18-.01.13,0,.18.01c.05,0,.09.02.12.04s.05.03.06.06.02.05.02.07v1.88h1.7s.05,0,.07.02.04.04.06.07c.02.03.03.07.04.12,0,.05.01.1.01.16Z" style="fill:#616161;"/><path d="m298.61,20.26c0,.06,0,.12-.01.17s-.02.09-.04.12-.04.06-.06.07c-.03.02-.05.02-.09.02h-3.7s-.09,0-.13-.02-.07-.03-.09-.06c-.03-.03-.04-.07-.06-.12-.01-.05-.02-.12-.02-.19,0-.07,0-.13,0-.18,0-.05.02-.1.04-.14.02-.04.04-.08.07-.12s.06-.08.1-.13l1.34-1.38c.31-.32.56-.6.74-.85.19-.25.33-.48.43-.69.1-.21.17-.4.2-.56s.05-.33.05-.48-.03-.29-.08-.42-.12-.25-.22-.35c-.09-.1-.21-.18-.35-.24-.14-.06-.31-.09-.49-.09-.22,0-.41.03-.58.09-.17.06-.32.12-.45.19-.13.07-.24.13-.33.19s-.15.09-.19.09c-.03,0-.05,0-.07-.02s-.04-.04-.05-.07c-.01-.03-.02-.07-.03-.12s-.01-.11-.01-.19c0-.05,0-.1,0-.13,0-.04,0-.07.02-.1,0-.03.02-.05.03-.08.01-.02.04-.05.08-.09s.11-.09.21-.15.23-.12.38-.18c.15-.06.32-.11.51-.15.18-.04.38-.06.58-.06.32,0,.61.05.85.14.24.09.44.22.6.38.16.16.28.34.36.55.08.21.12.43.12.67,0,.21-.02.43-.06.64-.04.21-.12.44-.24.69-.12.25-.3.52-.53.82-.23.3-.54.65-.92,1.04l-1.06,1.11h2.91s.05,0,.08.02c.03.02.05.04.07.07.02.03.03.07.04.12,0,.05.01.1.01.16Z" style="fill:#616161;"/><path d="m382.36,50.99c0,.07,0,.12-.02.17-.01.05-.02.08-.04.12-.02.03-.04.05-.06.07-.02.01-.05.02-.08.02h-1.7v1.88s0,.05-.02.07-.04.04-.06.05-.07.02-.12.03c-.05,0-.11.01-.18.01s-.13,0-.18-.01c-.05,0-.09-.02-.12-.03s-.05-.03-.06-.05-.02-.04-.02-.07v-1.88h-1.7s-.06,0-.08-.02c-.02-.01-.04-.04-.06-.07-.02-.03-.03-.07-.04-.12,0-.05-.02-.1-.02-.17,0-.06,0-.12.02-.16.01-.05.02-.09.04-.12.02-.03.04-.05.06-.07s.05-.02.07-.02h1.7v-1.88s0-.05.02-.07.04-.04.06-.06.07-.03.12-.04.11-.01.18-.01.13,0,.18.01c.05,0,.09.02.12.04s.05.03.06.06.02.05.02.07v1.88h1.7s.05,0,.07.02.04.04.06.07c.02.03.03.07.04.12,0,.05.01.1.01.16Z" style="fill:#616161;"/><path d="m387.5,53.58c0,.06,0,.12-.01.17s-.02.09-.04.12-.04.06-.06.07c-.03.02-.05.02-.09.02h-3.7s-.09,0-.13-.02-.07-.03-.09-.06c-.03-.03-.04-.07-.06-.12-.01-.05-.02-.12-.02-.19,0-.07,0-.13,0-.18,0-.05.02-.1.04-.14.02-.04.04-.08.07-.12s.06-.08.1-.13l1.34-1.38c.31-.32.56-.6.74-.85.19-.25.33-.48.43-.69.1-.21.17-.4.2-.56s.05-.33.05-.48-.03-.29-.08-.42-.12-.25-.22-.35c-.09-.1-.21-.18-.35-.24-.14-.06-.31-.09-.49-.09-.22,0-.41.03-.58.09-.17.06-.32.12-.45.19-.13.07-.24.13-.33.19s-.15.09-.19.09c-.03,0-.05,0-.07-.02s-.04-.04-.05-.07c-.01-.03-.02-.07-.03-.12s-.01-.11-.01-.19c0-.05,0-.1,0-.13,0-.04,0-.07.02-.1,0-.03.02-.05.03-.08.01-.02.04-.05.08-.09s.11-.09.21-.15.23-.12.38-.18c.15-.06.32-.11.51-.15.18-.04.38-.06.58-.06.32,0,.61.05.85.14.24.09.44.22.6.38.16.16.28.34.36.55.08.21.12.43.12.67,0,.21-.02.43-.06.64-.04.21-.12.44-.24.69-.12.25-.3.52-.53.82-.23.3-.54.65-.92,1.04l-1.06,1.11h2.91s.05,0,.08.02c.03.02.05.04.07.07.02.03.03.07.04.12,0,.05.01.1.01.16Z" style="fill:#616161;"/><path d="m431.7,108.75c0,.07,0,.12-.02.17-.01.05-.02.08-.04.12-.02.03-.04.05-.06.07-.02.01-.05.02-.08.02h-1.7v1.88s0,.05-.02.07c-.01.02-.04.04-.06.05s-.07.02-.12.03c-.05,0-.11.01-.18.01s-.13,0-.18-.01-.09-.02-.12-.03-.05-.03-.06-.05c-.01-.02-.02-.04-.02-.07v-1.88h-1.7s-.06,0-.08-.02-.04-.04-.06-.07c-.02-.03-.03-.07-.04-.12,0-.05-.02-.1-.02-.17s0-.12.02-.16c.01-.05.02-.08.04-.12.02-.03.04-.05.06-.07s.05-.02.07-.02h1.7v-1.88s0-.05.02-.07.04-.04.06-.06.07-.03.12-.04.11-.01.18-.01.13,0,.18.01c.05,0,.09.02.12.04s.05.04.06.06.02.05.02.07v1.88h1.7s.05,0,.07.02.04.04.06.07.03.07.04.12c0,.05.01.1.01.16Z" style="fill:#616161;"/><path d="m436.84,111.35c0,.06,0,.12-.01.17,0,.05-.02.09-.04.12-.02.03-.04.06-.06.07-.03.02-.05.02-.09.02h-3.7s-.09,0-.13-.02c-.04-.01-.07-.03-.09-.06-.03-.03-.04-.07-.06-.12-.01-.05-.02-.12-.02-.19,0-.07,0-.13,0-.18,0-.05.02-.1.04-.14.02-.04.04-.08.07-.12.03-.04.06-.08.1-.13l1.34-1.38c.31-.32.56-.6.74-.85.19-.25.33-.48.43-.69s.17-.39.2-.56.05-.33.05-.48-.03-.29-.08-.42-.12-.25-.22-.35c-.09-.1-.21-.18-.35-.24-.14-.06-.31-.09-.49-.09-.22,0-.41.03-.58.09-.17.06-.32.12-.45.19s-.24.13-.33.19-.15.09-.19.09c-.03,0-.05,0-.07-.02s-.04-.04-.05-.07-.02-.07-.03-.12-.01-.11-.01-.19c0-.05,0-.1,0-.13,0-.04,0-.07.02-.1s.02-.05.03-.08c.01-.02.04-.05.08-.09s.11-.09.21-.15c.1-.06.23-.12.38-.18s.32-.11.51-.15c.18-.04.38-.06.58-.06.32,0,.61.05.85.14.24.09.44.22.6.38.16.16.28.34.36.55s.12.43.12.67c0,.21-.02.43-.06.64-.04.21-.12.44-.24.69-.12.25-.3.52-.53.82-.23.3-.54.65-.92,1.04l-1.06,1.11h2.91s.05,0,.08.02c.03.02.05.04.07.07.02.03.03.07.04.12,0,.05.01.1.01.16Z" style="fill:#616161;"/><path d="m121.83,65.56c0,.07,0,.12-.02.17-.01.05-.02.08-.04.12-.02.03-.04.05-.06.07-.02.01-.05.02-.08.02h-1.7v1.88s0,.05-.02.07-.04.04-.06.05c-.03.01-.07.02-.12.03-.05,0-.11.01-.18.01s-.13,0-.18-.01c-.05,0-.09-.02-.12-.03-.03-.01-.05-.03-.06-.05s-.02-.04-.02-.07v-1.88h-1.7s-.06,0-.08-.02c-.02-.01-.04-.04-.06-.07-.02-.03-.03-.07-.04-.12-.01-.05-.02-.1-.02-.17,0-.06,0-.12.02-.16.01-.05.02-.09.04-.12.02-.03.04-.05.06-.07s.05-.02.07-.02h1.7v-1.88s0-.05.02-.07.04-.04.06-.06c.03-.02.07-.03.12-.04s.11-.01.18-.01.13,0,.18.01.09.02.12.04c.03.02.05.03.06.06s.02.05.02.07v1.88h1.7s.05,0,.07.02.04.04.06.07c.02.03.03.07.04.12,0,.05.01.1.01.16Z" style="fill:#616161;"/><path d="m126.98,68.19c0,.07,0,.12-.02.17-.01.04-.02.08-.04.11-.02.03-.04.05-.06.06s-.05.02-.07.02h-3.5s-.05,0-.07-.02c-.02-.01-.04-.03-.06-.06-.02-.03-.03-.06-.04-.11-.01-.04-.02-.1-.02-.17,0-.06,0-.12.02-.16.01-.04.02-.08.04-.11s.03-.05.06-.07c.02-.02.05-.02.07-.02h1.4v-5.09l-1.29.77c-.07.03-.12.06-.16.06s-.07,0-.1-.02c-.02-.02-.04-.06-.05-.11,0-.05-.01-.12-.01-.2,0-.06,0-.11,0-.15,0-.04.01-.08.02-.1.01-.03.03-.05.04-.07.02-.02.04-.04.08-.06l1.54-.99s.03-.02.05-.03c.02,0,.05-.01.08-.02.03,0,.07-.01.11-.01.04,0,.09,0,.16,0,.08,0,.15,0,.21.01s.1.02.13.03c.03.01.05.03.06.05.01.02.02.04.02.06v5.88h1.21s.05,0,.08.02c.02.02.04.04.06.07.02.03.03.07.04.11,0,.04.01.1.01.16Z" style="fill:#616161;"/></svg>