<?xml version="1.0" encoding="UTF-8"?><svg xmlns="http://www.w3.org/2000/svg" width="800" viewBox="0 0 451.05 164.94"><path d="m5.5,76.48c-.53,0-1.02.34-1.19.87-.21.66.15,1.36.81,1.57l115.8,36.85-.91,2.86,17.49,1.1-14.91-9.2-.91,2.86L5.88,76.53c-.13-.04-.25-.06-.38-.06h0Z" style="fill:#616161; opacity:.8;"/><path d="m130.5,38.73l-2.77,17.3h0l2.99-.26,5.54,64.06c.06.65.6,1.14,1.24,1.14h.11c.69-.06,1.2-.67,1.14-1.35l-5.54-64.06,2.99-.26-5.7-16.57h0Z" style="fill:#616161; opacity:.8;"/><path d="m211.09,23.75l.39,2.97h0l-81.15,10.76c-.68.09-1.17.72-1.07,1.4.08.63.62,1.09,1.24,1.09.05,0,.11,0,.17,0l81.15-10.76.39,2.97,16.29-6.45-17.41-1.98h0Z" style="fill:#616161; opacity:.8;"/><path d="m130.5,37.48c-.34,0-.68.14-.93.41-.46.51-.42,1.3.09,1.77l77.36,69.63h0l-2.01,2.23,15.48,8.21-9.79-14.53-2.01,2.23h0l-77.36-69.63c-.24-.21-.54-.32-.84-.32h0Z" style="fill:#616161; opacity:.8;"/><path d="m203.5,115.48v3h-66c-.69,0-1.25.56-1.25,1.25s.56,1.25,1.25,1.25h66v3l17-4.25-17-4.25Z" style="fill:#616161; opacity:.8;"/><path d="m228.5,24.48c-.23,0-.46.06-.66.19-.59.37-.76,1.14-.4,1.72l30.99,49.58-2.54,1.59,12.61,12.16-5.41-16.67-2.54,1.59-30.99-49.58c-.24-.38-.64-.59-1.06-.59h0Z" style="fill:#616161; opacity:.8;"/><path d="m130.5,37.48c-.51,0-.99.31-1.17.82-.24.65.09,1.37.74,1.61l122.05,45.11h0l-1.04,2.81,17.42,1.91-14.47-9.88-1.04,2.81h0l-122.05-45.11c-.14-.05-.29-.08-.43-.08h-.01Z" style="fill:#616161; opacity:.8;"/><path d="m306.41,19.83l.06,3-78,1.64c-.69,0-1.24.59-1.22,1.28,0,.68.57,1.22,1.25,1.22h.03l78-1.64.06,3,16.91-4.61-17.09-3.89Z" style="fill:#616161; opacity:.8;"/><path d="m323.5,22.48c-.42,0-.83.21-1.07.6-.36.59-.18,1.36.41,1.72l63.52,39.09-1.57,2.55,16.71,5.29-12.25-12.53-1.57,2.55h0l-63.52-39.09c-.2-.13-.43-.19-.65-.19h0Z" style="fill:#616161; opacity:.8;"/><path d="m220.5,118.48c-.57,0-1.08.39-1.22.96-.16.67.26,1.34.93,1.5l68.45,16.11-.69,2.92,17.52-.24-15.57-8.03-.69,2.92-68.45-16.11c-.1-.02-.19-.03-.29-.03h.01Z" style="fill:#616161; opacity:.8;"/><path d="m268.5,89.73l6.7,16.19,2.41-1.78,26.89,36.33c.25.33.62.51,1.01.51.26,0,.52-.08.74-.25.55-.41.67-1.19.26-1.75l-26.89-36.33h0l2.41-1.78-13.53-11.14Z" style="fill:#616161; opacity:.8;"/><path d="m418.32,130.26l.14,3-113.02,5.22c-.69.03-1.22.62-1.19,1.31.03.67.58,1.19,1.25,1.19h.06l113.02-5.22.14,3,16.79-5.03-17.18-3.46h-.01Z" style="fill:#616161; opacity:.8;"/><path d="m401.5,70.48c-.2,0-.41.05-.6.15-.61.33-.83,1.09-.49,1.7l25.83,47.09-2.63,1.44,11.9,12.86-4.45-16.95-2.63,1.44-25.83-47.09c-.23-.41-.66-.65-1.1-.65h0Z" style="fill:#616161; opacity:.8;"/><path d="m268.5,88.48c-.64,0-1.19.49-1.24,1.14-.06.69.45,1.29,1.14,1.35l54.06,4.57-.25,2.99,17.3-2.8-16.58-5.67-.25,2.99-54.06-4.57h-.12Z" style="fill:#616161; opacity:.8;"/><path d="m323.5,22.48c-.09,0-.18,0-.27.03-.67.15-1.1.82-.95,1.49l12.31,55.4h0l-2.93.65,7.84,15.67.46-17.52h0l-2.93.65h0l-12.31-55.4c-.13-.58-.65-.98-1.22-.98h0Z" style="fill:#616161; opacity:.8;"/><path d="m339.5,95.73l14.24,10.21,1.1-2.79,80.19,31.74c.15.06.31.09.46.09.5,0,.97-.3,1.16-.79.25-.64-.06-1.37-.7-1.62l-80.19-31.74,1.1-2.79-17.37-2.31h.01Z" style="fill:#616161; opacity:.8;"/><path d="m130.5,38.73l-17.49,1.01.89,2.86L5.13,76.53c-.66.21-1.03.91-.82,1.57.17.54.66.88,1.19.88.12,0,.25-.02.37-.06l108.77-33.94.89,2.86,14.96-9.12h.01Z" style="fill:#616161; opacity:.8;"/><path d="m10.5,77.73c0,2.76-2.24,5-5,5s-5-2.24-5-5,2.24-5,5-5,5,2.24,5,5Z" style="fill:#c6f;"/><path d="m10.5,77.73c0,2.76-2.24,5-5,5s-5-2.24-5-5,2.24-5,5-5,5,2.24,5,5Z" style="fill:none; stroke:#7a3c99; stroke-linecap:round; stroke-linejoin:round;"/><g style="isolation:isolate;"><g style="isolation:isolate;"><path d="m9.48,67.73l4.4-11.45h1.63l4.69,11.45h-1.73l-1.34-3.47h-4.79l-1.26,3.47h-1.61Zm3.3-4.7h3.88l-1.2-3.17c-.36-.96-.64-1.75-.81-2.38-.15.73-.35,1.46-.62,2.19l-1.26,3.36Z" style="fill:#c6f;"/></g></g><path d="m142.5,119.73c0,2.76-2.24,5-5,5s-5-2.24-5-5,2.24-5,5-5,5,2.24,5,5Z" style="fill:#09f;"/><path d="m142.5,119.73c0,2.76-2.24,5-5,5s-5-2.24-5-5,2.24-5,5-5,5,2.24,5,5Z" style="fill:none; stroke:#005b99; stroke-linecap:round; stroke-linejoin:round;"/><g style="isolation:isolate;"><g style="isolation:isolate;"><path d="m145.67,112.73v-11.45h4.3c.88,0,1.58.12,2.11.35s.94.59,1.24,1.07.45.99.45,1.51c0,.49-.13.95-.4,1.38s-.67.78-1.2,1.05c.69.2,1.23.55,1.6,1.04s.56,1.07.56,1.73c0,.54-.11,1.04-.34,1.5s-.51.82-.84,1.07-.75.44-1.25.57-1.12.19-1.85.19h-4.37Zm1.52-6.64h2.48c.67,0,1.15-.04,1.45-.13.39-.11.68-.3.87-.57s.29-.6.29-1c0-.38-.09-.71-.27-1s-.44-.49-.78-.59-.92-.16-1.74-.16h-2.29v3.46Zm0,5.29h2.85c.49,0,.83-.02,1.03-.05.35-.06.64-.17.88-.31s.43-.36.58-.64.23-.6.23-.96c0-.43-.11-.8-.33-1.11s-.52-.54-.91-.66-.95-.19-1.68-.19h-2.65v3.94Z" style="fill:#09f;"/></g></g><path d="m225.5,119.73c0,2.76-2.24,5-5,5s-5-2.24-5-5,2.24-5,5-5,5,2.24,5,5Z" style="fill:#09f;"/><path d="m225.5,119.73c0,2.76-2.24,5-5,5s-5-2.24-5-5,2.24-5,5-5,5,2.24,5,5Z" style="fill:none; stroke:#005b99; stroke-linecap:round; stroke-linejoin:round;"/><g style="isolation:isolate;"><g style="isolation:isolate;"><path d="m232.91,106.71l1.52.38c-.32,1.25-.89,2.19-1.71,2.85s-1.83.98-3.03.98-2.24-.25-3.01-.75-1.36-1.23-1.77-2.18-.61-1.98-.61-3.07c0-1.19.23-2.23.68-3.12s1.1-1.56,1.95-2.02,1.77-.69,2.78-.69c1.15,0,2.11.29,2.89.88s1.33,1.4,1.63,2.46l-1.49.35c-.27-.83-.65-1.44-1.16-1.82s-1.14-.57-1.91-.57c-.88,0-1.62.21-2.21.63s-1.01.99-1.25,1.7-.36,1.44-.36,2.2c0,.97.14,1.82.43,2.55s.73,1.27,1.32,1.63,1.25.54,1.95.54c.85,0,1.57-.25,2.16-.73s.99-1.22,1.2-2.18Z" style="fill:#09f;"/></g></g><path d="m440.5,133.73c0,2.76-2.24,5-5,5s-5-2.24-5-5,2.24-5,5-5,5,2.24,5,5Z" style="fill:#09f;"/><path d="m440.5,133.73c0,2.76-2.24,5-5,5s-5-2.24-5-5,2.24-5,5-5,5,2.24,5,5Z" style="fill:none; stroke:#005b99; stroke-linecap:round; stroke-linejoin:round;"/><g style="isolation:isolate;"><g style="isolation:isolate;"><path d="m440.73,123.73v-11.45h3.95c.89,0,1.57.05,2.04.16.66.15,1.22.42,1.68.82.6.51,1.06,1.16,1.36,1.96s.45,1.7.45,2.72c0,.87-.1,1.64-.3,2.31s-.46,1.23-.78,1.67-.67.79-1.04,1.04-.83.44-1.37.57-1.15.2-1.84.2h-4.13Zm1.52-1.35h2.45c.75,0,1.35-.07,1.78-.21s.77-.34,1.03-.59c.36-.36.64-.84.84-1.45s.3-1.34.3-2.21c0-1.2-.2-2.12-.59-2.76s-.87-1.07-1.43-1.29c-.41-.16-1.06-.23-1.96-.23h-2.41v8.75Z" style="fill:#09f;"/></g></g><path d="m328.5,23.73c0,2.76-2.24,5-5,5s-5-2.24-5-5,2.24-5,5-5,5,2.24,5,5Z" style="fill:#09f;"/><path d="m328.5,23.73c0,2.76-2.24,5-5,5s-5-2.24-5-5,2.24-5,5-5,5,2.24,5,5Z" style="fill:none; stroke:#005b99; stroke-linecap:round; stroke-linejoin:round;"/><g style="isolation:isolate;"><g style="isolation:isolate;"><path d="m328.77,13.73V2.28h8.28v1.35h-6.77v3.51h6.34v1.34h-6.34v3.9h7.03v1.35h-8.55Z" style="fill:#09f;"/></g></g><path d="m233.5,25.73c0,2.76-2.24,5-5,5s-5-2.24-5-5,2.24-5,5-5,5,2.24,5,5Z" style="fill:#09f;"/><path d="m233.5,25.73c0,2.76-2.24,5-5,5s-5-2.24-5-5,2.24-5,5-5,5,2.24,5,5Z" style="fill:none; stroke:#005b99; stroke-linecap:round; stroke-linejoin:round;"/><g style="isolation:isolate;"><g style="isolation:isolate;"><path d="m233.81,15.73V4.28h7.73v1.35h-6.21v3.55h5.38v1.35h-5.38v5.2h-1.52Z" style="fill:#09f;"/></g></g><path d="m273.5,89.73c0,2.76-2.24,5-5,5s-5-2.24-5-5,2.24-5,5-5,5,2.24,5,5Z" style="fill:#09f;"/><path d="m273.5,89.73c0,2.76-2.24,5-5,5s-5-2.24-5-5,2.24-5,5-5,5,2.24,5,5Z" style="fill:none; stroke:#005b99; stroke-linecap:round; stroke-linejoin:round;"/><g style="isolation:isolate;"><g style="isolation:isolate;"><path d="m280.09,76.24v-1.34h4.85s0,4.24,0,4.24c-.75.59-1.51,1.04-2.3,1.34s-1.6.45-2.44.45c-1.12,0-2.15-.24-3.07-.72s-1.61-1.18-2.08-2.09-.7-1.93-.7-3.05.23-2.16.7-3.12,1.14-1.68,2.01-2.15,1.88-.7,3.02-.7c.83,0,1.58.13,2.25.4s1.19.64,1.57,1.12.67,1.1.87,1.88l-1.37.38c-.17-.58-.39-1.04-.64-1.38s-.62-.6-1.09-.8-1-.3-1.58-.3c-.69,0-1.29.11-1.8.32s-.91.49-1.22.83-.55.72-.72,1.13c-.29.71-.44,1.48-.44,2.3,0,1.02.18,1.88.53,2.56s.86,1.2,1.54,1.53,1.39.5,2.14.5c.66,0,1.3-.13,1.92-.38s1.1-.52,1.42-.81v-2.13h-3.37Z" style="fill:#09f;"/></g></g><path d="m310.5,139.73c0,2.76-2.24,5-5,5s-5-2.24-5-5,2.24-5,5-5,5,2.24,5,5Z" style="fill:#09f;"/><path d="m310.5,139.73c0,2.76-2.24,5-5,5s-5-2.24-5-5,2.24-5,5-5,5,2.24,5,5Z" style="fill:none; stroke:#005b99; stroke-linecap:round; stroke-linejoin:round;"/><g style="isolation:isolate;"><g style="isolation:isolate;"><path d="m310.65,159.75v-11.45h1.52v4.7h5.95v-4.7h1.52v11.45h-1.52v-5.4h-5.95v5.4h-1.52Z" style="fill:#09f;"/></g></g><path d="m135.5,38.73c0,2.76-2.24,5-5,5s-5-2.24-5-5,2.24-5,5-5,5,2.24,5,5Z" style="fill:#09f;"/><path d="m135.5,38.73c0,2.76-2.24,5-5,5s-5-2.24-5-5,2.24-5,5-5,5,2.24,5,5Z" style="fill:none; stroke:#005b99; stroke-linecap:round; stroke-linejoin:round;"/><g style="isolation:isolate;"><g style="isolation:isolate;"><path d="m135.99,28.73v-11.45h1.52v11.45h-1.52Z" style="fill:#09f;"/></g></g><path d="m406.5,71.73c0,2.76-2.24,5-5,5s-5-2.24-5-5,2.24-5,5-5,5,2.24,5,5Z" style="fill:#09f;"/><path d="m406.5,71.73c0,2.76-2.24,5-5,5s-5-2.24-5-5,2.24-5,5-5,5,2.24,5,5Z" style="fill:none; stroke:#005b99; stroke-linecap:round; stroke-linejoin:round;"/><g style="isolation:isolate;"><g style="isolation:isolate;"><path d="m414.9,71.9l1.37-.19c.04.88.2,1.47.49,1.8s.7.48,1.21.48c.38,0,.71-.09.98-.26s.47-.41.57-.71.16-.78.16-1.43v-7.89h1.52v7.8c0,.96-.12,1.7-.35,2.23s-.6.93-1.1,1.2-1.09.41-1.77.41c-1,0-1.77-.29-2.31-.87s-.79-1.44-.77-2.58Z" style="fill:#09f;"/></g></g><path d="m344.5,95.73c0,2.76-2.24,5-5,5s-5-2.24-5-5,2.24-5,5-5,5,2.24,5,5Z" style="fill:#f36;"/><path d="m344.5,95.73c0,2.76-2.24,5-5,5s-5-2.24-5-5,2.24-5,5-5,5,2.24,5,5Z" style="fill:none; stroke:#991e3c; stroke-linecap:round; stroke-linejoin:round;"/><g style="isolation:isolate;"><g style="isolation:isolate;"><path d="m349.67,91.73v-11.45h1.52v5.68l5.69-5.68h2.05l-4.8,4.64,5.02,6.81h-2l-4.08-5.8-1.88,1.83v3.97h-1.52Z" style="fill:#f36;"/></g></g></svg>