<svg xmlns="http://www.w3.org/2000/svg" xmlns:xlink="http://www.w3.org/1999/xlink" width="600" height="186.79370" viewBox="0 0 180.838 56.299"><style><![CDATA[.B{stroke-miterlimit:10}.C{stroke-width:.3985}.D{fill:none}.E{stroke:rgb(0%,62.353516%,95.684814%)}.F{overflow:visible}.G{stroke:none}.H{stroke:rgb(0%,0%,0%)}.I{fill:rgb(0%,0%,0%)}.J{fill:rgb(100%,100%,100%)}]]></style><defs><symbol id="A" class="F"><path d="M4.578125-3.1875c0-.796875-.046875-1.59375-.390625-2.328125-.453125-.96875-1.28125-1.125-1.6875-1.125-.609375 0-1.328125.265625-1.75 1.1875-.3125.6875-.359375 1.46875-.359375 2.265625 0 .75.03125 1.640625.453125 2.40625.421875.796875 1.15625 1 1.640625 1 .53125 0 1.296875-.203125 1.734375-1.15625.3125-.6875.359375-1.46875.359375-2.25zM2.484375 0C2.09375 0 1.5-.25 1.328125-1.203125 1.21875-1.796875 1.21875-2.71875 1.21875-3.3125l.078125-1.828125c.1875-1.1875.9375-1.28125 1.1875-1.28125.328125 0 .984375.1875 1.171875 1.171875.109375.5625.109375 1.3125.109375 1.9375 0 .75 0 1.421875-.109375 2.0625C3.5-.296875 2.9375 0 2.484375 0zm0 0" class="G"/></symbol><symbol id="B" class="F"><path d="M6.5625-2.296875c.171875 0 .359375 0 .359375-.203125 0-.1875-.1875-.1875-.359375-.1875H1.171875c-.171875 0-.34375 0-.34375.1875 0 .203125.171875.203125.34375.203125zm0 0" class="G"/></symbol><symbol id="C" class="F"><path d="M1.578125-7.125c0-.171875 0-.359375-.1875-.359375-.203125 0-.203125.1875-.203125.359375v9.265625c0 .171875 0 .359375.203125.359375.1875 0 .1875-.1875.1875-.359375zm0 0" class="G"/></symbol><symbol id="D" class="F"><path d="M4.6875-3.765625c.015625-.046875.03125-.109375.03125-.171875 0-.171875-.109375-.265625-.28125-.265625-.09375 0-.375.0625-.40625.421875-.1875-.359375-.53125-.625-.9375-.625-1.125 0-2.359375 1.390625-2.359375 2.828125C.734375-.59375 1.328125 0 2.046875 0c.59375 0 1.0625-.46875 1.15625-.578125L3.21875-.5625 2.890625.75c-.046875.09375-.375 1.078125-1.4375 1.078125-.1875 0-.515625-.015625-.796875-.109375.296875-.078125.40625-.34375.40625-.515625 0-.15625-.109375-.34375-.375-.34375-.21875 0-.53125.171875-.53125.578125s.359375.609375 1.3125.609375c1.25 0 1.96875-.78125 2.125-1.375zM3.40625-1.28125c-.0625.265625-.296875.515625-.515625.703125-.203125.171875-.515625.359375-.8125.359375-.5 0-.640625-.515625-.640625-.921875 0-.46875.28125-1.65625.5625-2.15625.265625-.484375.6875-.890625 1.109375-.890625.65625 0 .796875.8125.796875.859375s-.015625.109375-.03125.140625zm0 0" class="G"/></symbol><symbol id="E" class="F"><path d="M3.65625-3.984375h.859375c.203125 0 .296875 0 .296875-.203125 0-.109375-.09375-.109375-.265625-.109375H3.71875L3.921875-5.4375l.25-1.03125c.078125-.1875.25-.34375.46875-.34375.03125 0 .296875 0 .484375.1875-.4375.03125-.546875.390625-.546875.53125 0 .234375.1875.359375.375.359375.265625 0 .546875-.234375.546875-.609375 0-.453125-.453125-.6875-.859375-.6875-.34375 0-.96875.1875-1.265625 1.171875-.0625.203125-.09375.3125-.328125 1.5625h-.6875c-.203125 0-.3125 0-.3125.1875 0 .125.09375.125.28125.125h.65625L2.25-.046875c-.1875.96875-.359375 1.875-.875 1.875-.046875 0-.28125 0-.484375-.1875.46875-.03125.5625-.390625.5625-.53125 0-.234375-.1875-.359375-.375-.359375C.8125.75.53125.984375.53125 1.359375c0 .4375.4375.6875.84375.6875.546875 0 .953125-.59375 1.125-.96875.328125-.625.546875-1.828125.5625-1.90625zm0 0" class="G"/></symbol><symbol id="F" class="F"><path d="M6.734375-4.96875c.109375-.0625.1875-.109375.1875-.21875s-.09375-.203125-.203125-.203125c-.03125 0-.046875 0-.171875.078125l-5.53125 2.59375c-.109375.0625-.1875.109375-.1875.21875 0 .125.078125.171875.1875.234375l5.53125 2.59375c.125.078125.140625.078125.171875.078125.109375 0 .203125-.09375.203125-.203125s-.078125-.15625-.1875-.21875L1.5-2.5zm0 0" class="G"/></symbol><clipPath id="G"><path d="M33.726563 31.390625H33.875v.355469h-.148437zm0 0"/></clipPath><clipPath id="H"><path d="M33.726563 31.390625h3.136718v.355469h-3.136718zm0 0"/></clipPath><clipPath id="I"><path d="M34.871094 31.390625h4.980469v.355469h-4.980469zm0 0"/></clipPath><clipPath id="J"><path d="M37.859375 31.390625h4.980469v.355469h-4.980469zm0 0"/></clipPath><clipPath id="K"><path d="M40.847656 31.390625h4.980469v.355469h-4.980469zm0 0"/></clipPath><clipPath id="L"><path d="M43.835938 31.390625h4.980468v.355469h-4.980468zm0 0"/></clipPath><clipPath id="M"><path d="M46.824219 31.390625h4.980469v.355469h-4.980469zm0 0"/></clipPath><clipPath id="N"><path d="M49.8125 31.390625h4.984375v.355469H49.8125zm0 0"/></clipPath><clipPath id="O"><path d="M52.800781 31.390625h4.984375v.355469h-4.984375zm0 0"/></clipPath><clipPath id="P"><path d="M55.792969 31.390625h4.980469v.355469h-4.980469zm0 0"/></clipPath><clipPath id="Q"><path d="M58.78125 31.390625h4.980469v.355469H58.78125zm0 0"/></clipPath><clipPath id="R"><path d="M61.769531 31.390625H66.75v.355469h-4.980469zm0 0"/></clipPath><clipPath id="S"><path d="M64.757813 31.390625h4.980468v.355469h-4.980468zm0 0"/></clipPath><clipPath id="T"><path d="M67.746094 31.390625h4.980469v.355469h-4.980469zm0 0"/></clipPath><clipPath id="U"><path d="M70.734375 31.390625h4.984375v.355469h-4.984375zm0 0"/></clipPath><clipPath id="V"><path d="M73.722656 31.390625h4.984375v.355469h-4.984375zm0 0"/></clipPath><clipPath id="W"><path d="M76.714844 31.390625h4.980469v.355469h-4.980469zm0 0"/></clipPath><clipPath id="X"><path d="M79.703125 31.390625h4.980469v.355469h-4.980469zm0 0"/></clipPath><clipPath id="Y"><path d="M82.691406 31.390625h4.980469v.355469h-4.980469zm0 0"/></clipPath><clipPath id="Z"><path d="M85.679688 31.390625h4.980468v.355469h-4.980468zm0 0"/></clipPath><clipPath id="a"><path d="M88.667969 31.390625h4.980469v.355469h-4.980469zm0 0"/></clipPath><clipPath id="b"><path d="M91.65625 31.390625h4.984375v.355469H91.65625zm0 0"/></clipPath><clipPath id="c"><path d="M94.644531 31.390625h4.984375v.355469h-4.984375zm0 0"/></clipPath><clipPath id="d"><path d="M97.636719 31.390625h4.980469v.355469h-4.980469zm0 0"/></clipPath><clipPath id="e"><path d="M100.625 31.390625h4.980469v.355469H100.625zm0 0"/></clipPath><clipPath id="f"><path d="M103.613281 31.390625h4.980469v.355469h-4.980469zm0 0"/></clipPath><clipPath id="g"><path d="M106.601563 31.390625h4.980468v.355469h-4.980468zm0 0"/></clipPath><clipPath id="h"><path d="M109.589844 31.390625h4.980469v.355469h-4.980469zm0 0"/></clipPath><clipPath id="i"><path d="M112.578125 31.390625h4.984375v.355469h-4.984375zm0 0"/></clipPath><clipPath id="j"><path d="M115.566406 31.390625h4.984375v.355469h-4.984375zm0 0"/></clipPath><clipPath id="k"><path d="M118.558594 31.390625h4.980469v.355469h-4.980469zm0 0"/></clipPath><clipPath id="l"><path d="M121.546875 31.390625h4.980469v.355469h-4.980469zm0 0"/></clipPath><clipPath id="m"><path d="M124.535156 31.390625h4.980469v.355469h-4.980469zm0 0"/></clipPath><clipPath id="n"><path d="M127.523438 31.390625h4.980468v.355469h-4.980468zm0 0"/></clipPath><clipPath id="o"><path d="M130.511719 31.390625h4.980469v.355469h-4.980469zm0 0"/></clipPath><clipPath id="p"><path d="M133.5 31.390625h4.984375v.355469H133.5zm0 0"/></clipPath><clipPath id="q"><path d="M136.488281 31.390625h4.984375v.355469h-4.984375zm0 0"/></clipPath><clipPath id="r"><path d="M139.480469 31.390625h4.980469v.355469h-4.980469zm0 0"/></clipPath><clipPath id="s"><path d="M142.46875 31.390625h4.644531v.355469h-4.644531zm0 0"/></clipPath><clipPath id="t"><path d="M145.457031 31.390625h1.65625v.355469h-1.65625zm0 0"/></clipPath><clipPath id="u"><path d="M33.726563 28.402344H33.875v3.34375h-.148437zm0 0"/></clipPath><clipPath id="v"><path d="M33.726563 28.402344h3.136718v3.34375h-3.136718zm0 0"/></clipPath><clipPath id="w"><path d="M34.871094 28.402344h4.980469v3.34375h-4.980469zm0 0"/></clipPath><clipPath id="x"><path d="M37.859375 28.402344h4.980469v3.34375h-4.980469zm0 0"/></clipPath><clipPath id="y"><path d="M40.847656 28.402344h4.980469v3.34375h-4.980469zm0 0"/></clipPath><clipPath id="z"><path d="M43.835938 28.402344h4.980468v3.34375h-4.980468zm0 0"/></clipPath><clipPath id="AA"><path d="M46.824219 28.402344h4.980469v3.34375h-4.980469zm0 0"/></clipPath><clipPath id="AB"><path d="M49.8125 28.402344h4.984375v3.34375H49.8125zm0 0"/></clipPath><clipPath id="AC"><path d="M52.800781 28.402344h4.984375v3.34375h-4.984375zm0 0"/></clipPath><clipPath id="AD"><path d="M55.792969 28.402344h4.980469v3.34375h-4.980469zm0 0"/></clipPath><clipPath id="AE"><path d="M58.78125 28.402344h4.980469v3.34375H58.78125zm0 0"/></clipPath><clipPath id="AF"><path d="M61.769531 28.402344H66.75v3.34375h-4.980469zm0 0"/></clipPath><clipPath id="AG"><path d="M64.757813 28.402344h4.980468v3.34375h-4.980468zm0 0"/></clipPath><clipPath id="AH"><path d="M67.746094 28.402344h4.980469v3.34375h-4.980469zm0 0"/></clipPath><clipPath id="AI"><path d="M70.734375 28.402344h4.984375v3.34375h-4.984375zm0 0"/></clipPath><clipPath id="AJ"><path d="M73.722656 28.402344h4.984375v3.34375h-4.984375zm0 0"/></clipPath><clipPath id="AK"><path d="M76.714844 28.402344h4.980469v3.34375h-4.980469zm0 0"/></clipPath><clipPath id="AL"><path d="M79.703125 28.402344h4.980469v3.34375h-4.980469zm0 0"/></clipPath><clipPath id="AM"><path d="M82.691406 28.402344h4.980469v3.34375h-4.980469zm0 0"/></clipPath><clipPath id="AN"><path d="M85.679688 28.402344h4.980468v3.34375h-4.980468zm0 0"/></clipPath><clipPath id="AO"><path d="M88.667969 28.402344h4.980469v3.34375h-4.980469zm0 0"/></clipPath><clipPath id="AP"><path d="M91.65625 28.402344h4.984375v3.34375H91.65625zm0 0"/></clipPath><clipPath id="AQ"><path d="M94.644531 28.402344h4.984375v3.34375h-4.984375zm0 0"/></clipPath><clipPath id="AR"><path d="M97.636719 28.402344h4.980469v3.34375h-4.980469zm0 0"/></clipPath><clipPath id="AS"><path d="M100.625 28.402344h4.980469v3.34375H100.625zm0 0"/></clipPath><clipPath id="AT"><path d="M103.613281 28.402344h4.980469v3.34375h-4.980469zm0 0"/></clipPath><clipPath id="AU"><path d="M106.601563 28.402344h4.980468v3.34375h-4.980468zm0 0"/></clipPath><clipPath id="AV"><path d="M109.589844 28.402344h4.980469v3.34375h-4.980469zm0 0"/></clipPath><clipPath id="AW"><path d="M112.578125 28.402344h4.984375v3.34375h-4.984375zm0 0"/></clipPath><clipPath id="AX"><path d="M115.566406 28.402344h4.984375v3.34375h-4.984375zm0 0"/></clipPath><clipPath id="AY"><path d="M118.558594 28.402344h4.980469v3.34375h-4.980469zm0 0"/></clipPath><clipPath id="AZ"><path d="M121.546875 28.402344h4.980469v3.34375h-4.980469zm0 0"/></clipPath><clipPath id="Aa"><path d="M124.535156 28.402344h4.980469v3.34375h-4.980469zm0 0"/></clipPath><clipPath id="Ab"><path d="M127.523438 28.402344h4.980468v3.34375h-4.980468zm0 0"/></clipPath><clipPath id="Ac"><path d="M130.511719 28.402344h4.980469v3.34375h-4.980469zm0 0"/></clipPath><clipPath id="Ad"><path d="M133.5 28.402344h4.984375v3.34375H133.5zm0 0"/></clipPath><clipPath id="Ae"><path d="M136.488281 28.402344h4.984375v3.34375h-4.984375zm0 0"/></clipPath><clipPath id="Af"><path d="M139.480469 28.402344h4.980469v3.34375h-4.980469zm0 0"/></clipPath><clipPath id="Ag"><path d="M142.46875 28.402344h4.644531v3.34375h-4.644531zm0 0"/></clipPath><clipPath id="Ah"><path d="M145.457031 28.402344h1.65625v3.34375h-1.65625zm0 0"/></clipPath><clipPath id="Ai"><path d="M33.726563 27.496094H33.875v2.898437h-.148437zm0 0"/></clipPath><clipPath id="Aj"><path d="M33.726563 27.496094h3.136718v2.898437h-3.136718zm0 0"/></clipPath><clipPath id="Ak"><path d="M34.871094 27.496094h4.980469v2.898437h-4.980469zm0 0"/></clipPath><clipPath id="Al"><path d="M37.859375 27.496094h4.980469v2.898437h-4.980469zm0 0"/></clipPath><clipPath id="Am"><path d="M40.847656 27.496094h4.980469v2.898437h-4.980469zm0 0"/></clipPath><clipPath id="An"><path d="M43.835938 27.496094h4.980468v2.898437h-4.980468zm0 0"/></clipPath><clipPath id="Ao"><path d="M46.824219 27.496094h4.980469v2.898437h-4.980469zm0 0"/></clipPath><clipPath id="Ap"><path d="M49.8125 27.496094h4.984375v2.898437H49.8125zm0 0"/></clipPath><clipPath id="Aq"><path d="M52.800781 27.496094h4.984375v2.898437h-4.984375zm0 0"/></clipPath><clipPath id="Ar"><path d="M55.792969 27.496094h4.980469v2.898437h-4.980469zm0 0"/></clipPath><clipPath id="As"><path d="M58.78125 27.496094h4.980469v2.898437H58.78125zm0 0"/></clipPath><clipPath id="At"><path d="M61.769531 27.496094H66.75v2.898437h-4.980469zm0 0"/></clipPath><clipPath id="Au"><path d="M64.757813 27.496094h4.980468v2.898437h-4.980468zm0 0"/></clipPath><clipPath id="Av"><path d="M67.746094 27.496094h4.980469v2.898437h-4.980469zm0 0"/></clipPath><clipPath id="Aw"><path d="M70.734375 27.496094h4.984375v2.898437h-4.984375zm0 0"/></clipPath><clipPath id="Ax"><path d="M73.722656 27.496094h4.984375v2.898437h-4.984375zm0 0"/></clipPath><clipPath id="Ay"><path d="M76.714844 27.496094h4.980469v2.898437h-4.980469zm0 0"/></clipPath><clipPath id="Az"><path d="M79.703125 27.496094h4.980469v2.898437h-4.980469zm0 0"/></clipPath><clipPath id="BA"><path d="M82.691406 27.496094h4.980469v2.898437h-4.980469zm0 0"/></clipPath><clipPath id="BB"><path d="M85.679688 27.496094h4.980468v2.898437h-4.980468zm0 0"/></clipPath><clipPath id="BC"><path d="M88.667969 27.496094h4.980469v2.898437h-4.980469zm0 0"/></clipPath><clipPath id="BD"><path d="M91.65625 27.496094h4.984375v2.898437H91.65625zm0 0"/></clipPath><clipPath id="BE"><path d="M94.644531 27.496094h4.984375v2.898437h-4.984375zm0 0"/></clipPath><clipPath id="BF"><path d="M97.636719 27.496094h4.980469v2.898437h-4.980469zm0 0"/></clipPath><clipPath id="BG"><path d="M100.625 27.496094h4.980469v2.898437H100.625zm0 0"/></clipPath><clipPath id="BH"><path d="M103.613281 27.496094h4.980469v2.898437h-4.980469zm0 0"/></clipPath><clipPath id="BI"><path d="M106.601563 27.496094h4.980468v2.898437h-4.980468zm0 0"/></clipPath><clipPath id="BJ"><path d="M109.589844 27.496094h4.980469v2.898437h-4.980469zm0 0"/></clipPath><clipPath id="BK"><path d="M112.578125 27.496094h4.984375v2.898437h-4.984375zm0 0"/></clipPath><clipPath id="BL"><path d="M115.566406 27.496094h4.984375v2.898437h-4.984375zm0 0"/></clipPath><clipPath id="BM"><path d="M118.558594 27.496094h4.980469v2.898437h-4.980469zm0 0"/></clipPath><clipPath id="BN"><path d="M121.546875 27.496094h4.980469v2.898437h-4.980469zm0 0"/></clipPath><clipPath id="BO"><path d="M124.535156 27.496094h4.980469v2.898437h-4.980469zm0 0"/></clipPath><clipPath id="BP"><path d="M127.523438 27.496094h4.980468v2.898437h-4.980468zm0 0"/></clipPath><clipPath id="BQ"><path d="M130.511719 27.496094h4.980469v2.898437h-4.980469zm0 0"/></clipPath><clipPath id="BR"><path d="M133.5 27.496094h4.984375v2.898437H133.5zm0 0"/></clipPath><clipPath id="BS"><path d="M136.488281 27.496094h4.984375v2.898437h-4.984375zm0 0"/></clipPath><clipPath id="BT"><path d="M139.480469 27.496094h4.980469v2.898437h-4.980469zm0 0"/></clipPath><clipPath id="BU"><path d="M142.46875 27.496094h4.644531v2.898437h-4.644531zm0 0"/></clipPath><clipPath id="BV"><path d="M145.457031 27.496094h1.65625v2.898437h-1.65625zm0 0"/></clipPath><path id="BW" d="M29.88671875 32.386719l3.08984325 3.0898435"/><path id="BX" d="M32.87890625 32.386719l3.08593775 3.0898435"/><path id="BY" d="M35.8671875 32.386719l3.0859375 3.0898435"/><path id="BZ" d="M38.85546875 32.386719l3.08593725 3.0898435"/><path id="Ba" d="M41.84375 32.386719l3.089844 3.0898435"/><path id="Bb" d="M44.83203125 32.386719l3.08984375 3.0898435"/><path id="Bc" d="M47.8203125 32.386719l3.0898435 3.0898435"/><path id="Bd" d="M29.88671875 29.398437l3.08984325 3.0898442"/><path id="Be" d="M32.87890625 29.398437l3.08593775 3.0898442"/><path id="Bf" d="M35.8671875 29.398437l3.0859375 3.0898442"/><path id="Bg" d="M38.85546875 29.398437l3.08593725 3.0898442"/><path id="Bh" d="M41.84375 29.398437l3.089844 3.0898442"/><path id="Bi" d="M44.83203125 29.398437l3.08984375 3.0898442"/><path id="Bj" d="M47.8203125 29.398437l3.0898435 3.0898442"/></defs><g clip-path="url(#G)" class="B C D E"><use xlink:href="#BW"/></g><g clip-path="url(#H)" class="B C D E"><use xlink:href="#BX"/></g><g clip-path="url(#I)" class="B C D E"><use xlink:href="#BY"/></g><g clip-path="url(#J)" class="B C D E"><use xlink:href="#BZ"/></g><g clip-path="url(#K)" class="B C D E"><use xlink:href="#Ba"/></g><g clip-path="url(#L)" class="B C D E"><use xlink:href="#Bb"/></g><g clip-path="url(#M)" class="B C D E"><use xlink:href="#Bc"/></g><g clip-path="url(#N)" class="B C D E"><path d="M50.80859375 32.386719l3.08984325 3.0898435"/></g><g clip-path="url(#O)" class="B C D E"><path d="M53.80078125 32.386719l3.08593775 3.0898435"/></g><g clip-path="url(#P)" class="B C D E"><path d="M56.7890625 32.386719L59.875 35.4765625"/></g><g clip-path="url(#Q)" class="B C D E"><path d="M59.77734375 32.386719l3.08593725 3.0898435"/></g><g clip-path="url(#R)" class="B C D E"><path d="M62.765625 32.386719l3.089844 3.0898435"/></g><g clip-path="url(#S)" class="B C D E"><path d="M65.75390625 32.386719L68.84375 35.4765625"/></g><g clip-path="url(#T)" class="B C D E"><path d="M68.7421875 32.386719l3.0898435 3.0898435"/></g><g clip-path="url(#U)" class="B C D E"><path d="M71.73046875 32.386719l3.08984325 3.0898435"/></g><g clip-path="url(#V)" class="B C D E"><path d="M74.72265625 32.386719l3.08593775 3.0898435"/></g><g clip-path="url(#W)" class="B C D E"><path d="M77.7109375 32.386719l3.0859375 3.0898435"/></g><g clip-path="url(#X)" class="B C D E"><path d="M80.69921875 32.386719l3.08593725 3.0898435"/></g><g clip-path="url(#Y)" class="B C D E"><path d="M83.6875 32.386719l3.089844 3.0898435"/></g><g clip-path="url(#Z)" class="B C D E"><path d="M86.67578125 32.386719l3.08984375 3.0898435"/></g><g clip-path="url(#a)" class="B C D E"><path d="M89.6640625 32.386719l3.0898435 3.0898435"/></g><g clip-path="url(#b)" class="B C D E"><path d="M92.65234375 32.386719l3.08984425 3.0898435"/></g><g clip-path="url(#c)" class="B C D E"><path d="M95.640625 32.386719l3.089844 3.0898435"/></g><g clip-path="url(#d)" class="B C D E"><path d="M98.6328125 32.386719l3.0859375 3.0898435"/></g><g clip-path="url(#e)" class="B C D E"><path d="M101.62109375 32.386719l3.08593725 3.0898435"/></g><g clip-path="url(#f)" class="B C D E"><path d="M104.609375 32.386719l3.089844 3.0898435"/></g><g clip-path="url(#g)" class="B C D E"><path d="M107.59765625 32.386719L110.6875 35.4765625"/></g><g clip-path="url(#h)" class="B C D E"><path d="M110.5859375 32.386719l3.0898435 3.0898435"/></g><g clip-path="url(#i)" class="B C D E"><path d="M113.57421875 32.386719l3.08984325 3.0898435"/></g><g clip-path="url(#j)" class="B C D E"><path d="M116.5625 32.386719l3.089844 3.0898435"/></g><g clip-path="url(#k)" class="B C D E"><path d="M119.5546875 32.386719l3.0859375 3.0898435"/></g><g clip-path="url(#l)" class="B C D E"><path d="M122.54296875 32.386719l3.08593725 3.0898435"/></g><g clip-path="url(#m)" class="B C D E"><path d="M125.53125 32.386719l3.089844 3.0898435"/></g><g clip-path="url(#n)" class="B C D E"><path d="M128.51953125 32.386719l3.08984375 3.0898435"/></g><g clip-path="url(#o)" class="B C D E"><path d="M131.5078125 32.386719l3.0898435 3.0898435"/></g><g clip-path="url(#p)" class="B C D E"><path d="M134.49609375 32.386719l3.08984325 3.0898435"/></g><g clip-path="url(#q)" class="B C D E"><path d="M137.484375 32.386719l3.089844 3.0898435"/></g><g clip-path="url(#r)" class="B C D E"><path d="M140.4765625 32.386719l3.0859375 3.0898435"/></g><g clip-path="url(#s)" class="B C D E"><path d="M143.46484375 32.386719l3.08593725 3.0898435"/></g><g clip-path="url(#t)" class="B C D E"><path d="M146.453125 32.386719l3.089844 3.0898435"/></g><g clip-path="url(#u)" class="B C D E"><use xlink:href="#Bd"/></g><g clip-path="url(#v)" class="B C D E"><use xlink:href="#Be"/></g><g clip-path="url(#w)" class="B C D E"><use xlink:href="#Bf"/></g><g clip-path="url(#x)" class="B C D E"><use xlink:href="#Bg"/></g><g clip-path="url(#y)" class="B C D E"><use xlink:href="#Bh"/></g><g clip-path="url(#z)" class="B C D E"><use xlink:href="#Bi"/></g><g clip-path="url(#AA)" class="B C D E"><use xlink:href="#Bj"/></g><g clip-path="url(#AB)" class="B C D E"><path d="M50.80859375 29.398437l3.08984325 3.0898442"/></g><g clip-path="url(#AC)" class="B C D E"><path d="M53.80078125 29.398437l3.08593775 3.0898442"/></g><g clip-path="url(#AD)" class="B C D E"><path d="M56.7890625 29.398437L59.875 32.4882812"/></g><g clip-path="url(#AE)" class="B C D E"><path d="M59.77734375 29.398437l3.08593725 3.0898442"/></g><g clip-path="url(#AF)" class="B C D E"><path d="M62.765625 29.398437l3.089844 3.0898442"/></g><g clip-path="url(#AG)" class="B C D E"><path d="M65.75390625 29.398437L68.84375 32.4882812"/></g><g clip-path="url(#AH)" class="B C D E"><path d="M68.7421875 29.398437l3.0898435 3.0898442"/></g><g clip-path="url(#AI)" class="B C D E"><path d="M71.73046875 29.398437l3.08984325 3.0898442"/></g><g clip-path="url(#AJ)" class="B C D E"><path d="M74.72265625 29.398437l3.08593775 3.0898442"/></g><g clip-path="url(#AK)" class="B C D E"><path d="M77.7109375 29.398437l3.0859375 3.0898442"/></g><g clip-path="url(#AL)" class="B C D E"><path d="M80.69921875 29.398437l3.08593725 3.0898442"/></g><g clip-path="url(#AM)" class="B C D E"><path d="M83.6875 29.398437l3.089844 3.0898442"/></g><g clip-path="url(#AN)" class="B C D E"><path d="M86.67578125 29.398437l3.08984375 3.0898442"/></g><g clip-path="url(#AO)" class="B C D E"><path d="M89.6640625 29.398437l3.0898435 3.0898442"/></g><g clip-path="url(#AP)" class="B C D E"><path d="M92.65234375 29.398437l3.08984425 3.0898442"/></g><g clip-path="url(#AQ)" class="B C D E"><path d="M95.640625 29.398437l3.089844 3.0898442"/></g><g clip-path="url(#AR)" class="B C D E"><path d="M98.6328125 29.398437l3.0859375 3.0898442"/></g><g clip-path="url(#AS)" class="B C D E"><path d="M101.62109375 29.398437l3.08593725 3.0898442"/></g><g clip-path="url(#AT)" class="B C D E"><path d="M104.609375 29.398437l3.089844 3.0898442"/></g><g clip-path="url(#AU)" class="B C D E"><path d="M107.59765625 29.398437L110.6875 32.4882812"/></g><g clip-path="url(#AV)" class="B C D E"><path d="M110.5859375 29.398437l3.0898435 3.0898442"/></g><g clip-path="url(#AW)" class="B C D E"><path d="M113.57421875 29.398437l3.08984325 3.0898442"/></g><g clip-path="url(#AX)" class="B C D E"><path d="M116.5625 29.398437l3.089844 3.0898442"/></g><g clip-path="url(#AY)" class="B C D E"><path d="M119.5546875 29.398437l3.0859375 3.0898442"/></g><g clip-path="url(#AZ)" class="B C D E"><path d="M122.54296875 29.398437l3.08593725 3.0898442"/></g><g clip-path="url(#Aa)" class="B C D E"><path d="M125.53125 29.398437l3.089844 3.0898442"/></g><g clip-path="url(#Ab)" class="B C D E"><path d="M128.51953125 29.398437l3.08984375 3.0898442"/></g><g clip-path="url(#Ac)" class="B C D E"><path d="M131.5078125 29.398437l3.0898435 3.0898442"/></g><g clip-path="url(#Ad)" class="B C D E"><path d="M134.49609375 29.398437l3.08984325 3.0898442"/></g><g clip-path="url(#Ae)" class="B C D E"><path d="M137.484375 29.398437l3.089844 3.0898442"/></g><g clip-path="url(#Af)" class="B C D E"><path d="M140.4765625 29.398437l3.0859375 3.0898442"/></g><g clip-path="url(#Ag)" class="B C D E"><path d="M143.46484375 29.398437l3.08593725 3.0898442"/></g><g clip-path="url(#Ah)" class="B C D E"><path d="M146.453125 29.398437l3.089844 3.0898442"/></g><g clip-path="url(#Ai)" class="B C D E"><path d="M29.88671875 26.410156L32.976562 29.5"/></g><g clip-path="url(#Aj)" class="B C D E"><path d="M32.87890625 26.410156L35.964844 29.5"/></g><g clip-path="url(#Ak)" class="B C D E"><path d="M35.8671875 26.410156L38.953125 29.5"/></g><g clip-path="url(#Al)" class="B C D E"><path d="M38.85546875 26.410156L41.941406 29.5"/></g><g clip-path="url(#Am)" class="B C D E"><path d="M41.84375 26.410156L44.933594 29.5"/></g><g clip-path="url(#An)" class="B C D E"><path d="M44.83203125 26.410156L47.921875 29.5"/></g><g clip-path="url(#Ao)" class="B C D E"><path d="M47.8203125 26.410156L50.910156 29.5"/></g><g clip-path="url(#Ap)" class="B C D E"><path d="M50.80859375 26.410156L53.898437 29.5"/></g><g clip-path="url(#Aq)" class="B C D E"><path d="M53.80078125 26.410156L56.886719 29.5"/></g><g clip-path="url(#Ar)" class="B C D E"><path d="M56.7890625 26.410156L59.875 29.5"/></g><g clip-path="url(#As)" class="B C D E"><path d="M59.77734375 26.410156L62.863281 29.5"/></g><g clip-path="url(#At)" class="B C D E"><path d="M62.765625 26.410156L65.855469 29.5"/></g><g clip-path="url(#Au)" class="B C D E"><path d="M65.75390625 26.410156L68.84375 29.5"/></g><g clip-path="url(#Av)" class="B C D E"><path d="M68.7421875 26.410156L71.832031 29.5"/></g><g clip-path="url(#Aw)" class="B C D E"><path d="M71.73046875 26.410156L74.820312 29.5"/></g><g clip-path="url(#Ax)" class="B C D E"><path d="M74.72265625 26.410156L77.808594 29.5"/></g><g clip-path="url(#Ay)" class="B C D E"><path d="M77.7109375 26.410156L80.796875 29.5"/></g><g clip-path="url(#Az)" class="B C D E"><path d="M80.69921875 26.410156L83.785156 29.5"/></g><g clip-path="url(#BA)" class="B C D E"><path d="M83.6875 26.410156L86.777344 29.5"/></g><g clip-path="url(#BB)" class="B C D E"><path d="M86.67578125 26.410156L89.765625 29.5"/></g><g clip-path="url(#BC)" class="B C D E"><path d="M89.6640625 26.410156L92.753906 29.5"/></g><g clip-path="url(#BD)" class="B C D E"><path d="M92.65234375 26.410156L95.742188 29.5"/></g><g clip-path="url(#BE)" class="B C D E"><path d="M95.640625 26.410156L98.730469 29.5"/></g><g clip-path="url(#BF)" class="B C D E"><path d="M98.6328125 26.410156L101.71875 29.5"/></g><g clip-path="url(#BG)" class="B C D E"><path d="M101.62109375 26.410156L104.707031 29.5"/></g><g clip-path="url(#BH)" class="B C D E"><path d="M104.609375 26.410156L107.699219 29.5"/></g><g clip-path="url(#BI)" class="B C D E"><path d="M107.59765625 26.410156L110.6875 29.5"/></g><g clip-path="url(#BJ)" class="B C D E"><path d="M110.5859375 26.410156L113.675781 29.5"/></g><g clip-path="url(#BK)" class="B C D E"><path d="M113.57421875 26.410156L116.664062 29.5"/></g><g clip-path="url(#BL)" class="B C D E"><path d="M116.5625 26.410156L119.652344 29.5"/></g><g clip-path="url(#BM)" class="B C D E"><path d="M119.5546875 26.410156L122.640625 29.5"/></g><g clip-path="url(#BN)" class="B C D E"><path d="M122.54296875 26.410156L125.628906 29.5"/></g><g clip-path="url(#BO)" class="B C D E"><path d="M125.53125 26.410156L128.621094 29.5"/></g><g clip-path="url(#BP)" class="B C D E"><path d="M128.51953125 26.410156L131.609375 29.5"/></g><g clip-path="url(#BQ)" class="B C D E"><path d="M131.5078125 26.410156L134.597656 29.5"/></g><g clip-path="url(#BR)" class="B C D E"><path d="M134.49609375 26.410156L137.585937 29.5"/></g><g clip-path="url(#BS)" class="B C D E"><path d="M137.484375 26.410156L140.574219 29.5"/></g><g clip-path="url(#BT)" class="B C D E"><path d="M140.4765625 26.410156L143.5625 29.5"/></g><g clip-path="url(#BU)" class="B C D E"><path d="M143.46484375 26.410156L146.550781 29.5"/></g><g clip-path="url(#BV)" class="B C D E"><path d="M146.453125 26.410156L149.542969 29.5"/></g><g class="D B H"><g stroke-width=".79701"><path d="M5.378906 31.74609375h169.285156"/><path d="M172.511719 28.636719c.464843 1.867187 1.503906 2.746093 2.550781 3.10937475-1.046875.36328125-2.085938 1.24609325-2.550781 3.11328125" stroke-linecap="round" stroke-linejoin="round"/></g><path d="M90.41796875 27.496094V36" class="C"/></g><use xlink:href="#A" x="87.928" y="46.669" class="I"/><path d="M35.71875 31.74609375c0-1.09765675-.894531-1.99218775-1.992188-1.99218775s-1.992187.894531-1.992187 1.99218775S32.625 33.738281 33.726562 33.738281s1.992188-.890625 1.992188-1.99218725zm0 0" class="B C H J"/><g class="I"><use xlink:href="#B" x="27.297" y="46.06"/><use xlink:href="#D" x="35.046" y="46.06"/></g><path d="M149.105469 31.74609375c0-1.09765675-.890625-1.99218775-1.992188-1.99218775s-1.992187.894531-1.992187 1.99218775.890625 1.99218725 1.992187 1.99218725 1.992188-.890625 1.992188-1.99218725zm0 0" class="B C H J"/><g class="I"><use xlink:href="#D" x="144.557" y="44.538"/><use xlink:href="#C" x="75.48" y="15.774"/></g><use xlink:href="#E" x="78.248" y="15.774" fill="rgb(0%,62.353516%,95.684814%)"/><g class="I"><use xlink:href="#C" x="84.198" y="15.774"/><use xlink:href="#F" x="89.732" y="15.774"/><use xlink:href="#D" x="100.250513" y="15.774"/></g></svg>