<svg xmlns="http://www.w3.org/2000/svg" xmlns:xlink="http://www.w3.org/1999/xlink" width="600" height="586.157182106976" viewBox="0 0 157.728 154.089"><style><![CDATA[.B{fill:rgb(0%,0%,0%)}.C{overflow:visible}.D{stroke:none}.E{stroke-miterlimit:10}.F{fill:rgb(50%,50%,50%)}.G{stroke-width:.3985}.H{stroke:rgb(0%,0%,0%)}]]></style><defs><symbol id="A" class="C"><path d="M4.84375-3.796875c.046875-.140625.046875-.15625.046875-.234375 0-.171875-.140625-.265625-.296875-.265625-.09375 0-.25.0625-.34375.203125l-.140625.546875c-.078125.25-.140625.53125-.203125.796875L3.453125-.953125c-.03125.140625-.46875.84375-1.125.84375-.5 0-.609375-.4375-.609375-.8125 0-.453125.171875-1.078125.5-1.953125.15625-.40625.203125-.515625.203125-.71875 0-.4375-.3125-.8125-.8125-.8125-.953125 0-1.3125 1.453125-1.3125 1.53125 0 .109375.09375.109375.109375.109375.109375 0 .109375-.03125.15625-.1875.28125-.9375.671875-1.234375 1.015625-1.234375.078125 0 .25 0 .25.3125 0 .25-.109375.515625-.171875.703125-.40625 1.0625-.578125 1.625-.578125 2.09375 0 .890625.625 1.1875 1.21875 1.1875.390625 0 .71875-.171875 1-.453125-.125.515625-.25 1.015625-.640625 1.546875-.265625.328125-.640625.625-1.09375.625-.140625 0-.59375-.03125-.765625-.421875.15625 0 .296875 0 .421875-.125.109375-.078125.203125-.21875.203125-.40625 0-.3125-.265625-.34375-.359375-.34375C.828125.53125.5.6875.5 1.171875c0 .5.4375.875 1.0625.875 1.015625 0 2.046875-.90625 2.328125-2.03125zm0 0" class="D"/></symbol><symbol id="B" class="C"><path d="M3.328125-3.015625c.0625-.25.296875-1.171875.984375-1.171875.046875 0 .296875 0 .5.125-.28125.0625-.46875.296875-.46875.546875 0 .15625.109375.34375.375.34375.21875 0 .53125-.171875.53125-.578125 0-.515625-.578125-.65625-.921875-.65625-.578125 0-.921875.53125-1.046875.75-.25-.65625-.78125-.75-1.078125-.75C1.171875-4.40625.59375-3.125.59375-2.875c0 .109375.109375.109375.125.109375.078125 0 .109375-.03125.125-.109375.34375-1.0625 1-1.3125 1.34375-1.3125.1875 0 .53125.09375.53125.671875 0 .3125-.171875.96875-.53125 2.375-.15625.609375-.515625 1.03125-.953125 1.03125-.0625 0-.28125 0-.5-.125.25-.0625.46875-.265625.46875-.546875 0-.265625-.21875-.34375-.359375-.34375-.3125 0-.546875.25-.546875.578125 0 .453125.484375.65625.921875.65625.671875 0 1.03125-.703125 1.046875-.75.125.359375.484375.75 1.078125.75 1.03125 0 1.59375-1.28125 1.59375-1.53125 0-.109375-.078125-.109375-.109375-.109375-.09375 0-.109375.046875-.140625.109375-.328125 1.078125-1 1.3125-1.3125 1.3125-.390625 0-.546875-.3125-.546875-.65625 0-.21875.046875-.4375.15625-.875zm0 0" class="D"/></symbol><symbol id="C" class="C"><path d="M3.65625-3.984375h.859375c.203125 0 .296875 0 .296875-.203125 0-.109375-.09375-.109375-.265625-.109375H3.71875L3.921875-5.4375l.25-1.03125c.078125-.1875.25-.34375.46875-.34375.03125 0 .296875 0 .484375.1875-.4375.03125-.546875.390625-.546875.53125 0 .234375.1875.359375.375.359375.265625 0 .546875-.234375.546875-.609375 0-.453125-.453125-.6875-.859375-.6875-.34375 0-.96875.1875-1.265625 1.171875-.0625.203125-.09375.3125-.328125 1.5625h-.6875c-.203125 0-.3125 0-.3125.1875 0 .125.09375.125.28125.125h.65625L2.25-.046875c-.1875.96875-.359375 1.875-.875 1.875-.046875 0-.28125 0-.484375-.1875.46875-.03125.5625-.390625.5625-.53125 0-.234375-.1875-.359375-.375-.359375C.8125.75.53125.984375.53125 1.359375c0 .4375.4375.6875.84375.6875.546875 0 .953125-.59375 1.125-.96875.328125-.625.546875-1.828125.5625-1.90625zm0 0" class="D"/></symbol><symbol id="D" class="C"><path d="M2.328125-4.4375c0-.1875 0-.1875-.203125-.1875-.453125.4375-1.078125.4375-1.359375.4375v.25c.15625 0 .625 0 1-.1875v3.546875c0 .234375 0 .328125-.6875.328125H.8125V0l1.234375-.03125 1.25.03125v-.25H3.03125c-.703125 0-.703125-.09375-.703125-.328125zm0 0" class="D"/></symbol><symbol id="E" class="C"><path d="M3.515625-1.265625H3.28125c-.015625.15625-.09375.5625-.1875.625-.046875.046875-.578125.046875-.6875.046875H1.125l1.390625-1.171875c.515625-.40625 1-.84375 1-1.5 0-.84375-.734375-1.359375-1.625-1.359375C1.03125-4.625.4375-4.015625.4375-3.375c0 .34375.296875.390625.375.390625.15625 0 .359375-.125.359375-.375 0-.125-.046875-.375-.40625-.375.21875-.484375.6875-.640625 1.015625-.640625.703125 0 1.0625.546875 1.0625 1.109375 0 .609375-.4375 1.078125-.65625 1.328125L.515625-.265625C.4375-.203125.4375-.1875.4375 0h2.875zm0 0" class="D"/></symbol><symbol id="F" class="C"><path d="M3.296875 2.390625c0-.03125 0-.046875-.171875-.21875C1.890625.921875 1.5625-.96875 1.5625-2.5c0-1.734375.375-3.46875 1.609375-4.703125.125-.125.125-.140625.125-.171875 0-.078125-.03125-.109375-.09375-.109375-.109375 0-1 .6875-1.59375 1.953125-.5 1.09375-.625 2.203125-.625 3.03125 0 .78125.109375 1.984375.65625 3.125C2.25 1.84375 3.09375 2.5 3.203125 2.5c.0625 0 .09375-.03125.09375-.109375zm0 0" class="D"/></symbol><symbol id="G" class="C"><path d="M2.875-2.5c0-.765625-.109375-1.96875-.65625-3.109375-.59375-1.21875-1.453125-1.875-1.546875-1.875-.0625 0-.109375.046875-.109375.109375 0 .03125 0 .046875.1875.234375.984375.984375 1.546875 2.5625 1.546875 4.640625 0 1.71875-.359375 3.46875-1.59375 4.71875-.140625.125-.140625.140625-.140625.171875 0 .0625.046875.109375.109375.109375.09375 0 1-.6875 1.578125-1.953125.515625-1.09375.625-2.203125.625-3.046875zm0 0" class="D"/></symbol></defs><g fill="none" class="E"><g stroke="rgb(50%,50%,50%)" stroke-dasharray="2.98883,2.98883" class="G"><path d="M64.03125 134.98828125V64.121094H35.68359375"/><path d="M106.550781 134.98828125V106.640625H35.68359375"/></g><path d="M52.691406 16.871094l3.425782 19.804687c.949218 4.707031 2.472656 10.6875 3.425781 14.113281s2.472656 7.964844 3.421875 10.570313 2.476562 6.160156 3.425781 8.210937 2.476563 4.910157 3.425781 6.566407 2.472657 4.003906 3.425782 5.367187 2.472656 3.328125 3.425781 4.472656 2.472656 2.804688 3.421875 3.777344 2.476562 2.402344 3.425781 3.238281 2.476563 2.074219 3.425781 2.804688 2.472657 1.8125 3.425782 2.453125 2.472656 1.597656 3.421875 2.167969 2.476562 1.417968 3.425781 1.925781 2.476562 1.265625 3.425781 1.71875 2.472656 1.140625 3.425781 1.550781 2.472657 1.03125 3.421875 1.398438 2.476563.933593 3.425782 1.273437l3.425781 1.164063 3.425781 1.066406 3.421875.980469 3.425781.90625 3.425782.835937 3.425781.777344 3.421875.722656" stroke-width=".79701" stroke="rgb(0%,62.353516%,95.684814%)"/></g><path d="M66.023438 64.121094c0-1.097656-.890625-1.992188-1.992188-1.992188s-1.992187.894532-1.992187 1.992188.890625 1.992187 1.992187 1.992187 1.992188-.890625 1.992188-1.992187zm42.519531 42.519531c0-1.097656-.890625-1.992187-1.992188-1.992187s-1.992187.894531-1.992187 1.992187.890625 1.992188 1.992187 1.992188 1.992188-.890625 1.992188-1.992188zm0 0" fill="rgb(0%,62.353516%,95.684814%)"/><g class="E G H"><path d="M35.68359375 142.074219v-130.0625" fill="none"/><path d="M3.76122.00040625C3.300283.113687 1.269033.750406-.00049875 1.445719v-2.890625C1.269033-.749594 3.300283-.112875 3.76122.00040625zm0 0" transform="matrix(0 -1 -1 0 35.684 12.01122)" class="B"/></g><use xlink:href="#A" x="25.427" y="12.591" class="B"/><g class="E G H"><path d="M28.597656 134.98828125h115.890625" fill="none"/><path d="M148.25 134.98828125c-.460938-.11328125-2.492188-.75000025-3.76171875-1.44531225v2.890625c1.26953075-.691407 3.30078075-1.332032 3.76171875-1.44531275zm0 0" class="B"/></g><use xlink:href="#B" x="143.732" y="145.787" class="B"/><path d="M65.027344 134.988281c0-.550781-.445313-.996093-.996094-.996093s-.996094.445312-.996094.996093.445313.996094.996094.996094.996094-.445312.996094-.996094zm0 0" class="F"/><g class="B"><use xlink:href="#B" x="58.948" y="142.798"/><use xlink:href="#D" x="64.642" y="144.293"/></g><path d="M107.546875 134.988281c0-.550781-.445312-.996093-.996094-.996093s-.996093.445312-.996093.996093.445312.996094.996093.996094.996094-.445312.996094-.996094zm0 0" class="F"/><g class="B"><use xlink:href="#B" x="101.468" y="142.798"/><use xlink:href="#E" x="107.162" y="144.293"/></g><path d="M36.679688 64.121094c0-.550781-.445313-.996094-.996094-.996094s-.996094.445313-.996094.996094.445313.996094.996094.996094.996094-.445313.996094-.996094zm0 0" class="F"/><g class="B"><use xlink:href="#C" x="8.302" y="66.614"/><use xlink:href="#F" x="14.252" y="66.614"/><use xlink:href="#B" x="18.126" y="66.614"/><use xlink:href="#D" x="23.82" y="68.108"/><use xlink:href="#G" x="28.289" y="66.614"/></g><path d="M36.679688 106.640625c0-.546875-.445313-.996094-.996094-.996094s-.996094.449219-.996094.996094.445313.996094.996094.996094.996094-.445313.996094-.996094zm0 0" class="F"/><g class="B"><use xlink:href="#C" x="8.302" y="109.133"/><use xlink:href="#F" x="14.252" y="109.133"/><use xlink:href="#B" x="18.126" y="109.133"/><use xlink:href="#E" x="23.82" y="110.628"/><use xlink:href="#G" x="28.289" y="109.133"/></g></svg>