<svg xmlns="http://www.w3.org/2000/svg" width="800" viewBox="0 0 1493.4 446.9">
  <g stroke-miterlimit="10" stroke-width="3">
    <rect width="516.9" height="196.7" x="1.5" y="170.9" fill="#ededed" stroke="#9d9d9c" rx="20" ry="20"/>
    <circle cx="94.8" cy="269.9" r="55.2" fill="#009fe3" stroke="#007bb0"/>
    <path fill="#2fac66" stroke="#217947" d="m248.2 212.1-64.8 112.3H313l-64.8-112.3z"/>
    <path fill="#f9b233" stroke="#c58d28" d="M357.6 213.7H468v110.4H357.6z"/>
  </g>
  <g stroke-miterlimit="10" stroke-width="3">
    <rect width="273.4" height="104.1" x="926" y="93.1" fill="#ededed" stroke="#9d9d9c" rx="20" ry="20"/>
    <circle cx="975.3" cy="145.5" r="29.2" fill="#009fe3" stroke="#007bb0"/>
    <path fill="#2fac66" stroke="#217947" d="m1056.5 114.9-34.3 59.4h68.6l-34.3-59.4z"/>
    <path fill="#f9b233" stroke="#c58d28" d="M1114.4 115.7h58.4v58.4h-58.4z"/>
  </g>
  <rect width="273.4" height="104.1" x="926" y="216.9" fill="#ededed" stroke="#9d9d9c" stroke-miterlimit="10" stroke-width="3" rx="20" ry="20"/>
  <circle cx="1058.1" cy="268.8" r="29.2" fill="#009fe3" stroke="#007bb0" stroke-miterlimit="10" stroke-width="3"/>
  <path fill="#2fac66" stroke="#217947" stroke-miterlimit="10" stroke-width="3" d="M975.3 238.2 941 297.6h68.6l-34.3-59.4z"/>
  <path fill="#f9b233" stroke="#c58d28" stroke-miterlimit="10" stroke-width="3" d="M1114.4 239.5h58.4v58.4h-58.4z"/>
  <rect width="273.4" height="104.1" x="1218.4" y="216.9" fill="#ededed" stroke="#9d9d9c" stroke-miterlimit="10" stroke-width="3" rx="20" ry="20"/>
  <circle cx="1434.5" cy="268.8" r="29.2" fill="#009fe3" stroke="#007bb0" stroke-miterlimit="10" stroke-width="3"/>
  <path fill="#2fac66" stroke="#217947" stroke-miterlimit="10" stroke-width="3" d="m1267.8 238.2-34.3 59.4h68.6l-34.3-59.4z"/>
  <path fill="#f9b233" stroke="#c58d28" stroke-miterlimit="10" stroke-width="3" d="M1323.4 239.5h58.4v58.4h-58.4z"/>
  <rect width="273.4" height="104.1" x="926" y="340.7" fill="#ededed" stroke="#9d9d9c" stroke-miterlimit="10" stroke-width="3" rx="20" ry="20"/>
  <circle cx="1143.6" cy="393.1" r="29.2" fill="#009fe3" stroke="#007bb0" stroke-miterlimit="10" stroke-width="3"/>
  <path fill="#2fac66" stroke="#217947" stroke-miterlimit="10" stroke-width="3" d="m1062.7 362.8-34.3 59.4h68.6l-34.3-59.4z"/>
  <path fill="#f9b233" stroke="#c58d28" stroke-miterlimit="10" stroke-width="3" d="M946.1 364.2h58.4v58.4h-58.4z"/>
  <rect width="273.4" height="104.1" x="1218.4" y="341.4" fill="#ededed" stroke="#9d9d9c" stroke-miterlimit="10" stroke-width="3" rx="20" ry="20"/>
  <circle cx="1352.7" cy="394.1" r="29.2" fill="#009fe3" stroke="#007bb0" stroke-miterlimit="10" stroke-width="3"/>
  <path fill="#2fac66" stroke="#217947" stroke-miterlimit="10" stroke-width="3" d="m1435 364.4-34.3 59.4h68.6l-34.3-59.4z"/>
  <path fill="#f9b233" stroke="#c58d28" stroke-miterlimit="10" stroke-width="3" d="M1238.6 364.9h58.4v58.4h-58.4z"/>
  <rect width="273.4" height="104.1" x="1218.4" y="93.5" fill="#ededed" stroke="#9d9d9c" stroke-miterlimit="10" stroke-width="3" rx="20" ry="20"/>
  <circle cx="1267.8" cy="145.8" r="29.2" fill="#009fe3" stroke="#007bb0" stroke-miterlimit="10" stroke-width="3"/>
  <path fill="#2fac66" stroke="#217947" stroke-miterlimit="10" stroke-width="3" d="m1436 116.1-34.2 59.4h68.5l-34.3-59.4z"/>
  <path fill="#f9b233" stroke="#c58d28" stroke-miterlimit="10" stroke-width="3" d="M1319.7 116.6h58.4V175h-58.4z"/>
  <path fill="#706f6f" d="M1075.4 8.8c2.2-.4 5-.7 8.6-.7 4.4 0 7.7 1 9.7 3 2 1.6 3 4 3 7.2s-.9 5.6-2.6 7.4a14.4 14.4 0 0 1-10.6 3.8c-1.3 0-2.6 0-3.6-.3V43h-4.5V8.8Zm4.5 16.7c1 .3 2.2.4 3.7.4 5.4 0 8.7-2.6 8.7-7.4s-3.2-6.8-8.2-6.8c-2 0-3.4.1-4.2.3v13.5Zm35.2 17.6-.4-3.1h-.1a9 9 0 0 1-7.6 3.7c-5 0-7.6-3.6-7.6-7.2 0-6 5.3-9.3 15-9.3v-.5c0-2-.6-5.7-5.7-5.7a13 13 0 0 0-6.5 1.8l-1-3c2-1.3 5-2.2 8.2-2.2 7.6 0 9.4 5.2 9.4 10.2v9.3c0 2.2.1 4.3.5 6h-4.2Zm-.7-12.7c-4.9-.1-10.5.8-10.5 5.6 0 3 2 4.3 4.2 4.3a6 6 0 0 0 6-4.1l.3-1.5v-4.3Zm13.8-1.8h2.2c3.8 0 6.3-1.7 6.3-4s-2-3.7-4.8-3.7c-2 0-4.3.7-6 1.8l-1.2-2.8c2.6-1.5 5.5-2.3 8.3-2.3 3.8 0 8.5 1.7 8.5 6.6 0 3-2.8 5-5.6 5.7 3.7.4 6.8 2.6 6.8 6.3 0 5.4-5.5 7.4-10.8 7.4-3 0-5.9-.8-8-2l1.1-3a14 14 0 0 0 6.6 1.7c3.8 0 6.1-1.8 6.1-4.3 0-3.4-3.5-4.3-7.2-4.3h-2.3v-3Zm20.4-10.4h5.5l4.6 12.6c.6 1.8 1.7 4.8 2.2 6.8h.1l3-8.6 4-10.8h5.6l1.8 24.9h-4.4l-.5-11.9-.5-9h-.2c-.6 2.4-1.3 4.4-2.7 8.2l-4.8 12.6h-3.3l-4.4-12.4c-.8-2.3-1.9-6-2.5-8.3h-.2c0 3-.2 6.3-.4 9l-.6 11.8h-4.2l1.9-25Zm35.2 13.3c0 6 4 8.6 8.5 8.6 3.3 0 5.2-.6 6.9-1.3l.8 3.3a21 21 0 0 1-8.3 1.5c-7.7 0-12.3-5-12.3-12.6s4.4-13.4 11.7-13.4c8.2 0 10.3 7.2 10.3 11.7l-.1 2.1h-17.5Zm13.2-3.3c0-2.9-1.1-7.3-6.2-7.3-4.6 0-6.6 4.2-7 7.3h13.2Zm14.3-10v21.4h8.7V18.1h4.5v21.3h8.7V18.2h4.5v21.5h2.5l-.3 11.3h-3.5l-.2-7.9H1207v-25h4.4Zm36.7 13.3c0 6 4 8.6 8.5 8.6 3.2 0 5.2-.6 6.9-1.3l.7 3.3c-1.6.7-4.3 1.5-8.3 1.5-7.6 0-12.2-5-12.2-12.6s4.4-13.4 11.7-13.4c8.1 0 10.3 7.2 10.3 11.7l-.2 2.1H1248Zm13.2-3.3c0-2.9-1.2-7.3-6.3-7.3-4.6 0-6.6 4.2-7 7.3h13.3Zm14.4-10v10h11.8v-10h4.5V43h-4.5V31.8h-11.8v11.3h-4.5v-25h4.5Zm27.9 0v10.5c0 4 0 6.4-.3 10h.2c1.5-3 2.3-4.8 4-7.7l7.8-12.8h5.3V43h-4.4V32.5c0-4 .1-6.1.4-10.2h-.2a146 146 0 0 1-4.1 7.8c-2.4 3.8-5.1 8.6-7.8 13h-5.2V18h4.3Zm42.7 24.9h-4.5V32.7h-3.3c-2 0-3.2.5-4.2 1.3-1.8 1.5-2.5 4.6-3.5 7l-1 2.1h-4.9c.6-.8 1.1-1.7 1.6-2.8 1-2.4 1.7-5.7 3.9-7.5.8-.7 1.7-1.3 2.8-1.5v-.1c-3.2-.4-6.6-2.4-6.6-6.2a6 6 0 0 1 3.3-5.4c2-1.2 5.1-1.7 8.4-1.7 3 0 5.8.2 8 .5V43Zm-4.5-22-3.7-.2c-3.1 0-6.8.9-6.8 4.3 0 3.2 4 4.4 6.7 4.4h3.8v-8.4ZM155.2 119.8c-1.7.8-5 1.6-9.2 1.6-9.8 0-17.1-6.1-17.1-17.5s7.3-18.3 18.1-18.3c4.3 0 7 1 8.2 1.6l-1 3.6a17 17 0 0 0-7-1.4c-8.2 0-13.6 5.2-13.6 14.3 0 8.5 5 14 13.4 14a18 18 0 0 0 7.3-1.5l.9 3.6Zm27.2-11.5c0 9.2-6.4 13.2-12.4 13.2-6.8 0-12-5-12-12.8 0-8.4 5.5-13.3 12.4-13.3s12 5.2 12 12.8Zm-19.8.2c0 5.5 3.1 9.6 7.6 9.6s7.5-4 7.5-9.7c0-4.2-2-9.6-7.4-9.6s-7.7 5-7.7 9.7ZM191.7 96v8.2c0 3.1 1.2 5.3 5.1 5.3 2 0 4-.7 5.4-1.8V96h4.5v25h-4.5v-10h-.1c-1.7 1-4.4 1.8-6.7 1.8-4.8 0-8.2-2.4-8.2-8.1V96h4.5Zm24.9 13.3c.1 6.1 4 8.6 8.6 8.6 3.2 0 5.2-.5 6.9-1.3l.7 3.3c-1.6.7-4.3 1.5-8.2 1.5-7.7 0-12.3-5-12.3-12.6s4.4-13.4 11.7-13.4c8.1 0 10.3 7.2 10.3 11.7l-.2 2.2h-17.5ZM230 106c0-2.8-1.2-7.3-6.3-7.3-4.5 0-6.6 4.2-7 7.3H230Zm26.5-10v3.6h-7.8v21.3h-4.4V99.6h-7.8V96h20Zm17.5 25-.4-3.2h-.2a9 9 0 0 1-7.6 3.7c-5 0-7.6-3.6-7.6-7.2 0-6 5.3-9.3 15-9.3v-.5c0-2-.6-5.7-5.7-5.7a13 13 0 0 0-6.5 1.8l-1-3c2-1.3 5-2.2 8.2-2.2 7.6 0 9.5 5.2 9.5 10.2v9.3c0 2.2 0 4.3.4 6H274Zm-.7-12.8c-5-.1-10.6.8-10.6 5.6 0 3 2 4.3 4.3 4.3 3.2 0 5.3-2 6-4.1l.3-1.5v-4.3Zm16-12.2v10h11.9V96h4.4v25h-4.4v-11.4h-11.9V121h-4.5V96h4.5Zm27.9 0v10.5c0 4 0 6.4-.2 10h.1c1.5-3 2.4-4.8 4-7.6l7.8-13h5.3v25H330v-10.6c0-4 .1-6.1.3-10.2h-.1a146 146 0 0 1-4.1 7.8c-2.4 3.8-5.1 8.6-7.8 13H313v-25h4.2Zm26.9 13.3c.1 6.1 4 8.6 8.6 8.6 3.2 0 5.2-.5 6.9-1.3l.7 3.3c-1.6.7-4.3 1.5-8.3 1.5-7.6 0-12.2-5-12.2-12.6s4.4-13.4 11.7-13.4c8.1 0 10.3 7.2 10.3 11.7l-.2 2.2h-17.5Zm13.3-3.3c0-2.8-1.2-7.3-6.3-7.3-4.6 0-6.6 4.2-7 7.3h13.3Z"/>
  <path fill="none" stroke="#706f6f" stroke-miterlimit="10" stroke-width="10" d="M597.7 240.9h195.7"/>
  <path fill="#706f6f" d="m781.5 258.4 65.1-17.5-65.1-17.4v34.9z"/>
  <path fill="none" stroke="#706f6f" stroke-miterlimit="10" stroke-width="10" d="M846.6 298.9H650.9"/>
  <path fill="#706f6f" d="m662.8 281.5-65.1 17.4 65.1 17.5v-34.9z"/>
</svg>
