<?xml version="1.0" encoding="UTF-8"?><svg xmlns="http://www.w3.org/2000/svg" width="800" viewBox="0 0 362.9 239.56"><path d="m146.22,23.73l-13.89,10.68,2.35,1.86L10.98,192.37c-.43.54-.34,1.33.2,1.76.23.18.5.27.78.27.37,0,.73-.16.98-.47L136.64,37.83l2.35,1.86,7.23-15.96Z" style="fill:#616161; opacity:.8;"/><path d="m146.22,22.48c-.51,0-.98.31-1.17.81-.24.65.09,1.37.73,1.61l185.82,69.47h0l-1.05,2.81,17.41,1.97h0l-14.44-9.93-1.05,2.81h0L146.65,22.56c-.14-.05-.29-.08-.44-.08h.01Z" style="fill:#616161; opacity:.8;"/><path d="m146.22,22.48c-.17,0-.34.03-.5.11-.63.28-.92,1.02-.64,1.65l80.16,182.44-2.75,1.21,10.73,13.85h0l-2.95-17.27-2.75,1.21L147.36,23.22c-.21-.47-.66-.75-1.15-.75h0Z" style="fill:#616161; opacity:.8;"/><path d="m11.96,191.9c-.62,0-1.16.46-1.24,1.09-.09.68.39,1.31,1.08,1.4l204.4,26.4-.38,2.98,17.4-2.04-16.32-6.39-.38,2.98L12.12,191.92s-.11,0-.16,0h0Z" style="fill:#616161; opacity:.8;"/><path d="m347.96,99.15l-14.72,9.51,2.19,2.05-103.13,110.17c-.47.5-.45,1.3.06,1.77.24.23.55.34.85.34.33,0,.67-.13.91-.4l103.13-110.17,2.19,2.05,8.51-15.32h0Z" style="fill:#616161; opacity:.8;"/><path d="m261.22,118.73l-8.56,15.29,2.89.79h0l-23.54,86.6c-.18.67.21,1.35.88,1.53.11.03.22.04.33.04.55,0,1.05-.37,1.21-.92l23.54-86.6h0l2.89.79.36-17.52h0Z" style="fill:#616161; opacity:.8;"/><path d="m330.44,98.75l.66,2.93-70.16,15.84c-.67.15-1.1.82-.94,1.49.13.58.65.98,1.22.98.09,0,.18-.01.28-.03l70.16-15.84.66,2.93,15.65-7.89-17.52-.4h-.01Z" style="fill:#616161; opacity:.8;"/><path d="m146.22,22.48c-.36,0-.72.15-.96.45-.44.53-.36,1.32.17,1.76l101.89,84.17-1.91,2.31,15.81,7.55-10.4-14.1-1.91,2.31L147.01,22.76c-.23-.19-.52-.29-.8-.29h.01Z" style="fill:#616161; opacity:.8;"/><path d="m16.96,193.15c0,2.76-2.24,5-5,5s-5-2.24-5-5,2.24-5,5-5,5,2.24,5,5Z" style="fill:#09f;"/><path d="m16.96,193.15c0,2.76-2.24,5-5,5s-5-2.24-5-5,2.24-5,5-5,5,2.24,5,5Z" style="fill:none; stroke:#005b99; stroke-linecap:round; stroke-linejoin:round;"/><g style="isolation:isolate;"><g style="isolation:isolate;"><path d="m0,182.73l4.4-11.45h1.63l4.69,11.45h-1.73l-1.34-3.47H2.87l-1.26,3.47H0Zm3.3-4.7h3.88l-1.2-3.17c-.36-.96-.64-1.75-.81-2.38-.15.73-.35,1.46-.62,2.19l-1.26,3.36Z" style="fill:#09f;"/></g></g><path d="m151.22,23.73c0,2.76-2.24,5-5,5s-5-2.24-5-5,2.24-5,5-5,5,2.24,5,5Z" style="fill:#09f;"/><path d="m151.22,23.73c0,2.76-2.24,5-5,5s-5-2.24-5-5,2.24-5,5-5,5,2.24,5,5Z" style="fill:none; stroke:#005b99; stroke-linecap:round; stroke-linejoin:round;"/><g style="isolation:isolate;"><g style="isolation:isolate;"><path d="m151.4,13.73V2.28h4.3c.88,0,1.58.12,2.11.35.53.23.94.59,1.24,1.07.3.48.45.99.45,1.51,0,.49-.13.95-.4,1.38s-.67.78-1.2,1.05c.69.2,1.23.55,1.6,1.04.37.49.56,1.07.56,1.73,0,.54-.11,1.04-.34,1.5s-.51.82-.84,1.07c-.33.25-.75.44-1.25.57-.5.13-1.12.19-1.85.19h-4.37Zm1.52-6.64h2.48c.67,0,1.15-.04,1.45-.13.39-.11.68-.3.87-.57s.29-.6.29-1c0-.38-.09-.71-.27-1-.18-.29-.44-.49-.78-.59-.34-.11-.92-.16-1.74-.16h-2.29v3.46Zm0,5.29h2.85c.49,0,.83-.02,1.03-.05.35-.06.64-.17.88-.31s.43-.36.58-.64c.15-.28.23-.6.23-.96,0-.43-.11-.8-.33-1.11s-.52-.54-.91-.66c-.39-.13-.95-.19-1.68-.19h-2.65v3.94Z" style="fill:#09f;"/></g></g><path d="m238.22,221.73c0,2.76-2.24,5-5,5s-5-2.24-5-5,2.24-5,5-5,5,2.24,5,5Z" style="fill:#09f;"/><path d="m238.22,221.73c0,2.76-2.24,5-5,5s-5-2.24-5-5,2.24-5,5-5,5,2.24,5,5Z" style="fill:none; stroke:#005b99; stroke-linecap:round; stroke-linejoin:round;"/><g style="isolation:isolate;"><g style="isolation:isolate;"><path d="m252.08,230.34l1.52.38c-.32,1.25-.89,2.19-1.71,2.85s-1.83.98-3.03.98-2.24-.25-3.01-.75-1.36-1.23-1.77-2.18-.61-1.98-.61-3.07c0-1.19.23-2.23.68-3.12s1.1-1.56,1.95-2.02,1.77-.69,2.78-.69c1.15,0,2.11.29,2.89.88s1.33,1.4,1.63,2.46l-1.49.35c-.27-.83-.65-1.44-1.16-1.82s-1.14-.57-1.91-.57c-.88,0-1.62.21-2.21.63s-1.01.99-1.25,1.7-.36,1.44-.36,2.2c0,.97.14,1.82.43,2.55s.73,1.27,1.32,1.63,1.25.54,1.95.54c.85,0,1.57-.25,2.16-.73s.99-1.22,1.2-2.18Z" style="fill:#09f;"/></g></g><path d="m352.96,99.15c0,2.76-2.24,5-5,5s-5-2.24-5-5,2.24-5,5-5,5,2.24,5,5Z" style="fill:#09f;"/><path d="m352.96,99.15c0,2.76-2.24,5-5,5s-5-2.24-5-5,2.24-5,5-5,5,2.24,5,5Z" style="fill:none; stroke:#005b99; stroke-linecap:round; stroke-linejoin:round;"/><g style="isolation:isolate;"><g style="isolation:isolate;"><path d="m353.49,88.73v-11.45h8.28v1.35h-6.77v3.51h6.34v1.34h-6.34v3.9h7.03v1.35h-8.55Z" style="fill:#09f;"/></g></g><path d="m266.22,118.73c0,2.76-2.24,5-5,5s-5-2.24-5-5,2.24-5,5-5,5,2.24,5,5Z" style="fill:#09f;"/><path d="m266.22,118.73c0,2.76-2.24,5-5,5s-5-2.24-5-5,2.24-5,5-5,5,2.24,5,5Z" style="fill:none; stroke:#005b99; stroke-linecap:round; stroke-linejoin:round;"/><g style="isolation:isolate;"><g style="isolation:isolate;"><path d="m266.46,108.73v-11.45h3.95c.89,0,1.57.05,2.04.16.66.15,1.22.42,1.68.82.6.51,1.06,1.16,1.36,1.96.3.79.45,1.7.45,2.72,0,.87-.1,1.64-.3,2.31s-.46,1.23-.78,1.67c-.32.44-.67.79-1.04,1.04-.38.25-.83.44-1.37.57-.53.13-1.15.2-1.84.2h-4.13Zm1.52-1.35h2.45c.76,0,1.35-.07,1.78-.21s.77-.34,1.03-.59c.36-.36.64-.84.84-1.45.2-.61.3-1.34.3-2.21,0-1.2-.2-2.12-.59-2.76-.39-.64-.87-1.07-1.43-1.29-.41-.16-1.06-.23-1.96-.23h-2.41v8.75Z" style="fill:#09f;"/></g></g></svg>