<?xml version="1.0" encoding="UTF-8"?><svg xmlns="http://www.w3.org/2000/svg" width="800" viewBox="0 0 364.25 252.05"><path d="m146.22,24.35l-13.89,10.68,2.35,1.86L10.98,192.99c-.43.54-.34,1.33.2,1.76.23.18.5.27.78.27.37,0,.73-.16.98-.47L136.64,38.45l2.35,1.86,7.23-15.96Z" style="fill:#616161; opacity:.8;"/><path d="m146.22,23.1c-.51,0-.98.31-1.17.81-.24.65.09,1.37.73,1.61l185.82,69.47h0l-1.05,2.81,17.41,1.97h0l-14.44-9.93-1.05,2.81h0L146.65,23.18c-.14-.05-.29-.08-.44-.08h.01Z" style="fill:#616161; opacity:.8;"/><path d="m146.22,23.1c-.17,0-.34.03-.5.11-.63.28-.92,1.02-.64,1.65l80.16,182.44-2.75,1.21,10.73,13.85h0l-2.95-17.27-2.75,1.21L147.36,23.84c-.21-.47-.66-.75-1.15-.75h0Z" style="fill:#616161; opacity:.8;"/><path d="m11.96,192.52c-.62,0-1.16.46-1.24,1.09-.09.68.39,1.31,1.08,1.4l204.4,26.4-.38,2.98,17.4-2.04-16.32-6.39-.38,2.98L12.12,192.54s-.11,0-.16,0h0Z" style="fill:#616161; opacity:.8;"/><path d="m347.96,99.77l-14.72,9.51,2.19,2.05-103.13,110.17c-.47.5-.45,1.3.06,1.77.24.23.55.34.85.34.33,0,.67-.13.91-.4l103.13-110.17,2.19,2.05,8.51-15.32h0Z" style="fill:#616161; opacity:.8;"/><path d="m261.22,119.35l-8.56,15.29,2.89.79h0l-23.54,86.6c-.18.67.21,1.35.88,1.53.11.03.22.04.33.04.55,0,1.05-.37,1.21-.92l23.54-86.6h0l2.89.79.36-17.52h0Z" style="fill:#616161; opacity:.8;"/><path d="m330.44,99.37l.66,2.93-70.16,15.84c-.67.15-1.1.82-.94,1.49.13.58.65.98,1.22.98.09,0,.18-.01.28-.03l70.16-15.84.66,2.93,15.65-7.89-17.52-.4h-.01Z" style="fill:#616161; opacity:.8;"/><path d="m146.22,23.1c-.36,0-.72.15-.96.45-.44.53-.36,1.32.17,1.76l101.89,84.17-1.91,2.31,15.81,7.55-10.4-14.1-1.91,2.31L147.01,23.38c-.23-.19-.52-.29-.8-.29h.01Z" style="fill:#616161; opacity:.8;"/><path d="m16.96,193.77c0,2.76-2.24,5-5,5s-5-2.24-5-5,2.24-5,5-5,5,2.24,5,5Z" style="fill:#09f;"/><path d="m16.96,193.77c0,2.76-2.24,5-5,5s-5-2.24-5-5,2.24-5,5-5,5,2.24,5,5Z" style="fill:none; stroke:#005b99; stroke-linecap:round; stroke-linejoin:round;"/><g style="isolation:isolate;"><g style="isolation:isolate;"><path d="m0,183.35l4.4-11.45h1.63l4.69,11.45h-1.73l-1.34-3.47H2.87l-1.26,3.47H0Zm3.3-4.7h3.88l-1.2-3.17c-.36-.96-.64-1.75-.81-2.38-.15.73-.35,1.46-.62,2.19l-1.26,3.36Z" style="fill:#09f;"/></g></g><path d="m151.22,24.35c0,2.76-2.24,5-5,5s-5-2.24-5-5,2.24-5,5-5,5,2.24,5,5Z" style="fill:#09f;"/><path d="m151.22,24.35c0,2.76-2.24,5-5,5s-5-2.24-5-5,2.24-5,5-5,5,2.24,5,5Z" style="fill:none; stroke:#005b99; stroke-linecap:round; stroke-linejoin:round;"/><g style="isolation:isolate;"><g style="isolation:isolate;"><path d="m151.4,14.35V2.89h4.3c.88,0,1.58.12,2.11.35.53.23.94.59,1.24,1.07.3.48.45.99.45,1.51,0,.49-.13.95-.4,1.38s-.67.78-1.2,1.05c.69.2,1.23.55,1.6,1.04.37.49.56,1.07.56,1.73,0,.54-.11,1.04-.34,1.5s-.51.82-.84,1.07c-.33.25-.75.44-1.25.57-.5.13-1.12.19-1.85.19h-4.37Zm1.52-6.64h2.48c.67,0,1.15-.04,1.45-.13.39-.11.68-.3.87-.57s.29-.6.29-1c0-.38-.09-.71-.27-1-.18-.29-.44-.49-.78-.59-.34-.11-.92-.16-1.74-.16h-2.29v3.46Zm0,5.29h2.85c.49,0,.83-.02,1.03-.05.35-.06.64-.17.88-.31s.43-.36.58-.64c.15-.28.23-.6.23-.96,0-.43-.11-.8-.33-1.11s-.52-.54-.91-.66c-.39-.13-.95-.19-1.68-.19h-2.65v3.94Z" style="fill:#09f;"/></g></g><path d="m238.22,222.35c0,2.76-2.24,5-5,5s-5-2.24-5-5,2.24-5,5-5,5,2.24,5,5Z" style="fill:#09f;"/><path d="m238.22,222.35c0,2.76-2.24,5-5,5s-5-2.24-5-5,2.24-5,5-5,5,2.24,5,5Z" style="fill:none; stroke:#005b99; stroke-linecap:round; stroke-linejoin:round;"/><g style="isolation:isolate;"><g style="isolation:isolate;"><path d="m252.08,230.96l1.52.38c-.32,1.25-.89,2.19-1.71,2.85s-1.83.98-3.03.98-2.24-.25-3.01-.75-1.36-1.23-1.77-2.18-.61-1.98-.61-3.07c0-1.19.23-2.23.68-3.12s1.1-1.56,1.95-2.02,1.77-.69,2.78-.69c1.15,0,2.11.29,2.89.88s1.33,1.4,1.63,2.46l-1.49.35c-.27-.83-.65-1.44-1.16-1.82s-1.14-.57-1.91-.57c-.88,0-1.62.21-2.21.63s-1.01.99-1.25,1.7-.36,1.44-.36,2.2c0,.97.14,1.82.43,2.55s.73,1.27,1.32,1.63,1.25.54,1.95.54c.85,0,1.57-.25,2.16-.73s.99-1.22,1.2-2.18Z" style="fill:#09f;"/></g></g><path d="m352.96,99.77c0,2.76-2.24,5-5,5s-5-2.24-5-5,2.24-5,5-5,5,2.24,5,5Z" style="fill:#09f;"/><path d="m352.96,99.77c0,2.76-2.24,5-5,5s-5-2.24-5-5,2.24-5,5-5,5,2.24,5,5Z" style="fill:none; stroke:#005b99; stroke-linecap:round; stroke-linejoin:round;"/><g style="isolation:isolate;"><g style="isolation:isolate;"><path d="m353.49,89.35v-11.45h8.28v1.35h-6.77v3.51h6.34v1.34h-6.34v3.9h7.03v1.35h-8.55Z" style="fill:#09f;"/></g></g><path d="m266.22,119.35c0,2.76-2.24,5-5,5s-5-2.24-5-5,2.24-5,5-5,5,2.24,5,5Z" style="fill:#09f;"/><path d="m266.22,119.35c0,2.76-2.24,5-5,5s-5-2.24-5-5,2.24-5,5-5,5,2.24,5,5Z" style="fill:none; stroke:#005b99; stroke-linecap:round; stroke-linejoin:round;"/><g style="isolation:isolate;"><g style="isolation:isolate;"><path d="m266.46,109.35v-11.45h3.95c.89,0,1.57.05,2.04.16.66.15,1.22.42,1.68.82.6.51,1.06,1.16,1.36,1.96.3.79.45,1.7.45,2.72,0,.87-.1,1.64-.3,2.31s-.46,1.23-.78,1.67c-.32.44-.67.79-1.04,1.04-.38.25-.83.44-1.37.57-.53.13-1.15.2-1.84.2h-4.13Zm1.52-1.35h2.45c.76,0,1.35-.07,1.78-.21s.77-.34,1.03-.59c.36-.36.64-.84.84-1.45.2-.61.3-1.34.3-2.21,0-1.2-.2-2.12-.59-2.76-.39-.64-.87-1.07-1.43-1.29-.41-.16-1.06-.23-1.96-.23h-2.41v8.75Z" style="fill:#09f;"/></g></g><path d="m133.04,15.68c0,.12,0,.23-.03.31s-.05.15-.08.21c-.03.05-.07.09-.11.11-.04.02-.09.03-.13.03h-6.61s-.09-.01-.13-.03-.08-.06-.11-.11c-.04-.05-.06-.12-.08-.21s-.03-.19-.03-.31,0-.22.03-.3c.02-.08.04-.15.07-.21.03-.06.07-.1.11-.13.04-.03.09-.04.14-.04h2.64V5.37l-2.45,1.46c-.12.07-.22.1-.3.12-.08.01-.14,0-.18-.04-.05-.04-.08-.11-.09-.21-.02-.1-.02-.22-.02-.37,0-.11,0-.21.01-.28s.02-.14.04-.2.05-.1.08-.14c.04-.04.08-.08.14-.12l2.92-1.87s.06-.04.1-.05.09-.03.15-.04.13-.02.21-.02c.08,0,.18,0,.29,0,.16,0,.29,0,.39.02.1.01.19.03.24.05s.1.05.12.09c.02.04.03.07.03.11v11.12h2.29c.05,0,.1.01.15.04.05.03.08.07.11.13.03.06.05.13.07.21.02.08.02.19.02.3Z" style="fill:#96f;"/><path d="m112.58,47.97c0,.08,0,.16-.02.22-.01.06-.03.11-.05.15-.02.04-.05.07-.08.09-.03.02-.06.03-.1.03h-2.18v2.42s0,.07-.03.09c-.02.02-.05.05-.08.06-.04.02-.09.03-.15.04s-.14.02-.23.02c-.09,0-.17,0-.23-.02-.06-.01-.12-.03-.15-.04-.04-.02-.07-.04-.08-.06-.02-.02-.03-.05-.03-.09v-2.42h-2.18s-.07,0-.1-.03-.05-.05-.08-.09c-.02-.04-.04-.09-.05-.15-.01-.06-.02-.13-.02-.22,0-.08,0-.15.02-.21.01-.06.03-.11.05-.15.02-.04.05-.07.08-.09s.06-.03.1-.03h2.19v-2.42s0-.07.03-.1c.02-.03.05-.05.08-.07.04-.02.09-.04.15-.05.06-.01.14-.02.23-.02.09,0,.17,0,.23.02.06.01.11.03.15.05.04.02.07.04.08.07.02.03.03.06.03.1v2.42h2.19s.07,0,.1.03.06.05.08.09.04.09.05.15c.01.06.02.13.02.21Z" style="fill:#616161;"/><path d="m119.21,51.34c0,.08,0,.16-.02.21s-.03.1-.05.14c-.02.04-.05.06-.08.08-.03.02-.06.02-.09.02h-4.49s-.06,0-.09-.02c-.03-.02-.05-.04-.08-.08s-.04-.08-.06-.14c-.01-.06-.02-.13-.02-.21,0-.08,0-.15.02-.21.01-.06.03-.1.05-.14.02-.04.04-.07.07-.09s.06-.03.1-.03h1.79v-6.54l-1.66.99c-.08.04-.15.07-.2.08-.05,0-.09,0-.12-.03-.03-.03-.05-.08-.06-.14-.01-.07-.02-.15-.02-.25,0-.08,0-.14,0-.19s.02-.1.03-.13c.01-.04.03-.07.06-.09.02-.03.06-.05.1-.08l1.98-1.27s.04-.02.07-.03c.03,0,.06-.02.1-.03.04,0,.09-.01.14-.02.05,0,.12,0,.2,0,.11,0,.19,0,.27.01s.13.02.17.04c.04.02.07.04.08.06.01.02.02.05.02.08v7.56h1.56s.07.01.1.03c.03.02.06.05.08.09s.04.09.05.14c.01.06.02.13.02.21Z" style="fill:#616161;"/><path d="m228.92,110.52c0,.08,0,.16-.02.22-.01.06-.03.11-.05.15-.02.04-.05.07-.08.09-.03.02-.06.03-.1.03h-2.18v2.42s0,.07-.03.09-.05.05-.08.06c-.04.02-.09.03-.15.04-.06.01-.14.02-.23.02-.09,0-.17,0-.23-.02-.06-.01-.12-.03-.15-.04-.04-.02-.07-.04-.08-.06s-.03-.05-.03-.09v-2.42h-2.18s-.07,0-.1-.03c-.03-.02-.05-.05-.08-.09-.02-.04-.04-.09-.05-.15-.01-.06-.02-.13-.02-.22,0-.08,0-.15.02-.21.01-.06.03-.11.05-.15.02-.04.05-.07.08-.09.03-.02.06-.03.1-.03h2.19v-2.42s0-.07.03-.1.05-.05.08-.07c.04-.02.09-.04.15-.05.06-.01.14-.02.23-.02.09,0,.17,0,.23.02.06.01.11.03.15.05.04.02.07.04.08.07s.03.06.03.1v2.42h2.19s.07,0,.1.03c.03.02.06.05.08.09s.04.09.05.15c.01.06.02.13.02.21Z" style="fill:#616161;"/><path d="m235.55,113.89c0,.08,0,.16-.02.21-.01.06-.03.1-.05.14-.02.04-.05.06-.08.08-.03.02-.06.02-.09.02h-4.49s-.06,0-.09-.02c-.03-.02-.05-.04-.08-.08s-.04-.08-.06-.14c-.01-.06-.02-.13-.02-.21,0-.08,0-.15.02-.21.01-.06.03-.1.05-.14.02-.04.04-.07.07-.09.03-.02.06-.03.1-.03h1.79v-6.54l-1.66.99c-.08.04-.15.07-.2.08-.05,0-.09,0-.12-.03-.03-.03-.05-.08-.06-.14s-.02-.15-.02-.25c0-.08,0-.14,0-.19s.02-.1.03-.13.03-.07.06-.09c.02-.03.06-.05.1-.08l1.98-1.27s.04-.02.07-.03.06-.02.1-.03c.04,0,.09-.01.14-.02.05,0,.12,0,.2,0,.11,0,.2,0,.27.01.07,0,.13.02.17.04.04.02.07.04.08.06s.02.05.02.08v7.56h1.55s.07.01.1.03c.03.02.06.05.08.09.02.04.04.09.05.14.01.06.02.13.02.21Z" style="fill:#616161;"/><path d="m323.7,80.19c0,.08,0,.16-.02.22-.01.06-.03.11-.05.15-.02.04-.05.07-.08.09s-.06.03-.1.03h-2.18v2.42s0,.07-.03.09c-.02.02-.04.05-.08.06-.04.02-.09.03-.15.04-.06.01-.14.02-.23.02s-.17,0-.23-.02-.12-.03-.15-.04c-.04-.02-.07-.04-.08-.06-.02-.02-.03-.05-.03-.09v-2.42h-2.18s-.07,0-.1-.03c-.03-.02-.05-.05-.08-.09-.02-.04-.04-.09-.05-.15-.01-.06-.02-.13-.02-.22,0-.08,0-.15.02-.21.01-.06.03-.11.05-.15s.05-.07.08-.09c.03-.02.06-.03.1-.03h2.19v-2.42s0-.07.03-.1c.02-.03.04-.05.08-.07.04-.02.09-.04.15-.05.06-.01.14-.02.23-.02s.17,0,.23.02c.06.01.11.03.15.05.04.02.07.04.08.07.02.03.03.06.03.1v2.42h2.19s.07,0,.1.03c.03.02.05.05.08.09s.04.09.05.15c.01.06.02.13.02.21Z" style="fill:#616161;"/><path d="m330.32,83.56c0,.08,0,.16-.02.21-.01.06-.03.1-.05.14s-.05.06-.08.08c-.03.02-.06.02-.09.02h-4.49s-.06,0-.09-.02c-.03-.02-.05-.04-.08-.08s-.04-.08-.06-.14-.02-.13-.02-.21c0-.08,0-.15.02-.21.01-.06.03-.1.05-.14s.04-.07.07-.09c.03-.02.06-.03.1-.03h1.79v-6.54l-1.66.99c-.08.04-.15.07-.2.08s-.09,0-.12-.03-.05-.08-.06-.14c-.01-.07-.02-.15-.02-.25,0-.08,0-.14,0-.19s.02-.1.03-.13c.01-.04.03-.07.06-.09.02-.03.06-.05.1-.08l1.98-1.27s.04-.02.07-.03c.03,0,.06-.02.1-.03.04,0,.09-.01.14-.02.05,0,.12,0,.2,0,.11,0,.19,0,.27.01.07,0,.13.02.17.04s.07.04.08.06c.01.02.02.05.02.08v7.56h1.56s.07.01.1.03.06.05.08.09c.02.04.04.09.05.14.01.06.02.13.02.21Z" style="fill:#616161;"/><path d="m332.57,131.86c0,.08,0,.16-.02.22-.01.06-.03.11-.05.15-.02.04-.05.07-.08.09s-.06.03-.1.03h-2.18v2.42s0,.07-.03.09c-.02.02-.04.04-.08.06-.04.02-.09.03-.15.04-.06.01-.14.02-.23.02s-.17,0-.23-.02c-.06-.01-.12-.03-.15-.04-.04-.02-.07-.04-.08-.06-.02-.02-.03-.05-.03-.09v-2.42h-2.18s-.07,0-.1-.03c-.03-.02-.05-.05-.08-.09-.02-.04-.04-.09-.05-.15-.01-.06-.02-.13-.02-.22,0-.08,0-.15.02-.21.01-.06.03-.11.05-.15s.05-.07.08-.09c.03-.02.06-.03.1-.03h2.19v-2.42s0-.07.03-.1c.02-.03.04-.05.08-.07.04-.02.09-.04.15-.05.06-.01.14-.02.23-.02s.17,0,.23.02c.06.01.11.03.15.05.04.02.07.04.08.07.02.03.03.06.03.1v2.42h2.19s.07,0,.1.03c.03.02.05.05.08.09s.04.09.05.15c.01.06.02.13.02.21Z" style="fill:#616161;"/><path d="m339.18,135.19c0,.08,0,.15-.02.21-.01.06-.03.11-.05.16-.02.04-.05.07-.08.09-.03.02-.07.03-.11.03h-4.75c-.06,0-.12,0-.16-.02-.05-.02-.09-.04-.12-.08-.03-.04-.06-.09-.07-.15s-.02-.15-.02-.25c0-.09,0-.17.01-.23s.02-.12.04-.18c.02-.05.05-.1.09-.15s.08-.11.13-.16l1.72-1.77c.4-.41.72-.77.96-1.1.24-.32.42-.62.55-.88.13-.27.22-.51.26-.72.04-.22.06-.42.06-.61s-.03-.37-.1-.54c-.06-.17-.16-.32-.28-.45-.12-.13-.27-.23-.46-.31s-.39-.11-.63-.11c-.28,0-.53.04-.75.11s-.42.16-.58.25-.31.17-.42.25c-.11.08-.2.11-.25.11-.03,0-.06,0-.09-.03-.02-.02-.04-.05-.06-.09-.02-.04-.03-.09-.04-.16,0-.07-.01-.15-.01-.24,0-.07,0-.12,0-.17,0-.05.01-.09.02-.13.01-.04.03-.07.04-.1s.05-.07.11-.12c.05-.05.15-.11.28-.19s.29-.16.49-.24c.2-.08.42-.14.65-.2.24-.05.49-.08.75-.08.42,0,.78.06,1.09.18.31.12.57.28.78.48s.36.44.46.71c.1.27.15.56.15.86,0,.27-.02.55-.07.82-.05.27-.15.57-.31.88-.16.32-.38.67-.68,1.06s-.69.83-1.18,1.34l-1.36,1.42h3.74s.07,0,.1.03c.03.02.06.05.09.09.02.04.04.09.05.15.01.06.02.13.02.21Z" style="fill:#616161;"/><path d="m306.83,99.94c0,.08,0,.16-.02.22-.01.06-.03.11-.05.15-.02.04-.05.07-.08.09s-.06.03-.1.03h-2.18v2.42s0,.07-.03.09c-.02.02-.04.05-.08.06-.04.02-.09.03-.15.04-.06.01-.14.02-.23.02s-.17,0-.23-.02-.12-.03-.15-.04c-.04-.02-.07-.04-.08-.06-.02-.02-.03-.05-.03-.09v-2.42h-2.18s-.07,0-.1-.03c-.03-.02-.05-.05-.08-.09-.02-.04-.04-.09-.05-.15-.01-.06-.02-.13-.02-.22,0-.08,0-.15.02-.21.01-.06.03-.11.05-.15s.05-.07.08-.09c.03-.02.06-.03.1-.03h2.19v-2.42s0-.07.03-.1c.02-.03.04-.05.08-.07.04-.02.09-.04.15-.05.06-.01.14-.02.23-.02s.17,0,.23.02c.06.01.11.03.15.05.04.02.07.04.08.07.02.03.03.06.03.1v2.42h2.19s.07,0,.1.03c.03.02.05.05.08.09s.04.09.05.15c.01.06.02.13.02.21Z" style="fill:#616161;"/><path d="m313.37,101.31c0,.39-.07.75-.21,1.07-.14.32-.33.59-.59.81-.26.23-.57.4-.95.52-.38.12-.8.18-1.28.18-.29,0-.56-.02-.81-.07-.25-.05-.47-.1-.67-.17-.19-.06-.36-.13-.49-.2-.13-.07-.21-.12-.24-.15-.03-.03-.06-.06-.08-.09-.02-.03-.03-.07-.05-.11-.01-.04-.02-.1-.03-.16,0-.06-.01-.14-.01-.24,0-.16.02-.27.05-.33.03-.06.08-.09.14-.09.04,0,.12.04.24.11.12.07.27.15.46.23.19.08.41.16.66.23.25.07.53.11.84.11s.56-.04.79-.11c.23-.08.42-.18.57-.32.16-.14.27-.3.35-.49.08-.19.12-.39.12-.61,0-.24-.05-.46-.15-.66-.1-.19-.24-.36-.43-.5-.19-.14-.42-.25-.7-.33-.28-.08-.59-.11-.94-.11h-.84s-.07,0-.11-.02-.06-.04-.09-.08c-.03-.04-.05-.08-.06-.14-.02-.06-.02-.13-.02-.23,0-.08,0-.15.02-.21.01-.06.03-.1.06-.13.02-.03.05-.06.08-.07s.07-.02.11-.02h.75c.29,0,.56-.04.79-.11.23-.08.43-.18.59-.33.16-.14.29-.31.37-.51.09-.2.13-.42.13-.66,0-.18-.03-.35-.09-.51-.06-.16-.14-.3-.26-.42s-.26-.21-.44-.28c-.18-.07-.39-.1-.62-.1-.26,0-.49.04-.71.12s-.41.16-.58.25c-.17.09-.31.17-.42.25-.11.08-.19.12-.23.12-.03,0-.06,0-.08-.02s-.04-.03-.06-.07c-.02-.03-.03-.08-.03-.14,0-.06-.01-.14-.01-.24,0-.07,0-.13,0-.18,0-.05.01-.1.03-.13.01-.04.03-.07.05-.1.02-.03.05-.07.09-.11s.13-.1.26-.18c.13-.08.29-.16.48-.24.19-.08.41-.14.65-.2.25-.05.51-.08.79-.08.4,0,.75.05,1.05.15.3.1.55.25.75.43.2.19.35.41.45.67.1.26.15.55.15.86,0,.27-.04.52-.11.75-.07.23-.17.44-.31.62-.14.18-.31.33-.5.46-.2.13-.43.21-.69.26h0c.3.04.57.12.81.24.25.12.46.26.63.44.18.18.32.38.42.62.1.24.15.49.15.76Z" style="fill:#616161;"/><path d="m193.23,231.15c0,.08,0,.16-.02.22-.01.06-.03.11-.05.15s-.05.07-.08.09-.06.03-.1.03h-2.18v2.42s0,.07-.03.09c-.02.02-.04.05-.08.06-.04.02-.09.03-.15.04-.06.01-.14.02-.23.02s-.17,0-.23-.02c-.06-.01-.12-.03-.15-.04-.04-.02-.07-.04-.08-.06-.02-.02-.03-.05-.03-.09v-2.42h-2.18s-.07,0-.1-.03c-.03-.02-.05-.05-.08-.09s-.04-.09-.05-.15c-.01-.06-.02-.13-.02-.22s0-.15.02-.21c.01-.06.03-.11.05-.15s.05-.07.08-.09c.03-.02.06-.03.1-.03h2.19v-2.42s0-.07.03-.1c.02-.03.04-.05.08-.07.04-.02.09-.04.15-.05s.14-.02.23-.02.17,0,.23.02c.06.01.11.03.15.05.04.02.07.04.08.07.02.03.03.06.03.1v2.42h2.19s.07,0,.1.03c.03.02.05.05.08.09s.04.09.05.15c.01.06.02.13.02.21Z" style="fill:#616161;"/><path d="m199.86,234.52c0,.08,0,.16-.02.21-.01.06-.03.1-.05.14-.02.04-.05.06-.08.08-.03.02-.06.02-.09.02h-4.49s-.06,0-.09-.02c-.03-.01-.05-.04-.08-.08-.02-.04-.04-.08-.06-.14s-.02-.13-.02-.21c0-.08,0-.15.02-.21.01-.06.03-.1.05-.14.02-.04.04-.07.07-.09.03-.02.06-.03.1-.03h1.79v-6.54l-1.66.99c-.08.04-.15.07-.2.08s-.09,0-.12-.03c-.03-.03-.05-.08-.06-.14-.01-.07-.02-.15-.02-.25,0-.08,0-.14,0-.19,0-.05.02-.1.03-.13.01-.04.03-.07.06-.09s.06-.05.1-.08l1.98-1.27s.04-.02.07-.03c.03,0,.06-.02.1-.03.04,0,.09-.01.14-.02.05,0,.12,0,.2,0,.11,0,.19,0,.27.01.07,0,.13.02.17.04s.07.04.08.06c.01.02.02.05.02.08v7.56h1.56s.07,0,.1.03c.03.02.06.05.08.09.02.04.04.09.05.14.01.06.02.13.02.21Z" style="fill:#616161;"/><path d="m206.18,194.94c0,.08,0,.16-.02.22-.01.06-.03.11-.05.15-.02.04-.05.07-.08.09s-.06.03-.1.03h-2.18v2.42s0,.07-.03.09c-.02.02-.04.04-.08.06-.04.02-.09.03-.15.04-.06.01-.14.02-.23.02s-.17,0-.23-.02c-.06-.01-.12-.03-.15-.04-.04-.02-.07-.04-.08-.06-.02-.02-.03-.05-.03-.09v-2.42h-2.18s-.07,0-.1-.03c-.03-.02-.05-.05-.08-.09-.02-.04-.04-.09-.05-.15-.01-.06-.02-.13-.02-.22,0-.08,0-.15.02-.21.01-.06.03-.11.05-.15s.05-.07.08-.09c.03-.02.06-.03.1-.03h2.19v-2.42s0-.07.03-.1c.02-.03.04-.05.08-.07.04-.02.09-.04.15-.05.06-.01.14-.02.23-.02s.17,0,.23.02c.06.01.11.03.15.05.04.02.07.04.08.07.02.03.03.06.03.1v2.42h2.19s.07,0,.1.03c.03.02.05.05.08.09s.04.09.05.15c.01.06.02.13.02.21Z" style="fill:#616161;"/><path d="m212.8,198.31c0,.08,0,.16-.02.21-.01.06-.03.1-.05.14-.02.04-.05.06-.08.08-.03.02-.06.02-.09.02h-4.49s-.06,0-.09-.02-.05-.04-.08-.08c-.02-.04-.04-.08-.06-.14s-.02-.13-.02-.21,0-.15.02-.21.03-.11.05-.14c.02-.04.04-.07.07-.09.03-.02.06-.03.1-.03h1.79v-6.54l-1.66.99c-.08.04-.15.07-.2.08s-.09,0-.12-.03c-.03-.03-.05-.08-.06-.14-.01-.07-.02-.15-.02-.25,0-.08,0-.14,0-.19,0-.05.02-.1.03-.13.01-.04.03-.07.06-.09.02-.03.06-.05.1-.08l1.98-1.27s.04-.02.07-.03c.03,0,.06-.02.1-.03.04,0,.09-.01.14-.02.05,0,.12,0,.2,0,.11,0,.19,0,.27.01.07,0,.13.02.17.04s.07.04.08.06c.01.02.02.05.02.08v7.56h1.56s.07.01.1.03c.03.02.06.05.08.09.02.04.04.08.05.14.01.06.02.13.02.21Z" style="fill:#616161;"/><path d="m239.54,142.91c0,.08,0,.16-.02.22-.01.06-.03.11-.05.15-.02.04-.05.07-.08.09-.03.02-.06.03-.1.03h-2.18v2.42s0,.07-.03.09-.05.04-.08.06c-.04.02-.09.03-.15.04-.06.01-.14.02-.23.02s-.17,0-.23-.02c-.06-.01-.12-.03-.15-.04-.04-.02-.07-.04-.08-.06-.02-.02-.03-.05-.03-.09v-2.42h-2.18s-.07,0-.1-.03c-.03-.02-.05-.05-.08-.09-.02-.04-.04-.09-.05-.15-.01-.06-.02-.13-.02-.22,0-.08,0-.15.02-.21s.03-.11.05-.15c.02-.04.05-.07.08-.09.03-.02.06-.03.1-.03h2.19v-2.42s0-.07.03-.1c.02-.03.05-.05.08-.07s.09-.04.15-.05c.06-.01.14-.02.23-.02s.17,0,.23.02c.06.01.11.03.15.05.04.02.07.04.08.07.02.03.03.06.03.1v2.42h2.19s.07,0,.1.03.06.05.08.09c.03.04.04.09.05.15s.02.13.02.21Z" style="fill:#616161;"/><path d="m246.15,146.25c0,.08,0,.15-.02.21-.01.06-.03.11-.05.16s-.05.07-.08.09c-.03.02-.07.03-.11.03h-4.75c-.06,0-.12,0-.16-.02s-.09-.04-.12-.08c-.03-.04-.06-.09-.07-.15s-.02-.15-.02-.25c0-.09,0-.17.01-.23s.02-.12.04-.18c.02-.05.05-.1.09-.15.04-.05.08-.11.13-.16l1.72-1.77c.4-.41.71-.77.96-1.1.24-.32.42-.62.55-.88.13-.27.22-.51.26-.72.04-.22.06-.42.06-.61s-.03-.37-.1-.54c-.06-.17-.16-.32-.28-.45-.12-.13-.27-.23-.46-.31-.18-.08-.39-.11-.63-.11-.28,0-.53.04-.75.11s-.42.16-.58.25-.31.17-.42.25c-.11.08-.2.11-.25.11-.03,0-.06,0-.09-.03-.03-.02-.05-.05-.06-.09-.02-.04-.03-.09-.04-.16,0-.07-.01-.15-.01-.24,0-.07,0-.12,0-.17,0-.05.01-.09.02-.13.01-.04.03-.07.04-.1s.05-.07.11-.12c.05-.05.14-.11.28-.19s.29-.16.49-.24c.2-.08.41-.14.65-.2.24-.05.49-.08.75-.08.42,0,.78.06,1.09.18.31.12.57.28.78.48.21.2.36.44.46.71.1.27.15.56.15.86,0,.27-.02.55-.07.82-.05.27-.15.57-.31.88-.16.32-.38.67-.68,1.06s-.69.83-1.18,1.34l-1.36,1.42h3.74s.07,0,.1.03c.03.02.06.05.09.09.02.04.04.09.05.15.01.06.02.13.02.21Z" style="fill:#616161;"/><path d="m228.11,245.06c0,.12,0,.22-.02.31-.02.09-.04.17-.07.23s-.07.11-.12.14c-.05.03-.1.04-.16.04h-6.99c-.09,0-.17-.01-.24-.03-.07-.02-.13-.06-.18-.11-.05-.05-.08-.13-.11-.22-.02-.1-.03-.22-.03-.36,0-.13,0-.24.02-.34,0-.1.03-.18.07-.26.03-.08.08-.15.13-.22.05-.08.12-.16.2-.24l2.53-2.6c.58-.6,1.05-1.14,1.41-1.61.35-.48.62-.91.82-1.3.19-.39.32-.75.38-1.07s.09-.62.09-.9-.05-.55-.14-.8c-.09-.25-.23-.47-.41-.66-.18-.19-.4-.34-.67-.45-.27-.11-.58-.17-.93-.17-.41,0-.78.05-1.1.17-.33.11-.61.23-.86.36-.25.13-.45.25-.62.36-.17.11-.29.17-.37.17-.05,0-.09-.01-.13-.04-.04-.03-.07-.07-.09-.13s-.04-.14-.06-.23-.02-.22-.02-.35c0-.1,0-.18,0-.25,0-.07.02-.13.03-.19.02-.05.04-.1.06-.15.03-.05.08-.1.16-.17s.21-.16.41-.28.43-.23.72-.35.61-.21.96-.29c.35-.08.71-.12,1.1-.12.61,0,1.15.09,1.61.26.46.17.84.41,1.14.71.3.3.53.65.68,1.05.15.4.22.82.22,1.27,0,.4-.04.81-.11,1.21-.07.4-.22.83-.46,1.3-.23.47-.57.98-1,1.56-.44.57-1.02,1.23-1.74,1.97l-2,2.09h5.51c.05,0,.1.01.15.04.05.03.09.07.13.13.04.06.06.13.08.22.02.09.02.19.02.31Z" style="fill:#96f;"/><path d="m277.64,134.89c0,.58-.1,1.1-.3,1.57-.2.47-.49.87-.87,1.2-.38.33-.84.59-1.4.77-.55.18-1.18.27-1.88.27-.42,0-.82-.03-1.19-.1-.37-.07-.7-.15-.98-.24s-.53-.19-.71-.29c-.19-.1-.31-.17-.36-.22s-.09-.09-.11-.14c-.03-.05-.05-.1-.07-.17-.02-.07-.03-.15-.04-.24s-.02-.21-.02-.35c0-.24.02-.4.07-.49.05-.09.11-.14.2-.14.06,0,.18.05.36.16.18.1.4.22.68.34.28.12.6.23.97.34s.78.16,1.24.16.83-.05,1.16-.17c.33-.11.62-.27.84-.47.23-.2.4-.44.51-.72.11-.28.17-.58.17-.91,0-.36-.07-.68-.22-.97-.15-.29-.36-.54-.64-.74-.28-.21-.62-.37-1.03-.48-.41-.11-.87-.17-1.39-.17h-1.24c-.05,0-.11-.01-.16-.03-.05-.02-.09-.06-.13-.11s-.07-.12-.09-.21c-.02-.08-.04-.2-.04-.33,0-.12,0-.23.03-.31.02-.08.05-.15.08-.2s.08-.08.12-.11.1-.03.16-.03h1.11c.43,0,.82-.06,1.16-.17.34-.11.63-.27.87-.48s.42-.46.55-.75c.13-.29.19-.61.19-.97,0-.26-.04-.51-.13-.75-.08-.24-.21-.44-.38-.62-.17-.18-.39-.31-.65-.42-.26-.1-.57-.15-.91-.15-.38,0-.73.06-1.04.17s-.6.24-.85.37c-.25.13-.45.25-.62.37s-.28.17-.34.17c-.05,0-.09,0-.12-.02-.04-.02-.06-.05-.09-.1-.02-.05-.04-.12-.05-.21s-.01-.2-.01-.35c0-.1,0-.18,0-.26,0-.08.02-.14.04-.2.02-.05.04-.11.07-.15.03-.05.07-.1.13-.16.06-.06.19-.15.38-.27s.42-.23.7-.35.6-.21.96-.29.75-.12,1.17-.12c.59,0,1.1.08,1.55.22.44.15.81.36,1.11.64.3.27.52.6.67.98.15.38.22.8.22,1.27,0,.4-.05.77-.16,1.11-.1.34-.26.65-.46.91-.2.26-.45.49-.74.67-.29.19-.63.31-1.02.39v.02c.44.05.84.15,1.2.33.36.17.67.39.93.65.26.26.46.57.61.92s.22.72.22,1.12Z" style="fill:#96f;"/><path d="m363.46,116.25c0,.55-.08,1.09-.25,1.61-.17.52-.43.98-.78,1.37-.35.39-.8.71-1.34.95-.54.24-1.18.36-1.92.36-.53,0-.99-.07-1.4-.2-.41-.13-.76-.32-1.06-.56s-.55-.54-.75-.89c-.2-.35-.36-.75-.48-1.2-.12-.45-.21-.94-.26-1.48-.05-.53-.08-1.11-.08-1.72,0-.54.03-1.09.09-1.64s.16-1.09.31-1.6c.15-.52.35-1,.61-1.45.26-.45.58-.85.97-1.18.39-.34.85-.6,1.39-.8.54-.2,1.17-.29,1.89-.29.24,0,.49.02.73.04.25.03.48.07.69.12.21.05.38.1.53.16.14.06.24.11.28.14.05.04.08.08.1.12.02.04.04.09.05.14.01.05.02.1.03.17,0,.06,0,.14,0,.23,0,.12,0,.22,0,.3,0,.08-.02.15-.04.21-.02.05-.05.09-.09.12-.04.03-.08.04-.14.04-.07,0-.17-.02-.29-.07-.12-.05-.27-.1-.45-.15-.18-.06-.39-.11-.64-.15-.25-.05-.54-.07-.88-.07-.61,0-1.13.12-1.57.37-.44.25-.79.58-1.07,1-.28.42-.48.9-.62,1.45s-.21,1.13-.23,1.73c.17-.1.36-.2.57-.29s.44-.19.69-.26.52-.14.8-.19c.28-.05.58-.07.9-.07.68,0,1.26.09,1.73.28s.85.44,1.14.77c.29.33.5.72.62,1.16s.19.93.19,1.45Zm-1.7.16c0-.38-.04-.72-.11-1.03s-.2-.57-.38-.79c-.18-.22-.41-.38-.71-.5-.29-.12-.66-.18-1.08-.18-.24,0-.48.02-.72.06s-.47.1-.7.18c-.22.08-.44.16-.65.26-.21.1-.39.21-.56.33,0,.84.05,1.55.16,2.11s.26,1.02.47,1.36c.21.34.46.59.77.73.31.15.67.22,1.08.22s.78-.08,1.09-.23c.31-.16.56-.37.76-.63.2-.26.35-.56.44-.89s.14-.67.14-1.01Z" style="fill:#96f;"/></svg>