<svg xmlns="http://www.w3.org/2000/svg" viewBox="0 0 137.56 55.07" width="600">
  <path d="M1.71 31.24a15 15 0 0 1 .6-4.31 7.8 7.8 0 0 1 .67-1.59l.69-1.21c.17-.29.42-.6.76-.94.34-.34.54-.54.6-.62s.21-.2.45-.38h.31c.17 0 .25.05.25.16 0 .04-.1.16-.31.38s-.45.54-.74.96-.59.94-.89 1.56-.55 1.45-.76 2.5-.31 2.21-.31 3.49.1 2.44.31 3.47c.21 1.04.45 1.88.74 2.52.29.64.59 1.16.89 1.56s.55.72.76.96.31.37.31.38c0 .11-.09.16-.27.16h-.29l-.51-.43a8.97 8.97 0 0 1-2.48-3.84 14.74 14.74 0 0 1-.78-4.78Zm5.94 1.68a5.3 5.3 0 0 1 1.38-3.47c.92-1.1 1.95-1.65 3.09-1.66.62 0 1.16.3 1.63.89.19-.36.47-.54.83-.54.16 0 .3.05.42.14s.18.22.18.36c0 .16-.22 1.12-.67 2.9s-.68 2.77-.69 3c0 .3.04.5.13.6.08.1.21.15.38.16a.8.8 0 0 0 .36-.16c.25-.24.5-.82.74-1.74.07-.24.13-.37.18-.38a.53.53 0 0 1 .18-.02h.07c.23 0 .34.05.34.16a5.87 5.87 0 0 1-.45 1.47c-.18.4-.37.7-.58.9-.16.16-.35.28-.58.38-.1.02-.24.04-.43.04-.41 0-.75-.09-1.03-.27s-.46-.37-.54-.56l-.11-.27s-.04 0-.07.02l-.07.07a3.15 3.15 0 0 1-2.17 1.01 2.5 2.5 0 0 1-1.76-.72c-.51-.48-.76-1.25-.76-2.3Zm5.75-3.09c0-.07-.03-.21-.09-.4s-.2-.4-.42-.63-.49-.35-.83-.36c-.42 0-.83.19-1.21.56s-.69.86-.9 1.47c-.35.95-.6 1.94-.74 2.97v.2c0 .1 0 .17-.02.22 0 .54.11.92.33 1.12s.48.31.78.33c.46 0 .91-.2 1.36-.6.45-.4.71-.71.8-.92.02-.05.19-.69.49-1.94.3-1.24.46-1.91.47-2.01Zm8.26 1.64v-.24c0-.16.08-.28.25-.36h5.41v-2.71l.02-2.71c.12-.16.24-.24.34-.24.16 0 .28.09.36.27v5.39h5.39c.18.1.27.22.27.36s-.09.27-.27.36h-5.39v5.39c-.1.17-.21.25-.33.25h-.07c-.14 0-.25-.08-.33-.25v-5.39H21.9c-.17-.08-.25-.21-.25-.36v.24Zm18.41-7.41c0-.12.02-.26.07-.42s.12-.24.22-.24a235.14 235.14 0 0 0 2.62-.2c.14 0 .22.05.22.16s-.21.97-.62 2.59l-.31 1.27c-.11.44-.2.76-.27.98l-.07.34s.04.02.11-.05c.59-.48 1.2-.72 1.83-.72.75 0 1.35.28 1.81.83s.69 1.25.71 2.1c0 1.34-.48 2.55-1.43 3.64s-1.98 1.63-3.08 1.63c-.6 0-1.15-.23-1.65-.69-.49-.46-.75-1.2-.76-2.23v-.16c0-.25.05-.6.14-1.05s.39-1.63.89-3.56c.6-2.38.9-3.64.9-3.78s-.23-.23-.69-.25h-.47s-.08-.02-.13-.05-.07-.08-.05-.13Zm4.76 5.83v-.11c0-.89-.37-1.34-1.1-1.34-.21 0-.42.05-.63.14s-.42.22-.6.38l-.47.43a2.9 2.9 0 0 0-.33.4l-.11.14-.38 1.56c-.27 1.04-.4 1.77-.4 2.21 0 .58.14 1.01.43 1.3.19.19.43.29.72.29.4 0 .8-.19 1.21-.58.3-.28.54-.62.72-1.01s.38-1.03.6-1.9.33-1.51.33-1.92Zm2.76-7.68.07-.02h.4l.51.43a8.97 8.97 0 0 1 2.48 3.84 14.74 14.74 0 0 1 .6 7.15c-.12.76-.26 1.41-.42 1.94a8.3 8.3 0 0 1-.67 1.59c-.29.53-.52.93-.69 1.21a5.4 5.4 0 0 1-.74.92l-.58.6-.42.34-.07.07h-.42s-.07-.02-.09-.05-.04-.09-.05-.16l.2-.24c1.87-1.94 2.8-4.81 2.8-8.6s-.93-6.65-2.8-8.6l-.2-.24c0-.1.03-.16.09-.2Zm7.66 9.03a15 15 0 0 1 .6-4.31 7.8 7.8 0 0 1 .67-1.59l.69-1.21c.17-.29.42-.6.76-.94.34-.34.54-.54.6-.62s.21-.2.45-.38h.31c.17 0 .25.05.25.16 0 .04-.1.16-.31.38s-.45.54-.74.96-.59.94-.89 1.56-.55 1.45-.76 2.5-.31 2.21-.31 3.49.1 2.44.31 3.47c.21 1.04.45 1.88.74 2.52.29.64.59 1.16.89 1.56s.55.72.76.96.31.37.31.38c0 .11-.09.16-.27.16h-.29l-.51-.43a8.97 8.97 0 0 1-2.48-3.84 14.74 14.74 0 0 1-.78-4.78Zm5.95 1.65c0-1.31.52-2.5 1.56-3.55a4.68 4.68 0 0 1 3.37-1.57c.68 0 1.21.14 1.59.43s.59.67.6 1.14a1.24 1.24 0 0 1-1.21 1.27c-.23 0-.41-.06-.54-.18s-.2-.3-.2-.54.07-.45.2-.62.27-.3.4-.38.22-.12.25-.11h.02s-.04-.06-.11-.11-.2-.1-.38-.14-.39-.07-.62-.07c-.36 0-.71.08-1.03.25-.25.11-.51.3-.78.56a4.72 4.72 0 0 0-1.16 2.24c-.24.97-.37 1.66-.38 2.1 0 .55.16.97.47 1.25.27.29.62.43 1.05.43h.07c1.35 0 2.47-.51 3.35-1.54.11-.12.18-.18.22-.18.05 0 .13.05.24.16s.17.19.18.25-.04.15-.16.27l-.52.51c-.22.22-.5.4-.81.54s-.7.3-1.16.45-.94.22-1.45.2a2.9 2.9 0 0 1-2.19-.87 3.13 3.13 0 0 1-.85-2.21Zm12.26-1.42v-.24c0-.16.08-.28.25-.36h5.41v-2.71l.02-2.71c.12-.16.24-.24.34-.24.16 0 .28.09.36.27v5.39h5.39c.18.1.27.22.27.36s-.09.27-.27.36h-5.39v5.39c-.1.17-.21.25-.33.25h-.07c-.14 0-.25-.08-.33-.25v-5.39H73.7c-.17-.08-.25-.21-.25-.36v.24Zm23.71-8.07 1.3-.09c.85-.06 1.3-.1 1.32-.11.14 0 .22.05.22.14 0 .08-.44 1.91-1.32 5.46l-1.36 5.45a.59.59 0 0 0-.02.27c0 .51.17.76.51.76a.8.8 0 0 0 .36-.16c.25-.24.5-.82.74-1.74.07-.24.13-.37.18-.38a.53.53 0 0 1 .18-.02h.14c.18 0 .27.05.27.14a7.17 7.17 0 0 1-.59 1.76c-.21.37-.37.62-.51.72s-.3.21-.51.29c-.1.02-.24.04-.43.04-.41 0-.75-.09-1.03-.27s-.46-.37-.54-.56l-.11-.27s-.04 0-.07.02l-.07.07a3.15 3.15 0 0 1-2.17 1.01 2.5 2.5 0 0 1-1.76-.72c-.51-.48-.76-1.25-.76-2.3 0-.58.12-1.17.36-1.77.24-.6.53-1.12.87-1.56.57-.69 1.13-1.16 1.7-1.43s1.08-.4 1.54-.4c.68 0 1.18.25 1.52.76.06.07.09.1.09.07l.49-1.97c.32-1.26.48-1.94.51-2.01 0-.16-.04-.25-.13-.29s-.32-.07-.71-.09H97c-.07-.07-.11-.12-.11-.14l.04-.34c.06-.23.14-.34.24-.34Zm-.25 6.46c-.28-.95-.73-1.43-1.36-1.43-.42 0-.83.19-1.21.56s-.69.86-.9 1.47c-.35.95-.6 1.94-.74 2.97v.2c0 .1 0 .17-.02.22 0 .54.11.92.33 1.12s.48.31.78.33c.65 0 1.32-.43 2.01-1.3l.14-.2.98-3.93Zm8.07 1.61v-.24c0-.16.08-.28.25-.36h5.41v-2.71l.02-2.71c.12-.16.24-.24.34-.24.16 0 .28.09.36.27v5.39h5.39c.18.1.27.22.27.36s-.09.27-.27.36h-5.39v5.39c-.1.17-.21.25-.33.25h-.07c-.14 0-.25-.08-.33-.25v-5.39h-5.41c-.17-.08-.25-.21-.25-.36v.24Zm17.79 1.25c0-.69.11-1.31.34-1.88.23-.57.52-1.04.89-1.41a5.7 5.7 0 0 1 2.48-1.5c.4-.12.78-.17 1.14-.16h.05c.54 0 1.01.13 1.41.4s.6.66.6 1.18c0 1.09-.67 1.8-2.01 2.14-.59.16-1.4.24-2.42.25-.45 0-.68.01-.69.04l-.11.63c-.07.39-.11.75-.13 1.05 0 .57.13 1.01.38 1.34s.63.49 1.14.51 1.07-.1 1.68-.34a4.3 4.3 0 0 0 1.66-1.19c.11-.12.18-.18.22-.18.05 0 .13.05.24.16s.17.19.18.25-.04.16-.16.29-.3.3-.54.49a4.67 4.67 0 0 1-1.97 1.01c-.45.12-.9.18-1.38.18-.95 0-1.69-.32-2.21-.96a3.63 3.63 0 0 1-.8-2.28Zm6.04-3.35c-.07-.63-.48-.94-1.23-.94-.4 0-.77.08-1.1.25-.34.17-.61.37-.81.62s-.38.49-.52.74-.24.47-.29.65l-.09.34c0 .01.12.02.36.02 1.36 0 2.32-.14 2.86-.43s.82-.71.83-1.25Zm2.77-7.16.07-.02h.4l.51.43a8.97 8.97 0 0 1 2.48 3.84 14.74 14.74 0 0 1 .6 7.15c-.12.76-.26 1.41-.42 1.94a8.3 8.3 0 0 1-.67 1.59c-.29.53-.52.93-.69 1.21a5.4 5.4 0 0 1-.74.92l-.58.6-.42.34-.07.07h-.42s-.07-.02-.09-.05-.04-.09-.05-.16l.2-.24c1.87-1.94 2.8-4.81 2.8-8.6s-.93-6.65-2.8-8.6l-.2-.24c0-.1.03-.16.09-.2Z"/>
  <path fill="none" stroke="#28b400" stroke-miterlimit="10" d="M11.93 22.62c.66-1.47 20.99-45.61 111.65.59"/>
  <path fill="none" stroke="#28b400" stroke-miterlimit="10" d="M11.93 22.62c2.75-2.91 27.83-31.9 80.75 0"/>
  <path fill="none" stroke="#28b400" stroke-miterlimit="10" d="M11.93 22.62c4.28-3.62 34.22-17.64 52.85 0"/>
  <path fill="none" stroke="#ff4915" stroke-miterlimit="10" d="M42.82 40.29s9.2 10.54 21.96 0"/>
  <path fill="none" stroke="#ff4915" stroke-miterlimit="10" d="M42.53 40.29c.02 3.62 20.94 18.86 50.91-.87"/>
  <path fill="none" stroke="#ff4915" stroke-miterlimit="10" d="M42.54 40.34c-1.14 7.08 30.88 25.58 80.57-.87"/>
</svg>
