<?xml version="1.0" encoding="UTF-8"?>
<svg id="_Слой_1" data-name="Слой 1" xmlns="http://www.w3.org/2000/svg" viewBox="0 0 603.84 307.24" width="800">
  <defs>
    <style>
      .cls-1, .cls-2 {
        fill: #428e46;
      }

      .cls-3, .cls-4, .cls-2, .cls-5 {
        font-family: ArialMT, Arial;
        font-size: 16px;
        isolation: isolate;
      }

      .cls-3, .cls-6 {
        fill: #09f;
      }

      .cls-4, .cls-7 {
        fill: #aa42af;
      }

      .cls-8 {
        stroke: #000;
      }

      .cls-8, .cls-9 {
        fill: none;
        stroke-linecap: round;
        stroke-linejoin: round;
      }

      .cls-10 {
        letter-spacing: -.03em;
      }

      .cls-9 {
        stroke: #a0a0a0;
        stroke-width: 2.5px;
      }

      .cls-11, .cls-5 {
        fill: #96f;
      }

      .cls-12 {
        letter-spacing: -.02em;
      }

      .cls-13 {
        letter-spacing: -.01em;
      }
    </style>
  </defs>
  <path class="cls-9" d="m343.35,241.63c-19.42-44.63-59.67-76.77-107.49-85.84s-97.04,6.1-131.46,40.51"/>
  <path class="cls-9" d="m343.35,241.63c5.85-62.73-36.96-119.61-98.86-131.36s-122.57,25.52-140.09,86.03"/>
  <path class="cls-9" d="m104.4,196.3c68.29,51.4,156.58,68.15,238.95,45.33"/>
  <path class="cls-9" d="m343.35,241.63c13.53,31.99,44.31,53.3,79.02,54.71,34.71,1.41,67.11-17.34,83.19-48.13s12.95-68.1-8.04-95.77"/>
  <path class="cls-9" d="m497.53,152.44c-66.09-10.86-130.64,26.49-154.17,89.19"/>
  <path class="cls-9" d="m343.35,241.63c31.21,22.38,72.64,24.41,105.88,5.17s52.14-56.15,48.29-94.36"/>
  <path class="cls-9" d="m343.35,241.63c58.77-14.61,112.21-45.53,154.17-89.19"/>
  <path class="cls-9" d="m453.36,32.14c-13.64,21.17-16.56,47.51-7.88,71.15,8.68,23.64,27.95,41.84,52.05,49.15"/>
  <path class="cls-9" d="m497.53,152.44c19.32-19.5,25.62-48.42,16.16-74.19-9.46-25.77-32.97-43.74-60.32-46.11"/>
  <path class="cls-6" d="m109.4,196.3c0,2.76-2.24,5-5,5s-5-2.24-5-5,2.24-5,5-5,5,2.24,5,5Z"/>
  <path class="cls-8" d="m109.4,196.3c0,2.76-2.24,5-5,5s-5-2.24-5-5,2.24-5,5-5,5,2.24,5,5Z"/>
  <text class="cls-3" transform="translate(8.04 224.43)"><tspan x="0" y="0">Мл</tspan><tspan class="cls-10" x="22.66" y="0">е</tspan><tspan x="31.03" y="0">чный путь</tspan></text>
  <path class="cls-11" d="m348.35,241.63c0,2.76-2.24,5-5,5s-5-2.24-5-5,2.24-5,5-5,5,2.24,5,5Z"/>
  <path class="cls-8" d="m348.35,241.63c0,2.76-2.24,5-5,5s-5-2.24-5-5,2.24-5,5-5,5,2.24,5,5Z"/>
  <text class="cls-5" transform="translate(222.38 272.24)"><tspan x="0" y="0">Оме</tspan><tspan class="cls-12" x="32.34" y="0">г</tspan><tspan x="37.83" y="0">а Цен</tspan><tspan class="cls-13" x="80.74" y="0">т</tspan><tspan x="87.89" y="0">авра</tspan></text>
  <path class="cls-7" d="m502.53,152.44c0,2.76-2.24,5-5,5s-5-2.24-5-5,2.24-5,5-5,5,2.24,5,5Z"/>
  <path class="cls-8" d="m502.53,152.44c0,2.76-2.24,5-5,5s-5-2.24-5-5,2.24-5,5-5,5,2.24,5,5Z"/>
  <text class="cls-4" transform="translate(512.81 157.44)"><tspan x="0" y="0">Андром</tspan><tspan class="cls-12" x="57.64" y="0">е</tspan><tspan x="66.19" y="0">да</tspan></text>
  <path class="cls-1" d="m458.36,32.14c0,2.76-2.24,5-5,5s-5-2.24-5-5,2.24-5,5-5,5,2.24,5,5Z"/>
  <path class="cls-8" d="m458.36,32.14c0,2.76-2.24,5-5,5s-5-2.24-5-5,2.24-5,5-5,5,2.24,5,5Z"/>
  <text class="cls-2" transform="translate(457.28 22.24)"><tspan x="0" y="0">Кассиопея</tspan></text>
</svg>