<svg xmlns="http://www.w3.org/2000/svg" data-name="Слой 1" viewBox="0 0 464 245" width="800">
  <path fill="none" stroke="rgba(97,97,97,.8)" stroke-linecap="round" stroke-linejoin="round" stroke-width="2.5" d="m89 64 114 60m243-14-70 84m0 0-106-14m0 0-78 49m0 0-73-43m0 0-101 4m0 0L89 64m114 60 51-26m0 0-28-46m0 0 101-36m0 0 19 42m0 0 100 52"/>
  <path fill="#616161" d="M96 64a7 7 0 1 1-13 0 7 7 0 0 1 13 0Zm114 60a7 7 0 1 1-14 0 7 7 0 0 1 14 0Zm243-14a7 7 0 1 1-14 0 7 7 0 0 1 14 0Zm-70 84a7 7 0 1 1-14 0 7 7 0 0 1 14 0Zm-106-14a7 7 0 1 1-14 0 7 7 0 0 1 14 0Zm-78 49a7 7 0 1 1-14 0 7 7 0 0 1 14 0Zm-73-43a7 7 0 1 1-14 0 7 7 0 0 1 14 0Zm-101 4a7 7 0 1 1-14 0 7 7 0 0 1 14 0Zm236-92a7 7 0 1 1-14 0 7 7 0 0 1 14 0Zm-28-46a7 7 0 1 1-14 0 7 7 0 0 1 14 0Zm101-36a7 7 0 1 1-14 0 7 7 0 0 1 14 0Zm19 42a7 7 0 1 1-14 0 7 7 0 0 1 14 0Z"/>
</svg>
