<?xml version="1.0" encoding="UTF-8"?><svg id="a" xmlns="http://www.w3.org/2000/svg" viewBox="0 0 940 500"><path d="m20,20v460h900V20H20Zm111.75,450.71H29.28v-103.73h102.47v103.73Zm0-112.56H29.28v-103.73h102.47v103.73Zm0-112.56H29.28v-103.73h102.47v103.73Zm0-112.56H29.28V29.29h102.47v103.73Zm111.28,337.68h-102.47v-103.73h102.47v103.73Zm0-112.56h-102.47v-103.73h102.47v103.73Zm0-112.56h-102.47v-103.73h102.47v103.73Zm0-112.56h-102.47V29.29h102.47v103.73Zm111.28,337.68h-102.47v-103.73h102.47v103.73Zm0-112.56h-102.47v-103.73h102.47v103.73Zm0-112.56h-102.47v-103.73h102.47v103.73Zm0-112.56h-102.47V29.29h102.47v103.73Zm111.28,337.68h-102.47v-103.73h102.47v103.73Zm0-112.56h-102.47v-103.73h102.47v103.73Zm0-112.56h-102.47v-103.73h102.47v103.73Zm0-112.56h-102.47V29.29h102.47v103.73Zm111.28,337.68h-102.47v-103.73h102.47v103.73Zm0-112.56h-102.47v-103.73h102.47v103.73Zm0-112.56h-102.47v-103.73h102.47v103.73Zm0-112.56h-102.47V29.29h102.47v103.73Zm111.28,337.68h-102.47v-103.73h102.47v103.73Zm0-112.56h-102.47v-103.73h102.47v103.73Zm0-112.56h-102.47v-103.73h102.47v103.73Zm0-112.56h-102.47V29.29h102.47v103.73Zm111.28,337.68h-102.47v-103.73h102.47v103.73Zm0-112.56h-102.47v-103.73h102.47v103.73Zm0-112.56h-102.47v-103.73h102.47v103.73Zm0-112.56h-102.47V29.29h102.47v103.73Zm111.28,337.68h-102.47v-103.73h102.47v103.73Zm0-112.56h-102.47v-103.73h102.47v103.73Zm0-112.56h-102.47v-103.73h102.47v103.73Zm0-112.56h-102.47V29.29h102.47v103.73Z" style="fill:#878787;"/><rect x="243.03" y="20" width="8.81" height="460" style="fill:#e30613;"/><rect x="20" y="133.03" width="900" height="8.83" style="fill:#e30613;"/><circle cx="247.44" cy="137.44" r="15" style="fill:#e30613;"/><circle cx="25.28" cy="137.44" r="12.5" style="fill:none; stroke:#e30613; stroke-miterlimit:10; stroke-width:5px;"/><circle cx="135.11" cy="137.44" r="12.5" style="fill:none; stroke:#e30613; stroke-miterlimit:10; stroke-width:5px;"/><circle cx="358.81" cy="137.44" r="12.5" style="fill:none; stroke:#e30613; stroke-miterlimit:10; stroke-width:5px;"/><circle cx="247.44" cy="24.88" r="12.5" style="fill:none; stroke:#e30613; stroke-miterlimit:10; stroke-width:5px;"/><circle cx="247.44" cy="249.99" r="12.5" style="fill:none; stroke:#e30613; stroke-miterlimit:10; stroke-width:5px;"/><circle cx="247.44" cy="362.25" r="12.5" style="fill:none; stroke:#e30613; stroke-miterlimit:10; stroke-width:5px;"/><circle cx="247.44" cy="474.51" r="12.5" style="fill:none; stroke:#e30613; stroke-miterlimit:10; stroke-width:5px;"/><circle cx="470" cy="137.44" r="12.5" style="fill:none; stroke:#e30613; stroke-miterlimit:10; stroke-width:5px;"/><circle cx="581.42" cy="137.44" r="12.5" style="fill:none; stroke:#e30613; stroke-miterlimit:10; stroke-width:5px;"/><circle cx="692.42" cy="137.44" r="12.5" style="fill:none; stroke:#e30613; stroke-miterlimit:10; stroke-width:5px;"/><circle cx="803.88" cy="137.44" r="12.5" style="fill:none; stroke:#e30613; stroke-miterlimit:10; stroke-width:5px;"/><circle cx="915.16" cy="137.44" r="12.5" style="fill:none; stroke:#e30613; stroke-miterlimit:10; stroke-width:5px;"/></svg>