<?xml version="1.0" encoding="UTF-8"?><svg xmlns="http://www.w3.org/2000/svg" viewBox="0 0 835 235"><polygon points="87.16 129.08 63.23 114.9 12.81 200.61 30.81 200.61 77.1 171.01 87.16 129.08" style="fill:#9d9d9c;"/><polygon points="40.09 200.61 70 200.61 75.42 178.02 40.09 200.61" style="fill:#9d9d9c;"/><polygon points="81.49 174.14 75.14 200.61 207.91 200.61 120.8 149.01 81.49 174.14" style="fill:#9d9d9c;"/><polygon points="83.18 167.13 115.98 146.15 91.67 131.75 83.18 167.13" style="fill:#9d9d9c;"/><polygon points="109.4 36.41 65.77 110.59 88.39 123.99 109.4 36.41" style="fill:#9d9d9c;"/><polygon points="210.19 196.15 165.6 120.36 125.52 145.99 210.19 196.15" style="fill:#9d9d9c;"/><polygon points="120.7 143.14 163.07 116.05 115.03 34.39 92.89 126.66 120.7 143.14" style="fill:#9d9d9c;"/><polygon points="744.46 33.83 723.08 17.5 663.08 63.34 717.94 98.86 744.46 33.83" style="fill:#9d9d9c;"/><polygon points="716.02 103.57 658.86 66.56 623.08 93.89 643.5 159.97 702.07 137.75 716.02 103.57" style="fill:#9d9d9c;"/><polygon points="644.98 164.75 661.28 217.5 669.54 217.5 699.49 144.08 644.98 164.75" style="fill:#9d9d9c;"/><polygon points="705.88 141.65 674.94 217.5 784.88 217.5 802.74 159.71 749.37 125.16 705.88 141.65" style="fill:#9d9d9c;"/><polygon points="708.46 135.33 744.16 121.79 720.29 106.33 708.46 135.33" style="fill:#9d9d9c;"/><polygon points="749.96 119.59 821.3 92.53 748.58 36.98 722.21 101.62 749.96 119.59" style="fill:#9d9d9c;"/><polygon points="804.27 154.75 821.92 97.65 755.17 122.96 804.27 154.75" style="fill:#9d9d9c;"/><polygon points="454.64 126.83 488.22 141.43 517.5 134.73 517.5 17.5 478.4 17.5 452.36 66.1 454.64 126.83" style="fill:#9d9d9c;"/><polygon points="472.73 17.5 450.52 17.5 451.98 56.21 472.73 17.5" style="fill:#9d9d9c;"/><polygon points="517.5 154.17 517.5 139.86 495.95 144.79 517.5 154.17" style="fill:#9d9d9c;"/><polygon points="455.47 148.93 480.01 143.31 454.85 132.37 455.47 148.93" style="fill:#9d9d9c;"/><polygon points="421.8 112.54 447.31 64.93 445.52 17.5 325.36 17.5 389.69 98.58 421.8 112.54" style="fill:#9d9d9c;"/><polygon points="401.33 161.32 428.21 155.17 414.13 137.43 401.33 161.32" style="fill:#9d9d9c;"/><polygon points="458.06 217.5 477.66 217.5 457.08 191.56 458.06 217.5" style="fill:#9d9d9c;"/><polygon points="431.65 159.51 398.2 167.16 371.22 217.5 453.05 217.5 451.83 184.94 431.65 159.51" style="fill:#9d9d9c;"/><polygon points="419.43 116.96 396.29 106.9 413.32 128.36 419.43 116.96" style="fill:#9d9d9c;"/><polygon points="455.67 154.01 456.76 183.11 484.05 217.5 517.5 217.5 517.5 159.62 487.73 146.67 455.67 154.01" style="fill:#9d9d9c;"/><polygon points="447.68 74.82 426.4 114.54 449.56 124.61 447.68 74.82" style="fill:#9d9d9c;"/><polygon points="449.76 130.16 424.03 118.96 416.71 132.63 433.61 153.93 450.51 150.06 449.76 130.16" style="fill:#9d9d9c;"/><polygon points="410.75 133.16 386.55 102.66 317.5 72.63 317.5 180.51 394.87 162.8 410.75 133.16" style="fill:#9d9d9c;"/><polygon points="317.5 185.63 317.5 217.5 365.55 217.5 391.73 168.64 317.5 185.63" style="fill:#9d9d9c;"/><polygon points="437.05 158.27 451.51 176.49 450.71 155.15 437.05 158.27" style="fill:#9d9d9c;"/><polygon points="318.98 17.5 317.5 17.5 317.5 67.18 379.94 94.34 318.98 17.5" style="fill:#9d9d9c;"/></svg>