<svg xmlns="http://www.w3.org/2000/svg" viewBox="0 0 421.5 384.1" width="800">
  <g fill="none" stroke="#85c068" stroke-miterlimit="10" stroke-width="5">
    <path d="M301.6 264.8v-3h3"/>
    <path stroke-dasharray="0 0 6 4" d="M308.6 261.8h38"/>
    <path d="M348.6 261.8h3v3"/>
    <path stroke-dasharray="0 0 6 4" d="M351.6 268.8v38"/>
    <path d="M351.6 308.8v3h-3"/>
    <path stroke-dasharray="0 0 6 4" d="M344.6 311.8h-38"/>
    <path d="M304.6 311.8h-3v-3"/>
    <path stroke-dasharray="0 0 6 4" d="M301.6 304.8v-38"/>
    <path d="M301.6 214.8v-3h3"/>
    <path stroke-dasharray="0 0 6 4" d="M308.6 211.8h38"/>
    <path d="M348.6 211.8h3v3"/>
    <path stroke-dasharray="0 0 6 4" d="M351.6 218.8v38"/>
    <path d="M351.6 258.8v3h-3"/>
    <path stroke-dasharray="0 0 6 4" d="M344.6 261.8h-38"/>
    <path d="M304.6 261.8h-3v-3"/>
    <path stroke-dasharray="0 0 6 4" d="M301.6 254.8v-38"/>
    <path d="M251.6 214.8v-3h3"/>
    <path stroke-dasharray="0 0 6 4" d="M258.6 211.8h38"/>
    <path d="M298.6 211.8h3v3"/>
    <path stroke-dasharray="0 0 6 4" d="M301.6 218.8v38"/>
    <path d="M301.6 258.8v3h-3"/>
    <path stroke-dasharray="0 0 6 4" d="M294.6 261.8h-38"/>
    <path d="M254.6 261.8h-3v-3"/>
    <path stroke-dasharray="0 0 6 4" d="M251.6 254.8v-38"/>
    <path d="M301.6 164.8v-3h3"/>
    <path stroke-dasharray="0 0 6 4" d="M308.6 161.8h38"/>
    <path d="M348.6 161.8h3v3"/>
    <path stroke-dasharray="0 0 6 4" d="M351.6 168.8v38"/>
    <path d="M351.6 208.8v3h-3"/>
    <path stroke-dasharray="0 0 6 4" d="M344.6 211.8h-38"/>
    <path d="M304.6 211.8h-3v-3"/>
    <path stroke-dasharray="0 0 6 4" d="M301.6 204.8v-38"/>
    <path d="M251.6 164.8v-3h3"/>
    <path stroke-dasharray="0 0 6 4" d="M258.6 161.8h38"/>
    <path d="M298.6 161.8h3v3"/>
    <path stroke-dasharray="0 0 6 4" d="M301.6 168.8v38"/>
    <path d="M301.6 208.8v3h-3"/>
    <path stroke-dasharray="0 0 6 4" d="M294.6 211.8h-38"/>
    <path d="M254.6 211.8h-3v-3"/>
    <path stroke-dasharray="0 0 6 4" d="M251.6 204.8v-38"/>
    <path d="M201.6 164.8v-3h3"/>
    <path stroke-dasharray="0 0 6 4" d="M208.6 161.8h38"/>
    <path d="M248.6 161.8h3v3"/>
    <path stroke-dasharray="0 0 6 4" d="M251.6 168.8v38"/>
    <path d="M251.6 208.8v3h-3"/>
    <path stroke-dasharray="0 0 6 4" d="M244.6 211.8h-38"/>
    <path d="M204.6 211.8h-3v-3"/>
    <path stroke-dasharray="0 0 6 4" d="M201.6 204.8v-38"/>
    <path d="M301.6 114.8v-3h3"/>
    <path stroke-dasharray="0 0 6 4" d="M308.6 111.8h38"/>
    <path d="M348.6 111.8h3v3"/>
    <path stroke-dasharray="0 0 6 4" d="M351.6 118.8v38"/>
    <path d="M351.6 158.8v3h-3"/>
    <path stroke-dasharray="0 0 6 4" d="M344.6 161.8h-38"/>
    <path d="M304.6 161.8h-3v-3"/>
    <path stroke-dasharray="0 0 6 4" d="M301.6 154.8v-38"/>
    <path d="M251.6 114.8v-3h3"/>
    <path stroke-dasharray="0 0 6 4" d="M258.6 111.8h38"/>
    <path d="M298.6 111.8h3v3"/>
    <path stroke-dasharray="0 0 6 4" d="M301.6 118.8v38"/>
    <path d="M301.6 158.8v3h-3"/>
    <path stroke-dasharray="0 0 6 4" d="M294.6 161.8h-38"/>
    <path d="M254.6 161.8h-3v-3"/>
    <path stroke-dasharray="0 0 6 4" d="M251.6 154.8v-38"/>
    <path d="M201.6 114.8v-3h3"/>
    <path stroke-dasharray="0 0 6 4" d="M208.6 111.8h38"/>
    <path d="M248.6 111.8h3v3"/>
    <path stroke-dasharray="0 0 6 4" d="M251.6 118.8v38"/>
    <path d="M251.6 158.8v3h-3"/>
    <path stroke-dasharray="0 0 6 4" d="M244.6 161.8h-38"/>
    <path d="M204.6 161.8h-3v-3"/>
    <path stroke-dasharray="0 0 6 4" d="M201.6 154.8v-38"/>
    <path d="M151.6 114.8v-3h3"/>
    <path stroke-dasharray="0 0 6 4" d="M158.6 111.8h38"/>
    <path d="M198.6 111.8h3v3"/>
    <path stroke-dasharray="0 0 6 4" d="M201.6 118.8v38"/>
    <path d="M201.6 158.8v3h-3"/>
    <path stroke-dasharray="0 0 6 4" d="M194.6 161.8h-38"/>
    <path d="M154.6 161.8h-3v-3"/>
    <path stroke-dasharray="0 0 6 4" d="M151.6 154.8v-38"/>
    <path d="M301.6 64.8v-3h3"/>
    <path stroke-dasharray="0 0 6 4" d="M308.6 61.8h38"/>
    <path d="M348.6 61.8h3v3"/>
    <path stroke-dasharray="0 0 6 4" d="M351.6 68.8v38"/>
    <path d="M351.6 108.8v3h-3"/>
    <path stroke-dasharray="0 0 6 4" d="M344.6 111.8h-38"/>
    <path d="M304.6 111.8h-3v-3"/>
    <path stroke-dasharray="0 0 6 4" d="M301.6 104.8v-38"/>
    <path d="M251.6 64.8v-3h3"/>
    <path stroke-dasharray="0 0 6 4" d="M258.6 61.8h38"/>
    <path d="M298.6 61.8h3v3"/>
    <path stroke-dasharray="0 0 6 4" d="M301.6 68.8v38"/>
    <path d="M301.6 108.8v3h-3"/>
    <path stroke-dasharray="0 0 6 4" d="M294.6 111.8h-38"/>
    <path d="M254.6 111.8h-3v-3"/>
    <path stroke-dasharray="0 0 6 4" d="M251.6 104.8v-38"/>
    <path d="M201.6 64.8v-3h3"/>
    <path stroke-dasharray="0 0 6 4" d="M208.6 61.8h38"/>
    <path d="M248.6 61.8h3v3"/>
    <path stroke-dasharray="0 0 6 4" d="M251.6 68.8v38"/>
    <path d="M251.6 108.8v3h-3"/>
    <path stroke-dasharray="0 0 6 4" d="M244.6 111.8h-38"/>
    <path d="M204.6 111.8h-3v-3"/>
    <path stroke-dasharray="0 0 6 4" d="M201.6 104.8v-38"/>
    <path d="M151.6 64.8v-3h3"/>
    <path stroke-dasharray="0 0 6 4" d="M158.6 61.8h38"/>
    <path d="M198.6 61.8h3v3"/>
    <path stroke-dasharray="0 0 6 4" d="M201.6 68.8v38"/>
    <path d="M201.6 108.8v3h-3"/>
    <path stroke-dasharray="0 0 6 4" d="M194.6 111.8h-38"/>
    <path d="M154.6 111.8h-3v-3"/>
    <path stroke-dasharray="0 0 6 4" d="M151.6 104.8v-38"/>
    <path d="M101.6 64.8v-3h3"/>
    <path stroke-dasharray="0 0 6 4" d="M108.6 61.8h38"/>
    <path d="M148.6 61.8h3v3"/>
    <path stroke-dasharray="0 0 6 4" d="M151.6 68.8v38"/>
    <path d="M151.6 108.8v3h-3"/>
    <path stroke-dasharray="0 0 6 4" d="M144.6 111.8h-38"/>
    <path d="M104.6 111.8h-3v-3"/>
    <path stroke-dasharray="0 0 6 4" d="M101.6 104.8v-38"/>
  </g>
  <path fill="none" stroke="#5ac2db" stroke-miterlimit="10" stroke-width="5" d="M51.6 61.8h50v50h-50zm0 50h50v50h-50zm50 0h50v50h-50zm-50 50h50v50h-50zm50 0h50v50h-50zm50 0h50v50h-50zm-100 50h50v50h-50zm50 0h50v50h-50zm50 0h50v50h-50zm50 0h50v50h-50zm-150 50h50v50h-50zm50 0h50v50h-50zm50 0h50v50h-50zm50 0h50v50h-50zm50 0h50v50h-50z"/>
  <path fill="#4494a7" d="M18.4 99v1l-.3.7c0 .2-.2.3-.3.4H1.4a.9.9 0 0 1-.3-.4L1 100a7.7 7.7 0 0 1 .2-2.8c0-.2.2-.3.3-.4l.3-.1H7V78.1l-4.5 2.5-.9.3h-.5l-.2-.7-.1-1.3v-1l.1-.5c0-.2.2-.3.3-.4l.4-.3 6.1-4 .3-.2h2.2a24.7 24.7 0 0 1 2.2 0l.3.3.1.3v23.6h4.7l.3.1c.2.1.3.2.3.4l.2.7v1Zm.8 50v1l-.3.8-.2.4-.4.1H1a1 1 0 0 1-.6-.4l-.3-.7-.1-1.3v-1.2l.3-1 .5-.8.7-.8 5-5.3a26.1 26.1 0 0 0 3.7-5.2 8.8 8.8 0 0 0 1-3.6c0-.5-.2-1-.3-1.3l-.7-1.2a3 3 0 0 0-1.1-.7c-.5-.2-1-.3-1.6-.3-1 0-1.7 0-2.4.3l-1.7.8-1.3.7-.8.3H1a1 1 0 0 1-.3-.5l-.1-.9a11.4 11.4 0 0 1 0-2.7l.3-.4.3-.5c.1-.2.6-.4 1-.6a12.9 12.9 0 0 1 4.3-1.5 13.3 13.3 0 0 1 6.6.3c1.1.4 2 .9 2.8 1.6a6 6 0 0 1 1.6 2.4c.4.9.6 1.9.6 3l-.3 2.7a15.3 15.3 0 0 1-3.5 6.3 47 47 0 0 1-4 4.4l-3.4 3.4h11.3c.2 0 .3 0 .4.2l.3.4.2.7.1 1Zm-.1 44.1a7.8 7.8 0 0 1-3 6.6c-1 .8-2.2 1.3-3.5 1.7a16 16 0 0 1-7.2.4 15.8 15.8 0 0 1-3.9-1.2l-.8-.5c-.2-.1-.3-.2-.3-.4l-.2-.5-.1-.7v-1.1l.1-1.5c.1-.3.3-.4.6-.4.1 0 .4 0 .7.3a13.4 13.4 0 0 0 6 1.6 6.4 6.4 0 0 0 3.6-1.1 3 3 0 0 0 1-1.3c.2-.5.3-1 .3-1.6a3.7 3.7 0 0 0-1.5-3.2c-.5-.4-1.2-.7-2-.9a10 10 0 0 0-2.7-.3H3.3a.7.7 0 0 1-.3-.4 2 2 0 0 1-.2-.6 8.5 8.5 0 0 1 0-2.2l.1-.7.4-.3h2.9c.9 0 1.6-.2 2.3-.4.6-.2 1.2-.4 1.6-.8a3 3 0 0 0 1-1.3 4 4 0 0 0 .4-1.8c0-.5 0-1-.2-1.3a3.1 3.1 0 0 0-2-2l-1.7-.2c-.8 0-1.5.1-2.2.3l-1.8.8-1.4.7-.8.4H1l-.3-.4v-.6a10.7 10.7 0 0 1 0-2.6 1.6 1.6 0 0 1 .5-.8l.9-.7c.4-.3 1-.5 1.7-.8a14.2 14.2 0 0 1 5.4-1c1.3 0 2.6.2 3.6.5s2 .8 2.7 1.4a6.3 6.3 0 0 1 2.2 5.3c0 .9 0 1.7-.3 2.4-.2.8-.5 1.5-1 2-.4.6-1 1.1-1.6 1.5a5 5 0 0 1-2.2 1c1 .2 2 .4 2.7.8a6.9 6.9 0 0 1 3.3 3.5c.3.7.4 1.5.4 2.4ZM19 296.8l-.1.4-.5.3-.8.2a12.8 12.8 0 0 1-3.6-.2 1 1 0 0 1-.4-.3l-.2-.4v-11.2c0-1 0-1.7-.2-2.3-.1-.5-.3-1-.6-1.4a2.8 2.8 0 0 0-2.5-1.2c-.7 0-1.4.3-2.1.8-.7.5-1.5 1.3-2.3 2.2v13.5l-.5.3-.9.2a12.7 12.7 0 0 1-3.5-.2 1 1 0 0 1-.5-.3l-.1-.4v-20.1l.5-.2.7-.2h2.3c.3 0 .6 0 .8.2l.3.3.1.3v2.3c1.1-1.2 2.2-2 3.3-2.6a7.8 7.8 0 0 1 7-.2 6 6 0 0 1 2.2 1.7c.6.8 1 1.7 1.2 2.7.3 1 .4 2.2.4 3.7v12.1Zm165.2 86.5-.1.3c-.1.2-.3.2-.5.3l-.8.2a12.8 12.8 0 0 1-3.6-.2 1 1 0 0 1-.4-.3l-.1-.3V372l-.2-2.2-.7-1.4a2.8 2.8 0 0 0-2.5-1.3c-.7 0-1.4.3-2.1.8-.7.5-1.5 1.3-2.3 2.3v13.5l-.5.2-.9.2a12.7 12.7 0 0 1-3.5-.2 1 1 0 0 1-.5-.3l-.1-.3v-19.7l.1-.4.4-.3.7-.2h2.4c.4 0 .5.1.7.2l.3.3.1.4v2.2c1.1-1.2 2.2-2 3.4-2.6a7 7 0 0 1 3.5-.9c1.3 0 2.5.2 3.4.7a6 6 0 0 1 2.2 1.8c.6.7 1 1.6 1.2 2.6.3 1 .4 2.3.4 3.7v12.2Z"/>
  <circle cx="9.6" cy="222.3" r="4.6" fill="#4494a7"/>
  <circle cx="9.6" cy="236.8" r="4.6" fill="#4494a7"/>
  <circle cx="9.6" cy="251.3" r="4.6" fill="#4494a7"/>
  <circle cx="291.1" cy="14.8" r="4.6" fill="#608d4c"/>
  <circle cx="276.6" cy="14.8" r="4.6" fill="#608d4c"/>
  <circle cx="262.1" cy="14.8" r="4.6" fill="#608d4c"/>
  <path fill="#608d4c" d="M135.4 27v1l-.3.7c0 .2-.1.3-.3.4h-16.4a.9.9 0 0 1-.3-.4l-.2-.7a7.7 7.7 0 0 1 .2-2.8c0-.2.2-.3.3-.4l.3-.1h5.3V6.1l-4.5 2.5-.9.3h-.5l-.2-.7-.1-1.3V6l.1-.6c0-.2.2-.3.3-.4l.4-.3 6.1-4 .3-.1.4-.1h1.9a24.7 24.7 0 0 1 2 0l.4.3.1.3v23.6h4.7l.4.1.2.4.2.7v1Zm50.8 0v1l-.3.8c0 .2-.1.3-.3.4l-.3.1H168a1 1 0 0 1-.6-.4l-.3-.7-.1-1.3v-1.2l.3-1 .5-.8c.1-.3.4-.5.7-.8l5-5.3a26.1 26.1 0 0 0 3.7-5.2 8.8 8.8 0 0 0 1-3.6c0-.5-.2-1-.3-1.3-.2-.5-.4-.9-.7-1.2a3 3 0 0 0-1.1-.7c-.5-.2-1-.3-1.7-.3-.8 0-1.6 0-2.3.3l-1.7.7-1.3.8-.8.3h-.3a1 1 0 0 1-.3-.5l-.1-.9a11.4 11.4 0 0 1 0-2.7l.2-.4.4-.5 1-.6a12.9 12.9 0 0 1 4.3-1.5 13.3 13.3 0 0 1 6.6.3c1 .4 2 .9 2.7 1.6.8.6 1.3 1.4 1.7 2.4.4.9.5 1.9.5 3 0 .9 0 1.8-.2 2.7a15.3 15.3 0 0 1-3.5 6.3c-1 1.3-2.4 2.7-4 4.4l-3.4 3.4h11.3l.4.1.3.5.2.7v1Zm49.9-6.3a7.8 7.8 0 0 1-3 6.6c-1 .8-2.2 1.3-3.5 1.7a16 16 0 0 1-7.2.4 15.8 15.8 0 0 1-3.9-1.2l-.8-.5c-.2-.1-.3-.2-.3-.4l-.2-.5-.1-.8v-1l.1-1.5c.1-.3.3-.4.5-.4s.4 0 .8.3a13.4 13.4 0 0 0 6 1.6 6.4 6.4 0 0 0 3.6-1.1 3 3 0 0 0 1-1.3c.2-.5.3-1 .3-1.7a3.7 3.7 0 0 0-1.5-3.1c-.5-.4-1.2-.7-2-.9a10 10 0 0 0-2.7-.3h-2.9a.7.7 0 0 1-.4-.4 2 2 0 0 1-.1-.7 8.5 8.5 0 0 1 0-2.1l.1-.7.3-.3h3c.8 0 1.6-.2 2.3-.4.6-.2 1.2-.4 1.6-.8a3 3 0 0 0 1-1.3 4 4 0 0 0 .4-1.8c0-.5 0-1-.2-1.4a3.1 3.1 0 0 0-2-1.8c-.5-.2-1-.3-1.7-.3-.8 0-1.5 0-2.2.3l-1.8.8-1.4.7-.8.4-.3-.1-.3-.3v-.6a10.7 10.7 0 0 1 0-2.6 1.6 1.6 0 0 1 .5-.9l.9-.6c.4-.3 1-.5 1.7-.8a14.2 14.2 0 0 1 5.4-1c1.3 0 2.6.2 3.6.5s2 .8 2.7 1.4c.8.6 1.3 1.4 1.7 2.3s.5 1.9.5 3c0 .9 0 1.7-.3 2.4-.2.8-.5 1.4-1 2-.4.6-1 1.1-1.6 1.5-.6.4-1.3.8-2.2 1 1 .2 2 .4 2.7.8a6.9 6.9 0 0 1 3.3 3.5c.3.7.4 1.5.4 2.4Zm99.9 4.1-.1.4-.5.3-.8.2a12.8 12.8 0 0 1-3.6-.2 1 1 0 0 1-.4-.3l-.2-.4V13.6c0-1 0-1.7-.2-2.3-.1-.5-.3-1-.6-1.4a2.8 2.8 0 0 0-2.5-1.2c-.7 0-1.4.3-2.1.8-.7.5-1.5 1.3-2.3 2.2v13.5l-.5.3-.9.2a12.7 12.7 0 0 1-3.5-.2 1 1 0 0 1-.5-.3l-.1-.4v-20l.5-.3.7-.2h2.3c.3 0 .6 0 .8.2l.3.3.1.3v2.3c1.1-1.2 2.2-2 3.4-2.6 1-.6 2.2-1 3.5-1a9 9 0 0 1 3.4.7 6 6 0 0 1 2.2 1.8c.6.8 1 1.7 1.2 2.7.3 1 .4 2.2.4 3.7v12.1Zm85.5 167.6-.1.4-.4.3-.9.2a12.8 12.8 0 0 1-3.6-.2 1 1 0 0 1-.4-.3l-.1-.4v-11.2c0-1 0-1.7-.2-2.2l-.6-1.4a2.8 2.8 0 0 0-2.5-1.3c-.8 0-1.5.3-2.2.8-.7.5-1.5 1.3-2.2 2.3v13c0 .2 0 .3-.2.4l-.4.3-.9.2a12.7 12.7 0 0 1-3.5-.2 1 1 0 0 1-.5-.3v-20.4l.4-.3.8-.2h2.3l.7.2c.2 0 .3.2.3.3l.2.4v2.2c1-1.2 2.2-2 3.3-2.6a7.1 7.1 0 0 1 6.9-.2 6 6 0 0 1 2.2 1.8c.6.7 1 1.6 1.2 2.6.3 1 .4 2.3.4 3.7v12.1Z"/>
  <path fill="none" stroke="#85c068" stroke-miterlimit="10" stroke-width="5" d="M390.6 59.2v240"/>
  <path fill="#85c068" d="m381.9 296.7 8.7 15.1 8.8-15.1h-17.5z"/>
  <path fill="none" stroke="#5bc2db" stroke-miterlimit="10" stroke-width="5" d="M48.7 350.7h243.7"/>
  <path fill="#5bc2db" d="m289.8 359.4 15.1-8.7-15.1-8.7v17.4z"/>
  <path fill="none" stroke="#e27a5f" stroke-miterlimit="10" stroke-width="5" d="M304.9 350.7h37.6"/>
  <path fill="#e27a5f" d="m339.9 359.4 15.2-8.7-15.2-8.7v17.4z"/>
  <path fill="#e17a5f" d="m320 373.2-.1.8c0 .2 0 .4-.2.5l-.2.3h-5.3v5.8l-.3.2-.5.1a5.8 5.8 0 0 1-2.2-.1l-.3-.2v-5.8h-5.3l-.2-.3-.2-.5v-1.5l.1-.5.2-.3h5.3v-5.5l.1-.3.3-.2.5-.2a5.8 5.8 0 0 1 2.2.2c.1 0 .2 0 .2.2l.1.3v5.4h5l.3.1.2.3.2.5v.7Zm16 7.7v.8l-.2.5-.2.2-.3.1h-11.7l-.2-.3-.1-.5a5.4 5.4 0 0 1 0-2.1l.3-.3h4.2v-13.6l-3.4 1.8-.6.2h-.4l-.2-.5V365l.2-.3.3-.2 4.5-2.9.2-.1h3.2l.3.2v17.4h3.4l.3.1.2.3.1.5v.8Z"/>
</svg>
