<svg xmlns="http://www.w3.org/2000/svg" viewBox="0 0 354.1 344" width="800">
  <path fill="none" stroke="#5ac2db" stroke-miterlimit="10" stroke-width="5" d="M51.6 21.7h50v50h-50zm0 50h50v50h-50zm50 0h50v50h-50zm-50 50h50v50h-50zm50 0h50v50h-50zm50 0h50v50h-50zm-100 50h50v50h-50zm50 0h50v50h-50zm50 0h50v50h-50zm50 0h50v50h-50zm-150 50h50v50h-50zm50 0h50v50h-50zm50 0h50v50h-50zm50 0h50v50h-50zm50 0h50v50h-50z"/>
  <path fill="#4494a7" d="M18.4 58.9v1l-.3.7c0 .2-.2.3-.3.3l-.3.2H1.7c-.1 0-.2 0-.3-.2a.9.9 0 0 1-.3-.3l-.2-.7a7.7 7.7 0 0 1 .2-2.8c0-.2.2-.3.3-.4l.3-.1H7V38l-4.5 2.5-.9.3-.5-.1L1 40l-.1-1.3V38l.1-.6c0-.2.2-.3.3-.4l.4-.4 6.1-4H8l.4-.2h1.8a24.7 24.7 0 0 1 2.2.1c.2 0 .3.2.3.2l.1.4v23.6h4.7l.3.1c.2 0 .3.2.3.4l.2.7v1Zm.8 50v1l-.3.8-.2.4-.4.1H1a1 1 0 0 1-.6-.4l-.3-.8-.1-1.2v-1.3l.3-.9.5-.8.7-.8 5-5.3a26.1 26.1 0 0 0 3.7-5.2 8.8 8.8 0 0 0 1-3.6c0-.5-.2-1-.3-1.4l-.7-1.1a3 3 0 0 0-1.1-.8l-1.6-.2c-1 0-1.7 0-2.4.3l-1.7.7-1.3.8-.8.3-.3-.1a1 1 0 0 1-.3-.5l-.1-.8a11.4 11.4 0 0 1 0-2.7L1 85c0-.2.2-.3.3-.5s.6-.4 1-.7a12.9 12.9 0 0 1 4.3-1.4 13.3 13.3 0 0 1 6.6.3c1.1.4 2 .9 2.8 1.6.7.6 1.2 1.4 1.6 2.3.4 1 .6 2 .6 3s-.1 1.9-.3 2.8c-.2.8-.6 1.8-1.1 2.8s-1.4 2.2-2.4 3.5a47 47 0 0 1-4 4.4L7 106.5h11.3l.4.1.3.4.2.8.1 1Zm-.1 44.1a7.8 7.8 0 0 1-3 6.6c-1 .7-2.2 1.3-3.5 1.7a16 16 0 0 1-7.2.4 15.8 15.8 0 0 1-3.9-1.2l-.8-.5c-.2-.1-.3-.2-.3-.4l-.2-.5-.1-.8v-1l.1-1.5c.1-.3.3-.4.6-.4.1 0 .4 0 .7.3a13.4 13.4 0 0 0 6 1.5c.7 0 1.4 0 2-.2.7-.2 1.2-.5 1.6-.9.5-.3.8-.7 1-1.2.2-.5.3-1 .3-1.7A3.7 3.7 0 0 0 11 150c-.5-.3-1.2-.6-2-.8a10 10 0 0 0-2.7-.3h-3a.7.7 0 0 1-.3-.4 2 2 0 0 1-.2-.7 8.5 8.5 0 0 1 0-2.1l.1-.7.4-.3h2.9c.9 0 1.6-.2 2.3-.4l1.6-.8c.5-.4.8-.8 1-1.4a4 4 0 0 0 .4-1.7c0-.5 0-1-.2-1.4a3.1 3.1 0 0 0-2-1.8c-.5-.2-1-.3-1.7-.3-.8 0-1.5 0-2.2.3l-1.8.8-1.4.7-.8.4-.3-.1-.3-.3v-.7a10.7 10.7 0 0 1 0-2.6 1.6 1.6 0 0 1 .5-.8l.9-.6a14.2 14.2 0 0 1 7-1.8c1.4 0 2.7.2 3.7.5s2 .8 2.7 1.4c.8.6 1.3 1.4 1.7 2.3s.5 1.9.5 3c0 .9 0 1.7-.3 2.4-.2.8-.5 1.4-1 2-.4.6-1 1.1-1.6 1.5a9 9 0 0 1-2.2 1c1 .1 2 .4 2.7.8a6.9 6.9 0 0 1 3.3 3.5c.3.7.4 1.5.4 2.4ZM19 256.7l-.1.4-.5.3-.8.2a12.8 12.8 0 0 1-3.6-.2 1 1 0 0 1-.4-.3l-.2-.4v-11.2c0-1 0-1.7-.2-2.3-.1-.5-.3-1-.6-1.4a2.8 2.8 0 0 0-2.5-1.2c-.7 0-1.4.3-2.1.8-.7.5-1.5 1.2-2.3 2.2v13.5l-.5.3-.9.2a12.7 12.7 0 0 1-3.5-.2 1 1 0 0 1-.5-.3l-.1-.4v-20.1l.5-.2.7-.2h2.3c.3 0 .6 0 .8.2l.3.2.1.4v2.3c1.1-1.2 2.2-2 3.3-2.7a9 9 0 0 1 7-.2 6 6 0 0 1 2.2 1.8c.6.8 1 1.7 1.2 2.7.3 1 .4 2.2.4 3.7v12.1Zm165.2 86.4-.1.4-.5.3-.8.2a12.8 12.8 0 0 1-3.6-.2 1 1 0 0 1-.4-.3l-.1-.4V332l-.2-2.3-.7-1.4a2.8 2.8 0 0 0-2.5-1.2c-.7 0-1.4.3-2.1.8-.7.5-1.5 1.3-2.3 2.2v13.5l-.5.3-.9.2a12.7 12.7 0 0 1-3.5-.2 1 1 0 0 1-.5-.3l-.1-.4v-19.7l.1-.3c0-.2.2-.3.4-.3l.7-.2h2.4c.4 0 .5 0 .7.2.1 0 .3.1.3.3l.1.3v2.3c1.1-1.2 2.2-2 3.4-2.6 1-.6 2.3-1 3.5-1 1.3 0 2.5.3 3.4.7a6 6 0 0 1 2.2 1.8c.6.8 1 1.7 1.2 2.7.3 1 .4 2.2.4 3.7V343Z"/>
  <circle cx="9.6" cy="182.2" r="4.6" fill="#4494a7"/>
  <circle cx="9.6" cy="196.7" r="4.6" fill="#4494a7"/>
  <circle cx="9.6" cy="211.2" r="4.6" fill="#4494a7"/>
  <path fill="none" stroke="#5bc2db" stroke-miterlimit="10" stroke-width="5" d="M48.7 310.6h243.7"/>
  <path fill="#5bc2db" d="m289.8 319.3 15.1-8.7-15.1-8.8v17.5z"/>
  <path fill="#4394a7" d="M304.3 45.9c0 3.6-.6 7-1.6 9.9a22 22 0 0 1-11.3 12.8 26.5 26.5 0 0 1-8.8 2.5l-.6 13c0 .9-.7 1.5-1.9 1.9-1.2.4-3 .6-5.3.6a55.7 55.7 0 0 1-6.1-.5c-.6-.2-1-.4-1.3-.7a2 2 0 0 1-.5-1.2l-.6-15.9c0-1.4 0-2.6.2-3.5.2-.8.5-1.6 1-2.1s1-1 1.8-1.1a9 9 0 0 1 2.5-.3h1c2.3 0 4.4-.4 6.1-1.2a11.5 11.5 0 0 0 6.7-7.5 18.8 18.8 0 0 0-.1-11.3 12.2 12.2 0 0 0-7.4-7.6 24.3 24.3 0 0 0-17 1.1 40 40 0 0 0-3.2 1.5 4 4 0 0 1-2 .7l-.8-.3c-.3-.2-.5-.6-.7-1.1s-.3-1.3-.4-2.3a34.8 34.8 0 0 1 0-7.2c.2-.7.4-1.3.9-1.7.4-.5 1.3-1 2.5-1.6a51 51 0 0 1 17-3.5c5.4 0 9.9.7 13.7 2.1a26 26 0 0 1 9.2 5.9 23 23 0 0 1 5.3 8.5c1 3.1 1.6 6.5 1.6 10Zm-20 57.5c0 1.8 0 3.4-.4 4.6-.2 1.3-.8 2.3-1.5 3s-1.7 1.3-3 1.7c-1.2.3-2.7.5-4.5.5a18 18 0 0 1-4.6-.5c-1.2-.4-2.2-1-3-1.7s-1.2-1.7-1.5-3c-.3-1.2-.4-2.8-.4-4.6s.1-3.5.4-4.8c.3-1.2.8-2.3 1.6-3 .7-.8 1.7-1.4 2.9-1.7 1.2-.4 2.8-.5 4.6-.5s3.3.1 4.6.5c1.2.3 2.2.9 3 1.7.6.7 1.2 1.8 1.4 3 .3 1.3.5 2.9.5 4.8Z"/>
</svg>
