<?xml version="1.0" encoding="UTF-8"?><svg width="800" xmlns="http://www.w3.org/2000/svg" viewBox="0 0 650 300"><path d="m137.33,135.01L26.49,81.13c-7.37,15.94-11.49,33.69-11.49,52.4,0,27.51,8.89,52.94,23.95,73.58l92.66-18.28,5.71-53.83Z" style="fill:#f78686; opacity:.6;"/><polygon points="136.75 187.83 214.44 172.5 142.11 137.34 136.75 187.83" style="fill:#b2b2b2; opacity:.6;"/><path d="m253.51,185.93c2.57-5.56,4.75-11.35,6.49-17.32l-29.96,5.91,23.47,11.41Z" style="fill:#b2b2b2; opacity:.6;"/><path d="m150.71,8.99c-3.53-.3-7.1-.46-10.71-.46-48.54,0-90.62,27.67-111.33,68.1l109.22,53.1,12.82-120.73Z" style="fill:#f78686; opacity:.6;"/><path d="m136.2,193.03l-6.9,65.04c3.53.3,7.1.46,10.71.46,48.54,0,90.62-27.67,111.33-68.1l-29.43-14.3-85.71,16.9Z" style="fill:#f78686; opacity:.6;"/><path d="m42.34,211.55c19.83,24.79,48.89,41.87,81.98,46.01l6.74-63.51-88.72,17.5Z" style="fill:#f78686; opacity:.6;"/><path d="m222.58,170.9l38.86-7.66c2.32-9.52,3.56-19.47,3.56-29.7,0-63.72-47.69-116.31-109.32-124.02l-13.01,122.54,79.91,38.85Z" style="fill:#b2b2b2; opacity:.6;"/><rect x="90.2" y="2.96" width="5" height="305.2" transform="translate(-62.18 61.73) rotate(-28)" style="fill:#730613;"/><polygon points="501.61 188.84 507.33 135.01 436.23 100.45 484.98 192.12 501.61 188.84" style="fill:#f78686; opacity:.6;"/><path d="m396.49,81.13c-7.37,15.94-11.49,33.69-11.49,52.4,0,27.51,8.89,52.94,23.95,73.58l70.9-13.98-51.25-96.4-32.11-15.61Z" style="fill:#86cdf7; opacity:.6;"/><polygon points="584.44 172.5 512.11 137.34 506.75 187.83 584.44 172.5" style="fill:#b2b2b2; opacity:.6;"/><path d="m623.51,185.93c2.57-5.56,4.75-11.35,6.49-17.32l-29.96,5.91,23.47,11.41Z" style="fill:#b2b2b2; opacity:.6;"/><path d="m507.89,129.73l12.82-120.73c-3.53-.3-7.1-.46-10.71-.46-39.52,0-74.76,18.34-97.66,46.98l19.91,37.44,75.64,36.77Z" style="fill:#f78686; opacity:.6;"/><path d="m398.67,76.63l25.94,12.61-15.6-29.35c-3.86,5.28-7.33,10.87-10.33,16.74Z" style="fill:#86cdf7; opacity:.6;"/><path d="m506.2,193.03l-3.45,32.51,17.32,32.58c44.25-3.53,82-30.08,101.26-67.69l-29.43-14.3-85.71,16.9Z" style="fill:#f78686; opacity:.6;"/><path d="m499.29,258.07c3.53.3,7.1.46,10.71.46,1.53,0,3.06-.03,4.58-.08l-12.78-24.03-2.51,23.65Z" style="fill:#86cdf7; opacity:.6;"/><polygon points="501.06 194.05 487.43 196.74 498.55 217.66 501.06 194.05" style="fill:#f78686; opacity:.6;"/><path d="m412.34,211.55c19.83,24.79,48.89,41.87,81.98,46.01l3.29-31.02-15.31-28.79-69.97,13.8Z" style="fill:#86cdf7; opacity:.6;"/><path d="m525.68,9.51l-13.01,122.54,79.91,38.85,38.86-7.66c2.32-9.52,3.56-19.47,3.56-29.7,0-63.72-47.69-116.31-109.32-124.02Z" style="fill:#b2b2b2; opacity:.6;"/><polygon points="436.23 100.45 428.6 96.74 479.85 193.13 484.98 192.12 436.23 100.45" style="fill:#730613;"/><path d="m412.34,55.51c-1.15,1.43-2.25,2.9-3.33,4.38l15.6,29.35,7.64,3.71-19.91-37.44Z" style="fill:#730613;"/><path d="m501.8,234.42l12.78,24.03c1.84-.07,3.67-.19,5.49-.33l-17.32-32.58-.94,8.88Z" style="fill:#730613;"/><polygon points="487.43 196.74 482.3 197.75 497.61 226.54 498.55 217.66 487.43 196.74" style="fill:#730613;"/><path d="m110.38,73.94c0,.32-.02.59-.05.81-.03.22-.08.4-.15.53-.06.13-.13.23-.21.28-.08.06-.17.09-.27.09h-12.2c-.09,0-.18-.03-.26-.09-.08-.06-.15-.15-.21-.28-.06-.13-.11-.31-.15-.53-.03-.22-.05-.49-.05-.81s.01-.61.04-.83c.03-.22.07-.4.14-.54s.13-.24.21-.3c.08-.06.17-.09.27-.09h4.12v-14.39l-3.55,1.97c-.26.13-.48.2-.64.23-.17.03-.3,0-.39-.1-.1-.1-.16-.26-.2-.5s-.05-.58-.05-1.01c0-.27,0-.5.02-.68.01-.18.04-.33.09-.45.05-.12.11-.23.19-.31s.19-.17.32-.26l4.75-3.08c.06-.05.13-.08.21-.11.08-.03.2-.05.33-.07.14-.02.32-.03.54-.03.22,0,.51,0,.86,0,.43,0,.78,0,1.05.03.27.02.47.05.61.08.14.04.23.09.27.16.05.07.07.15.07.26v18.27h3.61c.1,0,.2.03.28.09.08.06.16.16.22.3s.11.32.14.54c.03.22.04.5.04.83Z" style="fill:#730613;"/><path d="m479.98,67.42c0,.32-.02.59-.05.81-.03.22-.08.4-.14.53-.06.13-.13.23-.21.28-.08.06-.17.09-.27.09h-12.2c-.09,0-.18-.03-.26-.09-.08-.06-.15-.15-.21-.28-.06-.13-.11-.31-.15-.53-.03-.22-.05-.49-.05-.81s.01-.61.04-.83c.03-.22.07-.4.14-.54s.13-.24.21-.3c.08-.06.17-.09.27-.09h4.12v-14.39l-3.55,1.97c-.26.13-.48.2-.64.23-.17.03-.3,0-.39-.1-.1-.1-.16-.26-.2-.5s-.05-.58-.05-1.01c0-.27,0-.5.02-.68.01-.18.04-.33.09-.45.04-.12.11-.23.19-.31.08-.08.19-.17.33-.26l4.75-3.08c.06-.05.13-.08.21-.11.08-.03.2-.05.33-.07.14-.02.32-.03.54-.03.22,0,.51,0,.86,0,.43,0,.78,0,1.05.03.27.02.47.05.61.08.14.04.23.09.27.16s.07.15.07.26v18.27h3.61c.1,0,.2.03.28.09.08.06.16.16.22.3s.11.32.14.54c.03.22.04.5.04.83Z" style="fill:#730613;"/><path d="m392.96,64.54c0,.32-.02.59-.05.81-.03.22-.08.4-.14.53-.06.13-.13.23-.21.28-.08.06-.17.09-.27.09h-12.2c-.09,0-.18-.03-.26-.09-.08-.06-.15-.15-.21-.28-.06-.13-.11-.31-.15-.53-.03-.22-.05-.49-.05-.81s.01-.61.04-.83c.03-.22.07-.4.14-.54s.13-.24.21-.3c.08-.06.17-.09.27-.09h4.12v-14.39l-3.55,1.97c-.26.13-.48.2-.64.23-.17.03-.3,0-.39-.1-.1-.1-.16-.26-.2-.5s-.05-.58-.05-1.01c0-.27,0-.5.02-.68.01-.18.04-.33.09-.45.04-.12.11-.23.19-.31.08-.08.19-.17.33-.26l4.75-3.08c.06-.05.13-.08.21-.11.08-.03.2-.05.33-.07.14-.02.32-.03.54-.03.22,0,.51,0,.86,0,.43,0,.78,0,1.05.03.27.02.47.05.61.08.14.04.23.09.27.16s.07.15.07.26v18.27h3.61c.1,0,.2.03.28.09.08.06.16.16.22.3s.11.32.14.54c.03.22.04.5.04.83Z" style="fill:#36a9e1;"/><path d="m370.38,169.07c0,.33-.01.61-.04.85s-.07.42-.13.57c-.06.15-.13.25-.22.32s-.19.09-.31.09h-12.71c-.25,0-.47-.02-.65-.07s-.33-.13-.44-.26-.2-.32-.25-.57c-.05-.25-.08-.58-.08-.97,0-.38.02-.7.05-.97s.1-.51.19-.72c.09-.21.21-.42.35-.62.14-.2.33-.42.55-.66l3.83-4.1c.76-.8,1.38-1.52,1.85-2.18s.83-1.25,1.09-1.79.44-1.04.54-1.5c.1-.46.14-.89.14-1.3,0-.38-.06-.73-.18-1.07-.12-.34-.3-.63-.53-.88-.23-.25-.53-.45-.88-.59-.35-.14-.77-.21-1.25-.21-.67,0-1.27.08-1.79.26-.52.17-.97.36-1.37.57-.39.21-.72.4-.98.58s-.47.26-.62.26c-.1,0-.19-.03-.26-.1s-.13-.18-.18-.34-.08-.37-.11-.64c-.03-.27-.04-.6-.04-.98,0-.26,0-.48.03-.66.02-.18.04-.33.08-.46.03-.13.08-.24.14-.34.06-.1.16-.21.3-.35s.4-.31.79-.52.85-.42,1.41-.62c.56-.2,1.17-.37,1.85-.5.67-.14,1.37-.21,2.1-.21,1.15,0,2.16.15,3.02.44.86.29,1.58.69,2.14,1.21.57.52.99,1.13,1.27,1.85s.42,1.48.42,2.3c0,.72-.07,1.42-.21,2.12s-.42,1.44-.85,2.25c-.43.8-1.04,1.69-1.83,2.67-.79.97-1.83,2.11-3.13,3.39l-2.58,2.65h8.72c.11,0,.22.03.32.1s.18.17.25.32.12.33.15.56.05.51.05.83Z" style="fill:#36a9e1;"/><path d="m514.33,288.77c0,.11-.03.21-.1.3-.07.09-.18.16-.34.21-.16.06-.38.1-.66.13s-.62.04-1.03.04-.77-.01-1.05-.04-.5-.07-.66-.13c-.16-.06-.27-.13-.34-.21-.07-.08-.1-.18-.1-.3v-8.7c0-.74-.05-1.32-.16-1.74s-.26-.78-.47-1.09c-.21-.3-.47-.54-.79-.7-.32-.17-.7-.25-1.14-.25-.55,0-1.1.2-1.66.6s-1.14.98-1.74,1.74v10.13c0,.11-.03.21-.1.3-.07.09-.19.16-.35.21-.17.06-.38.1-.66.13s-.62.04-1.04.04-.77-.01-1.04-.04-.49-.07-.66-.13c-.17-.06-.28-.13-.35-.21-.07-.08-.1-.18-.1-.3v-15.24c0-.11.03-.21.09-.3.06-.09.16-.16.31-.21.15-.06.34-.1.57-.13s.53-.04.88-.04.67.01.91.04.42.07.55.13c.13.06.23.13.28.21.06.08.09.19.09.3v1.76c.84-.91,1.7-1.59,2.57-2.05.87-.46,1.78-.68,2.73-.68,1.04,0,1.91.17,2.62.51s1.29.81,1.73,1.39.75,1.27.95,2.06c.19.79.29,1.73.29,2.84v9.42Z" style="fill:#36a9e1;"/><path d="m421.74,260.97c0,1.06-.19,1.77-.56,2.14s-1.03.55-1.99.55-1.62-.18-1.98-.54c-.36-.36-.55-1.04-.55-2.04,0-1.07.19-1.79.56-2.15.37-.36,1.04-.55,2.01-.55s1.6.18,1.97.54c.36.36.55,1.05.55,2.06Z" style="fill:#36a9e1;"/><path d="m431.08,260.97c0,1.06-.19,1.77-.56,2.14s-1.03.55-1.99.55-1.62-.18-1.98-.54c-.37-.36-.55-1.04-.55-2.04,0-1.07.18-1.79.55-2.15.37-.36,1.04-.55,2.01-.55s1.6.18,1.96.54c.36.36.55,1.05.55,2.06Z" style="fill:#36a9e1;"/><path d="m440.43,260.97c0,1.06-.19,1.77-.56,2.14s-1.03.55-1.99.55-1.62-.18-1.98-.54c-.36-.36-.55-1.04-.55-2.04,0-1.07.19-1.79.56-2.15.37-.36,1.04-.55,2.01-.55s1.6.18,1.97.54c.36.36.55,1.05.55,2.06Z" style="fill:#36a9e1;"/><path d="m66.42,160.75c0,.33-.01.61-.04.85s-.07.42-.13.57c-.06.15-.13.25-.22.32-.09.06-.19.09-.31.09h-12.71c-.25,0-.47-.02-.65-.07-.18-.05-.33-.13-.44-.26-.11-.13-.2-.32-.25-.57-.05-.25-.08-.58-.08-.97,0-.38.02-.7.05-.97s.1-.51.19-.72c.09-.21.21-.42.35-.62.14-.2.33-.42.56-.66l3.83-4.1c.76-.8,1.38-1.52,1.85-2.18.47-.65.83-1.25,1.09-1.79.26-.54.44-1.04.54-1.5.1-.46.15-.89.15-1.3,0-.38-.06-.73-.18-1.07-.12-.34-.3-.63-.53-.88-.23-.25-.53-.45-.88-.59-.35-.14-.77-.21-1.25-.21-.67,0-1.27.09-1.79.26-.52.17-.97.36-1.37.57-.39.21-.72.4-.98.58-.26.18-.47.26-.62.26-.1,0-.19-.03-.27-.1s-.13-.18-.18-.34c-.05-.16-.08-.37-.11-.64-.03-.27-.04-.6-.04-.98,0-.26,0-.48.03-.66.02-.18.04-.33.08-.46.03-.13.08-.24.14-.34.06-.1.16-.21.3-.35s.4-.31.79-.52.85-.42,1.41-.62c.56-.2,1.17-.37,1.85-.5.67-.14,1.37-.21,2.1-.21,1.15,0,2.16.15,3.02.44.86.29,1.58.69,2.15,1.21.57.52.99,1.13,1.27,1.85.28.71.42,1.48.42,2.3,0,.72-.07,1.42-.21,2.12-.14.7-.42,1.44-.85,2.25-.43.8-1.04,1.69-1.83,2.67-.79.97-1.83,2.11-3.13,3.39l-2.58,2.65h8.72c.11,0,.22.03.32.1s.18.17.25.32.12.33.15.56.05.51.05.83Z" style="fill:#730613;"/><path d="m488.61,154.38c0,.21,0,.39-.03.54s-.05.27-.08.37c-.04.1-.08.16-.14.2-.06.04-.12.06-.2.06h-8.19c-.16,0-.3-.01-.42-.04s-.21-.09-.29-.17c-.07-.08-.13-.21-.16-.37s-.05-.37-.05-.63c0-.24.01-.45.03-.62.02-.17.06-.33.12-.46.06-.14.13-.27.23-.4.09-.13.21-.27.36-.42l2.47-2.64c.49-.51.89-.98,1.19-1.4.3-.42.54-.81.7-1.16.17-.35.29-.67.35-.96.06-.29.09-.57.09-.84,0-.24-.04-.47-.12-.69-.08-.22-.19-.41-.34-.57-.15-.16-.34-.29-.57-.38-.23-.09-.5-.14-.8-.14-.43,0-.82.06-1.15.17-.33.11-.63.23-.88.37-.25.14-.46.26-.63.37-.17.11-.3.17-.4.17-.07,0-.12-.02-.17-.07-.05-.04-.09-.12-.12-.22-.03-.1-.05-.24-.07-.41-.02-.17-.03-.38-.03-.63,0-.17,0-.31.02-.42s.03-.21.05-.3c.02-.08.05-.16.09-.22s.1-.14.19-.23c.09-.09.26-.2.51-.34s.55-.27.91-.4c.36-.13.76-.24,1.19-.33.43-.09.88-.13,1.35-.13.74,0,1.39.09,1.94.28.55.19,1.01.45,1.38.78.37.33.64.73.82,1.19.18.46.27.95.27,1.48,0,.46-.04.92-.13,1.37-.09.45-.27.93-.55,1.45-.28.52-.67,1.09-1.18,1.72-.51.63-1.18,1.36-2.02,2.19l-1.66,1.71h5.62c.07,0,.14.02.2.07s.12.11.16.2.08.21.1.36c.02.15.03.33.03.53Z" style="fill:#730613;"/><path d="m86.73,226.88c0,1.06-.19,1.77-.56,2.14s-1.03.55-1.99.55-1.62-.18-1.98-.54c-.36-.36-.55-1.04-.55-2.04,0-1.07.19-1.79.56-2.15.37-.36,1.04-.55,2.01-.55s1.6.18,1.97.54c.36.36.55,1.05.55,2.06Z" style="fill:#730613;"/><path d="m96.08,226.88c0,1.06-.19,1.77-.56,2.14s-1.03.55-1.99.55-1.62-.18-1.98-.54c-.36-.36-.55-1.04-.55-2.04,0-1.07.19-1.79.56-2.15.37-.36,1.04-.55,2.01-.55s1.6.18,1.97.54c.36.36.55,1.05.55,2.06Z" style="fill:#730613;"/><path d="m105.43,226.88c0,1.06-.19,1.77-.56,2.14s-1.03.55-1.99.55-1.62-.18-1.98-.54c-.36-.36-.55-1.04-.55-2.04,0-1.07.19-1.79.56-2.15.37-.36,1.04-.55,2.01-.55s1.6.18,1.97.54c.36.36.55,1.05.55,2.06Z" style="fill:#730613;"/><path d="m492.87,200.39c0,.36-.06.6-.19.72-.13.12-.35.19-.67.19s-.55-.06-.67-.18c-.12-.12-.19-.35-.19-.69,0-.36.06-.61.19-.73.12-.12.35-.18.68-.18s.54.06.67.18c.12.12.19.35.19.7Z" style="fill:#730613;"/><path d="m496.04,200.39c0,.36-.06.6-.19.72-.13.12-.35.19-.67.19s-.55-.06-.67-.18c-.12-.12-.19-.35-.19-.69,0-.36.06-.61.19-.73.12-.12.35-.18.68-.18s.54.06.67.18c.12.12.19.35.19.7Z" style="fill:#730613;"/><path d="m499.21,200.39c0,.36-.06.6-.19.72-.13.12-.35.19-.67.19s-.55-.06-.67-.18c-.12-.12-.19-.35-.19-.69,0-.36.06-.61.19-.73.12-.12.35-.18.68-.18s.54.06.67.18c.12.12.19.35.19.7Z" style="fill:#730613;"/><path d="m183.26,229c0,.11-.03.21-.1.3-.07.09-.18.16-.34.21-.16.06-.38.1-.66.13s-.62.04-1.03.04-.77-.01-1.05-.04-.5-.07-.66-.13c-.16-.06-.27-.13-.34-.21-.07-.08-.1-.18-.1-.3v-8.7c0-.74-.05-1.32-.16-1.74s-.26-.78-.47-1.09c-.21-.3-.47-.54-.79-.7-.32-.17-.7-.25-1.14-.25-.55,0-1.1.2-1.66.6-.56.4-1.14.98-1.74,1.74v10.13c0,.11-.03.21-.1.3-.07.09-.19.16-.35.21-.17.06-.38.1-.66.13s-.62.04-1.04.04-.77-.01-1.04-.04-.49-.07-.66-.13c-.17-.06-.28-.13-.35-.21-.07-.08-.1-.18-.1-.3v-15.24c0-.11.03-.21.09-.3.06-.09.16-.16.31-.21.15-.06.34-.1.57-.13.23-.03.53-.04.88-.04s.67.01.91.04.42.07.56.13c.13.06.23.13.28.21.06.08.09.19.09.3v1.76c.84-.91,1.7-1.59,2.57-2.05.87-.46,1.78-.68,2.73-.68,1.04,0,1.91.17,2.62.51.71.34,1.29.81,1.73,1.39s.75,1.27.95,2.06c.19.79.29,1.73.29,2.84v9.42Z" style="fill:#730613;"/><path d="m559.34,223.69c0,.11-.03.21-.1.3-.07.09-.18.16-.34.21-.16.06-.38.1-.66.13s-.62.04-1.03.04-.77-.01-1.05-.04-.5-.07-.66-.13c-.16-.06-.27-.13-.34-.21-.07-.08-.1-.18-.1-.3v-8.7c0-.74-.05-1.32-.16-1.74s-.26-.78-.47-1.09c-.21-.3-.47-.54-.79-.7-.32-.17-.7-.25-1.14-.25-.55,0-1.1.2-1.66.6s-1.14.98-1.74,1.74v10.13c0,.11-.03.21-.1.3-.07.09-.19.16-.35.21-.17.06-.38.1-.66.13s-.62.04-1.04.04-.77-.01-1.04-.04-.49-.07-.66-.13c-.17-.06-.28-.13-.35-.21-.07-.08-.1-.18-.1-.3v-15.24c0-.11.03-.21.09-.3.06-.09.16-.16.31-.21.15-.06.34-.1.57-.13s.53-.04.88-.04.67.01.91.04.42.07.55.13c.13.06.23.13.28.21.06.08.09.19.09.3v1.76c.84-.91,1.7-1.59,2.57-2.05.87-.46,1.78-.68,2.73-.68,1.04,0,1.91.17,2.62.51s1.29.81,1.73,1.39.75,1.27.95,2.06c.19.79.29,1.73.29,2.84v9.42Z" style="fill:#730613;"/></svg>