<?xml version="1.0" encoding="UTF-8"?><svg width="800" xmlns="http://www.w3.org/2000/svg" viewBox="0 0 500 500"><path d="m323.41,473.58l2.46,4.15c63.36-21.1,114.98-67.87,142.48-128l-4.1-2.35c-27.06,59.45-78.15,105.62-140.85,126.2Z" style="fill:#be8c5e;"/><path d="m250,485.29c-7.79,0-15.49-.39-23.08-1.13l-2.37,4.49c8.37.88,16.86,1.34,25.46,1.34,22.44,0,44.15-3.12,64.75-8.88l-2.48-4.19c-19.84,5.43-40.71,8.36-62.27,8.36Z" style="fill:#be8c5e;"/><path d="m14.71,250c0-50.44,15.88-97.16,42.89-135.46l-4.1-2.35C26.1,151.19,10,198.71,10,250c0,17.64,1.92,34.84,5.53,51.4l4.48-1.54c-3.47-16.07-5.31-32.75-5.31-49.86Z" style="fill:#be8c5e;"/><path d="m22.68,310.89l-4.46,1.53c24.33,90.55,100.29,159.95,194.38,174.67l2.33-4.4c-93.09-13.92-168.35-82.37-192.25-171.8Z" style="fill:#be8c5e;"/><path d="m80.89,86.43l-2.48-4.19c-6.43,6.58-12.5,13.52-18.15,20.8l4.12,2.36c5.16-6.62,10.68-12.95,16.51-18.97Z" style="fill:#be8c5e;"/><path d="m422.43,89.93l2.33-4.41C380.99,39.03,318.89,10,250,10c-63.07,0-120.44,24.34-163.27,64.13l2.46,4.15C131.26,38.86,187.8,14.71,250,14.71c68.12,0,129.46,28.96,172.43,75.22Z" style="fill:#be8c5e;"/><path d="m466.86,158.58c11.87,28.1,18.43,58.99,18.43,91.42,0,30.7-5.89,60.03-16.58,86.92l4.12,2.36c11.07-27.6,17.17-57.72,17.17-89.28s-6.66-64.36-18.68-92.95l-4.46,1.53Z" style="fill:#be8c5e;"/><path d="m466.68,146.7c-9.03-18.9-20.46-36.44-33.89-52.21l-2.37,4.49c12.53,14.95,23.23,31.49,31.77,49.27l4.49-1.54Z" style="fill:#be8c5e;"/><path d="m98.26,401.74c34.63,34.63,79.03,55.96,126.97,61.43l37.18-70.37-67.21-113.43c-2.37,4.96-7.42,8.4-13.29,8.4-8.14,0-14.74-6.6-14.74-14.74s6.6-14.74,14.74-14.74c.28,0,.55.03.83.04l-1.15-1.94-139.31,47.77c9.47,36.59,28.55,70.14,55.98,97.57Zm96.58-40.02c17.71,0,32.06,14.35,32.06,32.06s-14.35,32.06-32.06,32.06-32.06-14.35-32.06-32.06,14.35-32.06,32.06-32.06Zm-78.35-38.27c10.57,0,19.13,8.57,19.13,19.13s-8.57,19.13-19.13,19.13-19.13-8.57-19.13-19.13,8.57-19.13,19.13-19.13Z" style="fill:#f3dc90;"/><path d="m39.73,293.1l135.99-46.63-57.67-97.33-42.41-24.28c-26.12,36.23-40.22,79.6-40.22,125.14,0,14.65,1.47,29.07,4.31,43.1Zm51.69-86.26c8.14,0,14.74,6.6,14.74,14.74s-6.6,14.74-14.74,14.74-14.74-6.6-14.74-14.74,6.6-14.74,14.74-14.74Z" style="fill:#f3dc90;"/><path d="m301.31,458.44l-14.47-24.43c-1.72,1.05-3.73,1.66-5.89,1.66-6.28,0-11.38-5.09-11.38-11.38,0-4.21,2.29-7.87,5.68-9.84l-6.08-10.26-31.71,60.02c4.16.24,8.34.37,12.54.37,17.52,0,34.72-2.1,51.31-6.15Z" style="fill:#f3dc90;"/><polygon points="137.92 160.52 186.63 242.73 245.96 222.39 137.92 160.52" style="fill:#f3dc90;"/><path d="m268.6,381.08l59.11-111.89-68.71-39.34-66.5,22.8,76.1,128.43Zm.96-92.8c13.99,0,25.34,11.34,25.34,25.34s-11.34,25.34-25.34,25.34-25.34-11.34-25.34-25.34,11.34-25.34,25.34-25.34Z" style="fill:#f3dc90;"/><path d="m446.25,337.07l-108.73-62.26-62.17,117.67,37.26,62.88c33.3-10.11,63.82-28.31,89.12-53.62,18.97-18.97,33.95-40.86,44.52-64.67Zm-75.59,24.65c-6.28,0-11.38-5.09-11.38-11.38s5.09-11.38,11.38-11.38,11.38,5.09,11.38,11.38-5.09,11.38-11.38,11.38Z" style="fill:#f3dc90;"/><path d="m419.9,118.88l-28.3,53.56,50.9-17.45c-6.28-12.68-13.82-24.78-22.6-36.11Z" style="fill:#f3dc90;"/><path d="m447.26,165.3l-63.36,21.73-29.9,56.6c4.81,3.11,8.01,8.51,8.01,14.66,0,5.56-2.61,10.51-6.67,13.7l95.25,54.54c9.19-24.12,14-49.96,14-76.54,0-29.61-5.98-58.29-17.33-84.7Zm-27.73,92.99c-8.14,0-14.74-6.6-14.74-14.74s6.6-14.74,14.74-14.74,14.74,6.6,14.74,14.74-6.6,14.74-14.74,14.74Z" style="fill:#f3dc90;"/><path d="m258.97,157.45c17.71,0,32.06,14.35,32.06,32.06,0,7.47-2.57,14.32-6.85,19.77l80.45-27.58c-6.83-2.92-11.61-9.7-11.61-17.59,0-10.57,8.57-19.13,19.13-19.13,6.93,0,12.98,3.7,16.34,9.21l23.65-44.76c-3.32-3.82-6.78-7.54-10.4-11.16-40.53-40.53-94.42-62.85-151.74-62.85s-109.66,21.7-149.99,61.14l26.23,44.27,14.36,8.22c-.44-1.92-.69-3.91-.69-5.96,0-14.71,11.92-26.63,26.63-26.63s26.63,11.92,26.63,26.63c0,11.92-7.83,22-18.62,25.4l53.9,30.86c-1-3.1-1.55-6.4-1.55-9.83,0-17.71,14.35-32.06,32.06-32.06Zm57.4-78.6c8.14,0,14.74,6.6,14.74,14.74s-6.6,14.74-14.74,14.74-14.74-6.6-14.74-14.74,6.6-14.74,14.74-14.74Zm-106.27,14.74c0-6.28,5.09-11.38,11.38-11.38s11.38,5.09,11.38,11.38-5.09,11.38-11.38,11.38-11.38-5.09-11.38-11.38Z" style="fill:#f3dc90;"/><path d="m327.28,255.93c1.07-7.89,7.41-14.11,15.36-14.98l25.67-48.58-95.08,32.6,54.06,30.95Z" style="fill:#f3dc90;"/><path d="m106.38,129.45l-14.51-24.48c-3.24,3.53-6.36,7.13-9.33,10.83l23.84,13.65Z" style="fill:#f3dc90;"/><path d="m401.74,98.26c3.61,3.61,7.07,7.34,10.4,11.16l10.3-19.49C379.46,43.66,318.12,14.71,250,14.71c-62.2,0-118.74,24.15-160.81,63.57l10.83,18.28c40.33-39.44,93.48-61.14,149.99-61.14s111.21,22.32,151.74,62.85Z" style="fill:#f1b278;"/><path d="m462.19,148.24c-8.54-17.77-19.24-34.31-31.77-49.27l-10.52,19.9c8.78,11.33,16.32,23.43,22.6,36.11l19.69-6.75Z" style="fill:#f1b278;"/><path d="m466.86,158.58l-19.6,6.72c11.35,26.41,17.33,55.09,17.33,84.7,0,26.58-4.81,52.42-14,76.54l18.12,10.38c10.7-26.89,16.58-56.21,16.58-86.92,0-32.42-6.56-63.31-18.43-91.42Z" style="fill:#f1b278;"/><path d="m82.54,115.8c2.98-3.7,6.1-7.31,9.33-10.83l-10.98-18.54c-5.83,6.02-11.35,12.35-16.51,18.97l18.16,10.4Z" style="fill:#f1b278;"/><path d="m464.25,347.38l-18-10.31c-10.57,23.8-25.55,45.7-44.52,64.67-25.31,25.31-55.82,43.51-89.12,53.62l10.8,18.22c62.7-20.58,113.78-66.75,140.85-126.2Z" style="fill:#f1b278;"/><path d="m20.01,299.86l19.71-6.76c-2.85-14.03-4.31-28.46-4.31-43.1,0-45.54,14.1-88.91,40.22-125.14l-18.03-10.33C30.58,152.84,14.71,199.56,14.71,250c0,17.11,1.84,33.79,5.31,49.86Z" style="fill:#f1b278;"/><path d="m42.28,304.17l-19.61,6.72c23.9,89.43,99.15,157.88,192.25,171.8l10.31-19.52c-47.95-5.48-92.34-26.8-126.97-61.43-27.43-27.43-46.51-60.98-55.98-97.57Z" style="fill:#f1b278;"/><path d="m312.27,476.94l-10.96-18.5c-16.6,4.05-33.79,6.15-51.31,6.15-4.2,0-8.38-.13-12.54-.37l-10.54,19.95c7.6.74,15.29,1.13,23.08,1.13,21.56,0,42.43-2.93,62.27-8.36Z" style="fill:#f1b278;"/><path d="m189.41,143.09c0-12.61-10.26-22.87-22.87-22.87s-22.87,10.26-22.87,22.87c0,3.08.62,6.02,1.73,8.71l24.3,13.91c11.11-1.55,19.71-11.09,19.71-22.62Z" style="fill:#bc5953;"/><path d="m193.18,143.09c0-14.71-11.92-26.63-26.63-26.63s-26.63,11.92-26.63,26.63c0,2.05.25,4.04.69,5.96l4.8,2.75c-1.11-2.69-1.73-5.63-1.73-8.71,0-12.61,10.26-22.87,22.87-22.87s22.87,10.26,22.87,22.87c0,11.53-8.59,21.07-19.71,22.62l4.85,2.78c10.79-3.4,18.62-13.48,18.62-25.4Z" style="fill:#89403c;"/><path d="m330.88,258l2.12,1.21,7.36-13.93c-5.41,1.75-9.35,6.77-9.48,12.72Z" style="fill:#bc5953;"/><path d="m358.24,258.29c0-4.7-2.39-8.86-6.01-11.32l-9.43,17.85,8.92,5.11c3.9-2.41,6.52-6.72,6.52-11.64Z" style="fill:#bc5953;"/><path d="m362.01,258.29c0-6.16-3.19-11.56-8.01-14.66l-1.76,3.34c3.62,2.47,6.01,6.62,6.01,11.32s-2.61,9.22-6.52,11.64l3.61,2.07c4.06-3.2,6.67-8.14,6.67-13.7Z" style="fill:#89403c;"/><path d="m327.28,255.93l3.6,2.06c.13-5.95,4.07-10.97,9.48-12.72l2.28-4.32c-7.95.87-14.29,7.08-15.36,14.98Z" style="fill:#89403c;"/><circle cx="116.5" cy="342.59" r="15.37" transform="translate(-75.59 35.93) rotate(-13.28)" style="fill:#bc5953;"/><path d="m116.5,361.72c10.57,0,19.13-8.57,19.13-19.13s-8.57-19.13-19.13-19.13-19.13,8.57-19.13,19.13,8.57,19.13,19.13,19.13Zm0-34.5c8.47,0,15.37,6.89,15.37,15.37s-6.89,15.37-15.37,15.37-15.37-6.89-15.37-15.37,6.89-15.37,15.37-15.37Z" style="fill:#89403c;"/><path d="m372.15,148.74c-8.47,0-15.37,6.89-15.37,15.37s6.41,14.85,14.47,15.32l4.76-1.63,10.34-19.56c-2.31-5.57-7.8-9.5-14.2-9.5Z" style="fill:#bc5953;"/><path d="m372.15,144.97c-10.57,0-19.13,8.57-19.13,19.13,0,7.9,4.79,14.67,11.61,17.59l6.62-2.27c-8.06-.47-14.47-7.15-14.47-15.32s6.89-15.37,15.37-15.37c6.39,0,11.89,3.93,14.2,9.5l2.14-4.05c-3.36-5.52-9.41-9.21-16.34-9.21Z" style="fill:#89403c;"/><circle cx="194.84" cy="393.78" r="28.3" style="fill:#bc5953;"/><path d="m194.84,425.84c17.71,0,32.06-14.35,32.06-32.06s-14.35-32.06-32.06-32.06-32.06,14.35-32.06,32.06,14.35,32.06,32.06,32.06Zm0-60.36c15.6,0,28.3,12.69,28.3,28.3s-12.69,28.3-28.3,28.3-28.3-12.69-28.3-28.3,12.69-28.3,28.3-28.3Z" style="fill:#89403c;"/><path d="m287.26,189.52c0-15.6-12.69-28.3-28.3-28.3s-28.3,12.69-28.3,28.3c0,4.65,1.15,9.03,3.14,12.9l26.37,15.1,15.73-5.39c6.88-5.16,11.36-13.36,11.36-22.6Z" style="fill:#bc5953;"/><path d="m258.97,161.22c15.6,0,28.3,12.69,28.3,28.3,0,9.25-4.47,17.45-11.36,22.6l8.27-2.84c4.28-5.44,6.85-12.3,6.85-19.77,0-17.71-14.35-32.06-32.06-32.06s-32.06,14.35-32.06,32.06c0,3.43.55,6.73,1.55,9.83l5.36,3.07c-1.99-3.87-3.14-8.25-3.14-12.9,0-15.6,12.69-28.3,28.3-28.3Z" style="fill:#89403c;"/><path d="m273.33,424.29c0,4.2,3.41,7.61,7.61,7.61,1.46,0,2.81-.43,3.97-1.15l-7.73-13.04c-2.29,1.31-3.85,3.75-3.85,6.58Z" style="fill:#bc5953;"/><path d="m269.57,424.29c0,6.28,5.09,11.38,11.38,11.38,2.16,0,4.17-.61,5.89-1.66l-1.93-3.25c-1.16.71-2.51,1.15-3.97,1.15-4.2,0-7.61-3.41-7.61-7.61,0-2.82,1.56-5.26,3.85-6.58l-1.93-3.26c-3.39,1.97-5.68,5.63-5.68,9.84Z" style="fill:#89403c;"/><path d="m221.48,85.98c-4.2,0-7.61,3.41-7.61,7.61s3.41,7.61,7.61,7.61,7.61-3.41,7.61-7.61-3.41-7.61-7.61-7.61Z" style="fill:#bc5953;"/><path d="m232.85,93.59c0-6.28-5.09-11.38-11.38-11.38s-11.38,5.09-11.38,11.38,5.09,11.38,11.38,11.38,11.38-5.09,11.38-11.38Zm-11.38,7.61c-4.2,0-7.61-3.41-7.61-7.61s3.41-7.61,7.61-7.61,7.61,3.41,7.61,7.61-3.41,7.61-7.61,7.61Z" style="fill:#89403c;"/><path d="m370.67,342.73c-4.2,0-7.61,3.41-7.61,7.61s3.41,7.61,7.61,7.61,7.61-3.41,7.61-7.61-3.41-7.61-7.61-7.61Z" style="fill:#bc5953;"/><path d="m370.67,338.97c-6.28,0-11.38,5.09-11.38,11.38s5.09,11.38,11.38,11.38,11.38-5.09,11.38-11.38-5.09-11.38-11.38-11.38Zm0,18.99c-4.2,0-7.61-3.41-7.61-7.61s3.41-7.61,7.61-7.61,7.61,3.41,7.61,7.61-3.41,7.61-7.61,7.61Z" style="fill:#89403c;"/><circle cx="269.57" cy="313.63" r="21.57" style="fill:#bc5953;"/><path d="m269.57,338.97c13.99,0,25.34-11.34,25.34-25.34s-11.34-25.34-25.34-25.34-25.34,11.34-25.34,25.34,11.34,25.34,25.34,25.34Zm0-46.91c11.9,0,21.57,9.68,21.57,21.57s-9.68,21.57-21.57,21.57-21.57-9.68-21.57-21.57,9.68-21.57,21.57-21.57Z" style="fill:#89403c;"/><path d="m170.94,273.03c0,6.05,4.92,10.97,10.97,10.97,5.34,0,9.8-3.84,10.77-8.9l-7.42-12.53c-1.06-.34-2.18-.53-3.35-.53-6.05,0-10.97,4.92-10.97,10.97Z" style="fill:#bc5953;"/><path d="m167.18,273.03c0,8.14,6.6,14.74,14.74,14.74,5.87,0,10.92-3.44,13.29-8.4l-2.52-4.26c-.97,5.06-5.43,8.9-10.77,8.9-6.05,0-10.97-4.92-10.97-10.97s4.92-10.97,10.97-10.97c1.17,0,2.29.19,3.35.53l-2.52-4.25c-.28-.02-.55-.04-.83-.04-8.14,0-14.74,6.6-14.74,14.74Z" style="fill:#89403c;"/><circle cx="419.54" cy="243.56" r="10.97" transform="translate(-49.34 367.99) rotate(-45)" style="fill:#bc5953;"/><path d="m419.54,228.82c-8.14,0-14.74,6.6-14.74,14.74s6.6,14.74,14.74,14.74,14.74-6.6,14.74-14.74-6.6-14.74-14.74-14.74Zm0,25.71c-6.05,0-10.97-4.92-10.97-10.97s4.92-10.97,10.97-10.97,10.97,4.92,10.97,10.97-4.92,10.97-10.97,10.97Z" style="fill:#89403c;"/><circle cx="316.37" cy="93.59" r="10.97" transform="translate(26.48 251.12) rotate(-45)" style="fill:#bc5953;"/><path d="m316.37,108.33c8.14,0,14.74-6.6,14.74-14.74s-6.6-14.74-14.74-14.74-14.74,6.6-14.74,14.74,6.6,14.74,14.74,14.74Zm0-25.71c6.05,0,10.97,4.92,10.97,10.97s-4.92,10.97-10.97,10.97-10.97-4.92-10.97-10.97,4.92-10.97,10.97-10.97Z" style="fill:#89403c;"/><circle cx="91.42" cy="221.58" r="10.97" style="fill:#bc5953;"/><path d="m91.42,236.32c8.14,0,14.74-6.6,14.74-14.74s-6.6-14.74-14.74-14.74-14.74,6.6-14.74,14.74,6.6,14.74,14.74,14.74Zm0-25.71c6.05,0,10.97,4.92,10.97,10.97s-4.92,10.97-10.97,10.97-10.97-4.92-10.97-10.97,4.92-10.97,10.97-10.97Z" style="fill:#89403c;"/></svg>