<?xml version="1.0" encoding="UTF-8"?><svg width="800" xmlns="http://www.w3.org/2000/svg" viewBox="0 0 470 470"><path d="m60.42,60.27v378.95h378.95V60.27H60.42Zm123.99,371.37h-116.41v-116.41h116.41v116.41Zm0-123.69h-116.41v-116.41h116.41v116.41Zm0-123.69h-116.41v-116.41h116.41v116.41Zm123.69,247.38h-116.41v-116.41h116.41v116.41Zm0-123.69h-116.41v-116.41h116.41v116.41Zm0-123.69h-116.41v-116.41h116.41v116.41Zm123.69,247.38h-116.41v-116.41h116.41v116.41Zm0-123.69h-116.41v-116.41h116.41v116.41Zm0-123.69h-116.41v-116.41h116.41v116.41Z" style="fill:#878787;"/><rect x="68" y="191.53" width="116.41" height="116.41" style="fill:#e94e1b; opacity:.5;"/><circle cx="60.42" cy="60.27" r="10.53" style="fill:none; stroke:#e94e1b; stroke-miterlimit:10; stroke-width:5px;"/><circle cx="188.04" cy="60.27" r="10.53" style="fill:none; stroke:#e94e1b; stroke-miterlimit:10; stroke-width:5px;"/><circle cx="311.33" cy="60.27" r="10.53" style="fill:none; stroke:#e94e1b; stroke-miterlimit:10; stroke-width:5px;"/><circle cx="439.36" cy="60.27" r="10.53" style="fill:none; stroke:#1d1d1b; stroke-miterlimit:10; stroke-width:5px;"/><circle cx="60.42" cy="188.47" r="10.53" style="fill:#e94e1b; stroke:#e94e1b; stroke-miterlimit:10; stroke-width:5px;"/><circle cx="188.04" cy="188.47" r="10.53" style="fill:none; stroke:#e94e1b; stroke-miterlimit:10; stroke-width:5px;"/><circle cx="311.33" cy="188.47" r="10.53" style="fill:none; stroke:#e94e1b; stroke-miterlimit:10; stroke-width:5px;"/><circle cx="439.36" cy="188.47" r="10.53" style="fill:none; stroke:#1d1d1b; stroke-miterlimit:10; stroke-width:5px;"/><circle cx="60.42" cy="312.13" r="10.53" style="fill:none; stroke:#e94e1b; stroke-miterlimit:10; stroke-width:5px;"/><circle cx="188.04" cy="312.13" r="10.53" style="fill:none; stroke:#e94e1b; stroke-miterlimit:10; stroke-width:5px;"/><circle cx="311.33" cy="312.13" r="10.53" style="fill:none; stroke:#e94e1b; stroke-miterlimit:10; stroke-width:5px;"/><circle cx="439.36" cy="312.13" r="10.53" style="fill:none; stroke:#1d1d1b; stroke-miterlimit:10; stroke-width:5px;"/><circle cx="60.42" cy="439.21" r="10.53" style="fill:none; stroke:#1d1d1b; stroke-miterlimit:10; stroke-width:5px;"/><circle cx="188.04" cy="439.21" r="10.53" style="fill:none; stroke:#1d1d1b; stroke-miterlimit:10; stroke-width:5px;"/><circle cx="311.33" cy="439.21" r="10.53" style="fill:none; stroke:#1d1d1b; stroke-miterlimit:10; stroke-width:5px;"/><circle cx="439.36" cy="439.21" r="10.53" style="fill:none; stroke:#1d1d1b; stroke-miterlimit:10; stroke-width:5px;"/><path d="m66.25,26.68c0,.27-.01.51-.04.7s-.07.34-.12.45-.11.19-.18.24-.15.07-.23.07h-10.46c-.08,0-.15-.02-.22-.07s-.13-.13-.18-.24-.1-.26-.12-.45-.04-.42-.04-.7.01-.52.04-.71.06-.34.12-.46.11-.2.18-.26.15-.08.23-.08h3.53v-12.33l-3.05,1.68c-.22.11-.41.17-.55.2s-.25,0-.34-.09-.14-.23-.17-.43-.04-.49-.04-.86c0-.23,0-.43.01-.58s.03-.28.07-.39.09-.2.16-.26.16-.14.28-.22l4.07-2.64s.11-.07.18-.1.17-.04.29-.06.27-.02.46-.03.44,0,.74,0c.37,0,.67,0,.9.02s.4.04.52.07.2.08.23.14.06.13.06.22v15.66h3.09c.09,0,.17.03.24.08s.14.14.19.26.09.27.12.46.04.43.04.71Z" style="fill:#706f6f;"/><path d="m27.86,68.35c0,.27-.01.51-.04.7s-.07.34-.12.45-.11.19-.18.24-.15.07-.23.07h-10.46c-.08,0-.15-.02-.22-.07s-.13-.13-.18-.24-.1-.26-.12-.45-.04-.42-.04-.7.01-.52.04-.71.06-.34.12-.46.11-.2.18-.26.15-.08.23-.08h3.53v-12.33l-3.05,1.68c-.22.11-.41.17-.55.2s-.25,0-.34-.09-.14-.23-.17-.43-.04-.49-.04-.86c0-.23,0-.43.01-.58s.03-.28.07-.39.09-.2.16-.26.16-.14.28-.22l4.07-2.64s.11-.07.18-.1.17-.04.29-.06.27-.02.46-.03.44,0,.74,0c.37,0,.67,0,.9.02s.4.04.52.07.2.08.23.14.06.13.06.22v15.66h3.09c.09,0,.17.03.24.08s.14.14.19.26.09.27.12.46.04.43.04.71Z" style="fill:#706f6f;"/><path d="m195.68,26.58c0,.28-.01.52-.04.73s-.06.36-.11.49-.11.22-.19.27-.17.08-.26.08h-10.9c-.21,0-.4-.02-.56-.06s-.28-.11-.38-.23-.17-.28-.21-.49-.07-.49-.07-.83c0-.32.01-.6.04-.83s.08-.43.16-.62.18-.36.3-.53.28-.36.48-.56l3.28-3.52c.65-.68,1.18-1.31,1.58-1.87s.71-1.07.94-1.54.38-.89.46-1.28.12-.76.12-1.11c0-.32-.05-.63-.15-.92s-.25-.54-.45-.75-.45-.38-.75-.51-.66-.18-1.07-.18c-.58,0-1.09.07-1.53.22s-.83.31-1.17.49-.62.35-.84.5-.4.23-.53.23c-.09,0-.16-.03-.23-.09s-.11-.16-.15-.29-.07-.32-.1-.55-.04-.51-.04-.84c0-.22,0-.41.02-.56s.04-.28.07-.4.07-.21.12-.29.13-.18.26-.3.35-.27.67-.45.73-.36,1.21-.53,1.01-.31,1.58-.43,1.18-.18,1.8-.18c.99,0,1.85.12,2.59.37s1.35.6,1.84,1.04.85.97,1.09,1.58.36,1.27.36,1.97c0,.62-.06,1.22-.18,1.82s-.36,1.24-.73,1.93-.89,1.45-1.57,2.29-1.57,1.8-2.68,2.91l-2.21,2.27h7.47c.1,0,.19.03.27.09s.15.15.21.27.1.28.13.48.04.44.04.71Z" style="fill:#706f6f;"/><path d="m27.61,193.99c0,.28-.01.52-.04.73s-.06.36-.11.49-.11.22-.19.27-.17.08-.26.08h-10.9c-.21,0-.4-.02-.56-.06s-.28-.11-.38-.23-.17-.28-.21-.49-.07-.49-.07-.83c0-.32.01-.6.04-.83s.08-.43.16-.62.18-.36.3-.53.28-.36.48-.56l3.28-3.52c.65-.68,1.18-1.31,1.58-1.87s.71-1.07.94-1.54.38-.89.46-1.28.12-.76.12-1.11c0-.32-.05-.63-.15-.92s-.25-.54-.45-.75-.45-.38-.75-.51-.66-.18-1.07-.18c-.58,0-1.09.07-1.53.22s-.83.31-1.17.49-.62.35-.84.5-.4.23-.53.23c-.09,0-.16-.03-.23-.09s-.11-.16-.15-.29-.07-.32-.1-.55-.04-.51-.04-.84c0-.22,0-.41.02-.56s.04-.28.07-.4.07-.21.12-.29.13-.18.26-.3.35-.27.67-.45.73-.36,1.21-.53,1.01-.31,1.58-.43,1.18-.18,1.8-.18c.99,0,1.85.12,2.59.37s1.35.6,1.84,1.04.85.97,1.09,1.58.36,1.27.36,1.97c0,.62-.06,1.22-.18,1.82s-.36,1.24-.73,1.93-.89,1.45-1.57,2.29-1.57,1.8-2.68,2.91l-2.21,2.27h7.47c.1,0,.19.03.27.09s.15.15.21.27.1.28.13.48.04.44.04.71Z" style="fill:#706f6f;"/><path d="m317.66,22.53c0,.95-.18,1.79-.54,2.52s-.86,1.35-1.51,1.85-1.42.88-2.31,1.14-1.88.39-2.94.39c-.64,0-1.25-.05-1.82-.14s-1.07-.21-1.5-.34c-.44-.14-.79-.28-1.08-.42s-.47-.26-.56-.34-.15-.17-.2-.26c-.04-.1-.08-.21-.12-.34s-.06-.3-.07-.5c-.02-.2-.02-.44-.02-.73,0-.47.04-.79.12-.97s.2-.27.35-.27c.1,0,.27.07.5.2s.54.27.92.42.81.29,1.3.42,1.06.2,1.7.2c.54,0,1.01-.06,1.42-.19s.76-.31,1.05-.53.5-.51.64-.83.21-.69.21-1.09c0-.44-.09-.83-.26-1.19-.17-.35-.43-.65-.76-.9-.34-.25-.76-.44-1.28-.58-.51-.14-1.12-.21-1.81-.21h-1.64c-.13,0-.23-.02-.32-.05s-.16-.1-.22-.21-.1-.26-.12-.45c-.03-.19-.04-.44-.04-.74,0-.28.01-.52.04-.7.02-.18.06-.32.12-.42.05-.1.12-.17.21-.21.08-.04.18-.06.3-.06h1.66c.57,0,1.07-.07,1.51-.2s.81-.32,1.11-.56c.3-.24.52-.54.68-.89s.23-.73.23-1.15c0-.32-.05-.63-.16-.92s-.27-.54-.48-.75-.48-.38-.81-.5-.72-.18-1.17-.18c-.51,0-.99.08-1.44.23s-.85.32-1.21.5-.66.35-.91.51c-.25.16-.43.23-.55.23-.08,0-.15-.02-.21-.05s-.11-.1-.15-.2-.07-.24-.09-.42-.03-.42-.03-.72c0-.24,0-.45.01-.61s.03-.3.06-.4.07-.2.11-.28c.04-.08.11-.16.21-.26s.3-.23.6-.42.68-.37,1.14-.54.99-.32,1.59-.45c.6-.12,1.25-.18,1.96-.18.92,0,1.73.11,2.44.32.71.21,1.3.52,1.79.93.48.41.85.9,1.1,1.49.25.59.37,1.26.37,2,0,.58-.07,1.11-.22,1.61s-.36.94-.64,1.33-.64.72-1.06,1c-.42.27-.92.48-1.47.62v.04c.66.08,1.26.25,1.79.51s.97.58,1.34.97c.37.39.65.83.84,1.33s.29,1.02.29,1.59Z" style="fill:#706f6f;"/><path d="m27.56,316.06c0,.95-.18,1.79-.54,2.52s-.86,1.35-1.51,1.85-1.42.88-2.31,1.14-1.88.39-2.94.39c-.64,0-1.25-.05-1.82-.14s-1.07-.21-1.5-.34c-.44-.14-.79-.28-1.08-.42s-.47-.26-.56-.34-.15-.17-.2-.26c-.04-.1-.08-.21-.12-.34s-.06-.3-.07-.5c-.02-.2-.02-.44-.02-.73,0-.47.04-.79.12-.97s.2-.27.35-.27c.1,0,.27.07.5.2s.54.27.92.42.81.29,1.3.42,1.06.2,1.7.2c.54,0,1.01-.06,1.42-.19s.76-.31,1.05-.53.5-.51.64-.83.21-.69.21-1.09c0-.44-.09-.83-.26-1.19-.17-.35-.43-.65-.76-.9-.34-.25-.76-.44-1.28-.58-.51-.14-1.12-.21-1.81-.21h-1.64c-.13,0-.23-.02-.32-.05s-.16-.1-.22-.21-.1-.26-.12-.45c-.03-.19-.04-.44-.04-.74,0-.28.01-.52.04-.7.02-.18.06-.32.12-.42.05-.1.12-.17.21-.21.08-.04.18-.06.3-.06h1.66c.57,0,1.07-.07,1.51-.2s.81-.32,1.11-.56c.3-.24.52-.54.68-.89s.23-.73.23-1.15c0-.32-.05-.63-.16-.92s-.27-.54-.48-.75-.48-.38-.81-.5-.72-.18-1.17-.18c-.51,0-.99.08-1.44.23s-.85.32-1.21.5-.66.35-.91.51c-.25.16-.43.23-.55.23-.08,0-.15-.02-.21-.05s-.11-.1-.15-.2-.07-.24-.09-.42-.03-.42-.03-.72c0-.24,0-.45.01-.61s.03-.3.06-.4.07-.2.11-.28c.04-.08.11-.16.21-.26s.3-.23.6-.42.68-.37,1.14-.54.99-.32,1.59-.45c.6-.12,1.25-.18,1.96-.18.92,0,1.73.11,2.44.32.71.21,1.3.52,1.79.93.48.41.85.9,1.1,1.49.25.59.37,1.26.37,2,0,.58-.07,1.11-.22,1.61s-.36.94-.64,1.33-.64.72-1.06,1c-.42.27-.92.48-1.47.62v.04c.66.08,1.26.25,1.79.51s.97.58,1.34.97c.37.39.65.83.84,1.33s.29,1.02.29,1.59Z" style="fill:#706f6f;"/><path d="m446.07,22.54c0,.5-.05.88-.15,1.14-.1.26-.24.39-.42.39h-1.68v3.43c0,.1-.03.18-.09.26s-.16.13-.31.18-.34.09-.57.11-.54.04-.91.04c-.35,0-.65-.01-.89-.04s-.43-.06-.57-.11c-.14-.05-.24-.11-.29-.18-.05-.07-.08-.16-.08-.26v-3.43h-7.25c-.14,0-.26-.02-.37-.05s-.2-.11-.27-.23c-.07-.12-.13-.3-.16-.53s-.05-.53-.05-.92c0-.31,0-.58.02-.81.02-.23.04-.44.07-.62.03-.19.08-.36.15-.53.06-.17.14-.34.24-.53l5.89-10.39c.05-.09.13-.16.25-.23s.28-.12.49-.16.48-.08.8-.1.71-.03,1.17-.03c.5,0,.92.01,1.27.04s.63.06.84.12c.21.05.36.12.46.2s.15.17.15.28v11.41h1.68c.16,0,.29.12.4.36.11.24.17.64.17,1.19Zm-5.96-10.27h-.03l-5,8.72h5.02v-8.72Z" style="fill:#706f6f;"/><path d="m27.43,443.24c0,.5-.05.88-.15,1.14-.1.26-.24.39-.42.39h-1.68v3.43c0,.1-.03.18-.09.26s-.16.13-.31.18-.34.09-.57.11-.54.04-.91.04c-.35,0-.65-.01-.89-.04s-.43-.06-.57-.11c-.14-.05-.24-.11-.29-.18-.05-.07-.08-.16-.08-.26v-3.43h-7.25c-.14,0-.26-.02-.37-.05s-.2-.11-.27-.23c-.07-.12-.13-.3-.16-.53s-.05-.53-.05-.92c0-.31,0-.58.02-.81.02-.23.04-.44.07-.62.03-.19.08-.36.15-.53.06-.17.14-.34.24-.53l5.89-10.39c.05-.09.13-.16.25-.23s.28-.12.49-.16.48-.08.8-.1.71-.03,1.17-.03c.5,0,.92.01,1.27.04s.63.06.84.12c.21.05.36.12.46.2s.15.17.15.28v11.41h1.68c.16,0,.29.12.4.36.11.24.17.64.17,1.19Zm-5.96-10.27h-.03l-5,8.72h5.02v-8.72Z" style="fill:#706f6f;"/></svg>