<svg xmlns="http://www.w3.org/2000/svg" viewBox="0 0 409.2 138.3" width="800">
  <path fill="#474747" d="M317.6 86.6a9 9 0 0 1-18 0 9 9 0 0 1 18 0Zm24 0a9 9 0 0 1-18 0 9 9 0 0 1 18 0Zm24 0a9 9 0 0 1-18 0 9 9 0 0 1 18 0Zm24 0a9 9 0 0 1-18 0 9 9 0 0 1 18 0Zm-60-20.8a9 9 0 0 1-18 0 9 9 0 0 1 18 0Zm24 0a9 9 0 0 1-18 0 9 9 0 0 1 18 0Zm24 0a9 9 0 0 1-18 0 9 9 0 0 1 18 0Zm-36-20.8a9 9 0 0 1-18 0 9 9 0 0 1 18 0Zm24 0a9 9 0 0 1-18 0 9 9 0 0 1 18 0Zm-12-20.8a9 9 0 0 1-18 0 9 9 0 0 1 18 0ZM206 87a9 9 0 0 1-18 0 9 9 0 0 1 18 0Zm24 0a9 9 0 0 1-18 0 9 9 0 0 1 18 0Zm24 0a9 9 0 0 1-18 0 9 9 0 0 1 18 0Zm-36-20.8a9 9 0 0 1-18 0 9 9 0 0 1 18 0Zm24 0a9 9 0 0 1-18 0 9 9 0 0 1 18 0Zm-12-20.8a9 9 0 0 1-18 0 9 9 0 0 1 18 0ZM118 86.6a9 9 0 0 1-18 0 9 9 0 0 1 18 0Zm24 0a9 9 0 0 1-18 0 9 9 0 0 1 18 0Zm-12-20.8a9 9 0 0 1-18 0 9 9 0 0 1 18 0ZM54 86.6a9 9 0 0 1-18 0 9 9 0 0 1 18 0Zm-26.6 24.1c.2-.6.3-.7.5-.8h1.2c2 0 2.9 0 2.9 1.6a14.3 14.3 0 0 1-.2 2s0 .2.2.2.3-.2.3-.5l.5-3.4v-.3c0-.2-.1-.2-.4-.2h-11c-.4 0-.4 0-.6.4l-1.1 3.4-.1.4s0 .2.2.2.2-.1.3-.4c1-3 1.6-3.4 4.5-3.4h.8c.5 0 .5 0 .5.2v.4L23.1 121c-.2.7-.2 1-2.3 1-.7 0-.9 0-.9.3s.2.3.4.3H22l1.6-.1H27c.1 0 .4 0 .4-.3s-.2-.3-.7-.3h-1.2c-.6 0-.8-.1-.8-.4l.1-.4 2.6-10.5m7.8 6.2c0-.4 0-.4-.4-.4-1 .8-2.2.8-2.7.8v.5c.3 0 1.2 0 2-.4v7c0 .5 0 .7-1.4.7H32v.5a78.6 78.6 0 0 1 5 0v-.5h-.6c-1.4 0-1.4-.2-1.4-.6v-7.7m21.4-.6c.3 0 .7 0 .7-.4s-.4-.4-.6-.4H44.8c-.3 0-.6 0-.6.4s.3.4.6.4h11.8Zm0 3.8c.3 0 .7 0 .7-.4s-.4-.4-.7-.4H44.8c-.3 0-.6 0-.6.4s.3.4.6.4h11.8m11.3-10c0-.4 0-.4-.4-.4-1.2 1.2-3 1.2-3.6 1.2v.6c.4 0 1.6 0 2.6-.5V121c0 .7 0 1-1.8 1H64v.5h6.4v-.6h-.6c-1.8 0-1.9-.2-1.9-.9v-11m35.2.7c.2-.6.3-.7.5-.8h1.2c2 0 2.9 0 2.9 1.6a14.3 14.3 0 0 1-.2 2s0 .2.2.2.3-.2.3-.5l.5-3.4v-.3c0-.2-.1-.2-.5-.2H97.1c-.4 0-.4 0-.6.4l-1.2 3.4v.4s0 .2.2.2.2-.1.3-.4c1-3 1.6-3.4 4.5-3.4h.7c.6 0 .6 0 .6.2v.4L98.8 121c-.2.7-.3 1-2.4 1-.7 0-.8 0-.8.3s.2.3.3.3h1.6l1.7-.1h3.3c.2 0 .5 0 .5-.3s-.2-.3-.7-.3H101c-.5 0-.7-.1-.7-.4v-.4l2.7-10.5m10 12.4h-.4l-.3 1.3h-3.9l2.7-2.3c1-.8 2-1.6 2-3 0-1.6-1.5-2.6-3.2-2.6s-2.9 1.2-2.9 2.4c0 .7.6.8.8.8.3 0 .7-.2.7-.7 0-.3-.1-.8-.8-.8.4-1 1.3-1.2 2-1.2 1.4 0 2 1 2 2.2 0 1.1-.8 2.1-1.2 2.6l-3.3 3.3c-.2.1-.2.1-.2.5h5.7l.4-2.5m19-6.9c.4 0 .7 0 .7-.4s-.3-.4-.6-.4h-11.8c-.3 0-.6 0-.6.4s.3.4.6.4h11.8Zm0 3.8c.4 0 .7 0 .7-.4s-.3-.4-.6-.4h-11.8c-.3 0-.6 0-.6.4s.3.4.6.4h11.8m11.2-4.3c1.6-.5 2.7-1.9 2.7-3.4s-1.7-2.7-3.6-2.7c-2 0-3.5 1.2-3.5 2.7a1 1 0 0 0 2 0c0-1-.9-1-1.2-1 .6-1 2-1.2 2.6-1.2.8 0 1.9.4 1.9 2.2a5 5 0 0 1-.5 2.2c-.6 1-1.3 1-1.8 1l-.7.1c-.2 0-.3 0-.3.2s0 .2.4.2h.9c1.6 0 2.3 1.4 2.3 3.3 0 2.7-1.3 3.2-2.2 3.2s-2.3-.3-3-1.4c.7 0 1.3-.4 1.3-1.1s-.5-1.1-1.1-1.1c-.5 0-1.1.2-1.1 1.1 0 1.8 1.8 3.1 4 3.1 2.4 0 4.1-1.8 4.1-3.8 0-1.6-1.2-3.1-3.2-3.5m59.7-5c.2-.5.2-.7.5-.7h1.2c2 0 2.9 0 2.9 1.6a14.3 14.3 0 0 1-.2 2s0 .2.2.2.3-.2.3-.5l.5-3.4v-.3c0-.3-.1-.3-.5-.3h-10.9c-.4 0-.4 0-.6.4l-1.2 3.5v.3c0 .1 0 .2.2.2s.2 0 .3-.4c1-3 1.6-3.4 4.5-3.4h.7c.6 0 .6.1.6.3l-.1.4-2.6 10.5c-.2.7-.3 1-2.4 1-.7 0-.8 0-.8.3 0 .2.2.2.3.2h6.6c.2 0 .5 0 .5-.4 0-.2-.2-.2-.7-.2h-1.3c-.5 0-.7-.1-.7-.5v-.4l2.7-10.4m6.8 10.3c1 0 1.8.7 1.8 2.2 0 1.7-1 2.2-1.8 2.2-.5 0-1.7-.2-2.3-1 .7 0 .8-.5.8-.7 0-.5-.3-.8-.8-.8-.3 0-.7.2-.7.8 0 1.3 1.4 2.1 3 2.1 2 0 3.3-1.3 3.3-2.6 0-1-.9-2.2-2.4-2.5 1.4-.5 2-1.5 2-2.4 0-1-1.3-1.9-2.8-1.9s-2.7.8-2.7 1.9c0 .4.3.7.7.7s.7-.3.7-.7-.3-.7-.7-.7c.5-.6 1.4-.8 2-.8.6 0 1.4.3 1.4 1.5 0 .6-.2 1.2-.5 1.7-.5.5-.9.5-1.6.5h-.4l-.1.3c0 .2 0 .2.3.2h.8m22.3-4.8c.3 0 .7 0 .7-.4s-.4-.4-.7-.4h-11.7c-.3 0-.7 0-.7.4s.4.4.7.4h11.7Zm0 3.8c.3 0 .7 0 .7-.4s-.4-.4-.7-.4h-11.7c-.3 0-.7 0-.7.4s.4.4.7.4h11.7m10.6-5.8c-1.4 0-2 1-2.5 2v-.5c0-5 2.5-5.7 3.5-5.7.4 0 1.3.1 1.7.8-.3 0-1.1 0-1.1.9 0 .6.5.9.9.9.3 0 .9-.2.9-1 0-1.1-.9-2-2.5-2-2.5 0-5.1 2.4-5.1 6.8 0 5.2 2.2 6.6 4 6.6 2.2 0 4-1.8 4-4.4s-1.7-4.4-3.8-4.4Zm1.8 7c-.6 1.2-1.5 1.3-2 1.3-1.2 0-1.8-1.2-1.9-1.5-.3-1-.3-2.5-.3-2.9 0-1.5.6-3.5 2.4-3.5.3 0 1.2 0 1.8 1.2.4.8.4 1.8.4 2.7s0 2-.4 2.7Zm76.2-10.6c.2-.6.3-.7.5-.8h1.2c2 0 2.9 0 2.9 1.6a14.3 14.3 0 0 1-.2 2s0 .2.2.2.3-.2.3-.5l.5-3.4v-.3c0-.2-.1-.2-.5-.2H315c-.5 0-.5 0-.7.4l-1.1 3.4-.2.4.3.2c.2 0 .2-.1.3-.4 1-3 1.6-3.4 4.5-3.4h.8c.5 0 .5 0 .5.2v.4l-2.7 10.5c-.2.7-.2 1-2.3 1-.7 0-.9 0-.9.3s.2.3.4.3h6.5c.2 0 .4 0 .4-.4 0-.3-.2-.3-.7-.3H319c-.6 0-.8-.1-.8-.4l.1-.4 2.6-10.5m10.5 12.7v-.5h-1.6v-6.2c0-.3 0-.4-.3-.4-.1 0-.2 0-.3.2l-4.6 6.4v.4h4v1.2c0 .4 0 .6-1 .6h-.4v.5h4.1v-.5h-.4c-1 0-1-.2-1-.6V123h1.4Zm-2.6-.5H325l3.7-5v5ZM350 116c.3 0 .7 0 .7-.4s-.4-.4-.7-.4h-11.8c-.2 0-.6 0-.6.4s.4.4.7.4H350Zm0 3.8c.3 0 .7 0 .7-.4s-.4-.4-.7-.4h-11.7c-.3 0-.7 0-.7.4s.4.4.6.4H350m11.4-9.9c0-.5 0-.5-.5-.5-1.2 1.2-3 1.2-3.6 1.2v.7c.4 0 1.6 0 2.6-.6V121c0 .7 0 1-1.8 1h-.6v.6h6.3v-.6h-.6c-1.8 0-1.8-.3-1.8-1v-11m13 6.3c0-1.6 0-3.2-.8-4.6a3.6 3.6 0 0 0-3.3-2.2c-1.2 0-2.6.5-3.4 2.3-.7 1.4-.8 3-.8 4.5s.1 3.2 1 4.7c.8 1.6 2.2 2 3.2 2s2.5-.4 3.4-2.3c.6-1.3.7-2.9.7-4.4Zm-1.8 3.8c-.3 1.9-1.5 2.5-2.3 2.5-.8 0-2-.5-2.3-2.4-.2-1.2-.2-3-.2-4.2l.1-3.6c.4-2.3 1.9-2.5 2.4-2.5.6 0 2 .4 2.3 2.3.2 1.1.2 2.6.2 3.9 0 1.4 0 2.8-.2 4Z"/>
</svg>
