<svg xmlns="http://www.w3.org/2000/svg" id="_Слой_1" data-name="Слой 1" viewBox="0 0 547.3 328.1" width="800">
  <defs>
    <style>
      .cls-1{font-family:ArialMT,Arial;font-size:18px;isolation:isolate;fill:#616161}.cls-5{fill:none;stroke:rgba(97,97,97,.8);stroke-linecap:round;stroke-linejoin:round;stroke-width:2.5px}
    </style>
  </defs>
  <text class="cls-1" transform="translate(426.3 187.4)"><tspan x="0" y="0">3</tspan></text>
  <path d="M452 164.7 430.5 213" class="cls-5"/>
  <text class="cls-1" transform="translate(392.3 226.4)"><tspan x="0" y="0">1</tspan></text>
  <path d="m430.5 213.1-56.8 42" class="cls-5"/>
  <text class="cls-1" transform="translate(439.3 255.4)"><tspan x="0" y="0">5</tspan></text>
  <path d="m430.5 213.1 2.8 59.7" class="cls-5"/>
  <text class="cls-1" transform="translate(476.3 225.4)"><tspan x="0" y="0">8</tspan></text>
  <path d="m430.5 213.1 83 34.5" class="cls-5"/>
  <text class="cls-1" transform="translate(331.3 248.4)"><tspan x="0" y="0">7</tspan></text>
  <path d="m373.7 255-69.9 5.7" class="cls-5"/>
  <text class="cls-1" transform="translate(279.3 204.4)"><tspan x="0" y="0">4</tspan></text>
  <path d="M303.8 260.7 248 175.9" class="cls-5"/>
  <text class="cls-1" transform="translate(227.3 228.4)"><tspan x="0" y="0">6</tspan></text>
  <path d="m303.8 260.7-97.8-29" class="cls-5"/>
  <text class="cls-1" transform="translate(215.3 284.4)"><tspan x="0" y="0">9</tspan></text>
  <path d="m303.8 260.7-103.4 40" class="cls-5"/>
  <text class="cls-1" transform="translate(258.3 135.4)"><tspan x="0" y="0">9</tspan></text>
  <path d="m247.9 175.9 2.8-73.6" class="cls-5"/>
  <text class="cls-1" transform="translate(235.3 69.4)"><tspan x="0" y="0">2</tspan></text>
  <path d="m250.7 102.3-41-43.8" class="cls-5"/>
  <text class="cls-1" transform="translate(284.3 91.4)"><tspan x="0" y="0">8</tspan></text>
  <path d="m250.7 102.3 46.6-44.8" class="cls-5"/>
  <text class="cls-1" transform="translate(176.3 34.4)"><tspan x="0" y="0">6</tspan></text>
  <path d="m209.7 58.5-59.6-26.1" class="cls-5"/>
  <text class="cls-1" transform="translate(98.3 42.4)"><tspan x="0" y="0">5</tspan></text>
  <path d="m150 32.4-66 26" class="cls-5"/>
  <text class="cls-1" transform="translate(31.3 88.4)"><tspan x="0" y="0">8</tspan></text>
  <path d="m83.9 58.5-57.8 52.1" class="cls-5"/>
  <path fill="purple" d="M459 164.7a7 7 0 1 1-14 0 7 7 0 0 1 14 0Z"/>
  <path fill="#616161" d="M437.5 213.1a7 7 0 1 1-14 0 7 7 0 0 1 14 0ZM380.7 255a7 7 0 1 1-14 0 7 7 0 0 1 14 0Zm59.6 17.8a7 7 0 1 1-14 0 7 7 0 0 1 14 0Zm80.2-25.2a7 7 0 1 1-14 0 7 7 0 0 1 14 0Zm-209.7 13.1a7 7 0 1 1-14 0 7 7 0 0 1 14 0Zm-55.9-84.8a7 7 0 1 1-14 0 7 7 0 0 1 14 0ZM213 231.8a7 7 0 1 1-14 0 7 7 0 0 1 14 0Zm-5.6 68.9a7 7 0 1 1-14 0 7 7 0 0 1 14 0Zm50.3-198.4a7 7 0 1 1-14 0 7 7 0 0 1 14 0Zm-41-43.8a7 7 0 1 1-14 0 7 7 0 0 1 14 0Zm87.6-1a7 7 0 1 1-14 0 7 7 0 0 1 14 0ZM157 32.4a7 7 0 1 1-14 0 7 7 0 0 1 14 0ZM90.9 58.5a7 7 0 1 1-14 0 7 7 0 0 1 14 0Z"/>
  <path fill="#69f" d="M33.1 110.6a7 7 0 1 1-14 0 7 7 0 0 1 14 0Z"/>
</svg>
