<svg xmlns="http://www.w3.org/2000/svg" viewBox="0 0 500 500" width="800">
  <path fill="#951b81" d="M0 0h96v96H0zm101 0h96v96h-96zm101 0h96v96h-96zm101 0h96v96h-96zm101 0h96v96h-96z"/>
  <path fill="#1d71b8" d="M0 101h96v96H0zm101 0h96v96h-96zm101 0h96v96h-96zm101 0h96v96h-96z"/>
  <path fill="#951b81" d="M404 101h96v96h-96z"/>
  <path fill="#009640" d="M0 202h96v96H0zm101 0h96v96h-96zm101 0h96v96h-96z"/>
  <path fill="#1d71b8" d="M303 202h96v96h-96z"/>
  <path fill="#951b81" d="M404 202h96v96h-96z"/>
  <path fill="#f39200" d="M0 303h96v96H0zm101 0h96v96h-96z"/>
  <path fill="#009640" d="M202 303h96v96h-96z"/>
  <path fill="#1d71b8" d="M303 303h96v96h-96z"/>
  <path fill="#951b81" d="M404 303h96v96h-96z"/>
  <path fill="#e6332a" d="M0 404h96v96H0z"/>
  <path fill="#f39200" d="M101 404h96v96h-96z"/>
  <path fill="#009640" d="M202 404h96v96h-96z"/>
  <path fill="#1d71b8" d="M303 404h96v96h-96z"/>
  <path fill="#951b81" d="M404 404h96v96h-96z"/>
  <path fill="#fff" d="m59.7 468.2-.1 1.4-.3.9c0 .2-.2.4-.4.4l-.4.2h-21l-.4-.2-.4-.4-.2-1v-2.8l.2-.9.4-.5.4-.2h7.1v-24.6l-6 3.3c-.5.3-.9.4-1.2.4-.3.1-.5 0-.7-.1l-.3-.9v-2.9l.1-.8c0-.2.2-.4.3-.5l.6-.4 8.1-5.3.4-.2.6-.1h2.4a29.4 29.4 0 0 1 2.8.1c.2 0 .4.2.5.3V465h6.3l.4.2.4.5.3 1v1.4Zm102-109.3c0 1.8-.4 3.5-1.1 5-.7 1.5-1.7 2.7-3 3.7s-2.9 1.7-4.7 2.3a21.1 21.1 0 0 1-9.5.5 23.1 23.1 0 0 1-5.1-1.6c-.6-.3-1-.5-1.1-.7l-.4-.5-.3-.7-.1-1v-1.4c0-1 0-1.6.2-2 .1-.3.4-.5.7-.5l1 .4a18.4 18.4 0 0 0 7.8 2c1 0 2 0 2.9-.3s1.5-.6 2-1c.6-.5 1-1 1.3-1.7a5.4 5.4 0 0 0 0-4.6c-.4-.7-.9-1.3-1.6-1.8s-1.5-.9-2.5-1.2-2.3-.4-3.6-.4h-4c-.2 0-.3-.3-.4-.5l-.3-.9a11.9 11.9 0 0 1 .3-3.7c0-.2.2-.3.4-.4l.6-.1h3.3c1.1 0 2.1-.1 3-.4s1.6-.6 2.2-1.1c.6-.5 1-1.1 1.4-1.8a5.6 5.6 0 0 0 .1-4.1 4.1 4.1 0 0 0-2.5-2.5 6 6 0 0 0-2.4-.4c-1 0-2 .2-2.9.5a17.1 17.1 0 0 0-4.2 2l-1 .4h-.5l-.3-.5-.2-.8v-2.7l.1-.8.2-.5.5-.6a13.8 13.8 0 0 1 3.5-2 20 20 0 0 1 12-.5c1.3.4 2.5 1 3.5 1.9s1.7 1.8 2.2 3 .7 2.5.7 4c0 1.1-.1 2.2-.4 3.2s-.7 1.9-1.3 2.7c-.6.7-1.3 1.4-2.1 2s-1.8 1-3 1.2c1.4.2 2.6.6 3.6 1s2 1.2 2.7 2 1.3 1.7 1.7 2.7c.4 1 .6 2 .6 3.2Zm100.7-102.6c0 2-.3 3.9-1 5.5s-1.8 3-3 4-3 2-4.8 2.6-3.8.9-6 .9a23.7 23.7 0 0 1-8.3-1.5l-1-.5-.4-.5-.2-.6-.1-1a25 25 0 0 1 0-2.7l.2-.9.3-.5.4-.1c.2 0 .5 0 1 .3a19 19 0 0 0 3.9 1.5 14.9 14.9 0 0 0 6.5 0 6 6 0 0 0 2.3-1.1c.7-.6 1.2-1.2 1.5-2 .4-.8.5-1.7.5-2.8 0-1-.1-1.8-.4-2.5s-.7-1.4-1.4-1.9c-.6-.5-1.4-.9-2.4-1.1a24.3 24.3 0 0 0-6.7-.2l-2.6.2c-.6 0-1-.2-1.3-.4-.2-.3-.3-.9-.3-1.6v-16.5c0-.8.1-1.3.4-1.7.3-.3.8-.5 1.5-.5h18l.4.2.4.6.2 1a13 13 0 0 1-.2 4c-.2.6-.5.8-.9.8h-13.5v8.2a23.3 23.3 0 0 1 4.2-.2c2 0 3.9.2 5.5.7 1.6.5 2.9 1.2 4 2.1 1 1 1.9 2 2.5 3.5s.8 3 .8 4.8Zm101.4-123.1a15.8 15.8 0 0 1-.2 2.7l-.3 1-.4 1-12.5 29a2 2 0 0 1-.4.6l-.8.3-1.3.2h-4.4c-.6-.1-1-.2-1.3-.4s-.4-.3-.4-.5 0-.5.2-.9l13.4-29.5h-16c-.4 0-.7-.3-.9-.9a10.8 10.8 0 0 1-.2-4c0-.4.1-.8.3-1 0-.3.2-.5.3-.7s.4-.1.5-.1H363l.5.5c.1.2.3.6.3 1l.1 1.7ZM465 46.3a53 53 0 0 1-1 9.6c-.5 1.6-1 3.1-1.9 4.5a13.4 13.4 0 0 1-7.4 6.3 18.5 18.5 0 0 1-8.7.7 20.4 20.4 0 0 1-4-1c-.5-.1-.8-.4-1-.6l-.5-.8a21.7 21.7 0 0 1 0-4.1l.4-.5h.4l1 .1 1.6.5a15.6 15.6 0 0 0 4.7.7 8 8 0 0 0 7-3.3c.6-1 1.1-2.1 1.5-3.4.3-1.3.5-2.7.5-4.1a14.7 14.7 0 0 1-12.7 1.3 8.4 8.4 0 0 1-5.4-6 18 18 0 0 1 .3-10 11.3 11.3 0 0 1 6.7-6.8 16 16 0 0 1 5.7-1c1.8 0 3.3.2 4.6.6s2.5 1 3.4 1.8 1.8 1.6 2.4 2.7 1.1 2.3 1.5 3.7a49.9 49.9 0 0 1 1 9.1Zm-7.6-1c0-2.2 0-4-.3-5.3s-.6-2.5-1-3.4c-.5-.8-1.1-1.4-1.8-1.8s-1.6-.5-2.5-.5-1.7.2-2.4.5-1.2.8-1.6 1.3-.8 1.3-1 2.1a11.8 11.8 0 0 0 0 5.4c.1.8.4 1.4.8 2 .4.5 1 .9 1.6 1.1.6.3 1.4.4 2.3.4a10 10 0 0 0 6-1.9Z"/>
</svg>
