<?xml version="1.0" encoding="UTF-8"?><svg width="800" xmlns="http://www.w3.org/2000/svg" viewBox="0 0 410 410"><rect x="208.98" y="17.88" width="183.46" height="183.38" style="fill:#f39200; isolation:isolate; opacity:.65;"/><rect x="304.49" y="304.17" width="87.95" height="87.95" style="fill:#e30613; isolation:isolate; opacity:.65;"/><rect x="17.96" y="17.88" width="87.95" height="278.82" style="fill:#008d36; isolation:isolate; opacity:.65;"/><path d="m400,304.18V10H10v390h390v-95.82Zm-294.09,87.95H17.96v-87.95h87.95v87.95Zm0-95.43H17.96v-87.94h87.95v87.94Zm0-95.43H17.96v-87.95h87.95v87.95Zm0-95.44h0s-87.95,0-87.95,0V17.88h87.95v87.95Zm95.51,286.3h-87.95v-87.95h87.95v87.95Zm0-95.43h-87.95v-87.94h87.95v87.94Zm0-95.43h-87.95v-87.95h87.95v87.95Zm0-95.44h0s-87.95,0-87.95,0V17.88h87.95v87.95Zm95.51,286.3h-87.95v-87.95h87.95v87.95Zm0-95.43h-87.95v-87.94h87.95v87.94Zm0-95.43h-87.95v-87.95h87.95v87.95Zm0-95.44h0s-87.95,0-87.95,0V17.88h87.95v87.95Zm95.51,286.3h-87.95v-87.95h87.95v87.95Zm0-95.43h-87.95v-87.94h87.95v87.94Zm0-95.43h-87.95v-87.95h87.95v87.95Zm0-95.44h0s-87.95,0-87.95,0V17.88h87.95v87.95Z" style="fill:#878787;"/></svg>