<?xml version="1.0" encoding="UTF-8"?><svg width="800" xmlns="http://www.w3.org/2000/svg" viewBox="0 0 420 410"><path d="m405,304.18V10H15v390h390v-95.82Zm-294.09,87.95H22.96v-87.95h87.95s0,87.95,0,87.95Zm0-95.43H22.96v-87.94h87.95s0,87.94,0,87.94Zm0-95.43H22.96v-87.95h87.95s0,87.95,0,87.95Zm0-95.44H22.96V17.88h87.95v87.95h0Zm95.51,286.3h-87.95v-87.95h87.95v87.95Zm0-95.43h-87.95v-87.94h87.95v87.94Zm0-95.43h-87.95v-87.95h87.95v87.95Zm0-95.44h-87.95V17.88h87.95v87.95h0Zm95.51,286.3h-87.95v-87.95h87.95v87.95Zm0-95.43h-87.95v-87.94h87.95v87.94Zm0-95.43h-87.95v-87.95h87.95v87.95Zm0-95.44h-87.95V17.88h87.95v87.95h0Zm95.51,286.3h-87.95v-87.95h87.95v87.95h0Zm0-95.43h-87.95v-87.94h87.95v87.94h0Zm0-95.43h-87.95v-87.95h87.95v87.95h0Zm0-95.44h-87.95V17.88h87.95v87.95h0Z" style="fill:#878787;"/><line x1="305.49" y1="17.88" x2="305.49" y2="282.65" style="fill:none; stroke:#1f97ff; stroke-miterlimit:10; stroke-width:10px;"/><polygon points="290.53 278.28 305.49 304.18 320.45 278.28 290.53 278.28" style="fill:#1f97ff;"/><line x1="209.99" y1="296.71" x2="211.87" y2="291.01" style="fill:none; stroke:#1fc100; stroke-miterlimit:10; stroke-width:10px;"/><line x1="215.75" y1="279.25" x2="291.35" y2="49.91" style="fill:none; stroke:#1fc100; stroke-dasharray:0 0 12.38 12.38; stroke-miterlimit:10; stroke-width:10px;"/><line x1="293.29" y1="44.03" x2="295.16" y2="38.33" style="fill:none; stroke:#1fc100; stroke-miterlimit:10; stroke-width:10px;"/><polygon points="308 47.17 301.9 17.89 279.59 37.8 308 47.17" style="fill:#1fc100;"/><line x1="210" y1="17.88" x2="210" y2="282.65" style="fill:none; stroke:#1f97ff; stroke-miterlimit:10; stroke-width:10px;"/><polygon points="195.04 278.28 210 304.18 224.96 278.28 195.04 278.28" style="fill:#1f97ff;"/><line x1="114.5" y1="296.71" x2="116.38" y2="291.01" style="fill:none; stroke:#1fc100; stroke-miterlimit:10; stroke-width:10px;"/><line x1="120.26" y1="279.25" x2="195.85" y2="49.91" style="fill:none; stroke:#1fc100; stroke-dasharray:0 0 12.38 12.38; stroke-miterlimit:10; stroke-width:10px;"/><line x1="197.79" y1="44.03" x2="199.67" y2="38.33" style="fill:none; stroke:#1fc100; stroke-miterlimit:10; stroke-width:10px;"/><polygon points="212.51 47.17 206.41 17.89 184.09 37.8 212.51 47.17" style="fill:#1fc100;"/><line x1="114.45" y1="17.88" x2="114.45" y2="282.65" style="fill:none; stroke:#1f97ff; stroke-miterlimit:10; stroke-width:10px;"/><polygon points="99.49 278.27 114.45 304.18 129.4 278.27 99.49 278.27" style="fill:#1f97ff;"/><line x1="19" y1="296.7" x2="20.88" y2="291" style="fill:none; stroke:#1fc100; stroke-miterlimit:10; stroke-width:10px;"/><line x1="24.76" y1="279.24" x2="100.35" y2="49.9" style="fill:none; stroke:#1fc100; stroke-dasharray:0 0 12.38 12.38; stroke-miterlimit:10; stroke-width:10px;"/><line x1="102.29" y1="44.02" x2="104.17" y2="38.33" style="fill:none; stroke:#1fc100; stroke-miterlimit:10; stroke-width:10px;"/><polygon points="117.01 47.17 110.91 17.88 88.59 37.8 117.01 47.17" style="fill:#1fc100;"/><line x1="19" y1="17.88" x2="19" y2="282.65" style="fill:none; stroke:#1f97ff; stroke-miterlimit:10; stroke-width:10px;"/><polygon points="4.04 278.28 19 304.18 33.96 278.28 4.04 278.28" style="fill:#1f97ff;"/></svg>