<?xml version="1.0" encoding="UTF-8"?><svg id="a" xmlns="http://www.w3.org/2000/svg" viewBox="0 0 520 520"><rect x="20" y="20" width="153.6" height="153.6" style="fill:#39b54a; opacity:.6;"/><rect x="183.2" y="183.2" width="316.8" height="316.8" style="fill:#29abe2; opacity:.6;"/><path d="m10,10v500h500V10H10Zm163.6,490H20v-153.6h153.6v153.6Zm0-163.2H20v-153.6h153.6v153.6Zm0-163.2H20V20h153.6v153.6h0Zm163.2,326.4h-153.6v-153.6h153.6v153.6Zm0-163.2h-153.6v-153.6h153.6v153.6Zm0-163.2h-153.6V20h153.6v153.6h0Zm163.2,326.4h-153.6v-153.6h153.6v153.6Zm0-163.2h-153.6v-153.6h153.6v153.6Zm0-163.2h-153.6V20h153.6v153.6h0Z" style="fill:#878787;"/></svg>