<svg version="1.1" xmlns="http://www.w3.org/2000/svg" xmlns:xlink="http://www.w3.org/1999/xlink" width="1468" height="802"><defs><clipPath id="IiuBxvxGTzeo"><path fill="none" stroke="none" d=" M 0 0 L 1468 0 L 1468 802 L 0 802 L 0 0 Z"/></clipPath></defs><g transform="scale(1,1)" clip-path="url(#IiuBxvxGTzeo)"><g><rect fill="rgb(255,255,255)" stroke="none" x="0" y="0" width="1468" height="802" fill-opacity="1"/><path fill="rgb(0,0,0)" stroke="none" paint-order="stroke fill markers" d=" M 747.3352612880399 200.8296935534293 L 747.3352612880399 207.3296935534293 L 594.9802290398643 207.3296935534293 C 593.1853036029142 207.3296935534293 591.7302290398643 208.78476811647923 591.7302290398643 210.5796935534293 C 591.7302290398643 212.3746189903794 593.1853036029142 213.8296935534293 594.9802290398643 213.8296935534293 L 747.3352612880399 213.8296935534293 L 747.3352612880399 220.3296935534293 L 786.3352612880399 210.5796935534293 L 747.3352612880399 200.8296935534293 Z" fill-opacity="0.6980392156862745"/><text fill="rgb(0,0,0)" stroke="none" font-family="geogebra-sans-serif, sans-serif" font-size="16px" font-style="normal" font-weight="normal" text-decoration="normal" x="678" y="183" text-anchor="start" dominant-baseline="alphabetic" fill-opacity="1">u</text><text fill="none" stroke="rgb(255,255,255)" font-family="geogebra-sans-serif, sans-serif" font-size="16px" font-style="normal" font-weight="normal" text-decoration="normal" x="678" y="183" text-anchor="start" dominant-baseline="alphabetic" stroke-opacity="1" stroke-linejoin="bevel" stroke-miterlimit="10" stroke-width="3">u</text><text fill="rgb(0,0,0)" stroke="none" font-family="geogebra-sans-serif, sans-serif" font-size="16px" font-style="normal" font-weight="normal" text-decoration="normal" x="678" y="183" text-anchor="start" dominant-baseline="alphabetic" fill-opacity="1">u</text><path fill="rgb(0,0,0)" stroke="none" paint-order="stroke fill markers" d=" M 280.54066166034215 341.36364280365717 L 241.54066166034215 351.11364280365717 L 280.54066166034215 360.86364280365717 L 280.54066166034215 354.36364280365717 L 369.11068315912564 354.36364280365717 C 370.9056085960757 354.36364280365717 372.36068315912564 352.9085682406072 372.36068315912564 351.11364280365717 C 372.36068315912564 349.3187173667071 370.9056085960757 347.86364280365717 369.11068315912564 347.86364280365717 L 280.54066166034215 347.86364280365717 L 280.54066166034215 341.36364280365717 Z" fill-opacity="0.6980392156862745"/><text fill="rgb(0,0,0)" stroke="none" font-family="geogebra-sans-serif, sans-serif" font-size="16px" font-style="normal" font-weight="normal" text-decoration="normal" x="304" y="340" text-anchor="start" dominant-baseline="alphabetic" fill-opacity="1">v</text><text fill="none" stroke="rgb(255,255,255)" font-family="geogebra-sans-serif, sans-serif" font-size="16px" font-style="normal" font-weight="normal" text-decoration="normal" x="304" y="340" text-anchor="start" dominant-baseline="alphabetic" stroke-opacity="1" stroke-linejoin="bevel" stroke-miterlimit="10" stroke-width="3">v</text><text fill="rgb(0,0,0)" stroke="none" font-family="geogebra-sans-serif, sans-serif" font-size="16px" font-style="normal" font-weight="normal" text-decoration="normal" x="304" y="340" text-anchor="start" dominant-baseline="alphabetic" fill-opacity="1">v</text><path fill="rgb(0,0,0)" stroke="none" paint-order="stroke fill markers" d=" M 913.9661297440337 157.79033058263883 L 904.6116601465259 196.88708746283675 L 911.1113267001847 196.82124909067335 L 913.2053809495744 403.5495432308806 C 913.223448125854 405.3331629882527 914.6749917120543 406.7666275692816 916.4545309536362 406.7666275692816 C 916.4657189003846 406.7666275692816 916.4769198115721 406.76657090979836 916.4881334124855 406.76645732162825 C 918.2829667707709 406.7482765571785 919.7232282676829 405.2785382170027 919.7050475032331 403.4837048587172 L 917.6109932538434 196.75541071850995 L 924.1106598075022 196.68957234634655 L 913.9661297440337 157.79033058263883 Z" fill-opacity="0.6980392156862745"/><text fill="rgb(0,0,0)" stroke="none" font-family="geogebra-sans-serif, sans-serif" font-size="16px" font-style="normal" font-weight="normal" text-decoration="normal" x="880" y="283" text-anchor="start" dominant-baseline="alphabetic" fill-opacity="1">w</text><text fill="none" stroke="rgb(255,255,255)" font-family="geogebra-sans-serif, sans-serif" font-size="16px" font-style="normal" font-weight="normal" text-decoration="normal" x="880" y="283" text-anchor="start" dominant-baseline="alphabetic" stroke-opacity="1" stroke-linejoin="bevel" stroke-miterlimit="10" stroke-width="3">w</text><text fill="rgb(0,0,0)" stroke="none" font-family="geogebra-sans-serif, sans-serif" font-size="16px" font-style="normal" font-weight="normal" text-decoration="normal" x="880" y="283" text-anchor="start" dominant-baseline="alphabetic" fill-opacity="1">w</text><path fill="rgb(0,0,0)" stroke="none" paint-order="stroke fill markers" d=" M 821.2690655786164 559.5083448716879 L 783.6828109413697 573.7679368133967 L 787.3935804474121 579.1046202097606 L 787.393580447412 579.1046202097606 L 618.357340502617 696.6410146360432 C 616.8836560753736 697.6657153402055 616.5196828532941 699.6910566600029 617.5443835574563 701.1647410872464 C 618.1758655007367 702.0729136903468 619.1873669867056 702.5596443310549 620.2155869539483 702.5596443310549 C 620.8558513126295 702.5596443310549 621.5025981845164 702.370916793289 622.0681100086595 701.9776980324071 L 791.1043499534545 584.4413036061244 L 794.8151194594969 589.7779870024882 L 821.2690655786164 559.5083448716879 Z" fill-opacity="0.6980392156862745"/><text fill="rgb(0,0,0)" stroke="none" font-family="geogebra-sans-serif, sans-serif" font-size="16px" font-style="normal" font-weight="normal" text-decoration="normal" x="716" y="649" text-anchor="start" dominant-baseline="alphabetic" fill-opacity="1">a</text><text fill="none" stroke="rgb(255,255,255)" font-family="geogebra-sans-serif, sans-serif" font-size="16px" font-style="normal" font-weight="normal" text-decoration="normal" x="716" y="649" text-anchor="start" dominant-baseline="alphabetic" stroke-opacity="1" stroke-linejoin="bevel" stroke-miterlimit="10" stroke-width="3">a</text><text fill="rgb(0,0,0)" stroke="none" font-family="geogebra-sans-serif, sans-serif" font-size="16px" font-style="normal" font-weight="normal" text-decoration="normal" x="716" y="649" text-anchor="start" dominant-baseline="alphabetic" fill-opacity="1">a</text><path fill="rgb(0,0,0)" stroke="none" paint-order="stroke fill markers" d=" M 368.7490612298687 208.26083759234265 L 389.4319345795753 242.73229317518678 L 394.0281286572878 238.1360990974742 L 547.7532427406763 391.8612131808622 C 548.3878447147722 392.49581515495805 549.2195922471525 392.8131161420059 550.0513397795328 392.8131161420059 C 550.883087311913 392.8131161420059 551.7148348442933 392.49581515495805 552.349436818389 391.86121318086225 C 553.6186407665806 390.59200923267065 553.6186407665806 388.5342230513413 552.349436818389 387.26501910314965 L 398.62432273500036 233.53990501976165 L 403.2205168127129 228.94371094204905 L 368.74906122986874 208.26083759234265 Z" fill-opacity="0.6980392156862745"/><text fill="rgb(0,0,0)" stroke="none" font-family="geogebra-sans-serif, sans-serif" font-size="16px" font-style="normal" font-weight="normal" text-decoration="normal" x="441" y="318" text-anchor="start" dominant-baseline="alphabetic" fill-opacity="1">b</text><text fill="none" stroke="rgb(255,255,255)" font-family="geogebra-sans-serif, sans-serif" font-size="16px" font-style="normal" font-weight="normal" text-decoration="normal" x="441" y="318" text-anchor="start" dominant-baseline="alphabetic" stroke-opacity="1" stroke-linejoin="bevel" stroke-miterlimit="10" stroke-width="3">b</text><text fill="rgb(0,0,0)" stroke="none" font-family="geogebra-sans-serif, sans-serif" font-size="16px" font-style="normal" font-weight="normal" text-decoration="normal" x="441" y="318" text-anchor="start" dominant-baseline="alphabetic" fill-opacity="1">b</text><path fill="rgb(0,0,0)" stroke="none" paint-order="stroke fill markers" d=" M 158.77045064083345 474.7152555599823 C 158.08176083242876 474.7152555599824 157.5224909463128 475.27256012805753 157.52053237794166 475.9617031404536 C 157.5185703703196 476.65205628970085 158.07662165144114 477.2132886136943 158.7669748006884 477.2152506213164 L 1236.6910921908282 480.27874839291763 L 1236.682566121089 483.2787362772489 L 1253.6945760644303 479.0770678363019 L 1236.7067233186833 474.77877060497684 L 1236.698197248944 477.778758489308 L 1236.698197248904 477.778758489308 L 158.77407985880444 474.7152607177069 C 158.77286972195324 474.7152572784559 158.77165998185728 474.7152555599823 158.77045064083345 474.7152555599823 Z" fill-opacity="0.6980392156862745"/><path fill="rgb(0,0,0)" stroke="none" paint-order="stroke fill markers" d=" M 169.56474684118422 386.1330878378169 L 169.55042326154654 388.63304680449346 L 180.05025092158797 388.6932058389716 L 180.06457450122565 386.19324687229505 L 169.56474684118422 386.1330878378169 Z M 188.06444319459052 386.2390823271355 L 188.05011961495285 388.7390412938121 L 198.54994727499428 388.7992003282902 L 198.56427085463196 386.29924136161367 L 188.06444319459052 386.2390823271355 Z M 206.56413954799683 386.34507681645414 L 206.54981596835916 388.8450357831307 L 217.04964362840053 388.90519481760884 L 217.0639672080382 386.4052358509323 L 206.56413954799683 386.34507681645414 Z M 225.06383590140314 386.45107130577276 L 225.04951232176546 388.9510302724493 L 235.54933998180684 389.01118930692746 L 235.5636635614445 386.5112303402509 L 225.06383590140314 386.45107130577276 Z M 243.5635322548094 386.55706579509143 L 243.5492086751717 389.057024761768 L 254.04903633521315 389.11718379624614 L 254.06335991485082 386.6172248295696 L 243.5635322548094 386.55706579509143 Z M 262.0632286082157 386.66306028441005 L 262.048905028578 389.1630192510866 L 272.5487326886194 389.22317828556476 L 272.56305626825707 386.7232193188882 L 262.0632286082157 386.66306028441005 Z M 280.56292496162195 386.76905477372867 L 280.54860138198427 389.2690137404052 L 291.04842904202576 389.3291727748834 L 291.06275262166344 386.8292138082068 L 280.56292496162195 386.76905477372867 Z M 299.0626213150283 386.8750492630473 L 299.04829773539063 389.37500822972385 L 309.548125395432 389.435167264202 L 309.5624489750697 386.93520829752543 L 299.0626213150283 386.8750492630473 Z M 317.5623176684346 386.98104375236596 L 317.54799408879694 389.4810027190425 L 328.0478217488383 389.5411617535206 L 328.062145328476 387.04120278684405 L 317.5623176684346 386.98104375236596 Z M 336.06201402184087 387.0870382416846 L 336.0476904422032 389.58699720836114 L 346.5475181022446 389.6471562428393 L 346.5618416818823 387.14719727616273 L 336.06201402184087 387.0870382416846 Z M 354.5617103752472 387.1930327310032 L 354.5473867956095 389.69299169767976 L 365.0472144556509 389.7531507321579 L 365.06153803528855 387.25319176548135 L 354.5617103752472 387.1930327310032 Z M 373.0614067286534 387.2990272203218 L 373.04708314901575 389.7989861869984 L 383.5469108090572 389.8591452214765 L 383.56123438869486 387.35918625479997 L 373.0614067286534 387.2990272203218 Z M 391.56110308205973 387.40502170964044 L 391.54677950242205 389.904980676317 L 402.0466071624635 389.96513971079514 L 402.06093074210116 387.4651807441186 L 391.56110308205973 387.40502170964044 Z M 410.06079943546604 387.5110161989591 L 410.04647585582836 390.01097516563567 L 420.5463035158698 390.0711342001138 L 420.56062709550747 387.57117523343726 L 410.06079943546604 387.5110161989591 Z M 428.56049578887234 387.61701068827773 L 428.54617220923467 390.1169696549543 L 439.0459998692761 390.17712868943244 L 439.0603234489138 387.6771697227559 L 428.56049578887234 387.61701068827773 Z M 447.06019214227865 387.72300517759635 L 447.045868562641 390.2229641442729 L 457.54569622268235 390.28312317875105 L 457.56001980232 387.7831642120745 L 447.06019214227865 387.72300517759635 Z M 465.5598884956849 387.82899966691497 L 465.5455649160472 390.3289586335915 L 476.04539257608866 390.3891176680697 L 476.05971615572633 387.8891587013931 L 465.5598884956849 387.82899966691497 Z M 484.0595848490912 387.9349941562336 L 484.04526126945353 390.43495312291014 L 494.54508892949497 390.4951121573883 L 494.55941250913264 387.99515319071173 L 484.0595848490912 387.9349941562336 Z M 502.5592812024975 388.04098864555226 L 502.54495762285984 390.5409476122288 L 513.0447852829012 390.60110664670697 L 513.0591088625389 388.1011476800304 L 502.5592812024975 388.04098864555226 Z M 521.0589775559038 388.1469831348709 L 521.0446539762661 390.64694210154744 L 531.5444816363075 390.7071011360256 L 531.5588052159452 388.207142169349 L 521.0589775559038 388.1469831348709 Z M 539.5586739093101 388.2529776241895 L 539.5443503296724 390.75293659086606 L 550.0441779897138 390.8130956253442 L 550.0585015693515 388.31313665866764 L 539.5586739093101 388.2529776241895 Z M 169.4276053649932 383.13225284138133 L 152.40353430620883 387.28478274319536 L 169.37890519422518 391.6321133280815 L 169.4276053649932 383.13225284138133 Z" fill-opacity="0.6980392156862745"/><path fill="rgb(0,0,0)" stroke="none" paint-order="stroke fill markers" d=" M 1000.703511747714 696.3812349839968 L 990.2036138663749 696.4275435301879 L 990.2146397107061 698.9275192162211 L 1000.7145375920452 698.88121067003 L 1000.703511747714 696.3812349839968 Z M 982.2036916710689 696.4628262320479 L 971.7037937897297 696.509134778239 L 971.714819634061 699.0091104642721 L 982.2147175154001 698.962801918081 L 982.2036916710689 696.4628262320479 Z M 963.7038715944237 696.5444174800989 L 953.2039737130846 696.59072602629 L 953.2149995574158 699.0907017123232 L 963.714897438755 699.0443931661321 L 963.7038715944237 696.5444174800989 Z M 945.2040515177786 696.6260087281499 L 934.7041536364395 696.672317274341 L 934.7151794807708 699.1722929603742 L 945.2150773621098 699.1259844141831 L 945.2040515177786 696.6260087281499 Z M 926.7042314411334 696.7075999762009 L 916.2043335597945 696.7539085223921 L 916.2153594041257 699.2538842084252 L 926.7152572854646 699.207575662234 L 926.7042314411334 696.7075999762009 Z M 908.2044113644885 696.7891912242519 L 897.7045134831493 696.8354997704431 L 897.7155393274805 699.3354754564763 L 908.2154372088197 699.2891669102851 L 908.2044113644885 696.7891912242519 Z M 889.7045912878433 696.870782472303 L 879.2046934065041 696.9170910184941 L 879.2157192508354 699.4170667045273 L 889.7156171321745 699.3707581583361 L 889.7045912878433 696.870782472303 Z M 871.2047712111981 696.952373720354 L 860.7048733298591 696.9986822665452 L 860.7158991741903 699.4986579525784 L 871.2157970555294 699.4523494063872 L 871.2047712111981 696.952373720354 Z M 852.7049511345531 697.033964968405 L 842.2050532532139 697.0802735145962 L 842.2160790975452 699.5802492006294 L 852.7159769788843 699.5339406544382 L 852.7049511345531 697.033964968405 Z M 834.2051310579079 697.1155562164561 L 823.7052331765689 697.1618647626473 L 823.7162590209001 699.6618404486804 L 834.2161569022392 699.6155319024892 L 834.2051310579079 697.1155562164561 Z M 815.7053109812629 697.1971474645071 L 805.2054130999237 697.2434560106983 L 805.216438944255 699.7434316967315 L 815.7163368255941 699.6971231505403 L 815.7053109812629 697.1971474645071 Z M 797.2054909046177 697.2787387125582 L 786.7055930232785 697.3250472587492 L 786.7166188676098 699.8250229447824 L 797.216516748949 699.7787143985913 L 797.2054909046177 697.2787387125582 Z M 778.7056708279727 697.3603299606092 L 768.2057729466335 697.4066385068003 L 768.2167987909647 699.9066141928334 L 778.7166966723039 699.8603056466424 L 778.7056708279727 697.3603299606092 Z M 760.2058507513275 697.4419212086602 L 749.7059528699884 697.4882297548513 L 749.7169787143197 699.9882054408845 L 760.2168765956587 699.9418968946934 L 760.2058507513275 697.4419212086602 Z M 741.7060306746824 697.5235124567113 L 731.2061327933433 697.5698210029024 L 731.2171586376745 700.0697966889355 L 741.7170565190137 700.0234881427444 L 741.7060306746824 697.5235124567113 Z M 723.2062105980373 697.6051037047623 L 712.7063127166982 697.6514122509534 L 712.7173385610295 700.1513879369866 L 723.2172364423685 700.1050793907955 L 723.2062105980373 697.6051037047623 Z M 704.7063905213922 697.6866949528134 L 694.206492640053 697.7330034990044 L 694.2175184843843 700.2329791850376 L 704.7174163657235 700.1866706388465 L 704.7063905213922 697.6866949528134 Z M 686.2065704447471 697.7682862008644 L 675.706672563408 697.8145947470555 L 675.7176984077392 700.3145704330886 L 686.2175962890783 700.2682618868976 L 686.2065704447471 697.7682862008644 Z M 667.706750368102 697.8498774489154 L 657.2068524867628 697.8961859951065 L 657.2178783310941 700.3961616811397 L 667.7177762124333 700.3498531349486 L 667.706750368102 697.8498774489154 Z M 649.2069302914568 697.9314686969665 L 638.7070324101178 697.9777772431576 L 638.718058254449 700.4777529291907 L 649.2179561357881 700.4314443829996 L 649.2069302914568 697.9314686969665 Z M 630.7071102148118 698.0130599450175 L 620.2072123334726 698.0593684912086 L 620.2182381778039 700.5593441772418 L 630.718136059143 700.5130356310507 L 630.7071102148118 698.0130599450175 Z M 1015.1629307659769 693.317434265451 L 1015.1761617791743 696.3174050886907 L 1008.70343394302 696.3459522821369 L 1008.7144597873512 698.84592796817 L 1015.1871876235056 698.8173807747239 L 1015.200418636703 701.8173515979637 L 1032.1815093663652 697.4924171902551 L 1015.1629307659769 693.317434265451 Z" fill-opacity="0.6980392156862745"/><path fill="rgb(21,101,192)" stroke="none" paint-order="stroke fill markers" d=" M 599.9802290398643 210.5796935534293 C 599.9802290398643 213.34111730258329 597.7416527890183 215.5796935534293 594.9802290398643 215.5796935534293 C 592.2188052907103 215.5796935534293 589.9802290398643 213.34111730258329 589.9802290398643 210.5796935534293 C 589.9802290398643 207.81826980427533 592.2188052907103 205.5796935534293 594.9802290398643 205.5796935534293 C 597.7416527890183 205.5796935534293 599.9802290398643 207.81826980427533 599.9802290398643 210.5796935534293 Z" fill-opacity="1"/><path fill="none" stroke="rgb(0,0,0)" paint-order="fill stroke markers" d=" M 599.9802290398643 210.5796935534293 C 599.9802290398643 213.34111730258329 597.7416527890183 215.5796935534293 594.9802290398643 215.5796935534293 C 592.2188052907103 215.5796935534293 589.9802290398643 213.34111730258329 589.9802290398643 210.5796935534293 C 589.9802290398643 207.81826980427533 592.2188052907103 205.5796935534293 594.9802290398643 205.5796935534293 C 597.7416527890183 205.5796935534293 599.9802290398643 207.81826980427533 599.9802290398643 210.5796935534293 Z" stroke-opacity="1" stroke-linecap="round" stroke-linejoin="round" stroke-miterlimit="10"/><text fill="rgb(21,101,192)" stroke="none" font-family="geogebra-sans-serif, sans-serif" font-size="16px" font-style="normal" font-weight="normal" text-decoration="normal" x="599" y="201" text-anchor="start" dominant-baseline="alphabetic" fill-opacity="1">A</text><text fill="none" stroke="rgb(255,255,255)" font-family="geogebra-sans-serif, sans-serif" font-size="16px" font-style="normal" font-weight="normal" text-decoration="normal" x="599" y="201" text-anchor="start" dominant-baseline="alphabetic" stroke-opacity="1" stroke-linejoin="bevel" stroke-miterlimit="10" stroke-width="3">A</text><text fill="rgb(21,101,192)" stroke="none" font-family="geogebra-sans-serif, sans-serif" font-size="16px" font-style="normal" font-weight="normal" text-decoration="normal" x="599" y="201" text-anchor="start" dominant-baseline="alphabetic" fill-opacity="1">A</text><path fill="rgb(21,101,192)" stroke="none" paint-order="stroke fill markers" d=" M 791.3352612880399 210.5796935534293 C 791.3352612880399 213.34111730258329 789.0966850371939 215.5796935534293 786.3352612880399 215.5796935534293 C 783.5738375388859 215.5796935534293 781.3352612880399 213.34111730258329 781.3352612880399 210.5796935534293 C 781.3352612880399 207.81826980427533 783.5738375388859 205.5796935534293 786.3352612880399 205.5796935534293 C 789.0966850371939 205.5796935534293 791.3352612880399 207.81826980427533 791.3352612880399 210.5796935534293 Z" fill-opacity="1"/><path fill="none" stroke="rgb(0,0,0)" paint-order="fill stroke markers" d=" M 791.3352612880399 210.5796935534293 C 791.3352612880399 213.34111730258329 789.0966850371939 215.5796935534293 786.3352612880399 215.5796935534293 C 783.5738375388859 215.5796935534293 781.3352612880399 213.34111730258329 781.3352612880399 210.5796935534293 C 781.3352612880399 207.81826980427533 783.5738375388859 205.5796935534293 786.3352612880399 205.5796935534293 C 789.0966850371939 205.5796935534293 791.3352612880399 207.81826980427533 791.3352612880399 210.5796935534293 Z" stroke-opacity="1" stroke-linecap="round" stroke-linejoin="round" stroke-miterlimit="10"/><text fill="rgb(21,101,192)" stroke="none" font-family="geogebra-sans-serif, sans-serif" font-size="16px" font-style="normal" font-weight="normal" text-decoration="normal" x="790" y="201" text-anchor="start" dominant-baseline="alphabetic" fill-opacity="1">B</text><text fill="none" stroke="rgb(255,255,255)" font-family="geogebra-sans-serif, sans-serif" font-size="16px" font-style="normal" font-weight="normal" text-decoration="normal" x="790" y="201" text-anchor="start" dominant-baseline="alphabetic" stroke-opacity="1" stroke-linejoin="bevel" stroke-miterlimit="10" stroke-width="3">B</text><text fill="rgb(21,101,192)" stroke="none" font-family="geogebra-sans-serif, sans-serif" font-size="16px" font-style="normal" font-weight="normal" text-decoration="normal" x="790" y="201" text-anchor="start" dominant-baseline="alphabetic" fill-opacity="1">B</text><path fill="rgb(21,101,192)" stroke="none" paint-order="stroke fill markers" d=" M 374.11068315912564 351.11364280365717 C 374.11068315912564 353.8750665528111 371.8721069082796 356.11364280365717 369.11068315912564 356.11364280365717 C 366.3492594099717 356.11364280365717 364.11068315912564 353.8750665528111 364.11068315912564 351.11364280365717 C 364.11068315912564 348.3522190545032 366.3492594099717 346.11364280365717 369.11068315912564 346.11364280365717 C 371.8721069082796 346.11364280365717 374.11068315912564 348.3522190545032 374.11068315912564 351.11364280365717 Z" fill-opacity="1"/><path fill="none" stroke="rgb(0,0,0)" paint-order="fill stroke markers" d=" M 374.11068315912564 351.11364280365717 C 374.11068315912564 353.8750665528111 371.8721069082796 356.11364280365717 369.11068315912564 356.11364280365717 C 366.3492594099717 356.11364280365717 364.11068315912564 353.8750665528111 364.11068315912564 351.11364280365717 C 364.11068315912564 348.3522190545032 366.3492594099717 346.11364280365717 369.11068315912564 346.11364280365717 C 371.8721069082796 346.11364280365717 374.11068315912564 348.3522190545032 374.11068315912564 351.11364280365717 Z" stroke-opacity="1" stroke-linecap="round" stroke-linejoin="round" stroke-miterlimit="10"/><text fill="rgb(21,101,192)" stroke="none" font-family="geogebra-sans-serif, sans-serif" font-size="16px" font-style="normal" font-weight="normal" text-decoration="normal" x="373" y="341" text-anchor="start" dominant-baseline="alphabetic" fill-opacity="1">C</text><text fill="none" stroke="rgb(255,255,255)" font-family="geogebra-sans-serif, sans-serif" font-size="16px" font-style="normal" font-weight="normal" text-decoration="normal" x="373" y="341" text-anchor="start" dominant-baseline="alphabetic" stroke-opacity="1" stroke-linejoin="bevel" stroke-miterlimit="10" stroke-width="3">C</text><text fill="rgb(21,101,192)" stroke="none" font-family="geogebra-sans-serif, sans-serif" font-size="16px" font-style="normal" font-weight="normal" text-decoration="normal" x="373" y="341" text-anchor="start" dominant-baseline="alphabetic" fill-opacity="1">C</text><path fill="rgb(21,101,192)" stroke="none" paint-order="stroke fill markers" d=" M 246.54066166034215 351.11364280365717 C 246.54066166034215 353.8750665528111 244.30208540949613 356.11364280365717 241.54066166034215 356.11364280365717 C 238.77923791118818 356.11364280365717 236.54066166034215 353.8750665528111 236.54066166034215 351.11364280365717 C 236.54066166034215 348.3522190545032 238.77923791118818 346.11364280365717 241.54066166034215 346.11364280365717 C 244.30208540949613 346.11364280365717 246.54066166034215 348.3522190545032 246.54066166034215 351.11364280365717 Z" fill-opacity="1"/><path fill="none" stroke="rgb(0,0,0)" paint-order="fill stroke markers" d=" M 246.54066166034215 351.11364280365717 C 246.54066166034215 353.8750665528111 244.30208540949613 356.11364280365717 241.54066166034215 356.11364280365717 C 238.77923791118818 356.11364280365717 236.54066166034215 353.8750665528111 236.54066166034215 351.11364280365717 C 236.54066166034215 348.3522190545032 238.77923791118818 346.11364280365717 241.54066166034215 346.11364280365717 C 244.30208540949613 346.11364280365717 246.54066166034215 348.3522190545032 246.54066166034215 351.11364280365717 Z" stroke-opacity="1" stroke-linecap="round" stroke-linejoin="round" stroke-miterlimit="10"/><text fill="rgb(21,101,192)" stroke="none" font-family="geogebra-sans-serif, sans-serif" font-size="16px" font-style="normal" font-weight="normal" text-decoration="normal" x="246" y="341" text-anchor="start" dominant-baseline="alphabetic" fill-opacity="1">D</text><text fill="none" stroke="rgb(255,255,255)" font-family="geogebra-sans-serif, sans-serif" font-size="16px" font-style="normal" font-weight="normal" text-decoration="normal" x="246" y="341" text-anchor="start" dominant-baseline="alphabetic" stroke-opacity="1" stroke-linejoin="bevel" stroke-miterlimit="10" stroke-width="3">D</text><text fill="rgb(21,101,192)" stroke="none" font-family="geogebra-sans-serif, sans-serif" font-size="16px" font-style="normal" font-weight="normal" text-decoration="normal" x="246" y="341" text-anchor="start" dominant-baseline="alphabetic" fill-opacity="1">D</text><path fill="rgb(21,101,192)" stroke="none" paint-order="stroke fill markers" d=" M 921.4552142264038 403.5166240447989 C 921.4552142264038 406.27804779395285 919.2166379755578 408.5166240447989 916.4552142264038 408.5166240447989 C 913.6937904772498 408.5166240447989 911.4552142264038 406.27804779395285 911.4552142264038 403.5166240447989 C 911.4552142264038 400.75520029564495 913.6937904772498 398.5166240447989 916.4552142264038 398.5166240447989 C 919.2166379755578 398.5166240447989 921.4552142264038 400.75520029564495 921.4552142264038 403.5166240447989 Z" fill-opacity="1"/><path fill="none" stroke="rgb(0,0,0)" paint-order="fill stroke markers" d=" M 921.4552142264038 403.5166240447989 C 921.4552142264038 406.27804779395285 919.2166379755578 408.5166240447989 916.4552142264038 408.5166240447989 C 913.6937904772498 408.5166240447989 911.4552142264038 406.27804779395285 911.4552142264038 403.5166240447989 C 911.4552142264038 400.75520029564495 913.6937904772498 398.5166240447989 916.4552142264038 398.5166240447989 C 919.2166379755578 398.5166240447989 921.4552142264038 400.75520029564495 921.4552142264038 403.5166240447989 Z" stroke-opacity="1" stroke-linecap="round" stroke-linejoin="round" stroke-miterlimit="10"/><text fill="rgb(21,101,192)" stroke="none" font-family="geogebra-sans-serif, sans-serif" font-size="16px" font-style="normal" font-weight="normal" text-decoration="normal" x="920" y="394" text-anchor="start" dominant-baseline="alphabetic" fill-opacity="1">E</text><text fill="none" stroke="rgb(255,255,255)" font-family="geogebra-sans-serif, sans-serif" font-size="16px" font-style="normal" font-weight="normal" text-decoration="normal" x="920" y="394" text-anchor="start" dominant-baseline="alphabetic" stroke-opacity="1" stroke-linejoin="bevel" stroke-miterlimit="10" stroke-width="3">E</text><text fill="rgb(21,101,192)" stroke="none" font-family="geogebra-sans-serif, sans-serif" font-size="16px" font-style="normal" font-weight="normal" text-decoration="normal" x="920" y="394" text-anchor="start" dominant-baseline="alphabetic" fill-opacity="1">E</text><path fill="rgb(21,101,192)" stroke="none" paint-order="stroke fill markers" d=" M 918.9661297440337 157.7903305826389 C 918.9661297440337 160.55175433179286 916.7275534931877 162.7903305826389 913.9661297440337 162.7903305826389 C 911.2047059948796 162.7903305826389 908.9661297440337 160.55175433179286 908.9661297440337 157.7903305826389 C 908.9661297440337 155.0289068334849 911.2047059948796 152.7903305826389 913.9661297440337 152.7903305826389 C 916.7275534931877 152.7903305826389 918.9661297440337 155.0289068334849 918.9661297440337 157.7903305826389 Z" fill-opacity="1"/><path fill="none" stroke="rgb(0,0,0)" paint-order="fill stroke markers" d=" M 918.9661297440337 157.7903305826389 C 918.9661297440337 160.55175433179286 916.7275534931877 162.7903305826389 913.9661297440337 162.7903305826389 C 911.2047059948796 162.7903305826389 908.9661297440337 160.55175433179286 908.9661297440337 157.7903305826389 C 908.9661297440337 155.0289068334849 911.2047059948796 152.7903305826389 913.9661297440337 152.7903305826389 C 916.7275534931877 152.7903305826389 918.9661297440337 155.0289068334849 918.9661297440337 157.7903305826389 Z" stroke-opacity="1" stroke-linecap="round" stroke-linejoin="round" stroke-miterlimit="10"/><text fill="rgb(21,101,192)" stroke="none" font-family="geogebra-sans-serif, sans-serif" font-size="16px" font-style="normal" font-weight="normal" text-decoration="normal" x="918" y="148" text-anchor="start" dominant-baseline="alphabetic" fill-opacity="1">F</text><text fill="none" stroke="rgb(255,255,255)" font-family="geogebra-sans-serif, sans-serif" font-size="16px" font-style="normal" font-weight="normal" text-decoration="normal" x="918" y="148" text-anchor="start" dominant-baseline="alphabetic" stroke-opacity="1" stroke-linejoin="bevel" stroke-miterlimit="10" stroke-width="3">F</text><text fill="rgb(21,101,192)" stroke="none" font-family="geogebra-sans-serif, sans-serif" font-size="16px" font-style="normal" font-weight="normal" text-decoration="normal" x="918" y="148" text-anchor="start" dominant-baseline="alphabetic" fill-opacity="1">F</text><path fill="rgb(21,101,192)" stroke="none" paint-order="stroke fill markers" d=" M 625.2127252556382 699.3093563342252 C 625.2127252556382 702.0707800833792 622.9741490047923 704.3093563342252 620.2127252556382 704.3093563342252 C 617.4513015064842 704.3093563342252 615.2127252556382 702.0707800833792 615.2127252556382 699.3093563342252 C 615.2127252556382 696.5479325850712 617.4513015064842 694.3093563342252 620.2127252556382 694.3093563342252 C 622.9741490047923 694.3093563342252 625.2127252556382 696.5479325850712 625.2127252556382 699.3093563342252 Z" fill-opacity="1"/><path fill="none" stroke="rgb(0,0,0)" paint-order="fill stroke markers" d=" M 625.2127252556382 699.3093563342252 C 625.2127252556382 702.0707800833792 622.9741490047923 704.3093563342252 620.2127252556382 704.3093563342252 C 617.4513015064842 704.3093563342252 615.2127252556382 702.0707800833792 615.2127252556382 699.3093563342252 C 615.2127252556382 696.5479325850712 617.4513015064842 694.3093563342252 620.2127252556382 694.3093563342252 C 622.9741490047923 694.3093563342252 625.2127252556382 696.5479325850712 625.2127252556382 699.3093563342252 Z" stroke-opacity="1" stroke-linecap="round" stroke-linejoin="round" stroke-miterlimit="10"/><text fill="rgb(21,101,192)" stroke="none" font-family="geogebra-sans-serif, sans-serif" font-size="16px" font-style="normal" font-weight="normal" text-decoration="normal" x="624" y="689" text-anchor="start" dominant-baseline="alphabetic" fill-opacity="1">G</text><text fill="none" stroke="rgb(255,255,255)" font-family="geogebra-sans-serif, sans-serif" font-size="16px" font-style="normal" font-weight="normal" text-decoration="normal" x="624" y="689" text-anchor="start" dominant-baseline="alphabetic" stroke-opacity="1" stroke-linejoin="bevel" stroke-miterlimit="10" stroke-width="3">G</text><text fill="rgb(21,101,192)" stroke="none" font-family="geogebra-sans-serif, sans-serif" font-size="16px" font-style="normal" font-weight="normal" text-decoration="normal" x="624" y="689" text-anchor="start" dominant-baseline="alphabetic" fill-opacity="1">G</text><path fill="rgb(21,101,192)" stroke="none" paint-order="stroke fill markers" d=" M 826.2690655786164 559.5083448716879 C 826.2690655786164 562.2697686208419 824.0304893277704 564.5083448716879 821.2690655786164 564.5083448716879 C 818.5076418294624 564.5083448716879 816.2690655786164 562.2697686208419 816.2690655786164 559.5083448716879 C 816.2690655786164 556.7469211225339 818.5076418294624 554.5083448716879 821.2690655786164 554.5083448716879 C 824.0304893277704 554.5083448716879 826.2690655786164 556.7469211225339 826.2690655786164 559.5083448716879 Z" fill-opacity="1"/><path fill="none" stroke="rgb(0,0,0)" paint-order="fill stroke markers" d=" M 826.2690655786164 559.5083448716879 C 826.2690655786164 562.2697686208419 824.0304893277704 564.5083448716879 821.2690655786164 564.5083448716879 C 818.5076418294624 564.5083448716879 816.2690655786164 562.2697686208419 816.2690655786164 559.5083448716879 C 816.2690655786164 556.7469211225339 818.5076418294624 554.5083448716879 821.2690655786164 554.5083448716879 C 824.0304893277704 554.5083448716879 826.2690655786164 556.7469211225339 826.2690655786164 559.5083448716879 Z" stroke-opacity="1" stroke-linecap="round" stroke-linejoin="round" stroke-miterlimit="10"/><text fill="rgb(21,101,192)" stroke="none" font-family="geogebra-sans-serif, sans-serif" font-size="16px" font-style="normal" font-weight="normal" text-decoration="normal" x="825" y="550" text-anchor="start" dominant-baseline="alphabetic" fill-opacity="1">H</text><text fill="none" stroke="rgb(255,255,255)" font-family="geogebra-sans-serif, sans-serif" font-size="16px" font-style="normal" font-weight="normal" text-decoration="normal" x="825" y="550" text-anchor="start" dominant-baseline="alphabetic" stroke-opacity="1" stroke-linejoin="bevel" stroke-miterlimit="10" stroke-width="3">H</text><text fill="rgb(21,101,192)" stroke="none" font-family="geogebra-sans-serif, sans-serif" font-size="16px" font-style="normal" font-weight="normal" text-decoration="normal" x="825" y="550" text-anchor="start" dominant-baseline="alphabetic" fill-opacity="1">H</text><path fill="rgb(21,101,192)" stroke="none" paint-order="stroke fill markers" d=" M 555.0513397795327 389.5631161420059 C 555.0513397795327 392.3245398911599 552.8127635286867 394.5631161420059 550.0513397795327 394.5631161420059 C 547.2899160303787 394.5631161420059 545.0513397795327 392.3245398911599 545.0513397795327 389.5631161420059 C 545.0513397795327 386.801692392852 547.2899160303787 384.5631161420059 550.0513397795327 384.5631161420059 C 552.8127635286867 384.5631161420059 555.0513397795327 386.801692392852 555.0513397795327 389.5631161420059 Z" fill-opacity="1"/><path fill="none" stroke="rgb(0,0,0)" paint-order="fill stroke markers" d=" M 555.0513397795327 389.5631161420059 C 555.0513397795327 392.3245398911599 552.8127635286867 394.5631161420059 550.0513397795327 394.5631161420059 C 547.2899160303787 394.5631161420059 545.0513397795327 392.3245398911599 545.0513397795327 389.5631161420059 C 545.0513397795327 386.801692392852 547.2899160303787 384.5631161420059 550.0513397795327 384.5631161420059 C 552.8127635286867 384.5631161420059 555.0513397795327 386.801692392852 555.0513397795327 389.5631161420059 Z" stroke-opacity="1" stroke-linecap="round" stroke-linejoin="round" stroke-miterlimit="10"/><text fill="rgb(21,101,192)" stroke="none" font-family="geogebra-sans-serif, sans-serif" font-size="16px" font-style="normal" font-weight="normal" text-decoration="normal" x="554" y="380" text-anchor="start" dominant-baseline="alphabetic" fill-opacity="1">I</text><text fill="none" stroke="rgb(255,255,255)" font-family="geogebra-sans-serif, sans-serif" font-size="16px" font-style="normal" font-weight="normal" text-decoration="normal" x="554" y="380" text-anchor="start" dominant-baseline="alphabetic" stroke-opacity="1" stroke-linejoin="bevel" stroke-miterlimit="10" stroke-width="3">I</text><text fill="rgb(21,101,192)" stroke="none" font-family="geogebra-sans-serif, sans-serif" font-size="16px" font-style="normal" font-weight="normal" text-decoration="normal" x="554" y="380" text-anchor="start" dominant-baseline="alphabetic" fill-opacity="1">I</text><path fill="rgb(21,101,192)" stroke="none" paint-order="stroke fill markers" d=" M 373.7490612298687 208.26083759234263 C 373.7490612298687 211.0222613414966 371.51048497902264 213.26083759234263 368.7490612298687 213.26083759234263 C 365.98763748071474 213.26083759234263 363.7490612298687 211.0222613414966 363.7490612298687 208.26083759234263 C 363.7490612298687 205.49941384318865 365.98763748071474 203.26083759234263 368.7490612298687 203.26083759234263 C 371.51048497902264 203.26083759234263 373.7490612298687 205.49941384318865 373.7490612298687 208.26083759234263 Z" fill-opacity="1"/><path fill="none" stroke="rgb(0,0,0)" paint-order="fill stroke markers" d=" M 373.7490612298687 208.26083759234263 C 373.7490612298687 211.0222613414966 371.51048497902264 213.26083759234263 368.7490612298687 213.26083759234263 C 365.98763748071474 213.26083759234263 363.7490612298687 211.0222613414966 363.7490612298687 208.26083759234263 C 363.7490612298687 205.49941384318865 365.98763748071474 203.26083759234263 368.7490612298687 203.26083759234263 C 371.51048497902264 203.26083759234263 373.7490612298687 205.49941384318865 373.7490612298687 208.26083759234263 Z" stroke-opacity="1" stroke-linecap="round" stroke-linejoin="round" stroke-miterlimit="10"/><text fill="rgb(21,101,192)" stroke="none" font-family="geogebra-sans-serif, sans-serif" font-size="16px" font-style="normal" font-weight="normal" text-decoration="normal" x="373" y="198" text-anchor="start" dominant-baseline="alphabetic" fill-opacity="1">J</text><text fill="none" stroke="rgb(255,255,255)" font-family="geogebra-sans-serif, sans-serif" font-size="16px" font-style="normal" font-weight="normal" text-decoration="normal" x="373" y="198" text-anchor="start" dominant-baseline="alphabetic" stroke-opacity="1" stroke-linejoin="bevel" stroke-miterlimit="10" stroke-width="3">J</text><text fill="rgb(21,101,192)" stroke="none" font-family="geogebra-sans-serif, sans-serif" font-size="16px" font-style="normal" font-weight="normal" text-decoration="normal" x="373" y="198" text-anchor="start" dominant-baseline="alphabetic" fill-opacity="1">J</text><path fill="rgb(21,101,192)" stroke="none" paint-order="stroke fill markers" d=" M 163.77052732974641 475.96525566951163 C 163.77052732974641 478.7266794186656 161.5319510789004 480.96525566951163 158.77052732974641 480.96525566951163 C 156.00910358059244 480.96525566951163 153.77052732974641 478.7266794186656 153.77052732974641 475.96525566951163 C 153.77052732974641 473.2038319203577 156.00910358059244 470.96525566951163 158.77052732974641 470.96525566951163 C 161.5319510789004 470.96525566951163 163.77052732974641 473.2038319203577 163.77052732974641 475.96525566951163 Z" fill-opacity="1"/><path fill="none" stroke="rgb(0,0,0)" paint-order="fill stroke markers" d=" M 163.77052732974641 475.96525566951163 C 163.77052732974641 478.7266794186656 161.5319510789004 480.96525566951163 158.77052732974641 480.96525566951163 C 156.00910358059244 480.96525566951163 153.77052732974641 478.7266794186656 153.77052732974641 475.96525566951163 C 153.77052732974641 473.2038319203577 156.00910358059244 470.96525566951163 158.77052732974641 470.96525566951163 C 161.5319510789004 470.96525566951163 163.77052732974641 473.2038319203577 163.77052732974641 475.96525566951163 Z" stroke-opacity="1" stroke-linecap="round" stroke-linejoin="round" stroke-miterlimit="10"/><text fill="rgb(21,101,192)" stroke="none" font-family="geogebra-sans-serif, sans-serif" font-size="16px" font-style="normal" font-weight="normal" text-decoration="normal" x="163" y="466" text-anchor="start" dominant-baseline="alphabetic" fill-opacity="1">K</text><text fill="none" stroke="rgb(255,255,255)" font-family="geogebra-sans-serif, sans-serif" font-size="16px" font-style="normal" font-weight="normal" text-decoration="normal" x="163" y="466" text-anchor="start" dominant-baseline="alphabetic" stroke-opacity="1" stroke-linejoin="bevel" stroke-miterlimit="10" stroke-width="3">K</text><text fill="rgb(21,101,192)" stroke="none" font-family="geogebra-sans-serif, sans-serif" font-size="16px" font-style="normal" font-weight="normal" text-decoration="normal" x="163" y="466" text-anchor="start" dominant-baseline="alphabetic" fill-opacity="1">K</text><path fill="rgb(21,101,192)" stroke="none" paint-order="stroke fill markers" d=" M 1258.69457606443 479.0770678363019 C 1258.69457606443 481.83849158545587 1256.455999813584 484.0770678363019 1253.69457606443 484.0770678363019 C 1250.9331523152762 484.0770678363019 1248.69457606443 481.83849158545587 1248.69457606443 479.0770678363019 C 1248.69457606443 476.315644087148 1250.9331523152762 474.0770678363019 1253.69457606443 474.0770678363019 C 1256.455999813584 474.0770678363019 1258.69457606443 476.315644087148 1258.69457606443 479.0770678363019 Z" fill-opacity="1"/><path fill="none" stroke="rgb(0,0,0)" paint-order="fill stroke markers" d=" M 1258.69457606443 479.0770678363019 C 1258.69457606443 481.83849158545587 1256.455999813584 484.0770678363019 1253.69457606443 484.0770678363019 C 1250.9331523152762 484.0770678363019 1248.69457606443 481.83849158545587 1248.69457606443 479.0770678363019 C 1248.69457606443 476.315644087148 1250.9331523152762 474.0770678363019 1253.69457606443 474.0770678363019 C 1256.455999813584 474.0770678363019 1258.69457606443 476.315644087148 1258.69457606443 479.0770678363019 Z" stroke-opacity="1" stroke-linecap="round" stroke-linejoin="round" stroke-miterlimit="10"/><text fill="rgb(21,101,192)" stroke="none" font-family="geogebra-sans-serif, sans-serif" font-size="16px" font-style="normal" font-weight="normal" text-decoration="normal" x="1258" y="469" text-anchor="start" dominant-baseline="alphabetic" fill-opacity="1">M</text><text fill="none" stroke="rgb(255,255,255)" font-family="geogebra-sans-serif, sans-serif" font-size="16px" font-style="normal" font-weight="normal" text-decoration="normal" x="1258" y="469" text-anchor="start" dominant-baseline="alphabetic" stroke-opacity="1" stroke-linejoin="bevel" stroke-miterlimit="10" stroke-width="3">M</text><text fill="rgb(21,101,192)" stroke="none" font-family="geogebra-sans-serif, sans-serif" font-size="16px" font-style="normal" font-weight="normal" text-decoration="normal" x="1258" y="469" text-anchor="start" dominant-baseline="alphabetic" fill-opacity="1">M</text><path fill="rgb(21,101,192)" stroke="none" paint-order="stroke fill markers" d=" M 157.40353430620883 387.28478274319536 C 157.40353430620883 390.0462064923493 155.1649580553628 392.28478274319536 152.40353430620883 392.28478274319536 C 149.64211055705485 392.28478274319536 147.40353430620883 390.0462064923493 147.40353430620883 387.28478274319536 C 147.40353430620883 384.5233589940414 149.64211055705485 382.28478274319536 152.40353430620883 382.28478274319536 C 155.1649580553628 382.28478274319536 157.40353430620883 384.5233589940414 157.40353430620883 387.28478274319536 Z" fill-opacity="1"/><path fill="none" stroke="rgb(0,0,0)" paint-order="fill stroke markers" d=" M 157.40353430620883 387.28478274319536 C 157.40353430620883 390.0462064923493 155.1649580553628 392.28478274319536 152.40353430620883 392.28478274319536 C 149.64211055705485 392.28478274319536 147.40353430620883 390.0462064923493 147.40353430620883 387.28478274319536 C 147.40353430620883 384.5233589940414 149.64211055705485 382.28478274319536 152.40353430620883 382.28478274319536 C 155.1649580553628 382.28478274319536 157.40353430620883 384.5233589940414 157.40353430620883 387.28478274319536 Z" stroke-opacity="1" stroke-linecap="round" stroke-linejoin="round" stroke-miterlimit="10"/><text fill="rgb(21,101,192)" stroke="none" font-family="geogebra-sans-serif, sans-serif" font-size="16px" font-style="normal" font-weight="normal" text-decoration="normal" x="156" y="377" text-anchor="start" dominant-baseline="alphabetic" fill-opacity="1">N</text><text fill="none" stroke="rgb(255,255,255)" font-family="geogebra-sans-serif, sans-serif" font-size="16px" font-style="normal" font-weight="normal" text-decoration="normal" x="156" y="377" text-anchor="start" dominant-baseline="alphabetic" stroke-opacity="1" stroke-linejoin="bevel" stroke-miterlimit="10" stroke-width="3">N</text><text fill="rgb(21,101,192)" stroke="none" font-family="geogebra-sans-serif, sans-serif" font-size="16px" font-style="normal" font-weight="normal" text-decoration="normal" x="156" y="377" text-anchor="start" dominant-baseline="alphabetic" fill-opacity="1">N</text><path fill="rgb(21,101,192)" stroke="none" paint-order="stroke fill markers" d=" M 1037.1815093663652 697.4924171902551 C 1037.1815093663652 700.2538409394091 1034.942933115519 702.4924171902551 1032.1815093663652 702.4924171902551 C 1029.4200856172113 702.4924171902551 1027.1815093663652 700.2538409394091 1027.1815093663652 697.4924171902551 C 1027.1815093663652 694.7309934411011 1029.4200856172113 692.4924171902551 1032.1815093663652 692.4924171902551 C 1034.942933115519 692.4924171902551 1037.1815093663652 694.7309934411011 1037.1815093663652 697.4924171902551 Z" fill-opacity="1"/><path fill="none" stroke="rgb(0,0,0)" paint-order="fill stroke markers" d=" M 1037.1815093663652 697.4924171902551 C 1037.1815093663652 700.2538409394091 1034.942933115519 702.4924171902551 1032.1815093663652 702.4924171902551 C 1029.4200856172113 702.4924171902551 1027.1815093663652 700.2538409394091 1027.1815093663652 697.4924171902551 C 1027.1815093663652 694.7309934411011 1029.4200856172113 692.4924171902551 1032.1815093663652 692.4924171902551 C 1034.942933115519 692.4924171902551 1037.1815093663652 694.7309934411011 1037.1815093663652 697.4924171902551 Z" stroke-opacity="1" stroke-linecap="round" stroke-linejoin="round" stroke-miterlimit="10"/><text fill="rgb(21,101,192)" stroke="none" font-family="geogebra-sans-serif, sans-serif" font-size="16px" font-style="normal" font-weight="normal" text-decoration="normal" x="1036" y="687" text-anchor="start" dominant-baseline="alphabetic" fill-opacity="1">O</text><text fill="none" stroke="rgb(255,255,255)" font-family="geogebra-sans-serif, sans-serif" font-size="16px" font-style="normal" font-weight="normal" text-decoration="normal" x="1036" y="687" text-anchor="start" dominant-baseline="alphabetic" stroke-opacity="1" stroke-linejoin="bevel" stroke-miterlimit="10" stroke-width="3">O</text><text fill="rgb(21,101,192)" stroke="none" font-family="geogebra-sans-serif, sans-serif" font-size="16px" font-style="normal" font-weight="normal" text-decoration="normal" x="1036" y="687" text-anchor="start" dominant-baseline="alphabetic" fill-opacity="1">O</text></g></g></svg>