<?xml version="1.0" encoding="utf-8"?>
<!-- Generator: Adobe Illustrator 27.5.0, SVG Export Plug-In . SVG Version: 6.00 Build 0)  -->
<svg version="1.1" id="svg2" xmlns="http://www.w3.org/2000/svg" xmlns:xlink="http://www.w3.org/1999/xlink" x="0px" y="0px"
	 viewBox="0 0 1024 1024" style="enable-background:new 0 0 1024 1024;" xml:space="preserve">
<style type="text/css">
	.st0{fill:#666666;}
</style>
<g>
	<path class="st0" d="M3.1,596.9c1.7-0.6,1.6-2.2,1.9-3.6c1-4.9,1.9-9.7,2.9-14.6c2.1-10,5.9-19.2,11.6-27.7
		c0.6-0.9,1.3-1.9,1.7-2.9c2.5-5.6,6.7-9.6,11.8-12.9c1.3-0.9,2.7-1.7,4.1-2.5c66.9-38.5,133.9-77,200.7-115.7
		c15.5-9,31.9-11.5,49.4-9.5c10,1.2,19.2,4.5,27.9,9.5c66.6,38.5,133.2,76.8,199.9,115.2c2.8,1.6,5.5,3.3,8.1,5.2
		c2,1.5,3.9,3.4,5.4,5.4c2.1,2.9,4.5,5.4,6.9,8c5.3,5.6,10.1,11.6,14,18.2c0.6,1,1.2,1.9,1.9,2.8c5.1,5.7,6.7,12.6,7.1,19.9
		c0.1,1.1,0,2.2,0,3.4c0,32.3,0,64.6,0,96.9c0,41.7-0.1,83.5-0.2,125.2c0,5.1-0.1,10.2-0.2,15.3c-0.1,7.6-2,14.8-4.8,21.9
		c-3.7,9.3-8.8,17.7-15.5,25.2c-4.8,5.4-10.4,9.9-16.7,13.5c-54.7,31.6-109.3,63.2-164,94.9c-12.9,7.4-25.7,14.9-38.6,22.3
		c-3.6,2.1-7.3,3.9-11.4,4.9c-1.4,0.3-2.7,1-4,1.6c-5.8,2.4-11.7,4.3-17.9,5.1c-0.9,0.1-1.8,0.6-2.6,0.9c-4.5,0-9,0-13.4,0
		c-1.3-1.2-2.6-1-3.8,0c-1.6,0-3.2,0-4.8,0c-0.4-0.2-0.8-0.6-1.3-0.7c-6-0.9-11.2-3.7-16.3-6.6c-31.8-18.4-63.7-36.8-95.5-55.3
		c-35-20.3-70-40.5-105-60.8c-4.9-2.8-9.4-6-13.4-10c-9.7-9.6-16.6-21-20.9-34c-2-6.1-3.1-12.4-3.1-18.9
		c-0.1-23.2-0.1-46.4-0.4-69.6C4,731.2,4.4,695,4.4,658.9c0-1.8,0-3.5-0.1-5.3c-0.1-0.7-0.7-1.3-1.1-2
		C3.1,633.4,3.1,615.1,3.1,596.9z M276.1,699.3c12.4-0.1,23.8-2.5,34.4-8.6c67.4-38.9,134.9-77.8,202.4-116.7c1.8-1,3.6-2.1,5.3-3.3
		c1.8-1.4,3.5-2.8,4.9-4.5c5.3-6.3,5.4-13.3,0.1-19.6c-1.8-2.2-4.2-3.9-6.5-5.7c-1.6-1.3-3.5-2.2-5.3-3.2
		c-36.3-20.9-72.6-41.8-108.9-62.7c-30.6-17.6-61.2-35.3-91.8-52.9c-5.7-3.3-11.8-5.7-18.3-7c-6.9-1.5-13.9-2-21-1.5
		c-10.2,0.7-19.8,3.3-28.7,8.4c-67.6,39-135.2,77.9-202.8,116.9c-2.2,1.3-4.4,2.6-6.4,4.3c-1.8,1.5-3.5,3.3-4.8,5.3
		c-3.5,5.1-3.6,10.5-0.1,15.7c1.4,2.1,3.2,4,5.2,5.6c1.9,1.6,4.2,3,6.4,4.2c23.7,13.7,47.4,27.3,71.1,41
		c43.8,25.2,87.6,50.4,131.3,75.7c5.3,3.1,10.9,5.4,16.8,6.8C265,698.7,270.7,699.2,276.1,699.3z M278,876.1c-0.1,0-0.1,0-0.2,0
		c0-38.9-0.1-77.7,0-116.6c0-8.1-1.5-15.9-4.6-23.4c-6.5-15.7-16.5-28.1-31.5-36.7c-61.5-35.4-122.9-71-184.3-106.6
		c-5.7-3.3-11.4-6.5-17-9.8c-3.2-1.9-6.5-3.3-10.2-4.1c-7.6-1.5-13.8,1.5-16.9,8.5c-0.8,1.9-1.4,3.9-1.7,5.9
		c-0.4,2.8-0.6,5.7-0.6,8.6c0,19,0.1,38.1,0.2,57.1c0,19,0,38.1,0,57.1c0.1,39.8,0.2,79.6,0.2,119.5c0,7.1,1.1,14,3.7,20.6
		c6.4,16.6,16.6,29.9,32.4,39c53.9,30.9,107.7,62.2,161.5,93.4c13.1,7.6,26.3,15.2,39.4,22.8c3.8,2.2,7.7,3.9,12,4.5
		c5.8,0.8,11.8-1.5,14.8-7.4c0.7-1.4,1.3-2.9,1.8-4.4c1.2-3.6,1.1-7.2,1.1-10.9C278,954.1,278,915.1,278,876.1z M285.1,870
		C285,870,285,870,285.1,870c-0.1,22.5-0.1,45.1-0.1,67.6c0,11.7-0.1,23.3-0.1,35c0,6.4,0,12.8,0.1,19.2c0.1,3.9,1.1,7.6,3.1,11
		c2.7,4.5,6.6,6.9,11.8,6.9c1.7,0,3.5-0.3,5.2-0.6c3.5-0.7,6.6-2.4,9.7-4.1c67.8-39.2,135.6-78.5,203.4-117.7
		c5.7-3.3,10.7-7.5,15.1-12.5c6.6-7.5,11.6-16.1,14.9-25.5c1.9-5.4,3.3-11,3.3-16.9c0.1-5.1,0.2-10.2,0.2-15.3
		c0.1-42.5,0.2-85.1,0.2-127.6c0-30.5,0-61.1,0-91.6c0-1.8,0.1-3.5,0-5.3c-0.2-3.8-0.6-7.6-2.2-11.2c-2.9-6.5-7.9-9.4-14.9-9
		c-4.1,0.3-7.8,1.8-11.3,3.7c-4.2,2.4-8.3,4.8-12.5,7.2c-63.9,37-127.8,74-191.7,111c-2.5,1.4-4.9,3-7.2,4.7
		c-15,11.4-27.4,34.7-27.2,54.9C285.4,792.6,285.1,831.3,285.1,870z"/>
	<path class="st0" d="M1022.4,304.2c-0.3,0.4-0.8,0.7-0.8,1.1c-0.6,4.1-2.6,7.5-4.6,11c-39.2,67.8-78.5,135.6-117.7,203.4
		c-2.7,4.6-5.8,8.8-9.6,12.6c-11.9,11.8-26,19.6-42.5,22.8c-3.4,0.7-7,0.9-10.5,0.9c-19.8,0.1-39.7,0.2-59.5,0.2
		c-57.7,0.1-115.5,0-173.2,0.1c-5.6,0-11.1-0.3-16.6-1.8c-4.5-1.2-9.1-1.8-13.6-3c-7.9-2.1-15.3-5.5-22.2-10.1
		c-1.2-0.8-2.4-1.6-3.7-2.2c-4.6-2.2-8.2-5.5-11.1-9.6c-1.5-2.1-2.8-4.3-4.1-6.5c-38.6-66.9-77.1-133.8-115.7-200.7
		c-6.4-11.1-9.6-22.9-9.9-35.6c-0.2-6.1,0.2-12.2,1.3-18.1c1.5-7.8,4.2-15,8.2-21.9c18.4-31.8,36.7-63.7,55.1-95.6
		c20.1-34.9,40.2-69.8,60.3-104.7c1-1.7,1.9-3.3,2.9-5c2.6-4.3,5.9-7.9,10.1-10.8c1.4-1,2.8-2.2,4-3.4c6.2-6.1,12.8-11.5,20.3-16
		c1.1-0.7,2.2-1.4,3.1-2.2c4.1-3.6,9-5.3,14.3-6.3c1.2-0.2,2.4-0.7,3.6-1c25,0,49.9,0,74.9,0c1.9,1.2,4.1,0.7,6.1,0.7
		C724,2.6,776.6,2.7,829.2,2.7c3.2,0,6.5-0.1,9.6,0.5c24.1,4.7,43.2,16.6,55.7,38.3c32.5,56.3,65.1,112.6,97.7,168.9
		c6.4,11.1,12.8,22.1,19.2,33.2c2.5,4.3,4.5,8.9,5,13.9c0.3,2.6,0.9,5,1.5,7.5c1.8,6.3,3.5,12.6,3.6,19.3c0,1.2,0.6,2.4,0.9,3.6
		C1022.4,293.3,1022.4,298.7,1022.4,304.2z M699.9,284.6c-0.4-12.7-3.2-24.6-9.7-35.7c-24.5-42.2-48.7-84.5-73.1-126.7
		c-14.3-24.8-28.6-49.6-42.9-74.4c-1.8-3.1-3.6-6-6.2-8.5c-7.3-7.2-15.5-7.2-22.8,0c-2.7,2.6-4.6,5.7-6.4,8.9
		c-38.9,67.5-77.7,135-116.6,202.4c-3.5,6-5.8,12.4-7.2,19.2c-1.4,7.1-1.7,14.3-1.1,21.5c0.9,9.6,3.3,18.9,8.5,27.2
		c1.7,2.7,3.2,5.5,4.8,8.3c37.1,64.4,74.2,128.8,111.3,193.2c1.5,2.6,3.2,5.2,5,7.6c1.7,2.3,4,4.1,6.6,5.5c4.3,2.2,8.7,2.4,12.8,0
		c2.2-1.3,4.2-2.9,6-4.7c1.8-2,3.3-4.3,4.7-6.6c3.7-6.2,7.2-12.4,10.8-18.7c35.5-61.6,71-123.3,106.6-184.9
		c3.2-5.6,5.7-11.5,6.8-17.8C698.8,295.1,699.2,289.8,699.9,284.6z M712.8,9.2c0-0.1,0-0.2,0-0.3c-17.4,0-34.9,0-52.3,0
		c-21.4,0-42.9,0-64.3,0c-2.6,0-5.1,0-7.7,0.4c-2.6,0.4-5.4,1.1-7.8,2.2c-6.2,2.9-9,8.5-8.1,15.3c0.6,4.4,2.4,8.3,4.6,12
		c10.4,18,20.8,36,31.2,54c28.7,49.5,57.4,99,86,148.6c4.3,7.5,9.9,13.7,16.7,19c6.1,4.7,12.8,8.5,20,11.2c7.1,2.7,14.4,4.1,22,4.1
		c27.7-0.1,55.3,0,83,0c31.8,0,63.6,0,95.5,0c1.4,0,2.9,0,4.3,0c17.6,0.1,35.2,0.2,52.8,0.2c3.5,0,7-0.3,10.4-1.5
		c8.7-3,12.5-9.9,10.3-18.8c-1-3.9-2.9-7.4-4.9-10.9c-14.8-25.6-29.6-51.2-44.4-76.8c-23.9-41.4-47.9-82.7-71.8-124.1
		c-3.6-6.3-8-11.9-13.5-16.7c-7.1-6.1-15-10.8-23.8-14.1c-7-2.6-14.1-3.9-21.6-3.9C790.5,9.3,751.7,9.2,712.8,9.2z M719.4,549.9
		c0-0.1,0-0.2,0-0.3c38.5,0,77.1,0,115.6,0c3.5,0,7.1,0,10.5-0.7c21.1-4.6,38.2-15.1,49.2-34.2c36.1-62.4,72.2-124.8,108.3-187.2
		c3.1-5.4,6.2-10.8,9.3-16.2c2-3.5,3.5-7.2,3.8-11.3c0.5-6.2-1.7-11-7.1-14.1c-1.5-0.9-3.2-1.4-4.9-2c-3.4-1.1-6.9-1.1-10.4-1.1
		c-26.4,0-52.8,0.1-79.2,0.1c-51.3,0-102.7,0.1-154,0.1c-0.8,0-1.6-0.1-2.4,0c-3.8,0.4-7.7,0.4-11.4,1.4
		c-20.2,5.2-36.3,15.9-46.9,34.4c-26.1,45.5-52.5,90.8-78.7,136.2c-12.3,21.3-24.7,42.6-37,63.9c-1.8,3.2-3.6,6.4-4.6,10
		c-2.6,9.8,1.6,17.2,11.3,19.9c0.6,0.2,1.2,0.3,1.9,0.4c3,0.3,6,0.7,9.1,0.7C641,549.9,680.2,549.9,719.4,549.9z"/>
	<path class="st0" d="M276.3,533.2c7,0.1,13.8,1,20.3,3.4c3.3,1.2,6.5,2.8,9.5,4.4c1.8,1,3.4,2.4,4.9,3.8c7.3,7.2,7.3,16-0.1,23.2
		c-3.1,3.1-6.9,5.2-10.9,6.9c-9.5,3.9-19.4,5.1-29.6,4.2c-5.3-0.5-10.4-1.5-15.4-3.3c-3.6-1.4-7-3-10.2-5.3
		c-2.3-1.7-4.4-3.7-5.9-6.2c-3.2-5.1-3.2-10.3-0.2-15.4c2-3.4,4.9-5.9,8.2-7.9c5.1-3.2,10.6-5.2,16.5-6.2
		C267.7,534,272.1,533.7,276.3,533.2z"/>
	<path class="st0" d="M92.4,674.4c0.1,4.4-0.5,8.8-2.8,12.9c-2.3,4.2-5.9,6.8-10.6,7.3c-2.2,0.2-4.5,0.1-6.6-0.5
		c-2.9-0.8-5.8-2-8.4-3.5c-2.9-1.7-5.6-3.8-8-6.1c-10.8-10.4-17.5-23.1-19.7-38c-0.6-4.2-0.4-8.3,0.7-12.4
		c2.5-9.5,9.2-14.1,19.7-11.6c5.2,1.2,9.7,4.1,13.7,7.6c8.3,7.1,14.2,15.9,18.2,26.1C90.9,661.9,92.4,668,92.4,674.4z"/>
	<path class="st0" d="M213.2,900.1c3.5,0,7.2,1.4,10.8,3.3c5,2.7,9.2,6.4,12.9,10.6c7.5,8.6,12.7,18.4,15.1,29.5
		c1.1,4.9,1.6,9.8,0.6,14.8c-0.1,0.5-0.1,1-0.2,1.4c-2.1,10.4-10.1,15.3-20.4,12.4c-3.8-1-7.2-2.8-10.2-5.1
		c-13.5-10.2-21.5-23.8-24.5-40.4c-0.7-3.7-0.4-7.7-0.1-11.5c0.1-2.2,0.9-4.4,1.8-6.4C201.5,902.9,206.2,900,213.2,900.1z"/>
	<path class="st0" d="M446.5,774.7c0.1,6.1-1.2,11.5-3.1,16.8c-3.7,10.2-9.4,19.2-17.5,26.6c-3.4,3.1-7.3,5.8-11.6,7.6
		c-2.7,1.1-5.5,1.7-8.4,1.8c-6.5,0.1-11-3-13.6-8.7c-2.2-4.8-2.7-9.9-2-15c2.2-16.4,9.6-30,22-40.8c4.3-3.7,9.1-6.5,14.7-7.7
		c8.5-1.8,15.3,2,18.1,10.1C446.3,768.4,446.7,771.7,446.5,774.7z"/>
	<path class="st0" d="M470.6,668.2c-0.2-4.6,0.7-9,2-13.3c3.8-12.6,10.5-23.3,20.6-31.7c4.2-3.5,8.9-6.2,14.4-7.3
		c8.1-1.7,14.7,1.8,17.6,9.5c1.7,4.4,2.2,9,1.6,13.7c-2.1,16.8-9.8,30.6-22.5,41.6c-2.8,2.4-5.9,4.3-9.3,5.8
		c-2.5,1.1-5.2,1.7-7.9,1.9c-6.4,0.4-11.6-2.6-14.3-8.5C471.1,676.1,470.4,672.2,470.6,668.2z"/>
	<path class="st0" d="M366.2,913.2c-0.1,8.3-1.9,15.2-4.9,21.9c-4.2,9.3-9.9,17.5-17.9,24c-3.4,2.7-7,5-11.2,6.4
		c-2.5,0.8-5,1.2-7.5,1.1c-5.5-0.1-9.5-2.6-12-7.4c-1.1-2.2-1.9-4.8-2.3-7.2c-1.1-6.1-0.3-12.1,1.3-18c3.1-11,8.7-20.6,16.7-28.7
		c3.6-3.7,7.7-6.8,12.3-9c2.9-1.4,5.9-2.4,9.2-2.5c6.4-0.2,11,2.6,13.9,8.3C365.8,905.9,366.1,910,366.2,913.2z"/>
	<path class="st0" d="M579.7,283.4c-0.3,8.3-1.2,15.4-3.7,22.3c-1.3,3.5-2.8,6.9-5,9.8c-1.7,2.1-3.5,4.2-5.6,5.8
		c-5.4,4.1-11.8,4-17.4,0.1c-3.1-2.2-5.3-5-7.3-8.2c-3.6-6-5.6-12.6-6.4-19.4c-1.1-9.1-0.8-18.2,1.7-27.1c1.1-3.9,2.6-7.6,4.6-11
		c1.6-2.6,3.4-5,5.7-7c6.3-5.5,14.1-5.5,20.4-0.1c2.6,2.2,4.6,4.9,6.2,7.9c3,5.4,4.8,11.2,5.7,17.2
		C579.3,277.1,579.5,280.8,579.7,283.4z"/>
	<path class="st0" d="M915.2,194.7c3.8-0.1,8.1,0.7,12.5,2c10.9,3.3,20.4,9,28.5,17.1c3.4,3.4,6.2,7.3,8.3,11.7
		c1.5,3.1,2.3,6.3,2.4,9.7c0.1,6.5-3,11-8.8,13.6c-4.6,2.1-9.6,2.6-14.6,2c-15.7-1.9-28.9-8.8-39.8-20.2c-4.2-4.4-7.6-9.5-9.1-15.6
		c-0.3-1.2-0.6-2.5-0.7-3.8c-0.5-6.6,2.7-11.8,8.8-14.6C906.5,195,910.4,194.6,915.2,194.7z"/>
	<path class="st0" d="M668,90.5c-3.3-0.5-6.7-0.7-9.9-1.5c-13.4-3.3-24.8-10.1-33.9-20.5c-3.8-4.4-6.8-9.3-8-15.1
		c-1.8-8.3,1.8-15,9.8-17.9c4-1.4,8.1-2,12.3-1.6c16.8,1.8,30.7,9.3,42,21.8c2.9,3.2,5.2,6.9,6.8,10.9c1.1,2.7,1.6,5.5,1.6,8.4
		c0,5.9-2.8,10.1-8,12.6c-2.4,1.2-5.1,1.7-7.8,2.2c-1.5,0.3-3.2,0.1-4.8,0.1C668,90.2,668,90.3,668,90.5z"/>
	<path class="st0" d="M823.3,34.2c1.8,0.3,5.3,0.6,8.7,1.4c12.3,3,22.8,9.2,31.6,18.2c3,3.1,5.6,6.6,7.6,10.5
		c1.4,2.7,2.3,5.6,2.7,8.6c0.9,6.8-2,12.3-8.2,15.3c-4.1,2-8.6,2.6-13.1,2.3c-18.8-1.5-33.8-10-45.3-24.7c-3.1-3.9-5.2-8.4-6-13.4
		c-1.1-6.8,1.9-12.8,8.2-15.8C813.3,34.6,817.4,34.2,823.3,34.2z"/>
	<path class="st0" d="M729,194.5c5.1,0.2,9.4,0.9,13.5,2.2c10.9,3.4,20.4,9.1,28.4,17.2c2.8,2.9,5.3,6,7.1,9.6
		c1.2,2.4,2.4,4.9,3,7.6c2.2,10-2.9,16-10.3,18.4c-3.7,1.2-7.5,1.5-11.4,1.3c-6-0.3-11.7-1.8-17.2-4c-8.7-3.6-16.4-8.6-23-15.3
		c-3.2-3.4-6-7.1-8-11.3c-1.6-3.4-2.6-6.8-2.5-10.6c0.1-5.7,2.8-9.7,7.7-12.4C720.5,194.8,725.1,194.5,729,194.5z"/>
	<path class="st0" d="M767.3,307.9c3.4,0,6.7,0.3,9.9,1.4c8,2.8,11.8,9.4,10.2,17.7c-0.6,3.2-1.8,6.1-3.4,8.9
		c-2.2,3.9-5.1,7.4-8.3,10.5c-10.2,9.5-22.1,15.7-36,17.6c-5,0.7-9.9,0.4-14.7-1.4c-7.7-2.8-11.1-9-9.8-17c0.6-3.4,1.7-6.6,3.5-9.4
		c2.1-3.2,4.3-6.4,7-9.1c9.7-9.9,21.4-16.1,35-18.7C762.8,308.1,765.1,308.1,767.3,307.9z"/>
	<path class="st0" d="M641.5,524.9c-1.8-0.3-4.6-0.5-7.2-1.1c-9.2-2.2-14.4-9.1-11.6-20.1c1.2-4.7,3.8-8.8,6.8-12.6
		c6.8-8.3,15.4-14.3,25.3-18.4c7-2.9,14.3-4.6,21.9-4.3c2.9,0.1,5.7,0.7,8.4,1.8c7.4,3,10.9,9.5,9.3,17.3c-0.8,4-2.5,7.6-4.7,10.9
		c-2.3,3.5-5,6.6-8.1,9.4c-9.7,8.8-21,14.5-34,16.5C646,524.7,644.2,524.7,641.5,524.9z"/>
	<path class="st0" d="M860.6,468c2.6,0.4,5.8,0.6,8.8,1.6c7.7,2.4,12.5,8.4,10.5,18.3c-0.7,3.5-2.1,6.8-4.2,9.6
		c-2.3,3.1-4.6,6.2-7.3,8.9c-10.3,10-22.5,16.1-36.8,18c-4.2,0.6-8.3,0.3-12.4-0.8c-9.3-2.5-13.6-10.1-11.2-19.6
		c1-3.8,2.7-7.1,5-10.3c2.9-4.2,6.5-7.9,10.5-11.1c8.5-6.8,18-11.6,28.8-13.5C854.8,468.6,857.4,468.4,860.6,468z"/>
	<path class="st0" d="M781.2,444.5c-4.4-0.1-8.6-0.7-12.5-2.8c-4.7-2.6-7.3-6.6-7.4-12c-0.1-2.6,0.3-5.1,1.1-7.5
		c1.3-3.7,3.2-7,5.5-10c4.2-5.6,9.4-10,15.2-13.8c8.3-5.4,17.3-8.9,27.2-10c4.7-0.5,9.3-0.1,13.7,1.5c8,2.9,11.6,9.6,9.7,17.9
		c-0.8,3.8-2.5,7.2-4.6,10.5c-2.5,3.9-5.7,7.3-9.2,10.4c-8.9,7.7-19,12.9-30.6,15.2C786.6,444.1,783.9,444.2,781.2,444.5z"/>
	<path class="st0" d="M952.7,307.9c3.7-0.1,7.3,0.2,10.8,1.6c7.4,2.9,11,9.5,9.4,17.3c-1,5.1-3.4,9.6-6.6,13.7
		c-7.4,9.4-17,15.8-28.1,20.2c-5.3,2-10.7,3.3-16.3,3.5c-3.2,0.1-6.5-0.1-9.5-1c-10-2.7-13.7-9.8-11.3-19.9
		c1.1-4.7,3.7-8.8,6.8-12.6c7.7-9.4,17.5-15.8,28.9-19.9C941.8,309,947.1,307.8,952.7,307.9z"/>
</g>
</svg>
