<svg xmlns="http://www.w3.org/2000/svg" width="800" viewBox="0 0 266.3 163.9">
  <path fill="none" stroke="#616262" stroke-miterlimit="10" stroke-width="3" d="m4.1 91.6 71 32.5m0 0h124m0 0 63.1-28.4M4.1 91.6 73.8 4.1m188.4 91.6L196 28.5M73.8 4.1 196 28.5" opacity=".8"/>
  <path fill="none" stroke="#09f" stroke-miterlimit="10" stroke-width="3" d="m73.8 4.1 1.3 120m124 0L73.8 4.1" opacity=".8"/>
  <g fill="none" stroke="#09f" stroke-miterlimit="10" stroke-width="3" opacity=".8">
    <path d="m199.1 124.1 1.5 1.4"/>
    <path stroke-dasharray="0 0 4.2 4.2" d="m203.6 128.4 22.6 21.6"/>
    <path d="m227.7 151.4 1.4 1.4"/>
  </g>
  <g fill="none" stroke="#09f" stroke-miterlimit="10" stroke-width="3" opacity=".8">
    <path d="M75.1 124.1v2"/>
    <path stroke-dasharray="0 0 4 4" d="m75.1 130.1.4 29.8"/>
    <path d="M75.5 161.9v2"/>
  </g>
  <path fill="#f36" d="M107.7 93.5v-.7c0-2.3.8-4 4.1-6.3 2-1.4 2.6-2.1 2.6-3.4 0-1.4-1-2.8-3.5-2.8-2.2 0-3.6 1.2-3.9 3.2h-5.7c.3-2.8 2.1-7.4 9.8-7.4 6.9 0 9.2 4 9.2 6.8 0 2.4-.5 4-3.9 6.5-2 1.4-2.8 2.3-2.8 3.8v.3h-5.9Zm0 7.8v-5.7h6v5.7h-6Z"/>
  <circle cx="4.1" cy="91.6" r="4.1" fill="#616262"/>
  <circle cx="262.2" cy="95.7" r="4.1" fill="#616262"/>
  <circle cx="73.8" cy="4.1" r="4.1" fill="#09f"/>
  <circle cx="196" cy="28.5" r="4.1" fill="#616262"/>
  <circle cx="199.1" cy="124.1" r="4.1" fill="#09f"/>
  <circle cx="75.1" cy="124.1" r="4.1" fill="#09f"/>
</svg>
