<svg xmlns="http://www.w3.org/2000/svg" id="_Слой_1" data-name="Слой 1" viewBox="0 0 920.7 375.1" width="800">
  <defs>
    <style>
      .cls-1{stroke:#d32f2f;stroke-linecap:square;stroke-miterlimit:10;stroke-width:3.5px;fill:none}.cls-3{fill:none;stroke-linejoin:round;stroke-width:2.5px}.cls-4{font-size:18px;isolation:isolate}.cls-4,.cls-5{font-family:ArialMT,Arial}.cls-4,.cls-6{fill:#616161}.cls-7{fill:#69f}.cls-5{fill:#818181;font-size:38.8px}.cls-3{stroke:rgba(97,97,97,.8);stroke-linecap:round}
    </style>
  </defs>
  <path fill="none" stroke="rgba(192,192,192,.8)" stroke-dasharray="0 0 10.5 8" stroke-linejoin="round" stroke-width="2.5" d="M-114.1 42h1822m-1822 75h1822m-1822 75h1822m-1822 75h1822m-1822 75h1822"/>
  <text class="cls-4" transform="translate(520.9 88.4)"><tspan x="0" y="0">3</tspan></text>
  <path d="m537.5 42 1 75" class="cls-3"/>
  <text class="cls-4" transform="translate(499.9 157.4)"><tspan x="0" y="0">1</tspan></text>
  <path d="m538.5 117-36 75" class="cls-3"/>
  <text class="cls-4" transform="translate(568.9 159.4)"><tspan x="0" y="0">4</tspan></text>
  <path d="m538.5 117 38 75" class="cls-3"/>
  <text class="cls-4" transform="translate(454.9 229.4)"><tspan x="0" y="0">2</tspan></text>
  <path d="m502.5 192-53 75" class="cls-3"/>
  <text class="cls-4" transform="translate(520.9 236.4)"><tspan x="0" y="0">4</tspan></text>
  <path d="m502.5 192 14 75" class="cls-3"/>
  <text class="cls-4" transform="translate(557.9 235.4)"><tspan x="0" y="0">1</tspan></text>
  <path d="M576.5 192v75" class="cls-3"/>
  <text class="cls-4" transform="translate(628.9 233.4)"><tspan x="0" y="0">2</tspan></text>
  <path d="m576.5 192 74 75" class="cls-3"/>
  <text class="cls-4" transform="translate(661.9 311.4)"><tspan x="0" y="0">1</tspan></text>
  <path d="M650.5 267v75" class="cls-3"/>
  <text class="cls-4" transform="translate(582.9 309.4)"><tspan x="0" y="0">2</tspan></text>
  <path d="M576.5 267v75" class="cls-3"/>
  <text class="cls-4" transform="translate(524.9 313.4)"><tspan x="0" y="0">2</tspan></text>
  <path d="M516.5 267v75" class="cls-3"/>
  <text class="cls-4" transform="translate(665.9 76.4)"><tspan x="0" y="0">4</tspan></text>
  <path d="m537.5 42 235 75" class="cls-3"/>
  <text class="cls-4" transform="translate(738.9 159.4)"><tspan x="0" y="0">1</tspan></text>
  <path d="m772.5 117-23 75" class="cls-3"/>
  <text class="cls-4" transform="translate(723.9 232.4)"><tspan x="0" y="0">2</tspan></text>
  <path d="m749.5 192-11 75" class="cls-3"/>
  <text class="cls-4" transform="translate(720.9 314.4)"><tspan x="0" y="0">3</tspan></text>
  <path d="M738.5 267v75" class="cls-3"/>
  <text class="cls-4" transform="translate(818.9 157.4)"><tspan x="0" y="0">3</tspan></text>
  <path d="m772.5 117 57 75" class="cls-3"/>
  <text class="cls-4" transform="translate(794.9 236.4)"><tspan x="0" y="0">1</tspan></text>
  <path d="m829.5 192-28 75" class="cls-3"/>
  <text class="cls-4" transform="translate(861.9 234.4)"><tspan x="0" y="0">2</tspan></text>
  <path d="m829.5 192 42 75" class="cls-3"/>
  <text class="cls-4" transform="translate(784.9 304.4)"><tspan x="0" y="0">2</tspan></text>
  <path d="M801.5 267v75" class="cls-3"/>
  <text class="cls-4" transform="translate(880.9 314.4)"><tspan x="0" y="0">1</tspan></text>
  <path d="M871.5 267v75" class="cls-3"/>
  <text class="cls-4" transform="translate(390.9 75.4)"><tspan x="0" y="0">2</tspan></text>
  <path d="m537.5 42-229 75" class="cls-3"/>
  <text class="cls-4" transform="translate(237.9 152.4)"><tspan x="0" y="0">1</tspan></text>
  <path d="m308.5 117-99 75" class="cls-3"/>
  <text class="cls-4" transform="translate(283.9 163.4)"><tspan x="0" y="0">3</tspan></text>
  <path d="m308.5 117-12 75" class="cls-3"/>
  <text class="cls-4" transform="translate(349.9 154.4)"><tspan x="0" y="0">4</tspan></text>
  <path d="m308.5 117 66 75" class="cls-3"/>
  <text class="cls-4" transform="translate(169.9 219.4)"><tspan x="0" y="0">4</tspan></text>
  <path d="m209.5 192-53 75" class="cls-3"/>
  <text class="cls-4" transform="translate(139.9 304.4)"><tspan x="0" y="0">3</tspan></text>
  <path d="M156.5 267v75" class="cls-3"/>
  <text class="cls-4" transform="translate(243.9 231.4)"><tspan x="0" y="0">4</tspan></text>
  <path d="m296.5 192-64 75" class="cls-3"/>
  <text class="cls-4" transform="translate(317.9 235.4)"><tspan x="0" y="0">1</tspan></text>
  <path d="m296.5 192 19 75" class="cls-3"/>
  <text class="cls-4" transform="translate(215.9 304.4)"><tspan x="0" y="0">1</tspan></text>
  <path d="M232.5 267v75" class="cls-3"/>
  <text class="cls-4" transform="translate(391.9 237.4)"><tspan x="0" y="0">1</tspan></text>
  <path d="m374.5 192 15 75" class="cls-3"/>
  <text class="cls-4" transform="translate(398.9 316.4)"><tspan x="0" y="0">3</tspan></text>
  <path d="M389.5 267v75" class="cls-3"/>
  <path d="M544.5 42a7 7 0 1 1-14 0 7 7 0 0 1 14 0Zm1 75a7 7 0 1 1-14 0 7 7 0 0 1 14 0Zm-36 75a7 7 0 1 1-14 0 7 7 0 0 1 14 0Zm74 0a7 7 0 1 1-14 0 7 7 0 0 1 14 0Z" class="cls-6"/>
  <path d="m442.5 260 14 14m-14 0 14-14" class="cls-1"/>
  <path d="M523.5 267a7 7 0 1 1-14 0 7 7 0 0 1 14 0Zm60 0a7 7 0 1 1-14 0 7 7 0 0 1 14 0Zm74 0a7 7 0 1 1-14 0 7 7 0 0 1 14 0Z" class="cls-6"/>
  <path d="M657.5 342a7 7 0 1 1-14 0 7 7 0 0 1 14 0Zm-74 0a7 7 0 1 1-14 0 7 7 0 0 1 14 0Zm-60 0a7 7 0 1 1-14 0 7 7 0 0 1 14 0Z" class="cls-7"/>
  <path d="M779.5 117a7 7 0 1 1-14 0 7 7 0 0 1 14 0Zm-23 75a7 7 0 1 1-14 0 7 7 0 0 1 14 0Zm-11 75a7 7 0 1 1-14 0 7 7 0 0 1 14 0Z" class="cls-6"/>
  <path d="M745.5 342a7 7 0 1 1-14 0 7 7 0 0 1 14 0Z" class="cls-7"/>
  <path d="M836.5 192a7 7 0 1 1-14 0 7 7 0 0 1 14 0Zm-28 75a7 7 0 1 1-14 0 7 7 0 0 1 14 0Zm70 0a7 7 0 1 1-14 0 7 7 0 0 1 14 0Z" class="cls-6"/>
  <path d="M808.5 342a7 7 0 1 1-14 0 7 7 0 0 1 14 0Zm70 0a7 7 0 1 1-14 0 7 7 0 0 1 14 0Z" class="cls-7"/>
  <path d="M315.5 117a7 7 0 1 1-14 0 7 7 0 0 1 14 0Zm-99 75a7 7 0 1 1-14 0 7 7 0 0 1 14 0Zm87 0a7 7 0 1 1-14 0 7 7 0 0 1 14 0Zm78 0a7 7 0 1 1-14 0 7 7 0 0 1 14 0Zm-218 75a7 7 0 1 1-14 0 7 7 0 0 1 14 0Z" class="cls-6"/>
  <path d="M163.5 342a7 7 0 1 1-14 0 7 7 0 0 1 14 0Z" class="cls-7"/>
  <path d="M239.5 267a7 7 0 1 1-14 0 7 7 0 0 1 14 0Z" class="cls-6"/>
  <path d="m308.5 260 14 14m-14 0 14-14" class="cls-1"/>
  <path d="M239.5 342a7 7 0 1 1-14 0 7 7 0 0 1 14 0Z" class="cls-7"/>
  <path d="M396.5 267a7 7 0 1 1-14 0 7 7 0 0 1 14 0Z" class="cls-6"/>
  <path d="M396.5 342a7 7 0 1 1-14 0 7 7 0 0 1 14 0Z" class="cls-7"/>
  <text class="cls-5" transform="translate(14.3 91.3)"><tspan x="0" y="0">1ч</tspan></text>
  <text class="cls-5" transform="translate(18.5 169.3)"><tspan x="0" y="0">2ч</tspan></text>
  <text class="cls-5" transform="translate(18.5 245)"><tspan x="0" y="0">3ч</tspan></text>
  <text class="cls-5" transform="translate(18.5 317.6)"><tspan x="0" y="0">4ч</tspan></text>
</svg>
