<svg xmlns="http://www.w3.org/2000/svg" id="_Слой_1" data-name="Слой 1" viewBox="0 0 520 311" width="800">
  <defs>
    <style>
      .cls-2{font-family:ArialMT,Arial;font-size:20px;isolation:isolate;fill:#616161}.cls-4{fill:none;stroke:rgba(97,97,97,.8);stroke-linecap:round;stroke-linejoin:round;stroke-width:2.5px}
    </style>
  </defs>
  <text class="cls-2" transform="translate(172 274)"><tspan x="0" y="0">У</tspan></text>
  <path d="m269 295-158-85" class="cls-4"/>
  <text class="cls-2" transform="translate(54 177)"><tspan x="0" y="0">Д</tspan></text>
  <path d="M111 210 44 104" class="cls-4"/>
  <text class="cls-2" transform="translate(124 160)"><tspan x="0" y="0">П</tspan></text>
  <path d="m111 210-1-106" class="cls-4"/>
  <text class="cls-2" transform="translate(248 254)"><tspan x="0" y="0">Д</tspan></text>
  <path d="M269 295v-85" class="cls-4"/>
  <text class="cls-2" transform="translate(223 171)"><tspan x="0" y="0">У</tspan></text>
  <path d="m269 210-49-106" class="cls-4"/>
  <text class="cls-2" transform="translate(304 168)"><tspan x="0" y="0">П</tspan></text>
  <path d="m269 210 43-106" class="cls-4"/>
  <text class="cls-2" transform="translate(354 274)"><tspan x="0" y="0">П</tspan></text>
  <path d="m269 295 157-85" class="cls-4"/>
  <text class="cls-2" transform="translate(405 162)"><tspan x="0" y="0">У</tspan></text>
  <path d="m426 210 2-106" class="cls-4"/>
  <text class="cls-2" transform="translate(469 167)"><tspan x="0" y="0">Д</tspan></text>
  <path d="m426 210 56-106" class="cls-4"/>
  <text class="cls-2" transform="translate(15 68)"><tspan x="0" y="0">П</tspan></text>
  <path d="M44 104V27" class="cls-4"/>
  <text class="cls-2" transform="translate(126 68)"><tspan x="0" y="0">Д</tspan></text>
  <path d="M110 104V27" class="cls-4"/>
  <text class="cls-2" transform="translate(197 71)"><tspan x="0" y="0">П</tspan></text>
  <path d="M220 104V27" class="cls-4"/>
  <text class="cls-2" transform="translate(325 69)"><tspan x="0" y="0">У</tspan></text>
  <path d="M312 104V27" class="cls-4"/>
  <text class="cls-2" transform="translate(404 68)"><tspan x="0" y="0">Д</tspan></text>
  <path d="M428 104V27" class="cls-4"/>
  <text class="cls-2" transform="translate(497 67)"><tspan x="0" y="0">У</tspan></text>
  <path d="m482 104 1-77" class="cls-4"/>
  <path d="M276 295a7 7 0 1 1-14 0 7 7 0 0 1 14 0Zm-158-85a7 7 0 1 1-14 0 7 7 0 0 1 14 0ZM51 104a7 7 0 1 1-14 0 7 7 0 0 1 14 0Zm66 0a7 7 0 1 1-14 0 7 7 0 0 1 14 0Zm159 106a7 7 0 1 1-14 0 7 7 0 0 1 14 0Zm-49-106a7 7 0 1 1-14 0 7 7 0 0 1 14 0Zm92 0a7 7 0 1 1-14 0 7 7 0 0 1 14 0Zm114 106a7 7 0 1 1-14 0 7 7 0 0 1 14 0Zm2-106a7 7 0 1 1-14 0 7 7 0 0 1 14 0Zm54 0a7 7 0 1 1-14 0 7 7 0 0 1 14 0Z" style="fill:#616161"/>
  <path d="M51 27a7 7 0 1 1-14 0 7 7 0 0 1 14 0Zm66 0a7 7 0 1 1-14 0 7 7 0 0 1 14 0Zm110 0a7 7 0 1 1-14 0 7 7 0 0 1 14 0Zm92 0a7 7 0 1 1-14 0 7 7 0 0 1 14 0Zm116 0a7 7 0 1 1-14 0 7 7 0 0 1 14 0Zm55 0a7 7 0 1 1-14 0 7 7 0 0 1 14 0Z" style="fill:#69f"/>
</svg>
