<svg xmlns="http://www.w3.org/2000/svg" id="_Слой_1" data-name="Слой 1" viewBox="0 0 439.6 369.9" width="800">
  <defs>
    <style>
      .cls-2{fill:#69f}.cls-3{fill:#616161}.cls-4{fill:none;stroke:rgba(97,97,97,.8);stroke-linecap:round;stroke-linejoin:round;stroke-width:2.5px}
    </style>
  </defs>
  <path d="M264.5 167.4c-.4-.5-1-.8-2-.9-1 0-1.9.5-2.7 1.5l-.5.8a11 11 0 0 0-1.3 4.6c0 1.3.5 2 1.3 2.4l.8.1a5.7 5.7 0 0 0 4.6-2.3l.3-.2c.2 0 .3.1.3.3 0 .2-.3.5-.8 1a6.4 6.4 0 0 1-4.4 1.7c-1.5 0-2.5-.5-3.2-1.7-.4-.6-.5-1.3-.5-2.1 0-1.6.6-3 1.8-4.4a6 6 0 0 1 4-2.2h.3c1.2 0 2 .4 2.5 1.1.2.3.2.6.2.9 0 .7-.2 1.1-.8 1.4h-.4c-.5 0-.8-.1-.9-.5v-.2c0-.4.1-.7.4-1 .2-.1.6-.3 1-.3Zm8.1 9.4-.5 2.8h-6l.2-.5 3.2-3.5c1-1.3 1.6-2.5 1.6-3.6 0-1-.3-1.7-.8-2.1-.4-.4-.8-.5-1.3-.5-.8 0-1.4.3-1.9 1l-.3.6h.2c.4 0 .7.2.8.6v.3c0 .4-.1.7-.6.8h-.2c-.4 0-.6-.2-.8-.5v-.4c0-.8.3-1.5 1-2.1a3 3 0 0 1 2-.8c1.2 0 2 .4 2.7 1.2.4.4.6 1 .7 1.6v.3c0 .8-.3 1.5-.9 2.2l-1.5 1.5-1 .9v.1l-1.8 1.7h2.9c1 0 1.4 0 1.5-.2.1-.1.3-.6.4-1.4h.4Z" class="cls-3"/>
  <path d="M228.3 188.2h77.6" class="cls-4"/>
  <path d="M211.5 146.4c-.4-.5-1-.8-2-.9-1 0-1.9.5-2.7 1.5l-.5.8a11 11 0 0 0-1.3 4.6c0 1.3.5 2 1.3 2.4l.8.1a5.7 5.7 0 0 0 4.6-2.3l.3-.2c.2 0 .3.1.3.3 0 .2-.3.5-.8 1a6.4 6.4 0 0 1-4.4 1.7c-1.5 0-2.5-.5-3.2-1.7-.4-.6-.5-1.3-.5-2.1 0-1.6.6-3 1.8-4.4a6 6 0 0 1 4-2.2h.3c1.2 0 2 .4 2.5 1.1.2.3.2.6.2.9 0 .7-.2 1.1-.8 1.4h-.4c-.5 0-.8-.1-.9-.5v-.2c0-.4.1-.7.4-1 .2-.1.6-.3 1-.3Zm5.6 1.9v9c0 .4 0 .6.2.7l1.3.1h.5v.5a42.9 42.9 0 0 0-5.2 0v-.5h.5c.8 0 1.3 0 1.4-.3l.1-.4V149c-.6.3-1.3.4-2.1.4v-.5c1.3 0 2.3-.3 3-1l.3.1v.3Z" class="cls-3"/>
  <path d="M228.3 188.2v-77.6" class="cls-4"/>
  <path d="M191.5 198.4c-.4-.5-1-.8-2-.9-1 0-1.9.5-2.7 1.5l-.5.8a11 11 0 0 0-1.3 4.6c0 1.3.5 2 1.3 2.4l.8.1a5.7 5.7 0 0 0 4.6-2.3l.3-.2c.2 0 .3.1.3.3 0 .2-.3.5-.8 1a6.4 6.4 0 0 1-4.4 1.7c-1.5 0-2.5-.5-3.2-1.7-.4-.6-.5-1.3-.5-2.1 0-1.6.6-3 1.8-4.4a6 6 0 0 1 4-2.2h.3c1.2 0 2 .4 2.5 1.1.2.3.2.6.2.9 0 .7-.2 1.1-.8 1.4h-.4c-.5 0-.8-.1-.9-.5v-.2c0-.4.1-.7.4-1 .2-.1.6-.3 1-.3Zm1.3 9.6v-.5l5-7.6c0-.1.1-.2.3-.2l.2.2v7.6h1.6v.5h-1.6v1.4l.2.6 1 .1h.4v.5a35.6 35.6 0 0 0-4.4 0v-.5h.4c.6 0 1 0 1.1-.2l.1-.5V208h-4.3m4.4-.5v-6l-4 6h4Z" class="cls-3"/>
  <path d="M228.3 188.2h-77.7" class="cls-4"/>
  <path d="M243.5 220.4c-.4-.5-1-.8-2-.9-1 0-1.9.5-2.7 1.5l-.5.8a11 11 0 0 0-1.3 4.6c0 1.3.5 2 1.3 2.4l.8.1a5.7 5.7 0 0 0 4.6-2.3l.3-.2c.2 0 .3.1.3.3 0 .2-.3.5-.8 1a6.4 6.4 0 0 1-4.4 1.7c-1.5 0-2.5-.5-3.2-1.7-.4-.6-.5-1.3-.5-2.1 0-1.6.6-3 1.8-4.4a6 6 0 0 1 4-2.2h.3c1.2 0 2 .4 2.5 1.1.2.3.2.6.2.9 0 .7-.2 1.1-.8 1.4h-.4c-.5 0-.8-.1-.9-.5v-.2c0-.4.1-.7.4-1 .2-.1.6-.3 1-.3Zm5.5 6.6c1.1.2 1.9.7 2.4 1.5l.3 1.4c0 .9-.3 1.7-1.1 2.3-.7.5-1.4.8-2.3.8-1 0-2-.3-2.6-1-.4-.4-.7-1-.7-1.5s.3-.8.7-1h.3c.4 0 .6.2.8.6v.3c0 .5-.1.8-.5.9h-.5c.4.7 1 1 2 1.2h.5c.6 0 1.1-.3 1.5-1 .2-.4.3-1 .3-1.6 0-1.4-.5-2.3-1.3-2.6a2 2 0 0 0-.6 0h-.7c-.3 0-.4-.1-.4-.3l.2-.1.6-.1c.6 0 1-.2 1.3-.6l.2-.2c.3-.5.4-1.2.4-1.9 0-1-.4-1.6-1.1-1.7h-.4c-.8 0-1.4.1-1.9.5 0 .2-.2.3-.3.4.7 0 1 .3 1 .8 0 .4-.1.6-.5.8a1 1 0 0 1-.3 0c-.4 0-.7-.2-.8-.5v-.3c0-.7.3-1.3 1-1.7a4 4 0 0 1 1.8-.5c1 0 1.8.3 2.4.9.4.4.6.8.6 1.3 0 1-.4 1.7-1.1 2.3l-1.1.6Z" class="cls-3"/>
  <path d="M228.3 188.2V266" class="cls-4"/>
  <path d="M193 97c0 .6-.3 1-.8 1.2a1 1 0 0 1-.5.1c-.4 0-.7-.2-.8-.6v-.2c0-.5.2-.8.6-1l.6-.3c.4 0 .7.3.8.7v.2m-1.7 8.6-1 2.4-.6 2.3c0 .5.2.8.6.8 1 0 1.7-.9 2.2-2.6l.1-.3c0-.2.2-.3.2-.3h.2c.1 0 .2 0 .2.2s-.1.7-.5 1.4c-.6 1.4-1.5 2.1-2.5 2.1-.8 0-1.4-.3-1.7-1l-.2-.9.6-1.8a549.4 549.4 0 0 1 1.8-5.5c0-.5-.2-.7-.6-.7-.8 0-1.5.7-2 2l-.3.8-.4.4c-.1 0-.2 0-.2-.2 0-.3.1-.8.5-1.4.6-1.4 1.5-2.1 2.5-2.1.8 0 1.4.3 1.7 1l.2.8-.3 1.3-.5 1.3Zm7.8-1.1v9c0 .4.1.6.3.6.1.1.6.2 1.3.2h.5v.5a42.9 42.9 0 0 0-5.2 0v-.5h.5c.8 0 1.3-.1 1.4-.3v-8.8a4 4 0 0 1-2 .4v-.5c1.3 0 2.2-.3 3-1h.3v.4Z" class="cls-3"/>
  <path d="m228.3 110.6-38.9-38.9" class="cls-4"/>
  <path d="M264 98c0 .6-.3 1-.8 1.2a1 1 0 0 1-.5.1c-.4 0-.7-.2-.8-.6v-.2c0-.5.2-.8.6-1l.6-.3c.5 0 .7.3.8.7v.2m-1.7 8.6-1 2.4-.6 2.3c0 .5.2.8.6.8 1 0 1.7-.9 2.2-2.6l.1-.3c0-.2.2-.3.2-.3h.2c.1 0 .2 0 .2.2s-.1.7-.5 1.4c-.6 1.4-1.5 2.1-2.5 2.1-.8 0-1.4-.3-1.7-1l-.2-.9.6-1.8a549.4 549.4 0 0 1 1.8-5.5c0-.5-.2-.7-.6-.7-.8 0-1.5.7-2 2l-.3.8-.4.4c-.1 0-.2 0-.2-.2 0-.3.1-.8.5-1.4.6-1.4 1.5-2.1 2.5-2.1.8 0 1.4.3 1.7 1l.2.8-.3 1.3-.5 1.3Zm7.8 3.5c1 .2 1.9.8 2.3 1.6.3.4.4.9.4 1.4 0 .9-.4 1.6-1.1 2.3a3.8 3.8 0 0 1-4.9-.2c-.5-.5-.7-1-.7-1.6 0-.5.2-.8.7-.9h.2c.4 0 .7.2.9.5v.4c0 .4-.2.7-.6.8-.1 0-.3.1-.4 0 .4.8 1 1.1 2 1.3h.4c.7 0 1.2-.3 1.5-1 .2-.4.3-1 .3-1.6 0-1.5-.4-2.3-1.2-2.6a2 2 0 0 0-.7-.1h-.7c-.2 0-.3 0-.4-.2 0-.1.1-.2.3-.2h.6c.6 0 1-.3 1.3-.7l.1-.2c.3-.5.5-1.1.5-1.8 0-1-.4-1.6-1.2-1.8h-.4c-.7 0-1.3.2-1.8.6l-.3.4c.7 0 1 .2 1 .8 0 .4-.2.6-.5.7a1 1 0 0 1-.3 0c-.4 0-.7-.1-.8-.5v-.2c0-.8.3-1.3 1-1.8.5-.3 1.1-.4 1.8-.4 1 0 1.8.2 2.4.8.4.5.6.9.6 1.4 0 .9-.4 1.6-1.2 2.2-.3.3-.7.5-1 .6Z" class="cls-3"/>
  <path d="M228.3 110.6 267 71.7" class="cls-4"/>
  <path d="M167.2 48.6c0 .9-.3 2-.7 3.6-1 3-2.1 4.7-3.7 5.1l-.8.1c-1.4 0-2.3-.4-2.8-1.4-.2-.4-.3-.9-.3-1.4 0-.8.4-2.2 1-4l.3-.7a4 4 0 0 0 .4-1.6c0-.5-.2-.8-.6-.8-.8 0-1.5.7-2 2l-.3.9-.4.4c-.1 0-.2-.1-.2-.3 0-.2.1-.7.5-1.4.6-1.4 1.5-2.1 2.5-2.1.8 0 1.4.3 1.7 1l.2.9-.3 1.1a20 20 0 0 0-1.3 4.6v.3c0 1.2.5 1.9 1.4 2h.3c1.2 0 2.3-1 3.2-3.1.5-1.3.8-2.3.9-3.1a3 3 0 0 0-.8-2c-.3-.2-.4-.4-.4-.6 0-.4.2-.7.6-1l.5-.1c.5 0 .8.3 1 .8v.8Zm7.6 9.2-.5 2.8h-6l.2-.5 3.1-3.5c1.2-1.3 1.7-2.5 1.7-3.6a3 3 0 0 0-.8-2.2 2 2 0 0 0-1.3-.4c-.8 0-1.4.3-1.9 1l-.3.6h.2c.4 0 .7.2.8.6v.3c0 .4-.1.7-.6.8h-.2c-.4 0-.6-.2-.8-.5v-.4c0-.8.3-1.5 1-2.1a3 3 0 0 1 2-.8c1.1 0 2 .4 2.7 1.2.4.4.6 1 .7 1.6v.3a3 3 0 0 1-1 2.2 6 6 0 0 1-1.4 1.5l-1 .9-.1.1-1.7 1.7h2.9c1 0 1.4 0 1.5-.2.1-.1.3-.6.4-1.4h.4Z" class="cls-3"/>
  <path d="M189.4 71.7V33" class="cls-4"/>
  <path d="M291.2 49.6c0 .9-.3 2-.7 3.6-1 3-2.1 4.7-3.7 5.1l-.8.1c-1.4 0-2.3-.4-2.8-1.4-.2-.4-.3-.9-.3-1.4 0-.8.4-2.2 1-4l.3-.7a4 4 0 0 0 .4-1.6c0-.5-.2-.8-.5-.8-.9 0-1.6.7-2.1 2l-.3.9-.3.4c-.2 0-.3-.1-.3-.3 0-.2.1-.7.5-1.4.6-1.4 1.5-2.1 2.5-2.1.8 0 1.4.3 1.7 1l.2.9-.3 1.1a20 20 0 0 0-1.3 4.6v.3c0 1.2.5 1.9 1.5 2h.2c1.2 0 2.3-1 3.2-3.1.5-1.3.8-2.3.9-3.1a3 3 0 0 0-.8-2c-.3-.2-.4-.4-.4-.6 0-.4.2-.7.6-1l.6-.1c.4 0 .7.3.9.8v.8Zm5 6.4c1.1.2 1.9.7 2.4 1.5l.3 1.4a3 3 0 0 1-1.1 2.3c-.7.5-1.4.8-2.3.8-1 0-2-.3-2.6-1-.4-.4-.7-1-.7-1.5s.3-.8.7-1h.3c.4 0 .6.2.8.5v.4c0 .5-.1.7-.5.9h-.5c.4.7 1 1 2 1.2h.5c.6 0 1.1-.3 1.5-1 .2-.4.3-1 .3-1.6 0-1.4-.5-2.3-1.3-2.6a2 2 0 0 0-.7 0h-.7c-.2 0-.3-.1-.4-.3l.3-.2h.6c.6 0 1-.2 1.3-.6l.2-.3c.3-.5.4-1 .4-1.8 0-1-.4-1.6-1.1-1.7h-.4c-.8 0-1.4.1-1.9.5 0 .2-.2.3-.3.4.7 0 1 .3 1 .8 0 .4-.2.6-.5.8a1 1 0 0 1-.3 0c-.4 0-.7-.2-.8-.5V53c0-.7.3-1.3 1-1.7a4 4 0 0 1 1.8-.5c1 0 1.8.3 2.4.9.4.4.6.8.6 1.3 0 1-.4 1.7-1.1 2.3l-1.2.6Z" class="cls-3"/>
  <path d="M267.1 71.7V33" class="cls-4"/>
  <path d="M311 141c0 .6-.3 1-.8 1.2a1 1 0 0 1-.5.1c-.4 0-.7-.2-.8-.6v-.2c0-.5.2-.8.6-1 .2-.2.4-.2.6-.2.5 0 .7.2.8.6v.2m-1.7 8.6-1 2.4-.6 2.3c0 .6.2.8.6.8 1 0 1.7-.9 2.2-2.6l.1-.3.2-.4h.2c.1 0 .2.1.2.3 0 .2-.1.7-.5 1.4-.6 1.4-1.5 2.1-2.5 2.1-.8 0-1.4-.3-1.7-1l-.2-.9.6-1.8a549.4 549.4 0 0 1 1.8-5.5c0-.5-.2-.7-.6-.7-.8 0-1.5.7-2 2l-.3.8-.4.4c-.1 0-.2 0-.2-.2 0-.3.1-.7.5-1.4.6-1.4 1.5-2.1 2.5-2.1.8 0 1.4.3 1.7 1l.2.9-.3 1.2-.5 1.3Zm7.8-1.1v9c0 .4.1.6.3.6.1.2.6.2 1.3.2h.5v.5a42.9 42.9 0 0 0-5.2 0v-.5h.5c.8 0 1.3-.1 1.4-.3v-8.8a4 4 0 0 1-2 .4v-.5c1.3 0 2.2-.3 3-1h.3v.4Z" class="cls-3"/>
  <path d="m306 188.2 38.8-38.8" class="cls-4"/>
  <path d="M310 210c0 .6-.3 1-.8 1.2a1 1 0 0 1-.5.1c-.4 0-.7-.2-.8-.6v-.2c0-.5.2-.8.6-1 .2-.2.4-.2.6-.2.5 0 .7.2.8.6v.2m-1.7 8.6-1 2.4-.6 2.3c0 .6.2.8.6.8 1 0 1.7-.9 2.2-2.6l.1-.3.2-.4h.2c.1 0 .2.1.2.3 0 .2-.1.7-.5 1.4-.6 1.4-1.5 2.1-2.5 2.1-.8 0-1.4-.3-1.7-1l-.2-.9.6-1.8a549.4 549.4 0 0 1 1.8-5.5c0-.5-.2-.7-.6-.7-.8 0-1.5.7-2 2l-.3.8-.4.4c-.1 0-.2 0-.2-.2 0-.3.1-.7.5-1.4.6-1.4 1.5-2.1 2.5-2.1.8 0 1.4.3 1.7 1l.2.9-.3 1.2-.5 1.3Zm10.4 6.4-.5 2.8h-6l.1-.5.1-.1 3.1-3.5c1.1-1.2 1.7-2.4 1.7-3.5 0-1-.3-1.7-.9-2.2-.3-.3-.8-.4-1.3-.4-.7 0-1.3.3-1.8 1l-.3.6h.2c.4 0 .7.2.8.6v.2c0 .5-.2.7-.6.9h-.2c-.4 0-.7-.2-.8-.5v-.4c0-.9.3-1.6.9-2.2a3 3 0 0 1 2-.7c1.2 0 2.1.4 2.8 1.2.4.4.6 1 .6 1.6v.3c0 .8-.2 1.5-.8 2.2l-1.5 1.5-1 .8-.1.2-1.7 1.6h4.4l.3-1.5h.4Z" class="cls-3"/>
  <path d="m306 188.2 38.8 38.9" class="cls-4"/>
  <path d="M330.2 103.6c0 .9-.3 2-.7 3.6-1 3-2.1 4.7-3.7 5.1l-.8.1c-1.4 0-2.3-.4-2.8-1.4-.2-.4-.3-.9-.3-1.4 0-.8.4-2.2 1-4l.3-.7c.3-.7.4-1.3.4-1.7 0-.4-.2-.7-.5-.7-.9 0-1.6.7-2.1 2l-.3.9-.3.4c-.2 0-.3-.1-.3-.3 0-.2.1-.7.5-1.4.6-1.4 1.5-2.1 2.5-2.1.8 0 1.4.3 1.7 1l.2.9-.3 1.1a20 20 0 0 0-1.3 4.6v.3c0 1.2.5 1.9 1.5 2h.2c1.2 0 2.3-1 3.2-3.1.5-1.3.8-2.3.9-3.1a3 3 0 0 0-.8-2c-.3-.2-.4-.4-.4-.6 0-.4.2-.7.6-1l.6-.1c.4 0 .7.3.9.8v.8Zm5.1 1.7v9c0 .4 0 .6.2.7l1.3.1h.5v.5a42.9 42.9 0 0 0-5.2 0v-.5h.5c.8 0 1.3 0 1.4-.3l.1-.5V106c-.6.3-1.3.4-2.1.4v-.5c1.3 0 2.3-.3 3-1l.3.1v.3Z" class="cls-3"/>
  <path d="M344.8 149.4V91" class="cls-4"/>
  <path d="M386.2 160.6c0 .9-.3 2-.7 3.6-1 3-2.1 4.7-3.7 5.1l-.8.1c-1.4 0-2.3-.4-2.8-1.4-.2-.4-.3-.9-.3-1.4 0-.8.4-2.2 1-4l.3-.7a4 4 0 0 0 .4-1.6c0-.5-.2-.8-.5-.8-.9 0-1.6.7-2.1 2l-.3.9-.3.4c-.2 0-.3-.1-.3-.3 0-.2.1-.7.5-1.4.6-1.4 1.5-2.1 2.5-2.1.8 0 1.4.3 1.7 1l.2.9-.3 1.1a20 20 0 0 0-1.3 4.6v.3c0 1.2.5 1.9 1.5 2h.2c1.2 0 2.3-1 3.2-3.1.5-1.2.8-2.3.9-3.1a3 3 0 0 0-.8-2c-.3-.2-.4-.4-.4-.6 0-.4.2-.7.6-1l.6-.1c.4 0 .7.3.9.8v.8Zm7.6 9.2-.5 2.8h-6l.2-.5 3.1-3.5c1.2-1.3 1.7-2.5 1.7-3.6 0-1-.3-1.7-.8-2.1-.4-.4-.8-.5-1.3-.5-.8 0-1.4.3-1.9 1l-.3.6h.2c.4 0 .7.2.8.6v.3c0 .4-.2.7-.6.8h-.2c-.4 0-.7-.2-.8-.5v-.4c0-.8.3-1.5 1-2.1a3 3 0 0 1 2-.8c1.1 0 2 .4 2.7 1.2.4.4.6 1 .7 1.6v.3a3 3 0 0 1-1 2.2 6 6 0 0 1-1.4 1.5l-1 .9-.1.1-1.7 1.7h2.9c1 0 1.4 0 1.5-.2l.4-1.4h.4Z" class="cls-3"/>
  <path d="M344.8 149.4H403" class="cls-4"/>
  <path d="M385.2 204.6c0 .9-.3 2-.7 3.6-1 3-2.1 4.7-3.7 5.1l-.8.1c-1.4 0-2.3-.4-2.8-1.4-.2-.4-.3-.9-.3-1.4 0-.8.4-2.2 1-4l.3-.7a4 4 0 0 0 .4-1.6c0-.5-.2-.8-.5-.8-.9 0-1.6.7-2.1 2l-.3.9-.3.4c-.2 0-.3-.1-.3-.3 0-.2.1-.7.5-1.4.6-1.4 1.5-2.1 2.5-2.1.8 0 1.4.3 1.7 1l.2.9-.3 1.1a20 20 0 0 0-1.3 4.6v.3c0 1.2.5 1.9 1.5 2h.2c1.2 0 2.3-1 3.2-3.1.5-1.2.8-2.3.9-3.1a3 3 0 0 0-.8-2c-.3-.2-.4-.4-.4-.6 0-.4.2-.7.6-1l.6-.1c.4 0 .7.3.9.8v.8Zm7.6 9.2-.5 2.8h-6l.2-.5 3.1-3.5c1.2-1.3 1.7-2.5 1.7-3.6 0-1-.3-1.7-.8-2.1-.4-.4-.8-.5-1.3-.5-.8 0-1.4.3-1.9 1l-.3.6h.2c.4 0 .7.2.8.6v.3c0 .4-.2.7-.6.8h-.2c-.4 0-.7-.2-.8-.5v-.4c0-.8.3-1.5 1-2.1a3 3 0 0 1 2-.8c1.1 0 2 .4 2.7 1.2.4.4.6 1 .7 1.6v.3a3 3 0 0 1-1 2.2 6 6 0 0 1-1.4 1.5l-1 .9-.1.1-1.7 1.7h2.9c1 0 1.4 0 1.5-.2l.4-1.4h.4Z" class="cls-3"/>
  <path d="M344.8 227H403" class="cls-4"/>
  <path d="M325.2 260.6c0 .9-.3 2-.7 3.6-1 3-2.1 4.7-3.7 5.1l-.8.1c-1.4 0-2.3-.4-2.8-1.4-.2-.4-.3-.9-.3-1.4 0-.8.4-2.2 1-4l.3-.7a4 4 0 0 0 .4-1.6c0-.5-.2-.8-.5-.8-.9 0-1.6.7-2.1 2l-.3.9-.3.4c-.2 0-.3-.1-.3-.3 0-.2.1-.7.5-1.4.6-1.4 1.5-2.1 2.5-2.1.8 0 1.4.3 1.7 1l.2.9-.3 1.1a20 20 0 0 0-1.3 4.6v.3c0 1.2.5 1.9 1.5 2h.2c1.2 0 2.3-1 3.2-3.1.5-1.2.8-2.3.9-3.1a3 3 0 0 0-.8-2c-.3-.2-.4-.4-.4-.6 0-.4.2-.7.6-1l.6-.1c.4 0 .7.3.9.8v.8Zm5 6.4c1.1.2 1.9.7 2.4 1.6a2.9 2.9 0 0 1-.8 3.6c-.7.5-1.4.8-2.3.8-1 0-2-.3-2.6-1-.4-.4-.7-1-.7-1.5s.3-.8.7-1h.3c.4 0 .6.2.8.6v.3c0 .5-.1.8-.5.9h-.5c.4.7 1 1 2 1.2h.5c.6 0 1.1-.3 1.5-1 .2-.4.3-1 .3-1.6 0-1.4-.5-2.3-1.3-2.6a2 2 0 0 0-.7 0h-.7c-.2 0-.3-.1-.4-.3l.3-.1.6-.1c.6 0 1-.2 1.3-.6l.2-.2c.3-.5.4-1.2.4-1.9 0-1-.4-1.6-1.1-1.7h-.4c-.8 0-1.4.1-1.9.6l-.3.3c.7 0 1 .3 1 .8 0 .4-.2.7-.5.8a1 1 0 0 1-.3 0c-.4 0-.7-.2-.8-.5v-.3c0-.7.3-1.3 1-1.7a4 4 0 0 1 1.8-.5c1 0 1.8.3 2.4.9.4.4.6.8.6 1.3 0 1-.4 1.7-1.1 2.3l-1.2.6Z" class="cls-3"/>
  <path d="M344.8 227v58.3" class="cls-4"/>
  <path d="M113 198c0 .6-.3 1-.8 1.2a1 1 0 0 1-.5.1c-.4 0-.7-.2-.8-.6v-.2c0-.5.2-.8.6-1 .2-.2.4-.2.6-.2.5 0 .7.2.8.6v.2m-1.7 8.6-1 2.4-.6 2.3c0 .6.2.8.6.8 1 0 1.7-.9 2.2-2.6l.1-.3.2-.4h.1c.2 0 .3.1.3.3 0 .2-.1.7-.5 1.4-.6 1.4-1.5 2.1-2.5 2.1-.8 0-1.4-.3-1.7-1l-.2-.9.6-1.8a549.4 549.4 0 0 1 1.8-5.5c0-.5-.2-.7-.6-.7-.8 0-1.5.7-2 2l-.3.8-.4.4c-.1 0-.2 0-.2-.2 0-.3.1-.7.5-1.4.6-1.4 1.5-2.1 2.5-2.1.8 0 1.4.3 1.7 1l.2.9-.3 1.2-.5 1.3Zm10.4 6.4-.5 2.8h-6l.1-.5.1-.1 3.1-3.5c1.1-1.2 1.7-2.4 1.7-3.5 0-1-.3-1.7-.9-2.2-.3-.3-.8-.4-1.3-.4a2 2 0 0 0-1.8 1l-.3.6h.2c.4 0 .7.2.8.6v.2c0 .5-.2.7-.6.9h-.2c-.4 0-.7-.2-.8-.5v-.4c0-.9.3-1.6.9-2.2a3 3 0 0 1 2-.7c1.2 0 2.1.4 2.8 1.2.4.4.6 1 .6 1.6v.3c0 .8-.2 1.5-.8 2.2l-1.5 1.5-1 .8-.1.2-1.7 1.6h4.4l.3-1.5h.4Z" class="cls-3"/>
  <path d="M150.6 188.2H73" class="cls-4"/>
  <path d="M69.2 152.6c0 .9-.3 2-.7 3.6-1 3-2.1 4.7-3.7 5.1l-.8.1c-1.4 0-2.3-.4-2.8-1.4-.2-.4-.3-.9-.3-1.4 0-.8.4-2.2 1-4l.3-.7a4 4 0 0 0 .4-1.6c0-.5-.2-.8-.5-.8-.9 0-1.6.7-2.1 2l-.3.9-.3.4c-.2 0-.3-.1-.3-.3 0-.2.1-.7.5-1.4.6-1.4 1.5-2.1 2.5-2.1.8 0 1.4.3 1.7 1l.2.9-.3 1.1a20 20 0 0 0-1.3 4.6v.3c0 1.2.5 1.9 1.5 2h.2c1.2 0 2.3-1 3.2-3.1.5-1.2.8-2.3.9-3.1a3 3 0 0 0-.8-2c-.3-.2-.4-.4-.4-.6 0-.4.2-.7.6-1l.6-.1c.4 0 .7.3.9.8v.8Zm5.1 1.7v9c0 .4 0 .6.2.7l1.3.1h.5v.5a42.9 42.9 0 0 0-5.2 0v-.5h.5c.8 0 1.3 0 1.4-.3l.1-.4V155c-.6.3-1.3.4-2.1.4v-.5c1.3 0 2.3-.3 3-1l.3.1v.3Z" class="cls-3"/>
  <path d="m73 188.2-39-38.8" class="cls-4"/>
  <path d="M69.2 215.6c0 .9-.3 2-.7 3.6-1 3-2.1 4.7-3.7 5.1l-.8.1c-1.4 0-2.3-.4-2.8-1.4-.2-.4-.3-.9-.3-1.4 0-.8.4-2.2 1-4l.3-.7a4 4 0 0 0 .4-1.6c0-.5-.2-.8-.5-.8-.9 0-1.6.7-2.1 2l-.3.9-.3.4c-.2 0-.3-.1-.3-.3 0-.2.1-.7.5-1.4.6-1.4 1.5-2.1 2.5-2.1.8 0 1.4.3 1.7 1l.2.9-.3 1.1a20 20 0 0 0-1.3 4.6v.3c0 1.2.5 1.9 1.5 2h.2c1.2 0 2.3-1 3.2-3.1.5-1.2.8-2.3.9-3.1a3 3 0 0 0-.8-2c-.3-.2-.4-.4-.4-.6 0-.4.2-.7.6-1l.6-.1c.4 0 .7.3.9.8v.8Zm5 6.4c1.1.2 1.9.7 2.4 1.5l.3 1.4a3 3 0 0 1-1.1 2.3c-.7.5-1.4.8-2.3.8-1 0-2-.3-2.6-1-.4-.4-.7-1-.7-1.5s.3-.8.7-1h.3c.4 0 .6.2.8.6v.3c0 .5-.1.8-.5.9H71c.4.7 1 1 2 1.2h.5c.6 0 1.1-.3 1.5-1 .2-.4.3-1 .3-1.6 0-1.4-.5-2.3-1.3-2.6a2 2 0 0 0-.6 0h-.8c-.2 0-.3-.1-.3-.3l.2-.1.6-.1c.6 0 1-.2 1.3-.6l.2-.2c.3-.5.4-1.2.4-1.9 0-1-.4-1.6-1.1-1.7h-.4c-.8 0-1.4.1-1.9.5 0 .2-.2.3-.3.4.7 0 1 .3 1 .8 0 .4-.1.6-.5.8a1 1 0 0 1-.3 0c-.4 0-.7-.2-.8-.5v-.3c0-.7.3-1.3 1-1.7a4 4 0 0 1 1.8-.5c1 0 1.8.3 2.4.9.4.4.6.8.6 1.3 0 1-.4 1.7-1.1 2.3l-1.2.6Z" class="cls-3"/>
  <path d="m73 188.2-39 38.9" class="cls-4"/>
  <path d="M196 262c0 .6-.3 1-.8 1.2a1 1 0 0 1-.5.1c-.4 0-.7-.2-.8-.6v-.2c0-.5.2-.8.6-1l.6-.3c.4 0 .7.3.8.7v.2m-1.7 8.6-1 2.4-.6 2.3c0 .5.2.8.6.8 1 0 1.7-.9 2.2-2.6l.1-.3.2-.4h.2c.1 0 .2.1.2.3 0 .2-.1.7-.5 1.4-.6 1.4-1.5 2.1-2.5 2.1-.8 0-1.4-.3-1.7-1l-.2-.9.6-1.8a549.4 549.4 0 0 1 1.8-5.5c0-.5-.2-.7-.6-.7-.8 0-1.5.7-2 2l-.3.8-.4.4c-.1 0-.2 0-.2-.2 0-.3.1-.7.5-1.4.6-1.4 1.5-2.1 2.5-2.1.8 0 1.4.3 1.7 1l.2.9-.3 1.2-.5 1.3Zm7.8-1.1v9c0 .3.1.6.3.6.1.2.6.2 1.3.2h.5v.5a42.9 42.9 0 0 0-5.2 0v-.5h.5c.8 0 1.3-.1 1.4-.3v-8.8a4 4 0 0 1-2 .4v-.5c1.3 0 2.2-.3 3-1h.3v.4Z" class="cls-3"/>
  <path d="m228.3 265.9-38.9 38.8" class="cls-4"/>
  <path d="M262 264c0 .6-.3 1-.8 1.2a1 1 0 0 1-.5.1c-.4 0-.7-.2-.8-.6v-.2c0-.5.2-.8.6-1l.6-.3c.5 0 .7.3.8.7v.2m-1.7 8.6-1 2.4-.6 2.3c0 .5.2.8.6.8 1 0 1.7-.9 2.2-2.6l.1-.3.2-.4h.2c.1 0 .2.1.2.3 0 .2-.1.7-.5 1.4-.6 1.4-1.5 2.1-2.5 2.1-.8 0-1.4-.3-1.7-1l-.2-.9.6-1.8a549.4 549.4 0 0 1 1.8-5.5c0-.5-.2-.7-.6-.7-.8 0-1.5.7-2 2l-.3.8-.4.4c-.1 0-.2 0-.2-.2 0-.3.1-.7.5-1.4.6-1.4 1.5-2.1 2.5-2.1.8 0 1.4.3 1.7 1l.2.9-.3 1.2-.5 1.3Zm10.4 6.4-.5 2.8h-6l.1-.5.1-.1 3.1-3.4c1.1-1.3 1.7-2.5 1.7-3.6 0-1-.3-1.7-.9-2.2-.3-.3-.8-.4-1.3-.4-.7 0-1.3.3-1.8 1l-.3.6h.2c.4 0 .7.2.8.6v.2c0 .5-.2.7-.6.9h-.2c-.4 0-.7-.2-.8-.5v-.4c0-.8.3-1.5.9-2.1a3 3 0 0 1 2-.8c1.2 0 2.1.4 2.8 1.2.4.4.6 1 .6 1.6v.3c0 .8-.2 1.5-.8 2.2l-1.5 1.5-1 .8-.1.2-1.7 1.6h4.4l.3-1.5h.4Z" class="cls-3"/>
  <path d="m228.3 265.9 38.8 38.8" class="cls-4"/>
  <path d="M169.2 318.6c0 .9-.3 2-.7 3.6-1 3-2.1 4.7-3.7 5.1l-.8.1c-1.4 0-2.3-.4-2.8-1.4-.2-.4-.3-.9-.3-1.4 0-.8.4-2.2 1-4l.3-.7a4 4 0 0 0 .4-1.6c0-.5-.2-.8-.6-.8-.8 0-1.5.7-2 2l-.3.9-.4.4c-.1 0-.2-.1-.2-.3 0-.2.1-.7.5-1.4.6-1.4 1.5-2.1 2.5-2.1.8 0 1.4.3 1.7 1l.2.9-.3 1.1a20 20 0 0 0-1.3 4.6v.3c0 1.2.5 1.9 1.4 2h.3c1.2 0 2.3-1 3.2-3.1.5-1.2.8-2.3.9-3.1a3 3 0 0 0-.8-2c-.3-.2-.4-.4-.4-.6 0-.4.2-.7.6-1l.5-.1c.5 0 .8.3 1 .8v.8Zm5.1 1.7v9c0 .4 0 .6.2.7l1.3.1h.5v.5a42.9 42.9 0 0 0-5.2 0v-.5h.5c.8 0 1.3 0 1.4-.3l.1-.5V321c-.5.3-1.2.4-2.1.4v-.5c1.3 0 2.3-.3 3-1l.3.1v.3Z" class="cls-3"/>
  <path d="M189.4 304.7v38.9" class="cls-4"/>
  <path d="M288.2 317.6c0 .9-.3 2-.7 3.6-1 3-2.1 4.7-3.7 5.1l-.8.1c-1.4 0-2.3-.4-2.8-1.4-.2-.4-.3-.9-.3-1.4 0-.8.4-2.2 1-4l.3-.7a4 4 0 0 0 .4-1.6c0-.5-.2-.8-.5-.8-.9 0-1.6.7-2.1 2l-.3.9-.3.4c-.2 0-.3-.1-.3-.3 0-.2.1-.7.5-1.4.6-1.4 1.5-2.1 2.5-2.1.8 0 1.4.3 1.7 1l.2.9-.3 1.1a20 20 0 0 0-1.3 4.6v.3c0 1.2.5 1.9 1.5 2h.2c1.2 0 2.3-1 3.2-3.1.5-1.2.8-2.3.9-3.1a3 3 0 0 0-.8-2c-.3-.2-.4-.4-.4-.6 0-.4.2-.7.6-1l.6-.1c.4 0 .7.3.9.8v.8Zm5 6.4c1.1.2 1.9.7 2.4 1.6a2.9 2.9 0 0 1-.8 3.6c-.7.5-1.4.8-2.3.8-1 0-2-.3-2.6-1-.4-.4-.7-1-.7-1.5s.3-.8.7-1h.3c.4 0 .6.2.8.6v.3c0 .5-.1.8-.5.9h-.5c.4.7 1 1 2 1.2h.5c.6 0 1.1-.3 1.5-1 .2-.4.3-1 .3-1.6 0-1.4-.5-2.3-1.3-2.6a2 2 0 0 0-.7 0h-.7c-.2 0-.3-.1-.4-.3l.3-.1.6-.1c.6 0 1-.2 1.3-.6l.2-.2c.3-.5.4-1.2.4-1.9 0-1-.4-1.6-1.1-1.7h-.4c-.8 0-1.4.1-1.9.6l-.3.3c.7 0 1 .3 1 .8 0 .4-.2.7-.5.8a1 1 0 0 1-.3 0c-.4 0-.7-.2-.8-.5v-.3c0-.7.3-1.3 1-1.7a4 4 0 0 1 1.8-.5c1 0 1.8.3 2.4.9.4.4.6.8.6 1.3 0 1-.4 1.7-1.1 2.3l-1.2.6Z" class="cls-3"/>
  <path d="M267.1 304.7v38.9" class="cls-4"/>
  <path d="M235.3 188.2a7 7 0 1 1-14 0 7 7 0 0 1 14 0Z" style="fill:#000"/>
  <path d="M313 188.2a7 7 0 1 1-14 0 7 7 0 0 1 14 0Zm-77.7-77.6a7 7 0 1 1-14 0 7 7 0 0 1 14 0Zm-77.7 77.6a7 7 0 1 1-14 0 7 7 0 0 1 14 0Zm77.7 77.7a7 7 0 1 1-14 0 7 7 0 0 1 14 0ZM196.4 71.7a7 7 0 1 1-14 0 7 7 0 0 1 14 0Zm77.7 0a7 7 0 1 1-14 0 7 7 0 0 1 14 0Z" class="cls-3"/>
  <path d="M196.4 32.9a7 7 0 1 1-14 0 7 7 0 0 1 14 0Zm77.7 0a7 7 0 1 1-14 0 7 7 0 0 1 14 0Z" class="cls-2"/>
  <path d="M351.8 149.4a7 7 0 1 1-14 0 7 7 0 0 1 14 0Zm0 77.6a7 7 0 1 1-14 0 7 7 0 0 1 14 0Z" class="cls-3"/>
  <path d="M351.8 91.1a7 7 0 1 1-14 0 7 7 0 0 1 14 0Zm58.2 58.3a7 7 0 1 1-14 0 7 7 0 0 1 14 0Zm0 77.6a7 7 0 1 1-14 0 7 7 0 0 1 14 0Zm-58.2 58.3a7 7 0 1 1-14 0 7 7 0 0 1 14 0Z" class="cls-2"/>
  <path d="M80 188.2a7 7 0 1 1-14 0 7 7 0 0 1 14 0Z" class="cls-3"/>
  <path d="M41.1 149.4a7 7 0 1 1-14 0 7 7 0 0 1 14 0Zm0 77.6a7 7 0 1 1-14 0 7 7 0 0 1 14 0Z" class="cls-2"/>
  <path d="M196.4 304.7a7 7 0 1 1-14 0 7 7 0 0 1 14 0Zm77.7 0a7 7 0 1 1-14 0 7 7 0 0 1 14 0Z" class="cls-3"/>
  <path d="M196.4 343.6a7 7 0 1 1-14 0 7 7 0 0 1 14 0Zm77.7 0a7 7 0 1 1-14 0 7 7 0 0 1 14 0Z" class="cls-2"/>
</svg>
