<svg xmlns="http://www.w3.org/2000/svg" id="_Слой_1" data-name="Слой 1" viewBox="0 0 316.2 275.2" width="800">
  <defs>
    <style>
      .cls-1{fill:#616161}.cls-2{fill:none;stroke:rgba(97,97,97,.8);stroke-linecap:round;stroke-linejoin:round;stroke-width:2.5px}
    </style>
  </defs>
  <path d="M213 115.2c-.5-.5-1.1-.8-2-.9-1 0-2 .5-2.7 1.5l-.6.8a11 11 0 0 0-1.2 4.6c0 1.3.4 2 1.3 2.4l.8.1a5.7 5.7 0 0 0 4.6-2.3l.3-.2c.1 0 .2.1.2.3 0 .2-.2.5-.7 1a6.4 6.4 0 0 1-4.5 1.7c-1.4 0-2.5-.6-3.1-1.7-.4-.7-.6-1.4-.6-2.2 0-1.5.6-3 1.8-4.3a6 6 0 0 1 4-2.2h.4c1.1 0 2 .4 2.4 1l.3 1c0 .7-.3 1.1-.8 1.4h-.5c-.5 0-.7-.1-.8-.5v-.2c0-.4 0-.7.4-1 .2-.2.5-.3 1-.3Zm8 9.4-.4 2.8h-6l.1-.5h.1l3.1-3.5c1.1-1.3 1.7-2.5 1.7-3.6 0-1-.3-1.7-.9-2.2a2 2 0 0 0-1.3-.4 2 2 0 0 0-1.8 1l-.3.6h.2c.4 0 .7.2.8.6v.2c0 .5-.2.7-.6.9h-.2c-.4 0-.7-.2-.8-.5v-.4c0-.8.2-1.5.9-2.1a3 3 0 0 1 2-.8c1.2 0 2.1.4 2.8 1.2.4.4.6 1 .6 1.6v.3c0 .8-.3 1.5-.8 2.2l-1.5 1.5-1 .9-.1.1-1.7 1.7h2.9c.9 0 1.4 0 1.5-.2l.3-1.4h.4Z" class="cls-1"/>
  <path d="M176.7 136h77.7" class="cls-2"/>
  <path d="M160 94.2c-.5-.5-1.1-.8-2-.9-1 0-2 .5-2.7 1.5l-.6.8a11 11 0 0 0-1.2 4.6c0 1.3.4 2 1.3 2.4l.8.1a5.7 5.7 0 0 0 4.6-2.3l.3-.2c.1 0 .2.1.2.3 0 .2-.2.5-.7 1a6.4 6.4 0 0 1-4.5 1.7c-1.4 0-2.5-.6-3.1-1.7-.4-.7-.6-1.4-.6-2.2 0-1.5.6-3 1.8-4.3a6 6 0 0 1 4-2.2h.4c1.1 0 2 .4 2.4 1l.3 1c0 .7-.3 1.1-.8 1.4h-.5c-.5 0-.7-.1-.8-.5v-.2c0-.4 0-.7.4-1 .2-.2.5-.3 1-.3Zm5.6 1.9v9c0 .4 0 .6.2.7l1.2.1h.6v.5a42.9 42.9 0 0 0-5.3 0v-.5h.6c.8 0 1.3 0 1.4-.3v-8.8a4 4 0 0 1-2 .4v-.5c1.2 0 2.2-.3 2.9-1l.3.1v.3Z" class="cls-1"/>
  <path d="M176.7 136V58.3" class="cls-2"/>
  <path d="M140 146.2c-.5-.5-1.1-.8-2-.9-1 0-2 .5-2.7 1.5l-.6.8a11 11 0 0 0-1.2 4.6c0 1.3.4 2 1.3 2.4l.8.1a5.7 5.7 0 0 0 4.6-2.3l.3-.2c.1 0 .2.1.2.3 0 .2-.2.5-.7 1a6.4 6.4 0 0 1-4.5 1.7c-1.4 0-2.5-.5-3.1-1.7a4 4 0 0 1-.6-2.2c0-1.5.6-3 1.8-4.3a6 6 0 0 1 4-2.2h.4c1.1 0 2 .4 2.4 1l.3 1c0 .7-.3 1.1-.8 1.4h-.5c-.5 0-.7-.1-.8-.5v-.2c0-.4 0-.7.4-1 .2-.2.5-.3 1-.3Zm1.3 9.6v-.5l5-7.6.2-.2c.2 0 .3 0 .3.2v7.6h1.6v.5h-1.6v1.4c0 .3 0 .5.2.6l1 .1h.3v.5a35.6 35.6 0 0 0-4.3 0v-.5h.3c.7 0 1 0 1.2-.2v-1.9h-4.2m4.3-.5v-6l-3.9 6h4Z" class="cls-1"/>
  <path d="M176.7 136H99.1" class="cls-2"/>
  <path d="M192 168.2c-.5-.5-1.1-.8-2-.9-1 0-2 .5-2.7 1.5l-.6.8a11 11 0 0 0-1.2 4.6c0 1.3.4 2 1.3 2.4l.8.1a5.7 5.7 0 0 0 4.6-2.3l.3-.2c.1 0 .2.1.2.3 0 .2-.2.5-.7 1a6.4 6.4 0 0 1-4.5 1.7c-1.4 0-2.5-.5-3.1-1.7a4 4 0 0 1-.6-2.2c0-1.5.6-3 1.8-4.3a6 6 0 0 1 4-2.2h.4c1.1 0 2 .4 2.4 1l.3 1c0 .7-.3 1.1-.8 1.4h-.5c-.5 0-.7-.1-.8-.5v-.2c0-.4 0-.7.4-1 .2-.2.5-.3 1-.3Zm5.5 6.6c1 .2 1.8.7 2.3 1.5.3.5.4.9.4 1.4a3 3 0 0 1-1.1 2.3 4 4 0 0 1-2.3.8c-1.1 0-2-.3-2.6-1-.5-.4-.7-1-.7-1.5s.2-.8.7-1h.2c.4 0 .7.2.8.5l.1.4c0 .5-.2.7-.6.9h-.4c.3.7 1 1 2 1.2h.4c.7 0 1.2-.3 1.5-1 .2-.4.3-1 .3-1.6 0-1.4-.4-2.3-1.3-2.6a2 2 0 0 0-.6 0h-.7c-.2 0-.4-.1-.4-.3l.3-.2h.6c.5 0 1-.2 1.3-.6v-.1l.1-.2c.3-.5.5-1 .5-1.8 0-1-.4-1.6-1.2-1.8h-.4c-.7 0-1.3.2-1.8.6l-.3.4c.7 0 1 .3 1 .8 0 .4-.2.6-.5.8a1 1 0 0 1-.3 0c-.5 0-.7-.2-.8-.5v-.3c0-.7.3-1.3 1-1.7.5-.3 1.1-.5 1.8-.5 1 0 1.8.3 2.4.9.4.4.6.8.6 1.3 0 .9-.4 1.6-1.2 2.2l-1.1.7Z" class="cls-1"/>
  <path d="M176.7 136v77.7" class="cls-2"/>
  <path d="M141.4 44.9c0 .4-.2.8-.7 1a1 1 0 0 1-.5.2c-.5 0-.8-.2-.9-.6v-.2c0-.5.2-.8.6-1l.6-.3c.5 0 .8.2.9.7v.2m-1.8 8.6-.8 2.4-.7 2.3c0 .5.2.8.5.8 1 0 1.8-.9 2.3-2.6v-.3l.3-.4h.1c.2 0 .3.1.3.2l-.5 1.5c-.7 1.4-1.5 2-2.5 2-.8 0-1.4-.3-1.7-1l-.2-.8.5-1.8a549.4 549.4 0 0 1 1.9-5.5c0-.5-.2-.7-.6-.7-.8 0-1.5.7-2 2l-.3.8-.4.4c-.2 0-.3 0-.3-.2l.5-1.5c.7-1.4 1.5-2 2.6-2 .8 0 1.3.3 1.7 1l.1.8c0 .3 0 .7-.3 1.3l-.5 1.3Zm7.9-1.1v9c0 .3 0 .6.2.6.2.1.6.2 1.3.2h.5v.5a42.9 42.9 0 0 0-5.2 0v-.5h.5c.9 0 1.3-.1 1.5-.3V53c-.5.2-1.2.4-2 .4V53c1.2 0 2.2-.4 2.9-1h.3v.4Z" class="cls-1"/>
  <path d="M176.7 58.4 138 19.5" class="cls-2"/>
  <path d="M212.4 45.9c0 .4-.2.8-.7 1a1 1 0 0 1-.5.2c-.5 0-.8-.2-.9-.6v-.2c0-.5.2-.8.6-1l.6-.3c.5 0 .8.2.9.7v.2m-1.8 8.6-.8 2.4-.7 2.3c0 .5.2.8.5.8 1 0 1.8-.9 2.3-2.6v-.3l.3-.4h.1c.2 0 .3.1.3.2l-.5 1.5c-.7 1.4-1.5 2-2.5 2-.8 0-1.4-.3-1.7-1l-.2-.8.5-1.8a549.4 549.4 0 0 1 1.9-5.5c0-.5-.2-.7-.6-.7-.8 0-1.5.7-2 2l-.3.8-.4.4c-.2 0-.3 0-.3-.2l.5-1.5c.7-1.4 1.5-2 2.6-2 .8 0 1.3.3 1.7 1l.1.8c0 .3 0 .7-.3 1.3l-.5 1.3Zm7.9 3.5c1 .2 1.8.8 2.3 1.6.2.4.4.9.4 1.3 0 1-.4 1.7-1.2 2.3-.6.6-1.4.8-2.3.8-1 0-1.9-.3-2.5-1-.5-.4-.7-.9-.7-1.5 0-.5.2-.8.7-.9h.2c.4 0 .7.2.8.5v.4c0 .4-.1.7-.5.8h-.5c.4.8 1.1 1.1 2 1.3h.5c.7 0 1.2-.3 1.5-1 .2-.4.3-1 .3-1.6 0-1.5-.4-2.3-1.3-2.6a2 2 0 0 0-.6-.1h-.7c-.3 0-.4 0-.4-.2 0-.1 0-.2.2-.2h.7c.5 0 1-.3 1.3-.7l.1-.2c.3-.5.5-1.1.5-1.8 0-1-.4-1.6-1.2-1.8h-.4c-.7 0-1.3.2-1.8.6l-.3.4c.6 0 1 .2 1 .8 0 .4-.2.6-.5.7a1 1 0 0 1-.4 0c-.4 0-.6-.1-.7-.5v-.3c0-.7.3-1.2 1-1.7.5-.3 1-.4 1.8-.4 1 0 1.7.2 2.3.8.5.4.6.9.6 1.4 0 .9-.3 1.6-1.1 2.2-.3.3-.7.5-1.1.6Z" class="cls-1"/>
  <path d="m176.7 58.4 38.9-38.9" class="cls-2"/>
  <path d="M259.4 88.9c0 .4-.2.8-.7 1a1 1 0 0 1-.5.2c-.5 0-.8-.2-.9-.6v-.2c0-.5.2-.8.6-1l.7-.3c.4 0 .7.2.8.7v.2m-1.8 8.6-.9 2.4-.6 2.3c0 .5.2.8.5.8 1 0 1.7-.9 2.3-2.6v-.3l.3-.4h.1c.2 0 .3.1.3.3l-.5 1.4c-.7 1.4-1.5 2-2.5 2-.8 0-1.4-.2-1.7-1-.2-.2-.2-.5-.2-.8l.5-1.8a549.4 549.4 0 0 1 1.9-5.5c0-.5-.2-.7-.6-.7-.8 0-1.5.7-2 2l-.3.8-.4.4c-.2 0-.3 0-.3-.2l.5-1.5c.7-1.4 1.5-2 2.6-2 .8 0 1.3.3 1.7 1l.1.8c0 .3 0 .7-.3 1.3l-.5 1.3Zm7.9-1.1v9c0 .3 0 .5.2.6.2.1.6.2 1.3.2h.5v.5a42.9 42.9 0 0 0-5.2 0v-.5h.5c.9 0 1.3-.1 1.5-.3V97c-.5.2-1.2.4-2 .4V97c1.2 0 2.2-.4 2.9-1h.3v.4Z" class="cls-1"/>
  <path d="m254.4 136 38.8-38.8" class="cls-2"/>
  <path d="M258.4 157.9c0 .4-.2.8-.7 1a1 1 0 0 1-.5.2c-.5 0-.8-.2-.9-.6v-.2c0-.5.2-.8.6-1l.7-.3c.4 0 .7.2.8.7v.2m-1.8 8.6-.9 2.4-.6 2.3c0 .5.2.8.5.8 1 0 1.8-.9 2.3-2.6v-.3l.3-.4h.1c.2 0 .3.1.3.3l-.5 1.4c-.7 1.4-1.5 2-2.5 2-.8 0-1.4-.3-1.7-1-.2-.2-.2-.5-.2-.8l.5-1.8a549.4 549.4 0 0 1 1.9-5.5c0-.5-.2-.7-.6-.7-.8 0-1.5.7-2 2l-.3.8-.4.4c-.2 0-.3 0-.3-.2 0-.3.2-.8.5-1.4.7-1.4 1.5-2.1 2.6-2.1.8 0 1.3.3 1.7 1l.1.8c0 .4 0 .8-.3 1.3l-.5 1.3Zm10.4 6.4-.4 2.8h-6l.1-.5v-.1l3.2-3.5c1.1-1.2 1.7-2.4 1.7-3.5 0-1-.3-1.7-.9-2.2a2 2 0 0 0-1.3-.4c-.8 0-1.4.3-1.9 1l-.3.6h.2c.5 0 .7.2.9.6v.2c0 .4-.2.7-.6.8h-.3c-.4 0-.6-.1-.7-.4l-.1-.4c0-.9.3-1.6 1-2.2a3 3 0 0 1 2-.8c1.2 0 2.1.4 2.8 1.2.3.5.5 1 .6 1.7v.3c0 .7-.3 1.5-.9 2.2l-1.4 1.5-1 .8-.2.2-1.7 1.6h3l1.5-.1.3-1.4h.4Z" class="cls-1"/>
  <path d="m254.4 136 38.8 38.9" class="cls-2"/>
  <path d="M61.4 145.9c0 .4-.2.8-.7 1a1 1 0 0 1-.5.2c-.5 0-.8-.2-.9-.6v-.2c0-.5.2-.8.6-1l.6-.3c.5 0 .8.2.9.7v.2m-1.8 8.6-.9 2.4-.6 2.3c0 .5.2.8.5.8 1 0 1.7-.9 2.3-2.6v-.3l.3-.4h.1c.2 0 .3.1.3.3l-.5 1.4c-.7 1.4-1.5 2-2.5 2-.8 0-1.4-.3-1.7-1-.2-.2-.2-.5-.2-.8l.5-1.8a549.4 549.4 0 0 1 1.9-5.5c0-.5-.2-.7-.6-.7-.8 0-1.5.7-2 2l-.3.8-.4.4c-.2 0-.3 0-.3-.2 0-.3.2-.8.5-1.4.7-1.4 1.5-2.1 2.6-2.1.8 0 1.3.3 1.7 1l.1.8c0 .4 0 .8-.3 1.3l-.5 1.3Zm7.9 3.5c1 .2 1.8.8 2.3 1.6.2.4.4.9.4 1.3 0 1-.4 1.7-1.2 2.3-.6.6-1.4.8-2.3.8-1 0-1.9-.3-2.5-1-.5-.4-.7-.9-.7-1.5 0-.5.2-.8.7-.9h.2c.4 0 .7.2.8.5v.4c0 .4-.1.7-.5.8h-.5c.4.8 1.1 1.1 2 1.3h.5c.7 0 1.2-.3 1.5-1 .2-.4.3-1 .3-1.6 0-1.5-.4-2.3-1.3-2.6a2 2 0 0 0-.6-.1h-.7c-.3 0-.4 0-.4-.2 0-.1 0-.2.2-.2h.7c.5 0 1-.3 1.3-.7l.1-.2c.3-.5.5-1.1.5-1.8 0-1-.4-1.6-1.2-1.8h-.4c-.7 0-1.3.2-1.8.6l-.3.3c.6 0 1 .3 1 .9 0 .4-.2.6-.5.7a1 1 0 0 1-.4 0c-.4 0-.6-.1-.7-.5v-.3c0-.7.3-1.2 1-1.7.5-.3 1-.4 1.8-.4 1 0 1.7.2 2.3.8.5.4.6.9.6 1.4 0 .9-.3 1.6-1.1 2.2-.3.3-.7.5-1.1.6Z" class="cls-1"/>
  <path d="M99 136H21.5" class="cls-2"/>
  <path d="M144.4 209.9c0 .4-.2.8-.7 1a1 1 0 0 1-.5.2c-.5 0-.8-.2-.9-.6v-.2c0-.5.2-.8.6-1l.6-.3c.5 0 .8.2.9.7v.2m-1.8 8.6-.8 2.4-.7 2.3c0 .5.2.8.5.8 1 0 1.8-.9 2.3-2.6v-.3l.3-.4h.1c.2 0 .3.1.3.3l-.5 1.4c-.7 1.4-1.5 2-2.5 2-.8 0-1.4-.3-1.7-1l-.2-.8.5-1.8a549.4 549.4 0 0 1 1.9-5.5c0-.5-.2-.7-.6-.7-.8 0-1.5.7-2 2l-.3.8-.4.4c-.2 0-.3 0-.3-.2 0-.3.2-.8.5-1.4.7-1.4 1.5-2.1 2.6-2.1.8 0 1.3.3 1.7 1l.1.8c0 .4 0 .8-.3 1.3l-.5 1.3Zm7.9-1.1v9c0 .3 0 .5.2.6.2.1.6.2 1.3.2h.5v.5a42.9 42.9 0 0 0-5.2 0v-.5h.5c.9 0 1.3-.1 1.5-.3V218c-.5.2-1.2.4-2 .4v-.5c1.2 0 2.2-.4 2.9-1h.3v.4Z" class="cls-1"/>
  <path d="M176.7 213.7 138 252.5" class="cls-2"/>
  <path d="M210.4 211.9c0 .4-.2.8-.7 1a1 1 0 0 1-.5.2c-.5 0-.8-.2-.9-.6v-.2c0-.5.2-.8.6-1l.6-.3c.5 0 .8.2.9.7v.2m-1.8 8.6-.8 2.4-.7 2.3c0 .5.2.8.5.8 1 0 1.8-.9 2.3-2.6v-.3l.3-.4h.1c.2 0 .3.1.3.3l-.5 1.4c-.7 1.4-1.5 2-2.5 2-.8 0-1.4-.3-1.7-1l-.2-.8.5-1.8a549.4 549.4 0 0 1 1.9-5.5c0-.5-.2-.7-.6-.7-.8 0-1.5.7-2 2l-.3.8-.4.4c-.2 0-.3 0-.3-.2 0-.3.2-.8.5-1.4.7-1.4 1.5-2.1 2.6-2.1.8 0 1.3.3 1.7 1l.1.8c0 .4 0 .8-.3 1.3l-.5 1.3Zm10.4 6.4-.4 2.8h-6l.1-.5v-.1l3.2-3.5c1.1-1.2 1.7-2.4 1.7-3.5 0-1-.3-1.7-.9-2.2a2 2 0 0 0-1.3-.4c-.8 0-1.4.3-1.9 1l-.3.6h.2c.5 0 .7.2.9.6v.2c0 .4-.2.7-.6.8h-.2c-.4 0-.7-.1-.8-.4l-.1-.4c0-.9.3-1.6 1-2.2a3 3 0 0 1 2-.8c1.2 0 2.1.4 2.8 1.2.3.5.6 1 .6 1.7v.3c0 .7-.3 1.5-.9 2.2l-1.4 1.5-1 .8-.2.2-1.7 1.6h3l1.5-.1.3-1.4h.4Z" class="cls-1"/>
  <path d="m176.7 213.7 38.9 38.8" class="cls-2"/>
  <path d="M183.7 136a7 7 0 1 1-14 0 7 7 0 0 1 14 0Z"/>
  <path d="M261.4 136a7 7 0 1 1-14 0 7 7 0 0 1 14 0Zm-77.7-77.6a7 7 0 1 1-14 0 7 7 0 0 1 14 0ZM106 136a7 7 0 1 1-14 0 7 7 0 0 1 14 0Zm77.7 77.7a7 7 0 1 1-14 0 7 7 0 0 1 14 0ZM144.9 19.5a7 7 0 1 1-14 0 7 7 0 0 1 14 0Zm77.7 0a7 7 0 1 1-14 0 7 7 0 0 1 14 0Zm77.6 77.7a7 7 0 1 1-14 0 7 7 0 0 1 14 0Zm0 77.6a7 7 0 1 1-14 0 7 7 0 0 1 14 0ZM28.4 136a7 7 0 1 1-14 0 7 7 0 0 1 14 0Zm116.5 116.5a7 7 0 1 1-14 0 7 7 0 0 1 14 0Zm77.7 0a7 7 0 1 1-14 0 7 7 0 0 1 14 0Z" class="cls-1"/>
</svg>
