<?xml version="1.0" encoding="UTF-8"?>
<svg id="_Слой_1" data-name="Слой 1" xmlns="http://www.w3.org/2000/svg" viewBox="0 0 538.41 210.17" width="800">
  <defs>
    <style>
      .cls-1 {
        letter-spacing: -.06em;
      }

      .cls-1, .cls-2, .cls-3, .cls-4, .cls-5 {
        isolation: isolate;
      }

      .cls-1, .cls-2, .cls-6, .cls-7, .cls-8, .cls-5 {
        fill: #09f;
      }

      .cls-1, .cls-2, .cls-8, .cls-4 {
        font-family: ArialMT, Arial;
        font-size: 16px;
      }

      .cls-3, .cls-9, .cls-4 {
        fill: #96f;
      }

      .cls-10 {
        stroke: #000;
      }

      .cls-10, .cls-11 {
        fill: none;
      }

      .cls-10, .cls-11, .cls-6 {
        stroke-linecap: round;
        stroke-linejoin: round;
      }

      .cls-11 {
        stroke: #09f;
      }

      .cls-11, .cls-6 {
        stroke-width: 2.5px;
      }

      .cls-6 {
        opacity: .15;
        stroke: rgba(0, 153, 255, .8);
      }

      .cls-12 {
        fill: #6d6d6d;
      }
    </style>
  </defs>
  <g>
    <path class="cls-6" d="m376.06,191.6h91.61l45.8-79.33-45.8-79.33h-91.61l-45.8,79.33,45.8,79.33Z"/>
    <path class="cls-11" d="m376.06,191.6h91.61"/>
    <path class="cls-11" d="m467.67,191.6l45.8-79.33"/>
    <path class="cls-11" d="m513.47,112.27l-45.8-79.33"/>
    <path class="cls-11" d="m467.67,32.94h-91.61"/>
    <path class="cls-11" d="m376.06,32.94l-45.8,79.33"/>
    <path class="cls-11" d="m330.25,112.27l45.8,79.33"/>
    <path class="cls-12" d="m330.25,112.27l12.6,12.18,4.25-7.36-16.85-4.82Zm16.79,8.25l-1.25,2.17,9.09,5.25,1.25-2.17-9.09-5.25Zm16.02,9.25l-1.25,2.17,9.09,5.25,1.25-2.17-9.09-5.25Zm16.02,9.25l-1.25,2.17,9.09,5.25,1.25-2.17-9.09-5.25Zm16.02,9.25l-1.25,2.17,9.09,5.25,1.25-2.17-9.09-5.25Zm16.02,9.25l-1.25,2.17,9.09,5.25,1.25-2.17-9.09-5.25Zm16.02,9.25l-1.25,2.17,9.09,5.25,1.25-2.17-9.09-5.25Zm16.02,9.25l-1.25,2.17,9.09,5.25,1.25-2.17-9.09-5.25Zm16.02,9.25l-1.25,2.17,9.09,5.25,1.25-2.17-9.09-5.25Z"/>
    <path class="cls-9" d="m376.06,32.94l4.82,16.85,7.36-4.25-12.18-12.6Zm13.44,20.78l-2.17,1.25,5.25,9.09,2.17-1.25-5.25-9.09Zm9.25,16.02l-2.17,1.25,5.25,9.09,2.17-1.25-5.25-9.09Zm9.25,16.02l-2.17,1.25,5.25,9.09,2.17-1.25-5.25-9.09Zm9.25,16.02l-2.17,1.25,5.25,9.09,2.17-1.25-5.25-9.09Zm9.25,16.02l-2.17,1.25,5.25,9.09,2.17-1.25-5.25-9.09Zm9.25,16.02l-2.17,1.25,5.25,9.09,2.17-1.25-5.25-9.09Zm9.25,16.02l-2.17,1.25,5.25,9.09,2.17-1.25-5.25-9.09Zm9.25,16.02l-2.17,1.25,5.25,9.09,2.17-1.25-5.25-9.09Zm9.25,16.02l-2.17,1.25,5.25,9.09,2.17-1.25-5.25-9.09Z"/>
    <path class="cls-12" d="m467.67,32.94l-4.25,17h8.5l-4.25-17Zm-1.25,18.67v10.5h2.5v-10.5h-2.5Zm0,18.5v10.5h2.5v-10.5h-2.5Zm0,18.5v10.5h2.5v-10.5h-2.5Zm0,18.5v10.5h2.5v-10.5h-2.5Zm0,18.5v10.5h2.5v-10.5h-2.5Zm0,18.5v10.5h2.5v-10.5h-2.5Zm0,18.5v10.5h2.5v-10.5h-2.5Zm0,18.5v10.5h2.5v-10.5h-2.5Z"/>
    <path class="cls-7" d="m381.06,191.6c0,2.76-2.24,5-5,5s-5-2.24-5-5,2.24-5,5-5,5,2.24,5,5Z"/>
    <path class="cls-10" d="m381.06,191.6c0,2.76-2.24,5-5,5s-5-2.24-5-5,2.24-5,5-5,5,2.24,5,5Z"/>
    <path class="cls-9" d="m472.67,191.6c0,2.76-2.24,5-5,5s-5-2.24-5-5,2.24-5,5-5,5,2.24,5,5Z"/>
    <path class="cls-10" d="m472.67,191.6c0,2.76-2.24,5-5,5s-5-2.24-5-5,2.24-5,5-5,5,2.24,5,5Z"/>
    <path class="cls-7" d="m518.47,112.27c0,2.76-2.24,5-5,5s-5-2.24-5-5,2.24-5,5-5,5,2.24,5,5Z"/>
    <path class="cls-10" d="m518.47,112.27c0,2.76-2.24,5-5,5s-5-2.24-5-5,2.24-5,5-5,5,2.24,5,5Z"/>
    <path class="cls-7" d="m472.67,32.94c0,2.76-2.24,5-5,5s-5-2.24-5-5,2.24-5,5-5,5,2.24,5,5Z"/>
    <path class="cls-10" d="m472.67,32.94c0,2.76-2.24,5-5,5s-5-2.24-5-5,2.24-5,5-5,5,2.24,5,5Z"/>
    <path class="cls-7" d="m381.06,32.94c0,2.76-2.24,5-5,5s-5-2.24-5-5,2.24-5,5-5,5,2.24,5,5Z"/>
    <path class="cls-10" d="m381.06,32.94c0,2.76-2.24,5-5,5s-5-2.24-5-5,2.24-5,5-5,5,2.24,5,5Z"/>
    <path class="cls-7" d="m335.25,112.27c0,2.76-2.24,5-5,5s-5-2.24-5-5,2.24-5,5-5,5,2.24,5,5Z"/>
    <path class="cls-10" d="m335.25,112.27c0,2.76-2.24,5-5,5s-5-2.24-5-5,2.24-5,5-5,5,2.24,5,5Z"/>
    <text class="cls-1" transform="translate(352.13 191.92)"><tspan x="0" y="0">A</tspan></text>
    <text class="cls-4" transform="translate(480.13 190.92)"><tspan x="0" y="0">B</tspan></text>
    <text class="cls-8" transform="translate(517.13 101.92)"><tspan x="0" y="0">C</tspan></text>
    <text class="cls-2" transform="translate(472.13 22.92)"><tspan x="0" y="0">D</tspan></text>
    <text class="cls-2" transform="translate(380.13 22.92)"><tspan x="0" y="0">E</tspan></text>
    <text class="cls-8" transform="translate(321.13 101.92)"><tspan x="0" y="0">F</tspan></text>
  </g>
  <g>
    <path class="cls-6" d="m66.06,191.6h91.61l45.8-79.33-45.8-79.33h-91.61L20.25,112.27l45.8,79.33Z"/>
    <path class="cls-11" d="m66.06,191.6h91.61"/>
    <path class="cls-11" d="m157.67,191.6l45.8-79.33"/>
    <path class="cls-11" d="m203.47,112.27l-45.8-79.33"/>
    <path class="cls-11" d="m157.67,32.94h-91.61"/>
    <path class="cls-11" d="m66.06,32.94L20.25,112.27"/>
    <path class="cls-11" d="m20.25,112.27l45.8,79.33"/>
    <path class="cls-12" d="m64.81,32.94v10.5h2.5v-10.5h-2.5Zm0,18.5v10.5h2.5v-10.5h-2.5Zm0,18.5v10.5h2.5v-10.5h-2.5Zm0,18.5v10.5h2.5v-10.5h-2.5Zm0,18.5v10.5h2.5v-10.5h-2.5Zm0,18.5v10.5h2.5v-10.5h-2.5Zm0,18.5v10.5h2.5v-10.5h-2.5Zm0,18.5v10.5h2.5v-10.5h-2.5Zm-3,12.17l4.25,17,4.25-17h-8.5Z"/>
    <path class="cls-3" d="m67.14,32.31l-2.17,1.25,5.25,9.09,2.17-1.25-5.25-9.09Zm9.25,16.02l-2.17,1.25,5.25,9.09,2.17-1.25-5.25-9.09Zm9.25,16.02l-2.17,1.25,5.25,9.09,2.17-1.25-5.25-9.09Zm9.25,16.02l-2.17,1.25,5.25,9.09,2.17-1.25-5.25-9.09Zm9.25,16.02l-2.17,1.25,5.25,9.09,2.17-1.25-5.25-9.09Zm9.25,16.02l-2.17,1.25,5.25,9.09,2.17-1.25-5.25-9.09Zm9.25,16.02l-2.17,1.25,5.25,9.09,2.17-1.25-5.25-9.09Zm9.25,16.02l-2.17,1.25,5.25,9.09,2.17-1.25-5.25-9.09Zm9.25,16.02l-2.17,1.25,5.25,9.09,2.17-1.25-5.25-9.09Zm11.71,14.27l-7.36,4.25,12.18,12.6-4.82-16.85Z"/>
    <path class="cls-12" d="m66.68,31.85l-1.25,2.17,9.09,5.25,1.25-2.17-9.09-5.25Zm16.02,9.25l-1.25,2.17,9.09,5.25,1.25-2.17-9.09-5.25Zm16.02,9.25l-1.25,2.17,9.09,5.25,1.25-2.17-9.09-5.25Zm16.02,9.25l-1.25,2.17,9.09,5.25,1.25-2.17-9.09-5.25Zm16.02,9.25l-1.25,2.17,9.09,5.25,1.25-2.17-9.09-5.25Zm16.02,9.25l-1.25,2.17,9.09,5.25,1.25-2.17-9.09-5.25Zm16.02,9.25l-1.25,2.17,9.09,5.25,1.25-2.17-9.09-5.25Zm16.02,9.25l-1.25,2.17,9.09,5.25,1.25-2.17-9.09-5.25Zm12.04,3.49l-4.25,7.36,16.85,4.82-12.6-12.18Z"/>
    <path class="cls-7" d="m71.06,191.6c0,2.76-2.24,5-5,5s-5-2.24-5-5,2.24-5,5-5,5,2.24,5,5Z"/>
    <path class="cls-10" d="m71.06,191.6c0,2.76-2.24,5-5,5s-5-2.24-5-5,2.24-5,5-5,5,2.24,5,5Z"/>
    <text class="cls-1" transform="translate(42.13 191.92)"><tspan x="0" y="0">A</tspan></text>
    <path class="cls-7" d="m162.67,191.6c0,2.76-2.24,5-5,5s-5-2.24-5-5,2.24-5,5-5,5,2.24,5,5Z"/>
    <path class="cls-10" d="m162.67,191.6c0,2.76-2.24,5-5,5s-5-2.24-5-5,2.24-5,5-5,5,2.24,5,5Z"/>
    <text class="cls-2" transform="translate(170.13 190.92)"><tspan x="0" y="0">B</tspan></text>
    <path class="cls-7" d="m208.47,112.27c0,2.76-2.24,5-5,5s-5-2.24-5-5,2.24-5,5-5,5,2.24,5,5Z"/>
    <path class="cls-10" d="m208.47,112.27c0,2.76-2.24,5-5,5s-5-2.24-5-5,2.24-5,5-5,5,2.24,5,5Z"/>
    <text class="cls-2" transform="translate(207.13 101.92)"><tspan x="0" y="0">C</tspan></text>
    <path class="cls-7" d="m162.67,32.94c0,2.76-2.24,5-5,5s-5-2.24-5-5,2.24-5,5-5,5,2.24,5,5Z"/>
    <path class="cls-10" d="m162.67,32.94c0,2.76-2.24,5-5,5s-5-2.24-5-5,2.24-5,5-5,5,2.24,5,5Z"/>
    <text class="cls-2" transform="translate(162.13 22.92)"><tspan x="0" y="0">D</tspan></text>
    <path class="cls-9" d="m71.06,32.94c0,2.76-2.24,5-5,5s-5-2.24-5-5,2.24-5,5-5,5,2.24,5,5Z"/>
    <path class="cls-10" d="m71.06,32.94c0,2.76-2.24,5-5,5s-5-2.24-5-5,2.24-5,5-5,5,2.24,5,5Z"/>
    <text class="cls-4" transform="translate(70.13 22.92)"><tspan x="0" y="0">E</tspan></text>
    <path class="cls-5" d="m25.25,112.27c0,2.76-2.24,5-5,5s-5-2.24-5-5,2.24-5,5-5,5,2.24,5,5Z"/>
    <path class="cls-10" d="m25.25,112.27c0,2.76-2.24,5-5,5s-5-2.24-5-5,2.24-5,5-5,5,2.24,5,5Z"/>
    <text class="cls-8" transform="translate(11.13 101.92)"><tspan x="0" y="0">F</tspan></text>
  </g>
</svg>