<?xml version="1.0" encoding="UTF-8"?>
<svg id="_Слой_1" data-name="Слой 1" xmlns="http://www.w3.org/2000/svg" viewBox="0 0 227.04 209.51" width="800">
  <defs>
    <style>
      .cls-1, .cls-2, .cls-3, .cls-4 {
        font-family: ArialMT, Arial;
        font-size: 16px;
        isolation: isolate;
      }

      .cls-1, .cls-5 {
        fill: #7d7dff;
      }

      .cls-2, .cls-6 {
        fill: #f36;
      }

      .cls-3 {
        letter-spacing: -.06em;
      }

      .cls-3, .cls-4, .cls-7, .cls-8 {
        fill: #09f;
      }

      .cls-9 {
        stroke: #000;
      }

      .cls-9, .cls-10, .cls-7, .cls-11 {
        stroke-linecap: round;
        stroke-linejoin: round;
      }

      .cls-9, .cls-10, .cls-11 {
        fill: none;
      }

      .cls-10 {
        stroke: #09f;
      }

      .cls-10, .cls-7, .cls-11 {
        stroke-width: 2.5px;
      }

      .cls-7 {
        opacity: .15;
        stroke: rgba(0, 153, 255, .8);
      }

      .cls-12 {
        fill: rgba(146, 153, 255, .1);
        fill-rule: evenodd;
      }

      .cls-13 {
        fill: #6d6d6d;
      }

      .cls-11 {
        stroke: #f03;
      }
    </style>
  </defs>
  <path class="cls-12" d="m65.29,190.24h91.61l45.8-79.33-45.8-79.33h-91.61L19.49,110.91l45.8,79.33Z"/>
  <path class="cls-7" d="m65.29,190.24h91.61l45.8-79.33-45.8-79.33h-91.61L19.49,110.91l45.8,79.33Z"/>
  <path class="cls-10" d="m65.29,190.24h91.61"/>
  <path class="cls-10" d="m156.9,190.24l45.8-79.33"/>
  <path class="cls-10" d="m202.7,110.91l-45.8-79.33"/>
  <path class="cls-11" d="m156.9,31.57h-91.61"/>
  <path class="cls-11" d="m65.29,31.57L19.49,110.91"/>
  <path class="cls-10" d="m19.49,110.91l45.8,79.33"/>
  <path class="cls-13" d="m64.04,31.57v10.5h2.5v-10.5h-2.5Zm0,18.5v10.5h2.5v-10.5h-2.5Zm0,18.5v10.5h2.5v-10.5h-2.5Zm0,18.5v10.5h2.5v-10.5h-2.5Zm0,18.5v10.5h2.5v-10.5h-2.5Zm0,18.5v10.5h2.5v-10.5h-2.5Zm0,18.5v10.5h2.5v-10.5h-2.5Zm0,18.5v10.5h2.5v-10.5h-2.5Zm-3,12.17l4.25,17,4.25-17h-8.5Z"/>
  <path class="cls-13" d="m66.37,30.95l-2.17,1.25,5.25,9.09,2.17-1.25-5.25-9.09Zm9.25,16.02l-2.17,1.25,5.25,9.09,2.17-1.25-5.25-9.09Zm9.25,16.02l-2.17,1.25,5.25,9.09,2.17-1.25-5.25-9.09Zm9.25,16.02l-2.17,1.25,5.25,9.09,2.17-1.25-5.25-9.09Zm9.25,16.02l-2.17,1.25,5.25,9.09,2.17-1.25-5.25-9.09Zm9.25,16.02l-2.17,1.25,5.25,9.09,2.17-1.25-5.25-9.09Zm9.25,16.02l-2.17,1.25,5.25,9.09,2.17-1.25-5.25-9.09Zm9.25,16.02l-2.17,1.25,5.25,9.09,2.17-1.25-5.25-9.09Zm9.25,16.02l-2.17,1.25,5.25,9.09,2.17-1.25-5.25-9.09Zm11.71,14.27l-7.36,4.25,12.18,12.6-4.82-16.85Z"/>
  <path class="cls-13" d="m65.92,30.49l-1.25,2.17,9.09,5.25,1.25-2.17-9.09-5.25Zm16.02,9.25l-1.25,2.17,9.09,5.25,1.25-2.17-9.09-5.25Zm16.02,9.25l-1.25,2.17,9.09,5.25,1.25-2.17-9.09-5.25Zm16.02,9.25l-1.25,2.17,9.09,5.25,1.25-2.17-9.09-5.25Zm16.02,9.25l-1.25,2.17,9.09,5.25,1.25-2.17-9.09-5.25Zm16.02,9.25l-1.25,2.17,9.09,5.25,1.25-2.17-9.09-5.25Zm16.02,9.25l-1.25,2.17,9.09,5.25,1.25-2.17-9.09-5.25Zm16.02,9.25l-1.25,2.17,9.09,5.25,1.25-2.17-9.09-5.25Zm12.04,3.49l-4.25,7.36,16.85,4.82-12.6-12.18Z"/>
  <path class="cls-8" d="m70.29,190.24c0,2.76-2.24,5-5,5s-5-2.24-5-5,2.24-5,5-5,5,2.24,5,5Z"/>
  <path class="cls-9" d="m70.29,190.24c0,2.76-2.24,5-5,5s-5-2.24-5-5,2.24-5,5-5,5,2.24,5,5Z"/>
  <text class="cls-3" transform="translate(41.37 189.56)"><tspan x="0" y="0">A</tspan></text>
  <path class="cls-8" d="m161.9,190.24c0,2.76-2.24,5-5,5s-5-2.24-5-5,2.24-5,5-5,5,2.24,5,5Z"/>
  <path class="cls-9" d="m161.9,190.24c0,2.76-2.24,5-5,5s-5-2.24-5-5,2.24-5,5-5,5,2.24,5,5Z"/>
  <text class="cls-4" transform="translate(171.37 188.56)"><tspan x="0" y="0">B</tspan></text>
  <path class="cls-8" d="m207.7,110.91c0,2.76-2.24,5-5,5s-5-2.24-5-5,2.24-5,5-5,5,2.24,5,5Z"/>
  <path class="cls-9" d="m207.7,110.91c0,2.76-2.24,5-5,5s-5-2.24-5-5,2.24-5,5-5,5,2.24,5,5Z"/>
  <text class="cls-4" transform="translate(206.37 100.56)"><tspan x="0" y="0">C</tspan></text>
  <path class="cls-6" d="m161.9,31.57c0,2.76-2.24,5-5,5s-5-2.24-5-5,2.24-5,5-5,5,2.24,5,5Z"/>
  <path class="cls-9" d="m161.9,31.57c0,2.76-2.24,5-5,5s-5-2.24-5-5,2.24-5,5-5,5,2.24,5,5Z"/>
  <text class="cls-2" transform="translate(161.37 21.56)"><tspan x="0" y="0">D</tspan></text>
  <path class="cls-5" d="m70.29,31.57c0,2.76-2.24,5-5,5s-5-2.24-5-5,2.24-5,5-5,5,2.24,5,5Z"/>
  <path class="cls-9" d="m70.29,31.57c0,2.76-2.24,5-5,5s-5-2.24-5-5,2.24-5,5-5,5,2.24,5,5Z"/>
  <text class="cls-1" transform="translate(69.37 21.56)"><tspan x="0" y="0">E</tspan></text>
  <path class="cls-6" d="m24.49,110.91c0,2.76-2.24,5-5,5s-5-2.24-5-5,2.24-5,5-5,5,2.24,5,5Z"/>
  <path class="cls-9" d="m24.49,110.91c0,2.76-2.24,5-5,5s-5-2.24-5-5,2.24-5,5-5,5,2.24,5,5Z"/>
  <text class="cls-2" transform="translate(8.37 100.56)"><tspan x="0" y="0">F</tspan></text>
</svg>