<?xml version="1.0" encoding="UTF-8" standalone="no"?>
<!DOCTYPE svg PUBLIC "-//W3C//DTD SVG 1.1//EN" "http://www.w3.org/Graphics/SVG/1.1/DTD/svg11.dtd">
<!-- Создано Microsoft Visio, экспорт SVG fraction-diagram.svg Страница-1 -->
<svg xmlns="http://www.w3.org/2000/svg" xmlns:xlink="http://www.w3.org/1999/xlink" xmlns:ev="http://www.w3.org/2001/xml-events"
		xmlns:v="http://schemas.microsoft.com/visio/2003/SVGExtensions/" width="3.97867in" height="2.67159in"
		viewBox="0 0 286.465 192.354" xml:space="preserve" color-interpolation-filters="sRGB" class="st10">
	<v:documentProperties v:langID="1049" v:metric="true" v:viewMarkup="false"/>

	<style type="text/css">
	<![CDATA[
		.st1 {fill:none;stroke:#759fcc;stroke-width:1.5}
		.st2 {fill:#759fcc;font-family:Calibri;font-size:1.16666em;font-weight:bold}
		.st3 {fill:#759fcc;font-family:Calibri;font-size:1.16666em}
		.st4 {marker-end:url(#mrkr4-15);stroke:#759fcc;stroke-linecap:round;stroke-linejoin:round;stroke-width:1.5}
		.st5 {fill:#759fcc;fill-opacity:1;stroke:#759fcc;stroke-opacity:1;stroke-width:0.45454545454545}
		.st6 {fill:none;stroke:none;stroke-width:0.25}
		.st7 {fill:#7f7f7f;font-family:Calibri;font-size:1.00001em;font-style:italic}
		.st8 {fill:#759fcc;stroke:none;stroke-linecap:butt;stroke-width:5.34965}
		.st9 {fill:#759fcc;stroke:none;stroke-linecap:butt;stroke-width:3.71134}
		.st10 {fill:none;fill-rule:evenodd;font-size:12px;overflow:visible;stroke-linecap:square;stroke-miterlimit:3}
	]]>
	</style>

	<defs id="Markers">
		<g id="lend4">
			<path d="M 2 1 L 0 0 L 2 -1 L 2 1 " style="stroke:none"/>
		</g>
		<marker id="mrkr4-15" class="st5" v:arrowType="4" v:arrowSize="1" v:setback="4.4" refX="-4.4" orient="auto"
				markerUnits="strokeWidth" overflow="visible">
			<use xlink:href="#lend4" transform="scale(-2.2,-2.2) "/>
		</marker>
	</defs>
	<g v:mID="0" v:index="1" v:groupContext="foregroundPage">
		<title>Страница-1</title>
		<v:pageProperties v:drawingScale="0.0393701" v:pageScale="0.0393701" v:drawingUnits="24" v:shadowOffsetX="8.50394"
				v:shadowOffsetY="-8.50394"/>
		<v:layer v:name="Соединительная линия" v:index="0"/>
		<g id="shape1-1" v:mID="1" v:groupContext="shape" transform="translate(89.374,-154.004)">
			<title>Прямоугольник</title>
			<desc>Дроби</desc>
			<v:userDefs>
				<v:ud v:nameU="visVersion" v:val="VT0(15):26"/>
				<v:ud v:nameU="visMasterStencil" v:prompt="" v:val="VT4(Basic_M.vssx)"/>
			</v:userDefs>
			<v:textBlock v:margins="rect(4,4,4,4)" v:tabSpace="42.5197"/>
			<v:textRect cx="56.6929" cy="173.929" width="113.39" height="36.8504"/>
			<rect x="0" y="155.504" width="113.386" height="36.8504" class="st1"/>
			<text x="36.84" y="178.13" class="st2" v:langID="1049"><v:paragraph v:horizAlign="1"/><v:tabList/>Дроби</text>		</g>
		<g id="shape2-4" v:mID="2" v:groupContext="shape" transform="translate(1.5,-1.5)">
			<title>Прямоугольник.2</title>
			<desc>Обыкновенные</desc>
			<v:userDefs>
				<v:ud v:nameU="visVersion" v:val="VT0(15):26"/>
				<v:ud v:nameU="visMasterStencil" v:prompt="" v:val="VT4(Basic_M.vssx)"/>
			</v:userDefs>
			<v:textBlock v:margins="rect(4,4,4,4)" v:tabSpace="42.5197" v:verticalAlign="0"/>
			<v:textRect cx="56.6929" cy="160.748" width="113.39" height="63.2126"/>
			<rect x="0" y="129.142" width="113.386" height="63.2126" class="st1"/>
			<text x="10.52" y="145.74" class="st3" v:langID="1049"><v:paragraph v:horizAlign="1"/><v:tabList/>Обыкновенные</text>		</g>
		<g id="shape3-7" v:mID="3" v:groupContext="shape" transform="translate(171.579,-1.5)">
			<title>Прямоугольник.3</title>
			<desc>Десятичные</desc>
			<v:userDefs>
				<v:ud v:nameU="visVersion" v:val="VT0(15):26"/>
				<v:ud v:nameU="visMasterStencil" v:prompt="" v:val="VT4(Basic_M.vssx)"/>
			</v:userDefs>
			<v:textBlock v:margins="rect(4,4,4,4)" v:tabSpace="42.5197" v:verticalAlign="0"/>
			<v:textRect cx="56.6929" cy="160.748" width="113.39" height="63.2126"/>
			<rect x="0" y="129.142" width="113.386" height="63.2126" class="st1"/>
			<text x="20.76" y="145.74" class="st3" v:langID="1049"><v:paragraph v:horizAlign="1"/><v:tabList/>Десятичные</text>		</g>
		<g id="shape6-10" v:mID="6" v:groupContext="shape" v:layerMember="0" transform="translate(146.067,-154.004)">
			<title>Динамическая соединительная линия</title>
			<path d="M0 192.35 L0 224.95 L-87.87 224.95 L-87.87 275.05" class="st4"/>
		</g>
		<g id="shape7-16" v:mID="7" v:groupContext="shape" v:layerMember="0" transform="translate(146.067,-154.004)">
			<title>Динамическая соединительная линия.7</title>
			<path d="M0 192.35 L0 224.95 L82.2 224.95 L82.2 275.05" class="st4"/>
		</g>
		<g id="shape8-21" v:mID="8" v:groupContext="shape" transform="translate(70.0669,-95.7362)">
			<title>Лист.8</title>
			<desc>По способу записи</desc>
			<v:textBlock v:margins="rect(4,4,4,4)" v:tabSpace="42.5197"/>
			<v:textRect cx="76" cy="182.354" width="152" height="20"/>
			<rect x="0" y="172.354" width="152" height="20" class="st6"/>
			<text x="28.91" y="185.95" class="st7" v:langID="1049"><v:paragraph v:horizAlign="1"/><v:tabList/>По способу записи</text>		</g>
		<g id="group30-24" transform="translate(21.5565,-12.6711)" v:mID="30" v:groupContext="group">
			<title>Лист.30</title>
			<g id="shape31-25" v:mID="31" v:groupContext="shape" transform="translate(0,359.996) scale(1,-1)">
				<title>Лист.31</title>
				<path d="M3.73 191.29 L3.6 191.22 C3.46 191.22 3.33 191.16 3.13 191.09 C2.93 191.02 2.66 191.02 2.46 191.02 L2.2
							 191.02 L2.2 191.55 L2.4 191.55 C2.8 191.55 3.13 191.62 3.46 191.75 C3.8 191.89 4 191.95 4.13 192.02
							 C4.26 192.09 4.4 192.22 4.46 192.29 C4.46 192.29 4.53 192.35 4.6 192.35 C4.66 192.35 4.73 192.35 4.8
							 192.29 L4.8 188.69 L4.8 185.09 C4.86 185.03 4.93 185.03 4.93 184.96 C4.93 184.89 5.06 184.96 5.2 184.89
							 C5.33 184.89 5.6 184.89 5.93 184.89 L6.26 184.89 L6.26 184.36 L6.13 184.36 C5.93 184.36 5.33 184.43
							 4.2 184.43 C3.13 184.43 2.46 184.43 2.33 184.36 L2.26 184.36 L2.26 184.89 L2.53 184.89 C2.73 184.89
							 2.86 184.89 3 184.89 C3.13 184.89 3.2 184.89 3.33 184.89 C3.4 184.89 3.46 184.89 3.53 184.96 C3.6 184.96
							 3.6 184.96 3.6 184.96 C3.6 184.96 3.6 184.96 3.66 185.03 C3.73 185.09 3.73 185.09 3.73 185.09 L3.73
							 191.29 ZM2.53 173.1 C2.33 173.1 2.13 173.17 2 173.3 C1.87 173.44 1.8 173.64 1.8 173.84 C1.8 174.44 2
							 174.9 2.46 175.3 C2.86 175.7 3.4 175.9 4.06 175.9 C4.8 175.9 5.4 175.7 5.93 175.24 C6.39 174.77 6.66
							 174.17 6.66 173.5 C6.66 173.17 6.59 172.84 6.39 172.5 C6.19 172.17 6.06 171.9 5.8 171.7 C5.6 171.5 5.26
							 171.17 4.86 170.84 C4.6 170.57 4.2 170.24 3.66 169.71 L2.93 169.04 L3.86 169.04 C5.13 169.04 5.8 169.04
							 5.86 169.11 C5.93 169.11 6 169.51 6.13 170.17 L6.13 170.24 L6.59 170.24 L6.59 170.17 C6.59 170.17 6.53
							 169.77 6.46 169.11 C6.39 168.37 6.33 168.04 6.26 167.97 L6.26 167.91 L1.8 167.91 L1.8 168.11 L1.8 168.24
							 C1.8 168.31 1.8 168.37 1.87 168.44 C1.93 168.51 2.06 168.64 2.2 168.84 C2.4 169.11 2.66 169.31 2.8 169.51
							 C2.86 169.57 3 169.71 3.2 169.97 C3.4 170.17 3.53 170.31 3.6 170.44 C3.66 170.57 3.8 170.64 3.93 170.84
							 C4.06 171.04 4.2 171.17 4.26 171.24 C4.33 171.31 4.4 171.44 4.53 171.57 C4.66 171.7 4.73 171.84 4.8
							 171.97 C4.86 172.1 4.93 172.17 5 172.3 C5.13 172.5 5.2 172.64 5.2 172.77 C5.2 172.9 5.26 173.04 5.26
							 173.1 C5.26 173.24 5.33 173.37 5.33 173.5 C5.33 174.04 5.2 174.44 4.93 174.84 C4.66 175.24 4.26 175.37
							 3.73 175.37 C3.46 175.37 3.26 175.3 3.06 175.17 C2.86 175.04 2.73 174.9 2.66 174.77 C2.53 174.64 2.53
							 174.57 2.53 174.5 C2.53 174.5 2.53 174.5 2.6 174.5 C2.73 174.5 2.86 174.44 3.06 174.3 C3.2 174.17 3.26
							 174.04 3.26 173.77 C3.26 173.57 3.2 173.37 3.06 173.24 C2.93 173.17 2.73 173.1 2.53 173.1 ZM0 178.83
							 L8.46 178.83 L8.46 179.56 L0 179.56 L0 178.83 ZM27.18 191.29 L27.04 191.22 C26.84 191.22 26.71 191.16
							 26.51 191.09 C26.31 191.02 26.05 191.02 25.85 191.02 L25.65 191.02 L25.65 191.55 L25.85 191.55 C26.25
							 191.55 26.58 191.62 26.91 191.75 C27.24 191.89 27.44 191.95 27.58 192.02 C27.71 192.09 27.84 192.22
							 27.91 192.29 C27.91 192.29 27.98 192.35 28.04 192.35 C28.11 192.35 28.18 192.35 28.24 192.29 L28.24
							 188.69 L28.24 185.09 C28.31 185.03 28.38 185.03 28.38 184.96 C28.38 184.89 28.51 184.96 28.64 184.89
							 C28.78 184.89 29.04 184.89 29.38 184.89 L29.71 184.89 L29.71 184.36 L29.58 184.36 C29.38 184.36 28.78
							 184.43 27.64 184.43 C26.58 184.43 25.91 184.43 25.78 184.36 L25.65 184.36 L25.65 184.89 L25.98 184.89
							 C26.18 184.89 26.31 184.89 26.44 184.89 C26.58 184.89 26.64 184.89 26.78 184.89 C26.84 184.89 26.91
							 184.89 26.98 184.96 C27.04 184.96 27.04 184.96 27.04 184.96 C27.04 184.96 27.04 184.96 27.11 185.03
							 C27.18 185.09 27.18 185.09 27.18 185.09 L27.18 191.29 ZM31.91 189.49 C31.71 189.49 31.51 189.56 31.37
							 189.69 C31.24 189.82 31.17 190.02 31.17 190.22 C31.17 190.82 31.37 191.29 31.84 191.69 C32.24 192.09
							 32.77 192.29 33.44 192.29 C34.17 192.29 34.77 192.09 35.3 191.62 C35.84 191.16 36.04 190.56 36.04 189.89
							 C36.04 189.56 35.97 189.22 35.77 188.89 C35.64 188.56 35.44 188.29 35.17 188.09 C34.97 187.89 34.64
							 187.56 34.24 187.23 C33.97 186.96 33.57 186.63 33.04 186.09 L32.31 185.43 L33.24 185.43 C34.5 185.43
							 35.17 185.43 35.24 185.49 C35.3 185.49 35.37 185.89 35.5 186.56 L35.5 186.63 L35.97 186.63 L35.97 186.56
							 C35.97 186.56 35.9 186.16 35.84 185.49 C35.77 184.83 35.7 184.43 35.64 184.36 L35.64 184.29 L31.17 184.29
							 L31.17 184.49 L31.17 184.63 C31.17 184.69 31.17 184.76 31.24 184.83 C31.31 184.89 31.44 185.03 31.57
							 185.23 C31.77 185.49 32.04 185.69 32.17 185.89 C32.24 185.96 32.37 186.09 32.57 186.36 C32.77 186.56
							 32.91 186.69 32.97 186.83 C33.04 186.96 33.17 187.03 33.31 187.23 C33.44 187.43 33.57 187.56 33.64 187.62
							 C33.71 187.69 33.77 187.82 33.91 187.96 C34.04 188.09 34.11 188.22 34.17 188.36 C34.24 188.49 34.31
							 188.56 34.37 188.69 C34.5 188.89 34.57 189.02 34.64 189.16 C34.64 189.29 34.7 189.42 34.7 189.49 C34.7
							 189.62 34.77 189.76 34.77 189.89 C34.77 190.42 34.64 190.82 34.37 191.22 C34.04 191.62 33.64 191.82
							 33.17 191.82 C32.91 191.82 32.71 191.75 32.51 191.62 C32.31 191.49 32.11 191.29 32.04 191.16 C31.97
							 191.02 31.91 190.96 31.91 190.96 C31.91 190.96 31.91 190.96 31.97 190.96 C32.11 190.96 32.24 190.89
							 32.44 190.76 C32.57 190.62 32.64 190.49 32.64 190.22 C32.64 190.02 32.57 189.82 32.44 189.69 C32.31
							 189.56 32.17 189.49 31.91 189.49 ZM39.23 191.29 L39.1 191.22 C38.97 191.16 38.83 191.16 38.63 191.09
							 C38.43 191.02 38.17 191.02 37.97 191.02 L37.77 191.02 L37.77 191.55 L37.84 191.55 C38.24 191.55 38.57
							 191.62 38.9 191.75 C39.23 191.89 39.43 191.95 39.57 192.02 C39.7 192.09 39.83 192.22 39.9 192.29 C39.9
							 192.29 39.97 192.35 40.03 192.35 C40.1 192.35 40.17 192.35 40.23 192.29 L40.23 188.69 L40.23 185.09
							 C40.3 185.03 40.37 185.03 40.37 184.96 C40.37 184.89 40.5 184.96 40.63 184.89 C40.77 184.89 41.03 184.89
							 41.37 184.89 L41.7 184.89 L41.7 184.36 L41.57 184.36 C41.37 184.36 40.77 184.43 39.63 184.43 C38.57
							 184.43 37.9 184.43 37.77 184.36 L37.64 184.36 L37.64 184.89 L37.97 184.89 C38.17 184.89 38.3 184.89
							 38.43 184.89 C38.57 184.89 38.63 184.89 38.77 184.89 C38.83 184.89 38.9 184.89 38.97 184.96 C39.03 184.96
							 39.03 184.96 39.03 184.96 C39.03 184.96 39.03 184.96 39.1 185.03 C39.17 185.09 39.17 185.09 39.17 185.09
							 L39.17 191.29 L39.23 191.29 ZM25.91 173.1 C25.71 173.1 25.51 173.17 25.38 173.3 C25.25 173.44 25.18
							 173.64 25.18 173.84 C25.18 174.44 25.38 174.9 25.85 175.3 C26.25 175.7 26.78 175.9 27.44 175.9 C28.18
							 175.9 28.78 175.7 29.31 175.24 C29.78 174.77 30.04 174.17 30.04 173.5 C30.04 173.17 29.98 172.84 29.78
							 172.5 C29.64 172.17 29.44 171.9 29.18 171.7 C28.98 171.5 28.64 171.17 28.24 170.84 C27.98 170.57 27.58
							 170.24 27.04 169.71 L26.31 169.04 L27.24 169.04 C28.51 169.04 29.18 169.04 29.24 169.11 C29.31 169.11
							 29.38 169.51 29.51 170.17 L29.51 170.24 L29.98 170.24 L29.98 170.17 C29.98 170.17 29.91 169.77 29.84
							 169.11 C29.78 168.44 29.71 168.04 29.64 167.97 L29.64 167.91 L25.18 167.91 L25.18 168.11 L25.18 168.24
							 C25.18 168.31 25.18 168.37 25.25 168.44 C25.31 168.51 25.45 168.64 25.58 168.84 C25.78 169.11 26.05
							 169.31 26.18 169.51 C26.25 169.57 26.38 169.71 26.58 169.97 C26.78 170.17 26.91 170.31 26.98 170.44
							 C27.04 170.57 27.18 170.64 27.31 170.84 C27.44 171.04 27.58 171.17 27.64 171.24 C27.71 171.31 27.78
							 171.44 27.91 171.57 C28.04 171.7 28.11 171.84 28.18 171.97 C28.24 172.1 28.31 172.17 28.38 172.3 C28.44
							 172.44 28.51 172.57 28.51 172.7 C28.51 172.84 28.58 172.97 28.58 173.04 C28.58 173.17 28.64 173.3 28.64
							 173.44 C28.64 173.97 28.51 174.37 28.24 174.77 C27.98 175.17 27.58 175.3 27.04 175.3 C26.78 175.3 26.58
							 175.24 26.38 175.1 C26.18 174.97 26.05 174.84 25.98 174.7 C25.91 174.57 25.85 174.5 25.85 174.5 C25.85
							 174.5 25.85 174.5 25.91 174.5 C26.05 174.5 26.18 174.44 26.38 174.3 C26.51 174.17 26.58 174.04 26.58
							 173.77 C26.58 173.57 26.51 173.37 26.38 173.24 C26.31 173.17 26.11 173.1 25.91 173.1 ZM31.77 174.97
							 C32.24 175.63 32.84 175.97 33.64 175.97 C34.04 175.97 34.44 175.83 34.77 175.63 C35.17 175.43 35.44
							 175.04 35.7 174.5 C35.97 173.84 36.17 172.9 36.17 171.77 C36.17 170.51 35.97 169.57 35.64 168.91 C35.5
							 168.57 35.24 168.31 34.97 168.11 C34.7 167.91 34.44 167.77 34.24 167.71 C34.04 167.64 33.84 167.64 33.64
							 167.64 C33.44 167.64 33.24 167.64 33.04 167.71 C32.84 167.77 32.57 167.91 32.31 168.11 C32.04 168.31
							 31.77 168.57 31.64 168.91 C31.31 169.57 31.11 170.51 31.11 171.77 C31.11 173.17 31.31 174.24 31.77 174.97
							 ZM34.5 175.1 C34.24 175.37 33.97 175.5 33.64 175.5 C33.31 175.5 33.04 175.37 32.77 175.1 C32.57 174.9
							 32.44 174.64 32.37 174.24 C32.31 173.84 32.31 173.1 32.31 171.9 C32.31 170.64 32.31 169.77 32.37 169.37
							 C32.44 168.97 32.57 168.64 32.84 168.44 C33.04 168.17 33.37 168.11 33.64 168.11 C33.97 168.11 34.24
							 168.24 34.44 168.44 C34.64 168.71 34.84 169.04 34.9 169.44 C34.97 169.91 34.97 170.71 34.97 171.9 C34.97
							 173.04 34.97 173.84 34.9 174.24 C34.84 174.64 34.7 174.9 34.5 175.1 ZM37.77 174.97 C38.24 175.63 38.83
							 175.97 39.63 175.97 C40.03 175.97 40.43 175.83 40.77 175.63 C41.1 175.43 41.43 175.04 41.7 174.5 C41.97
							 173.84 42.17 172.9 42.17 171.77 C42.17 170.51 41.97 169.57 41.63 168.91 C41.5 168.57 41.23 168.31 40.97
							 168.11 C40.7 167.91 40.43 167.77 40.23 167.71 C40.03 167.64 39.83 167.64 39.63 167.64 C39.43 167.64
							 39.23 167.64 39.03 167.71 C38.83 167.77 38.57 167.91 38.3 168.11 C38.04 168.31 37.77 168.57 37.64 168.91
							 C37.3 169.57 37.1 170.51 37.1 171.77 C37.1 173.17 37.3 174.24 37.77 174.97 ZM40.5 175.1 C40.23 175.37
							 39.97 175.5 39.63 175.5 C39.3 175.5 39.03 175.37 38.77 175.1 C38.57 174.9 38.43 174.64 38.37 174.24
							 C38.3 173.84 38.3 173.1 38.3 171.9 C38.3 170.64 38.3 169.77 38.37 169.37 C38.43 168.97 38.57 168.64
							 38.83 168.44 C39.03 168.17 39.37 168.11 39.63 168.11 C39.97 168.11 40.23 168.24 40.43 168.44 C40.63
							 168.71 40.83 169.04 40.9 169.44 C40.97 169.91 40.97 170.71 40.97 171.9 C40.97 173.04 40.97 173.84 40.9
							 174.24 C40.83 174.64 40.7 174.9 40.5 175.1 ZM23.38 178.83 L43.9 178.83 L43.9 179.56 L23.38 179.56 L23.38
							 178.83 ZM58.88 181.76 C58.68 181.76 58.49 181.83 58.35 181.96 C58.22 182.1 58.15 182.3 58.15 182.5 C58.15
							 182.96 58.35 183.36 58.75 183.69 C59.15 184.03 59.62 184.23 60.15 184.23 C60.42 184.23 60.62 184.23
							 60.68 184.23 C61.28 184.16 61.75 183.89 62.02 183.56 C62.35 183.23 62.48 182.9 62.48 182.5 C62.48 182.1
							 62.35 181.7 62.08 181.3 C61.82 180.9 61.42 180.63 60.95 180.43 L60.88 180.43 C60.88 180.43 60.95 180.43
							 61.02 180.36 C61.08 180.3 61.22 180.3 61.35 180.23 C61.48 180.16 61.68 180.1 61.82 179.96 C62.48 179.56
							 62.81 178.97 62.81 178.3 C62.81 177.63 62.55 177.1 62.08 176.63 C61.62 176.17 60.95 175.9 60.22 175.9
							 C59.55 175.9 59.02 176.1 58.55 176.43 C58.09 176.77 57.89 177.23 57.89 177.77 C57.89 177.97 57.95 178.17
							 58.09 178.3 C58.22 178.43 58.42 178.5 58.62 178.5 C58.82 178.5 59.02 178.43 59.15 178.3 C59.28 178.17
							 59.35 177.97 59.35 177.77 C59.35 177.7 59.35 177.57 59.28 177.5 C59.28 177.43 59.22 177.37 59.22 177.3
							 C59.22 177.23 59.15 177.17 59.08 177.17 C59.02 177.1 58.95 177.1 58.95 177.1 C58.88 177.1 58.88 177.03
							 58.82 177.03 C58.75 177.03 58.75 177.03 58.75 176.97 L58.68 176.97 C59.08 176.63 59.62 176.43 60.15
							 176.43 C60.62 176.43 60.95 176.63 61.15 177.1 C61.28 177.37 61.35 177.77 61.35 178.3 L61.35 178.57 C61.35
							 179.3 61.08 179.83 60.55 180.1 C60.42 180.16 60.22 180.16 59.82 180.16 L59.28 180.16 L59.22 180.16 C59.22
							 180.16 59.22 180.23 59.22 180.36 C59.22 180.5 59.22 180.56 59.28 180.56 C59.48 180.56 59.75 180.56 59.95
							 180.63 C60.22 180.7 60.48 180.83 60.68 181.16 C60.88 181.43 61.02 181.9 61.02 182.5 L61.02 182.56 C61.02
							 183.03 60.88 183.36 60.62 183.49 C60.42 183.63 60.28 183.69 60.02 183.69 C59.75 183.69 59.55 183.63
							 59.28 183.56 C59.08 183.49 58.88 183.36 58.82 183.3 C58.75 183.23 58.68 183.16 58.68 183.16 L58.75 183.16
							 C58.75 183.16 58.82 183.16 58.82 183.16 C58.88 183.16 58.88 183.16 58.95 183.1 C59.02 183.1 59.02 183.03
							 59.08 183.03 C59.15 183.03 59.15 182.96 59.22 182.9 C59.22 182.83 59.28 182.76 59.28 182.7 C59.28 182.63
							 59.35 182.56 59.35 182.43 C59.35 182.23 59.28 182.1 59.15 181.96 C59.35 181.83 59.15 181.76 58.88 181.76
							 ZM71.61 184.29 C71.47 184.29 70.94 184.36 70.08 184.36 C69.14 184.36 68.61 184.36 68.48 184.29 L68.34
							 184.29 L68.34 184.83 L68.74 184.83 C68.88 184.83 69.01 184.83 69.08 184.83 C69.14 184.83 69.21 184.83
							 69.28 184.83 C69.34 184.83 69.41 184.89 69.48 184.89 C69.48 184.89 69.54 184.96 69.54 184.96 C69.54
							 184.96 69.54 185.16 69.54 185.63 L69.54 186.23 L66.41 186.23 L66.41 186.76 L68.21 189.56 C69.41 191.42
							 70.08 192.35 70.08 192.35 C70.08 192.35 70.21 192.35 70.34 192.35 L70.54 192.35 L70.61 192.29 L70.61
							 186.76 L71.74 186.76 L71.74 186.23 L70.61 186.23 L70.61 185.63 C70.61 185.29 70.61 185.09 70.61 185.03
							 C70.61 184.96 70.61 184.89 70.68 184.89 C70.74 184.83 70.94 184.83 71.34 184.83 L71.67 184.83 L71.67
							 184.29 L71.61 184.29 ZM69.61 186.89 L69.61 190.89 L66.94 186.89 L68.28 186.89 L69.61 186.89 ZM67.34
							 173.1 C67.14 173.1 66.94 173.17 66.81 173.3 C66.68 173.44 66.61 173.64 66.61 173.84 C66.61 174.44 66.81
							 174.9 67.28 175.3 C67.68 175.7 68.21 175.9 68.88 175.9 C69.61 175.9 70.21 175.7 70.74 175.24 C71.21
							 174.77 71.47 174.17 71.47 173.5 C71.47 173.17 71.41 172.84 71.21 172.5 C71.01 172.17 70.87 171.9 70.61
							 171.7 C70.41 171.5 70.08 171.17 69.68 170.84 C69.41 170.57 69.01 170.24 68.48 169.71 L67.74 169.04 L68.68
							 169.04 C69.94 169.04 70.61 169.04 70.68 169.11 C70.74 169.11 70.81 169.51 70.94 170.17 L70.94 170.24
							 L71.41 170.24 L71.41 170.17 C71.41 170.17 71.34 169.77 71.27 169.11 C71.21 168.37 71.14 168.04 71.07
							 167.97 L71.07 167.91 L66.61 167.91 L66.61 168.11 L66.61 168.24 C66.61 168.31 66.61 168.37 66.68 168.44
							 C66.74 168.51 66.88 168.64 67.01 168.84 C67.21 169.11 67.48 169.31 67.61 169.51 C67.68 169.57 67.81
							 169.71 68.01 169.97 C68.21 170.17 68.34 170.31 68.41 170.44 C68.48 170.51 68.61 170.64 68.74 170.84
							 C68.88 171.04 69.01 171.17 69.08 171.24 C69.14 171.31 69.21 171.44 69.34 171.57 C69.48 171.7 69.54 171.84
							 69.61 171.97 C69.68 172.1 69.74 172.17 69.81 172.3 C69.88 172.44 69.94 172.57 69.94 172.7 C69.94 172.84
							 70.01 172.97 70.01 173.04 C70.01 173.17 70.08 173.3 70.08 173.44 C70.08 173.97 69.94 174.37 69.68 174.77
							 C69.41 175.17 69.01 175.3 68.48 175.3 C68.21 175.3 68.01 175.24 67.81 175.1 C67.61 174.97 67.48 174.84
							 67.41 174.7 C67.34 174.57 67.28 174.5 67.28 174.5 C67.28 174.5 67.28 174.5 67.34 174.5 C67.48 174.5
							 67.61 174.44 67.81 174.3 C67.94 174.17 68.01 174.04 68.01 173.77 C68.01 173.57 67.94 173.37 67.81 173.24
							 C67.81 173.17 67.61 173.1 67.34 173.1 ZM64.81 178.83 L73.27 178.83 L73.27 179.56 L64.81 179.56 L64.81
							 178.83 Z" class="st8"/>
			</g>
		</g>
		<g id="group32-27" transform="translate(181.5,-19.7348)" v:mID="32" v:groupContext="group">
			<title>Лист.32</title>
			<g id="shape33-28" v:mID="33" v:groupContext="shape" transform="translate(0,374.123) scale(1,-1)">
				<title>Лист.33</title>
				<path d="M0.63 190.63 C1.04 191.2 1.55 191.49 2.24 191.49 C2.59 191.49 2.93 191.38 3.22 191.2 C3.51 191.03 3.8 190.69
							 4.03 190.23 C4.26 189.65 4.43 188.85 4.43 187.87 C4.43 186.77 4.26 185.97 3.97 185.39 C3.85 185.11 3.62
							 184.88 3.39 184.7 C3.16 184.53 2.93 184.42 2.76 184.36 C2.53 184.36 2.36 184.3 2.19 184.3 C2.01 184.3
							 1.84 184.3 1.67 184.36 C1.5 184.42 1.27 184.53 1.04 184.7 C0.81 184.88 0.58 185.11 0.46 185.39 C0.17
							 185.97 0 186.77 0 187.87 C0 189.08 0.23 190 0.63 190.63 ZM2.93 190.74 C2.76 190.97 2.47 191.09 2.19
							 191.09 C1.9 191.09 1.67 190.97 1.44 190.74 C1.27 190.57 1.15 190.34 1.09 190 C1.04 189.65 1.04 189.02
							 1.04 188.04 C1.04 186.95 1.04 186.2 1.09 185.85 C1.15 185.51 1.27 185.22 1.5 185.05 C1.67 184.82 1.96
							 184.76 2.19 184.76 C2.47 184.76 2.7 184.88 2.88 185.05 C3.05 185.28 3.22 185.57 3.28 185.91 C3.34 186.26
							 3.34 187 3.34 188.04 C3.34 189.02 3.34 189.71 3.28 190.05 C3.22 190.4 3.11 190.57 2.93 190.74 ZM5.64
							 185.16 C5.64 185.34 5.7 185.45 5.81 185.62 C5.93 185.74 6.1 185.8 6.27 185.8 C6.44 185.8 6.56 185.74
							 6.73 185.62 C6.85 185.51 6.9 185.34 6.9 185.16 C6.9 184.99 6.85 184.82 6.73 184.7 C6.62 184.59 6.44
							 184.53 6.27 184.53 C6.1 184.53 5.93 184.59 5.81 184.7 C5.7 184.82 5.64 184.99 5.64 185.16 ZM9.03 189.36
							 C8.86 189.36 8.69 189.42 8.57 189.54 C8.46 189.65 8.4 189.82 8.4 190 C8.4 190.4 8.57 190.74 8.92 191.03
							 C9.26 191.32 9.66 191.49 10.13 191.49 C10.36 191.49 10.53 191.49 10.59 191.49 C11.1 191.43 11.51 191.2
							 11.74 190.92 C12.02 190.63 12.14 190.34 12.14 190 C12.14 189.65 12.02 189.31 11.79 188.96 C11.56 188.61
							 11.22 188.38 10.82 188.21 L10.76 188.21 C10.76 188.21 10.82 188.21 10.87 188.15 C10.93 188.15 11.05
							 188.1 11.16 188.04 C11.28 187.98 11.45 187.92 11.56 187.81 C12.14 187.46 12.43 186.95 12.43 186.37 C12.43
							 185.8 12.2 185.34 11.79 184.93 C11.39 184.53 10.82 184.3 10.18 184.3 C9.61 184.3 9.15 184.47 8.74 184.76
							 C8.34 185.05 8.17 185.45 8.17 185.91 C8.17 186.08 8.23 186.26 8.34 186.37 C8.46 186.49 8.63 186.54 8.8
							 186.54 C8.97 186.54 9.15 186.49 9.26 186.37 C9.38 186.26 9.43 186.08 9.43 185.91 C9.43 185.85 9.43 185.74
							 9.38 185.68 C9.38 185.62 9.32 185.57 9.32 185.51 C9.32 185.45 9.26 185.39 9.2 185.39 C9.15 185.34 9.09
							 185.34 9.09 185.34 C9.09 185.34 9.03 185.28 8.97 185.28 C8.92 185.28 8.92 185.28 8.92 185.22 L8.86 185.22
							 C9.2 184.93 9.66 184.76 10.13 184.76 C10.53 184.76 10.82 184.93 10.99 185.34 C11.1 185.57 11.16 185.91
							 11.16 186.37 L11.16 186.6 C11.16 187.23 10.93 187.69 10.47 187.92 C10.36 187.98 10.18 187.98 9.84 187.98
							 L9.38 187.98 L9.32 187.98 C9.32 187.98 9.32 188.04 9.32 188.15 C9.32 188.27 9.32 188.33 9.38 188.33
							 C9.55 188.33 9.78 188.33 9.95 188.38 C10.18 188.44 10.41 188.56 10.59 188.85 C10.76 189.13 10.87 189.48
							 10.87 190 L10.87 190.05 C10.87 190.46 10.76 190.74 10.53 190.86 C10.36 190.97 10.24 191.03 10.01 191.03
							 C9.78 191.03 9.61 190.97 9.38 190.92 C9.2 190.86 9.03 190.74 8.97 190.69 C8.92 190.63 8.86 190.57 8.86
							 190.57 L8.92 190.57 C8.92 190.57 8.97 190.57 8.97 190.57 C9.03 190.57 9.03 190.57 9.09 190.51 C9.15
							 190.46 9.15 190.46 9.2 190.46 C9.26 190.46 9.26 190.4 9.32 190.34 C9.38 190.28 9.38 190.23 9.38 190.17
							 C9.43 190.11 9.43 190.05 9.43 189.94 C9.43 189.77 9.38 189.65 9.26 189.54 C9.15 189.42 9.26 189.36 9.03
							 189.36 ZM25.54 190.57 L25.43 190.51 C25.31 190.46 25.2 190.46 25.03 190.4 C24.85 190.34 24.62 190.34
							 24.45 190.34 L24.28 190.34 L24.28 190.8 L24.45 190.8 C24.8 190.8 25.08 190.86 25.37 190.97 C25.66 191.09
							 25.83 191.15 25.95 191.2 C26.06 191.26 26.18 191.38 26.23 191.43 C26.23 191.43 26.29 191.49 26.35 191.49
							 C26.41 191.49 26.46 191.49 26.52 191.43 L26.52 188.33 L26.52 185.22 C26.58 185.16 26.64 185.16 26.64
							 185.11 C26.64 185.05 26.75 185.11 26.87 185.05 C26.98 185.05 27.21 185.05 27.5 185.05 L27.79 185.05
							 L27.79 184.59 L27.67 184.59 C27.5 184.59 26.98 184.65 26 184.65 C25.08 184.65 24.51 184.65 24.39 184.59
							 L24.28 184.59 L24.28 185.05 L24.57 185.05 C24.74 185.05 24.85 185.05 24.97 185.05 C25.08 185.05 25.14
							 185.05 25.26 185.05 C25.31 185.05 25.37 185.05 25.43 185.11 C25.49 185.11 25.49 185.11 25.49 185.11
							 C25.49 185.11 25.49 185.11 25.54 185.16 C25.6 185.22 25.6 185.22 25.6 185.22 L25.6 190.57 L25.54 190.57
							 ZM29.69 189.02 C29.51 189.02 29.34 189.08 29.23 189.19 C29.11 189.31 29.05 189.48 29.05 189.65 C29.05
							 190.17 29.23 190.57 29.63 190.92 C30.03 191.26 30.43 191.43 31.01 191.43 C31.64 191.43 32.16 191.26
							 32.62 190.86 C33.02 190.46 33.25 189.94 33.25 189.36 C33.25 189.08 33.19 188.79 33.02 188.5 C32.85 188.21
							 32.73 187.98 32.5 187.81 C32.33 187.64 32.04 187.35 31.7 187.06 C31.47 186.83 31.12 186.54 30.66 186.08
							 L30.03 185.51 L30.84 185.51 C31.93 185.51 32.5 185.51 32.56 185.57 C32.62 185.57 32.68 185.91 32.79
							 186.49 L32.79 186.54 L33.19 186.54 L33.19 186.49 C33.19 186.49 33.14 186.14 33.08 185.57 C33.02 184.99
							 32.96 184.65 32.91 184.59 L32.91 184.53 L29.05 184.53 L29.05 184.7 L29.05 184.82 C29.05 184.88 29.05
							 184.93 29.11 184.99 C29.17 185.05 29.28 185.16 29.4 185.34 C29.57 185.57 29.8 185.74 29.92 185.91 C29.97
							 185.97 30.09 186.08 30.26 186.31 C30.43 186.49 30.55 186.6 30.61 186.72 C30.66 186.77 30.78 186.89 30.89
							 187.06 C31.01 187.23 31.12 187.35 31.18 187.41 C31.24 187.46 31.3 187.58 31.41 187.69 C31.53 187.81
							 31.58 187.92 31.64 188.04 C31.7 188.15 31.76 188.21 31.81 188.33 C31.87 188.44 31.93 188.56 31.93 188.67
							 C31.93 188.79 31.99 188.9 31.99 188.96 C31.99 189.08 32.04 189.19 32.04 189.31 C32.04 189.77 31.93 190.11
							 31.7 190.46 C31.47 190.8 31.12 190.92 30.66 190.92 C30.43 190.92 30.26 190.86 30.09 190.74 C29.92 190.63
							 29.8 190.51 29.74 190.4 C29.69 190.28 29.63 190.23 29.63 190.23 C29.63 190.23 29.63 190.23 29.69 190.23
							 C29.8 190.23 29.92 190.17 30.09 190.05 C30.2 189.94 30.26 189.82 30.26 189.59 C30.26 189.42 30.2 189.25
							 30.09 189.13 C29.97 189.02 29.86 189.02 29.69 189.02 ZM34.52 185.16 C34.52 185.34 34.58 185.45 34.69
							 185.62 C34.81 185.74 34.98 185.8 35.15 185.8 C35.32 185.8 35.44 185.74 35.61 185.62 C35.73 185.51 35.78
							 185.34 35.78 185.16 C35.78 184.99 35.73 184.82 35.61 184.7 C35.5 184.59 35.32 184.53 35.15 184.53 C34.98
							 184.53 34.81 184.59 34.69 184.7 C34.63 184.82 34.58 184.99 34.52 185.16 ZM40.27 187.52 C39.93 187 39.52
							 186.72 39.01 186.72 C38.49 186.72 38.03 186.95 37.68 187.35 C37.34 187.75 37.11 188.21 37.05 188.67
							 C37.05 188.79 37.05 188.9 37.05 189.08 L37.05 189.13 C37.05 189.77 37.28 190.34 37.74 190.8 C38.14 191.2
							 38.6 191.43 39.12 191.43 C39.12 191.43 39.18 191.43 39.18 191.43 C39.18 191.43 39.24 191.43 39.24 191.43
							 L39.29 191.43 C39.35 191.43 39.47 191.43 39.58 191.43 C39.7 191.43 39.81 191.38 39.98 191.32 C40.16
							 191.26 40.33 191.15 40.5 190.97 C40.67 190.8 40.79 190.63 40.96 190.34 C41.25 189.71 41.42 188.96 41.42
							 187.98 C41.42 187 41.19 186.2 40.79 185.51 C40.56 185.11 40.27 184.82 39.93 184.59 C39.58 184.36 39.24
							 184.24 38.83 184.24 C38.43 184.24 38.08 184.36 37.8 184.53 C37.51 184.7 37.39 185.05 37.39 185.45 C37.39
							 185.85 37.57 186.03 37.97 186.03 C38.14 186.03 38.26 185.97 38.37 185.85 C38.49 185.74 38.54 185.62
							 38.54 185.45 C38.54 185.34 38.49 185.22 38.43 185.11 C38.37 184.99 38.31 184.93 38.26 184.93 C38.2 184.93
							 38.14 184.88 38.14 184.88 L38.08 184.88 C38.08 184.88 38.08 184.82 38.14 184.82 C38.2 184.82 38.26 184.76
							 38.43 184.7 C38.54 184.65 38.72 184.65 38.89 184.65 L38.95 184.65 C39.35 184.65 39.7 184.88 39.98 185.34
							 C40.27 185.74 40.39 186.37 40.39 187.35 L40.39 187.52 L40.27 187.52 ZM39.18 187.12 C39.52 187.12 39.75
							 187.29 39.98 187.64 C40.16 187.98 40.27 188.44 40.27 189.02 C40.27 189.54 40.27 189.94 40.21 190.17
							 C40.21 190.23 40.16 190.28 40.16 190.4 C40.16 190.46 40.1 190.57 39.98 190.69 C39.93 190.8 39.81 190.92
							 39.7 190.97 C39.58 191.03 39.41 191.09 39.18 191.09 C38.89 191.09 38.66 190.97 38.49 190.8 C38.31 190.63
							 38.26 190.46 38.2 190.28 C38.14 190.05 38.14 189.71 38.14 189.19 C38.14 188.61 38.14 188.21 38.2 188.04
							 C38.26 187.87 38.31 187.69 38.43 187.52 C38.6 187.23 38.83 187.12 39.18 187.12 ZM45.51 187.52 C45.16
							 187 44.76 186.72 44.24 186.72 C43.72 186.72 43.26 186.95 42.92 187.35 C42.57 187.75 42.34 188.21 42.28
							 188.67 C42.28 188.79 42.28 188.9 42.28 189.08 L42.28 189.13 C42.28 189.77 42.51 190.34 42.97 190.8 C43.38
							 191.2 43.84 191.43 44.36 191.43 C44.36 191.43 44.41 191.43 44.41 191.43 C44.41 191.43 44.47 191.43 44.47
							 191.43 L44.53 191.43 C44.59 191.43 44.7 191.43 44.82 191.43 C44.93 191.43 45.05 191.38 45.22 191.32
							 C45.39 191.26 45.56 191.15 45.74 190.97 C45.91 190.8 46.02 190.63 46.2 190.34 C46.48 189.71 46.66 188.96
							 46.66 187.98 C46.66 187 46.43 186.2 46.02 185.51 C45.79 185.11 45.51 184.82 45.16 184.59 C44.82 184.36
							 44.47 184.24 44.07 184.24 C43.67 184.24 43.32 184.36 43.03 184.53 C42.74 184.7 42.63 185.05 42.63 185.45
							 C42.63 185.85 42.8 186.03 43.2 186.03 C43.38 186.03 43.49 185.97 43.61 185.85 C43.72 185.74 43.78 185.62
							 43.78 185.45 C43.78 185.34 43.72 185.22 43.67 185.11 C43.61 184.99 43.55 184.93 43.49 184.93 C43.43
							 184.93 43.38 184.88 43.38 184.88 L43.32 184.88 C43.32 184.88 43.32 184.82 43.38 184.82 C43.43 184.82
							 43.49 184.76 43.67 184.7 C43.84 184.65 43.95 184.65 44.13 184.65 L44.18 184.65 C44.59 184.65 44.93 184.88
							 45.22 185.34 C45.51 185.74 45.62 186.37 45.62 187.35 L45.62 187.52 L45.51 187.52 ZM44.36 187.12 C44.7
							 187.12 44.93 187.29 45.16 187.64 C45.39 187.98 45.45 188.44 45.45 189.02 C45.45 189.54 45.45 189.94
							 45.39 190.17 C45.39 190.23 45.33 190.28 45.33 190.4 C45.33 190.46 45.28 190.57 45.16 190.69 C45.1 190.8
							 44.99 190.92 44.87 190.97 C44.76 191.03 44.59 191.09 44.36 191.09 C44.07 191.09 43.84 190.97 43.67 190.8
							 C43.49 190.63 43.43 190.46 43.38 190.28 C43.32 190.05 43.32 189.71 43.32 189.19 C43.32 188.61 43.32
							 188.21 43.38 188.04 C43.43 187.87 43.49 187.69 43.61 187.52 C43.78 187.23 44.07 187.12 44.36 187.12
							 ZM47.63 189.31 C47.63 189.31 47.69 189.71 47.81 190.46 L47.98 191.55 C47.98 191.55 48.04 191.55 48.21
							 191.55 L48.44 191.55 L48.44 191.49 C48.44 191.43 48.5 191.38 48.61 191.32 C48.73 191.26 48.9 191.26
							 49.13 191.2 C49.36 191.2 49.99 191.2 50.91 191.2 L52.18 191.2 L52.18 190.8 L51.37 189.88 C51.32 189.82
							 51.2 189.65 51.09 189.48 C50.91 189.25 50.8 189.13 50.8 189.08 C50.74 189.02 50.68 188.9 50.57 188.73
							 C50.45 188.56 50.4 188.44 50.34 188.33 C50.28 188.21 50.28 188.1 50.17 187.92 C50.11 187.75 50.05 187.58
							 50.05 187.46 C50.05 187.35 49.99 187.12 49.99 186.89 C49.99 186.66 49.94 186.43 49.94 186.2 C49.94 185.97
							 49.94 185.68 49.88 185.34 C49.88 185.22 49.88 185.16 49.88 185.05 C49.88 184.93 49.88 184.88 49.88 184.82
							 L49.88 184.7 C49.88 184.59 49.76 184.47 49.71 184.42 C49.59 184.36 49.48 184.3 49.36 184.3 C49.3 184.3
							 49.19 184.3 49.13 184.36 C49.07 184.36 49.02 184.47 48.9 184.53 C48.84 184.65 48.79 184.76 48.79 184.93
							 C48.79 186.03 49.13 187.18 49.82 188.33 C49.94 188.56 50.22 188.96 50.68 189.59 L51.14 190.23 L50.17
							 190.23 C48.96 190.23 48.32 190.23 48.27 190.17 C48.21 190.17 48.21 190.05 48.15 189.94 C48.09 189.82
							 48.09 189.65 48.04 189.48 L47.98 189.25 L47.98 189.19 L47.63 189.31 ZM63.97 189.36 C63.8 189.36 63.63
							 189.42 63.51 189.54 C63.4 189.65 63.34 189.82 63.34 190 C63.34 190.4 63.51 190.74 63.86 191.03 C64.2
							 191.32 64.61 191.49 65.07 191.49 C65.3 191.49 65.47 191.49 65.53 191.49 C66.04 191.43 66.45 191.2 66.68
							 190.92 C66.96 190.63 67.08 190.34 67.08 190 C67.08 189.65 66.96 189.31 66.73 188.96 C66.5 188.61 66.16
							 188.38 65.76 188.21 L65.7 188.21 C65.7 188.21 65.76 188.21 65.81 188.15 C65.87 188.15 65.99 188.1 66.1
							 188.04 C66.22 187.98 66.39 187.92 66.5 187.81 C67.08 187.46 67.37 186.95 67.37 186.37 C67.37 185.8 67.14
							 185.34 66.73 184.93 C66.33 184.53 65.76 184.3 65.12 184.3 C64.55 184.3 64.09 184.47 63.69 184.76 C63.28
							 185.05 63.11 185.45 63.11 185.91 C63.11 186.08 63.17 186.26 63.28 186.37 C63.4 186.49 63.57 186.54 63.74
							 186.54 C63.92 186.54 64.09 186.49 64.2 186.37 C64.32 186.26 64.38 186.08 64.38 185.91 C64.38 185.85
							 64.38 185.74 64.32 185.68 C64.32 185.62 64.26 185.57 64.26 185.51 C64.26 185.45 64.2 185.39 64.15 185.39
							 C64.09 185.34 64.03 185.34 64.03 185.34 C64.03 185.34 63.97 185.28 63.92 185.28 C63.86 185.28 63.86
							 185.28 63.86 185.22 L63.8 185.22 C64.15 184.93 64.61 184.76 65.07 184.76 C65.47 184.76 65.76 184.93
							 65.93 185.34 C66.04 185.57 66.1 185.91 66.1 186.37 L66.1 186.6 C66.1 187.23 65.87 187.69 65.41 187.92
							 C65.3 187.98 65.12 187.98 64.78 187.98 L64.32 187.98 L64.26 187.98 C64.26 187.98 64.26 188.04 64.26
							 188.15 C64.26 188.27 64.26 188.33 64.32 188.33 C64.49 188.33 64.72 188.33 64.89 188.38 C65.12 188.44
							 65.35 188.56 65.53 188.85 C65.7 189.13 65.81 189.48 65.81 190 L65.81 190.05 C65.81 190.46 65.7 190.74
							 65.47 190.86 C65.3 190.97 65.18 191.03 64.95 191.03 C64.72 191.03 64.55 190.97 64.32 190.92 C64.09 190.86
							 63.97 190.74 63.92 190.69 C64.09 190.63 64.03 190.57 64.03 190.57 L64.09 190.57 C64.09 190.57 64.15
							 190.57 64.15 190.57 C64.2 190.57 64.2 190.57 64.26 190.51 C64.32 190.46 64.32 190.46 64.38 190.46 C64.43
							 190.46 64.43 190.4 64.49 190.34 C64.49 190.28 64.55 190.23 64.55 190.17 C64.61 190.11 64.61 190.05 64.61
							 189.94 C64.61 189.77 64.55 189.65 64.43 189.54 C64.32 189.42 64.2 189.36 63.97 189.36 ZM68.69 185.16
							 C68.69 185.34 68.75 185.45 68.86 185.62 C68.98 185.74 69.15 185.8 69.32 185.8 C69.5 185.8 69.61 185.74
							 69.78 185.62 C69.9 185.51 69.96 185.34 69.96 185.16 C69.96 184.99 69.9 184.82 69.78 184.7 C69.67 184.59
							 69.5 184.53 69.32 184.53 C69.15 184.53 68.98 184.59 68.86 184.7 C68.75 184.82 68.69 184.99 68.69 185.16
							 ZM72.49 186.2 C72.49 186.03 72.43 185.91 72.31 185.8 C72.2 185.68 72.08 185.62 71.91 185.62 L71.85 185.62
							 C72.2 185.05 72.6 184.82 73.12 184.82 C73.58 184.82 73.98 185.05 74.16 185.45 C74.27 185.68 74.33 186.14
							 74.33 186.77 C74.33 187.46 74.21 187.98 74.04 188.21 C73.87 188.44 73.64 188.56 73.47 188.56 L73.41
							 188.56 C72.89 188.56 72.43 188.33 72.2 187.87 C72.2 187.81 72.14 187.81 72.14 187.81 C72.14 187.81 72.08
							 187.81 71.97 187.81 C71.85 187.81 71.8 187.81 71.8 187.87 C71.8 187.87 71.8 188.5 71.8 189.71 L71.8
							 191.03 C71.8 191.38 71.8 191.55 71.85 191.55 C71.85 191.55 71.85 191.55 71.91 191.55 C71.91 191.55 71.97
							 191.55 72.14 191.49 C72.26 191.43 72.49 191.38 72.72 191.32 C72.95 191.26 73.24 191.26 73.52 191.26
							 C74.04 191.26 74.5 191.38 74.96 191.55 C75.02 191.55 75.08 191.61 75.08 191.61 C75.13 191.61 75.13 191.55
							 75.13 191.43 L75.13 191.32 C74.56 190.63 73.87 190.28 73.01 190.28 C72.78 190.28 72.6 190.28 72.43 190.34
							 L72.31 190.34 L72.31 188.56 C72.43 188.67 72.54 188.73 72.6 188.79 C72.66 188.85 72.78 188.9 73.01 188.96
							 C73.06 188.9 73.24 188.9 73.41 188.9 C73.98 188.9 74.44 188.67 74.85 188.21 C75.25 187.75 75.42 187.23
							 75.42 186.6 C75.42 185.97 75.19 185.39 74.73 184.99 C74.27 184.53 73.75 184.3 73.12 184.3 C72.54 184.3
							 72.08 184.47 71.74 184.88 C71.39 185.28 71.22 185.68 71.22 186.14 C71.22 186.31 71.28 186.43 71.34 186.54
							 C71.39 186.66 71.51 186.72 71.57 186.72 C71.62 186.72 71.74 186.77 71.8 186.77 C71.97 186.77 72.08 186.72
							 72.2 186.6 C72.43 186.49 72.49 186.31 72.49 186.2 ZM76.92 187.18 C76.92 187.64 76.97 188.1 77.03 188.56
							 C77.09 189.02 77.2 189.36 77.26 189.65 C77.32 189.94 77.49 190.28 77.67 190.57 C77.84 190.86 77.95 191.09
							 78.07 191.26 C78.18 191.43 78.3 191.61 78.53 191.78 C78.7 191.95 78.82 192.07 78.87 192.12 C78.93 192.18
							 78.99 192.24 79.16 192.35 L79.28 192.35 L79.33 192.35 C79.45 192.35 79.51 192.3 79.51 192.24 C79.51
							 192.24 79.45 192.12 79.33 192.01 C79.22 191.89 79.05 191.72 78.93 191.43 C78.82 191.15 78.59 190.92
							 78.41 190.51 C78.24 190.17 78.07 189.71 77.95 189.08 C77.84 188.5 77.78 187.81 77.78 187.06 C77.78 186.31
							 77.84 185.68 77.95 185.05 C78.07 184.47 78.24 183.95 78.36 183.61 C78.53 183.26 78.7 182.92 78.87 182.69
							 C79.05 182.46 79.22 182.29 79.33 182.11 C79.45 182 79.51 181.88 79.51 181.88 C79.51 181.83 79.45 181.77
							 79.33 181.77 L79.28 181.77 L79.16 181.77 L78.87 182 C78.24 182.57 77.72 183.32 77.44 184.19 C77.15 185.05
							 76.92 186.2 76.92 187.18 ZM82.21 190.57 L82.09 190.51 C81.98 190.46 81.86 190.46 81.69 190.4 C81.52
							 190.34 81.29 190.34 81.12 190.34 L80.94 190.34 L80.94 190.8 L81.12 190.8 C81.46 190.8 81.75 190.86 82.04
							 190.97 C82.33 191.09 82.5 191.15 82.61 191.2 C82.73 191.26 82.84 191.38 82.9 191.43 C82.9 191.43 82.96
							 191.49 83.02 191.49 C83.07 191.49 83.13 191.49 83.19 191.43 L83.19 188.33 L83.19 185.22 C83.25 185.16
							 83.3 185.16 83.3 185.11 C83.3 185.05 83.42 185.11 83.53 185.05 C83.65 185.05 83.88 185.05 84.17 185.05
							 L84.45 185.05 L84.45 184.59 L84.34 184.59 C84.17 184.59 83.65 184.65 82.67 184.65 C81.75 184.65 81.17
							 184.65 81.06 184.59 L80.94 184.59 L80.94 185.05 L81.23 185.05 C81.4 185.05 81.52 185.05 81.63 185.05
							 C81.75 185.05 81.81 185.05 81.92 185.05 C81.98 185.05 82.04 185.05 82.09 185.11 C82.15 185.11 82.15
							 185.11 82.15 185.11 C82.15 185.11 82.15 185.11 82.21 185.16 C82.27 185.22 82.27 185.22 82.27 185.22
							 L82.27 190.57 L82.21 190.57 ZM86.35 189.02 C86.18 189.02 86.01 189.08 85.89 189.19 C85.78 189.31 85.72
							 189.48 85.72 189.65 C85.72 190.17 85.89 190.57 86.29 190.92 C86.64 191.26 87.1 191.43 87.68 191.43 C88.31
							 191.43 88.83 191.26 89.29 190.86 C89.75 190.46 89.92 189.94 89.92 189.36 C89.92 189.08 89.86 188.79
							 89.69 188.5 C89.57 188.21 89.4 187.98 89.17 187.81 C89 187.64 88.71 187.35 88.37 187.06 C88.14 186.83
							 87.79 186.54 87.33 186.08 L86.7 185.51 L87.5 185.51 C88.6 185.51 89.17 185.51 89.23 185.57 C89.29 185.57
							 89.34 185.91 89.46 186.49 L89.46 186.54 L89.86 186.54 L89.86 186.49 C89.86 186.49 89.8 186.14 89.75
							 185.57 C89.69 184.93 89.63 184.65 89.57 184.59 L89.57 184.53 L85.72 184.53 L85.72 184.7 L85.72 184.82
							 C85.72 184.88 85.72 184.93 85.78 184.99 C85.83 185.05 85.95 185.16 86.06 185.34 C86.24 185.57 86.47
							 185.74 86.58 185.91 C86.64 185.97 86.75 186.08 86.93 186.31 C87.1 186.49 87.22 186.6 87.27 186.72 C87.33
							 186.77 87.45 186.89 87.56 187.06 C87.68 187.23 87.79 187.35 87.85 187.41 C87.91 187.46 87.96 187.58
							 88.08 187.69 C88.19 187.81 88.25 187.92 88.31 188.04 C88.37 188.15 88.42 188.21 88.48 188.33 C88.54
							 188.44 88.6 188.56 88.6 188.67 C88.6 188.79 88.65 188.9 88.65 188.96 C88.65 189.02 88.71 189.19 88.71
							 189.31 C88.71 189.77 88.6 190.11 88.37 190.46 C88.14 190.8 87.79 190.92 87.33 190.92 C87.1 190.92 86.93
							 190.86 86.75 190.74 C86.58 190.63 86.47 190.51 86.41 190.4 C86.35 190.28 86.29 190.23 86.29 190.23 C86.29
							 190.23 86.29 190.23 86.35 190.23 C86.47 190.23 86.58 190.17 86.75 190.05 C86.87 189.94 86.93 189.82
							 86.93 189.59 C86.93 189.42 86.87 189.25 86.75 189.13 C86.64 189.02 86.52 189.02 86.35 189.02 ZM91.07
							 192.35 C91.13 192.35 91.18 192.35 91.24 192.35 L91.36 192.35 L91.64 192.12 C92.28 191.55 92.8 190.8
							 93.08 189.94 C93.37 189.08 93.54 188.15 93.54 187.18 C93.54 186.72 93.49 186.26 93.43 185.8 C93.37 185.34
							 93.26 184.99 93.2 184.7 C93.08 184.42 92.97 184.07 92.8 183.78 C92.62 183.49 92.51 183.26 92.39 183.09
							 C92.28 182.92 92.16 182.75 91.99 182.57 C91.82 182.4 91.7 182.29 91.64 182.23 C91.59 182.17 91.53 182.11
							 91.41 182.06 C91.41 182.06 91.36 182 91.36 182 L91.24 182 C91.18 182 91.13 182 91.13 182 C91.13 182
							 91.07 182 91.07 182.06 C91.07 182.11 91.07 182.11 91.01 182.17 C91.01 182.17 91.07 182.23 91.13 182.29
							 C92.22 183.38 92.74 185.05 92.74 187.23 C92.74 189.42 92.22 191.09 91.13 192.18 C91.07 192.24 91.01
							 192.3 91.01 192.3 C91.01 192.3 91.01 192.3 91.07 192.35 Z" class="st9"/>
			</g>
		</g>
	</g>
</svg>
