<?xml version="1.0" encoding="UTF-8"?><svg id="a" xmlns="http://www.w3.org/2000/svg" viewBox="0 0 500 500"><g id="b"><path id="c" d="m72.39,340.15c.29,0,.73.15,1.31.44s1.39.51,2.41.66,1.9.22,2.63.22c1.9,0,3.65-.95,5.25-2.84s2.77-4.01,3.5-6.35c1.46-3.94,3.94-15.1,7.44-33.48,3.5-18.38,6.86-35.88,10.07-52.51,3.21-16.63,4.81-25.02,4.81-25.16v-.66h-10.28c-6.86,0-10.5-.15-10.94-.44-.58-.44-.88-1.17-.88-2.19l1.53-6.13c.29-.73.88-1.09,1.75-1.09s4.3-.07,10.28-.22c7,0,10.5-.07,10.5-.22,0-.29.66-3.94,1.97-10.94,1.31-7,2.19-11.23,2.63-12.69,5.4-24.07,16.05-36.1,31.95-36.1,5.4.29,9.85,1.9,13.35,4.81,3.5,2.92,5.25,6.78,5.25,11.6,0,5.25-1.53,9.04-4.59,11.38s-6.13,3.57-9.19,3.72c-6.42,0-9.63-3.06-9.63-9.19,0-2.77.8-5.18,2.41-7.22s3.36-3.57,5.25-4.59l1.97-1.09c-2.33-.88-4.52-1.31-6.56-1.31-1.75,0-3.43.73-5.03,2.19s-2.7,3.5-3.28,6.13c-1.02,4.23-2.19,9.92-3.5,17.07-1.31,7.15-2.48,13.2-3.5,18.16-1.02,4.96-1.53,7.59-1.53,7.88s4.01.44,12.03.44c6.56,0,10.36.07,11.38.22s1.82.58,2.41,1.31c.15.58,0,1.82-.44,3.72s-.8,3.06-1.09,3.5c-.29.73-.95,1.09-1.97,1.09s-4.96.07-11.82.22h-12.25l-5.03,26.69c-7,36.18-11.89,58.79-14.66,67.83-3.94,12.4-9.04,21.59-15.32,27.57-5.4,4.67-10.72,7-15.97,7-4.67,0-8.9-1.39-12.69-4.16-3.79-2.77-5.69-6.71-5.69-11.82,0-5.4,1.53-9.34,4.59-11.82,3.06-2.48,6.13-3.72,9.19-3.72,6.42,0,9.63,3.06,9.63,9.19,0,2.77-.8,5.18-2.41,7.22-1.6,2.04-3.36,3.57-5.25,4.59l-1.97,1.09Z" style="fill:#666; stroke:#666; stroke-miterlimit:10;"/><path id="d" d="m187.48,250c0-10.07.73-19.62,2.19-28.66,1.46-9.04,3.14-16.85,5.03-23.41,1.9-6.56,4.59-12.98,8.1-19.26s6.27-11.16,8.31-14.66c2.04-3.5,5.11-7.29,9.19-11.38,4.08-4.08,6.49-6.56,7.22-7.44s2.55-2.41,5.47-4.59h3.72c2.04,0,3.06.66,3.06,1.97,0,.44-1.24,1.97-3.72,4.59s-5.47,6.49-8.97,11.6c-3.5,5.11-7.07,11.38-10.72,18.82-3.65,7.44-6.71,17.5-9.19,30.2s-3.72,26.77-3.72,42.23,1.24,29.47,3.72,42.01c2.48,12.54,5.47,22.68,8.97,30.41,3.5,7.73,7.07,14,10.72,18.82s6.71,8.68,9.19,11.6,3.72,4.45,3.72,4.59c0,1.31-1.09,1.97-3.28,1.97h-3.5l-6.13-5.25c-13.71-12.4-23.7-27.86-29.98-46.39-6.27-18.53-9.41-37.78-9.41-57.77Z" style="fill:#666; stroke:#666; stroke-miterlimit:10;"/><path id="e" d="m390.32,140.82l.88-.22h4.81l6.13,5.25c13.71,12.4,23.7,27.86,29.98,46.39,6.27,18.53,9.41,37.78,9.41,57.77,0,9.92-.73,19.47-2.19,28.66-1.46,9.19-3.14,16.99-5.03,23.41-1.9,6.42-4.59,12.84-8.1,19.26-3.5,6.42-6.27,11.31-8.31,14.66-2.04,3.36-5.03,7.07-8.97,11.16-3.94,4.08-6.27,6.49-7,7.22s-2.41,2.12-5.03,4.16c-.44.44-.73.73-.88.88h-5.03c-.44,0-.8-.22-1.09-.66s-.51-1.09-.66-1.97c.15-.15.95-1.09,2.41-2.84,22.61-23.49,33.92-58.13,33.92-103.93s-11.31-80.45-33.92-103.93c-1.46-1.75-2.26-2.7-2.41-2.84,0-1.17.36-1.97,1.09-2.41Z" style="fill:#666; stroke:#666; stroke-miterlimit:10;"/></g><g id="f"><path id="g" d="m335.51,300.04v-5.75c0-10.11,4.11-19.82,11.27-26.64,8.96-8.54,13.89-20.05,13.89-32.42,0-24.7-20.09-44.79-44.79-44.79-1.69,0-3.4.09-5.09.28-21.4,2.37-38.44,20.41-39.63,41.97-.72,13,4.21,25.64,13.53,34.69,7.35,7.13,11.56,16.94,11.56,26.92v5.76c0,6.11,4.97,11.08,11.08,11.08h17.09c6.11,0,11.09-4.97,11.08-11.08Zm-8.15,0c0,1.62-1.32,2.93-2.93,2.93h-17.09c-1.62,0-2.93-1.32-2.93-2.93v-5.76c0-12.17-5.12-24.12-14.03-32.77-7.62-7.4-11.66-17.74-11.07-28.38.98-17.63,14.9-32.38,32.39-34.31,1.39-.15,2.8-.23,4.19-.23,20.2,0,36.64,16.43,36.64,36.64,0,10.12-4.04,19.54-11.36,26.52-8.77,8.35-13.8,20.22-13.8,32.55v5.75h0Z" style="fill:#666; stroke:#666; stroke-miterlimit:10; stroke-width:5px;"/><path id="h" d="m330.54,321.92h-29.32c-1.87,0-3.38,1.51-3.38,3.38s1.51,3.38,3.38,3.38h29.32c1.87,0,3.38-1.51,3.38-3.38s-1.51-3.38-3.38-3.38Z" style="fill:#666; stroke:#666; stroke-miterlimit:10;"/><path id="i" d="m333.92,335.97c0-1.87-1.51-3.38-3.38-3.38h-29.32c-1.87,0-3.38,1.51-3.38,3.38s1.51,3.38,3.38,3.38h29.32c1.86,0,3.38-1.51,3.38-3.38Z" style="fill:#666; stroke:#666; stroke-miterlimit:10;"/><path id="j" d="m236.45,238.46h19.47c1.87,0,3.38-1.51,3.38-3.38s-1.51-3.38-3.38-3.38h-19.47c-1.87,0-3.38,1.51-3.38,3.38s1.51,3.38,3.38,3.38Z" style="fill:#666; stroke:#666; stroke-miterlimit:10; stroke-width:4px;"/><path id="k" d="m398.69,235.09c0-1.87-1.51-3.38-3.38-3.38h-19.47c-1.87,0-3.38,1.51-3.38,3.38s1.51,3.38,3.38,3.38h19.47c1.87,0,3.38-1.51,3.38-3.38Z" style="fill:#666; stroke:#666; stroke-miterlimit:10; stroke-width:4px;"/><path id="l" d="m312.5,155.66v19.47c0,1.87,1.51,3.38,3.38,3.38s3.38-1.51,3.38-3.38v-19.47c0-1.87-1.51-3.38-3.38-3.38s-3.38,1.51-3.38,3.38Z" style="fill:#666; stroke:#666; stroke-miterlimit:10; stroke-width:4px;"/><path id="m" d="m369.65,176.53l-13.76,13.76c-1.32,1.32-1.32,3.46,0,4.78.66.66,1.52.99,2.39.99s1.73-.33,2.39-.99l13.76-13.76c1.32-1.32,1.32-3.46,0-4.78-1.32-1.32-3.46-1.32-4.78,0Z" style="fill:#666; stroke:#666; stroke-miterlimit:10; stroke-width:4px;"/><path id="n" d="m275.86,275.1c-1.32-1.32-3.46-1.32-4.78,0l-13.76,13.76c-1.32,1.32-1.32,3.46,0,4.78.66.66,1.52.99,2.39.99s1.73-.33,2.39-.99l13.76-13.76c1.32-1.32,1.32-3.46,0-4.78Z" style="fill:#666; stroke:#666; stroke-miterlimit:10; stroke-width:4px;"/><path id="o" d="m271.09,195.07c.66.66,1.52.99,2.39.99s1.73-.33,2.39-.99c1.32-1.32,1.32-3.46,0-4.78l-13.76-13.76c-1.32-1.32-3.46-1.32-4.78,0-1.32,1.32-1.32,3.46,0,4.78l13.76,13.76Z" style="fill:#666; stroke:#666; stroke-miterlimit:10; stroke-width:4px;"/><path id="p" d="m369.65,293.64c.66.66,1.52.99,2.39.99s1.73-.33,2.39-.99c1.32-1.32,1.32-3.46,0-4.78l-13.76-13.76c-1.32-1.32-3.46-1.32-4.78,0s-1.32,3.46,0,4.78l13.76,13.76Z" style="fill:#666; stroke:#666; stroke-miterlimit:10; stroke-width:4px;"/><path id="q" d="m326.58,346.64c0-1.87-1.51-3.38-3.38-3.38h-14.66c-1.87,0-3.38,1.51-3.38,3.38s1.51,3.38,3.38,3.38h14.66c1.87,0,3.38-1.51,3.38-3.38Z" style="fill:#666; stroke:#666; stroke-miterlimit:10;"/></g><path id="r" d="m65.15,488.33c-4.29,0-6.43-2.08-6.43-6.24v-2.08l2.46-5.3c9.46-19.92,16.33-37.13,20.62-51.63l1.51-4.54h-6.05c-4.79,0-8.2.19-10.21.57s-4.48,1.58-7.38,3.59c-1.39.88-2.77,2.02-4.16,3.4s-2.58,2.71-3.59,3.97c-1.01,1.26-1.58,2.02-1.7,2.27-.25.13-1.2.19-2.84.19-2.4,0-3.59-.63-3.59-1.89,0-.76,1.2-2.96,3.59-6.62,2.4-3.66,5.86-7.57,10.4-11.73s9.02-6.56,13.43-7.19c.88-.25,15.07-.38,42.55-.38,20.17,0,30.51.06,31.02.19,2.52.88,3.78,2.65,3.78,5.3,0,3.91-2.02,6.56-6.05,7.94-.76.25-5.11.38-13.05.38h-12.1l-.57,3.22c-1.51,9.08-2.27,16.58-2.27,22.51,0,6.56.57,12.42,1.7,17.59,1.13,5.17,2.33,9.2,3.59,12.1,1.26,2.9,1.89,4.67,1.89,5.3,0,2.14-.88,4.16-2.65,6.05s-4.03,2.84-6.81,2.84c-1.39,0-2.52-.19-3.4-.57s-1.89-1.89-3.03-4.54-2.14-6.43-3.03-11.35c-.13-1.13-.19-3.91-.19-8.32,0-6.18.57-12.8,1.7-19.86,1.13-7.06,2.27-12.86,3.4-17.4,1.13-4.54,1.77-7.06,1.89-7.57h-18.54l-.19.76c0,.38-1.2,5.36-3.59,14.94-2.4,9.58-5.11,19.73-8.13,30.45-3.03,10.72-4.98,16.83-5.86,18.35-1.39,3.53-4.1,5.3-8.13,5.3Z" style="fill:#666; stroke:#666; stroke-miterlimit:10;"/><path id="s" d="m199.96,12.46c.14-.09,13.85-.14,41.15-.14h40.94l3.94,9.18c2.68,6.26,4.1,9.57,4.28,9.93h-2.72l-.48-.95c-.95-1.86-2.22-3.63-3.81-5.3-2.27-2.18-4.78-3.92-7.55-5.24s-5.96-2.29-9.59-2.92c-3.63-.63-7.05-1.02-10.27-1.16s-7.37-.23-12.45-.27h-30.47l.54.75c20.99,28.7,31.54,43.19,31.63,43.46.05.09.05.23,0,.41-.14.14-6.12,6.98-17.96,20.54l-17.96,20.4s4.78.07,14.35.07h9.59c4.04,0,6.94.02,8.71.07,6.17,0,11.15-.11,14.96-.34s7.59-.7,11.36-1.43c3.76-.73,6.96-1.84,9.59-3.33,2.63-1.5,4.96-3.47,7.01-5.92.95-1.18,1.88-2.81,2.79-4.9h2.72s-.16.52-.48,1.43-.88,2.38-1.7,4.42-1.52,3.94-2.11,5.71l-3.94,10.54-40.88.07c-27.3,0-41.01-.05-41.15-.14-.27-.09-.41-.29-.41-.61,0-.09.05-.23.14-.41l36.25-41.49s-.75-1.07-2.24-3.06-3.88-5.26-7.14-9.79-6.21-8.57-8.84-12.11l-18.09-24.82-.07-1.02c0-.95.11-1.5.34-1.63Z" style="fill:#666; stroke:#666; stroke-miterlimit:10; stroke-width:4px;"/><path id="t" d="m325.51,422.93c3.28-4.74,7.75-7.11,13.43-7.11,2.81,0,5.62.76,8.43,2.28s5.09,4.21,6.85,8.08c2.17,4.86,3.25,11.53,3.25,20.02,0,9.07-1.26,16.01-3.77,20.81-1.17,2.46-2.78,4.42-4.83,5.88-2.05,1.46-3.83,2.37-5.36,2.72s-3.01.56-4.48.61c-1.52,0-3.04-.18-4.56-.53s-3.31-1.29-5.36-2.81c-2.05-1.52-3.66-3.48-4.83-5.88-2.52-4.8-3.77-11.73-3.77-20.81,0-10.18,1.67-17.94,5-23.26Zm19.75-1.05c-1.76-1.87-3.83-2.81-6.23-2.81s-4.56.94-6.32,2.81c-1.46,1.52-2.43,3.63-2.9,6.32-.47,2.69-.7,8.31-.7,16.86,0,9.25.23,15.33.7,18.26.47,2.93,1.52,5.24,3.16,6.94,1.64,1.76,3.66,2.63,6.06,2.63s4.33-.88,5.97-2.63c1.7-1.76,2.75-4.21,3.16-7.37s.64-9.1.7-17.82c0-8.49-.23-14.08-.7-16.77-.47-2.69-1.43-4.83-2.9-6.41Z" style="fill:#666; stroke:#666; stroke-miterlimit:10; stroke-width:3px;"/><path id="u" d="m398.11,408.44c.53,0,.97.18,1.32.53s.53.76.53,1.23c0,.29-5.06,14.4-15.19,42.31-10.12,27.92-15.36,42.2-15.71,42.84-.41.59-.91.88-1.49.88-.41,0-.79-.15-1.14-.44s-.53-.7-.53-1.23c0-.59,5.09-14.87,15.27-42.84,10.18-27.97,15.36-42.11,15.54-42.4.23-.59.7-.88,1.4-.88Z" style="fill:#666; stroke:#666; stroke-miterlimit:10; stroke-width:3px;"/><path id="v" d="m413.3,422.93c3.28-4.74,7.75-7.11,13.43-7.11,2.81,0,5.62.76,8.43,2.28s5.09,4.21,6.85,8.08c2.17,4.86,3.25,11.53,3.25,20.02,0,9.07-1.26,16.01-3.77,20.81-1.17,2.46-2.78,4.42-4.83,5.88-2.05,1.46-3.83,2.37-5.36,2.72s-3.01.56-4.48.61c-1.52,0-3.04-.18-4.56-.53s-3.31-1.29-5.36-2.81c-2.05-1.52-3.66-3.48-4.83-5.88-2.52-4.8-3.77-11.73-3.77-20.81,0-10.18,1.67-17.94,5-23.26Zm19.75-1.05c-1.76-1.87-3.83-2.81-6.23-2.81s-4.56.94-6.32,2.81c-1.46,1.52-2.43,3.63-2.9,6.32-.47,2.69-.7,8.31-.7,16.86,0,9.25.23,15.33.7,18.26.47,2.93,1.52,5.24,3.16,6.94,1.64,1.76,3.66,2.63,6.06,2.63s4.33-.88,5.97-2.63c1.7-1.76,2.75-4.21,3.16-7.37.41-3.16.64-9.1.7-17.82,0-8.49-.23-14.08-.7-16.77-.47-2.69-1.43-4.83-2.9-6.41Z" style="fill:#666; stroke:#666; stroke-miterlimit:10; stroke-width:3px;"/><path d="m144.52,56.45c0-12.48-4.86-23.81-12.74-32.31l5.74-5.2-1.68-1.86-5.79,5.25c-8.58-8.34-20.27-13.5-33.15-13.5-11.22,0-21.53,3.92-29.68,10.44l-8.9-12.19-2.03,1.48,9.02,12.36c-9.81,8.73-16.04,21.41-16.04,35.54,0,11.2,3.91,21.5,10.41,29.64l-5.92,5.36,1.68,1.86,5.86-5.31c8.73,9.84,21.43,16.08,35.58,16.08,8.85,0,17.11-2.47,24.22-6.69l4.33,5.94,2.03-1.48-4.21-5.77c12.8-8.55,21.26-23.11,21.26-39.63ZM96.89,11.33c12.15,0,23.17,4.85,31.29,12.68l-34.61,31.37-24.88-34.09c7.73-6.22,17.53-9.96,28.2-9.96Zm-45.12,45.12c0-13.31,5.82-25.25,15.01-33.51l24.91,34.14-30.16,27.33c-6.1-7.69-9.77-17.4-9.77-27.95Zm45.12,45.12c-13.42,0-25.46-5.92-33.73-15.25l30.02-27.21,26.45,36.24c-6.69,3.92-14.44,6.21-22.74,6.21Zm24.89-7.52l-26.73-36.63,34.87-31.6c7.48,8.05,12.09,18.8,12.09,30.63,0,15.68-8.05,29.51-20.23,37.6Z" style="fill:#666; stroke:#666; stroke-miterlimit:10; stroke-width:6px;"/><polygon points="255.64 404.46 210.5 404.46 187.94 443.54 210.5 482.63 255.64 482.63 278.2 443.54 255.64 404.46" style="fill:none; stroke:#666; stroke-miterlimit:10; stroke-width:10px;"/><circle cx="233.07" cy="443.54" r="8.79" style="fill:#666; stroke:#666; stroke-miterlimit:10;"/><path d="m447.38,63.77v26.37l-20.7,9.46v-26.37l20.7-9.46Zm-45.04-12.1v28.39l20.7-9.41v-28.39l-20.7,9.41Zm22.23-32.11l-19.48,8.88,19.53,8.88,19.43-8.82-19.48-8.94Zm-48.11,0l-19.48,8.94,19.43,8.82,19.53-8.88-19.48-8.88Zm-22.77,44.3v26.24l20.7,9.47v-26.24l-20.7-9.47Z" style="fill:#666; isolation:isolate; opacity:.5; stroke:#666; stroke-miterlimit:10;"/><path d="m400.51,3.51l-51.13,23.41v66.36l51.13,23.41,51.13-23.41V26.91l-51.13-23.41Zm6.43,24.93l17.63-8.04,17.63,8.09-17.58,7.98-17.68-8.04Zm20.36,12.71l19.48-8.91v26.72l-19.48,8.91v-26.72Zm0,32.58l19.48-8.91v24.82l-19.48,8.91v-24.82Zm-26.78-64.35l17.63,8.09-17.63,8.04-17.63-8.04,17.63-8.09Zm-41.68,19.12l17.63-8.09,17.63,8.04-17.68,8.04-17.58-7.98Zm-4.58,3.75l19.58,8.96v26.72l-19.58-8.96v-26.72Zm19.58,66.36l-19.58-8.96v-24.82l19.58,8.96v24.82Zm24.25,11.13l-19.48-8.91v-24.87l19.48,8.85v24.93Zm0-30.79l-19.48-8.85v-26.72l19.48,8.85v26.72Zm-15.19-39.53l17.63-8.04,17.63,8.04-17.63,8.09-17.63-8.09Zm39.54,30.68l-19.48,8.85v-26.72l19.48-8.85v26.72Zm0,30.68l-19.48,8.96v-24.93l19.48-8.85v24.82Z" style="fill:#666; stroke:#666; stroke-miterlimit:10;"/></svg>