<svg xmlns="http://www.w3.org/2000/svg" viewBox="0 0 243.5 84.5" width="1000">
  <defs>
    <style>
      .cls-1{fill:none;stroke:#808081;stroke-miterlimit:10;stroke-width:2px}.cls-2{fill:#69f}
    </style>
  </defs>
  <path fill="#616262" d="M14 66.8c0 2.8-1.7 4.3-3.8 4.3S6.6 69.4 6.6 67c0-2.6 1.6-4.3 3.8-4.3s3.6 1.7 3.6 4Zm-6.3.1c0 1.7 1 3.3 2.6 3.3s2.6-1.5 2.6-3.4c0-1.6-.9-3.3-2.6-3.3S7.7 65.1 7.7 67Zm12-1.8V71h-1v-5h-2v1.5c0 1.7-.2 2.8-1 3.2-.3.3-.6.4-1.1.4l-.1-.8c.2 0 .4-.1.5-.3.6-.4.6-1.2.6-2.5v-2.3h4Zm2.7 0v2h1c1.3 0 2.7.3 2.7 1.9 0 .6-.3 1-.6 1.3-.7.5-1.7.7-2.6.7l-1.5-.1v-5.8h1Zm0 5 .8.1c.8 0 1.8-.2 1.8-1.2s-1-1.2-1.8-1.2h-.8v2.4Zm8.5-5v.9h-2.5v5h-1v-6h3.5Zm2 0V70l.9-1.8 1.8-3h1.2V71h-1v-2.5l.1-2.3-1 1.8-1.8 3h-1.2v-5.8h1Zm6.7 0v2.4h2.7V65h1v6h-1v-2.6h-2.7V71h-1v-5.8h1ZM50.4 68c0 2.1-1.5 3-3 3s-2.7-1.1-2.7-3 1.3-3 2.9-3 2.8 1.2 2.8 3Zm-4.6 0c0 1.3.7 2.2 1.7 2.2s1.8-.9 1.8-2.2c0-1-.5-2.2-1.8-2.2s-1.8 1.1-1.8 2.2Z"/>
  <path d="M35.1 43.9s-1-16.5 11.4-27c12.4-10.6 29.8.7 41.1 0C99 16 108 28.2 128 20.4s42.8 11.3 42.8 11.3 13.4 2.8 24-.7c10.4-3 19.6 12.9 19.6 12.9s.2 24.5-18.5 28.5C170.6 77.7 146.2 59.5 89.2 61c-5.5.1-10 .5-12.7.7A51.2 51.2 0 0 1 35.1 44Z" class="cls-1"/>
  <path d="M35.1 43.9a306 306 0 0 1 95.3.2c21.1 3.2 23.1 5.6 35.6 6.5 11 .9 27.4.4 48.3-6.7" class="cls-1"/>
  <path d="M46.5 16.9S71.4 32.2 69 40.6s4.5 21.2 4.5 21.2m36.3-39.2s3.8 7.2 5.3 19.5 8 20.4 8 20.4m34.2-39.1s5.4 20.7 5 26.9 1.5 20 1.5 20M190.4 32s8.3 11 9 16 6.7 11.1 11.1 12.4" class="cls-1"/>
  <path fill="#616161" d="M204 16.2v8.1h-1v-7.2h-3.8v7.2h-1v-8h5.8Zm2.4 5.4c0 1.4 1 2 2 2 .7 0 1.2-.1 1.6-.3l.2.8c-.4.1-1 .3-2 .3-1.7 0-2.8-1.2-2.8-3s1-3 2.7-3c1.9 0 2.4 1.6 2.4 2.7v.5h-4.1Zm3-.8c0-.6-.2-1.7-1.4-1.7-1 0-1.5 1-1.6 1.7h3Zm3.4-2.3v2.3h2.8v-2.3h1v5.8h-1v-2.6h-2.8v2.6h-1v-5.8h1Zm6.6 0v2h1c1.3 0 2.6.3 2.6 1.9 0 .6-.2 1-.6 1.3a4 4 0 0 1-2.5.7l-1.6-.1v-5.8h1Zm0 5 .8.1c.8 0 1.8-.2 1.8-1.2s-1-1.2-1.9-1.2h-.7v2.4Zm6-5V21h.2l2.2-2.5h1.3l-2.5 2.6c1 .1 1.5.7 2 1.8 0 .4.3 1 .5 1.4h-1l-.6-1.2c-.4-1-1-1.4-2-1.4h-.1v2.6h-1v-5.8h1Zm5.6 0v4.8l1-1.8 1.8-3h1.2v5.8h-1v-4.8l-1 1.8-1.7 3H230v-5.8h1Z"/>
  <circle cx="214.3" cy="43.9" r="5" class="cls-2"/>
  <circle cx="35.1" cy="43.9" r="5" class="cls-2"/>
</svg>
