<svg xmlns="http://www.w3.org/2000/svg" width="1000" viewBox="0 0 900 178">
  <defs>
    <style>
      .cls-1{fill:#fff}
    </style>
  </defs>
  <path fill="#7b7b7b" d="M0 0h900v144.7H0z" opacity=".3"/>
  <g id="Flags">
    <g id="Austria">
      <path fill="#ed2839" d="M723 20h157.1v34.9H723zm0 69.8h157.1v34.9H723z"/>
      <path d="M723 54.9h157.1v34.9H723z" class="cls-1"/>
    </g>
    <g id="Armenia">
      <path fill="#d90011" d="M547.3 20h157.1v34.9H547.3z"/>
      <path fill="#f3a801" d="M547.3 89.8h157.1v34.9H547.3z"/>
      <path fill="#0033a0" d="M547.3 54.9h157.1v34.9H547.3z"/>
    </g>
    <g id="Bulgaria">
      <path d="M371.5 20h157.1v34.9H371.5z" class="cls-1"/>
      <path fill="#d62511" d="M371.5 89.8h157.1v34.9H371.5z"/>
      <path fill="#00976e" d="M371.5 54.9h157.1v34.9H371.5z"/>
    </g>
    <g id="Estonia">
      <path fill="#0071cd" d="M195.7 20h157.1v34.9H195.7z"/>
      <path d="M195.7 89.8h157.1v34.9H195.7z" class="cls-1"/>
      <path d="M195.7 54.9h157.1v34.9H195.7z"/>
    </g>
    <g id="Russia">
      <path d="M19.9 20H177v34.9H19.9z" class="cls-1"/>
      <path fill="#d52b1e" d="M19.9 89.8H177v34.9H19.9z"/>
      <path fill="#0039a6" d="M19.9 54.9H177v34.9H19.9z"/>
    </g>
  </g>
  <path id="Labels" fill="#7b7b7b" d="m767.8 168.5-1.4 4.4h-1.9l4.8-14h2.1l4.8 14h-2l-1.4-4.4h-5Zm4.6-1.4-1.4-4-.7-2.6-.7 2.6-1.4 4h4.2Zm5.7-4.1 3.2-.2c1.7 0 4.5.2 4.5 2.5 0 1.2-1 2-2.1 2.2 1.4.3 2.5 1 2.5 2.5 0 2.7-3.3 3-5.3 3l-2.8-.1v-10Zm1.8 8.7h1.4c1.3 0 3-.2 3-1.7s-1.4-1.7-3.1-1.7h-1.3v3.4Zm0-4.6h1.4c1.3 0 2.7-.4 2.7-1.6 0-1-.9-1.5-2.7-1.5l-1.4.1v3Zm15.8 5.4c-.5.3-1.6.6-3 .6-3 0-4.9-2-4.9-5.1s2.1-5.3 5.4-5.3c1 0 2 .2 2.5.5l-.4 1.4c-.4-.3-1.1-.5-2.1-.5-2.3 0-3.6 1.7-3.6 3.8 0 2.3 1.5 3.7 3.5 3.7 1 0 1.7-.2 2.2-.5l.4 1.4Zm9.2-9.6v1.4h-3.1v8.6H800v-8.6h-3.2V163h8Zm1.6 3.2-.1-3.2h1.6l.1 1.7a4 4 0 0 1 3.6-2c2.4 0 4.2 2.1 4.2 5.1 0 3.6-2.2 5.4-4.5 5.4-1.3 0-2.5-.6-3-1.6h-.1v5.5h-1.8v-10.8Zm1.8 2.7v.7a2.8 2.8 0 0 0 2.8 2.2c1.9 0 3-1.6 3-3.9 0-2-1-3.7-3-3.7-1.2 0-2.4.9-2.7 2.2l-.1.8v1.7Zm11.7-5.9v4.2l-.2 4 1.7-3 3.1-5.2h2.1v10H825v-4.3l.1-4-1.7 3-3.1 5.3h-2.1v-10h1.7Zm17 10h-1.7v-4.2h-1.4c-.7 0-1.2.2-1.6.5-.8.6-1 1.9-1.4 2.9l-.4.8h-2l.6-1.2c.5-1 .7-2.2 1.6-3 .3-.2.7-.5 1.1-.6-1.3-.2-2.6-1-2.6-2.5 0-1 .6-1.7 1.3-2.2a7 7 0 0 1 3.4-.6c1.2 0 2.3 0 3.2.2v9.9Zm-1.7-8.8-1.5-.1c-1.3 0-2.7.3-2.7 1.7 0 1.3 1.6 1.8 2.6 1.8h1.6V164ZM592 168.5l-1.4 4.4h-1.8l4.7-14h2.2l4.7 14h-1.9l-1.5-4.4h-5Zm4.6-1.4-1.3-4-.7-2.6-.8 2.6-1.3 4h4.2Zm5.8-1V163h1.6v1.7a4 4 0 0 1 3.6-2c2.5 0 4.3 2.1 4.3 5.1 0 3.6-2.2 5.4-4.6 5.4-1.3 0-2.5-.6-3-1.6v5.5h-1.9v-10.8Zm1.8 2.7v.7a2.8 2.8 0 0 0 2.8 2.2c2 0 3-1.6 3-3.9 0-2-1-3.7-3-3.7-1.2 0-2.3.9-2.7 2.2v2.5Zm10.1-5.9h2.2l1.8 5 1 2.8 1.2-3.5 1.6-4.3h2.2l.7 10h-1.7l-.2-4.8-.2-3.6h-.1l-1.1 3.3-2 5h-1.2l-1.8-5-1-3.3-.3 3.6-.2 4.8h-1.7l.8-10Zm14.1 5.3c0 2.5 1.6 3.5 3.4 3.5 1.3 0 2.1-.3 2.8-.6l.3 1.3c-.6.3-1.7.7-3.3.7-3 0-5-2-5-5s1.8-5.5 4.8-5.5c3.2 0 4.1 2.9 4.1 4.7v.9h-7Zm5.3-1.3c0-1.2-.4-3-2.5-3-1.8 0-2.6 1.7-2.8 3h5.3Zm5.8-4v4h4.8v-4h1.8v10h-1.8v-4.6h-4.8v4.6h-1.8v-10h1.8Zm11.2 0v8.2l1.6-3 3.1-5.2h2.1v10h-1.7v-4.3l.1-4-1.7 3-3.1 5.3H649v-10h1.7Zm17.2 10H666v-4.2h-1.3c-.8 0-1.3.2-1.7.5-.8.6-1 1.9-1.4 2.9l-.4.8h-2c.3-.3.5-.7.6-1.2.5-1 .7-2.2 1.6-3 .3-.2.7-.5 1.2-.6-1.3-.2-2.7-1-2.7-2.5 0-1 .6-1.7 1.3-2.2a7 7 0 0 1 3.4-.6c1.2 0 2.3 0 3.2.2v9.9ZM666 164l-1.5-.1c-1.3 0-2.7.3-2.7 1.7 0 1.3 1.6 1.8 2.6 1.8h1.6V164Zm-244.1-5v1.4h-6v3.8l1.7-.1c1.3 0 2.6.3 3.6 1 1 .6 1.7 1.7 1.7 3.3a4 4 0 0 1-1.1 3c-1.2 1.2-3 1.6-5 1.6-1.2 0-2.1 0-2.7-.2V159h7.8Zm-6 12.5h1.5a4 4 0 0 0 2.9-1c.5-.5.8-1.2.8-2 0-1.1-.5-1.8-1.2-2.3-.7-.5-1.6-.7-2.6-.7h-1.5v6Zm18.4-3.7c0 3.7-2.5 5.3-5 5.3-2.7 0-4.8-2-4.8-5.2 0-3.3 2.2-5.3 5-5.3s4.8 2.1 4.8 5.2Zm-8 0c0 2.3 1.3 4 3.1 4s3-1.7 3-4c0-1.7-.8-3.8-3-3.8s-3 2-3 3.9Zm17.9-4.9v10h-1.8v-8.6H439v2.6c0 2.8-.3 4.7-1.6 5.5a3 3 0 0 1-2 .7l-.1-1.5c.3 0 .7-.2 1-.4.9-.7 1-2 1-4.3v-4h7Zm9.1 0v1.4H449v8.6h-1.8v-10h6.1Zm7.1 10-.1-1.3c-.6.8-1.7 1.5-3.1 1.5-2 0-3.1-1.4-3.1-2.9 0-2.4 2.1-3.7 6-3.7v-.2c0-.8-.2-2.3-2.3-2.3a5 5 0 0 0-2.6.7l-.4-1.2c.8-.5 2-.9 3.3-.9 3 0 3.8 2.1 3.8 4.1v3.8c0 .8 0 1.7.2 2.4h-1.7Zm-.3-5.1c-2 0-4.2.3-4.2 2.2 0 1.2.8 1.8 1.7 1.8 1.3 0 2.2-.9 2.4-1.7l.1-.6v-1.7Zm4.7-1.7V163h1.6v1.7h.1a4 4 0 0 1 3.6-2c2.4 0 4.2 2.1 4.2 5.1 0 3.6-2.2 5.4-4.5 5.4-1.4 0-2.5-.6-3.1-1.6v5.5h-1.9v-10.8Zm1.8 2.7.1.7a2.8 2.8 0 0 0 2.7 2.2c2 0 3-1.6 3-3.9 0-2-1-3.7-2.9-3.7-1.2 0-2.4.9-2.7 2.2l-.2.8v1.7Zm11.7-5.9v4.2l-.1 4 1.6-3 3.2-5.2h2.1v10h-1.7v-8.3l-1.6 3-3.2 5.3h-2v-10h1.7Zm17.1 10h-1.7v-4.2h-1.4c-.8 0-1.3.2-1.7.5-.7.6-1 1.9-1.4 2.9 0 .3-.2.5-.4.8h-2c.3-.3.5-.7.7-1.2.4-1 .7-2.2 1.6-3 .3-.2.6-.5 1.1-.6-1.3-.2-2.6-1-2.6-2.5 0-1 .5-1.7 1.3-2.2a7 7 0 0 1 3.3-.6c1.2 0 2.4 0 3.2.2v9.9Zm-1.7-8.8-1.6-.1c-1.2 0-2.7.3-2.7 1.7 0 1.3 1.6 1.8 2.7 1.8h1.6V164Zm-254.4.9h6.4c-.2-2.7-1.9-4.8-4.7-4.8a7 7 0 0 0-3 .7l-.4-1.4a9 9 0 0 1 3.5-.8c4.4 0 6.6 3.2 6.6 7.2 0 4.6-3 7.2-6.7 7.2a9 9 0 0 1-3.7-.7l.4-1.5c.8.4 2 .7 3 .7 3.1 0 5-2.2 5-5.1h-6.4V165Zm17.9 7.5c-.5.3-1.6.6-3 .6-3 0-4.9-2-4.9-5.1s2.1-5.3 5.4-5.3c1 0 2 .2 2.5.5l-.4 1.4c-.4-.3-1.1-.5-2.1-.5-2.3 0-3.5 1.7-3.5 3.8 0 2.3 1.4 3.7 3.4 3.7 1 0 1.7-.2 2.3-.5l.3 1.4Zm9.2-9.6v1.4h-3.1v8.6h-1.8v-8.6h-3.2V163h8Zm10.4 4.9c0 3.7-2.6 5.3-5 5.3-2.7 0-4.8-2-4.8-5.2 0-3.3 2.2-5.3 5-5.3s4.8 2.1 4.8 5.2Zm-8 0c0 2.3 1.3 4 3 4s3.1-1.7 3.1-4c0-1.7-.8-3.8-3-3.8s-3 2-3 3.9Zm12-4.9v4h4.8v-4h1.8v10h-1.8v-4.6h-4.8v4.6H279v-10h1.8Zm11.2 0v8.2l1.6-3 3.1-5.2h2.1v10h-1.7v-4.3l.1-4-1.7 3-3.1 5.3h-2v-10h1.6Zm17.2 10h-1.8v-4.2H306c-.8 0-1.3.2-1.7.5-.8.6-1 1.9-1.4 2.9l-.4.8h-2l.6-1.2c.5-1 .7-2.2 1.6-3 .3-.2.7-.5 1.1-.6-1.3-.2-2.6-1-2.6-2.5 0-1 .6-1.7 1.3-2.2a7 7 0 0 1 3.4-.6c1.2 0 2.3 0 3.2.2v9.9Zm-1.8-8.8-1.5-.1c-1.3 0-2.7.3-2.7 1.7 0 1.3 1.6 1.8 2.6 1.8h1.6V164Zm-244.9-5 3.5-.2c1.7 0 3 .4 3.9 1.1.7.7 1.2 1.7 1.2 3s-.4 2.2-1 3c-1 1-2.6 1.4-4.4 1.4h-1.4v5.5h-1.8v-13.8Zm1.8 6.7 1.5.2c2.2 0 3.5-1 3.5-3s-1.3-2.7-3.3-2.7l-1.7.1v5.4Zm17.7 2c0 3.7-2.6 5.3-5 5.3-2.8 0-4.9-2-4.9-5.1 0-3.4 2.2-5.3 5-5.3s4.8 2 4.8 5.1Zm-8 .1c0 2.2 1.2 3.9 3 3.9s3-1.7 3-4c0-1.6-.8-3.8-3-3.8s-3 2-3 3.9Zm17.3 4.6c-.4.3-1.5.6-2.8.6-3 0-5-2-5-5.1s2.1-5.3 5.4-5.3c1 0 2 .2 2.5.5l-.4 1.4c-.4-.3-1.1-.5-2.1-.5-2.3 0-3.6 1.7-3.6 3.8 0 2.3 1.5 3.7 3.5 3.7 1 0 1.7-.2 2.2-.5l.3 1.4Zm9.2 0a6 6 0 0 1-2.9.6c-3 0-5-2-5-5.1s2.2-5.3 5.4-5.3c1.1 0 2 .2 2.5.5l-.4 1.4c-.4-.3-1-.5-2-.5-2.4 0-3.6 1.7-3.6 3.8 0 2.3 1.5 3.7 3.5 3.7 1 0 1.7-.2 2.2-.5l.3 1.4Zm3.8-9.6v4.2l-.1 4 1.7-3 3-5.2h2.2v10h-1.7v-4.3l.1-4-1.7 3-3.1 5.3h-2.1v-10h1.7Zm17.2 10h-1.8v-4.2h-1.4c-.7 0-1.2.2-1.6.5-.8.6-1 1.9-1.5 2.9 0 .3-.2.5-.4.8H113l.6-1.2c.5-1 .7-2.2 1.6-3 .3-.2.7-.5 1.1-.6-1.3-.2-2.6-1-2.6-2.5 0-1 .5-1.7 1.3-2.2a7 7 0 0 1 3.3-.6c1.2 0 2.4 0 3.3.2v9.9Zm-1.8-8.8-1.5-.1c-1.3 0-2.8.3-2.8 1.7 0 1.3 1.6 1.8 2.7 1.8h1.6V164Z"/>
</svg>
