<?xml version="1.0" encoding="UTF-8"?><svg width="800" xmlns="http://www.w3.org/2000/svg" viewBox="0 0 940 500"><rect x="696.97" y="29.29" width="213.75" height="216.29" style="fill:#f39200; opacity:.65;"/><rect x="363.12" y="366.97" width="325.03" height="103.73" style="fill:#009fe3; opacity:.65;"/><rect x="29.28" y="366.97" width="102.47" height="103.73" style="fill:#e30613; opacity:.65;"/><rect x="140.56" y="141.85" width="102.47" height="216.29" style="fill:#008d36; opacity:.65;"/><path d="m20,20v460h900V20H20Zm111.75,450.71H29.28v-103.73h102.47v103.73Zm0-112.56H29.28v-103.73h102.47v103.73Zm0-112.56H29.28v-103.73h102.47v103.73Zm0-112.56H29.28V29.29h102.47v103.73Zm111.28,337.68h-102.47v-103.73h102.47v103.73Zm0-112.56h-102.47v-103.73h102.47v103.73Zm0-112.56h-102.47v-103.73h102.47v103.73Zm0-112.56h-102.47V29.29h102.47v103.73Zm111.28,337.68h-102.47v-103.73h102.47v103.73Zm0-112.56h-102.47v-103.73h102.47v103.73Zm0-112.56h-102.47v-103.73h102.47v103.73Zm0-112.56h-102.47V29.29h102.47v103.73Zm111.28,337.68h-102.47v-103.73h102.47v103.73Zm0-112.56h-102.47v-103.73h102.47v103.73Zm0-112.56h-102.47v-103.73h102.47v103.73Zm0-112.56h-102.47V29.29h102.47v103.73Zm111.28,337.68h-102.47v-103.73h102.47v103.73Zm0-112.56h-102.47v-103.73h102.47v103.73Zm0-112.56h-102.47v-103.73h102.47v103.73Zm0-112.56h-102.47V29.29h102.47v103.73Zm111.28,337.68h-102.47v-103.73h102.47v103.73Zm0-112.56h-102.47v-103.73h102.47v103.73Zm0-112.56h-102.47v-103.73h102.47v103.73Zm0-112.56h-102.47V29.29h102.47v103.73Zm111.28,337.68h-102.47v-103.73h102.47v103.73Zm0-112.56h-102.47v-103.73h102.47v103.73Zm0-112.56h-102.47v-103.73h102.47v103.73Zm0-112.56h-102.47V29.29h102.47v103.73Zm111.28,337.68h-102.47v-103.73h102.47v103.73Zm0-112.56h-102.47v-103.73h102.47v103.73Zm0-112.56h-102.47v-103.73h102.47v103.73Zm0-112.56h-102.47V29.29h102.47v103.73Z" style="fill:#878787;"/></svg>