<svg xmlns="http://www.w3.org/2000/svg" xmlns:xlink="http://www.w3.org/1999/xlink" viewBox="0 0 512 512">
    <defs>
        <linearGradient id="gradient" y1="256" x2="512" y2="256" gradientUnits="userSpaceOnUse">
            <stop offset="0" stop-color="#0aa2f4"/>
            <stop offset="1" stop-color="#1976d7"/>
        </linearGradient>
    </defs>
    <path style="fill: url(#gradient)" d="M256,0C114.62,0,0,114.62,0,256S114.62,512,256,512,512,397.38,512,256,397.38,0,256,0Zm0,512c-106.77-36-183.65-137-183.65-255.95S149.23,36.09,256,.05c106.77,36,183.65,137,183.65,256S362.77,475.91,256,512ZM372,172.18V349.51a4.73,4.73,0,0,1-.85,2.77,5.93,5.93,0,0,1-3.07,2,29.23,29.23,0,0,1-5.92,1.23,77.72,77.72,0,0,1-9.39.46,76.21,76.21,0,0,1-9.23-.46,27.59,27.59,0,0,1-5.84-1.23,6.34,6.34,0,0,1-3.07-2,4.47,4.47,0,0,1-.93-2.77V187.56h-.31l-57.67,161.8a7.51,7.51,0,0,1-2,3.31,9.81,9.81,0,0,1-3.77,2.07,24.77,24.77,0,0,1-6.07,1c-2.47.16-5.44.23-8.93.23s-6.46-.13-8.92-.38a27.23,27.23,0,0,1-6.07-1.23,11.24,11.24,0,0,1-3.77-2.08,6,6,0,0,1-1.85-2.92l-55.67-161.8h-.31v162a4.8,4.8,0,0,1-.85,2.77,6,6,0,0,1-3.15,2,30.82,30.82,0,0,1-5.92,1.23,75.83,75.83,0,0,1-9.31.46,76.21,76.21,0,0,1-9.23-.46,29.23,29.23,0,0,1-5.92-1.23,5.93,5.93,0,0,1-3.07-2,4.73,4.73,0,0,1-.85-2.77V172.18q0-7.85,4.15-12T155.26,156h26.45a55.44,55.44,0,0,1,12.15,1.15,23.59,23.59,0,0,1,8.77,3.84,21.9,21.9,0,0,1,6.15,7.08,50.82,50.82,0,0,1,4.31,10.84l43.06,118.59h.62l44.6-118.28a61.66,61.66,0,0,1,4.39-10.92,25.41,25.41,0,0,1,5.53-7.23,18.37,18.37,0,0,1,7.46-3.92,38.84,38.84,0,0,1,10-1.15H356a21.36,21.36,0,0,1,7.15,1.07,12.17,12.17,0,0,1,4.93,3.16,13.76,13.76,0,0,1,2.92,5.07A21.8,21.8,0,0,1,372,172.18Z"/>
</svg>
