<?xml version="1.0" encoding="UTF-8"?><svg id="a" xmlns="http://www.w3.org/2000/svg" xmlns:xlink="http://www.w3.org/1999/xlink" viewBox="0 0 512 512"><defs><linearGradient id="b" x1="74.98" y1="437.02" x2="437.02" y2="74.98" gradientUnits="userSpaceOnUse"><stop offset="0" stop-color="#1976d7"/><stop offset="1" stop-color="#0aa2f4"/></linearGradient></defs><circle cx="256" cy="256" r="256" style="fill:url(#b);"/><path d="m414.12,141.67v241.75c.01,1.35-.38,2.67-1.16,3.78-1.08,1.32-2.54,2.28-4.19,2.73-2.63.83-5.33,1.4-8.07,1.68-4.25.46-8.52.68-12.8.63-4.2.04-8.41-.16-12.58-.63-2.71-.27-5.37-.83-7.96-1.68-1.64-.48-3.09-1.43-4.19-2.73-.83-1.08-1.28-2.41-1.27-3.78v-220.78h-.42l-78.62,220.58c-.5,1.72-1.45,3.27-2.73,4.51-1.49,1.31-3.24,2.28-5.14,2.82-2.69.79-5.47,1.25-8.28,1.36-3.37.22-7.42.31-12.17.31s-8.81-.18-12.16-.52c-2.81-.25-5.59-.8-8.28-1.68-1.88-.6-3.63-1.57-5.14-2.84-1.21-1.05-2.09-2.44-2.52-3.98l-75.89-220.58h-.42v220.85c0,1.35-.4,2.67-1.16,3.78-1.1,1.34-2.6,2.3-4.29,2.73-2.63.82-5.33,1.39-8.07,1.68-4.21.46-8.45.68-12.69.63-4.2.04-8.41-.16-12.58-.63-2.74-.27-5.44-.85-8.07-1.68-1.65-.45-3.11-1.4-4.19-2.73-.78-1.1-1.17-2.43-1.16-3.78v-241.82c0-7.13,1.88-12.58,5.66-16.36,3.78-3.78,8.79-5.67,15.06-5.7h36.06c5.56-.08,11.11.44,16.56,1.57,4.31.91,8.37,2.69,11.96,5.24,3.46,2.58,6.33,5.86,8.38,9.65,2.52,4.69,4.49,9.64,5.88,14.78l58.7,161.67h.85l60.8-161.25c1.51-5.14,3.52-10.13,5.98-14.89,1.89-3.71,4.46-7.05,7.54-9.86,2.93-2.55,6.41-4.38,10.17-5.34,4.46-1.12,9.04-1.64,13.63-1.57h37.15c3.31-.07,6.6.42,9.75,1.46,2.56.87,4.87,2.34,6.72,4.31,1.81,1.99,3.16,4.35,3.98,6.91.95,3.04,1.42,6.2,1.36,9.38h0Z" style="fill:#fff;"/></svg>