<svg xmlns="http://www.w3.org/2000/svg" xmlns:xlink="http://www.w3.org/1999/xlink" width="600" height="507.017827" viewBox="0 0 184.416 155.837"><style><![CDATA[.B{overflow:visible}.C{stroke:none}.D{stroke-miterlimit:10}.E{stroke-width:.3985}.F{stroke:rgb(0%,0%,0%)}.G{stroke-linecap:round}.H{stroke-linejoin:round}.I{fill:rgb(0%,0%,0%)}]]></style><defs><symbol id="A" class="B"><path d="M3.328125-3.015625c.0625-.25.296875-1.171875.984375-1.171875.046875 0 .296875 0 .5.125-.28125.0625-.46875.296875-.46875.546875 0 .15625.109375.34375.375.34375.21875 0 .53125-.171875.53125-.578125 0-.515625-.578125-.65625-.921875-.65625-.578125 0-.921875.53125-1.046875.75-.25-.65625-.78125-.75-1.078125-.75C1.171875-4.40625.59375-3.125.59375-2.875c0 .109375.109375.109375.125.109375.078125 0 .109375-.03125.125-.109375.34375-1.0625 1-1.3125 1.34375-1.3125.1875 0 .53125.09375.53125.671875 0 .3125-.171875.96875-.53125 2.375-.15625.609375-.515625 1.03125-.953125 1.03125-.0625 0-.28125 0-.5-.125.25-.0625.46875-.265625.46875-.546875 0-.265625-.21875-.34375-.359375-.34375-.3125 0-.546875.25-.546875.578125 0 .453125.484375.65625.921875.65625.671875 0 1.03125-.703125 1.046875-.75.125.359375.484375.75 1.078125.75 1.03125 0 1.59375-1.28125 1.59375-1.53125 0-.109375-.078125-.109375-.109375-.109375-.09375 0-.109375.046875-.140625.109375-.328125 1.078125-1 1.3125-1.3125 1.3125-.390625 0-.546875-.3125-.546875-.65625 0-.21875.046875-.4375.15625-.875zm0 0" class="C"/></symbol><symbol id="B" class="B"><path d="M4.84375-3.796875c.046875-.140625.046875-.15625.046875-.234375 0-.171875-.140625-.265625-.296875-.265625-.09375 0-.25.0625-.34375.203125l-.140625.546875c-.078125.25-.140625.53125-.203125.796875L3.453125-.953125c-.03125.140625-.46875.84375-1.125.84375-.5 0-.609375-.4375-.609375-.8125 0-.453125.171875-1.078125.5-1.953125.15625-.40625.203125-.515625.203125-.71875 0-.4375-.3125-.8125-.8125-.8125-.953125 0-1.3125 1.453125-1.3125 1.53125 0 .109375.09375.109375.109375.109375.109375 0 .109375-.03125.15625-.1875.28125-.9375.671875-1.234375 1.015625-1.234375.078125 0 .25 0 .25.3125 0 .25-.109375.515625-.171875.703125-.40625 1.0625-.578125 1.625-.578125 2.09375 0 .890625.625 1.1875 1.21875 1.1875.390625 0 .71875-.171875 1-.453125-.125.515625-.25 1.015625-.640625 1.546875-.265625.328125-.640625.625-1.09375.625-.140625 0-.59375-.03125-.765625-.421875.15625 0 .296875 0 .421875-.125.109375-.078125.203125-.21875.203125-.40625 0-.3125-.265625-.34375-.359375-.34375C.828125.53125.5.6875.5 1.171875c0 .5.4375.875 1.0625.875 1.015625 0 2.046875-.90625 2.328125-2.03125zm0 0" class="C"/></symbol><symbol id="C" class="B"><path d="M3.65625-3.984375h.859375c.203125 0 .296875 0 .296875-.203125 0-.109375-.09375-.109375-.265625-.109375H3.71875L3.921875-5.4375l.25-1.03125c.078125-.1875.25-.34375.46875-.34375.03125 0 .296875 0 .484375.1875-.4375.03125-.546875.390625-.546875.53125 0 .234375.1875.359375.375.359375.265625 0 .546875-.234375.546875-.609375 0-.453125-.453125-.6875-.859375-.6875-.34375 0-.96875.1875-1.265625 1.171875-.0625.203125-.09375.3125-.328125 1.5625h-.6875c-.203125 0-.3125 0-.3125.1875 0 .125.09375.125.28125.125h.65625L2.25-.046875c-.1875.96875-.359375 1.875-.875 1.875-.046875 0-.28125 0-.484375-.1875.46875-.03125.5625-.390625.5625-.53125 0-.234375-.1875-.359375-.375-.359375C.8125.75.53125.984375.53125 1.359375c0 .4375.4375.6875.84375.6875.546875 0 .953125-.59375 1.125-.96875.328125-.625.546875-1.828125.5625-1.90625zm0 0" class="C"/></symbol><symbol id="D" class="B"><path d="M3.296875 2.390625c0-.03125 0-.046875-.171875-.21875C1.890625.921875 1.5625-.96875 1.5625-2.5c0-1.734375.375-3.46875 1.609375-4.703125.125-.125.125-.140625.125-.171875 0-.078125-.03125-.109375-.09375-.109375-.109375 0-1 .6875-1.59375 1.953125-.5 1.09375-.625 2.203125-.625 3.03125 0 .78125.109375 1.984375.65625 3.125C2.25 1.84375 3.09375 2.5 3.203125 2.5c.0625 0 .09375-.03125.09375-.109375zm0 0" class="C"/></symbol><symbol id="E" class="B"><path d="M2.875-2.5c0-.765625-.109375-1.96875-.65625-3.109375-.59375-1.21875-1.453125-1.875-1.546875-1.875-.0625 0-.109375.046875-.109375.109375 0 .03125 0 .046875.1875.234375.984375.984375 1.546875 2.5625 1.546875 4.640625 0 1.71875-.359375 3.46875-1.59375 4.71875-.140625.125-.140625.140625-.140625.171875 0 .0625.046875.109375.109375.109375.09375 0 1-.6875 1.578125-1.953125.515625-1.09375.625-2.203125.625-3.046875zm0 0" class="C"/></symbol></defs><g fill="none" class="D E F"><path d="M5.179687 79.7890625h169.683594"/><path d="M172.988281 77.398437c.378907 1.433594 1.222657 2.113282 2.074219 2.3906255-.851562.2812495-1.695312.9570315-2.074219 2.3906245" class="G H"/></g><use xlink:href="#A" x="170.42" y="90.09" class="I"/><g fill="none" class="D E F"><path d="M33.52734375 150.65625V9.320312"/><path d="M-2.073072 2.390281C-1.694166.956688-.850416.277.00114625-.00034375-.850416-.277687-1.694166-.957375-2.073072-2.390969" transform="matrix(0 -1 -1 0 33.527 9.12224)" class="G H"/></g><use xlink:href="#B" x="22.275" y="12.591" class="I"/><path d="M19.355469 136.484375c47.914062-17.441406 51.292968-67.601563 99.210937-85.042969 18.800782-6.839844 23.722657-21.503906 42.519532-28.34375" fill="none" stroke-width="1.19553" stroke="rgb(0%,62.353516%,95.684814%)" class="D"/><g fill="rgb(0%,62.353516%,95.684814%)"><use xlink:href="#C" x="132.794" y="22.599"/><use xlink:href="#D" x="138.744" y="22.599"/><use xlink:href="#A" x="142.618" y="22.599"/><use xlink:href="#E" x="148.312" y="22.599"/><path d="M21.347656 136.484375c0-1.101562-.894531-1.992187-1.992187-1.992187s-1.996094.890625-1.996094 1.992187.894531 1.992188 1.996094 1.992188 1.992187-.890625 1.992187-1.992188zM163.082031 23.097656c0-1.101562-.894531-1.992187-1.996093-1.992187s-1.992188.890625-1.992188 1.992187.894531 1.992188 1.992188 1.992188 1.996093-.894531 1.996093-1.992188zm0 0"/></g></svg>