<svg xmlns="http://www.w3.org/2000/svg" xmlns:xlink="http://www.w3.org/1999/xlink" width="600" height="660.29093681" viewBox="0 0 139.205 153.193"><style><![CDATA[.B{overflow:visible}.C{stroke:none}.D{fill:rgb(25.097656%,66.273499%,25.097656%)}.E{stroke-miterlimit:10}.F{fill:rgb(0%,0%,0%)}.G{fill:rgb(84.70459%,18.824768%,19.216919%)}.H{stroke-width:.3985}.I{stroke:rgb(0%,0%,0%)}]]></style><defs><symbol id="A" class="B"><path d="M3.875-3.03125c.03125-.109375.03125-.125.03125-.1875 0-.140625-.109375-.21875-.234375-.21875-.078125 0-.203125.046875-.28125.171875-.015625.03125-.078125.28125-.109375.421875l-.15625.640625-.359375 1.4375c-.03125.125-.375.671875-.90625.671875-.40625 0-.484375-.34375-.484375-.640625 0-.359375.125-.859375.40625-1.5625.125-.328125.15625-.40625.15625-.578125 0-.359375-.25-.640625-.65625-.640625-.75 0-1.046875 1.15625-1.046875 1.21875 0 .078125.078125.078125.09375.078125.078125 0 .09375-.015625.125-.140625.21875-.75.53125-.984375.8125-.984375.0625 0 .1875 0 .1875.25 0 .203125-.078125.40625-.125.5625C1-1.6875.859375-1.234375.859375-.859375c0 .703125.5.953125.96875.953125.3125 0 .59375-.140625.8125-.359375C2.53125.140625 2.4375.53125 2.125.953125c-.21875.28125-.515625.5-.875.5-.125 0-.484375-.015625-.609375-.328125.125 0 .234375 0 .34375-.09375.078125-.078125.15625-.171875.15625-.328125 0-.25-.21875-.28125-.296875-.28125-.1875 0-.453125.125-.453125.515625 0 .40625.359375.703125.859375.703125.8125 0 1.640625-.734375 1.859375-1.625zm0 0" class="C"/></symbol><symbol id="B" class="B"><path d="M2.65625-2.40625c.046875-.203125.234375-.9375.796875-.9375.03125 0 .234375 0 .390625.09375-.21875.046875-.375.25-.375.4375 0 .125.078125.28125.296875.28125.171875 0 .4375-.140625.4375-.46875 0-.40625-.46875-.515625-.75-.515625-.453125 0-.734375.421875-.828125.59375-.203125-.515625-.640625-.59375-.859375-.59375C.9375-3.515625.484375-2.5.484375-2.296875c0 .078125.078125.078125.09375.078125.0625 0 .078125-.015625.09375-.078125C.953125-3.140625 1.46875-3.34375 1.75-3.34375c.140625 0 .421875.0625.421875.53125 0 .25-.125.78125-.421875 1.890625-.125.5-.40625.828125-.765625.828125-.046875 0-.234375 0-.390625-.09375.1875-.046875.375-.203125.375-.4375 0-.21875-.1875-.28125-.296875-.28125-.234375 0-.4375.21875-.4375.46875 0 .359375.390625.53125.75.53125.515625 0 .8125-.5625.828125-.609375.09375.296875.390625.609375.859375.609375.828125 0 1.28125-1.03125 1.28125-1.234375 0-.078125-.078125-.078125-.09375-.078125-.078125 0-.09375.03125-.109375.09375-.265625.84375-.796875 1.03125-1.0625 1.03125-.3125 0-.4375-.25-.4375-.515625 0-.171875.046875-.359375.140625-.703125zm0 0" class="C"/></symbol><symbol id="C" class="B"><path d="M2.125-1.921875c.046875-.171875.1875-.75.640625-.75.03125 0 .171875 0 .3125.078125-.171875.03125-.3125.1875-.3125.34375 0 .109375.078125.21875.25.21875.140625 0 .34375-.109375.34375-.359375 0-.34375-.375-.421875-.59375-.421875-.375 0-.59375.328125-.671875.484375-.15625-.421875-.5-.484375-.6875-.484375C.75-2.8125.375-2 .375-1.84375c0 .078125.078125.078125.078125.078125.0625 0 .078125-.015625.09375-.078125.21875-.671875.625-.828125.84375-.828125.125 0 .34375.046875.34375.421875 0 .203125-.109375.625-.34375 1.515625-.09375.390625-.3125.671875-.59375.671875-.046875 0-.1875 0-.328125-.09375C.625-.1875.765625-.3125.765625-.5.765625-.671875.625-.71875.53125-.71875c-.1875 0-.34375.171875-.34375.375C.1875-.0625.5.0625.78125.0625c.421875 0 .65625-.4375.671875-.484375.078125.25.3125.484375.6875.484375.65625 0 1.015625-.8125 1.015625-.96875 0-.0625-.046875-.0625-.078125-.0625-.046875 0-.0625.015625-.078125.0625-.203125.6875-.640625.84375-.84375.84375-.25 0-.359375-.21875-.359375-.421875 0-.140625.046875-.28125.109375-.5625zm0 0" class="C"/></symbol><symbol id="D" class="B"><path d="M2.34375-2.546875h.546875c.125 0 .1875 0 .1875-.125 0-.078125-.0625-.078125-.171875-.078125H2.375l.140625-.71875c.015625-.140625.109375-.59375.15625-.671875.046875-.125.15625-.21875.296875-.21875.015625 0 .1875 0 .3125.125-.28125.015625-.34375.25-.34375.34375 0 .140625.109375.21875.234375.21875.15625 0 .34375-.140625.34375-.375C3.515625-4.34375 3.21875-4.5 2.96875-4.5c-.21875 0-.625.125-.8125.75-.046875.140625-.0625.203125-.21875 1H1.5c-.109375 0-.1875 0-.1875.125 0 .078125.0625.078125.171875.078125h.421875L1.4375-.03125c-.125.625-.21875 1.203125-.5625 1.203125-.015625 0-.1875 0-.296875-.125.28125-.015625.34375-.25.34375-.34375C.921875.5625.8125.484375.6875.484375c-.171875 0-.34375.140625-.34375.375 0 .296875.28125.453125.53125.453125.359375 0 .609375-.375.71875-.625.203125-.40625.359375-1.171875.359375-1.21875zm0 0" class="C"/></symbol><symbol id="E" class="B"><path d="M3.09375-2.421875c.03125-.09375.03125-.109375.03125-.15625C3.125-2.6875 3.03125-2.75 2.9375-2.75c-.0625 0-.171875.046875-.21875.140625-.015625.03125-.0625.21875-.09375.34375l-.125.5-.28125 1.15625c-.03125.09375-.3125.546875-.734375.546875-.3125 0-.390625-.28125-.390625-.53125 0-.28125.109375-.6875.328125-1.25.109375-.25.125-.328125.125-.453125 0-.28125-.203125-.515625-.515625-.515625-.609375 0-.84375.921875-.84375.96875 0 .078125.0625.078125.078125.078125.0625 0 .0625-.015625.09375-.125.171875-.59375.4375-.78125.640625-.78125.0625 0 .171875 0 .171875.203125 0 .15625-.0625.328125-.109375.4375-.265625.6875-.375 1.046875-.375 1.34375 0 .5625.40625.75.78125.75.25 0 .46875-.09375.640625-.28125-.078125.328125-.15625.640625-.40625.984375-.171875.21875-.421875.40625-.703125.40625-.09375 0-.375-.03125-.484375-.265625.09375 0 .171875 0 .265625-.078125.0625-.0625.125-.140625.125-.265625 0-.203125-.171875-.21875-.234375-.21875C.53125.34375.3125.4375.3125.75c0 .328125.28125.5625.6875.5625.65625 0 1.3125-.578125 1.484375-1.3125zm0 0" class="C"/></symbol><symbol id="F" class="B"><path d="M1.5-2.84375c0-.125-.015625-.125-.140625-.125-.28125.28125-.6875.28125-.875.28125v.171875c.109375 0 .40625 0 .65625-.125v2.28125c0 .140625 0 .203125-.453125.203125H.515625V0L1.3125-.015625 2.109375 0v-.15625H1.9375C1.5-.15625 1.5-.21875 1.5-.359375zm0 0" class="C"/></symbol><symbol id="G" class="B"><path d="M2.25-.8125h-.140625c-.015625.09375-.0625.359375-.125.40625-.03125.03125-.375.03125-.4375.03125H.71875l.90625-.75c.328125-.265625.625-.546875.625-.96875 0-.546875-.46875-.875-1.03125-.875s-.9375.390625-.9375.796875c0 .234375.1875.25.234375.25C.625-1.921875.75-2 .75-2.15625c0-.078125-.03125-.234375-.265625-.234375.140625-.3125.453125-.421875.65625-.421875.453125 0 .6875.359375.6875.71875 0 .390625-.28125.6875-.421875.859375L.328125-.171875C.28125-.140625.28125-.125.28125 0H2.125zm0 0" class="C"/></symbol><symbol id="H" class="B"><path d="M2.109375 1.53125c0-.015625 0-.03125-.109375-.140625C1.203125.59375 1-.625 1-1.59375c0-1.109375.25-2.21875 1.03125-3.015625.078125-.078125.078125-.09375.078125-.109375 0-.046875-.03125-.0625-.0625-.0625-.0625 0-.640625.4375-1.015625 1.25C.703125-2.84375.625-2.125.625-1.59375c0 .5.078125 1.265625.421875 1.984375.390625.78125.9375 1.203125 1 1.203125.03125 0 .0625-.015625.0625-.0625zm0 0" class="C"/></symbol><symbol id="I" class="B"><path d="M1.84375-1.59375c0-.5-.078125-1.265625-.421875-1.984375-.375-.78125-.9375-1.203125-1-1.203125-.03125 0-.0625.03125-.0625.0625 0 .015625 0 .03125.125.140625.625.640625.984375 1.65625.984375 2.984375C1.46875-.5 1.234375.625.453125 1.421875c-.09375.078125-.09375.09375-.09375.109375 0 .03125.03125.0625.0625.0625.0625 0 .640625-.4375 1.015625-1.25.328125-.6875.40625-1.40625.40625-1.9375zm0 0" class="C"/></symbol><symbol id="J" class="B"><path d="M3.328125-1.015625c.0625 0 .171875 0 .171875-.09375 0-.125-.09375-.125-.171875-.125H.65625c-.0625 0-.171875 0-.171875.109375s.09375.109375.171875.109375zm0 0" class="C"/></symbol><clipPath id="K"><path d="M58 133h4v2h-4zm0 0"/></clipPath><clipPath id="L"><path d="M61.910156 134.5c0-.828125-.667968-1.496094-1.492187-1.496094s-1.496094.667969-1.496094 1.496094.667969 1.492188 1.496094 1.492188 1.492187-.667969 1.492187-1.492188zm0 0"/></clipPath><clipPath id="M"><path d="M101 133h4v2h-4zm0 0"/></clipPath><clipPath id="N"><path d="M104.429688 134.5c0-.828125-.667969-1.496094-1.492188-1.496094s-1.496094.667969-1.496094 1.496094.667969 1.492188 1.496094 1.492188 1.492188-.667969 1.492188-1.492188zm0 0"/></clipPath><clipPath id="O"><path d="M17 107h3v4h-3zm0 0"/></clipPath><clipPath id="P"><path d="M17.894531 110.480469c.828125 0 1.496094-.667969 1.496094-1.492188s-.667969-1.496093-1.496094-1.496093-1.492187.667968-1.492187 1.496093.667969 1.492188 1.492187 1.492188zm0 0"/></clipPath><clipPath id="Q"><path d="M17 30h3v4h-3zm0 0"/></clipPath><clipPath id="R"><path d="M17.894531 33.945313c.828125 0 1.496094-.667969 1.496094-1.496094s-.667969-1.492188-1.496094-1.492188-1.492187.667969-1.492187 1.492188.667969 1.496094 1.492187 1.496094zm0 0"/></clipPath><path id="S" d="M17.894531 80.640625h28.347657v56.691406H17.894531zm0 0"/></defs><g fill="none" class="E"><path d="M60.417969 134.5v-25.511719H17.89453125M102.9375 134.5V32.449219H17.89453125" stroke="rgb(50%,50%,50%)" stroke-dasharray="2.98883,2.98883" class="H"/><path d="M17.89453125 134.5l3.78124975-.203125c1.046875-.109375 2.730469-.378906 3.777344-.605469s2.734375-.671875 3.78125-1.007812 2.730469-.960938 3.78125-1.410156l3.777344-1.8125 3.78125-2.21875 3.777343-2.621094 3.78125-3.023438 3.777344-3.425781 3.78125-3.828125 3.777344-4.234375 3.78125-4.636719 3.78125-5.039062 3.777344-5.441406 3.78125-5.84375 3.777343-6.25 3.78125-6.652344 3.777344-7.054688 3.78125-7.457031 3.78125-7.859375 3.777344-8.265625 3.78125-8.667969 3.777344-9.070312 3.78125-9.472656" stroke-width=".79701" stroke="rgb(0%,62.353516%,95.684814%)"/></g><path d="M62.410156 108.988281c0-1.101562-.894531-1.992187-1.992187-1.992187s-1.996094.890625-1.996094 1.992187.894531 1.992188 1.996094 1.992188 1.992187-.894531 1.992187-1.992188zm42.519532-76.539062c0-1.097656-.894532-1.992188-1.992188-1.992188s-1.992187.894532-1.992187 1.992188.890625 1.992187 1.992187 1.992187 1.992188-.890625 1.992188-1.992187zm0 0" fill="rgb(0%,62.353516%,95.684814%)"/><g class="E H I"><path d="M17.89453125 141.585938V11.519531" fill="none"/><path d="M3.759501.00146875C3.298564.110844 1.267314.751469.00168875 1.446781V-1.44775C1.267314-.752437 3.298564-.111812 3.759501.00146875zm0 0" transform="matrix(0 -1 -1 0 17.896 11.52122)" class="F"/></g><use xlink:href="#A" x="9.691" y="11.069" class="F"/><g class="E H I"><path d="M10.808594 134.5h115.890625" fill="none"/><path d="M130.460938 134.5c-.460938-.113281-2.492188-.753906-3.76171925-1.449219v2.894532C127.96875 135.25 130 134.613281 130.460938 134.5zm0 0" class="F"/></g><use xlink:href="#B" x="127.012" y="143.138" class="F"/><g class="D"><use xlink:href="#C" x="51.659" y="131.29"/><use xlink:href="#F" x="55.30252" y="132.2468"/><use xlink:href="#C" x="105.188" y="131.29"/><use xlink:href="#G" x="108.83216" y="132.2468"/><use xlink:href="#D" x="20.149" y="116.022"/><use xlink:href="#H" x="23.957" y="116.022"/><use xlink:href="#C" x="26.43636" y="116.022"/><use xlink:href="#F" x="30.08052" y="116.9788"/><use xlink:href="#I" x="32.94068" y="116.022"/><use xlink:href="#D" x="20.149" y="28.605"/><use xlink:href="#H" x="23.957" y="28.605"/><use xlink:href="#C" x="26.43636" y="28.605"/><use xlink:href="#G" x="30.08052" y="29.5618"/><use xlink:href="#I" x="32.94068" y="28.605"/></g><g class="G"><use xlink:href="#D" x="49.616" y="144.492"/><use xlink:href="#J" x="53.424" y="142.1784"/><use xlink:href="#F" x="57.40928" y="142.1784"/><use xlink:href="#H" x="60.26944" y="144.492"/><use xlink:href="#E" x="62.7488" y="144.492"/><use xlink:href="#F" x="65.8752" y="145.4488"/><use xlink:href="#I" x="68.73536" y="144.492"/><use xlink:href="#D" x="92.136" y="144.492"/><use xlink:href="#J" x="95.944" y="142.1784"/><use xlink:href="#F" x="99.92864" y="142.1784"/><use xlink:href="#H" x="102.78944" y="144.492"/><use xlink:href="#E" x="105.2688" y="144.492"/><use xlink:href="#G" x="108.3952" y="145.4488"/><use xlink:href="#I" x="111.25536" y="144.492"/><use xlink:href="#E" x="7.106" y="109.74"/><use xlink:href="#F" x="10.2324" y="110.6968"/><use xlink:href="#E" x="7.106" y="33.205"/><use xlink:href="#G" x="10.2324" y="34.16116"/><path d="M61.910156 134.5c0-.828125-.667968-1.496094-1.492187-1.496094s-1.496094.667969-1.496094 1.496094.667969 1.492188 1.496094 1.492188 1.492187-.667969 1.492187-1.492188zm0 0"/></g><g clip-path="url(#K)" class="D"><g clip-path="url(#L)"><path d="M32.070313 134.5v-28.347656h56.691406V134.5zm0 0"/></g></g><path d="M104.429688 134.5c0-.828125-.667969-1.496094-1.492188-1.496094s-1.496094.667969-1.496094 1.496094.667969 1.492188 1.496094 1.492188 1.492188-.667969 1.492188-1.492188zm0 0" class="G"/><g clip-path="url(#M)" class="D"><g clip-path="url(#N)"><path d="M74.589844 134.5v-28.347656h56.695312V134.5zm0 0"/></g></g><path d="M17.894531 110.480469c.828125 0 1.496094-.667969 1.496094-1.492188s-.667969-1.496093-1.496094-1.496093-1.492187.667968-1.492187 1.496093.667969 1.492188 1.492187 1.492188zm0 0" class="G"/><g clip-path="url(#O)" class="D"><g clip-path="url(#P)"><use xlink:href="#S"/></g></g><path d="M17.894531 33.945313c.828125 0 1.496094-.667969 1.496094-1.496094s-.667969-1.492188-1.496094-1.492188-1.492187.667969-1.492187 1.492188.667969 1.496094 1.492187 1.496094zm0 0" class="G"/><g clip-path="url(#Q)" class="D"><g clip-path="url(#R)"><path d="M17.894531 4.105469h28.347657v56.691406H17.894531zm0 0"/></g></g></svg>