<svg xmlns="http://www.w3.org/2000/svg" xmlns:xlink="http://www.w3.org/1999/xlink" width="600" height="532.48000911" viewBox="0 0 145.939 129.516"><style><![CDATA[.B{overflow:visible}.C{stroke:none}.D{stroke-miterlimit:10}.E{fill:rgb(0%,0%,0%)}.F{stroke-width:.3985}.G{stroke-dasharray:2.98883,2.98883}.H{fill:rgb(25.097656%,66.273499%,25.097656%)}.I{fill:rgb(84.70459%,18.824768%,19.216919%)}.J{stroke:rgb(0%,0%,0%)}]]></style><defs><symbol id="A" class="B"><path d="M3.875-3.03125c.03125-.109375.03125-.125.03125-.1875 0-.140625-.109375-.21875-.234375-.21875-.078125 0-.203125.046875-.28125.171875-.015625.03125-.078125.28125-.109375.421875l-.15625.640625-.359375 1.4375c-.03125.125-.375.671875-.90625.671875-.40625 0-.484375-.34375-.484375-.640625 0-.359375.125-.859375.40625-1.5625.125-.328125.15625-.40625.15625-.578125 0-.359375-.25-.640625-.65625-.640625-.75 0-1.046875 1.15625-1.046875 1.21875 0 .078125.078125.078125.09375.078125.078125 0 .09375-.015625.125-.140625.21875-.75.53125-.984375.8125-.984375.0625 0 .1875 0 .1875.25 0 .203125-.078125.40625-.125.5625C1-1.6875.859375-1.234375.859375-.859375c0 .703125.5.953125.96875.953125.3125 0 .59375-.140625.8125-.359375C2.53125.140625 2.4375.53125 2.125.953125c-.21875.28125-.515625.5-.875.5-.125 0-.484375-.015625-.609375-.328125.125 0 .234375 0 .34375-.09375.078125-.078125.15625-.171875.15625-.328125 0-.25-.21875-.28125-.296875-.28125-.1875 0-.453125.125-.453125.515625 0 .40625.359375.703125.859375.703125.8125 0 1.640625-.734375 1.859375-1.625zm0 0" class="C"/></symbol><symbol id="B" class="B"><path d="M2.65625-2.40625c.046875-.203125.234375-.9375.796875-.9375.03125 0 .234375 0 .390625.09375-.21875.046875-.375.25-.375.4375 0 .125.078125.28125.296875.28125.171875 0 .4375-.140625.4375-.46875 0-.40625-.46875-.515625-.75-.515625-.453125 0-.734375.421875-.828125.59375-.203125-.515625-.640625-.59375-.859375-.59375C.9375-3.515625.484375-2.5.484375-2.296875c0 .078125.078125.078125.09375.078125.0625 0 .078125-.015625.09375-.078125C.953125-3.140625 1.46875-3.34375 1.75-3.34375c.140625 0 .421875.0625.421875.53125 0 .25-.125.78125-.421875 1.890625-.125.5-.40625.828125-.765625.828125-.046875 0-.234375 0-.390625-.09375.1875-.046875.375-.203125.375-.4375 0-.21875-.1875-.28125-.296875-.28125-.234375 0-.4375.21875-.4375.46875 0 .359375.390625.53125.75.53125.515625 0 .8125-.5625.828125-.609375.09375.296875.390625.609375.859375.609375.828125 0 1.28125-1.03125 1.28125-1.234375 0-.078125-.078125-.078125-.09375-.078125-.078125 0-.09375.03125-.109375.09375-.265625.84375-.796875 1.03125-1.0625 1.03125-.3125 0-.4375-.25-.4375-.515625 0-.171875.046875-.359375.140625-.703125zm0 0" class="C"/></symbol><symbol id="C" class="B"><path d="M2.125-1.921875c.046875-.171875.1875-.75.640625-.75.03125 0 .171875 0 .3125.078125-.171875.03125-.3125.1875-.3125.34375 0 .109375.078125.21875.25.21875.140625 0 .34375-.109375.34375-.359375 0-.34375-.375-.421875-.59375-.421875-.375 0-.59375.328125-.671875.484375-.15625-.421875-.5-.484375-.6875-.484375C.75-2.8125.375-2 .375-1.84375c0 .078125.078125.078125.078125.078125.0625 0 .078125-.015625.09375-.078125.21875-.671875.625-.828125.84375-.828125.125 0 .34375.046875.34375.421875 0 .203125-.109375.625-.34375 1.515625-.09375.390625-.3125.671875-.59375.671875-.046875 0-.1875 0-.328125-.09375C.625-.1875.765625-.3125.765625-.5.765625-.671875.625-.71875.53125-.71875c-.1875 0-.34375.171875-.34375.375C.1875-.0625.5.0625.78125.0625c.421875 0 .65625-.4375.671875-.484375.078125.25.3125.484375.6875.484375.65625 0 1.015625-.8125 1.015625-.96875 0-.0625-.046875-.0625-.078125-.0625-.046875 0-.0625.015625-.078125.0625-.203125.6875-.640625.84375-.84375.84375-.25 0-.359375-.21875-.359375-.421875 0-.140625.046875-.28125.109375-.5625zm0 0" class="C"/></symbol><symbol id="D" class="B"><path d="M2.34375-2.546875h.546875c.125 0 .1875 0 .1875-.125 0-.078125-.0625-.078125-.171875-.078125H2.375l.140625-.71875c.015625-.140625.109375-.59375.15625-.671875.046875-.125.15625-.21875.296875-.21875.015625 0 .1875 0 .3125.125-.28125.015625-.34375.25-.34375.34375 0 .140625.109375.21875.234375.21875.15625 0 .34375-.140625.34375-.375C3.515625-4.34375 3.21875-4.5 2.96875-4.5c-.21875 0-.625.125-.8125.75-.046875.140625-.0625.203125-.21875 1H1.5c-.109375 0-.1875 0-.1875.125 0 .078125.0625.078125.171875.078125h.421875L1.4375-.03125c-.125.625-.21875 1.203125-.5625 1.203125-.015625 0-.1875 0-.296875-.125.28125-.015625.34375-.25.34375-.34375C.921875.5625.8125.484375.6875.484375c-.171875 0-.34375.140625-.34375.375 0 .296875.28125.453125.53125.453125.359375 0 .609375-.375.71875-.625.203125-.40625.359375-1.171875.359375-1.21875zm0 0" class="C"/></symbol><symbol id="E" class="B"><path d="M1.5-2.84375c0-.125-.015625-.125-.140625-.125-.28125.28125-.6875.28125-.875.28125v.171875c.109375 0 .40625 0 .65625-.125v2.28125c0 .140625 0 .203125-.453125.203125H.515625V0L1.3125-.015625 2.109375 0v-.15625H1.9375C1.5-.15625 1.5-.21875 1.5-.359375zm0 0" class="C"/></symbol><symbol id="F" class="B"><path d="M2.25-.8125h-.140625c-.015625.09375-.0625.359375-.125.40625-.03125.03125-.375.03125-.4375.03125H.71875l.90625-.75c.328125-.265625.625-.546875.625-.96875 0-.546875-.46875-.875-1.03125-.875s-.9375.390625-.9375.796875c0 .234375.1875.25.234375.25C.625-1.921875.75-2 .75-2.15625c0-.078125-.03125-.234375-.265625-.234375.140625-.3125.453125-.421875.65625-.421875.453125 0 .6875.359375.6875.71875 0 .390625-.28125.6875-.421875.859375L.328125-.171875C.28125-.140625.28125-.125.28125 0H2.125zm0 0" class="C"/></symbol><symbol id="G" class="B"><path d="M1.21875-1.5c.34375 0 .59375.25.59375.734375 0 .546875-.3125.71875-.578125.71875-.171875 0-.5625-.0625-.75-.3125.203125-.015625.25-.15625.25-.25 0-.15625-.109375-.25-.25-.25-.125 0-.25.078125-.25.25C.234375-.1875.703125.09375 1.25.09375c.625 0 1.046875-.421875 1.046875-.859375 0-.359375-.28125-.703125-.78125-.8125.46875-.171875.640625-.5.640625-.765625 0-.359375-.40625-.625-.90625-.625-.484375 0-.875.25-.875.59375 0 .15625.109375.25.234375.25.140625 0 .234375-.109375.234375-.234375S.75-2.578125.609375-2.59375c.15625-.1875.46875-.25.640625-.25.1875 0 .46875.109375.46875.5 0 .1875-.0625.390625-.171875.53125-.140625.15625-.265625.171875-.5.1875-.109375 0-.125 0-.140625.015625-.015625 0-.046875 0-.046875.046875 0 .0625.046875.0625.125.0625zm0 0" class="C"/></symbol><symbol id="H" class="B"><path d="M2.359375-.734375v-.15625H1.875v-2c0-.09375 0-.125-.109375-.125-.046875 0-.0625 0-.109375.0625L.171875-.890625v.15625h1.3125v.375c0 .140625 0 .203125-.359375.203125H1V0l.671875-.015625L2.34375 0v-.15625h-.109375C1.875-.15625 1.875-.21875 1.875-.359375v-.375zm-.84375-1.796875v1.640625H.34375zm0 0" class="C"/></symbol><symbol id="I" class="B"><path d="M2.109375 1.53125c0-.015625 0-.03125-.109375-.140625C1.203125.59375 1-.625 1-1.59375c0-1.109375.25-2.21875 1.03125-3.015625.078125-.078125.078125-.09375.078125-.109375 0-.046875-.03125-.0625-.0625-.0625-.0625 0-.640625.4375-1.015625 1.25C.703125-2.84375.625-2.125.625-1.59375c0 .5.078125 1.265625.421875 1.984375.390625.78125.9375 1.203125 1 1.203125.03125 0 .0625-.015625.0625-.0625zm0 0" class="C"/></symbol><symbol id="J" class="B"><path d="M1.84375-1.59375c0-.5-.078125-1.265625-.421875-1.984375-.375-.78125-.9375-1.203125-1-1.203125-.03125 0-.0625.03125-.0625.0625 0 .015625 0 .03125.125.140625.625.640625.984375 1.65625.984375 2.984375C1.46875-.5 1.234375.625.453125 1.421875c-.09375.078125-.09375.09375-.09375.109375 0 .03125.03125.0625.0625.0625.0625 0 .640625-.4375 1.015625-1.25.328125-.6875.40625-1.40625.40625-1.9375zm0 0" class="C"/></symbol><path id="K" d="M25.628906 33.300781c0-.550781-.449218-.996093-.996093-.996093s-1 .445312-1 .996093.449218.996094 1 .996094.996093-.445312.996093-.996094zm0 0"/><path id="L" d="M73.816406 113.238281c0-.546875-.445312-.996093-.996093-.996093s-.996094.449218-.996094.996093.445312.996094.996094.996094.996093-.445312.996093-.996094zm0 0"/></defs><g fill="none" class="D"><g class="F G"><g stroke="rgb(25.097656%,66.273499%,25.097656%)"><path d="M31.71875 113.238281v-79.9375h-7.0859375"/><path d="M44.472656 113.238281V54.277344H24.6328125"/></g><path d="M72.820313 113.238281V87.726562H24.6328125m68.0312505 25.511719v-40.25H24.6328125" stroke="rgb(84.70459%,18.824768%,19.216919%)"/></g><path d="M24.6328125 21.113281L67.152344 91.980469l56.691406-42.519532" stroke-width=".79701" stroke="rgb(0%,62.353516%,95.684814%)"/></g><path d="M33.460938 33.300781c0-.960937-.78125-1.742187-1.742188-1.742187s-1.746094.78125-1.746094 1.742187.78125 1.746094 1.746094 1.746094 1.742188-.78125 1.742188-1.746094zM46.21875 54.277344c0-.960938-.78125-1.742188-1.746094-1.742188s-1.742187.78125-1.742187 1.742188.78125 1.746094 1.742187 1.746094 1.746094-.78125 1.746094-1.746094zm0 0" class="H"/><path d="M74.5625 87.726563c0-.960938-.777344-1.742188-1.742187-1.742188s-1.742188.78125-1.742188 1.742188.78125 1.746093 1.742188 1.746093 1.742187-.78125 1.742187-1.746093zm19.84375-14.738282c0-.964843-.78125-1.746093-1.742187-1.746093s-1.746094.78125-1.746094 1.746093.78125 1.742188 1.746094 1.742188 1.742187-.78125 1.742187-1.742188zm0 0" class="I"/><g class="D F J"><path d="M24.6328125 120.328125V11.523437" fill="none"/><path d="M3.760501-.0018125C3.299564.111469 1.268314.752094-.0012175 1.447406v-2.894531C1.268314-.751812 3.299564-.111187 3.760501-.0018125zm0 0" transform="matrix(0 -1 -1 0 24.631 11.52222)" class="E"/></g><use xlink:href="#A" x="16.227" y="11.07" class="E"/><g class="D F J"><path d="M17.542969 113.238281h115.890625" fill="none"/><path d="M137.195312 113.23828125c-.460937-.10937525-2.492187-.75000025-3.76171825-1.44531225v2.894531c1.26953125-.695313 3.30078125-1.335938 3.76171825-1.44921875zm0 0" class="E"/></g><use xlink:href="#B" x="133.746" y="121.878" class="E"/><g class="H"><path d="M32.714844 113.238281c0-.546875-.445313-.996093-.996094-.996093s-.996094.449218-.996094.996093.445313.996094.996094.996094.996094-.445312.996094-.996094zm0 0"/><use xlink:href="#C" x="28.465" y="118.238"/><use xlink:href="#E" x="32.10916" y="119.19416"/><path d="M45.46875 113.238281c0-.546875-.445312-.996093-.996094-.996093s-.996093.449218-.996093.996093.445312.996094.996093.996094.996094-.445312.996094-.996094zm0 0"/><use xlink:href="#C" x="41.221" y="118.238"/><use xlink:href="#F" x="44.86516" y="119.19416"/><use xlink:href="#K"/><use xlink:href="#D" x="7.106" y="34.897"/><use xlink:href="#I" x="10.914" y="34.897"/><use xlink:href="#C" x="13.394" y="34.897"/><use xlink:href="#E" x="17.03816" y="35.85316"/><use xlink:href="#J" x="19.89832" y="34.897"/><path d="M25.628906 54.277344c0-.550781-.449218-.996094-.996093-.996094s-1 .445313-1 .996094.449218.996094 1 .996094.996093-.445313.996093-.996094zm0 0"/><use xlink:href="#D" x="7.106" y="55.873"/><use xlink:href="#I" x="10.914" y="55.873"/><use xlink:href="#C" x="13.394" y="55.873"/><use xlink:href="#F" x="17.03816" y="56.8298"/><use xlink:href="#J" x="19.89832" y="55.873"/></g><g class="I"><use xlink:href="#L"/><use xlink:href="#C" x="69.567" y="118.238"/><use xlink:href="#G" x="73.21116" y="119.19416"/><use xlink:href="#L" x="19.84375"/><use xlink:href="#C" x="89.41" y="118.238"/><use xlink:href="#H" x="93.05416" y="119.19416"/><path d="M25.628906 87.726563c0-.550782-.449218-.996094-.996093-.996094s-1 .445312-1 .996094.449218.996093 1 .996093.996093-.445312.996093-.996093zm0 0"/><use xlink:href="#D" x="7.106" y="89.322"/><use xlink:href="#I" x="10.914" y="89.322"/><use xlink:href="#C" x="13.394" y="89.322"/><use xlink:href="#G" x="17.03816" y="90.2788"/><use xlink:href="#J" x="19.89832" y="89.322"/><use xlink:href="#K" y="39.6875"/><use xlink:href="#D" x="7.106" y="74.582"/><use xlink:href="#I" x="10.914" y="74.582"/><use xlink:href="#C" x="13.394" y="74.582"/><use xlink:href="#H" x="17.03816" y="75.53816"/><use xlink:href="#J" x="19.89832" y="74.582"/></g></svg>