<?xml version="1.0" encoding="UTF-8"?><svg xmlns="http://www.w3.org/2000/svg" width="800" viewBox="0 0 4821.22 1596.31"><g id="b"><path d="m443.84,1152.34l-115.5-100.12,42.88-31.88s124.44-69.69,243.13,14.31c116.62,82.5,105.63,327.81,15.37,440s-152.94,118.81-187,117.69c-34.12-1.13-39.62-17.62-72.63-14.31-33,3.31-44,22-104.5,17.62-54.87-4-100.13-25.31-122.13-49.5-20.81-23,300.37-393.81,300.37-393.81h0Z" style="fill:#ffa217;"/><path d="m578.28,1037.02s-49.56,21.37-99.06,25.25c-49.56,3.87-137.94-2.94-137.94-2.94,0,0-9.69-51.5-12.63-51.5s-133-45.25-228.25,26.25C.03,1109.4-9.84,1255.65,6.16,1325.46c36.81,160.44,154.88,236,154.88,236,0,0,105.44,11.69,237.56-46.56s246.5-160.25,243.81-297.19c-2.94-145.75-64.13-180.69-64.13-180.69Z" style="fill:#ffbf44;"/><path d="m187.59,1065.15c-16.94-19.56-63.44-15.19-99.56,36.5-37.63,53.75-39.31,152.25-8.31,154.94,25.44,2.19,31.94-40.88,47.56-71.37,29.37-57.25,99.06-75.25,60.31-120.06Z" style="fill:#ffda9f;"/><path d="m228.53,1043.02c-7.44,15.5,17.06,53.63,108.56,56.44,96.25,2.94,127.81-50.69,116.81-63.19s-47,8.06-115.31,7.38-97.37-26.94-110.06-.62h0Z" style="fill:#ea6d2c;"/><path d="m276.09,938.52c-7.38-1.5-37.44-6.62-40.44-18.38-1.38-5.56,5.87-23.5,25-36.75s38.19-16.87,42.62-6.63c4.44,10.31,2.94,16.87,2.94,19.12s15.12,19.88,25.69,42.62c14.69,31.56,22.75,62.44,21.31,94.06-1.06,22.87-1.5,55.12-14.69,52.87-13.75-2.31-10.88-34.56-17.62-57.31-16.13-54.31-40.37-88.69-44.81-89.63h0Z" style="fill:#e23232;"/><path d="m468.16,974.27c1.5-2.19,153.56-97.69,154.25-103.56s-78.56-19.88-128.5-1.5c-49.94,18.37-101.69,47.94-126.38,99.19-19.81,41.12-19.81,69.06-14.69,75.69,2.44,3.12,115.31-69.81,115.31-69.81h0Z" style="fill:#c07931;"/><path d="m451.28,968.4c67.12-42.88,171.19-97.69,171.19-97.69,0,0,3.12,8.19-16.87,42.63-26.44,45.56-88.19,104.31-150.62,122.69-67.75,19.94-102.13,8.06-102.13,8.06,0,0,45.56-41.88,98.44-75.69h0Z" style="fill:#dd8919;"/></g><g id="c"><path d="m898.97,292.28l-115.5-100.12,42.88-31.88s124.44-69.69,243.13,14.31c116.62,82.5,105.63,327.81,15.37,440s-152.94,118.81-187,117.69c-34.12-1.13-39.62-17.62-72.63-14.31-33,3.31-44,22-104.5,17.62-54.87-4-100.13-25.31-122.13-49.5-20.81-23,300.37-393.81,300.37-393.81h0Z" style="fill:#6ea517;"/><path d="m1033.41,176.96s-49.56,21.37-99.06,25.25c-49.56,3.87-137.94-2.94-137.94-2.94,0,0-9.69-51.5-12.63-51.5s-133-45.25-228.25,26.25c-100.37,75.31-110.25,221.56-94.25,291.38,36.81,160.44,154.88,236,154.88,236,0,0,105.44,11.69,237.56-46.56s246.5-160.25,243.81-297.19c-2.94-145.75-64.13-180.69-64.13-180.69Z" style="fill:#87c244;"/><path d="m642.72,205.09c-16.94-19.56-63.44-15.19-99.56,36.5-37.63,53.75-39.31,152.25-8.31,154.94,25.44,2.19,31.94-40.88,47.56-71.37,29.37-57.25,99.06-75.25,60.31-120.06Z" style="fill:#e5dd9f;"/><path d="m683.66,182.96c-7.44,15.5,17.06,53.63,108.56,56.44,96.25,2.94,127.81-50.69,116.81-63.19s-47,8.06-115.31,7.38-97.37-26.94-110.06-.62h0Z" style="fill:#59702c;"/><path d="m731.22,78.46c-7.38-1.5-37.44-6.62-40.44-18.38-1.38-5.56,5.87-23.5,25-36.75s38.19-16.87,42.62-6.63c4.44,10.31,2.94,16.87,2.94,19.12s15.12,19.88,25.69,42.62c14.69,31.56,22.75,62.44,21.31,94.06-1.06,22.87-1.5,55.12-14.69,52.87-13.75-2.31-10.88-34.56-17.62-57.31-16.13-54.31-40.37-88.69-44.81-89.63h0Z" style="fill:#513532;"/><path d="m923.28,114.21c1.5-2.19,153.56-97.69,154.25-103.56s-78.56-19.88-128.5-1.5c-49.94,18.37-101.69,47.94-126.38,99.19-19.81,41.12-19.81,69.06-14.69,75.69,2.44,3.12,115.31-69.81,115.31-69.81h0Z" style="fill:#2f7c31;"/><path d="m906.41,108.34c67.12-42.88,171.19-97.69,171.19-97.69,0,0,3.12,8.19-16.87,42.63-26.44,45.56-88.19,104.31-150.62,122.69-67.75,19.94-102.13,8.06-102.13,8.06,0,0,45.56-41.88,98.44-75.69h0Z" style="fill:#4c8c19;"/></g><g id="d"><path d="m1391.27,1152.34l-115.5-100.12,42.88-31.88s124.44-69.69,243.13,14.31c116.62,82.5,105.63,327.81,15.37,440s-152.94,118.81-187,117.69c-34.12-1.13-39.62-17.62-72.63-14.31-33,3.31-44,22-104.5,17.62-54.87-4-100.13-25.31-122.13-49.5-20.81-23,300.37-393.81,300.37-393.81h0Z" style="fill:#f05b00;"/><path d="m1525.71,1037.02s-49.56,21.37-99.06,25.25c-49.56,3.87-137.94-2.94-137.94-2.94,0,0-9.69-51.5-12.63-51.5s-133-45.25-228.25,26.25c-100.37,75.31-110.25,221.56-94.25,291.38,36.81,160.44,154.88,236,154.88,236,0,0,105.44,11.69,237.56-46.56s246.5-160.25,243.81-297.19c-2.94-145.75-64.13-180.69-64.13-180.69Z" style="fill:#ff780c;"/><path d="m1135.02,1065.15c-16.94-19.56-63.44-15.19-99.56,36.5-37.63,53.75-39.31,152.25-8.31,154.94,25.44,2.19,31.94-40.88,47.56-71.37,29.37-57.25,99.06-75.25,60.31-120.06Z" style="fill:#ff9367;"/><path d="m1175.96,1043.02c-7.44,15.5,17.06,53.63,108.56,56.44,96.25,2.94,127.81-50.69,116.81-63.19s-47,8.06-115.31,7.38-97.37-26.94-110.06-.62h0Z" style="fill:#db2600;"/><path d="m1223.52,938.52c-7.38-1.5-37.44-6.62-40.44-18.38-1.38-5.56,5.87-23.5,25-36.75s38.19-16.87,42.62-6.63c4.44,10.31,2.94,16.87,2.94,19.12s15.12,19.88,25.69,42.62c14.69,31.56,22.75,62.44,21.31,94.06-1.06,22.87-1.5,55.12-14.69,52.87-13.75-2.31-10.88-34.56-17.62-57.31-16.13-54.31-40.37-88.69-44.81-89.63h0Z" style="fill:#d30000;"/><path d="m1415.58,974.27c1.5-2.19,153.56-97.69,154.25-103.56s-78.56-19.88-128.5-1.5c-49.94,18.37-101.69,47.94-126.38,99.19-19.81,41.12-19.81,69.06-14.69,75.69,2.44,3.12,115.31-69.81,115.31-69.81h0Z" style="fill:#b13200;"/><path d="m1398.71,968.4c67.12-42.88,171.19-97.69,171.19-97.69,0,0,3.12,8.19-16.87,42.63-26.44,45.56-88.19,104.31-150.62,122.69-67.75,19.94-102.13,8.06-102.13,8.06,0,0,45.56-41.88,98.44-75.69h0Z" style="fill:#ce4200;"/></g><circle cx="3981.33" cy="363.91" r="338.45" style="fill:none; stroke:#7d7d7d; stroke-miterlimit:10; stroke-width:40px;"/><path d="m3961.81,250.47h-.92l-51.79,27.96-7.79-30.71,65.08-34.83h34.37v297.91h-38.96V250.47Z" style="fill:#7d7d7d;"/><circle cx="3532.37" cy="1231.97" r="338.45" style="fill:none; stroke:#7d7d7d; stroke-miterlimit:10; stroke-width:40px;"/><path d="m3437.21,1371.6v-24.52l31.33-30.42c75.37-71.74,109.42-109.87,109.87-154.37,0-29.97-14.53-57.66-58.57-57.66-26.79,0-49.03,13.62-62.66,24.97l-12.71-28.15c20.43-17.25,49.49-29.97,83.54-29.97,63.56,0,90.35,43.59,90.35,85.81,0,54.48-39.5,98.52-101.7,158.46l-23.61,21.79v.91h132.58v33.14h-188.42Z" style="fill:#7d7d7d;"/><circle cx="4462.76" cy="1231.97" r="338.45" style="fill:none; stroke:#7d7d7d; stroke-miterlimit:10; stroke-width:40px;"/><path d="m4382.29,1329.54c10.68,6.83,35.44,17.51,61.49,17.51,48.25,0,63.2-30.75,62.77-53.81-.43-38.86-35.44-55.51-71.74-55.51h-20.92v-28.18h20.92c27.33,0,61.92-14.09,61.92-46.97,0-22.21-14.09-41.85-48.68-41.85-22.21,0-43.56,9.82-55.51,18.36l-9.82-27.33c14.52-10.68,42.7-21.35,72.6-21.35,54.66,0,79.43,32.45,79.43,66.19,0,28.61-17.08,52.95-51.24,65.34v.85c34.16,6.83,61.92,32.46,61.92,71.31,0,44.41-34.59,83.27-101.21,83.27-31.17,0-58.5-9.82-72.17-18.79l10.25-29.04Z" style="fill:#7d7d7d;"/><line x1="1884.26" y1="807.22" x2="2809.65" y2="807.22" style="fill:none; stroke:#7d7d7d; stroke-miterlimit:10; stroke-width:40px;"/><polygon points="2786.3 887 2924.46 807.22 2786.3 727.45 2786.3 887" style="fill:#7d7d7d;"/></svg>