<?xml version="1.0" encoding="UTF-8"?>
<svg id="_Слой_1" data-name="Слой 1" xmlns="http://www.w3.org/2000/svg" viewBox="0 0 469.71 165.4" width="800">
  <defs>
    <style>
      .cls-1 {
        fill: #a0a0a0;
      }

      .cls-2, .cls-3, .cls-4 {
        font-family: ArialMT, Arial;
        font-size: 16px;
        isolation: isolate;
      }

      .cls-2, .cls-5 {
        fill: #f36;
      }

      .cls-3, .cls-6 {
        fill: #09f;
      }

      .cls-7, .cls-4 {
        fill: #c6f;
      }

      .cls-8 {
        fill: none;
        stroke: #000;
        stroke-linecap: round;
        stroke-linejoin: round;
      }

      .cls-4 {
        letter-spacing: -.06em;
      }
    </style>
  </defs>
  <path class="cls-1" d="m15.49,85.97c-.53,0-1.02.34-1.19.87-.21.66.15,1.36.81,1.57l115.8,36.85-.91,2.86,17.49,1.1-14.91-9.2-.91,2.86L15.87,86.02c-.13-.04-.25-.06-.38-.06Z"/>
  <path class="cls-1" d="m140.49,48.22l-2.77,17.3h0l2.99-.26,5.54,64.06c.06.65.6,1.14,1.24,1.14.04,0,.07,0,.11,0,.69-.06,1.2-.67,1.14-1.35l-5.54-64.06,2.99-.26-5.7-16.57Z"/>
  <path class="cls-1" d="m221.08,33.24l.39,2.97h0l-81.15,10.76c-.68.09-1.17.72-1.07,1.4.08.63.62,1.09,1.24,1.09.05,0,.11,0,.17-.01l81.15-10.76.39,2.97,16.29-6.45-17.41-1.98Z"/>
  <path class="cls-1" d="m140.49,46.97c-.34,0-.68.14-.93.41-.46.51-.42,1.3.09,1.77l77.36,69.63h0l-2.01,2.23,15.48,8.21-9.79-14.53-2.01,2.23h0l-77.36-69.63c-.24-.21-.54-.32-.84-.32Z"/>
  <path class="cls-1" d="m213.49,124.97v3h-66c-.69,0-1.25.56-1.25,1.25s.56,1.25,1.25,1.25h66v3l17-4.25-17-4.25Z"/>
  <path class="cls-1" d="m238.49,33.97c-.23,0-.46.06-.66.19-.59.37-.76,1.14-.4,1.72l30.99,49.58-2.54,1.59,12.61,12.16-5.41-16.67-2.54,1.59-30.99-49.58c-.24-.38-.64-.59-1.06-.59Z"/>
  <path class="cls-1" d="m140.49,46.97c-.51,0-.99.31-1.17.82-.24.65.09,1.37.74,1.61l122.05,45.11h0l-1.04,2.81,17.42,1.91-14.47-9.88-1.04,2.81h0l-122.05-45.11c-.14-.05-.29-.08-.43-.08Z"/>
  <path class="cls-1" d="m316.4,29.32l.06,3-78,1.64c-.69.01-1.24.59-1.22,1.28.01.68.57,1.22,1.25,1.22,0,0,.02,0,.03,0l78-1.64.06,3,16.91-4.61-17.09-3.89Z"/>
  <path class="cls-1" d="m333.49,31.97c-.42,0-.83.21-1.07.6-.36.59-.18,1.36.41,1.72l63.52,39.09-1.57,2.55,16.71,5.29-12.25-12.53-1.57,2.55h0l-63.52-39.09c-.2-.13-.43-.19-.65-.19Z"/>
  <path class="cls-1" d="m230.49,127.97c-.57,0-1.08.39-1.22.96-.16.67.26,1.34.93,1.5l68.45,16.11-.69,2.92,17.52-.24-15.57-8.03-.69,2.92-68.45-16.11c-.1-.02-.19-.03-.29-.03Z"/>
  <path class="cls-1" d="m278.49,99.22l6.7,16.19,2.41-1.78,26.89,36.33c.25.33.62.51,1.01.51.26,0,.52-.08.74-.25.55-.41.67-1.19.26-1.75l-26.89-36.33h0l2.41-1.78-13.53-11.14Z"/>
  <path class="cls-1" d="m428.31,139.75l.14,3-113.02,5.22c-.69.03-1.22.62-1.19,1.31.03.67.58,1.19,1.25,1.19.02,0,.04,0,.06,0l113.02-5.22.14,3,16.79-5.03-17.18-3.46Z"/>
  <path class="cls-1" d="m411.49,79.97c-.2,0-.41.05-.6.15-.61.33-.83,1.09-.49,1.7l25.83,47.09-2.63,1.44,11.9,12.86-4.45-16.95-2.63,1.44-25.83-47.09c-.23-.41-.66-.65-1.1-.65Z"/>
  <path class="cls-1" d="m278.49,97.97c-.64,0-1.19.49-1.24,1.14-.06.69.45,1.29,1.14,1.35l54.06,4.57-.25,2.99,17.3-2.8-16.58-5.67-.25,2.99-54.06-4.57s-.07,0-.11,0Z"/>
  <path class="cls-1" d="m333.49,31.97c-.09,0-.18,0-.27.03-.67.15-1.1.82-.95,1.49l12.31,55.4h0l-2.93.65,7.84,15.67.46-17.52h0l-2.93.65h0l-12.31-55.4c-.13-.58-.65-.98-1.22-.98Z"/>
  <path class="cls-1" d="m349.49,105.22l14.24,10.21,1.1-2.79,80.19,31.74c.15.06.31.09.46.09.5,0,.97-.3,1.16-.79.25-.64-.06-1.37-.7-1.62l-80.19-31.74,1.1-2.79-17.37-2.31Z"/>
  <path class="cls-1" d="m140.49,48.22l-17.49,1.01.89,2.86L15.12,86.02c-.66.21-1.03.91-.82,1.57.17.54.66.88,1.19.88.12,0,.25-.02.37-.06l108.77-33.94.89,2.86,14.96-9.12Z"/>
  <path class="cls-7" d="m20.49,87.22c0,2.76-2.24,5-5,5s-5-2.24-5-5,2.24-5,5-5,5,2.24,5,5Z"/>
  <path class="cls-8" d="m20.49,87.22c0,2.76-2.24,5-5,5s-5-2.24-5-5,2.24-5,5-5,5,2.24,5,5Z"/>
  <text class="cls-4" transform="translate(19.49 77.22)"><tspan x="0" y="0">A</tspan></text>
  <path class="cls-6" d="m152.49,129.22c0,2.76-2.24,5-5,5s-5-2.24-5-5,2.24-5,5-5,5,2.24,5,5Z"/>
  <path class="cls-8" d="m152.49,129.22c0,2.76-2.24,5-5,5s-5-2.24-5-5,2.24-5,5-5,5,2.24,5,5Z"/>
  <text class="cls-3" transform="translate(151.49 119.22)"><tspan x="0" y="0">B</tspan></text>
  <path class="cls-6" d="m235.49,129.22c0,2.76-2.24,5-5,5s-5-2.24-5-5,2.24-5,5-5,5,2.24,5,5Z"/>
  <path class="cls-8" d="m235.49,129.22c0,2.76-2.24,5-5,5s-5-2.24-5-5,2.24-5,5-5,5,2.24,5,5Z"/>
  <text class="cls-3" transform="translate(234.49 119.22)"><tspan x="0" y="0">C</tspan></text>
  <path class="cls-6" d="m450.49,143.22c0,2.76-2.24,5-5,5s-5-2.24-5-5,2.24-5,5-5,5,2.24,5,5Z"/>
  <path class="cls-8" d="m450.49,143.22c0,2.76-2.24,5-5,5s-5-2.24-5-5,2.24-5,5-5,5,2.24,5,5Z"/>
  <text class="cls-3" transform="translate(449.49 133.22)"><tspan x="0" y="0">D</tspan></text>
  <path class="cls-6" d="m338.49,33.22c0,2.76-2.24,5-5,5s-5-2.24-5-5,2.24-5,5-5,5,2.24,5,5Z"/>
  <path class="cls-8" d="m338.49,33.22c0,2.76-2.24,5-5,5s-5-2.24-5-5,2.24-5,5-5,5,2.24,5,5Z"/>
  <text class="cls-3" transform="translate(337.49 23.22)"><tspan x="0" y="0">E</tspan></text>
  <path class="cls-6" d="m243.49,35.22c0,2.76-2.24,5-5,5s-5-2.24-5-5,2.24-5,5-5,5,2.24,5,5Z"/>
  <path class="cls-8" d="m243.49,35.22c0,2.76-2.24,5-5,5s-5-2.24-5-5,2.24-5,5-5,5,2.24,5,5Z"/>
  <text class="cls-3" transform="translate(242.49 25.22)"><tspan x="0" y="0">F</tspan></text>
  <path class="cls-6" d="m283.49,99.22c0,2.76-2.24,5-5,5s-5-2.24-5-5,2.24-5,5-5,5,2.24,5,5Z"/>
  <path class="cls-8" d="m283.49,99.22c0,2.76-2.24,5-5,5s-5-2.24-5-5,2.24-5,5-5,5,2.24,5,5Z"/>
  <text class="cls-3" transform="translate(282.49 89.22)"><tspan x="0" y="0">G</tspan></text>
  <path class="cls-6" d="m320.49,149.22c0,2.76-2.24,5-5,5s-5-2.24-5-5,2.24-5,5-5,5,2.24,5,5Z"/>
  <path class="cls-8" d="m320.49,149.22c0,2.76-2.24,5-5,5s-5-2.24-5-5,2.24-5,5-5,5,2.24,5,5Z"/>
  <text class="cls-3" transform="translate(319.49 139.22)"><tspan x="0" y="0">H</tspan></text>
  <path class="cls-6" d="m145.49,48.22c0,2.76-2.24,5-5,5s-5-2.24-5-5,2.24-5,5-5,5,2.24,5,5Z"/>
  <path class="cls-8" d="m145.49,48.22c0,2.76-2.24,5-5,5s-5-2.24-5-5,2.24-5,5-5,5,2.24,5,5Z"/>
  <text class="cls-3" transform="translate(144.49 38.22)"><tspan x="0" y="0">I</tspan></text>
  <path class="cls-6" d="m416.49,81.22c0,2.76-2.24,5-5,5s-5-2.24-5-5,2.24-5,5-5,5,2.24,5,5Z"/>
  <path class="cls-8" d="m416.49,81.22c0,2.76-2.24,5-5,5s-5-2.24-5-5,2.24-5,5-5,5,2.24,5,5Z"/>
  <text class="cls-3" transform="translate(415.49 71.22)"><tspan x="0" y="0">J</tspan></text>
  <path class="cls-5" d="m354.49,105.22c0,2.76-2.24,5-5,5s-5-2.24-5-5,2.24-5,5-5,5,2.24,5,5Z"/>
  <path class="cls-8" d="m354.49,105.22c0,2.76-2.24,5-5,5s-5-2.24-5-5,2.24-5,5-5,5,2.24,5,5Z"/>
  <text class="cls-2" transform="translate(353.49 95.22)"><tspan x="0" y="0">K</tspan></text>
</svg>