<svg xmlns="http://www.w3.org/2000/svg" xmlns:xlink="http://www.w3.org/1999/xlink" width="600" height="600" viewBox="0 0 137.35 136.602"><style><![CDATA[.B{fill:rgb(0%,0%,0%)}.C{stroke-miterlimit:10}.D{overflow:visible}.E{stroke:none}.F{stroke-width:.3985}.G{fill:rgb(50%,50%,50%)}.H{stroke:rgb(0%,0%,0%)}.I{stroke:rgb(0%,62.353516%,95.684814%)}.J{fill:rgb(0%,62.353516%,95.684814%)}]]></style><defs><symbol id="A" class="D"><path d="M3.875-3.03125c.03125-.109375.03125-.125.03125-.1875 0-.140625-.109375-.21875-.234375-.21875-.078125 0-.203125.046875-.28125.171875-.015625.03125-.078125.28125-.109375.421875l-.15625.640625-.359375 1.4375c-.03125.125-.375.671875-.90625.671875-.40625 0-.484375-.34375-.484375-.640625 0-.359375.125-.859375.40625-1.5625.125-.328125.15625-.40625.15625-.578125 0-.359375-.25-.640625-.65625-.640625-.75 0-1.046875 1.15625-1.046875 1.21875 0 .078125.078125.078125.09375.078125.078125 0 .09375-.015625.125-.140625.21875-.75.53125-.984375.8125-.984375.0625 0 .1875 0 .1875.25 0 .203125-.078125.40625-.125.5625C1-1.6875.859375-1.234375.859375-.859375c0 .703125.5.953125.96875.953125.3125 0 .59375-.140625.8125-.359375C2.53125.140625 2.4375.53125 2.125.953125c-.21875.28125-.515625.5-.875.5-.125 0-.484375-.015625-.609375-.328125.125 0 .234375 0 .34375-.09375.078125-.078125.15625-.171875.15625-.328125 0-.25-.21875-.28125-.296875-.28125-.1875 0-.453125.125-.453125.515625 0 .40625.359375.703125.859375.703125.8125 0 1.640625-.734375 1.859375-1.625zm0 0" class="E"/></symbol><symbol id="B" class="D"><path d="M2.65625-2.40625c.046875-.203125.234375-.9375.796875-.9375.03125 0 .234375 0 .390625.09375-.21875.046875-.375.25-.375.4375 0 .125.078125.28125.296875.28125.171875 0 .4375-.140625.4375-.46875 0-.40625-.46875-.515625-.75-.515625-.453125 0-.734375.421875-.828125.59375-.203125-.515625-.640625-.59375-.859375-.59375C.9375-3.515625.484375-2.5.484375-2.296875c0 .078125.078125.078125.09375.078125.0625 0 .078125-.015625.09375-.078125C.953125-3.140625 1.46875-3.34375 1.75-3.34375c.140625 0 .421875.0625.421875.53125 0 .25-.125.78125-.421875 1.890625-.125.5-.40625.828125-.765625.828125-.046875 0-.234375 0-.390625-.09375.1875-.046875.375-.203125.375-.4375 0-.21875-.1875-.28125-.296875-.28125-.234375 0-.4375.21875-.4375.46875 0 .359375.390625.53125.75.53125.515625 0 .8125-.5625.828125-.609375.09375.296875.390625.609375.859375.609375.828125 0 1.28125-1.03125 1.28125-1.234375 0-.078125-.078125-.078125-.09375-.078125-.078125 0-.09375.03125-.109375.09375-.265625.84375-.796875 1.03125-1.0625 1.03125-.3125 0-.4375-.25-.4375-.515625 0-.171875.046875-.359375.140625-.703125zm0 0" class="E"/></symbol><symbol id="C" class="D"><path d="M3.671875-2.546875c0-.640625-.046875-1.28125-.328125-1.875-.359375-.75-1.015625-.890625-1.359375-.890625-.46875 0-1.046875.21875-1.375.953125C.34375-3.8125.3125-3.1875.3125-2.546875c0 .59375.03125 1.3125.359375 1.921875.34375.640625.921875.796875 1.3125.796875.4375 0 1.03125-.15625 1.390625-.921875.25-.546875.296875-1.171875.296875-1.796875zM1.984375 0c-.3125 0-.78125-.203125-.921875-.96875C.96875-1.4375.96875-2.171875.96875-2.640625l.0625-1.46875c.15625-.953125.75-1.015625.953125-1.015625.265625 0 .78125.140625.9375.921875C3-3.75 3-3.140625 3-2.640625L2.921875-1c-.125.765625-.578125 1-.9375 1zm0 0" class="E"/></symbol><symbol id="D" class="D"><path d="M2.34375-5.09375c0-.203125 0-.21875-.1875-.21875-.484375.515625-1.1875.515625-1.453125.515625v.25c.171875 0 .640625 0 1.046875-.203125v4.125c0 .28125-.015625.375-.734375.375H.75V0c.28125-.03125.984375-.03125 1.296875-.03125L3.34375 0v-.25h-.265625c-.71875 0-.734375-.078125-.734375-.375zm0 0" class="E"/></symbol><symbol id="E" class="D"><path d="M1.015625-.609375l.84375-.828125c1.234375-1.09375 1.71875-1.53125 1.71875-2.328125 0-.90625-.71875-1.546875-1.6875-1.546875-.90625 0-1.5.734375-1.5 1.453125 0 .4375.40625.4375.4375.4375.125 0 .40625-.09375.40625-.421875 0-.203125-.140625-.40625-.421875-.40625H.703125c.1875-.515625.625-.8125 1.078125-.8125.734375 0 1.078125.640625 1.078125 1.296875C2.859375-3.125 2.453125-2.5 2.015625-2L.484375-.296875C.390625-.203125.390625-.1875.390625 0h2.96875l.21875-1.390625H3.375c-.03125.25-.09375.59375-.171875.71875-.0625.0625-.578125.0625-.75.0625zm0 0" class="E"/></symbol></defs><g fill="none" class="F C"><path d="M16.04296875 120.32421875h0m42.51953125 0V77.804687H16.04296875m42.51953125 0V35.285156H16.04296875m85.03906225 85.03906275V77.804687H58.5625" stroke="rgb(50%,50%,50%)" stroke-dasharray="2.98883,2.98883"/><path d="M16.04296875 127.414062V11.523437" class="H"/></g><g class="B"><path d="M3.759901-.00096875C3.298964.112312 1.267714.752937-.0018175 1.44825v-2.894531C1.267714-.750969 3.298964-.11425 3.759901-.00096875zm0 0" transform="matrix(0 -1 -1 0 16.042 11.52162)" class="C F H"/><use xlink:href="#A" x="7.638" y="11.069"/></g><g class="C F H"><path d="M8.957031 120.32421875h115.890625" fill="none"/><path d="M128.609375 120.32421875c-.464844-.10937475-2.492187-.74999975-3.76171875-1.44531275v2.894531c1.26953175-.695312 3.29687475-1.335937 3.76171875-1.44921825zm0 0" class="B"/></g><use xlink:href="#B" x="125.158" y="128.964" class="B"/><path d="M16.04296875 120.32421875L58.5625 77.804687m0-42.519531l42.519531 42.519531" fill="none" stroke-width=".79701" class="C I"/><path d="M17.785156 120.324219c0-.960938-.78125-1.742188-1.742187-1.742188s-1.746094.78125-1.746094 1.742188.78125 1.746094 1.746094 1.746094 1.742187-.78125 1.742187-1.746094zm0 0" class="J"/><path d="M60.304687 77.804687c0-.960937-.78125-1.742187-1.742187-1.742187s-1.742188.78125-1.742188 1.742187.777344 1.746094 1.742188 1.746094 1.742187-.78125 1.742187-1.746094zm0 0" fill="rgb(100%,100%,100%)" class="C F I"/><path d="M60.304688 35.285156c0-.960937-.78125-1.742187-1.742188-1.742187s-1.742187.78125-1.742187 1.742187.777343 1.742188 1.742187 1.742188 1.742188-.777344 1.742188-1.742188zm42.519531 42.519532c0-.960938-.777344-1.742188-1.742188-1.742188s-1.742187.78125-1.742187 1.742188.78125 1.746093 1.742187 1.746093 1.742188-.78125 1.742188-1.746093zm0 0" class="J"/><use xlink:href="#C" x="9.241" y="128.278" class="B"/><path d="M59.558594 120.324219c0-.546875-.445313-.996094-.996094-.996094s-.996094.449219-.996094.996094.445313 1 .996094 1 .996094-.449219.996094-1zm0 0" class="G"/><use xlink:href="#D" x="56.569" y="128.278" class="B"/><path d="M102.078125 120.324219c0-.546875-.445312-.996094-.996094-.996094s-.996093.449219-.996093.996094.445312 1 .996093 1 .996094-.449219.996094-1zm0 0" class="G"/><use xlink:href="#E" x="99.089" y="128.278" class="B"/><path d="M17.039063 77.804688c0-.550782-.445313-.996094-.996094-.996094s-.996094.445312-.996094.996094.445313.996093.996094.996093.996094-.445312.996094-.996093zm0 0" class="G"/><use xlink:href="#D" x="9.241" y="80.374" class="B"/><path d="M17.039063 35.285156c0-.550781-.445313-.996093-.996094-.996093s-.996094.445312-.996094.996093.445313.996094.996094.996094.996094-.445312.996094-.996094zm0 0" class="G"/><use xlink:href="#E" x="9.241" y="37.855" class="B"/></svg>