<svg xmlns="http://www.w3.org/2000/svg" xmlns:xlink="http://www.w3.org/1999/xlink" width="800" height="321" viewBox="0 0 322.571 94.737"><style><![CDATA[.B{fill:rgb(0%,0%,0%)}.C{overflow:visible}.D{stroke:none}.E{stroke-miterlimit:10}.F{fill:none}.G{stroke-width:.399}.H{stroke:rgb(0%,0%,0%)}.I{stroke-linecap:round}.J{stroke-linejoin:round}.K{stroke:rgb(0%,62.353516%,95.684814%)}.L{fill:rgb(0%,62.353516%,95.684814%)}]]></style><defs><symbol id="A" class="C"><path d="M4.578-3.187c0-.797-.047-1.594-.391-2.328-.453-.969-1.281-1.125-1.687-1.125-.609 0-1.328.266-1.75 1.188-.312.688-.359 1.469-.359 2.266 0 .75.031 1.641.453 2.406a1.83 1.83 0 0 0 1.641 1c.531 0 1.297-.203 1.734-1.156.313-.687.359-1.469.359-2.25zM2.484 0C2.094 0 1.5-.25 1.328-1.203c-.109-.594-.109-1.516-.109-2.109l.078-1.828c.188-1.187.938-1.281 1.188-1.281.328 0 .984.188 1.172 1.172.109.563.109 1.313.109 1.938 0 .75 0 1.422-.109 2.063C3.5-.297 2.938 0 2.484 0zm0 0" class="D"/></symbol><symbol id="B" class="C"><path d="M1.266-.766l1.063-1.031c1.547-1.375 2.141-1.906 2.141-2.906 0-1.141-.891-1.937-2.109-1.937C1.234-6.641.5-5.719.5-4.828c0 .547.5.547.531.547.172 0 .516-.109.516-.531a.51.51 0 0 0-.531-.516c-.078 0-.094 0-.125.016.219-.656.766-1.016 1.344-1.016.906 0 1.328.813 1.328 1.625 0 .797-.484 1.578-1.047 2.203L.609-.375C.5-.266.5-.234.5 0h3.703l.266-1.734h-.234C4.172-1.437 4.109-1 4-.844c-.062.078-.719.078-.937.078zm0 0" class="D"/></symbol><symbol id="C" class="C"><path d="M4.469-2c0-1.187-.812-2.187-1.891-2.187-.469 0-.906.156-1.266.516v-1.953c.203.063.531.125.844.125 1.234 0 1.938-.906 1.938-1.031 0-.062-.031-.109-.109-.109 0 0-.031 0-.078.031a3.22 3.22 0 0 1-1.359.297c-.391 0-.859-.078-1.328-.281-.078-.031-.094-.031-.109-.031C1-6.625 1-6.547 1-6.391v2.953c0 .172 0 .25.141.25.078 0 .094-.016.141-.078.109-.156.469-.703 1.281-.703.516 0 .766.453.844.641.156.375.188.75.188 1.25 0 .359 0 .953-.25 1.375-.234.391-.609.641-1.062.641-.719 0-1.297-.531-1.469-1.109.031 0 .063.016.172.016a.48.48 0 0 0 .5-.484c0-.25-.172-.5-.5-.5-.141 0-.484.078-.484.531C.5-.75 1.188.219 2.297.219 3.453.219 4.469-.734 4.469-2zm0 0" class="D"/></symbol><symbol id="D" class="C"><path d="M2.938-1.641v.859c0 .359-.031.469-.766.469h-.203V0c.406-.031.922-.031 1.344-.031L4.672 0v-.312h-.219c-.734 0-.75-.109-.75-.469v-.859h.984v-.312h-.984v-4.531c0-.203 0-.266-.172-.266-.078 0-.109 0-.187.125L.281-1.953v.313zm.047-.312H.563l2.422-3.719zm0 0" class="D"/></symbol><symbol id="E" class="C"><path d="M2.891-3.516c.813-.266 1.391-.953 1.391-1.75 0-.812-.875-1.375-1.828-1.375-1 0-1.766.594-1.766 1.359a.48.48 0 0 0 .516.516c.297 0 .5-.219.5-.516 0-.484-.469-.484-.609-.484.297-.5.953-.625 1.313-.625.422 0 .969.219.969 1.109 0 .125-.031.703-.281 1.141a.93.93 0 0 1-.891.516 3.29 3.29 0 0 1-.391.031c-.078.016-.141.031-.141.125 0 .109.063.109.234.109h.438c.813 0 1.188.672 1.188 1.656 0 1.359-.687 1.641-1.125 1.641S1.219-.234.875-.812c.344.047.656-.172.656-.547 0-.359-.266-.562-.547-.562a.53.53 0 0 0-.562.578c0 .906.922 1.563 2.016 1.563 1.219 0 2.125-.906 2.125-1.922 0-.812-.641-1.594-1.672-1.812zm0 0" class="D"/></symbol><symbol id="F" class="C"><path d="M6.563-2.297c.172 0 .359 0 .359-.203 0-.187-.187-.187-.359-.187H1.172c-.172 0-.344 0-.344.188 0 .203.172.203.344.203zm0 0" class="D"/></symbol><symbol id="G" class="C"><path d="M3.578-1.609c0-.937-.656-1.734-1.516-1.734a1.43 1.43 0 0 0-1.016.406V-4.5c.172.047.422.109.688.109.969 0 1.531-.719 1.531-.828 0-.047-.016-.094-.078-.094-.016 0-.031 0-.062.031-.156.063-.547.234-1.078.234-.328 0-.687-.062-1.062-.234-.062-.016-.078-.016-.094-.016-.078 0-.078.063-.078.188v2.359c0 .141 0 .203.109.203.047 0 .063-.016.094-.062.094-.125.391-.562 1.031-.562.422 0 .609.359.672.516.141.297.156.594.156 1 0 .281 0 .75-.203 1.094-.187.313-.484.516-.844.516C1.25-.047.781-.469.656-.937c.016 0 .047.016.125.016a.39.39 0 0 0 .406-.391.39.39 0 0 0-.406-.391c-.109 0-.391.047-.391.422C.391-.594.953.172 1.844.172c.922 0 1.734-.766 1.734-1.781zm0 0" class="D"/></symbol><symbol id="H" class="C"><path d="M1.016-.609l.844-.828c1.234-1.094 1.719-1.531 1.719-2.328 0-.906-.719-1.547-1.687-1.547a1.48 1.48 0 0 0-1.5 1.453c0 .438.406.438.438.438a.41.41 0 0 0 .406-.422c0-.203-.141-.406-.422-.406H.703c.188-.516.625-.812 1.078-.812.734 0 1.078.641 1.078 1.297 0 .641-.406 1.266-.844 1.766L.484-.297C.391-.203.391-.187.391 0h2.969l.219-1.391h-.203c-.031.25-.094.594-.172.719-.062.063-.578.063-.75.063zm0 0" class="D"/></symbol><symbol id="I" class="C"><path d="M2.641 1.906c0-.016 0-.031-.141-.172-1-1-1.25-2.5-1.25-3.719 0-1.391.297-2.781 1.281-3.781.109-.094.109-.109.109-.125 0-.062-.031-.078-.078-.078-.078 0-.797.531-1.266 1.547-.406.875-.516 1.766-.516 2.438 0 .609.094 1.578.531 2.484.484.969 1.172 1.484 1.25 1.484.047 0 .078-.016.078-.078zm0 0" class="D"/></symbol><symbol id="J" class="C"><path d="M2.344-1.312v.688c0 .297-.016.375-.609.375h-.172V0c.328-.031.75-.031 1.078-.031L3.734 0v-.25h-.172c-.594 0-.609-.078-.609-.375v-.687h.797v-.25h-.797v-3.625c0-.156 0-.203-.125-.203-.078 0-.094 0-.156.094L.219-1.562v.25zm.047-.25H.453l1.938-2.969zm0 0" class="D"/></symbol><symbol id="K" class="C"><path d="M2.297-1.984c0-.625-.078-1.594-.516-2.5C1.297-5.453.609-5.969.531-5.969c-.047 0-.078.031-.078.078 0 .016 0 .031.156.172.781.797 1.234 2.063 1.234 3.734 0 1.359-.297 2.75-1.281 3.766-.109.094-.109.109-.109.125 0 .047.031.078.078.078.078 0 .797-.531 1.266-1.547.406-.875.5-1.766.5-2.422zm0 0" class="D"/></symbol><symbol id="L" class="C"><path d="M5.25-1.828c.141 0 .281 0 .281-.156 0-.172-.141-.172-.281-.172H.938c-.125 0-.281 0-.281.172 0 .156.156.156.281.156zm0 0" class="D"/></symbol><path id="M" d="M206.793 70.684c0-1.652-1.336-2.988-2.988-2.988a2.99 2.99 0 0 0-2.988 2.988 2.99 2.99 0 0 0 2.988 2.988 2.99 2.99 0 0 0 2.988-2.988zm0 0"/><path id="N" d="M291.836 70.684a2.99 2.99 0 1 0-5.98 0c0 1.648 1.34 2.988 2.992 2.988a2.99 2.99 0 0 0 2.988-2.988zm0 0"/><path id="O" d="M149.383 48.98c-.379-1.437-1.223-2.113-2.07-2.391.848-.281 1.691-.957 2.07-2.395"/><path id="P" d="M149.383 20.633c-.379-1.434-1.223-2.113-2.07-2.391.848-.281 1.691-.957 2.07-2.391"/><path id="Q" d="M286.574 15.852c.379 1.434 1.223 2.109 2.074 2.391-.852.277-1.695.957-2.074 2.391"/><path id="R" d="M206.078 48.98c-.379-1.437-1.223-2.113-2.074-2.391.852-.281 1.695-.957 2.074-2.395"/><path id="S" d="M286.574 44.195c.379 1.438 1.223 2.113 2.074 2.395-.852.277-1.695.953-2.074 2.391"/></defs><g class="F E H"><g stroke-width=".797"><path d="M5.379 70.684h311.016"/><path d="M314.242 67.57c.469 1.867 1.508 2.75 2.551 3.113-1.043.363-2.082 1.242-2.551 3.109" class="I J"/></g><path d="M147.113 66.43v8.504" class="G"/></g><use xlink:href="#A" x="144.621" y="85.605" class="B"/><g class="E G H"><path d="M147.113 70.684V13.988" class="F"/><use xlink:href="#M" class="B"/></g><use xlink:href="#B" x="201.314" y="85.605" class="B"/><g class="E G H"><path d="M203.805 70.684V42.336" class="F"/><use xlink:href="#N" class="B"/></g><use xlink:href="#C" x="286.354" y="85.605" class="B"/><g class="E G H"><path d="M288.848 70.684V13.988" class="F"/><use xlink:href="#M" x="-113.387" class="B"/></g><use xlink:href="#F" x="84.054" y="85.605" class="B"/><use xlink:href="#B" x="91.803" y="85.605" class="B"/><g class="E G H"><path d="M90.418 70.684V42.336" class="F"/><use xlink:href="#N" x="-255.121" class="B"/></g><use xlink:href="#F" x="27.361" y="85.605" class="B"/><use xlink:href="#D" x="35.11" y="85.605" class="B"/><g class="E F G H"><path d="M33.727 70.684V13.988M147.512 46.59h55.895"/><g class="I J"><use xlink:href="#O"/><path d="M201.535 44.195c.379 1.438 1.223 2.113 2.07 2.395-.848.277-1.691.953-2.07 2.391"/></g></g><use xlink:href="#B" x="172.968" y="43.069" class="B"/><g class="E F G H"><path d="M147.512 18.242h140.937"/><g class="I J"><use xlink:href="#P"/><use xlink:href="#Q"/></g></g><use xlink:href="#C" x="215.487" y="14.723" class="B"/><g class="E F G K"><path d="M204.203 46.59h84.246"/><g class="I J"><use xlink:href="#R"/><use xlink:href="#S"/></g></g><g class="L"><use xlink:href="#E" x="243.834" y="43.069"/><use xlink:href="#G" x="237.469" y="54.541"/><use xlink:href="#L" x="243.225" y="54.541"/><use xlink:href="#H" x="251.195" y="54.541"/></g><g class="E F G H"><path d="M146.715 46.59H90.816"/><g class="I J"><use xlink:href="#S" x="-141.734"/><use xlink:href="#R" x="-113.387"/></g></g><use xlink:href="#B" x="116.275" y="43.069" class="B"/><g class="E F G H"><path d="M146.715 18.242H34.125"/><g class="I J"><use xlink:href="#Q" x="-141.734"/><use xlink:href="#P" x="-113.387"/></g></g><use xlink:href="#D" x="87.928" y="14.723" class="B"/><g class="E F G K"><path d="M90.02 46.59H34.125"/><g class="I J"><path d="M88.148 44.195c.379 1.438 1.219 2.113 2.07 2.395-.852.277-1.691.953-2.07 2.391"/><use xlink:href="#O" x="-113.387"/></g></g><g class="L"><use xlink:href="#B" x="59.582" y="43.069"/><use xlink:href="#L" x="43.918" y="55.382"/><use xlink:href="#H" x="50.117" y="55.382"/><use xlink:href="#L" x="55.873" y="55.382"/><use xlink:href="#I" x="63.844" y="55.382"/><use xlink:href="#L" x="66.943" y="55.382"/><use xlink:href="#J" x="73.142" y="55.382"/><use xlink:href="#K" x="77.127" y="55.382"/></g></svg>