<?xml version="1.0" encoding="UTF-8" standalone="no"?>
<svg xmlns="http://www.w3.org/2000/svg" version="1.2" baseProfile="tiny" viewBox="0.00 0.00 434.00 434.00" width="434.00" height="434.00">
<g stroke-width="2.00" fill="none" stroke-linecap="butt">
<path stroke="#89898b" vector-effect="non-scaling-stroke" d="
  M 404.81 216.88
  C 404.81 112.95 320.55 28.69 216.62 28.69
  C 112.69 28.69 28.43 112.95 28.43 216.88
  C 28.43 320.81 112.69 405.07 216.62 405.07
  C 320.55 405.07 404.81 320.81 404.81 216.88"
/>
<path stroke="#89898b" vector-effect="non-scaling-stroke" d="
  M 225.26 75.89
  C 224.87 75.89 224.67 75.42 224.95 75.15
  C 229.53 70.67 236.83 64.84 239.42 58.94
  C 242.55 51.81 237.19 45.54 230.00 44.78
  C 222.90 44.04 216.07 47.81 215.75 55.42
  C 215.73 55.73 215.97 55.98 216.28 55.99
  L 221.02 56.00
  C 221.44 56.00 221.67 55.79 221.70 55.38
  C 222.70 44.71 241.59 50.42 230.65 61.90
  C 226.30 66.47 221.89 70.98 217.41 75.43
  C 215.80 77.02 215.87 78.48 216.06 80.57
  C 216.10 80.96 216.31 81.16 216.70 81.16
  L 240.22 81.12
  C 240.55 81.12 240.81 80.86 240.81 80.53
  L 240.79 76.48
  C 240.78 76.03 240.56 75.81 240.11 75.81
  L 225.26 75.89"
/>
<path stroke="#89898b" vector-effect="non-scaling-stroke" d="
  M 200.37 51.97
  C 200.67 51.77 201.07 51.98 201.07 52.33
  L 201.04 80.76
  C 201.04 81.00 201.24 81.20 201.48 81.20
  L 207.05 81.16
  C 207.29 81.16 207.49 80.96 207.49 80.72
  L 207.48 45.93
  C 207.48 45.69 207.28 45.49 207.04 45.49
  L 201.24 45.50
  C 201.15 45.50 201.06 45.53 200.99 45.58
  L 191.95 51.98
  C 191.83 52.06 191.76 52.20 191.76 52.34
  L 191.79 57.23
  C 191.79 57.59 192.19 57.80 192.48 57.59
  L 200.37 51.97"
/>
<path stroke="#89898b" vector-effect="non-scaling-stroke" d="
  M 127.65 75.23
  C 127.91 75.04 128.27 75.23 128.27 75.55
  L 128.25 104.00
  C 128.25 104.22 128.42 104.39 128.64 104.39
  L 134.31 104.47
  C 134.53 104.47 134.71 104.29 134.71 104.07
  L 134.65 69.15
  C 134.65 68.93 134.48 68.76 134.26 68.76
  L 128.45 68.76
  C 128.37 68.76 128.29 68.78 128.23 68.83
  L 119.16 75.21
  C 119.05 75.29 118.99 75.41 118.99 75.53
  L 118.99 80.62
  C 118.99 80.94 119.35 81.13 119.61 80.94
  L 127.65 75.23"
/>
<path stroke="#89898b" vector-effect="non-scaling-stroke" d="
  M 143.14 80.43
  C 143.13 80.83 143.59 81.07 143.92 80.83
  L 151.68 75.19
  C 152.01 74.96 152.46 75.19 152.46 75.59
  L 152.44 103.91
  C 152.44 104.18 152.66 104.40 152.93 104.40
  L 158.29 104.45
  C 158.56 104.45 158.78 104.23 158.78 103.96
  L 158.76 69.28
  C 158.76 69.01 158.54 68.79 158.27 68.79
  L 152.66 68.76
  C 152.55 68.76 152.46 68.79 152.37 68.85
  L 143.39 75.14
  C 143.26 75.23 143.18 75.37 143.18 75.53
  L 143.14 80.43"
/>
<path stroke="#89898b" vector-effect="non-scaling-stroke" d="
  M 296.36 75.51
  L 296.29 103.48
  C 296.29 104.11 296.60 104.43 297.23 104.43
  L 301.81 104.43
  C 302.42 104.43 302.72 104.12 302.72 103.51
  L 302.69 69.62
  C 302.69 69.19 302.48 68.94 302.06 68.87
  C 299.02 68.35 296.67 68.44 294.01 70.40
  C 292.02 71.85 290.14 73.19 288.35 74.41
  C 287.51 74.97 287.01 75.92 287.01 76.93
  L 287.00 79.93
  C 286.99 80.92 287.39 81.12 288.20 80.55
  L 295.68 75.16
  C 296.13 74.83 296.36 74.94 296.36 75.51"
/>
<path stroke="#fac67f" vector-effect="non-scaling-stroke" d="
  M 219.90 206.67
  L 219.84 192.69
  C 219.83 192.24 219.61 192.02 219.17 192.02
  L 214.99 192.01
  C 214.52 192.00 214.29 192.23 214.28 192.70
  L 213.95 206.74"
/>
<path stroke="#89898b" vector-effect="non-scaling-stroke" d="
  M 213.95 206.74
  L 211.32 208.12
  C 211.03 208.28 210.68 208.26 210.41 208.06
  L 200.03 200.55
  C 199.77 200.36 199.62 200.04 199.64 199.72
  C 199.80 196.95 199.08 194.98 197.47 193.79
  C 180.52 181.30 163.54 168.84 146.54 156.41
  C 142.59 153.52 137.51 154.16 135.05 158.49
  C 132.58 162.86 135.09 166.41 138.85 169.15
  C 155.33 181.16 171.80 193.18 188.26 205.23
  C 190.15 206.62 192.44 206.83 195.13 205.87
  C 195.55 205.72 195.94 205.77 196.29 206.03
  L 206.30 213.39
  C 206.58 213.59 206.72 213.93 206.66 214.27
  C 205.67 220.41 208.01 224.73 213.68 227.23"
/>
<path stroke="#fac67f" vector-effect="non-scaling-stroke" d="
  M 213.68 227.23
  C 214.09 227.60 214.30 228.44 214.30 229.75
  C 214.38 270.24 214.34 310.74 214.19 351.23"
/>
<path stroke="#89898b" vector-effect="non-scaling-stroke" d="
  M 214.19 351.23
  C 202.69 354.50 201.08 368.43 203.86 378.27
  C 205.35 383.52 208.77 386.85 214.12 388.25"
/>
<path stroke="#fac67f" vector-effect="non-scaling-stroke" d="
  M 214.12 388.25
  L 214.26 392.71
  C 214.28 393.38 214.63 393.72 215.30 393.73
  L 218.95 393.77
  C 219.52 393.78 219.99 393.32 219.98 392.75
  L 219.96 388.15"
/>
<path stroke="#89898b" vector-effect="non-scaling-stroke" d="
  M 219.96 388.15
  C 233.41 385.24 233.97 366.00 219.85 364.27"
/>
<path stroke="#fac67f" vector-effect="non-scaling-stroke" d="
  M 219.85 364.27
  L 219.90 356.71"
/>
<path stroke="#89898b" vector-effect="non-scaling-stroke" d="
  M 219.90 356.71
  C 221.47 357.66 222.52 358.67 223.04 359.76
  C 223.29 360.28 223.70 360.55 224.27 360.56
  L 228.99 360.64
  C 229.42 360.65 229.73 360.22 229.59 359.81
  C 227.98 355.20 224.80 352.37 220.07 351.30"
/>
<path stroke="#fac67f" vector-effect="non-scaling-stroke" d="
  M 220.07 351.30
  C 220.02 351.29 219.95 351.17 219.86 350.94
  C 219.81 350.82 219.78 350.69 219.78 350.54
  C 219.73 313.47 220.38 276.24 219.57 239.19
  C 219.48 235.11 219.64 231.12 220.06 227.21"
/>
<path stroke="#89898b" vector-effect="non-scaling-stroke" d="
  M 220.06 227.21
  C 226.02 224.76 228.43 220.42 227.30 214.21
  C 227.24 213.86 227.35 213.58 227.64 213.37
  L 237.67 206.16
  C 237.94 205.97 238.23 205.91 238.54 206.00
  C 243.75 207.41 245.78 205.19 250.61 201.68
  C 280.60 179.91 310.58 158.13 340.54 136.32
  C 341.52 135.60 342.86 135.35 344.57 135.58
  C 344.89 135.62 345.19 135.40 345.25 135.08
  C 345.66 132.53 346.97 130.80 349.18 129.88
  C 356.36 126.89 360.12 135.09 355.40 140.16
  C 351.61 144.25 346.48 149.51 340.01 155.95
  C 339.78 156.19 339.66 156.47 339.67 156.80
  L 339.71 160.22
  C 339.71 160.55 339.88 160.72 340.22 160.72
  L 363.74 160.71
  C 364.20 160.71 364.43 160.48 364.44 160.01
  L 364.46 156.21
  C 364.47 155.80 364.13 155.46 363.71 155.46
  L 349.24 155.49
  C 348.14 155.49 347.99 155.11 348.79 154.36
  C 352.06 151.30 355.39 148.03 358.80 144.54
  C 365.24 137.95 366.44 128.53 356.38 124.77
  C 356.05 124.64 355.94 124.42 356.06 124.09
  C 357.82 119.12 355.67 114.36 350.48 113.38
  C 348.62 113.03 347.04 113.33 345.73 114.28
  C 309.88 140.43 273.96 166.49 237.99 192.47
  C 235.47 194.29 234.22 196.68 234.23 199.64
  C 234.23 200.06 234.03 200.46 233.69 200.70
  L 223.74 208.00
  C 223.43 208.23 223.11 208.25 222.76 208.08
  L 219.90 206.67"
/>
<path stroke="#8d5912" vector-effect="non-scaling-stroke" d="
  M 220.06 227.21
  C 219.63 226.46 219.49 225.62 219.63 224.67
  C 219.96 222.54 222.30 221.69 223.20 219.70
  C 224.81 216.12 223.29 213.37 220.36 211.07
  C 220.09 210.86 219.91 210.59 219.82 210.26
  C 219.50 209.08 219.53 207.88 219.90 206.67"
/>
<path stroke="#8d5912" vector-effect="non-scaling-stroke" d="
  M 220.07 351.30
  C 219.56 352.97 219.51 354.77 219.90 356.71"
/>
<path stroke="#8d5912" vector-effect="non-scaling-stroke" d="
  M 219.85 364.27
  C 219.59 366.17 219.62 367.96 219.94 369.65"
/>
<path stroke="#fac67f" vector-effect="non-scaling-stroke" d="
  M 219.94 369.65
  L 219.93 382.62"
/>
<path stroke="#8d5912" vector-effect="non-scaling-stroke" d="
  M 219.93 382.62
  C 219.58 384.44 219.59 386.28 219.96 388.15"
/>
<path stroke="#8d5912" vector-effect="non-scaling-stroke" d="
  M 214.12 388.25
  C 214.39 386.14 214.34 384.27 213.97 382.64"
/>
<path stroke="#fac67f" vector-effect="non-scaling-stroke" d="
  M 213.97 382.64
  L 214.01 369.50"
/>
<path stroke="#8d5912" vector-effect="non-scaling-stroke" d="
  M 214.01 369.50
  C 214.30 368.20 214.33 366.67 214.10 364.92"
/>
<path stroke="#fac67f" vector-effect="non-scaling-stroke" d="
  M 214.10 364.92
  L 214.14 357.64
  C 214.14 357.47 214.07 357.34 213.92 357.25
  C 213.85 357.21 213.78 357.16 213.70 357.11"
/>
<path stroke="#8d5912" vector-effect="non-scaling-stroke" d="
  M 213.70 357.11
  C 213.83 357.04 213.94 356.97 214.02 356.90
  C 214.11 356.82 214.16 356.71 214.17 356.56
  C 214.31 354.79 214.32 353.02 214.19 351.23"
/>
<path stroke="#8d5912" vector-effect="non-scaling-stroke" d="
  M 213.95 206.74
  C 214.49 207.82 214.55 209.01 214.12 210.31
  C 214.01 210.64 213.82 210.90 213.55 211.10
  C 209.94 213.80 208.78 219.08 212.28 221.97
  C 214.46 223.77 214.93 225.52 213.68 227.23"
/>
<path stroke="#89898b" vector-effect="non-scaling-stroke" d="
  M 219.93 382.62
  C 225.17 379.76 225.48 372.36 219.94 369.65"
/>
<path stroke="#89898b" vector-effect="non-scaling-stroke" d="
  M 213.70 357.11
  C 209.98 359.82 208.90 364.56 208.79 368.99
  C 208.78 369.34 209.24 369.48 209.42 369.18
  C 210.48 367.44 212.04 366.02 214.10 364.92"
/>
<path stroke="#89898b" vector-effect="non-scaling-stroke" d="
  M 214.01 369.50
  C 208.45 372.66 208.48 379.33 213.97 382.64"
/>
<path stroke="#89898b" vector-effect="non-scaling-stroke" d="
  M 100.87 161.97
  C 119.47 162.54 118.87 123.57 100.61 124.53
  C 87.27 125.23 85.82 141.81 88.48 151.75
  C 90.09 157.78 94.51 161.78 100.87 161.97"
/>
<path stroke="#89898b" vector-effect="non-scaling-stroke" d="
  M 71.99 132.04
  C 72.32 131.81 72.77 132.04 72.77 132.44
  L 72.77 160.68
  C 72.77 160.95 72.99 161.17 73.26 161.17
  L 78.75 161.17
  C 79.02 161.17 79.24 160.95 79.24 160.68
  L 79.25 126.00
  C 79.25 125.73 79.03 125.51 78.76 125.51
  L 73.02 125.49
  C 72.91 125.49 72.82 125.52 72.73 125.58
  L 63.70 131.95
  C 63.57 132.04 63.49 132.20 63.49 132.36
  L 63.52 137.15
  C 63.53 137.55 63.98 137.78 64.30 137.55
  L 71.99 132.04"
/>
<path stroke="#89898b" vector-effect="non-scaling-stroke" d="
  M 65.20 217.72
  C 65.60 217.10 65.81 217.16 65.82 217.90
  C 65.90 222.90 64.09 229.95 58.01 230.40
  C 55.73 230.56 52.97 229.46 51.88 227.28
  C 51.74 226.99 51.56 226.74 51.33 226.52
  C 51.05 226.25 50.65 226.10 50.12 226.09
  C 48.53 226.04 46.99 226.02 45.50 226.01
  C 45.23 226.01 45.03 226.25 45.09 226.51
  C 46.82 234.19 55.02 237.10 62.18 234.91
  C 73.77 231.37 74.19 210.65 67.77 202.83
  C 63.19 197.25 54.16 196.76 48.57 201.46
  C 42.38 206.66 43.41 217.66 50.46 221.15
  C 55.72 223.75 61.89 222.81 65.20 217.72"
/>
<path stroke="#89898b" vector-effect="non-scaling-stroke" d="
  M 379.44 215.83
  C 383.36 214.54 385.43 212.07 385.65 208.43
  C 386.44 195.47 362.82 194.79 361.15 208.10
  C 361.09 208.58 361.46 209.00 361.94 208.99
  L 366.01 208.97
  C 366.53 208.97 366.98 208.62 367.11 208.13
  C 368.22 203.95 373.38 202.27 377.04 204.16
  C 381.67 206.55 379.91 213.04 374.92 213.82
  C 373.08 214.11 371.38 214.18 369.83 214.03
  C 369.41 213.99 369.05 214.32 369.04 214.74
  L 368.98 218.00
  C 368.97 218.51 369.22 218.76 369.72 218.75
  C 373.49 218.71 378.09 218.43 380.04 222.08
  C 384.29 230.05 368.93 234.21 366.28 225.17
  C 366.21 224.92 366.04 224.79 365.78 224.79
  L 360.61 224.80
  C 360.45 224.80 360.33 224.93 360.35 225.09
  C 361.98 239.23 386.24 238.85 386.91 225.25
  C 387.20 219.48 383.97 218.07 379.43 216.40
  C 378.90 216.20 378.90 216.01 379.44 215.83"
/>
<path stroke="#89898b" vector-effect="non-scaling-stroke" d="
  M 88.96 291.51
  C 90.02 290.89 91.33 290.39 92.13 289.74
  C 95.89 286.70 96.18 280.42 92.16 277.32
  C 86.72 273.11 75.08 272.84 71.23 279.23
  C 68.24 284.19 70.70 289.95 75.96 291.37
  C 76.30 291.47 76.30 291.96 75.95 292.04
  C 71.32 293.14 68.26 297.14 68.62 301.87
  C 69.44 312.53 87.61 313.58 93.63 307.38
  C 98.92 301.92 96.28 293.89 89.04 292.08
  C 88.55 291.96 88.53 291.77 88.96 291.51"
/>
<path stroke="#89898b" vector-effect="non-scaling-stroke" d="
  M 353.51 304.24
  L 353.55 309.94
  C 353.55 310.37 353.76 310.58 354.19 310.58
  L 359.23 310.53
  C 359.52 310.53 359.75 310.30 359.74 310.02
  L 359.70 304.78
  C 359.69 304.09 360.03 303.75 360.72 303.75
  L 363.75 303.75
  C 364.24 303.75 364.49 303.50 364.49 303.00
  L 364.52 299.24
  C 364.52 298.71 364.26 298.45 363.74 298.45
  L 360.23 298.47
  C 359.90 298.48 359.73 298.31 359.73 297.98
  L 359.72 275.57
  C 359.71 275.21 359.42 274.91 359.06 274.92
  L 351.03 274.93
  C 350.75 274.94 350.50 275.08 350.34 275.31
  C 345.91 282.14 341.63 289.09 337.49 296.16
  C 336.03 298.64 335.73 300.48 336.10 303.20
  C 336.15 303.52 336.42 303.76 336.74 303.76
  L 352.99 303.72
  C 353.34 303.72 353.51 303.89 353.51 304.24"
/>
<path stroke="#89898b" vector-effect="non-scaling-stroke" d="
  M 288.61 346.01
  L 289.52 336.26
  C 289.57 335.83 289.81 335.61 290.24 335.61
  L 305.44 335.63
  C 305.82 335.63 306.01 335.44 306.01 335.06
  L 306.02 330.94
  C 306.03 330.55 305.83 330.35 305.44 330.35
  L 285.28 330.32
  C 284.85 330.31 284.61 330.53 284.57 330.97
  L 282.96 350.72
  C 282.93 351.08 283.10 351.26 283.46 351.26
  L 287.72 351.24
  C 288.05 351.24 288.32 351.11 288.53 350.84
  C 291.54 346.91 297.44 345.99 300.59 350.08
  C 302.91 353.10 302.40 358.24 299.15 360.43
  C 295.07 363.18 289.78 361.40 288.17 356.54
  C 288.11 356.35 287.98 356.25 287.77 356.25
  L 282.54 356.26
  C 282.37 356.26 282.23 356.42 282.26 356.59
  C 284.84 370.81 306.04 370.09 307.89 356.24
  C 309.37 345.13 297.45 337.90 288.94 346.17
  C 288.81 346.30 288.59 346.19 288.61 346.01"
/>
<path stroke="#89898b" vector-effect="non-scaling-stroke" d="
  M 146.28 336.49
  L 131.35 365.47
  C 131.01 366.13 131.21 366.46 131.95 366.46
  L 136.50 366.45
  C 137.21 366.45 137.72 366.13 138.03 365.50
  C 142.73 355.99 147.54 346.41 152.45 336.75
  C 152.92 335.82 152.97 333.94 152.59 331.11
  C 152.56 330.87 152.43 330.75 152.19 330.75
  L 128.46 330.75
  C 128.10 330.75 127.92 330.93 127.93 331.29
  L 127.97 335.52
  C 127.97 335.89 128.15 336.07 128.52 336.07
  L 145.98 336.01
  C 146.23 336.01 146.39 336.27 146.28 336.49"
/>
<path stroke="#89898b" vector-effect="non-scaling-stroke" d="
  M 100.9340 157.0900
  C 104.96 157.08 108.21 150.92 108.2000 143.3173
  C 108.19 135.72 104.91 129.56 100.8860 129.5700
  C 96.86 129.58 93.61 135.74 93.6200 143.3427
  C 93.63 150.94 96.91 157.10 100.9340 157.0900"
/>
<path stroke="#fac67f" vector-effect="non-scaling-stroke" d="
  M 219.95 217.05
  C 219.95 215.45 218.65 214.15 217.05 214.15
  C 215.45 214.15 214.15 215.45 214.15 217.05
  C 214.15 218.65 215.45 219.95 217.05 219.95
  C 218.65 219.95 219.95 218.65 219.95 217.05"
/>
<path stroke="#89898b" vector-effect="non-scaling-stroke" d="
  M 64.83 210.60
  C 64.83 206.68 61.66 203.51 57.74 203.51
  C 53.82 203.51 50.65 206.68 50.65 210.60
  C 50.65 214.52 53.82 217.69 57.74 217.69
  C 61.66 217.69 64.83 214.52 64.83 210.60"
/>
<path stroke="#89898b" vector-effect="non-scaling-stroke" d="
  M 88.8700 284.2778
  C 88.86 281.34 86.00 278.97 82.4814 278.9800
  C 78.96 278.99 76.12 281.38 76.1300 284.3222
  C 76.14 287.26 79.00 289.63 82.5186 289.6200
  C 86.04 289.61 88.88 287.22 88.8700 284.2778"
/>
<path stroke="#89898b" vector-effect="non-scaling-stroke" d="
  M 89.8596 300.5271
  C 89.89 297.21 86.63 294.49 82.5628 294.4503
  C 78.50 294.41 75.18 297.06 75.1404 300.3729
  C 75.11 303.69 78.37 306.41 82.4372 306.4497
  C 86.50 306.49 89.82 303.84 89.8596 300.5271"
/>
<path stroke="#89898b" vector-effect="non-scaling-stroke" d="
  M 342.12 297.93
  C 341.96 298.19 342.15 298.52 342.45 298.52
  L 353.28 298.58
  C 353.49 298.58 353.67 298.40 353.67 298.19
  L 353.69 280.56
  C 353.69 280.16 353.17 280.02 352.97 280.35
  L 342.12 297.93"
/>
</g>
<path fill="#1c1c1e" d="
  M 0.00 0.00
  L 434.00 0.00
  L 434.00 434.00
  L 0.00 434.00
  L 0.00 0.00
  Z
  M 404.81 216.88
  C 404.81 112.95 320.55 28.69 216.62 28.69
  C 112.69 28.69 28.43 112.95 28.43 216.88
  C 28.43 320.81 112.69 405.07 216.62 405.07
  C 320.55 405.07 404.81 320.81 404.81 216.88
  Z"
/>
<path fill="#f6f5f8" d="
  M 404.81 216.88
  C 404.81 320.81 320.55 405.07 216.62 405.07
  C 112.69 405.07 28.43 320.81 28.43 216.88
  C 28.43 112.95 112.69 28.69 216.62 28.69
  C 320.55 28.69 404.81 112.95 404.81 216.88
  Z
  M 225.26 75.89
  C 224.87 75.89 224.67 75.42 224.95 75.15
  C 229.53 70.67 236.83 64.84 239.42 58.94
  C 242.55 51.81 237.19 45.54 230.00 44.78
  C 222.90 44.04 216.07 47.81 215.75 55.42
  C 215.73 55.73 215.97 55.98 216.28 55.99
  L 221.02 56.00
  C 221.44 56.00 221.67 55.79 221.70 55.38
  C 222.70 44.71 241.59 50.42 230.65 61.90
  C 226.30 66.47 221.89 70.98 217.41 75.43
  C 215.80 77.02 215.87 78.48 216.06 80.57
  C 216.10 80.96 216.31 81.16 216.70 81.16
  L 240.22 81.12
  C 240.55 81.12 240.81 80.86 240.81 80.53
  L 240.79 76.48
  C 240.78 76.03 240.56 75.81 240.11 75.81
  L 225.26 75.89
  Z
  M 200.37 51.97
  C 200.67 51.77 201.07 51.98 201.07 52.33
  L 201.04 80.76
  C 201.04 81.00 201.24 81.20 201.48 81.20
  L 207.05 81.16
  C 207.29 81.16 207.49 80.96 207.49 80.72
  L 207.48 45.93
  C 207.48 45.69 207.28 45.49 207.04 45.49
  L 201.24 45.50
  C 201.15 45.50 201.06 45.53 200.99 45.58
  L 191.95 51.98
  C 191.83 52.06 191.76 52.20 191.76 52.34
  L 191.79 57.23
  C 191.79 57.59 192.19 57.80 192.48 57.59
  L 200.37 51.97
  Z
  M 127.65 75.23
  C 127.91 75.04 128.27 75.23 128.27 75.55
  L 128.25 104.00
  C 128.25 104.22 128.42 104.39 128.64 104.39
  L 134.31 104.47
  C 134.53 104.47 134.71 104.29 134.71 104.07
  L 134.65 69.15
  C 134.65 68.93 134.48 68.76 134.26 68.76
  L 128.45 68.76
  C 128.37 68.76 128.29 68.78 128.23 68.83
  L 119.16 75.21
  C 119.05 75.29 118.99 75.41 118.99 75.53
  L 118.99 80.62
  C 118.99 80.94 119.35 81.13 119.61 80.94
  L 127.65 75.23
  Z
  M 143.14 80.43
  C 143.13 80.83 143.59 81.07 143.92 80.83
  L 151.68 75.19
  C 152.01 74.96 152.46 75.19 152.46 75.59
  L 152.44 103.91
  C 152.44 104.18 152.66 104.40 152.93 104.40
  L 158.29 104.45
  C 158.56 104.45 158.78 104.23 158.78 103.96
  L 158.76 69.28
  C 158.76 69.01 158.54 68.79 158.27 68.79
  L 152.66 68.76
  C 152.55 68.76 152.46 68.79 152.37 68.85
  L 143.39 75.14
  C 143.26 75.23 143.18 75.37 143.18 75.53
  L 143.14 80.43
  Z
  M 296.36 75.51
  L 296.29 103.48
  C 296.29 104.11 296.60 104.43 297.23 104.43
  L 301.81 104.43
  C 302.42 104.43 302.72 104.12 302.72 103.51
  L 302.69 69.62
  C 302.69 69.19 302.48 68.94 302.06 68.87
  C 299.02 68.35 296.67 68.44 294.01 70.40
  C 292.02 71.85 290.14 73.19 288.35 74.41
  C 287.51 74.97 287.01 75.92 287.01 76.93
  L 287.00 79.93
  C 286.99 80.92 287.39 81.12 288.20 80.55
  L 295.68 75.16
  C 296.13 74.83 296.36 74.94 296.36 75.51
  Z
  M 219.90 206.67
  L 219.84 192.69
  C 219.83 192.24 219.61 192.02 219.17 192.02
  L 214.99 192.01
  C 214.52 192.00 214.29 192.23 214.28 192.70
  L 213.95 206.74
  L 211.32 208.12
  C 211.03 208.28 210.68 208.26 210.41 208.06
  L 200.03 200.55
  C 199.77 200.36 199.62 200.04 199.64 199.72
  C 199.80 196.95 199.08 194.98 197.47 193.79
  C 180.52 181.30 163.54 168.84 146.54 156.41
  C 142.59 153.52 137.51 154.16 135.05 158.49
  C 132.58 162.86 135.09 166.41 138.85 169.15
  C 155.33 181.16 171.80 193.18 188.26 205.23
  C 190.15 206.62 192.44 206.83 195.13 205.87
  C 195.55 205.72 195.94 205.77 196.29 206.03
  L 206.30 213.39
  C 206.58 213.59 206.72 213.93 206.66 214.27
  C 205.67 220.41 208.01 224.73 213.68 227.23
  C 214.09 227.60 214.30 228.44 214.30 229.75
  C 214.38 270.24 214.34 310.74 214.19 351.23
  C 202.69 354.50 201.08 368.43 203.86 378.27
  C 205.35 383.52 208.77 386.85 214.12 388.25
  L 214.26 392.71
  C 214.28 393.38 214.63 393.72 215.30 393.73
  L 218.95 393.77
  C 219.52 393.78 219.99 393.32 219.98 392.75
  L 219.96 388.15
  C 233.41 385.24 233.97 366.00 219.85 364.27
  L 219.90 356.71
  C 221.47 357.66 222.52 358.67 223.04 359.76
  C 223.29 360.28 223.70 360.55 224.27 360.56
  L 228.99 360.64
  C 229.42 360.65 229.73 360.22 229.59 359.81
  C 227.98 355.20 224.80 352.37 220.07 351.30
  C 220.02 351.29 219.95 351.17 219.86 350.94
  C 219.81 350.82 219.78 350.69 219.78 350.54
  C 219.73 313.47 220.38 276.24 219.57 239.19
  C 219.48 235.11 219.64 231.12 220.06 227.21
  C 226.02 224.76 228.43 220.42 227.30 214.21
  C 227.24 213.86 227.35 213.58 227.64 213.37
  L 237.67 206.16
  C 237.94 205.97 238.23 205.91 238.54 206.00
  C 243.75 207.41 245.78 205.19 250.61 201.68
  C 280.60 179.91 310.58 158.13 340.54 136.32
  C 341.52 135.60 342.86 135.35 344.57 135.58
  C 344.89 135.62 345.19 135.40 345.25 135.08
  C 345.66 132.53 346.97 130.80 349.18 129.88
  C 356.36 126.89 360.12 135.09 355.40 140.16
  C 351.61 144.25 346.48 149.51 340.01 155.95
  C 339.78 156.19 339.66 156.47 339.67 156.80
  L 339.71 160.22
  C 339.71 160.55 339.88 160.72 340.22 160.72
  L 363.74 160.71
  C 364.20 160.71 364.43 160.48 364.44 160.01
  L 364.46 156.21
  C 364.47 155.80 364.13 155.46 363.71 155.46
  L 349.24 155.49
  C 348.14 155.49 347.99 155.11 348.79 154.36
  C 352.06 151.30 355.39 148.03 358.80 144.54
  C 365.24 137.95 366.44 128.53 356.38 124.77
  C 356.05 124.64 355.94 124.42 356.06 124.09
  C 357.82 119.12 355.67 114.36 350.48 113.38
  C 348.62 113.03 347.04 113.33 345.73 114.28
  C 309.88 140.43 273.96 166.49 237.99 192.47
  C 235.47 194.29 234.22 196.68 234.23 199.64
  C 234.23 200.06 234.03 200.46 233.69 200.70
  L 223.74 208.00
  C 223.43 208.23 223.11 208.25 222.76 208.08
  L 219.90 206.67
  Z
  M 100.87 161.97
  C 119.47 162.54 118.87 123.57 100.61 124.53
  C 87.27 125.23 85.82 141.81 88.48 151.75
  C 90.09 157.78 94.51 161.78 100.87 161.97
  Z
  M 71.99 132.04
  C 72.32 131.81 72.77 132.04 72.77 132.44
  L 72.77 160.68
  C 72.77 160.95 72.99 161.17 73.26 161.17
  L 78.75 161.17
  C 79.02 161.17 79.24 160.95 79.24 160.68
  L 79.25 126.00
  C 79.25 125.73 79.03 125.51 78.76 125.51
  L 73.02 125.49
  C 72.91 125.49 72.82 125.52 72.73 125.58
  L 63.70 131.95
  C 63.57 132.04 63.49 132.20 63.49 132.36
  L 63.52 137.15
  C 63.53 137.55 63.98 137.78 64.30 137.55
  L 71.99 132.04
  Z
  M 65.20 217.72
  C 65.60 217.10 65.81 217.16 65.82 217.90
  C 65.90 222.90 64.09 229.95 58.01 230.40
  C 55.73 230.56 52.97 229.46 51.88 227.28
  C 51.74 226.99 51.56 226.74 51.33 226.52
  C 51.05 226.25 50.65 226.10 50.12 226.09
  C 48.53 226.04 46.99 226.02 45.50 226.01
  C 45.23 226.01 45.03 226.25 45.09 226.51
  C 46.82 234.19 55.02 237.10 62.18 234.91
  C 73.77 231.37 74.19 210.65 67.77 202.83
  C 63.19 197.25 54.16 196.76 48.57 201.46
  C 42.38 206.66 43.41 217.66 50.46 221.15
  C 55.72 223.75 61.89 222.81 65.20 217.72
  Z
  M 379.44 215.83
  C 383.36 214.54 385.43 212.07 385.65 208.43
  C 386.44 195.47 362.82 194.79 361.15 208.10
  C 361.09 208.58 361.46 209.00 361.94 208.99
  L 366.01 208.97
  C 366.53 208.97 366.98 208.62 367.11 208.13
  C 368.22 203.95 373.38 202.27 377.04 204.16
  C 381.67 206.55 379.91 213.04 374.92 213.82
  C 373.08 214.11 371.38 214.18 369.83 214.03
  C 369.41 213.99 369.05 214.32 369.04 214.74
  L 368.98 218.00
  C 368.97 218.51 369.22 218.76 369.72 218.75
  C 373.49 218.71 378.09 218.43 380.04 222.08
  C 384.29 230.05 368.93 234.21 366.28 225.17
  C 366.21 224.92 366.04 224.79 365.78 224.79
  L 360.61 224.80
  C 360.45 224.80 360.33 224.93 360.35 225.09
  C 361.98 239.23 386.24 238.85 386.91 225.25
  C 387.20 219.48 383.97 218.07 379.43 216.40
  C 378.90 216.20 378.90 216.01 379.44 215.83
  Z
  M 88.96 291.51
  C 90.02 290.89 91.33 290.39 92.13 289.74
  C 95.89 286.70 96.18 280.42 92.16 277.32
  C 86.72 273.11 75.08 272.84 71.23 279.23
  C 68.24 284.19 70.70 289.95 75.96 291.37
  C 76.30 291.47 76.30 291.96 75.95 292.04
  C 71.32 293.14 68.26 297.14 68.62 301.87
  C 69.44 312.53 87.61 313.58 93.63 307.38
  C 98.92 301.92 96.28 293.89 89.04 292.08
  C 88.55 291.96 88.53 291.77 88.96 291.51
  Z
  M 353.51 304.24
  L 353.55 309.94
  C 353.55 310.37 353.76 310.58 354.19 310.58
  L 359.23 310.53
  C 359.52 310.53 359.75 310.30 359.74 310.02
  L 359.70 304.78
  C 359.69 304.09 360.03 303.75 360.72 303.75
  L 363.75 303.75
  C 364.24 303.75 364.49 303.50 364.49 303.00
  L 364.52 299.24
  C 364.52 298.71 364.26 298.45 363.74 298.45
  L 360.23 298.47
  C 359.90 298.48 359.73 298.31 359.73 297.98
  L 359.72 275.57
  C 359.71 275.21 359.42 274.91 359.06 274.92
  L 351.03 274.93
  C 350.75 274.94 350.50 275.08 350.34 275.31
  C 345.91 282.14 341.63 289.09 337.49 296.16
  C 336.03 298.64 335.73 300.48 336.10 303.20
  C 336.15 303.52 336.42 303.76 336.74 303.76
  L 352.99 303.72
  C 353.34 303.72 353.51 303.89 353.51 304.24
  Z
  M 288.61 346.01
  L 289.52 336.26
  C 289.57 335.83 289.81 335.61 290.24 335.61
  L 305.44 335.63
  C 305.82 335.63 306.01 335.44 306.01 335.06
  L 306.02 330.94
  C 306.03 330.55 305.83 330.35 305.44 330.35
  L 285.28 330.32
  C 284.85 330.31 284.61 330.53 284.57 330.97
  L 282.96 350.72
  C 282.93 351.08 283.10 351.26 283.46 351.26
  L 287.72 351.24
  C 288.05 351.24 288.32 351.11 288.53 350.84
  C 291.54 346.91 297.44 345.99 300.59 350.08
  C 302.91 353.10 302.40 358.24 299.15 360.43
  C 295.07 363.18 289.78 361.40 288.17 356.54
  C 288.11 356.35 287.98 356.25 287.77 356.25
  L 282.54 356.26
  C 282.37 356.26 282.23 356.42 282.26 356.59
  C 284.84 370.81 306.04 370.09 307.89 356.24
  C 309.37 345.13 297.45 337.90 288.94 346.17
  C 288.81 346.30 288.59 346.19 288.61 346.01
  Z
  M 146.28 336.49
  L 131.35 365.47
  C 131.01 366.13 131.21 366.46 131.95 366.46
  L 136.50 366.45
  C 137.21 366.45 137.72 366.13 138.03 365.50
  C 142.73 355.99 147.54 346.41 152.45 336.75
  C 152.92 335.82 152.97 333.94 152.59 331.11
  C 152.56 330.87 152.43 330.75 152.19 330.75
  L 128.46 330.75
  C 128.10 330.75 127.92 330.93 127.93 331.29
  L 127.97 335.52
  C 127.97 335.89 128.15 336.07 128.52 336.07
  L 145.98 336.01
  C 146.23 336.01 146.39 336.27 146.28 336.49
  Z"
/>
<path fill="#1c1c1e" d="
  M 225.26 75.89
  L 240.11 75.81
  C 240.56 75.81 240.78 76.03 240.79 76.48
  L 240.81 80.53
  C 240.81 80.86 240.55 81.12 240.22 81.12
  L 216.70 81.16
  C 216.31 81.16 216.10 80.96 216.06 80.57
  C 215.87 78.48 215.80 77.02 217.41 75.43
  C 221.89 70.98 226.30 66.47 230.65 61.90
  C 241.59 50.42 222.70 44.71 221.70 55.38
  C 221.67 55.79 221.44 56.00 221.02 56.00
  L 216.28 55.99
  C 215.97 55.98 215.73 55.73 215.75 55.42
  C 216.07 47.81 222.90 44.04 230.00 44.78
  C 237.19 45.54 242.55 51.81 239.42 58.94
  C 236.83 64.84 229.53 70.67 224.95 75.15
  C 224.67 75.42 224.87 75.89 225.26 75.89
  Z"
/>
<path fill="#1c1c1e" d="
  M 200.37 51.97
  L 192.48 57.59
  C 192.19 57.80 191.79 57.59 191.79 57.23
  L 191.76 52.34
  C 191.76 52.20 191.83 52.06 191.95 51.98
  L 200.99 45.58
  C 201.06 45.53 201.15 45.50 201.24 45.50
  L 207.04 45.49
  C 207.28 45.49 207.48 45.69 207.48 45.93
  L 207.49 80.72
  C 207.49 80.96 207.29 81.16 207.05 81.16
  L 201.48 81.20
  C 201.24 81.20 201.04 81.00 201.04 80.76
  L 201.07 52.33
  C 201.07 51.98 200.67 51.77 200.37 51.97
  Z"
/>
<path fill="#1c1c1e" d="
  M 127.65 75.23
  L 119.61 80.94
  C 119.35 81.13 118.99 80.94 118.99 80.62
  L 118.99 75.53
  C 118.99 75.41 119.05 75.29 119.16 75.21
  L 128.23 68.83
  C 128.29 68.78 128.37 68.76 128.45 68.76
  L 134.26 68.76
  C 134.48 68.76 134.65 68.93 134.65 69.15
  L 134.71 104.07
  C 134.71 104.29 134.53 104.47 134.31 104.47
  L 128.64 104.39
  C 128.42 104.39 128.25 104.22 128.25 104.00
  L 128.27 75.55
  C 128.27 75.23 127.91 75.04 127.65 75.23
  Z"
/>
<path fill="#1c1c1e" d="
  M 143.14 80.43
  L 143.18 75.53
  C 143.18 75.37 143.26 75.23 143.39 75.14
  L 152.37 68.85
  C 152.46 68.79 152.55 68.76 152.66 68.76
  L 158.27 68.79
  C 158.54 68.79 158.76 69.01 158.76 69.28
  L 158.78 103.96
  C 158.78 104.23 158.56 104.45 158.29 104.45
  L 152.93 104.40
  C 152.66 104.40 152.44 104.18 152.44 103.91
  L 152.46 75.59
  C 152.46 75.19 152.01 74.96 151.68 75.19
  L 143.92 80.83
  C 143.59 81.07 143.13 80.83 143.14 80.43
  Z"
/>
<path fill="#1c1c1e" d="
  M 295.68 75.16
  L 288.20 80.55
  C 287.39 81.12 286.99 80.92 287.00 79.93
  L 287.01 76.93
  C 287.01 75.92 287.51 74.97 288.35 74.41
  C 290.14 73.19 292.02 71.85 294.01 70.40
  C 296.67 68.44 299.02 68.35 302.06 68.87
  C 302.48 68.94 302.69 69.19 302.69 69.62
  L 302.72 103.51
  C 302.72 104.12 302.42 104.43 301.81 104.43
  L 297.23 104.43
  C 296.60 104.43 296.29 104.11 296.29 103.48
  L 296.36 75.51
  C 296.36 74.94 296.13 74.83 295.68 75.16
  Z"
/>
<path fill="#1c1c1e" d="
  M 220.06 227.21
  C 219.63 226.46 219.49 225.62 219.63 224.67
  C 219.96 222.54 222.30 221.69 223.20 219.70
  C 224.81 216.12 223.29 213.37 220.36 211.07
  C 220.09 210.86 219.91 210.59 219.82 210.26
  C 219.50 209.08 219.53 207.88 219.90 206.67
  L 222.76 208.08
  C 223.11 208.25 223.43 208.23 223.74 208.00
  L 233.69 200.70
  C 234.03 200.46 234.23 200.06 234.23 199.64
  C 234.22 196.68 235.47 194.29 237.99 192.47
  C 273.96 166.49 309.88 140.43 345.73 114.28
  C 347.04 113.33 348.62 113.03 350.48 113.38
  C 355.67 114.36 357.82 119.12 356.06 124.09
  C 355.94 124.42 356.05 124.64 356.38 124.77
  C 366.44 128.53 365.24 137.95 358.80 144.54
  C 355.39 148.03 352.06 151.30 348.79 154.36
  C 347.99 155.11 348.14 155.49 349.24 155.49
  L 363.71 155.46
  C 364.13 155.46 364.47 155.80 364.46 156.21
  L 364.44 160.01
  C 364.43 160.48 364.20 160.71 363.74 160.71
  L 340.22 160.72
  C 339.88 160.72 339.71 160.55 339.71 160.22
  L 339.67 156.80
  C 339.66 156.47 339.78 156.19 340.01 155.95
  C 346.48 149.51 351.61 144.25 355.40 140.16
  C 360.12 135.09 356.36 126.89 349.18 129.88
  C 346.97 130.80 345.66 132.53 345.25 135.08
  C 345.19 135.40 344.89 135.62 344.57 135.58
  C 342.86 135.35 341.52 135.60 340.54 136.32
  C 310.58 158.13 280.60 179.91 250.61 201.68
  C 245.78 205.19 243.75 207.41 238.54 206.00
  C 238.23 205.91 237.94 205.97 237.67 206.16
  L 227.64 213.37
  C 227.35 213.58 227.24 213.86 227.30 214.21
  C 228.43 220.42 226.02 224.76 220.06 227.21
  Z"
/>
<path fill="#1c1c1e" d="
  M 100.61 124.53
  C 118.87 123.57 119.47 162.54 100.87 161.97
  C 94.51 161.78 90.09 157.78 88.48 151.75
  C 85.82 141.81 87.27 125.23 100.61 124.53
  Z
  M 100.9340 157.0900
  C 104.96 157.08 108.21 150.92 108.2000 143.3173
  C 108.19 135.72 104.91 129.56 100.8860 129.5700
  C 96.86 129.58 93.61 135.74 93.6200 143.3427
  C 93.63 150.94 96.91 157.10 100.9340 157.0900
  Z"
/>
<path fill="#1c1c1e" d="
  M 71.99 132.04
  L 64.30 137.55
  C 63.98 137.78 63.53 137.55 63.52 137.15
  L 63.49 132.36
  C 63.49 132.20 63.57 132.04 63.70 131.95
  L 72.73 125.58
  C 72.82 125.52 72.91 125.49 73.02 125.49
  L 78.76 125.51
  C 79.03 125.51 79.25 125.73 79.25 126.00
  L 79.24 160.68
  C 79.24 160.95 79.02 161.17 78.75 161.17
  L 73.26 161.17
  C 72.99 161.17 72.77 160.95 72.77 160.68
  L 72.77 132.44
  C 72.77 132.04 72.32 131.81 71.99 132.04
  Z"
/>
<ellipse fill="#f6f5f8" cx="0.00" cy="0.00" transform="translate(100.91,143.33) rotate(89.9)" rx="13.76" ry="7.29"/>
<path fill="#1c1c1e" d="
  M 213.95 206.74
  C 214.49 207.82 214.55 209.01 214.12 210.31
  C 214.01 210.64 213.82 210.90 213.55 211.10
  C 209.94 213.80 208.78 219.08 212.28 221.97
  C 214.46 223.77 214.93 225.52 213.68 227.23
  C 208.01 224.73 205.67 220.41 206.66 214.27
  C 206.72 213.93 206.58 213.59 206.30 213.39
  L 196.29 206.03
  C 195.94 205.77 195.55 205.72 195.13 205.87
  C 192.44 206.83 190.15 206.62 188.26 205.23
  C 171.80 193.18 155.33 181.16 138.85 169.15
  C 135.09 166.41 132.58 162.86 135.05 158.49
  C 137.51 154.16 142.59 153.52 146.54 156.41
  C 163.54 168.84 180.52 181.30 197.47 193.79
  C 199.08 194.98 199.80 196.95 199.64 199.72
  C 199.62 200.04 199.77 200.36 200.03 200.55
  L 210.41 208.06
  C 210.68 208.26 211.03 208.28 211.32 208.12
  L 213.95 206.74
  Z"
/>
<path fill="#fd9605" d="
  M 219.90 206.67
  C 219.53 207.88 219.50 209.08 219.82 210.26
  C 219.91 210.59 220.09 210.86 220.36 211.07
  C 223.29 213.37 224.81 216.12 223.20 219.70
  C 222.30 221.69 219.96 222.54 219.63 224.67
  C 219.49 225.62 219.63 226.46 220.06 227.21
  C 219.64 231.12 219.48 235.11 219.57 239.19
  C 220.38 276.24 219.73 313.47 219.78 350.54
  C 219.78 350.69 219.81 350.82 219.86 350.94
  C 219.95 351.17 220.02 351.29 220.07 351.30
  C 219.56 352.97 219.51 354.77 219.90 356.71
  L 219.85 364.27
  C 219.59 366.17 219.62 367.96 219.94 369.65
  L 219.93 382.62
  C 219.58 384.44 219.59 386.28 219.96 388.15
  L 219.98 392.75
  C 219.99 393.32 219.52 393.78 218.95 393.77
  L 215.30 393.73
  C 214.63 393.72 214.28 393.38 214.26 392.71
  L 214.12 388.25
  C 214.39 386.14 214.34 384.27 213.97 382.64
  L 214.01 369.50
  C 214.30 368.20 214.33 366.67 214.10 364.92
  L 214.14 357.64
  C 214.14 357.47 214.07 357.34 213.92 357.25
  C 213.85 357.21 213.78 357.16 213.70 357.11
  C 213.83 357.04 213.94 356.97 214.02 356.90
  C 214.11 356.82 214.16 356.71 214.17 356.56
  C 214.31 354.79 214.32 353.02 214.19 351.23
  C 214.34 310.74 214.38 270.24 214.30 229.75
  C 214.30 228.44 214.09 227.60 213.68 227.23
  C 214.93 225.52 214.46 223.77 212.28 221.97
  C 208.78 219.08 209.94 213.80 213.55 211.10
  C 213.82 210.90 214.01 210.64 214.12 210.31
  C 214.55 209.01 214.49 207.82 213.95 206.74
  L 214.28 192.70
  C 214.29 192.23 214.52 192.00 214.99 192.01
  L 219.17 192.02
  C 219.61 192.02 219.83 192.24 219.84 192.69
  L 219.90 206.67
  Z
  M 219.95 217.05
  C 219.95 215.45 218.65 214.15 217.05 214.15
  C 215.45 214.15 214.15 215.45 214.15 217.05
  C 214.15 218.65 215.45 219.95 217.05 219.95
  C 218.65 219.95 219.95 218.65 219.95 217.05
  Z"
/>
<path fill="#1c1c1e" d="
  M 65.20 217.72
  C 61.89 222.81 55.72 223.75 50.46 221.15
  C 43.41 217.66 42.38 206.66 48.57 201.46
  C 54.16 196.76 63.19 197.25 67.77 202.83
  C 74.19 210.65 73.77 231.37 62.18 234.91
  C 55.02 237.10 46.82 234.19 45.09 226.51
  C 45.03 226.25 45.23 226.01 45.50 226.01
  C 46.99 226.02 48.53 226.04 50.12 226.09
  C 50.65 226.10 51.05 226.25 51.33 226.52
  C 51.56 226.74 51.74 226.99 51.88 227.28
  C 52.97 229.46 55.73 230.56 58.01 230.40
  C 64.09 229.95 65.90 222.90 65.82 217.90
  C 65.81 217.16 65.60 217.10 65.20 217.72
  Z
  M 64.83 210.60
  C 64.83 206.68 61.66 203.51 57.74 203.51
  C 53.82 203.51 50.65 206.68 50.65 210.60
  C 50.65 214.52 53.82 217.69 57.74 217.69
  C 61.66 217.69 64.83 214.52 64.83 210.60
  Z"
/>
<path fill="#1c1c1e" d="
  M 379.43 216.40
  C 383.97 218.07 387.20 219.48 386.91 225.25
  C 386.24 238.85 361.98 239.23 360.35 225.09
  C 360.33 224.93 360.45 224.80 360.61 224.80
  L 365.78 224.79
  C 366.04 224.79 366.21 224.92 366.28 225.17
  C 368.93 234.21 384.29 230.05 380.04 222.08
  C 378.09 218.43 373.49 218.71 369.72 218.75
  C 369.22 218.76 368.97 218.51 368.98 218.00
  L 369.04 214.74
  C 369.05 214.32 369.41 213.99 369.83 214.03
  C 371.38 214.18 373.08 214.11 374.92 213.82
  C 379.91 213.04 381.67 206.55 377.04 204.16
  C 373.38 202.27 368.22 203.95 367.11 208.13
  C 366.98 208.62 366.53 208.97 366.01 208.97
  L 361.94 208.99
  C 361.46 209.00 361.09 208.58 361.15 208.10
  C 362.82 194.79 386.44 195.47 385.65 208.43
  C 385.43 212.07 383.36 214.54 379.44 215.83
  C 378.90 216.01 378.90 216.20 379.43 216.40
  Z"
/>
<circle fill="#f6f5f8" cx="57.74" cy="210.60" r="7.09"/>
<circle fill="#f6f5f8" cx="217.05" cy="217.05" r="2.90"/>
<path fill="#1c1c1e" d="
  M 89.04 292.08
  C 96.28 293.89 98.92 301.92 93.63 307.38
  C 87.61 313.58 69.44 312.53 68.62 301.87
  C 68.26 297.14 71.32 293.14 75.95 292.04
  C 76.30 291.96 76.30 291.47 75.96 291.37
  C 70.70 289.95 68.24 284.19 71.23 279.23
  C 75.08 272.84 86.72 273.11 92.16 277.32
  C 96.18 280.42 95.89 286.70 92.13 289.74
  C 91.33 290.39 90.02 290.89 88.96 291.51
  C 88.53 291.77 88.55 291.96 89.04 292.08
  Z
  M 88.8700 284.2778
  C 88.86 281.34 86.00 278.97 82.4814 278.9800
  C 78.96 278.99 76.12 281.38 76.1300 284.3222
  C 76.14 287.26 79.00 289.63 82.5186 289.6200
  C 86.04 289.61 88.88 287.22 88.8700 284.2778
  Z
  M 89.8596 300.5271
  C 89.89 297.21 86.63 294.49 82.5628 294.4503
  C 78.50 294.41 75.18 297.06 75.1404 300.3729
  C 75.11 303.69 78.37 306.41 82.4372 306.4497
  C 86.50 306.49 89.82 303.84 89.8596 300.5271
  Z"
/>
<path fill="#1c1c1e" d="
  M 352.99 303.72
  L 336.74 303.76
  C 336.42 303.76 336.15 303.52 336.10 303.20
  C 335.73 300.48 336.03 298.64 337.49 296.16
  C 341.63 289.09 345.91 282.14 350.34 275.31
  C 350.50 275.08 350.75 274.94 351.03 274.93
  L 359.06 274.92
  C 359.42 274.91 359.71 275.21 359.72 275.57
  L 359.73 297.98
  C 359.73 298.31 359.90 298.48 360.23 298.47
  L 363.74 298.45
  C 364.26 298.45 364.52 298.71 364.52 299.24
  L 364.49 303.00
  C 364.49 303.50 364.24 303.75 363.75 303.75
  L 360.72 303.75
  C 360.03 303.75 359.69 304.09 359.70 304.78
  L 359.74 310.02
  C 359.75 310.30 359.52 310.53 359.23 310.53
  L 354.19 310.58
  C 353.76 310.58 353.55 310.37 353.55 309.94
  L 353.51 304.24
  C 353.51 303.89 353.34 303.72 352.99 303.72
  Z
  M 342.12 297.93
  C 341.96 298.19 342.15 298.52 342.45 298.52
  L 353.28 298.58
  C 353.49 298.58 353.67 298.40 353.67 298.19
  L 353.69 280.56
  C 353.69 280.16 353.17 280.02 352.97 280.35
  L 342.12 297.93
  Z"
/>
<ellipse fill="#f6f5f8" cx="0.00" cy="0.00" transform="translate(82.50,284.30) rotate(-0.2)" rx="6.37" ry="5.32"/>
<path fill="#f6f5f8" d="
  M 342.12 297.93
  L 352.97 280.35
  C 353.17 280.02 353.69 280.16 353.69 280.56
  L 353.67 298.19
  C 353.67 298.40 353.49 298.58 353.28 298.58
  L 342.45 298.52
  C 342.15 298.52 341.96 298.19 342.12 297.93
  Z"
/>
<ellipse fill="#f6f5f8" cx="0.00" cy="0.00" transform="translate(82.50,300.45) rotate(0.6)" rx="7.36" ry="6.00"/>
<path fill="#1c1c1e" d="
  M 288.61 346.01
  C 288.59 346.19 288.81 346.30 288.94 346.17
  C 297.45 337.90 309.37 345.13 307.89 356.24
  C 306.04 370.09 284.84 370.81 282.26 356.59
  C 282.23 356.42 282.37 356.26 282.54 356.26
  L 287.77 356.25
  C 287.98 356.25 288.11 356.35 288.17 356.54
  C 289.78 361.40 295.07 363.18 299.15 360.43
  C 302.40 358.24 302.91 353.10 300.59 350.08
  C 297.44 345.99 291.54 346.91 288.53 350.84
  C 288.32 351.11 288.05 351.24 287.72 351.24
  L 283.46 351.26
  C 283.10 351.26 282.93 351.08 282.96 350.72
  L 284.57 330.97
  C 284.61 330.53 284.85 330.31 285.28 330.32
  L 305.44 330.35
  C 305.83 330.35 306.03 330.55 306.02 330.94
  L 306.01 335.06
  C 306.01 335.44 305.82 335.63 305.44 335.63
  L 290.24 335.61
  C 289.81 335.61 289.57 335.83 289.52 336.26
  L 288.61 346.01
  Z"
/>
<path fill="#1c1c1e" d="
  M 145.98 336.01
  L 128.52 336.07
  C 128.15 336.07 127.97 335.89 127.97 335.52
  L 127.93 331.29
  C 127.92 330.93 128.10 330.75 128.46 330.75
  L 152.19 330.75
  C 152.43 330.75 152.56 330.87 152.59 331.11
  C 152.97 333.94 152.92 335.82 152.45 336.75
  C 147.54 346.41 142.73 355.99 138.03 365.50
  C 137.72 366.13 137.21 366.45 136.50 366.45
  L 131.95 366.46
  C 131.21 366.46 131.01 366.13 131.35 365.47
  L 146.28 336.49
  C 146.39 336.27 146.23 336.01 145.98 336.01
  Z"
/>
<path fill="#1c1c1e" d="
  M 214.19 351.23
  C 214.32 353.02 214.31 354.79 214.17 356.56
  C 214.16 356.71 214.11 356.82 214.02 356.90
  C 213.94 356.97 213.83 357.04 213.70 357.11
  C 209.98 359.82 208.90 364.56 208.79 368.99
  C 208.78 369.34 209.24 369.48 209.42 369.18
  C 210.48 367.44 212.04 366.02 214.10 364.92
  C 214.33 366.67 214.30 368.20 214.01 369.50
  C 208.45 372.66 208.48 379.33 213.97 382.64
  C 214.34 384.27 214.39 386.14 214.12 388.25
  C 208.77 386.85 205.35 383.52 203.86 378.27
  C 201.08 368.43 202.69 354.50 214.19 351.23
  Z"
/>
<path fill="#1c1c1e" d="
  M 220.07 351.30
  C 224.80 352.37 227.98 355.20 229.59 359.81
  C 229.73 360.22 229.42 360.65 228.99 360.64
  L 224.27 360.56
  C 223.70 360.55 223.29 360.28 223.04 359.76
  C 222.52 358.67 221.47 357.66 219.90 356.71
  C 219.51 354.77 219.56 352.97 220.07 351.30
  Z"
/>
<path fill="#f6f5f8" d="
  M 213.70 357.11
  C 213.78 357.16 213.85 357.21 213.92 357.25
  C 214.07 357.34 214.14 357.47 214.14 357.64
  L 214.10 364.92
  C 212.04 366.02 210.48 367.44 209.42 369.18
  C 209.24 369.48 208.78 369.34 208.79 368.99
  C 208.90 364.56 209.98 359.82 213.70 357.11
  Z"
/>
<path fill="#1c1c1e" d="
  M 219.85 364.27
  C 233.97 366.00 233.41 385.24 219.96 388.15
  C 219.59 386.28 219.58 384.44 219.93 382.62
  C 225.17 379.76 225.48 372.36 219.94 369.65
  C 219.62 367.96 219.59 366.17 219.85 364.27
  Z"
/>
<path fill="#f6f5f8" d="
  M 214.01 369.50
  L 213.97 382.64
  C 208.48 379.33 208.45 372.66 214.01 369.50
  Z"
/>
<path fill="#f6f5f8" d="
  M 219.94 369.65
  C 225.48 372.36 225.17 379.76 219.93 382.62
  L 219.94 369.65
  Z"
/>
</svg>
